<svg width="300" height="78" viewBox="0 0 300 78" fill="none" xmlns="http://www.w3.org/2000/svg">
<rect x="1" y="1" width="298" height="76" rx="19" fill="white" stroke="#E9E6F7" stroke-width="2"/>
<mask id="mask0_35_376" style="mask-type:luminance" maskUnits="userSpaceOnUse" x="0" y="0" width="300" height="78">
<rect width="300" height="78" rx="20" fill="white"/>
</mask>
<g mask="url(#mask0_35_376)">
</g>
<g clip-path="url(#clip0_35_376)">
<path d="M20.869 19.4545V34H18.234V22.0185H18.1488L14.7468 24.1918V21.777L18.3619 19.4545H20.869ZM29.9386 34.277C28.7691 34.277 27.7653 33.9811 26.9272 33.3892C26.0939 32.7926 25.4523 31.9332 25.0025 30.8111C24.5574 29.6842 24.3349 28.3277 24.3349 26.7415C24.3396 25.1553 24.5645 23.8059 25.0096 22.6932C25.4594 21.5758 26.101 20.7235 26.9343 20.1364C27.7724 19.5492 28.7738 19.2557 29.9386 19.2557C31.1033 19.2557 32.1048 19.5492 32.9428 20.1364C33.7809 20.7235 34.4225 21.5758 34.8675 22.6932C35.3174 23.8106 35.5423 25.16 35.5423 26.7415C35.5423 28.3324 35.3174 29.6913 34.8675 30.8182C34.4225 31.9403 33.7809 32.7973 32.9428 33.3892C32.1095 33.9811 31.1081 34.277 29.9386 34.277ZM29.9386 32.054C30.8477 32.054 31.565 31.6065 32.0906 30.7116C32.6209 29.812 32.886 28.4886 32.886 26.7415C32.886 25.5862 32.7653 24.6155 32.5238 23.8295C32.2823 23.0436 31.9414 22.4517 31.5011 22.054C31.0607 21.6515 30.5399 21.4503 29.9386 21.4503C29.0342 21.4503 28.3192 21.9001 27.7937 22.7997C27.2681 23.6946 27.003 25.0085 26.9982 26.7415C26.9935 27.9015 27.1095 28.8769 27.3462 29.6676C27.5877 30.4583 27.9286 31.0549 28.369 31.4574C28.8093 31.8551 29.3325 32.054 29.9386 32.054ZM40.3825 32.0114L40.2901 32.7926C40.2238 33.3892 40.1055 33.9953 39.935 34.6108C39.7693 35.2311 39.5941 35.8016 39.4094 36.3224C39.2248 36.8433 39.0756 37.2528 38.962 37.5511H37.229C37.2953 37.2623 37.3853 36.8693 37.4989 36.3722C37.6173 35.875 37.7309 35.3163 37.8398 34.696C37.9487 34.0758 38.0221 33.446 38.06 32.8068L38.1097 32.0114H40.3825ZM43.234 34V32.0966L48.2837 27.1463C48.7667 26.6586 49.1692 26.2254 49.4911 25.8466C49.8131 25.4678 50.0546 25.1009 50.2156 24.7457C50.3765 24.3906 50.457 24.0118 50.457 23.6094C50.457 23.1501 50.3529 22.7571 50.1445 22.4304C49.9362 22.099 49.6497 21.8433 49.2852 21.6634C48.9206 21.4834 48.5063 21.3935 48.0423 21.3935C47.564 21.3935 47.145 21.4929 46.7852 21.6918C46.4253 21.8859 46.146 22.1629 45.9471 22.5227C45.753 22.8826 45.6559 23.3111 45.6559 23.8082H43.1488C43.1488 22.8849 43.3595 22.0824 43.7809 21.4006C44.2023 20.7187 44.7823 20.1908 45.521 19.8168C46.2643 19.4427 47.1166 19.2557 48.0778 19.2557C49.0531 19.2557 49.9102 19.438 50.6488 19.8026C51.3874 20.1671 51.9603 20.6667 52.3675 21.3011C52.7795 21.9356 52.9854 22.66 52.9854 23.4744C52.9854 24.0189 52.8813 24.554 52.6729 25.0795C52.4646 25.6051 52.0977 26.1875 51.5721 26.8267C51.0513 27.4659 50.3197 28.2401 49.3775 29.1491L46.8704 31.6989V31.7983H53.2056V34H43.234ZM60.7127 34.1989C59.7657 34.1989 58.9182 34.0213 58.1701 33.6662C57.422 33.3063 56.8278 32.8139 56.3874 32.1889C55.9518 31.5639 55.7198 30.849 55.6914 30.044H58.2482C58.2956 30.6406 58.5536 31.1283 59.0224 31.5071C59.4911 31.8812 60.0546 32.0682 60.7127 32.0682C61.2288 32.0682 61.6881 31.9498 62.0906 31.7131C62.493 31.4763 62.8103 31.1473 63.0423 30.7259C63.2743 30.3045 63.3879 29.8239 63.3832 29.2841C63.3879 28.7348 63.2719 28.2472 63.0352 27.821C62.7984 27.3949 62.4741 27.0611 62.0621 26.8196C61.6502 26.5734 61.1767 26.4503 60.6417 26.4503C60.2061 26.4455 59.7776 26.526 59.3562 26.6918C58.9348 26.8575 58.601 27.0753 58.3548 27.3452L55.9755 26.9545L56.7354 19.4545H65.1729V21.6562H58.9158L58.4968 25.5128H58.582C58.8519 25.1955 59.2331 24.9328 59.7255 24.7244C60.2179 24.5114 60.7577 24.4048 61.3448 24.4048C62.2255 24.4048 63.0115 24.6132 63.7028 25.0298C64.3941 25.4418 64.9386 26.0099 65.3363 26.7344C65.734 27.4588 65.9329 28.2874 65.9329 29.2202C65.9329 30.1813 65.7103 31.0384 65.2653 31.7912C64.8249 32.5393 64.2118 33.1288 63.4258 33.5597C62.6445 33.9858 61.7402 34.1989 60.7127 34.1989ZM68.0494 31.3011V29.206L74.2212 19.4545H75.9684V22.4375H74.9031L70.7482 29.0213V29.1349H79.3633V31.3011H68.0494ZM74.9883 34V30.6619L75.0167 29.7244V19.4545H77.5025V34H74.9883Z" fill="#171725"/>
<path d="M94.0462 23.8182V34H92.2017V25.6129H92.142L89.7607 27.1342V25.4439L92.2912 23.8182H94.0462ZM97.2869 34.1094C96.9853 34.1094 96.7268 34.0033 96.5113 33.7912C96.2959 33.5791 96.1898 33.3205 96.1931 33.0156C96.1898 32.7173 96.2959 32.4621 96.5113 32.25C96.7268 32.0379 96.9853 31.9318 97.2869 31.9318C97.5786 31.9318 97.8321 32.0379 98.0475 32.25C98.2663 32.4621 98.3773 32.7173 98.3806 33.0156C98.3773 33.2178 98.3243 33.4018 98.2216 33.5675C98.1221 33.7332 97.9895 33.8658 97.8238 33.9652C97.6614 34.0613 97.4824 34.1094 97.2869 34.1094ZM103.723 34.1392C103.06 34.1392 102.467 34.0149 101.943 33.7663C101.42 33.5144 101.004 33.1697 100.695 32.7322C100.39 32.2947 100.228 31.7943 100.208 31.2308H101.998C102.031 31.6484 102.212 31.9898 102.54 32.255C102.868 32.5168 103.262 32.6477 103.723 32.6477C104.084 32.6477 104.406 32.5649 104.688 32.3991C104.969 32.2334 105.191 32.0031 105.354 31.7081C105.516 31.4131 105.596 31.0767 105.592 30.6989C105.596 30.3144 105.515 29.973 105.349 29.6747C105.183 29.3764 104.956 29.1428 104.668 28.9737C104.379 28.8014 104.048 28.7152 103.673 28.7152C103.368 28.7119 103.069 28.7682 102.774 28.8842C102.479 29.0002 102.245 29.1527 102.073 29.3416L100.407 29.0682L100.939 23.8182H106.845V25.3594H102.465L102.172 28.0589H102.232C102.421 27.8369 102.687 27.6529 103.032 27.5071C103.377 27.358 103.755 27.2834 104.166 27.2834C104.782 27.2834 105.332 27.4292 105.816 27.7209C106.3 28.0092 106.681 28.407 106.96 28.9141C107.238 29.4212 107.377 30.0012 107.377 30.6541C107.377 31.3269 107.221 31.9268 106.91 32.4538C106.602 32.9775 106.172 33.3902 105.622 33.6918C105.075 33.9901 104.442 34.1392 103.723 34.1392ZM114.574 32.0909V31.554C114.574 31.1596 114.657 30.7966 114.823 30.4652C114.992 30.1338 115.237 29.867 115.558 29.6648C115.88 29.4626 116.269 29.3615 116.727 29.3615C117.197 29.3615 117.592 29.4626 117.91 29.6648C118.228 29.8636 118.469 30.1288 118.631 30.4602C118.797 30.7917 118.88 31.1562 118.88 31.554V32.0909C118.88 32.4853 118.797 32.8482 118.631 33.1797C118.465 33.5111 118.222 33.7779 117.9 33.9801C117.582 34.1823 117.191 34.2834 116.727 34.2834C116.263 34.2834 115.87 34.1823 115.549 33.9801C115.227 33.7779 114.983 33.5111 114.818 33.1797C114.655 32.8482 114.574 32.4853 114.574 32.0909ZM115.872 31.554V32.0909C115.872 32.3527 115.935 32.593 116.061 32.8118C116.187 33.0305 116.409 33.1399 116.727 33.1399C117.048 33.1399 117.269 33.0322 117.388 32.8168C117.511 32.598 117.572 32.3561 117.572 32.0909V31.554C117.572 31.2888 117.514 31.0469 117.398 30.8281C117.282 30.6061 117.058 30.495 116.727 30.495C116.415 30.495 116.195 30.6061 116.066 30.8281C115.936 31.0469 115.872 31.2888 115.872 31.554ZM109.399 26.2642V25.7273C109.399 25.3295 109.483 24.965 109.652 24.6335C109.821 24.3021 110.067 24.0369 110.388 23.8381C110.71 23.6359 111.099 23.5348 111.556 23.5348C112.024 23.5348 112.416 23.6359 112.735 23.8381C113.056 24.0369 113.298 24.3021 113.46 24.6335C113.623 24.965 113.704 25.3295 113.704 25.7273V26.2642C113.704 26.6619 113.621 27.0265 113.456 27.358C113.293 27.6861 113.051 27.9496 112.73 28.1484C112.408 28.3473 112.017 28.4467 111.556 28.4467C111.089 28.4467 110.695 28.3473 110.373 28.1484C110.055 27.9496 109.813 27.6844 109.647 27.353C109.482 27.0215 109.399 26.6586 109.399 26.2642ZM110.706 25.7273V26.2642C110.706 26.5294 110.768 26.7713 110.89 26.9901C111.016 27.2055 111.238 27.3132 111.556 27.3132C111.875 27.3132 112.093 27.2055 112.213 26.9901C112.335 26.7713 112.397 26.5294 112.397 26.2642V25.7273C112.397 25.4621 112.339 25.2202 112.223 25.0014C112.107 24.7794 111.884 24.6683 111.556 24.6683C111.241 24.6683 111.021 24.7794 110.895 25.0014C110.769 25.2235 110.706 25.4654 110.706 25.7273ZM109.965 34L116.965 23.8182H118.208L111.208 34H109.965Z" fill="#FC5A5A"/>
<path d="M127.997 34.5C127.858 34.5007 127.719 34.4437 127.619 34.329L124.123 30.329C123.942 30.121 123.963 29.8052 124.171 29.6235C124.379 29.4418 124.695 29.4631 124.877 29.671L127.5 32.6736V26C127.5 25.7239 127.724 25.5 128 25.5C128.276 25.5 128.5 25.7239 128.5 26V32.665L131.124 29.6705C131.306 29.4628 131.622 29.442 131.83 29.6239C132.037 29.8059 132.058 30.1218 131.876 30.3295L128.414 34.2808C128.324 34.4131 128.172 34.5 128 34.5L127.997 34.5Z" fill="#FC5A5A"/>
<path d="M16.4148 52.2727L19.0057 59.6193H19.108L21.6989 52.2727H22.8068L19.6023 61H18.5114L15.3068 52.2727H16.4148ZM24.1155 61V54.4545H25.1212V61H24.1155ZM24.6269 53.3636C24.4309 53.3636 24.2619 53.2969 24.1198 53.1634C23.9806 53.0298 23.911 52.8693 23.911 52.6818C23.911 52.4943 23.9806 52.3338 24.1198 52.2003C24.2619 52.0668 24.4309 52 24.6269 52C24.8229 52 24.9905 52.0668 25.1297 52.2003C25.2718 52.3338 25.3428 52.4943 25.3428 52.6818C25.3428 52.8693 25.2718 53.0298 25.1297 53.1634C24.9905 53.2969 24.8229 53.3636 24.6269 53.3636ZM31.6853 55.9205L30.7819 56.1761C30.7251 56.0256 30.6412 55.8793 30.5304 55.7372C30.4225 55.5923 30.2748 55.473 30.0873 55.3793C29.8998 55.2855 29.6597 55.2386 29.3671 55.2386C28.9665 55.2386 28.6327 55.331 28.3657 55.5156C28.1015 55.6974 27.9694 55.929 27.9694 56.2102C27.9694 56.4602 28.0603 56.6577 28.2421 56.8026C28.4239 56.9474 28.708 57.0682 29.0944 57.1648L30.066 57.4034C30.6512 57.5455 31.0873 57.7628 31.3742 58.0554C31.6611 58.3452 31.8046 58.7187 31.8046 59.1761C31.8046 59.5511 31.6966 59.8864 31.4807 60.1818C31.2677 60.4773 30.9694 60.7102 30.5858 60.8807C30.2023 61.0511 29.7563 61.1364 29.2478 61.1364C28.5802 61.1364 28.0276 60.9915 27.5901 60.7017C27.1526 60.4119 26.8756 59.9886 26.7591 59.4318L27.7137 59.1932C27.8046 59.5455 27.9765 59.8097 28.2293 59.9858C28.485 60.1619 28.8188 60.25 29.2307 60.25C29.6995 60.25 30.0716 60.1506 30.3472 59.9517C30.6256 59.75 30.7648 59.5085 30.7648 59.2273C30.7648 59 30.6853 58.8097 30.5262 58.6562C30.3671 58.5 30.1228 58.3835 29.7932 58.3068L28.7023 58.0511C28.1029 57.9091 27.6626 57.6889 27.3813 57.3906C27.1029 57.0895 26.9637 56.7131 26.9637 56.2614C26.9637 55.892 27.0674 55.5653 27.2748 55.2812C27.485 54.9972 27.7705 54.7741 28.1313 54.6122C28.4949 54.4503 28.9069 54.3693 29.3671 54.3693C30.0148 54.3693 30.5233 54.5114 30.8927 54.7955C31.2648 55.0795 31.529 55.4545 31.6853 55.9205ZM33.4042 61V54.4545H34.4098V61H33.4042ZM33.9155 53.3636C33.7195 53.3636 33.5505 53.2969 33.4084 53.1634C33.2692 53.0298 33.1996 52.8693 33.1996 52.6818C33.1996 52.4943 33.2692 52.3338 33.4084 52.2003C33.5505 52.0668 33.7195 52 33.9155 52C34.1115 52 34.2792 52.0668 34.4184 52.2003C34.5604 52.3338 34.6314 52.4943 34.6314 52.6818C34.6314 52.8693 34.5604 53.0298 34.4184 53.1634C34.2792 53.2969 34.1115 53.3636 33.9155 53.3636ZM39.1841 54.4545V55.3068H35.7921V54.4545H39.1841ZM36.7807 52.8864H37.7864V59.125C37.7864 59.4091 37.8276 59.6222 37.91 59.7642C37.9952 59.9034 38.1032 59.9972 38.2338 60.0455C38.3674 60.0909 38.508 60.1136 38.6557 60.1136C38.7665 60.1136 38.8574 60.108 38.9284 60.0966C38.9995 60.0824 39.0563 60.071 39.0989 60.0625L39.3034 60.9659C39.2353 60.9915 39.1401 61.017 39.0179 61.0426C38.8958 61.071 38.7409 61.0852 38.5534 61.0852C38.2693 61.0852 37.9909 61.0241 37.7182 60.902C37.4483 60.7798 37.2239 60.5938 37.0449 60.3438C36.8688 60.0938 36.7807 59.7784 36.7807 59.3977V52.8864ZM42.7088 61.1534C42.294 61.1534 41.9176 61.0753 41.5795 60.919C41.2414 60.7599 40.973 60.5312 40.7741 60.233C40.5752 59.9318 40.4758 59.5682 40.4758 59.142C40.4758 58.767 40.5497 58.4631 40.6974 58.2301C40.8451 57.9943 41.0426 57.8097 41.2897 57.6761C41.5369 57.5426 41.8096 57.4432 42.1079 57.3778C42.409 57.3097 42.7116 57.2557 43.0156 57.2159C43.4133 57.1648 43.7357 57.1264 43.9829 57.1009C44.2329 57.0724 44.4147 57.0256 44.5284 56.9602C44.6448 56.8949 44.7031 56.7812 44.7031 56.6193V56.5852C44.7031 56.1648 44.588 55.8381 44.3579 55.6051C44.1306 55.3722 43.7855 55.2557 43.3224 55.2557C42.8423 55.2557 42.4659 55.3608 42.1931 55.571C41.9204 55.7812 41.7286 56.0057 41.6178 56.2443L40.6633 55.9034C40.8338 55.5057 41.061 55.196 41.3451 54.9744C41.6321 54.75 41.9446 54.5937 42.2826 54.5057C42.6235 54.4148 42.9588 54.3693 43.2883 54.3693C43.4985 54.3693 43.74 54.3949 44.0127 54.446C44.2883 54.4943 44.5539 54.5952 44.8096 54.7486C45.0681 54.902 45.2826 55.1335 45.4531 55.4432C45.6235 55.7528 45.7088 56.1676 45.7088 56.6875V61H44.7031V60.1136H44.6519C44.5838 60.2557 44.4701 60.4077 44.311 60.5696C44.1519 60.7315 43.9403 60.8693 43.6761 60.983C43.4119 61.0966 43.0894 61.1534 42.7088 61.1534ZM42.8622 60.25C43.2599 60.25 43.5951 60.1719 43.8678 60.0156C44.1434 59.8594 44.3508 59.6577 44.49 59.4105C44.6321 59.1634 44.7031 58.9034 44.7031 58.6307V57.7102C44.6605 57.7614 44.5667 57.8082 44.4218 57.8509C44.2798 57.8906 44.115 57.9261 43.9275 57.9574C43.7428 57.9858 43.5624 58.0114 43.3863 58.0341C43.213 58.054 43.0724 58.071 42.9644 58.0852C42.7031 58.1193 42.4588 58.1747 42.2315 58.2514C42.0071 58.3253 41.8252 58.4375 41.686 58.5881C41.5497 58.7358 41.4815 58.9375 41.4815 59.1932C41.4815 59.5426 41.6107 59.8068 41.8693 59.9858C42.1306 60.1619 42.4616 60.25 42.8622 60.25ZM48.6357 57.0625V61H47.6301V54.4545H48.6016V55.4773H48.6869C48.8403 55.1449 49.0732 54.8778 49.3857 54.6761C49.6982 54.4716 50.1016 54.3693 50.596 54.3693C51.0391 54.3693 51.4269 54.4602 51.7593 54.642C52.0917 54.821 52.3502 55.0938 52.5349 55.4602C52.7195 55.8239 52.8119 56.2841 52.8119 56.8409V61H51.8062V56.9091C51.8062 56.3949 51.6727 55.9943 51.4056 55.7074C51.1386 55.4176 50.7721 55.2727 50.3062 55.2727C49.9852 55.2727 49.6982 55.3423 49.4454 55.4815C49.1954 55.6207 48.998 55.8239 48.8531 56.0909C48.7082 56.358 48.6357 56.6818 48.6357 57.0625ZM57.5819 54.4545V55.3068H54.1898V54.4545H57.5819ZM55.1785 52.8864H56.1842V59.125C56.1842 59.4091 56.2254 59.6222 56.3077 59.7642C56.393 59.9034 56.5009 59.9972 56.6316 60.0455C56.7651 60.0909 56.9058 60.1136 57.0535 60.1136C57.1643 60.1136 57.2552 60.108 57.3262 60.0966C57.3972 60.0824 57.454 60.071 57.4967 60.0625L57.7012 60.9659C57.633 60.9915 57.5379 61.017 57.4157 61.0426C57.2935 61.071 57.1387 61.0852 56.9512 61.0852C56.6671 61.0852 56.3887 61.0241 56.116 60.902C55.8461 60.7798 55.6217 60.5938 55.4427 60.3438C55.2665 60.0938 55.1785 59.7784 55.1785 59.3977V52.8864ZM61.8544 61.1364C61.2237 61.1364 60.6797 60.9972 60.2223 60.7188C59.7677 60.4375 59.4169 60.0455 59.1697 59.5426C58.9254 59.0369 58.8033 58.4489 58.8033 57.7784C58.8033 57.108 58.9254 56.517 59.1697 56.0057C59.4169 55.4915 59.7606 55.0909 60.201 54.804C60.6442 54.5142 61.1612 54.3693 61.7521 54.3693C62.093 54.3693 62.4297 54.4261 62.7621 54.5398C63.0945 54.6534 63.397 54.8381 63.6697 55.0938C63.9425 55.3466 64.1598 55.6818 64.3217 56.0994C64.4837 56.517 64.5646 57.0312 64.5646 57.642V58.0682H59.5192V57.1989H63.5419C63.5419 56.8295 63.468 56.5 63.3203 56.2102C63.1754 55.9205 62.968 55.6918 62.6981 55.5241C62.4311 55.3565 62.1158 55.2727 61.7521 55.2727C61.3516 55.2727 61.005 55.3722 60.7123 55.571C60.4226 55.767 60.1996 56.0227 60.0433 56.3381C59.8871 56.6534 59.8089 56.9915 59.8089 57.3523V57.9318C59.8089 58.4261 59.8942 58.8452 60.0646 59.1889C60.2379 59.5298 60.478 59.7898 60.7848 59.9688C61.0916 60.1449 61.4481 60.233 61.8544 60.233C62.1186 60.233 62.3572 60.196 62.5703 60.1222C62.7862 60.0455 62.9723 59.9318 63.1285 59.7812C63.2848 59.6278 63.4055 59.4375 63.4908 59.2102L64.4623 59.483C64.3601 59.8125 64.1882 60.1023 63.9467 60.3523C63.7052 60.5994 63.407 60.7926 63.0518 60.9318C62.6967 61.0682 62.2976 61.1364 61.8544 61.1364ZM70.8165 55.9205L69.9131 56.1761C69.8563 56.0256 69.7725 55.8793 69.6617 55.7372C69.5537 55.5923 69.406 55.473 69.2185 55.3793C69.031 55.2855 68.791 55.2386 68.4983 55.2386C68.0978 55.2386 67.764 55.331 67.4969 55.5156C67.2327 55.6974 67.1006 55.929 67.1006 56.2102C67.1006 56.4602 67.1915 56.6577 67.3733 56.8026C67.5552 56.9474 67.8393 57.0682 68.2256 57.1648L69.1972 57.4034C69.7824 57.5455 70.2185 57.7628 70.5054 58.0554C70.7924 58.3452 70.9358 58.7187 70.9358 59.1761C70.9358 59.5511 70.8279 59.8864 70.612 60.1818C70.3989 60.4773 70.1006 60.7102 69.7171 60.8807C69.3336 61.0511 68.8875 61.1364 68.379 61.1364C67.7114 61.1364 67.1589 60.9915 66.7214 60.7017C66.2839 60.4119 66.0069 59.9886 65.8904 59.4318L66.8449 59.1932C66.9358 59.5455 67.1077 59.8097 67.3606 59.9858C67.6162 60.1619 67.95 60.25 68.362 60.25C68.8307 60.25 69.2029 60.1506 69.4785 59.9517C69.7569 59.75 69.8961 59.5085 69.8961 59.2273C69.8961 59 69.8165 58.8097 69.6574 58.6562C69.4983 58.5 69.254 58.3835 68.9245 58.3068L67.8336 58.0511C67.2341 57.9091 66.7938 57.6889 66.5125 57.3906C66.2341 57.0895 66.0949 56.7131 66.0949 56.2614C66.0949 55.892 66.1986 55.5653 66.406 55.2812C66.6162 54.9972 66.9018 54.7741 67.2625 54.6122C67.6262 54.4503 68.0381 54.3693 68.4983 54.3693C69.1461 54.3693 69.6546 54.5114 70.0239 54.7955C70.3961 55.0795 70.6603 55.4545 70.8165 55.9205ZM78.7404 61.1364C78.1098 61.1364 77.5657 60.9972 77.1083 60.7188C76.6538 60.4375 76.3029 60.0455 76.0558 59.5426C75.8115 59.0369 75.6893 58.4489 75.6893 57.7784C75.6893 57.108 75.8115 56.517 76.0558 56.0057C76.3029 55.4915 76.6467 55.0909 77.087 54.804C77.5302 54.5142 78.0473 54.3693 78.6382 54.3693C78.9791 54.3693 79.3157 54.4261 79.6481 54.5398C79.9805 54.6534 80.2831 54.8381 80.5558 55.0938C80.8285 55.3466 81.0458 55.6818 81.2078 56.0994C81.3697 56.517 81.4507 57.0312 81.4507 57.642V58.0682H76.4052V57.1989H80.4279C80.4279 56.8295 80.3541 56.5 80.2064 56.2102C80.0615 55.9205 79.8541 55.6918 79.5842 55.5241C79.3171 55.3565 79.0018 55.2727 78.6382 55.2727C78.2376 55.2727 77.891 55.3722 77.5984 55.571C77.3086 55.767 77.0856 56.0227 76.9294 56.3381C76.7731 56.6534 76.695 56.9915 76.695 57.3523V57.9318C76.695 58.4261 76.7802 58.8452 76.9507 59.1889C77.124 59.5298 77.364 59.7898 77.6708 59.9688C77.9777 60.1449 78.3342 60.233 78.7404 60.233C79.0046 60.233 79.2433 60.196 79.4564 60.1222C79.6723 60.0455 79.8583 59.9318 80.0146 59.7812C80.1708 59.6278 80.2916 59.4375 80.3768 59.2102L81.3484 59.483C81.2461 59.8125 81.0742 60.1023 80.8328 60.3523C80.5913 60.5994 80.293 60.7926 79.9379 60.9318C79.5828 61.0682 79.1836 61.1364 78.7404 61.1364ZM87.7026 55.9205L86.7992 56.1761C86.7424 56.0256 86.6585 55.8793 86.5477 55.7372C86.4398 55.5923 86.2921 55.473 86.1046 55.3793C85.9171 55.2855 85.677 55.2386 85.3844 55.2386C84.9838 55.2386 84.65 55.331 84.383 55.5156C84.1188 55.6974 83.9867 55.929 83.9867 56.2102C83.9867 56.4602 84.0776 56.6577 84.2594 56.8026C84.4412 56.9474 84.7253 57.0682 85.1117 57.1648L86.0833 57.4034C86.6685 57.5455 87.1046 57.7628 87.3915 58.0554C87.6784 58.3452 87.8219 58.7187 87.8219 59.1761C87.8219 59.5511 87.7139 59.8864 87.498 60.1818C87.285 60.4773 86.9867 60.7102 86.6031 60.8807C86.2196 61.0511 85.7736 61.1364 85.2651 61.1364C84.5975 61.1364 84.0449 60.9915 83.6074 60.7017C83.1699 60.4119 82.8929 59.9886 82.7764 59.4318L83.731 59.1932C83.8219 59.5455 83.9938 59.8097 84.2466 59.9858C84.5023 60.1619 84.8361 60.25 85.248 60.25C85.7168 60.25 86.0889 60.1506 86.3645 59.9517C86.6429 59.75 86.7821 59.5085 86.7821 59.2273C86.7821 59 86.7026 58.8097 86.5435 58.6562C86.3844 58.5 86.1401 58.3835 85.8105 58.3068L84.7196 58.0511C84.1202 57.9091 83.6799 57.6889 83.3986 57.3906C83.1202 57.0895 82.981 56.7131 82.981 56.2614C82.981 55.892 83.0847 55.5653 83.2921 55.2812C83.5023 54.9972 83.7878 54.7741 84.1486 54.6122C84.5122 54.4503 84.9242 54.3693 85.3844 54.3693C86.0321 54.3693 86.5406 54.5114 86.91 54.7955C87.2821 55.0795 87.5463 55.4545 87.7026 55.9205ZM94.0578 55.9205L93.1544 56.1761C93.0976 56.0256 93.0138 55.8793 92.903 55.7372C92.795 55.5923 92.6473 55.473 92.4598 55.3793C92.2723 55.2855 92.0323 55.2386 91.7396 55.2386C91.3391 55.2386 91.0053 55.331 90.7382 55.5156C90.474 55.6974 90.3419 55.929 90.3419 56.2102C90.3419 56.4602 90.4328 56.6577 90.6146 56.8026C90.7965 56.9474 91.0806 57.0682 91.4669 57.1648L92.4385 57.4034C93.0237 57.5455 93.4598 57.7628 93.7467 58.0554C94.0337 58.3452 94.1771 58.7187 94.1771 59.1761C94.1771 59.5511 94.0692 59.8864 93.8533 60.1818C93.6402 60.4773 93.3419 60.7102 92.9584 60.8807C92.5749 61.0511 92.1288 61.1364 91.6203 61.1364C90.9527 61.1364 90.4002 60.9915 89.9627 60.7017C89.5252 60.4119 89.2482 59.9886 89.1317 59.4318L90.0862 59.1932C90.1771 59.5455 90.349 59.8097 90.6019 59.9858C90.8575 60.1619 91.1913 60.25 91.6033 60.25C92.072 60.25 92.4442 60.1506 92.7198 59.9517C92.9982 59.75 93.1374 59.5085 93.1374 59.2273C93.1374 59 93.0578 58.8097 92.8987 58.6562C92.7396 58.5 92.4953 58.3835 92.1658 58.3068L91.0749 58.0511C90.4754 57.9091 90.0351 57.6889 89.7538 57.3906C89.4754 57.0895 89.3362 56.7131 89.3362 56.2614C89.3362 55.892 89.4399 55.5653 89.6473 55.2812C89.8575 54.9972 90.1431 54.7741 90.5038 54.6122C90.8675 54.4503 91.2794 54.3693 91.7396 54.3693C92.3874 54.3693 92.8959 54.5114 93.2652 54.7955C93.6374 55.0795 93.9016 55.4545 94.0578 55.9205ZM98.521 61.1364C97.8903 61.1364 97.3463 60.9972 96.8889 60.7188C96.4344 60.4375 96.0835 60.0455 95.8364 59.5426C95.592 59.0369 95.4699 58.4489 95.4699 57.7784C95.4699 57.108 95.592 56.517 95.8364 56.0057C96.0835 55.4915 96.4273 55.0909 96.8676 54.804C97.3108 54.5142 97.8278 54.3693 98.4187 54.3693C98.7597 54.3693 99.0963 54.4261 99.4287 54.5398C99.7611 54.6534 100.064 54.8381 100.336 55.0938C100.609 55.3466 100.826 55.6818 100.988 56.0994C101.15 56.517 101.231 57.0312 101.231 57.642V58.0682H96.1858V57.1989H100.209C100.209 56.8295 100.135 56.5 99.9869 56.2102C99.842 55.9205 99.6347 55.6918 99.3648 55.5241C99.0977 55.3565 98.7824 55.2727 98.4187 55.2727C98.0182 55.2727 97.6716 55.3722 97.379 55.571C97.0892 55.767 96.8662 56.0227 96.7099 56.3381C96.5537 56.6534 96.4756 56.9915 96.4756 57.3523V57.9318C96.4756 58.4261 96.5608 58.8452 96.7312 59.1889C96.9045 59.5298 97.1446 59.7898 97.4514 59.9688C97.7582 60.1449 98.1148 60.233 98.521 60.233C98.7852 60.233 99.0239 60.196 99.2369 60.1222C99.4528 60.0455 99.6389 59.9318 99.7952 59.7812C99.9514 59.6278 100.072 59.4375 100.157 59.2102L101.129 59.483C101.027 59.8125 100.855 60.1023 100.613 60.3523C100.372 60.5994 100.074 60.7926 99.7185 60.9318C99.3633 61.0682 98.9642 61.1364 98.521 61.1364ZM108.234 61.1534C107.819 61.1534 107.442 61.0753 107.104 60.919C106.766 60.7599 106.498 60.5312 106.299 60.233C106.1 59.9318 106.001 59.5682 106.001 59.142C106.001 58.767 106.075 58.4631 106.222 58.2301C106.37 57.9943 106.567 57.8097 106.815 57.6761C107.062 57.5426 107.334 57.4432 107.633 57.3778C107.934 57.3097 108.236 57.2557 108.54 57.2159C108.938 57.1648 109.261 57.1264 109.508 57.1009C109.758 57.0724 109.94 57.0256 110.053 56.9602C110.17 56.8949 110.228 56.7812 110.228 56.6193V56.5852C110.228 56.1648 110.113 55.8381 109.883 55.6051C109.656 55.3722 109.31 55.2557 108.847 55.2557C108.367 55.2557 107.991 55.3608 107.718 55.571C107.445 55.7812 107.254 56.0057 107.143 56.2443L106.188 55.9034C106.359 55.5057 106.586 55.196 106.87 54.9744C107.157 54.75 107.469 54.5937 107.808 54.5057C108.148 54.4148 108.484 54.3693 108.813 54.3693C109.023 54.3693 109.265 54.3949 109.538 54.446C109.813 54.4943 110.079 54.5952 110.334 54.7486C110.593 54.902 110.808 55.1335 110.978 55.4432C111.148 55.7528 111.234 56.1676 111.234 56.6875V61H110.228V60.1136H110.177C110.109 60.2557 109.995 60.4077 109.836 60.5696C109.677 60.7315 109.465 60.8693 109.201 60.983C108.937 61.0966 108.614 61.1534 108.234 61.1534ZM108.387 60.25C108.785 60.25 109.12 60.1719 109.393 60.0156C109.668 59.8594 109.876 59.6577 110.015 59.4105C110.157 59.1634 110.228 58.9034 110.228 58.6307V57.7102C110.185 57.7614 110.092 57.8082 109.947 57.8509C109.805 57.8906 109.64 57.9261 109.452 57.9574C109.268 57.9858 109.087 58.0114 108.911 58.0341C108.738 58.054 108.597 58.071 108.489 58.0852C108.228 58.1193 107.984 58.1747 107.756 58.2514C107.532 58.3253 107.35 58.4375 107.211 58.5881C107.075 58.7358 107.006 58.9375 107.006 59.1932C107.006 59.5426 107.136 59.8068 107.394 59.9858C107.656 60.1619 107.986 60.25 108.387 60.25ZM114.161 57.0625V61H113.155V54.4545H114.127V55.4773H114.212C114.365 55.1449 114.598 54.8778 114.911 54.6761C115.223 54.4716 115.627 54.3693 116.121 54.3693C116.564 54.3693 116.952 54.4602 117.284 54.642C117.617 54.821 117.875 55.0938 118.06 55.4602C118.244 55.8239 118.337 56.2841 118.337 56.8409V61H117.331V56.9091C117.331 56.3949 117.198 55.9943 116.931 55.7074C116.663 55.4176 116.297 55.2727 115.831 55.2727C115.51 55.2727 115.223 55.3423 114.97 55.4815C114.72 55.6207 114.523 55.8239 114.378 56.0909C114.233 56.358 114.161 56.6818 114.161 57.0625ZM122.919 61.1364C122.328 61.1364 121.81 60.9957 121.364 60.7145C120.921 60.4332 120.574 60.0398 120.324 59.5341C120.077 59.0284 119.953 58.4375 119.953 57.7614C119.953 57.0795 120.077 56.4844 120.324 55.9759C120.574 55.4673 120.921 55.0724 121.364 54.7912C121.81 54.5099 122.328 54.3693 122.919 54.3693C123.51 54.3693 124.027 54.5099 124.47 54.7912C124.916 55.0724 125.263 55.4673 125.51 55.9759C125.76 56.4844 125.885 57.0795 125.885 57.7614C125.885 58.4375 125.76 59.0284 125.51 59.5341C125.263 60.0398 124.916 60.4332 124.47 60.7145C124.027 60.9957 123.51 61.1364 122.919 61.1364ZM122.919 60.233C123.368 60.233 123.737 60.1179 124.027 59.8878C124.317 59.6577 124.531 59.3551 124.671 58.9801C124.81 58.6051 124.88 58.1989 124.88 57.7614C124.88 57.3239 124.81 56.9162 124.671 56.5384C124.531 56.1605 124.317 55.8551 124.027 55.6222C123.737 55.3892 123.368 55.2727 122.919 55.2727C122.47 55.2727 122.101 55.3892 121.811 55.6222C121.522 55.8551 121.307 56.1605 121.168 56.5384C121.029 56.9162 120.959 57.3239 120.959 57.7614C120.959 58.1989 121.029 58.6051 121.168 58.9801C121.307 59.3551 121.522 59.6577 121.811 59.8878C122.101 60.1179 122.47 60.233 122.919 60.233Z" fill="#696974"/>
</g>
<path d="M178 38.9742C178 38.9742 181.824 38.1283 186.171 40.1604C194.439 44.0252 194.911 36.9477 197.977 33.5351C200.782 30.4129 203.105 32.3179 206.228 36.1361C208.532 38.9521 211.889 43.6792 215.365 42.9182C218.543 42.2226 220.796 36.6784 225.201 35.2684C228.692 34.1509 231.529 37.221 235.55 36.1361C241.003 34.6643 241.816 29.0267 245.713 29.0267C250.524 29.0267 253.537 39.0866 257.913 39.0866C262.264 39.0866 264.502 29.1417 269.261 32.1607C272.899 34.4687 275 26 275 26" stroke="#0062FF" stroke-width="3" stroke-linecap="round" stroke-linejoin="round"/>
<g filter="url(#filter0_d_35_376)">
<rect x="241" y="26" width="10" height="10" rx="5" fill="#0062FF"/>
<rect x="241.75" y="26.75" width="8.5" height="8.5" rx="4.25" stroke="white" stroke-width="1.5"/>
</g>
<defs>
<filter id="filter0_d_35_376" x="239" y="25" width="14" height="14" filterUnits="userSpaceOnUse" color-interpolation-filters="sRGB">
<feFlood flood-opacity="0" result="BackgroundImageFix"/>
<feColorMatrix in="SourceAlpha" type="matrix" values="0 0 0 0 0 0 0 0 0 0 0 0 0 0 0 0 0 0 127 0" result="hardAlpha"/>
<feOffset dy="1"/>
<feGaussianBlur stdDeviation="1"/>
<feColorMatrix type="matrix" values="0 0 0 0 0.268354 0 0 0 0 0.268354 0 0 0 0 0.31049 0 0 0 0.15 0"/>
<feBlend mode="normal" in2="BackgroundImageFix" result="effect1_dropShadow_35_376"/>
<feBlend mode="normal" in="SourceGraphic" in2="effect1_dropShadow_35_376" result="shape"/>
</filter>
<clipPath id="clip0_35_376">
<rect width="119" height="48" fill="white" transform="translate(15 15)"/>
</clipPath>
</defs>
</svg>
