<svg width="350" height="78" viewBox="0 0 350 78" fill="none" xmlns="http://www.w3.org/2000/svg">
<rect x="1" y="1" width="348" height="76" rx="19" fill="white" stroke="#E9E6F7" stroke-width="2"/>
<mask id="mask0_35_376" style="mask-type:luminance" maskUnits="userSpaceOnUse" x="0" y="0" width="350" height="78">
<rect width="350" height="78" rx="20" fill="white"/>
</mask>
<g mask="url(#mask0_35_376)">
</g>
<g clip-path="url(#clip0_35_376)">
<path d="M28.7023 19.4545V34H26.0674V22.0185H25.9821L22.5801 24.1918V21.777L26.1952 19.4545H28.7023ZM37.7719 34.277C36.6024 34.277 35.5986 33.9811 34.7605 33.3892C33.9272 32.7926 33.2856 31.9332 32.8358 30.8111C32.3907 29.6842 32.1682 28.3277 32.1682 26.7415C32.1729 25.1553 32.3978 23.8059 32.8429 22.6932C33.2927 21.5758 33.9343 20.7235 34.7676 20.1364C35.6057 19.5492 36.6071 19.2557 37.7719 19.2557C38.9367 19.2557 39.9381 19.5492 40.7762 20.1364C41.6142 20.7235 42.2558 21.5758 42.7009 22.6932C43.1507 23.8106 43.3756 25.16 43.3756 26.7415C43.3756 28.3324 43.1507 29.6913 42.7009 30.8182C42.2558 31.9403 41.6142 32.7973 40.7762 33.3892C39.9428 33.9811 38.9414 34.277 37.7719 34.277ZM37.7719 32.054C38.681 32.054 39.3983 31.6065 39.9239 30.7116C40.4542 29.812 40.7193 28.4886 40.7193 26.7415C40.7193 25.5862 40.5986 24.6155 40.3571 23.8295C40.1156 23.0436 39.7747 22.4517 39.3344 22.054C38.8941 21.6515 38.3732 21.4503 37.7719 21.4503C36.8675 21.4503 36.1526 21.9001 35.627 22.7997C35.1014 23.6946 34.8363 25.0085 34.8316 26.7415C34.8268 27.9015 34.9428 28.8769 35.1796 29.6676C35.421 30.4583 35.762 31.0549 36.2023 31.4574C36.6426 31.8551 37.1658 32.054 37.7719 32.054ZM48.2158 32.0114L48.1235 32.7926C48.0572 33.3892 47.9388 33.9953 47.7683 34.6108C47.6026 35.2311 47.4274 35.8016 47.2428 36.3224C47.0581 36.8433 46.909 37.2528 46.7953 37.5511H45.0624C45.1287 37.2623 45.2186 36.8693 45.3323 36.3722C45.4506 35.875 45.5643 35.3163 45.6732 34.696C45.7821 34.0758 45.8555 33.446 45.8933 32.8068L45.9431 32.0114H48.2158ZM51.0674 34V32.0966L56.1171 27.1463C56.6 26.6586 57.0025 26.2254 57.3245 25.8466C57.6464 25.4678 57.8879 25.1009 58.0489 24.7457C58.2099 24.3906 58.2904 24.0118 58.2904 23.6094C58.2904 23.1501 58.1862 22.7571 57.9779 22.4304C57.7695 22.099 57.4831 21.8433 57.1185 21.6634C56.7539 21.4834 56.3396 21.3935 55.8756 21.3935C55.3974 21.3935 54.9783 21.4929 54.6185 21.6918C54.2586 21.8859 53.9793 22.1629 53.7804 22.5227C53.5863 22.8826 53.4892 23.3111 53.4892 23.8082H50.9821C50.9821 22.8849 51.1928 22.0824 51.6142 21.4006C52.0356 20.7187 52.6156 20.1908 53.3543 19.8168C54.0977 19.4427 54.9499 19.2557 55.9111 19.2557C56.8865 19.2557 57.7435 19.438 58.4821 19.8026C59.2208 20.1671 59.7937 20.6667 60.2009 21.3011C60.6128 21.9356 60.8188 22.66 60.8188 23.4744C60.8188 24.0189 60.7146 24.554 60.5063 25.0795C60.2979 25.6051 59.931 26.1875 59.4054 26.8267C58.8846 27.4659 58.1531 28.2401 57.2108 29.1491L54.7037 31.6989V31.7983H61.0389V34H51.0674ZM68.546 34.1989C67.5991 34.1989 66.7515 34.0213 66.0034 33.6662C65.2553 33.3063 64.6611 32.8139 64.2208 32.1889C63.7852 31.5639 63.5531 30.849 63.5247 30.044H66.0816C66.1289 30.6406 66.387 31.1283 66.8557 31.5071C67.3245 31.8812 67.8879 32.0682 68.546 32.0682C69.0621 32.0682 69.5214 31.9498 69.9239 31.7131C70.3263 31.4763 70.6436 31.1473 70.8756 30.7259C71.1076 30.3045 71.2212 29.8239 71.2165 29.2841C71.2212 28.7348 71.1052 28.2472 70.8685 27.821C70.6317 27.3949 70.3074 27.0611 69.8955 26.8196C69.4835 26.5734 69.0101 26.4503 68.475 26.4503C68.0394 26.4455 67.6109 26.526 67.1895 26.6918C66.7681 26.8575 66.4343 27.0753 66.1881 27.3452L63.8088 26.9545L64.5688 19.4545H73.0063V21.6562H66.7492L66.3301 25.5128H66.4154C66.6852 25.1955 67.0664 24.9328 67.5588 24.7244C68.0513 24.5114 68.591 24.4048 69.1781 24.4048C70.0588 24.4048 70.8448 24.6132 71.5361 25.0298C72.2274 25.4418 72.7719 26.0099 73.1696 26.7344C73.5674 27.4588 73.7662 28.2874 73.7662 29.2202C73.7662 30.1813 73.5437 31.0384 73.0986 31.7912C72.6583 32.5393 72.0451 33.1288 71.2591 33.5597C70.4779 33.9858 69.5735 34.1989 68.546 34.1989ZM75.8827 31.3011V29.206L82.0546 19.4545H83.8017V22.4375H82.7364L78.5816 29.0213V29.1349H87.1966V31.3011H75.8827ZM82.8216 34V30.6619L82.85 29.7244V19.4545H85.3358V34H82.8216Z" fill="#171725"/>
<path d="M108.879 23.8182V34H107.035V25.6129H106.975L104.594 27.1342V25.4439L107.125 23.8182H108.879ZM112.12 34.1094C111.819 34.1094 111.56 34.0033 111.345 33.7912C111.129 33.5791 111.023 33.3205 111.026 33.0156C111.023 32.7173 111.129 32.4621 111.345 32.25C111.56 32.0379 111.819 31.9318 112.12 31.9318C112.412 31.9318 112.665 32.0379 112.881 32.25C113.1 32.4621 113.211 32.7173 113.214 33.0156C113.211 33.2178 113.158 33.4018 113.055 33.5675C112.955 33.7332 112.823 33.8658 112.657 33.9652C112.495 34.0613 112.316 34.1094 112.12 34.1094ZM118.556 34.1392C117.894 34.1392 117.3 34.0149 116.777 33.7663C116.253 33.5144 115.837 33.1697 115.529 32.7322C115.224 32.2947 115.061 31.7943 115.042 31.2308H116.831C116.864 31.6484 117.045 31.9898 117.373 32.255C117.701 32.5168 118.096 32.6477 118.556 32.6477C118.918 32.6477 119.239 32.5649 119.521 32.3991C119.803 32.2334 120.025 32.0031 120.187 31.7081C120.35 31.4131 120.429 31.0767 120.426 30.6989C120.429 30.3144 120.348 29.973 120.182 29.6747C120.016 29.3764 119.789 29.1428 119.501 28.9737C119.213 28.8014 118.881 28.7152 118.507 28.7152C118.202 28.7119 117.902 28.7682 117.607 28.8842C117.312 29.0002 117.078 29.1527 116.906 29.3416L115.24 29.0682L115.772 23.8182H121.679V25.3594H117.299L117.005 28.0589H117.065C117.254 27.8369 117.521 27.6529 117.865 27.5071C118.21 27.358 118.588 27.2834 118.999 27.2834C119.615 27.2834 120.166 27.4292 120.649 27.7209C121.133 28.0092 121.515 28.407 121.793 28.9141C122.071 29.4212 122.211 30.0012 122.211 30.6541C122.211 31.3269 122.055 31.9268 121.743 32.4538C121.435 32.9775 121.006 33.3902 120.456 33.6918C119.909 33.9901 119.276 34.1392 118.556 34.1392ZM129.407 32.0909V31.554C129.407 31.1596 129.49 30.7966 129.656 30.4652C129.825 30.1338 130.07 29.867 130.392 29.6648C130.713 29.4626 131.103 29.3615 131.56 29.3615C132.031 29.3615 132.425 29.4626 132.743 29.6648C133.062 29.8636 133.302 30.1288 133.464 30.4602C133.63 30.7917 133.713 31.1562 133.713 31.554V32.0909C133.713 32.4853 133.63 32.8482 133.464 33.1797C133.299 33.5111 133.055 33.7779 132.733 33.9801C132.415 34.1823 132.024 34.2834 131.56 34.2834C131.096 34.2834 130.703 34.1823 130.382 33.9801C130.06 33.7779 129.817 33.5111 129.651 33.1797C129.489 32.8482 129.407 32.4853 129.407 32.0909ZM130.705 31.554V32.0909C130.705 32.3527 130.768 32.593 130.894 32.8118C131.02 33.0305 131.242 33.1399 131.56 33.1399C131.882 33.1399 132.102 33.0322 132.221 32.8168C132.344 32.598 132.405 32.3561 132.405 32.0909V31.554C132.405 31.2888 132.347 31.0469 132.231 30.8281C132.115 30.6061 131.892 30.495 131.56 30.495C131.249 30.495 131.028 30.6061 130.899 30.8281C130.77 31.0469 130.705 31.2888 130.705 31.554ZM124.232 26.2642V25.7273C124.232 25.3295 124.317 24.965 124.486 24.6335C124.655 24.3021 124.9 24.0369 125.221 23.8381C125.543 23.6359 125.932 23.5348 126.39 23.5348C126.857 23.5348 127.25 23.6359 127.568 23.8381C127.889 24.0369 128.131 24.3021 128.294 24.6335C128.456 24.965 128.537 25.3295 128.537 25.7273V26.2642C128.537 26.6619 128.455 27.0265 128.289 27.358C128.126 27.6861 127.884 27.9496 127.563 28.1484C127.241 28.3473 126.85 28.4467 126.39 28.4467C125.922 28.4467 125.528 28.3473 125.206 28.1484C124.888 27.9496 124.646 27.6844 124.481 27.353C124.315 27.0215 124.232 26.6586 124.232 26.2642ZM125.54 25.7273V26.2642C125.54 26.5294 125.601 26.7713 125.723 26.9901C125.849 27.2055 126.071 27.3132 126.39 27.3132C126.708 27.3132 126.927 27.2055 127.046 26.9901C127.169 26.7713 127.23 26.5294 127.23 26.2642V25.7273C127.23 25.4621 127.172 25.2202 127.056 25.0014C126.94 24.7794 126.718 24.6683 126.39 24.6683C126.075 24.6683 125.854 24.7794 125.728 25.0014C125.603 25.2235 125.54 25.4654 125.54 25.7273ZM124.799 34L131.799 23.8182H133.042L126.042 34H124.799Z" fill="#FC5A5A"/>
<path d="M149.33 34.5C149.168 34.5007 149.005 34.4437 148.888 34.329L144.811 30.329C144.599 30.121 144.624 29.8052 144.866 29.6235C145.109 29.4418 145.477 29.4631 145.689 29.671L148.75 32.6736V26C148.75 25.7239 149.011 25.5 149.333 25.5C149.655 25.5 149.917 25.7239 149.917 26V32.665L152.978 29.6705C153.19 29.4628 153.559 29.442 153.801 29.6239C154.043 29.8059 154.068 30.1218 153.855 30.3295L149.816 34.2808C149.711 34.4131 149.534 34.5 149.333 34.5L149.33 34.5Z" fill="#FC5A5A"/>
<path d="M18.9148 52.2727L21.5057 59.6193H21.608L24.1989 52.2727H25.3068L22.1023 61H21.0114L17.8068 52.2727H18.9148ZM26.6155 61V54.4545H27.6212V61H26.6155ZM27.1269 53.3636C26.9309 53.3636 26.7619 53.2969 26.6198 53.1634C26.4806 53.0298 26.411 52.8693 26.411 52.6818C26.411 52.4943 26.4806 52.3338 26.6198 52.2003C26.7619 52.0668 26.9309 52 27.1269 52C27.3229 52 27.4905 52.0668 27.6297 52.2003C27.7718 52.3338 27.8428 52.4943 27.8428 52.6818C27.8428 52.8693 27.7718 53.0298 27.6297 53.1634C27.4905 53.2969 27.3229 53.3636 27.1269 53.3636ZM34.1853 55.9205L33.2819 56.1761C33.2251 56.0256 33.1412 55.8793 33.0304 55.7372C32.9225 55.5923 32.7748 55.473 32.5873 55.3793C32.3998 55.2855 32.1597 55.2386 31.8671 55.2386C31.4665 55.2386 31.1327 55.331 30.8657 55.5156C30.6015 55.6974 30.4694 55.929 30.4694 56.2102C30.4694 56.4602 30.5603 56.6577 30.7421 56.8026C30.9239 56.9474 31.208 57.0682 31.5944 57.1648L32.566 57.4034C33.1512 57.5455 33.5873 57.7628 33.8742 58.0554C34.1611 58.3452 34.3046 58.7187 34.3046 59.1761C34.3046 59.5511 34.1966 59.8864 33.9807 60.1818C33.7677 60.4773 33.4694 60.7102 33.0858 60.8807C32.7023 61.0511 32.2563 61.1364 31.7478 61.1364C31.0802 61.1364 30.5276 60.9915 30.0901 60.7017C29.6526 60.4119 29.3756 59.9886 29.2591 59.4318L30.2137 59.1932C30.3046 59.5455 30.4765 59.8097 30.7293 59.9858C30.985 60.1619 31.3188 60.25 31.7307 60.25C32.1995 60.25 32.5716 60.1506 32.8472 59.9517C33.1256 59.75 33.2648 59.5085 33.2648 59.2273C33.2648 59 33.1853 58.8097 33.0262 58.6562C32.8671 58.5 32.6228 58.3835 32.2932 58.3068L31.2023 58.0511C30.6029 57.9091 30.1626 57.6889 29.8813 57.3906C29.6029 57.0895 29.4637 56.7131 29.4637 56.2614C29.4637 55.892 29.5674 55.5653 29.7748 55.2812C29.985 54.9972 30.2705 54.7741 30.6313 54.6122C30.9949 54.4503 31.4069 54.3693 31.8671 54.3693C32.5148 54.3693 33.0233 54.5114 33.3927 54.7955C33.7648 55.0795 34.029 55.4545 34.1853 55.9205ZM35.9042 61V54.4545H36.9098V61H35.9042ZM36.4155 53.3636C36.2195 53.3636 36.0505 53.2969 35.9084 53.1634C35.7692 53.0298 35.6996 52.8693 35.6996 52.6818C35.6996 52.4943 35.7692 52.3338 35.9084 52.2003C36.0505 52.0668 36.2195 52 36.4155 52C36.6115 52 36.7792 52.0668 36.9184 52.2003C37.0604 52.3338 37.1314 52.4943 37.1314 52.6818C37.1314 52.8693 37.0604 53.0298 36.9184 53.1634C36.7792 53.2969 36.6115 53.3636 36.4155 53.3636ZM41.6841 54.4545V55.3068H38.2921V54.4545H41.6841ZM39.2807 52.8864H40.2864V59.125C40.2864 59.4091 40.3276 59.6222 40.41 59.7642C40.4952 59.9034 40.6032 59.9972 40.7338 60.0455C40.8674 60.0909 41.008 60.1136 41.1557 60.1136C41.2665 60.1136 41.3574 60.108 41.4284 60.0966C41.4995 60.0824 41.5563 60.071 41.5989 60.0625L41.8034 60.9659C41.7353 60.9915 41.6401 61.017 41.5179 61.0426C41.3958 61.071 41.2409 61.0852 41.0534 61.0852C40.7693 61.0852 40.4909 61.0241 40.2182 60.902C39.9483 60.7798 39.7239 60.5938 39.5449 60.3438C39.3688 60.0938 39.2807 59.7784 39.2807 59.3977V52.8864ZM45.2088 61.1534C44.794 61.1534 44.4176 61.0753 44.0795 60.919C43.7414 60.7599 43.473 60.5312 43.2741 60.233C43.0752 59.9318 42.9758 59.5682 42.9758 59.142C42.9758 58.767 43.0497 58.4631 43.1974 58.2301C43.3451 57.9943 43.5426 57.8097 43.7897 57.6761C44.0369 57.5426 44.3096 57.4432 44.6079 57.3778C44.909 57.3097 45.2116 57.2557 45.5156 57.2159C45.9133 57.1648 46.2357 57.1264 46.4829 57.1009C46.7329 57.0724 46.9147 57.0256 47.0284 56.9602C47.1448 56.8949 47.2031 56.7812 47.2031 56.6193V56.5852C47.2031 56.1648 47.088 55.8381 46.8579 55.6051C46.6306 55.3722 46.2855 55.2557 45.8224 55.2557C45.3423 55.2557 44.9659 55.3608 44.6931 55.571C44.4204 55.7812 44.2286 56.0057 44.1178 56.2443L43.1633 55.9034C43.3338 55.5057 43.561 55.196 43.8451 54.9744C44.1321 54.75 44.4446 54.5937 44.7826 54.5057C45.1235 54.4148 45.4588 54.3693 45.7883 54.3693C45.9985 54.3693 46.24 54.3949 46.5127 54.446C46.7883 54.4943 47.0539 54.5952 47.3096 54.7486C47.5681 54.902 47.7826 55.1335 47.9531 55.4432C48.1235 55.7528 48.2088 56.1676 48.2088 56.6875V61H47.2031V60.1136H47.1519C47.0838 60.2557 46.9701 60.4077 46.811 60.5696C46.6519 60.7315 46.4403 60.8693 46.1761 60.983C45.9119 61.0966 45.5894 61.1534 45.2088 61.1534ZM45.3622 60.25C45.7599 60.25 46.0951 60.1719 46.3678 60.0156C46.6434 59.8594 46.8508 59.6577 46.99 59.4105C47.1321 59.1634 47.2031 58.9034 47.2031 58.6307V57.7102C47.1605 57.7614 47.0667 57.8082 46.9218 57.8509C46.7798 57.8906 46.615 57.9261 46.4275 57.9574C46.2428 57.9858 46.0624 58.0114 45.8863 58.0341C45.713 58.054 45.5724 58.071 45.4644 58.0852C45.2031 58.1193 44.9588 58.1747 44.7315 58.2514C44.5071 58.3253 44.3252 58.4375 44.186 58.5881C44.0497 58.7358 43.9815 58.9375 43.9815 59.1932C43.9815 59.5426 44.1107 59.8068 44.3693 59.9858C44.6306 60.1619 44.9616 60.25 45.3622 60.25ZM51.1357 57.0625V61H50.1301V54.4545H51.1016V55.4773H51.1869C51.3403 55.1449 51.5732 54.8778 51.8857 54.6761C52.1982 54.4716 52.6016 54.3693 53.096 54.3693C53.5391 54.3693 53.9269 54.4602 54.2593 54.642C54.5917 54.821 54.8502 55.0938 55.0349 55.4602C55.2195 55.8239 55.3119 56.2841 55.3119 56.8409V61H54.3062V56.9091C54.3062 56.3949 54.1727 55.9943 53.9056 55.7074C53.6386 55.4176 53.2721 55.2727 52.8062 55.2727C52.4852 55.2727 52.1982 55.3423 51.9454 55.4815C51.6954 55.6207 51.498 55.8239 51.3531 56.0909C51.2082 56.358 51.1357 56.6818 51.1357 57.0625ZM60.0819 54.4545V55.3068H56.6898V54.4545H60.0819ZM57.6785 52.8864H58.6842V59.125C58.6842 59.4091 58.7254 59.6222 58.8077 59.7642C58.893 59.9034 59.0009 59.9972 59.1316 60.0455C59.2651 60.0909 59.4058 60.1136 59.5535 60.1136C59.6643 60.1136 59.7552 60.108 59.8262 60.0966C59.8972 60.0824 59.954 60.071 59.9967 60.0625L60.2012 60.9659C60.133 60.9915 60.0379 61.017 59.9157 61.0426C59.7935 61.071 59.6387 61.0852 59.4512 61.0852C59.1671 61.0852 58.8887 61.0241 58.616 60.902C58.3461 60.7798 58.1217 60.5938 57.9427 60.3438C57.7665 60.0938 57.6785 59.7784 57.6785 59.3977V52.8864ZM64.3544 61.1364C63.7237 61.1364 63.1797 60.9972 62.7223 60.7188C62.2677 60.4375 61.9169 60.0455 61.6697 59.5426C61.4254 59.0369 61.3033 58.4489 61.3033 57.7784C61.3033 57.108 61.4254 56.517 61.6697 56.0057C61.9169 55.4915 62.2606 55.0909 62.701 54.804C63.1442 54.5142 63.6612 54.3693 64.2521 54.3693C64.593 54.3693 64.9297 54.4261 65.2621 54.5398C65.5945 54.6534 65.897 54.8381 66.1697 55.0938C66.4425 55.3466 66.6598 55.6818 66.8217 56.0994C66.9837 56.517 67.0646 57.0312 67.0646 57.642V58.0682H62.0192V57.1989H66.0419C66.0419 56.8295 65.968 56.5 65.8203 56.2102C65.6754 55.9205 65.468 55.6918 65.1981 55.5241C64.9311 55.3565 64.6158 55.2727 64.2521 55.2727C63.8516 55.2727 63.505 55.3722 63.2123 55.571C62.9226 55.767 62.6996 56.0227 62.5433 56.3381C62.3871 56.6534 62.3089 56.9915 62.3089 57.3523V57.9318C62.3089 58.4261 62.3942 58.8452 62.5646 59.1889C62.7379 59.5298 62.978 59.7898 63.2848 59.9688C63.5916 60.1449 63.9481 60.233 64.3544 60.233C64.6186 60.233 64.8572 60.196 65.0703 60.1222C65.2862 60.0455 65.4723 59.9318 65.6285 59.7812C65.7848 59.6278 65.9055 59.4375 65.9908 59.2102L66.9623 59.483C66.8601 59.8125 66.6882 60.1023 66.4467 60.3523C66.2052 60.5994 65.907 60.7926 65.5518 60.9318C65.1967 61.0682 64.7976 61.1364 64.3544 61.1364ZM73.3165 55.9205L72.4131 56.1761C72.3563 56.0256 72.2725 55.8793 72.1617 55.7372C72.0537 55.5923 71.906 55.473 71.7185 55.3793C71.531 55.2855 71.291 55.2386 70.9983 55.2386C70.5978 55.2386 70.264 55.331 69.9969 55.5156C69.7327 55.6974 69.6006 55.929 69.6006 56.2102C69.6006 56.4602 69.6915 56.6577 69.8733 56.8026C70.0552 56.9474 70.3393 57.0682 70.7256 57.1648L71.6972 57.4034C72.2824 57.5455 72.7185 57.7628 73.0054 58.0554C73.2924 58.3452 73.4358 58.7187 73.4358 59.1761C73.4358 59.5511 73.3279 59.8864 73.112 60.1818C72.8989 60.4773 72.6006 60.7102 72.2171 60.8807C71.8336 61.0511 71.3875 61.1364 70.879 61.1364C70.2114 61.1364 69.6589 60.9915 69.2214 60.7017C68.7839 60.4119 68.5069 59.9886 68.3904 59.4318L69.3449 59.1932C69.4358 59.5455 69.6077 59.8097 69.8606 59.9858C70.1162 60.1619 70.45 60.25 70.862 60.25C71.3307 60.25 71.7029 60.1506 71.9785 59.9517C72.2569 59.75 72.3961 59.5085 72.3961 59.2273C72.3961 59 72.3165 58.8097 72.1574 58.6562C71.9983 58.5 71.754 58.3835 71.4245 58.3068L70.3336 58.0511C69.7341 57.9091 69.2938 57.6889 69.0125 57.3906C68.7341 57.0895 68.5949 56.7131 68.5949 56.2614C68.5949 55.892 68.6986 55.5653 68.906 55.2812C69.1162 54.9972 69.4018 54.7741 69.7625 54.6122C70.1262 54.4503 70.5381 54.3693 70.9983 54.3693C71.6461 54.3693 72.1546 54.5114 72.5239 54.7955C72.8961 55.0795 73.1603 55.4545 73.3165 55.9205ZM81.2404 61.1364C80.6098 61.1364 80.0657 60.9972 79.6083 60.7188C79.1538 60.4375 78.8029 60.0455 78.5558 59.5426C78.3115 59.0369 78.1893 58.4489 78.1893 57.7784C78.1893 57.108 78.3115 56.517 78.5558 56.0057C78.8029 55.4915 79.1467 55.0909 79.587 54.804C80.0302 54.5142 80.5473 54.3693 81.1382 54.3693C81.4791 54.3693 81.8157 54.4261 82.1481 54.5398C82.4805 54.6534 82.7831 54.8381 83.0558 55.0938C83.3285 55.3466 83.5458 55.6818 83.7078 56.0994C83.8697 56.517 83.9507 57.0312 83.9507 57.642V58.0682H78.9052V57.1989H82.9279C82.9279 56.8295 82.8541 56.5 82.7064 56.2102C82.5615 55.9205 82.3541 55.6918 82.0842 55.5241C81.8171 55.3565 81.5018 55.2727 81.1382 55.2727C80.7376 55.2727 80.391 55.3722 80.0984 55.571C79.8086 55.767 79.5856 56.0227 79.4294 56.3381C79.2731 56.6534 79.195 56.9915 79.195 57.3523V57.9318C79.195 58.4261 79.2802 58.8452 79.4507 59.1889C79.624 59.5298 79.864 59.7898 80.1708 59.9688C80.4777 60.1449 80.8342 60.233 81.2404 60.233C81.5046 60.233 81.7433 60.196 81.9564 60.1222C82.1723 60.0455 82.3583 59.9318 82.5146 59.7812C82.6708 59.6278 82.7916 59.4375 82.8768 59.2102L83.8484 59.483C83.7461 59.8125 83.5742 60.1023 83.3328 60.3523C83.0913 60.5994 82.793 60.7926 82.4379 60.9318C82.0828 61.0682 81.6836 61.1364 81.2404 61.1364ZM90.2026 55.9205L89.2992 56.1761C89.2424 56.0256 89.1585 55.8793 89.0477 55.7372C88.9398 55.5923 88.7921 55.473 88.6046 55.3793C88.4171 55.2855 88.177 55.2386 87.8844 55.2386C87.4838 55.2386 87.15 55.331 86.883 55.5156C86.6188 55.6974 86.4867 55.929 86.4867 56.2102C86.4867 56.4602 86.5776 56.6577 86.7594 56.8026C86.9412 56.9474 87.2253 57.0682 87.6117 57.1648L88.5833 57.4034C89.1685 57.5455 89.6046 57.7628 89.8915 58.0554C90.1784 58.3452 90.3219 58.7187 90.3219 59.1761C90.3219 59.5511 90.2139 59.8864 89.998 60.1818C89.785 60.4773 89.4867 60.7102 89.1031 60.8807C88.7196 61.0511 88.2736 61.1364 87.7651 61.1364C87.0975 61.1364 86.5449 60.9915 86.1074 60.7017C85.6699 60.4119 85.3929 59.9886 85.2764 59.4318L86.231 59.1932C86.3219 59.5455 86.4938 59.8097 86.7466 59.9858C87.0023 60.1619 87.3361 60.25 87.748 60.25C88.2168 60.25 88.5889 60.1506 88.8645 59.9517C89.1429 59.75 89.2821 59.5085 89.2821 59.2273C89.2821 59 89.2026 58.8097 89.0435 58.6562C88.8844 58.5 88.6401 58.3835 88.3105 58.3068L87.2196 58.0511C86.6202 57.9091 86.1799 57.6889 85.8986 57.3906C85.6202 57.0895 85.481 56.7131 85.481 56.2614C85.481 55.892 85.5847 55.5653 85.7921 55.2812C86.0023 54.9972 86.2878 54.7741 86.6486 54.6122C87.0122 54.4503 87.4242 54.3693 87.8844 54.3693C88.5321 54.3693 89.0406 54.5114 89.41 54.7955C89.7821 55.0795 90.0463 55.4545 90.2026 55.9205ZM96.5578 55.9205L95.6544 56.1761C95.5976 56.0256 95.5138 55.8793 95.403 55.7372C95.295 55.5923 95.1473 55.473 94.9598 55.3793C94.7723 55.2855 94.5323 55.2386 94.2396 55.2386C93.8391 55.2386 93.5053 55.331 93.2382 55.5156C92.974 55.6974 92.8419 55.929 92.8419 56.2102C92.8419 56.4602 92.9328 56.6577 93.1146 56.8026C93.2965 56.9474 93.5806 57.0682 93.9669 57.1648L94.9385 57.4034C95.5237 57.5455 95.9598 57.7628 96.2467 58.0554C96.5337 58.3452 96.6771 58.7187 96.6771 59.1761C96.6771 59.5511 96.5692 59.8864 96.3533 60.1818C96.1402 60.4773 95.8419 60.7102 95.4584 60.8807C95.0749 61.0511 94.6288 61.1364 94.1203 61.1364C93.4527 61.1364 92.9002 60.9915 92.4627 60.7017C92.0252 60.4119 91.7482 59.9886 91.6317 59.4318L92.5862 59.1932C92.6771 59.5455 92.849 59.8097 93.1019 59.9858C93.3575 60.1619 93.6913 60.25 94.1033 60.25C94.572 60.25 94.9442 60.1506 95.2198 59.9517C95.4982 59.75 95.6374 59.5085 95.6374 59.2273C95.6374 59 95.5578 58.8097 95.3987 58.6562C95.2396 58.5 94.9953 58.3835 94.6658 58.3068L93.5749 58.0511C92.9754 57.9091 92.5351 57.6889 92.2538 57.3906C91.9754 57.0895 91.8362 56.7131 91.8362 56.2614C91.8362 55.892 91.9399 55.5653 92.1473 55.2812C92.3575 54.9972 92.6431 54.7741 93.0038 54.6122C93.3675 54.4503 93.7794 54.3693 94.2396 54.3693C94.8874 54.3693 95.3959 54.5114 95.7652 54.7955C96.1374 55.0795 96.4016 55.4545 96.5578 55.9205ZM101.021 61.1364C100.39 61.1364 99.8463 60.9972 99.3889 60.7188C98.9344 60.4375 98.5835 60.0455 98.3364 59.5426C98.092 59.0369 97.9699 58.4489 97.9699 57.7784C97.9699 57.108 98.092 56.517 98.3364 56.0057C98.5835 55.4915 98.9273 55.0909 99.3676 54.804C99.8108 54.5142 100.328 54.3693 100.919 54.3693C101.26 54.3693 101.596 54.4261 101.929 54.5398C102.261 54.6534 102.564 54.8381 102.836 55.0938C103.109 55.3466 103.326 55.6818 103.488 56.0994C103.65 56.517 103.731 57.0312 103.731 57.642V58.0682H98.6858V57.1989H102.709C102.709 56.8295 102.635 56.5 102.487 56.2102C102.342 55.9205 102.135 55.6918 101.865 55.5241C101.598 55.3565 101.282 55.2727 100.919 55.2727C100.518 55.2727 100.172 55.3722 99.879 55.571C99.5892 55.767 99.3662 56.0227 99.2099 56.3381C99.0537 56.6534 98.9756 56.9915 98.9756 57.3523V57.9318C98.9756 58.4261 99.0608 58.8452 99.2312 59.1889C99.4045 59.5298 99.6446 59.7898 99.9514 59.9688C100.258 60.1449 100.615 60.233 101.021 60.233C101.285 60.233 101.524 60.196 101.737 60.1222C101.953 60.0455 102.139 59.9318 102.295 59.7812C102.451 59.6278 102.572 59.4375 102.657 59.2102L103.629 59.483C103.527 59.8125 103.355 60.1023 103.113 60.3523C102.872 60.5994 102.574 60.7926 102.218 60.9318C101.863 61.0682 101.464 61.1364 101.021 61.1364ZM110.734 61.1534C110.319 61.1534 109.942 61.0753 109.604 60.919C109.266 60.7599 108.998 60.5312 108.799 60.233C108.6 59.9318 108.501 59.5682 108.501 59.142C108.501 58.767 108.575 58.4631 108.722 58.2301C108.87 57.9943 109.067 57.8097 109.315 57.6761C109.562 57.5426 109.834 57.4432 110.133 57.3778C110.434 57.3097 110.736 57.2557 111.04 57.2159C111.438 57.1648 111.761 57.1264 112.008 57.1009C112.258 57.0724 112.44 57.0256 112.553 56.9602C112.67 56.8949 112.728 56.7812 112.728 56.6193V56.5852C112.728 56.1648 112.613 55.8381 112.383 55.6051C112.156 55.3722 111.81 55.2557 111.347 55.2557C110.867 55.2557 110.491 55.3608 110.218 55.571C109.945 55.7812 109.754 56.0057 109.643 56.2443L108.688 55.9034C108.859 55.5057 109.086 55.196 109.37 54.9744C109.657 54.75 109.969 54.5937 110.308 54.5057C110.648 54.4148 110.984 54.3693 111.313 54.3693C111.523 54.3693 111.765 54.3949 112.038 54.446C112.313 54.4943 112.579 54.5952 112.834 54.7486C113.093 54.902 113.308 55.1335 113.478 55.4432C113.648 55.7528 113.734 56.1676 113.734 56.6875V61H112.728V60.1136H112.677C112.609 60.2557 112.495 60.4077 112.336 60.5696C112.177 60.7315 111.965 60.8693 111.701 60.983C111.437 61.0966 111.114 61.1534 110.734 61.1534ZM110.887 60.25C111.285 60.25 111.62 60.1719 111.893 60.0156C112.168 59.8594 112.376 59.6577 112.515 59.4105C112.657 59.1634 112.728 58.9034 112.728 58.6307V57.7102C112.685 57.7614 112.592 57.8082 112.447 57.8509C112.305 57.8906 112.14 57.9261 111.952 57.9574C111.768 57.9858 111.587 58.0114 111.411 58.0341C111.238 58.054 111.097 58.071 110.989 58.0852C110.728 58.1193 110.484 58.1747 110.256 58.2514C110.032 58.3253 109.85 58.4375 109.711 58.5881C109.575 58.7358 109.506 58.9375 109.506 59.1932C109.506 59.5426 109.636 59.8068 109.894 59.9858C110.156 60.1619 110.486 60.25 110.887 60.25ZM116.661 57.0625V61H115.655V54.4545H116.627V55.4773H116.712C116.865 55.1449 117.098 54.8778 117.411 54.6761C117.723 54.4716 118.127 54.3693 118.621 54.3693C119.064 54.3693 119.452 54.4602 119.784 54.642C120.117 54.821 120.375 55.0938 120.56 55.4602C120.744 55.8239 120.837 56.2841 120.837 56.8409V61H119.831V56.9091C119.831 56.3949 119.698 55.9943 119.431 55.7074C119.163 55.4176 118.797 55.2727 118.331 55.2727C118.01 55.2727 117.723 55.3423 117.47 55.4815C117.22 55.6207 117.023 55.8239 116.878 56.0909C116.733 56.358 116.661 56.6818 116.661 57.0625ZM125.419 61.1364C124.828 61.1364 124.31 60.9957 123.864 60.7145C123.421 60.4332 123.074 60.0398 122.824 59.5341C122.577 59.0284 122.453 58.4375 122.453 57.7614C122.453 57.0795 122.577 56.4844 122.824 55.9759C123.074 55.4673 123.421 55.0724 123.864 54.7912C124.31 54.5099 124.828 54.3693 125.419 54.3693C126.01 54.3693 126.527 54.5099 126.97 54.7912C127.416 55.0724 127.763 55.4673 128.01 55.9759C128.26 56.4844 128.385 57.0795 128.385 57.7614C128.385 58.4375 128.26 59.0284 128.01 59.5341C127.763 60.0398 127.416 60.4332 126.97 60.7145C126.527 60.9957 126.01 61.1364 125.419 61.1364ZM125.419 60.233C125.868 60.233 126.237 60.1179 126.527 59.8878C126.817 59.6577 127.031 59.3551 127.171 58.9801C127.31 58.6051 127.38 58.1989 127.38 57.7614C127.38 57.3239 127.31 56.9162 127.171 56.5384C127.031 56.1605 126.817 55.8551 126.527 55.6222C126.237 55.3892 125.868 55.2727 125.419 55.2727C124.97 55.2727 124.601 55.3892 124.311 55.6222C124.022 55.8551 123.807 56.1605 123.668 56.5384C123.529 56.9162 123.459 57.3239 123.459 57.7614C123.459 58.1989 123.529 58.6051 123.668 58.9801C123.807 59.3551 124.022 59.6577 124.311 59.8878C124.601 60.1179 124.97 60.233 125.419 60.233Z" fill="#696974"/>
</g>
<path d="M207.667 38.9742C207.667 38.9742 212.128 38.1283 217.199 40.1604C226.846 44.0252 227.396 36.9477 230.973 33.5351C234.246 30.4129 236.956 32.3179 240.599 36.1361C243.287 38.9521 247.203 43.6792 251.259 42.9182C254.967 42.2226 257.595 36.6784 262.735 35.2684C266.808 34.1509 270.118 37.221 274.808 36.1361C281.17 34.6643 282.118 29.0267 286.666 29.0267C292.278 29.0267 295.793 39.0866 300.899 39.0866C305.974 39.0866 308.586 29.1417 314.138 32.1607C318.382 34.4687 320.833 26 320.833 26" stroke="#0062FF" stroke-width="3" stroke-linecap="round" stroke-linejoin="round"/>
<g filter="url(#filter0_d_35_376)">
<rect x="281.167" y="26" width="11.6667" height="10" rx="5" fill="#0062FF"/>
<rect x="281.917" y="26.75" width="10.1667" height="8.5" rx="4.25" stroke="white" stroke-width="1.5"/>
</g>
<defs>
<filter id="filter0_d_35_376" x="279.167" y="25" width="15.6667" height="14" filterUnits="userSpaceOnUse" color-interpolation-filters="sRGB">
<feFlood flood-opacity="0" result="BackgroundImageFix"/>
<feColorMatrix in="SourceAlpha" type="matrix" values="0 0 0 0 0 0 0 0 0 0 0 0 0 0 0 0 0 0 127 0" result="hardAlpha"/>
<feOffset dy="1"/>
<feGaussianBlur stdDeviation="1"/>
<feColorMatrix type="matrix" values="0 0 0 0 0.268354 0 0 0 0 0.268354 0 0 0 0 0.31049 0 0 0 0.15 0"/>
<feBlend mode="normal" in2="BackgroundImageFix" result="effect1_dropShadow_35_376"/>
<feBlend mode="normal" in="SourceGraphic" in2="effect1_dropShadow_35_376" result="shape"/>
</filter>
<clipPath id="clip0_35_376">
<rect width="138.833" height="48" fill="white" transform="translate(17.5 15)"/>
</clipPath>
</defs>
</svg>
