<svg width="314" height="306" viewBox="0 0 314 306" fill="none" xmlns="http://www.w3.org/2000/svg">
<rect x="1" y="1" width="307" height="304" rx="29" fill="white" stroke="#E9E6F7" stroke-width="2"/>
<mask id="mask0_35_1029" style="mask-type:luminance" maskUnits="userSpaceOnUse" x="0" y="0" width="309" height="306">
<rect width="309" height="306" rx="20" fill="white"/>
</mask>
<g mask="url(#mask0_35_1029)">
<g clip-path="url(#clip0_35_1029)">
<path d="M25.0359 261.119C24.3939 261.119 23.847 260.945 23.3953 260.595C22.9436 260.243 22.5984 259.733 22.3598 259.065C22.1212 258.395 22.0019 257.585 22.0019 256.636C22.0019 255.693 22.1212 254.888 22.3598 254.22C22.6013 253.55 22.9479 253.038 23.3996 252.686C23.8541 252.331 24.3996 252.153 25.0359 252.153C25.6723 252.153 26.2163 252.331 26.668 252.686C27.1226 253.038 27.4692 253.55 27.7078 254.22C27.9493 254.888 28.07 255.693 28.07 256.636C28.07 257.585 27.9507 258.395 27.7121 259.065C27.4734 259.733 27.1283 260.243 26.6766 260.595C26.2249 260.945 25.678 261.119 25.0359 261.119ZM25.0359 260.182C25.6723 260.182 26.1666 259.875 26.5189 259.261C26.8712 258.648 27.0473 257.773 27.0473 256.636C27.0473 255.881 26.9663 255.237 26.8044 254.706C26.6453 254.175 26.4152 253.77 26.1141 253.491C25.8158 253.213 25.4564 253.074 25.0359 253.074C24.4053 253.074 23.9124 253.385 23.5573 254.007C23.2021 254.626 23.0246 255.503 23.0246 256.636C23.0246 257.392 23.1041 258.034 23.2632 258.562C23.4223 259.091 23.651 259.493 23.9493 259.768C24.2504 260.044 24.6127 260.182 25.0359 260.182Z" fill="#92929D"/>
<path d="M39.6364 256H323.918" stroke="#F1F1F5" stroke-linecap="square" stroke-dasharray="5 5"/>
</g>
<g clip-path="url(#clip1_35_1029)">
<path d="M7.2523 224V223.233L10.133 220.08C10.4711 219.71 10.7495 219.389 10.9682 219.116C11.187 218.841 11.3489 218.582 11.454 218.341C11.562 218.097 11.6159 217.841 11.6159 217.574C11.6159 217.267 11.5421 217.001 11.3943 216.777C11.2495 216.553 11.0506 216.379 10.7978 216.257C10.5449 216.135 10.2608 216.074 9.94548 216.074C9.61026 216.074 9.31764 216.143 9.06764 216.283C8.82048 216.419 8.62872 216.611 8.49236 216.858C8.35884 217.105 8.29207 217.395 8.29207 217.727H7.28639C7.28639 217.216 7.40429 216.767 7.64009 216.381C7.87588 215.994 8.1969 215.693 8.60315 215.477C9.01224 215.261 9.47105 215.153 9.97957 215.153C10.4909 215.153 10.9441 215.261 11.3389 215.477C11.7338 215.693 12.0435 215.984 12.2679 216.351C12.4924 216.717 12.6046 217.125 12.6046 217.574C12.6046 217.895 12.5463 218.209 12.4299 218.516C12.3162 218.82 12.1174 219.159 11.8333 219.534C11.552 219.906 11.1614 220.361 10.6614 220.898L8.70117 222.994V223.062H12.758V224H7.2523ZM17.4502 224.119C16.8082 224.119 16.2613 223.945 15.8096 223.595C15.3579 223.243 15.0127 222.733 14.7741 222.065C14.5355 221.395 14.4161 220.585 14.4161 219.636C14.4161 218.693 14.5355 217.888 14.7741 217.22C15.0156 216.55 15.3622 216.038 15.8139 215.686C16.2684 215.331 16.8139 215.153 17.4502 215.153C18.0866 215.153 18.6306 215.331 19.0823 215.686C19.5369 216.038 19.8835 216.55 20.1221 217.22C20.3636 217.888 20.4843 218.693 20.4843 219.636C20.4843 220.585 20.365 221.395 20.1264 222.065C19.8877 222.733 19.5426 223.243 19.0909 223.595C18.6392 223.945 18.0923 224.119 17.4502 224.119ZM17.4502 223.182C18.0866 223.182 18.5809 222.875 18.9332 222.261C19.2855 221.648 19.4616 220.773 19.4616 219.636C19.4616 218.881 19.3806 218.237 19.2187 217.706C19.0596 217.175 18.8295 216.77 18.5284 216.491C18.2301 216.213 17.8707 216.074 17.4502 216.074C16.8195 216.074 16.3267 216.385 15.9715 217.007C15.6164 217.626 15.4389 218.503 15.4389 219.636C15.4389 220.392 15.5184 221.034 15.6775 221.562C15.8366 222.091 16.0653 222.493 16.3636 222.768C16.6647 223.044 17.0269 223.182 17.4502 223.182ZM25.0359 224.119C24.3939 224.119 23.847 223.945 23.3953 223.595C22.9436 223.243 22.5984 222.733 22.3598 222.065C22.1212 221.395 22.0019 220.585 22.0019 219.636C22.0019 218.693 22.1212 217.888 22.3598 217.22C22.6013 216.55 22.9479 216.038 23.3996 215.686C23.8541 215.331 24.3996 215.153 25.0359 215.153C25.6723 215.153 26.2163 215.331 26.668 215.686C27.1226 216.038 27.4692 216.55 27.7078 217.22C27.9493 217.888 28.07 218.693 28.07 219.636C28.07 220.585 27.9507 221.395 27.7121 222.065C27.4734 222.733 27.1283 223.243 26.6766 223.595C26.2249 223.945 25.678 224.119 25.0359 224.119ZM25.0359 223.182C25.6723 223.182 26.1666 222.875 26.5189 222.261C26.8712 221.648 27.0473 220.773 27.0473 219.636C27.0473 218.881 26.9663 218.237 26.8044 217.706C26.6453 217.175 26.4152 216.77 26.1141 216.491C25.8158 216.213 25.4564 216.074 25.0359 216.074C24.4053 216.074 23.9124 216.385 23.5573 217.007C23.2021 217.626 23.0246 218.503 23.0246 219.636C23.0246 220.392 23.1041 221.034 23.2632 221.562C23.4223 222.091 23.651 222.493 23.9493 222.768C24.2504 223.044 24.6127 223.182 25.0359 223.182Z" fill="#92929D"/>
<path d="M39.6364 219H323.918" stroke="#F1F1F5" stroke-linecap="square" stroke-dasharray="5 5"/>
</g>
<g clip-path="url(#clip2_35_1029)">
<path d="M6.61416 185.21V184.341L10.4494 178.273H11.0801V179.619H10.6539L7.75621 184.205V184.273H12.921V185.21H6.61416ZM10.7221 187V184.946V184.541V178.273H11.7278V187H10.7221ZM17.4502 187.119C16.8082 187.119 16.2613 186.945 15.8096 186.595C15.3579 186.243 15.0127 185.733 14.7741 185.065C14.5355 184.395 14.4161 183.585 14.4161 182.636C14.4161 181.693 14.5355 180.888 14.7741 180.22C15.0156 179.55 15.3622 179.038 15.8139 178.686C16.2684 178.331 16.8139 178.153 17.4502 178.153C18.0866 178.153 18.6306 178.331 19.0823 178.686C19.5369 179.038 19.8835 179.55 20.1221 180.22C20.3636 180.888 20.4843 181.693 20.4843 182.636C20.4843 183.585 20.365 184.395 20.1264 185.065C19.8877 185.733 19.5426 186.243 19.0909 186.595C18.6392 186.945 18.0923 187.119 17.4502 187.119ZM17.4502 186.182C18.0866 186.182 18.5809 185.875 18.9332 185.261C19.2855 184.648 19.4616 183.773 19.4616 182.636C19.4616 181.881 19.3806 181.237 19.2187 180.706C19.0596 180.175 18.8295 179.77 18.5284 179.491C18.2301 179.213 17.8707 179.074 17.4502 179.074C16.8195 179.074 16.3267 179.385 15.9715 180.007C15.6164 180.626 15.4389 181.503 15.4389 182.636C15.4389 183.392 15.5184 184.034 15.6775 184.562C15.8366 185.091 16.0653 185.493 16.3636 185.768C16.6647 186.044 17.0269 186.182 17.4502 186.182ZM25.0359 187.119C24.3939 187.119 23.847 186.945 23.3953 186.595C22.9436 186.243 22.5984 185.733 22.3598 185.065C22.1212 184.395 22.0019 183.585 22.0019 182.636C22.0019 181.693 22.1212 180.888 22.3598 180.22C22.6013 179.55 22.9479 179.038 23.3996 178.686C23.8541 178.331 24.3996 178.153 25.0359 178.153C25.6723 178.153 26.2163 178.331 26.668 178.686C27.1226 179.038 27.4692 179.55 27.7078 180.22C27.9493 180.888 28.07 181.693 28.07 182.636C28.07 183.585 27.9507 184.395 27.7121 185.065C27.4734 185.733 27.1283 186.243 26.6766 186.595C26.2249 186.945 25.678 187.119 25.0359 187.119ZM25.0359 186.182C25.6723 186.182 26.1666 185.875 26.5189 185.261C26.8712 184.648 27.0473 183.773 27.0473 182.636C27.0473 181.881 26.9663 181.237 26.8044 180.706C26.6453 180.175 26.4152 179.77 26.1141 179.491C25.8158 179.213 25.4564 179.074 25.0359 179.074C24.4053 179.074 23.9124 179.385 23.5573 180.007C23.2021 180.626 23.0246 181.503 23.0246 182.636C23.0246 183.392 23.1041 184.034 23.2632 184.562C23.4223 185.091 23.651 185.493 23.9493 185.768C24.2504 186.044 24.6127 186.182 25.0359 186.182Z" fill="#92929D"/>
<path d="M39.6364 182H323.918" stroke="#F1F1F5" stroke-linecap="square" stroke-dasharray="5 5"/>
</g>
<g clip-path="url(#clip3_35_1029)">
<path d="M9.92737 150.119C9.56942 150.114 9.21146 150.045 8.85351 149.915C8.49555 149.784 8.16885 149.564 7.8734 149.254C7.57794 148.942 7.34072 148.52 7.16175 147.989C6.98277 147.455 6.89328 146.784 6.89328 145.977C6.89328 145.205 6.96572 144.52 7.11061 143.923C7.2555 143.324 7.46572 142.82 7.74129 142.411C8.01686 141.999 8.34925 141.686 8.73845 141.473C9.1305 141.26 9.57226 141.153 10.0637 141.153C10.5524 141.153 10.987 141.251 11.3677 141.447C11.7512 141.641 12.0637 141.911 12.3052 142.257C12.5467 142.604 12.7029 143.003 12.774 143.455H11.7342C11.6376 143.062 11.4501 142.737 11.1717 142.479C10.8933 142.22 10.524 142.091 10.0637 142.091C9.3876 142.091 8.85493 142.385 8.46572 142.973C8.07936 143.561 7.88476 144.386 7.88192 145.449H7.9501C8.10919 145.207 8.29811 145.001 8.51686 144.831C8.73845 144.658 8.98277 144.524 9.24982 144.43C9.51686 144.337 9.79953 144.29 10.0978 144.29C10.5978 144.29 11.0552 144.415 11.47 144.665C11.8848 144.912 12.2171 145.254 12.4671 145.692C12.7171 146.126 12.8421 146.625 12.8421 147.188C12.8421 147.727 12.7214 148.222 12.4799 148.67C12.2385 149.116 11.899 149.472 11.4615 149.736C11.0268 149.997 10.5154 150.125 9.92737 150.119ZM9.92737 149.182C10.2853 149.182 10.6063 149.092 10.8904 148.913C11.1774 148.734 11.4032 148.494 11.568 148.193C11.7356 147.892 11.8194 147.557 11.8194 147.188C11.8194 146.827 11.7385 146.499 11.5765 146.203C11.4174 145.905 11.1973 145.668 10.916 145.491C10.6376 145.315 10.3194 145.227 9.96146 145.227C9.69158 145.227 9.44016 145.281 9.2072 145.389C8.97425 145.494 8.7697 145.639 8.59357 145.824C8.42027 146.009 8.28391 146.22 8.18447 146.459C8.08504 146.695 8.03533 146.943 8.03533 147.205C8.03533 147.551 8.11629 147.875 8.27822 148.176C8.443 148.477 8.66743 148.72 8.95152 148.905C9.23845 149.089 9.56374 149.182 9.92737 149.182ZM17.4502 150.119C16.8082 150.119 16.2613 149.945 15.8096 149.595C15.3579 149.243 15.0127 148.733 14.7741 148.065C14.5355 147.395 14.4161 146.585 14.4161 145.636C14.4161 144.693 14.5355 143.888 14.7741 143.22C15.0156 142.55 15.3622 142.038 15.8139 141.686C16.2684 141.331 16.8139 141.153 17.4502 141.153C18.0866 141.153 18.6306 141.331 19.0823 141.686C19.5369 142.038 19.8835 142.55 20.1221 143.22C20.3636 143.888 20.4843 144.693 20.4843 145.636C20.4843 146.585 20.365 147.395 20.1264 148.065C19.8877 148.733 19.5426 149.243 19.0909 149.595C18.6392 149.945 18.0923 150.119 17.4502 150.119ZM17.4502 149.182C18.0866 149.182 18.5809 148.875 18.9332 148.261C19.2855 147.648 19.4616 146.773 19.4616 145.636C19.4616 144.881 19.3806 144.237 19.2187 143.706C19.0596 143.175 18.8295 142.77 18.5284 142.491C18.2301 142.213 17.8707 142.074 17.4502 142.074C16.8195 142.074 16.3267 142.385 15.9715 143.007C15.6164 143.626 15.4389 144.503 15.4389 145.636C15.4389 146.392 15.5184 147.034 15.6775 147.562C15.8366 148.091 16.0653 148.493 16.3636 148.768C16.6647 149.044 17.0269 149.182 17.4502 149.182ZM25.0359 150.119C24.3939 150.119 23.847 149.945 23.3953 149.595C22.9436 149.243 22.5984 148.733 22.3598 148.065C22.1212 147.395 22.0019 146.585 22.0019 145.636C22.0019 144.693 22.1212 143.888 22.3598 143.22C22.6013 142.55 22.9479 142.038 23.3996 141.686C23.8541 141.331 24.3996 141.153 25.0359 141.153C25.6723 141.153 26.2163 141.331 26.668 141.686C27.1226 142.038 27.4692 142.55 27.7078 143.22C27.9493 143.888 28.07 144.693 28.07 145.636C28.07 146.585 27.9507 147.395 27.7121 148.065C27.4734 148.733 27.1283 149.243 26.6766 149.595C26.2249 149.945 25.678 150.119 25.0359 150.119ZM25.0359 149.182C25.6723 149.182 26.1666 148.875 26.5189 148.261C26.8712 147.648 27.0473 146.773 27.0473 145.636C27.0473 144.881 26.9663 144.237 26.8044 143.706C26.6453 143.175 26.4152 142.77 26.1141 142.491C25.8158 142.213 25.4564 142.074 25.0359 142.074C24.4053 142.074 23.9124 142.385 23.5573 143.007C23.2021 143.626 23.0246 144.503 23.0246 145.636C23.0246 146.392 23.1041 147.034 23.2632 147.562C23.4223 148.091 23.651 148.493 23.9493 148.768C24.2504 149.044 24.6127 149.182 25.0359 149.182Z" fill="#92929D"/>
<path d="M39.6364 145H323.918" stroke="#F1F1F5" stroke-linecap="square" stroke-dasharray="5 5"/>
</g>
<g clip-path="url(#clip4_35_1029)">
<path d="M9.91885 113.119C9.33362 113.119 8.81658 113.016 8.36771 112.808C7.92169 112.598 7.57368 112.31 7.32368 111.943C7.07368 111.574 6.9501 111.153 6.95294 110.682C6.9501 110.312 7.02254 109.972 7.17027 109.659C7.318 109.344 7.5197 109.081 7.77538 108.871C8.03391 108.658 8.32226 108.523 8.64044 108.466V108.415C8.22283 108.307 7.89044 108.072 7.64328 107.712C7.39612 107.348 7.27396 106.935 7.2768 106.472C7.27396 106.028 7.38618 105.632 7.61345 105.283C7.84072 104.933 8.15322 104.658 8.55095 104.456C8.95152 104.254 9.40749 104.153 9.91885 104.153C10.4245 104.153 10.8762 104.254 11.274 104.456C11.6717 104.658 11.9842 104.933 12.2115 105.283C12.4416 105.632 12.5581 106.028 12.5609 106.472C12.5581 106.935 12.4316 107.348 12.1816 107.712C11.9345 108.072 11.6063 108.307 11.1973 108.415V108.466C11.5126 108.523 11.7967 108.658 12.0495 108.871C12.3024 109.081 12.5041 109.344 12.6546 109.659C12.8052 109.972 12.8819 110.312 12.8848 110.682C12.8819 111.153 12.7541 111.574 12.5012 111.943C12.2512 112.31 11.9032 112.598 11.4572 112.808C11.014 113.016 10.5012 113.119 9.91885 113.119ZM9.91885 112.182C10.3137 112.182 10.6546 112.118 10.9416 111.99C11.2285 111.862 11.4501 111.682 11.6063 111.449C11.7626 111.216 11.8421 110.943 11.845 110.631C11.8421 110.301 11.7569 110.01 11.5893 109.757C11.4217 109.504 11.193 109.305 10.9032 109.161C10.6163 109.016 10.2882 108.943 9.91885 108.943C9.54669 108.943 9.2143 109.016 8.92169 109.161C8.63192 109.305 8.40322 109.504 8.23561 109.757C8.07084 110.01 7.98987 110.301 7.99271 110.631C7.98987 110.943 8.06516 111.216 8.21857 111.449C8.37482 111.682 8.59783 111.862 8.8876 111.99C9.17737 112.118 9.52112 112.182 9.91885 112.182ZM9.91885 108.04C10.2313 108.04 10.5083 107.977 10.7498 107.852C10.9941 107.727 11.1859 107.553 11.3251 107.328C11.4643 107.104 11.5353 106.841 11.5382 106.54C11.5353 106.244 11.4657 105.987 11.3294 105.768C11.193 105.547 11.0041 105.376 10.7626 105.257C10.5211 105.135 10.2399 105.074 9.91885 105.074C9.59215 105.074 9.30663 105.135 9.06232 105.257C8.818 105.376 8.62908 105.547 8.49555 105.768C8.36203 105.987 8.29669 106.244 8.29953 106.54C8.29669 106.841 8.36345 107.104 8.49982 107.328C8.63902 107.553 8.83078 107.727 9.0751 107.852C9.31942 107.977 9.60067 108.04 9.91885 108.04ZM17.4502 113.119C16.8082 113.119 16.2613 112.945 15.8096 112.595C15.3579 112.243 15.0127 111.733 14.7741 111.065C14.5355 110.395 14.4161 109.585 14.4161 108.636C14.4161 107.693 14.5355 106.888 14.7741 106.22C15.0156 105.55 15.3622 105.038 15.8139 104.686C16.2684 104.331 16.8139 104.153 17.4502 104.153C18.0866 104.153 18.6306 104.331 19.0823 104.686C19.5369 105.038 19.8835 105.55 20.1221 106.22C20.3636 106.888 20.4843 107.693 20.4843 108.636C20.4843 109.585 20.365 110.395 20.1264 111.065C19.8877 111.733 19.5426 112.243 19.0909 112.595C18.6392 112.945 18.0923 113.119 17.4502 113.119ZM17.4502 112.182C18.0866 112.182 18.5809 111.875 18.9332 111.261C19.2855 110.648 19.4616 109.773 19.4616 108.636C19.4616 107.881 19.3806 107.237 19.2187 106.706C19.0596 106.175 18.8295 105.77 18.5284 105.491C18.2301 105.213 17.8707 105.074 17.4502 105.074C16.8195 105.074 16.3267 105.385 15.9715 106.007C15.6164 106.626 15.4389 107.503 15.4389 108.636C15.4389 109.392 15.5184 110.034 15.6775 110.562C15.8366 111.091 16.0653 111.493 16.3636 111.768C16.6647 112.044 17.0269 112.182 17.4502 112.182ZM25.0359 113.119C24.3939 113.119 23.847 112.945 23.3953 112.595C22.9436 112.243 22.5984 111.733 22.3598 111.065C22.1212 110.395 22.0019 109.585 22.0019 108.636C22.0019 107.693 22.1212 106.888 22.3598 106.22C22.6013 105.55 22.9479 105.038 23.3996 104.686C23.8541 104.331 24.3996 104.153 25.0359 104.153C25.6723 104.153 26.2163 104.331 26.668 104.686C27.1226 105.038 27.4692 105.55 27.7078 106.22C27.9493 106.888 28.07 107.693 28.07 108.636C28.07 109.585 27.9507 110.395 27.7121 111.065C27.4734 111.733 27.1283 112.243 26.6766 112.595C26.2249 112.945 25.678 113.119 25.0359 113.119ZM25.0359 112.182C25.6723 112.182 26.1666 111.875 26.5189 111.261C26.8712 110.648 27.0473 109.773 27.0473 108.636C27.0473 107.881 26.9663 107.237 26.8044 106.706C26.6453 106.175 26.4152 105.77 26.1141 105.491C25.8158 105.213 25.4564 105.074 25.0359 105.074C24.4053 105.074 23.9124 105.385 23.5573 106.007C23.2021 106.626 23.0246 107.503 23.0246 108.636C23.0246 109.392 23.1041 110.034 23.2632 110.562C23.4223 111.091 23.651 111.493 23.9493 111.768C24.2504 112.044 24.6127 112.182 25.0359 112.182Z" fill="#92929D"/>
<path d="M39.6364 108H323.918" stroke="#F1F1F5" stroke-linecap="square" stroke-dasharray="5 5"/>
</g>
<path d="M231.357 273.818H232.829L236.289 282.27H236.408L239.868 273.818H241.34V284H240.187V276.264H240.087L236.905 284H235.792L232.61 276.264H232.51V284H231.357V273.818ZM246 284.179C245.516 284.179 245.077 284.088 244.683 283.906C244.288 283.72 243.975 283.453 243.743 283.105C243.511 282.754 243.395 282.33 243.395 281.832C243.395 281.395 243.481 281.04 243.654 280.768C243.826 280.493 244.056 280.278 244.345 280.122C244.633 279.966 244.951 279.85 245.299 279.774C245.651 279.695 246.004 279.632 246.358 279.585C246.822 279.526 247.198 279.481 247.487 279.451C247.778 279.418 247.991 279.363 248.123 279.287C248.259 279.211 248.327 279.078 248.327 278.889V278.849C248.327 278.359 248.193 277.978 247.924 277.706C247.659 277.434 247.256 277.298 246.716 277.298C246.156 277.298 245.717 277.421 245.399 277.666C245.08 277.911 244.857 278.173 244.728 278.452L243.614 278.054C243.813 277.59 244.078 277.229 244.409 276.97C244.744 276.708 245.109 276.526 245.503 276.423C245.901 276.317 246.292 276.264 246.676 276.264C246.922 276.264 247.203 276.294 247.522 276.354C247.843 276.41 248.153 276.528 248.451 276.707C248.753 276.886 249.003 277.156 249.202 277.517C249.401 277.878 249.5 278.362 249.5 278.969V284H248.327V282.966H248.267C248.188 283.132 248.055 283.309 247.87 283.498C247.684 283.687 247.437 283.848 247.129 283.98C246.821 284.113 246.444 284.179 246 284.179ZM246.179 283.125C246.643 283.125 247.034 283.034 247.353 282.852C247.674 282.669 247.916 282.434 248.078 282.146C248.244 281.857 248.327 281.554 248.327 281.236V280.162C248.277 280.222 248.168 280.276 247.999 280.326C247.833 280.372 247.641 280.414 247.422 280.45C247.207 280.483 246.996 280.513 246.791 280.54C246.589 280.563 246.424 280.583 246.299 280.599C245.994 280.639 245.709 280.704 245.443 280.793C245.182 280.879 244.969 281.01 244.807 281.186C244.648 281.358 244.568 281.594 244.568 281.892C244.568 282.3 244.719 282.608 245.021 282.817C245.326 283.022 245.712 283.125 246.179 283.125ZM251.742 284V276.364H252.915V284H251.742ZM252.338 275.091C252.11 275.091 251.912 275.013 251.747 274.857C251.584 274.701 251.503 274.514 251.503 274.295C251.503 274.077 251.584 273.889 251.747 273.734C251.912 273.578 252.11 273.5 252.338 273.5C252.567 273.5 252.763 273.578 252.925 273.734C253.091 273.889 253.174 274.077 253.174 274.295C253.174 274.514 253.091 274.701 252.925 274.857C252.763 275.013 252.567 275.091 252.338 275.091Z" fill="#92929D"/>
<g clip-path="url(#clip5_35_1029)">
<path d="M186.306 284H185.014L188.752 273.818H190.025L193.764 284H192.471L189.429 275.429H189.349L186.306 284ZM186.784 280.023H191.994V281.116H186.784V280.023ZM195.45 284V273.818H196.623V277.577H196.722C196.809 277.444 196.928 277.275 197.08 277.07C197.236 276.861 197.458 276.675 197.747 276.513C198.038 276.347 198.433 276.264 198.93 276.264C199.573 276.264 200.14 276.425 200.63 276.746C201.121 277.068 201.504 277.524 201.779 278.114C202.054 278.704 202.191 279.4 202.191 280.202C202.191 281.01 202.054 281.711 201.779 282.305C201.504 282.895 201.122 283.352 200.635 283.677C200.148 283.998 199.586 284.159 198.95 284.159C198.459 284.159 198.066 284.078 197.771 283.915C197.477 283.75 197.249 283.562 197.09 283.354C196.931 283.142 196.809 282.966 196.722 282.827H196.583V284H195.45ZM196.603 280.182C196.603 280.759 196.688 281.267 196.857 281.708C197.026 282.146 197.273 282.489 197.597 282.737C197.922 282.982 198.32 283.105 198.791 283.105C199.281 283.105 199.691 282.976 200.019 282.717C200.35 282.455 200.599 282.104 200.764 281.663C200.933 281.219 201.018 280.725 201.018 280.182C201.018 279.645 200.935 279.161 200.769 278.73C200.607 278.296 200.36 277.953 200.029 277.701C199.7 277.446 199.288 277.318 198.791 277.318C198.313 277.318 197.912 277.439 197.588 277.681C197.263 277.92 197.017 278.254 196.852 278.685C196.686 279.113 196.603 279.612 196.603 280.182ZM204.086 284V276.364H205.22V277.517H205.299C205.438 277.139 205.69 276.833 206.055 276.597C206.419 276.362 206.83 276.244 207.288 276.244C207.374 276.244 207.482 276.246 207.611 276.249C207.74 276.253 207.838 276.258 207.904 276.264V277.457C207.864 277.447 207.773 277.433 207.631 277.413C207.492 277.389 207.344 277.378 207.188 277.378C206.817 277.378 206.486 277.456 206.194 277.612C205.906 277.764 205.677 277.976 205.508 278.248C205.342 278.516 205.259 278.823 205.259 279.168V284H204.086Z" fill="#92929D"/>
</g>
<g clip-path="url(#clip6_35_1029)">
<path d="M140.241 273.818H141.713L145.173 282.27H145.292L148.753 273.818H150.224V284H149.071V276.264H148.971L145.79 284H144.676L141.494 276.264H141.395V284H140.241V273.818ZM154.884 284.179C154.4 284.179 153.961 284.088 153.567 283.906C153.172 283.72 152.859 283.453 152.627 283.105C152.395 282.754 152.279 282.33 152.279 281.832C152.279 281.395 152.365 281.04 152.538 280.768C152.71 280.493 152.94 280.278 153.229 280.122C153.517 279.966 153.835 279.85 154.183 279.774C154.535 279.695 154.888 279.632 155.242 279.585C155.706 279.526 156.083 279.481 156.371 279.451C156.663 279.418 156.875 279.363 157.007 279.287C157.143 279.211 157.211 279.078 157.211 278.889V278.849C157.211 278.359 157.077 277.978 156.808 277.706C156.543 277.434 156.141 277.298 155.6 277.298C155.04 277.298 154.601 277.421 154.283 277.666C153.965 277.911 153.741 278.173 153.612 278.452L152.498 278.054C152.697 277.59 152.962 277.229 153.293 276.97C153.628 276.708 153.993 276.526 154.387 276.423C154.785 276.317 155.176 276.264 155.561 276.264C155.806 276.264 156.087 276.294 156.406 276.354C156.727 276.41 157.037 276.528 157.335 276.707C157.637 276.886 157.887 277.156 158.086 277.517C158.285 277.878 158.384 278.362 158.384 278.969V284H157.211V282.966H157.151C157.072 283.132 156.939 283.309 156.754 283.498C156.568 283.687 156.321 283.848 156.013 283.98C155.705 284.113 155.329 284.179 154.884 284.179ZM155.063 283.125C155.527 283.125 155.918 283.034 156.237 282.852C156.558 282.669 156.8 282.434 156.962 282.146C157.128 281.857 157.211 281.554 157.211 281.236V280.162C157.161 280.222 157.052 280.276 156.883 280.326C156.717 280.372 156.525 280.414 156.306 280.45C156.091 280.483 155.88 280.513 155.675 280.54C155.473 280.563 155.309 280.583 155.183 280.599C154.878 280.639 154.593 280.704 154.328 280.793C154.066 280.879 153.854 281.01 153.691 281.186C153.532 281.358 153.453 281.594 153.453 281.892C153.453 282.3 153.603 282.608 153.905 282.817C154.21 283.022 154.596 283.125 155.063 283.125ZM160.626 284V276.364H161.759V277.517H161.839C161.978 277.139 162.23 276.833 162.595 276.597C162.959 276.362 163.37 276.244 163.828 276.244C163.914 276.244 164.021 276.246 164.151 276.249C164.28 276.253 164.378 276.258 164.444 276.264V277.457C164.404 277.447 164.313 277.433 164.171 277.413C164.031 277.389 163.884 277.378 163.728 277.378C163.357 277.378 163.026 277.456 162.734 277.612C162.445 277.764 162.217 277.976 162.048 278.248C161.882 278.516 161.799 278.823 161.799 279.168V284H160.626Z" fill="#92929D"/>
</g>
<g clip-path="url(#clip7_35_1029)">
<path d="M96.7811 284V273.818H102.886V274.912H98.0141V278.352H102.429V279.446H98.0141V284H96.7811ZM107.58 284.159C106.844 284.159 106.209 283.997 105.676 283.672C105.146 283.344 104.736 282.886 104.448 282.3C104.163 281.71 104.02 281.024 104.02 280.241C104.02 279.459 104.163 278.77 104.448 278.173C104.736 277.573 105.137 277.106 105.651 276.771C106.168 276.433 106.771 276.264 107.461 276.264C107.858 276.264 108.251 276.33 108.639 276.463C109.027 276.596 109.38 276.811 109.698 277.109C110.016 277.404 110.27 277.795 110.459 278.283C110.647 278.77 110.742 279.37 110.742 280.082V280.58H104.856V279.565H109.549C109.549 279.134 109.463 278.75 109.29 278.412C109.121 278.074 108.879 277.807 108.564 277.612C108.253 277.416 107.885 277.318 107.461 277.318C106.993 277.318 106.589 277.434 106.248 277.666C105.91 277.895 105.649 278.193 105.467 278.561C105.285 278.929 105.194 279.323 105.194 279.744V280.42C105.194 280.997 105.293 281.486 105.492 281.887C105.694 282.285 105.974 282.588 106.332 282.797C106.69 283.002 107.106 283.105 107.58 283.105C107.888 283.105 108.167 283.062 108.415 282.976C108.667 282.886 108.884 282.754 109.066 282.578C109.249 282.399 109.39 282.177 109.489 281.912L110.623 282.23C110.503 282.615 110.303 282.953 110.021 283.244C109.739 283.533 109.391 283.758 108.977 283.92C108.563 284.08 108.097 284.159 107.58 284.159ZM118.639 276.364L115.815 284H114.622L111.798 276.364H113.07L115.178 282.449H115.258L117.366 276.364H118.639Z" fill="#92929D"/>
</g>
<g clip-path="url(#clip8_35_1029)">
<path d="M282.341 273.818H283.574V281.097C283.574 281.746 283.454 282.298 283.216 282.752C282.977 283.206 282.641 283.551 282.206 283.786C281.772 284.022 281.26 284.139 280.67 284.139C280.113 284.139 279.618 284.038 279.184 283.836C278.749 283.63 278.408 283.339 278.159 282.961C277.911 282.583 277.787 282.134 277.787 281.614H279C279 281.902 279.071 282.154 279.213 282.369C279.359 282.581 279.558 282.747 279.81 282.866C280.062 282.986 280.349 283.045 280.67 283.045C281.025 283.045 281.326 282.971 281.575 282.822C281.824 282.673 282.012 282.454 282.142 282.165C282.274 281.874 282.341 281.518 282.341 281.097V273.818ZM290.798 280.878V276.364H291.971V284H290.798V282.707H290.718C290.539 283.095 290.261 283.425 289.883 283.697C289.505 283.965 289.028 284.099 288.451 284.099C287.974 284.099 287.55 283.995 287.179 283.786C286.807 283.574 286.516 283.256 286.304 282.832C286.091 282.404 285.985 281.866 285.985 281.216V276.364H287.159V281.136C287.159 281.693 287.314 282.137 287.626 282.469C287.941 282.8 288.342 282.966 288.829 282.966C289.121 282.966 289.417 282.891 289.719 282.742C290.024 282.593 290.279 282.364 290.485 282.056C290.693 281.748 290.798 281.355 290.798 280.878ZM295.393 279.406V284H294.22V276.364H295.354V277.557H295.453C295.632 277.169 295.904 276.857 296.268 276.622C296.633 276.384 297.104 276.264 297.68 276.264C298.197 276.264 298.65 276.37 299.038 276.582C299.425 276.791 299.727 277.109 299.942 277.537C300.158 277.961 300.266 278.498 300.266 279.148V284H299.092V279.227C299.092 278.627 298.936 278.16 298.625 277.825C298.313 277.487 297.886 277.318 297.342 277.318C296.968 277.318 296.633 277.399 296.338 277.562C296.046 277.724 295.816 277.961 295.647 278.273C295.478 278.584 295.393 278.962 295.393 279.406Z" fill="#92929D"/>
</g>
<g clip-path="url(#clip9_35_1029)">
<path d="M55.9678 273.818H57.2007V281.097C57.2007 281.746 57.0814 282.298 56.8428 282.752C56.6041 283.206 56.2677 283.551 55.8335 283.786C55.3993 284.022 54.8873 284.139 54.2973 284.139C53.7405 284.139 53.245 284.038 52.8108 283.836C52.3766 283.63 52.0352 283.339 51.7867 282.961C51.5381 282.583 51.4138 282.134 51.4138 281.614H52.6269C52.6269 281.902 52.6981 282.154 52.8406 282.369C52.9865 282.581 53.1853 282.747 53.4372 282.866C53.6891 282.986 53.9758 283.045 54.2973 283.045C54.652 283.045 54.9536 282.971 55.2021 282.822C55.4507 282.673 55.6396 282.454 55.7689 282.165C55.9015 281.874 55.9678 281.518 55.9678 281.097V273.818ZM61.8597 284.179C61.3758 284.179 60.9366 284.088 60.5422 283.906C60.1478 283.72 59.8346 283.453 59.6026 283.105C59.3706 282.754 59.2546 282.33 59.2546 281.832C59.2546 281.395 59.3407 281.04 59.5131 280.768C59.6854 280.493 59.9158 280.278 60.2041 280.122C60.4925 279.966 60.8107 279.85 61.1587 279.774C61.51 279.695 61.863 279.632 62.2176 279.585C62.6816 279.526 63.0578 279.481 63.3462 279.451C63.6378 279.418 63.85 279.363 63.9825 279.287C64.1184 279.211 64.1864 279.078 64.1864 278.889V278.849C64.1864 278.359 64.0521 277.978 63.7837 277.706C63.5185 277.434 63.1158 277.298 62.5756 277.298C62.0154 277.298 61.5763 277.421 61.2581 277.666C60.9399 277.911 60.7162 278.173 60.5869 278.452L59.4733 278.054C59.6722 277.59 59.9373 277.229 60.2688 276.97C60.6035 276.708 60.9681 276.526 61.3625 276.423C61.7602 276.317 62.1513 276.264 62.5358 276.264C62.7811 276.264 63.0628 276.294 63.381 276.354C63.7025 276.41 64.0124 276.528 64.3107 276.707C64.6123 276.886 64.8625 277.156 65.0614 277.517C65.2602 277.878 65.3597 278.362 65.3597 278.969V284H64.1864V282.966H64.1267C64.0472 283.132 63.9146 283.309 63.729 283.498C63.5434 283.687 63.2965 283.848 62.9882 283.98C62.68 284.113 62.3038 284.179 61.8597 284.179ZM62.0386 283.125C62.5027 283.125 62.8938 283.034 63.2119 282.852C63.5334 282.669 63.7754 282.434 63.9378 282.146C64.1035 281.857 64.1864 281.554 64.1864 281.236V280.162C64.1367 280.222 64.0273 280.276 63.8582 280.326C63.6925 280.372 63.5003 280.414 63.2815 280.45C63.0661 280.483 62.8556 280.513 62.6502 280.54C62.448 280.563 62.2839 280.583 62.158 280.599C61.853 280.639 61.568 280.704 61.3029 280.793C61.041 280.879 60.8289 281.01 60.6665 281.186C60.5074 281.358 60.4279 281.594 60.4279 281.892C60.4279 282.3 60.5787 282.608 60.8803 282.817C61.1852 283.022 61.5713 283.125 62.0386 283.125ZM68.7745 279.406V284H67.6012V276.364H68.7347V277.557H68.8341C69.0131 277.169 69.2849 276.857 69.6495 276.622C70.0141 276.384 70.4847 276.264 71.0614 276.264C71.5785 276.264 72.0309 276.37 72.4187 276.582C72.8064 276.791 73.108 277.109 73.3235 277.537C73.5389 277.961 73.6466 278.498 73.6466 279.148V284H72.4733V279.227C72.4733 278.627 72.3176 278.16 72.006 277.825C71.6945 277.487 71.2669 277.318 70.7233 277.318C70.3488 277.318 70.0141 277.399 69.7191 277.562C69.4274 277.724 69.1971 277.961 69.028 278.273C68.859 278.584 68.7745 278.962 68.7745 279.406Z" fill="#92929D"/>
</g>
<path fill-rule="evenodd" clip-rule="evenodd" d="M55 178V150.798C55 148.7 56.7003 147 58.7977 147C60.895 147 62.5953 148.7 62.5953 150.798V178C62.5953 178 61.9064 174.989 58.7997 174.989C55.693 174.989 55 178 55 178Z" fill="#50B5FF"/>
<path fill-rule="evenodd" clip-rule="evenodd" d="M55 146V128.798C55 126.7 56.7003 125 58.7977 125C60.895 125 62.5953 126.7 62.5953 128.798V146C62.5953 146 61.9064 142.989 58.7997 142.989C55.693 142.989 55 146 55 146Z" fill="#E2E2EA"/>
<path fill-rule="evenodd" clip-rule="evenodd" d="M58.7977 249C56.7003 249 55 247.3 55 245.202L55 182.798C55 180.7 56.7003 179 58.7977 179C60.895 179 62.5953 180.7 62.5953 182.798V245.202C62.5953 247.3 60.895 249 58.7977 249Z" fill="#0062FF"/>
<path fill-rule="evenodd" clip-rule="evenodd" d="M235 179V151.798C235 149.7 236.7 148 238.798 148C240.895 148 242.595 149.7 242.595 151.798V179C242.595 179 241.906 175.989 238.8 175.989C235.693 175.989 235 179 235 179Z" fill="#50B5FF"/>
<path fill-rule="evenodd" clip-rule="evenodd" d="M235 147V129.798C235 127.7 236.7 126 238.798 126C240.895 126 242.595 127.7 242.595 129.798V147C242.595 147 241.906 143.989 238.8 143.989C235.693 143.989 235 147 235 147Z" fill="#E2E2EA"/>
<path fill-rule="evenodd" clip-rule="evenodd" d="M238.798 250C236.7 250 235 248.3 235 246.202L235 183.798C235 181.7 236.7 180 238.798 180C240.895 180 242.595 181.7 242.595 183.798V246.202C242.595 248.3 240.895 250 238.798 250Z" fill="#0062FF"/>
<path fill-rule="evenodd" clip-rule="evenodd" d="M141 176V143.798C141 141.7 142.7 140 144.798 140C146.895 140 148.595 141.7 148.595 143.798V176C148.595 176 147.906 172.989 144.8 172.989C141.693 172.989 141 176 141 176Z" fill="#50B5FF"/>
<path fill-rule="evenodd" clip-rule="evenodd" d="M141 139V116.798C141 114.7 142.7 113 144.798 113C146.895 113 148.595 114.7 148.595 116.798V139C148.595 139 147.906 135.989 144.8 135.989C141.693 135.989 141 139 141 139Z" fill="#E2E2EA"/>
<path fill-rule="evenodd" clip-rule="evenodd" d="M144.798 250C142.7 250 141 248.3 141 246.202V180.798C141 178.7 142.7 177 144.798 177C146.895 177 148.595 178.7 148.595 180.798V246.202C148.595 248.3 146.895 250 144.798 250Z" fill="#0062FF"/>
<path fill-rule="evenodd" clip-rule="evenodd" d="M98 193V178.798C98 176.7 99.7003 175 101.798 175C103.895 175 105.595 176.7 105.595 178.798V193C105.595 193 104.906 189.989 101.8 189.989C98.693 189.989 98 193 98 193Z" fill="#50B5FF"/>
<path fill-rule="evenodd" clip-rule="evenodd" d="M98 174V161.798C98 159.7 99.7003 158 101.798 158C103.895 158 105.595 159.7 105.595 161.798V174C105.595 174 104.906 170.984 101.8 170.984C98.693 170.984 98 174 98 174Z" fill="#E2E2EA"/>
<path fill-rule="evenodd" clip-rule="evenodd" d="M101.798 249C99.7003 249 98 247.3 98 245.202L98 197.798C98 195.7 99.7003 194 101.798 194C103.895 194 105.595 195.7 105.595 197.798V245.202C105.595 247.3 103.895 249 101.798 249Z" fill="#0062FF"/>
<path fill-rule="evenodd" clip-rule="evenodd" d="M282 193V178.798C282 176.7 283.7 175 285.798 175C287.895 175 289.595 176.7 289.595 178.798V193C289.595 193 288.906 189.989 285.8 189.989C282.693 189.989 282 193 282 193Z" fill="#50B5FF"/>
<path fill-rule="evenodd" clip-rule="evenodd" d="M282 174V161.798C282 159.7 283.7 158 285.798 158C287.895 158 289.595 159.7 289.595 161.798V174C289.595 174 288.906 170.984 285.8 170.984C282.693 170.984 282 174 282 174Z" fill="#E2E2EA"/>
<path fill-rule="evenodd" clip-rule="evenodd" d="M285.798 249C283.7 249 282 247.3 282 245.202L282 197.798C282 195.7 283.7 194 285.798 194C287.895 194 289.595 195.7 289.595 197.798V245.202C289.595 247.3 287.895 249 285.798 249Z" fill="#0062FF"/>
<path fill-rule="evenodd" clip-rule="evenodd" d="M188 186V167.798C188 165.7 189.7 164 191.798 164C193.895 164 195.595 165.7 195.595 167.798V186C195.595 186 194.906 182.989 191.8 182.989C188.693 182.989 188 186 188 186Z" fill="#50B5FF"/>
<path fill-rule="evenodd" clip-rule="evenodd" d="M188 163V149.798C188 147.7 189.7 146 191.798 146C193.895 146 195.595 147.7 195.595 149.798V163C195.595 163 194.906 159.984 191.8 159.984C188.693 159.984 188 163 188 163Z" fill="#E2E2EA"/>
<path fill-rule="evenodd" clip-rule="evenodd" d="M191.798 249C189.7 249 188 247.3 188 245.202V190.798C188 188.7 189.7 187 191.798 187C193.895 187 195.595 188.7 195.595 190.798V245.202C195.595 247.3 193.895 249 191.798 249Z" fill="#0062FF"/>
</g>
<g clip-path="url(#clip10_35_1029)">
<rect x="175.84" y="58" width="8.92112" height="10" rx="4.46056" fill="#E2E2EA"/>
<path d="M199.644 57.8182V68H198.45L192.902 60.0057H192.803V68H191.57V57.8182H192.763L198.331 65.8324H198.431V57.8182H199.644ZM205.154 68.1591C204.465 68.1591 203.86 67.995 203.339 67.6669C202.822 67.3388 202.418 66.8797 202.126 66.2898C201.838 65.6998 201.694 65.0104 201.694 64.2216C201.694 63.4261 201.838 62.7318 202.126 62.1385C202.418 61.5452 202.822 61.0845 203.339 60.7564C203.86 60.4283 204.465 60.2642 205.154 60.2642C205.843 60.2642 206.447 60.4283 206.964 60.7564C207.484 61.0845 207.888 61.5452 208.177 62.1385C208.468 62.7318 208.614 63.4261 208.614 64.2216C208.614 65.0104 208.468 65.6998 208.177 66.2898C207.888 66.8797 207.484 67.3388 206.964 67.6669C206.447 67.995 205.843 68.1591 205.154 68.1591ZM205.154 67.1051C205.678 67.1051 206.108 66.9709 206.447 66.7024C206.785 66.4339 207.035 66.081 207.197 65.6435C207.36 65.206 207.441 64.732 207.441 64.2216C207.441 63.7112 207.36 63.2356 207.197 62.7947C207.035 62.3539 206.785 61.9976 206.447 61.7259C206.108 61.4541 205.678 61.3182 205.154 61.3182C204.63 61.3182 204.199 61.4541 203.861 61.7259C203.523 61.9976 203.273 62.3539 203.111 62.7947C202.948 63.2356 202.867 63.7112 202.867 64.2216C202.867 64.732 202.948 65.206 203.111 65.6435C203.273 66.081 203.523 66.4339 203.861 66.7024C204.199 66.9709 204.63 67.1051 205.154 67.1051ZM216.476 60.3636L213.652 68H212.459L209.635 60.3636H210.908L213.016 66.4489H213.095L215.203 60.3636H216.476ZM220.954 68.1591C220.264 68.1591 219.659 67.995 219.139 67.6669C218.622 67.3388 218.218 66.8797 217.926 66.2898C217.638 65.6998 217.493 65.0104 217.493 64.2216C217.493 63.4261 217.638 62.7318 217.926 62.1385C218.218 61.5452 218.622 61.0845 219.139 60.7564C219.659 60.4283 220.264 60.2642 220.954 60.2642C221.643 60.2642 222.246 60.4283 222.763 60.7564C223.284 61.0845 223.688 61.5452 223.976 62.1385C224.268 62.7318 224.414 63.4261 224.414 64.2216C224.414 65.0104 224.268 65.6998 223.976 66.2898C223.688 66.8797 223.284 67.3388 222.763 67.6669C222.246 67.995 221.643 68.1591 220.954 68.1591ZM220.954 67.1051C221.477 67.1051 221.908 66.9709 222.246 66.7024C222.584 66.4339 222.834 66.081 222.997 65.6435C223.159 65.206 223.24 64.732 223.24 64.2216C223.24 63.7112 223.159 63.2356 222.997 62.7947C222.834 62.3539 222.584 61.9976 222.246 61.7259C221.908 61.4541 221.477 61.3182 220.954 61.3182C220.43 61.3182 219.999 61.4541 219.661 61.7259C219.323 61.9976 219.073 62.3539 218.91 62.7947C218.748 63.2356 218.667 63.7112 218.667 64.2216C218.667 64.732 218.748 65.206 218.91 65.6435C219.073 66.081 219.323 66.4339 219.661 66.7024C219.999 66.9709 220.43 67.1051 220.954 67.1051ZM231.714 62.0739L230.66 62.3722C230.594 62.1965 230.496 62.0258 230.367 61.8601C230.241 61.6911 230.068 61.5518 229.85 61.4425C229.631 61.3331 229.351 61.2784 229.009 61.2784C228.542 61.2784 228.153 61.3861 227.841 61.6016C227.533 61.8137 227.379 62.0838 227.379 62.4119C227.379 62.7036 227.485 62.9339 227.697 63.103C227.909 63.272 228.24 63.4129 228.691 63.5256L229.825 63.804C230.507 63.9697 231.016 64.2232 231.351 64.5646C231.686 64.9027 231.853 65.3385 231.853 65.8722C231.853 66.3097 231.727 66.7008 231.475 67.0455C231.227 67.3902 230.879 67.6619 230.431 67.8608C229.984 68.0597 229.463 68.1591 228.87 68.1591C228.091 68.1591 227.447 67.9901 226.936 67.652C226.426 67.3139 226.103 66.8201 225.967 66.1705L227.08 65.892C227.186 66.303 227.387 66.6113 227.682 66.8168C227.98 67.0223 228.37 67.125 228.85 67.125C229.397 67.125 229.831 67.009 230.153 66.777C230.478 66.5417 230.64 66.2599 230.64 65.9318C230.64 65.6667 230.547 65.4446 230.362 65.2656C230.176 65.0833 229.891 64.9474 229.507 64.858L228.234 64.5597C227.534 64.3939 227.021 64.1371 226.693 63.7891C226.368 63.4377 226.205 62.9986 226.205 62.4716C226.205 62.0407 226.326 61.6596 226.568 61.3281C226.814 60.9967 227.147 60.7365 227.568 60.5476C227.992 60.3587 228.472 60.2642 229.009 60.2642C229.765 60.2642 230.358 60.4299 230.789 60.7614C231.223 61.0928 231.532 61.5303 231.714 62.0739ZM240.859 68.1591C240.143 68.1591 239.527 67.9901 239.01 67.652C238.493 67.3139 238.095 66.8482 237.816 66.255C237.538 65.6617 237.399 64.9839 237.399 64.2216C237.399 63.446 237.541 62.7616 237.826 62.1683C238.115 61.5717 238.516 61.1061 239.029 60.7713C239.547 60.4332 240.15 60.2642 240.839 60.2642C241.376 60.2642 241.86 60.3636 242.291 60.5625C242.722 60.7614 243.075 61.0398 243.35 61.3977C243.625 61.7557 243.796 62.1733 243.862 62.6506H242.689C242.599 62.3026 242.4 61.9943 242.092 61.7259C241.787 61.4541 241.376 61.3182 240.859 61.3182C240.402 61.3182 240.001 61.4375 239.656 61.6761C239.315 61.9115 239.048 62.2446 238.855 62.6754C238.667 63.103 238.572 63.6051 238.572 64.1818C238.572 64.7718 238.665 65.2855 238.85 65.723C239.039 66.1605 239.305 66.5002 239.646 66.7422C239.991 66.9841 240.395 67.1051 240.859 67.1051C241.164 67.1051 241.441 67.0521 241.689 66.946C241.938 66.84 242.148 66.6875 242.321 66.4886C242.493 66.2898 242.616 66.0511 242.689 65.7727H243.862C243.796 66.2235 243.632 66.6295 243.37 66.9908C243.111 67.3487 242.768 67.6338 242.341 67.8459C241.916 68.0547 241.422 68.1591 240.859 68.1591ZM246.85 57.8182V68H245.677V57.8182H246.85ZM249.099 68V60.3636H250.273V68H249.099ZM249.696 59.0909C249.467 59.0909 249.27 59.013 249.104 58.8572C248.942 58.7015 248.861 58.5142 248.861 58.2955C248.861 58.0767 248.942 57.8894 249.104 57.7337C249.27 57.5779 249.467 57.5 249.696 57.5C249.925 57.5 250.12 57.5779 250.283 57.7337C250.448 57.8894 250.531 58.0767 250.531 58.2955C250.531 58.5142 250.448 58.7015 250.283 58.8572C250.12 59.013 249.925 59.0909 249.696 59.0909ZM255.723 68.1591C254.988 68.1591 254.353 67.9967 253.819 67.6719C253.289 67.3438 252.88 66.8864 252.591 66.2997C252.306 65.7098 252.164 65.0237 252.164 64.2415C252.164 63.4593 252.306 62.7699 252.591 62.1733C252.88 61.5734 253.281 61.1061 253.794 60.7713C254.311 60.4332 254.915 60.2642 255.604 60.2642C256.002 60.2642 256.394 60.3305 256.782 60.4631C257.17 60.5956 257.523 60.8111 257.841 61.1094C258.159 61.4044 258.413 61.7955 258.602 62.2827C258.791 62.7699 258.885 63.3698 258.885 64.0824V64.5795H252.999V63.5653H257.692C257.692 63.1345 257.606 62.75 257.434 62.4119C257.264 62.0739 257.023 61.8071 256.708 61.6115C256.396 61.416 256.028 61.3182 255.604 61.3182C255.137 61.3182 254.732 61.4342 254.391 61.6662C254.053 61.8949 253.793 62.1932 253.61 62.5611C253.428 62.929 253.337 63.3234 253.337 63.7443V64.4205C253.337 64.9972 253.436 65.486 253.635 65.8871C253.837 66.2848 254.117 66.5881 254.475 66.7969C254.833 67.0024 255.249 67.1051 255.723 67.1051C256.032 67.1051 256.31 67.062 256.559 66.9759C256.81 66.8864 257.028 66.7538 257.21 66.5781C257.392 66.3991 257.533 66.1771 257.632 65.9119L258.766 66.2301C258.647 66.6146 258.446 66.9527 258.164 67.2443C257.883 67.5327 257.535 67.758 257.12 67.9205C256.706 68.0795 256.24 68.1591 255.723 68.1591ZM261.943 63.4062V68H260.77V60.3636H261.904V61.5568H262.003C262.182 61.169 262.454 60.8575 262.818 60.6222C263.183 60.3835 263.654 60.2642 264.23 60.2642C264.747 60.2642 265.2 60.3703 265.588 60.5824C265.975 60.7912 266.277 61.1094 266.492 61.5369C266.708 61.9612 266.815 62.4981 266.815 63.1477V68H265.642V63.2273C265.642 62.6274 265.486 62.16 265.175 61.8253C264.863 61.4872 264.436 61.3182 263.892 61.3182C263.518 61.3182 263.183 61.3994 262.888 61.5618C262.596 61.7242 262.366 61.9612 262.197 62.2727C262.028 62.5843 261.943 62.9621 261.943 63.4062ZM272.381 60.3636V61.358H268.423V60.3636H272.381ZM269.577 58.5341H270.75V65.8125C270.75 66.1439 270.798 66.3925 270.894 66.5582C270.993 66.7206 271.119 66.83 271.272 66.8864C271.428 66.9394 271.592 66.9659 271.764 66.9659C271.893 66.9659 271.999 66.9593 272.082 66.946C272.165 66.9295 272.231 66.9162 272.281 66.9062L272.52 67.9602C272.44 67.9901 272.329 68.0199 272.187 68.0497C272.044 68.0829 271.863 68.0994 271.645 68.0994C271.313 68.0994 270.988 68.0282 270.67 67.8857C270.355 67.7431 270.094 67.526 269.885 67.2344C269.679 66.9427 269.577 66.5748 269.577 66.1307V58.5341ZM277.365 68.1591C276.629 68.1591 275.995 67.9967 275.461 67.6719C274.931 67.3438 274.521 66.8864 274.233 66.2997C273.948 65.7098 273.805 65.0237 273.805 64.2415C273.805 63.4593 273.948 62.7699 274.233 62.1733C274.521 61.5734 274.922 61.1061 275.436 60.7713C275.953 60.4332 276.556 60.2642 277.246 60.2642C277.644 60.2642 278.036 60.3305 278.424 60.4631C278.812 60.5956 279.165 60.8111 279.483 61.1094C279.801 61.4044 280.055 61.7955 280.244 62.2827C280.433 62.7699 280.527 63.3698 280.527 64.0824V64.5795H274.641V63.5653H279.334C279.334 63.1345 279.248 62.75 279.075 62.4119C278.906 62.0739 278.664 61.8071 278.349 61.6115C278.038 61.416 277.67 61.3182 277.246 61.3182C276.778 61.3182 276.374 61.4342 276.033 61.6662C275.695 61.8949 275.434 62.1932 275.252 62.5611C275.07 62.929 274.979 63.3234 274.979 63.7443V64.4205C274.979 64.9972 275.078 65.486 275.277 65.8871C275.479 66.2848 275.759 66.5881 276.117 66.7969C276.475 67.0024 276.891 67.1051 277.365 67.1051C277.673 67.1051 277.952 67.062 278.2 66.9759C278.452 66.8864 278.669 66.7538 278.852 66.5781C279.034 66.3991 279.175 66.1771 279.274 65.9119L280.408 66.2301C280.288 66.6146 280.088 66.9527 279.806 67.2443C279.524 67.5327 279.176 67.758 278.762 67.9205C278.348 68.0795 277.882 68.1591 277.365 68.1591ZM287.821 62.0739L286.767 62.3722C286.701 62.1965 286.603 62.0258 286.474 61.8601C286.348 61.6911 286.175 61.5518 285.957 61.4425C285.738 61.3331 285.458 61.2784 285.116 61.2784C284.649 61.2784 284.26 61.3861 283.948 61.6016C283.64 61.8137 283.486 62.0838 283.486 62.4119C283.486 62.7036 283.592 62.9339 283.804 63.103C284.016 63.272 284.347 63.4129 284.798 63.5256L285.932 63.804C286.614 63.9697 287.123 64.2232 287.458 64.5646C287.793 64.9027 287.96 65.3385 287.96 65.8722C287.96 66.3097 287.834 66.7008 287.582 67.0455C287.334 67.3902 286.986 67.6619 286.538 67.8608C286.091 68.0597 285.57 68.1591 284.977 68.1591C284.198 68.1591 283.554 67.9901 283.043 67.652C282.533 67.3139 282.21 66.8201 282.074 66.1705L283.187 65.892C283.293 66.303 283.494 66.6113 283.789 66.8168C284.087 67.0223 284.477 67.125 284.957 67.125C285.504 67.125 285.938 67.009 286.26 66.777C286.585 66.5417 286.747 66.2599 286.747 65.9318C286.747 65.6667 286.654 65.4446 286.469 65.2656C286.283 65.0833 285.998 64.9474 285.614 64.858L284.341 64.5597C283.641 64.3939 283.128 64.1371 282.8 63.7891C282.475 63.4377 282.312 62.9986 282.312 62.4716C282.312 62.0407 282.433 61.6596 282.675 61.3281C282.921 60.9967 283.254 60.7365 283.675 60.5476C284.099 60.3587 284.579 60.2642 285.116 60.2642C285.872 60.2642 286.465 60.4299 286.896 60.7614C287.33 61.0928 287.639 61.5303 287.821 62.0739Z" fill="#44444F"/>
</g>
<g clip-path="url(#clip11_35_1029)">
<rect x="94.2" y="58" width="8.37333" height="10" rx="4.18667" fill="#50B5FF"/>
<path d="M109.04 57.8182H110.511L113.971 66.2699H114.091L117.551 57.8182H119.023V68H117.869V60.2642H117.77L114.588 68H113.474L110.292 60.2642H110.193V68H109.04V57.8182ZM126.248 64.8778V60.3636H127.421V68H126.248V66.7074H126.169C125.99 67.0952 125.711 67.425 125.333 67.6967C124.956 67.9652 124.478 68.0994 123.902 68.0994C123.424 68.0994 123 67.995 122.629 67.7862C122.258 67.5741 121.966 67.2559 121.754 66.8317C121.542 66.4041 121.436 65.8655 121.436 65.2159V60.3636H122.609V65.1364C122.609 65.6932 122.765 66.1373 123.076 66.4688C123.391 66.8002 123.792 66.9659 124.279 66.9659C124.571 66.9659 124.868 66.8913 125.169 66.7422C125.474 66.593 125.729 66.3643 125.935 66.0561C126.144 65.7479 126.248 65.3551 126.248 64.8778ZM130.844 57.8182V68H129.67V57.8182H130.844ZM134.266 63.4062V68H133.093V57.8182H134.266V61.5568H134.365C134.544 61.1624 134.813 60.8492 135.171 60.6172C135.532 60.3819 136.013 60.2642 136.613 60.2642C137.133 60.2642 137.589 60.3686 137.98 60.5774C138.371 60.7829 138.674 61.0994 138.89 61.527C139.108 61.9512 139.218 62.4915 139.218 63.1477V68H138.044V63.2273C138.044 62.6207 137.887 62.1518 137.572 61.8203C137.261 61.4856 136.828 61.3182 136.274 61.3182C135.89 61.3182 135.545 61.3994 135.24 61.5618C134.939 61.7242 134.7 61.9612 134.524 62.2727C134.352 62.5843 134.266 62.9621 134.266 63.4062ZM144.666 68.1591C143.93 68.1591 143.295 67.9967 142.762 67.6719C142.231 67.3438 141.822 66.8864 141.534 66.2997C141.249 65.7098 141.106 65.0237 141.106 64.2415C141.106 63.4593 141.249 62.7699 141.534 62.1733C141.822 61.5734 142.223 61.1061 142.737 60.7713C143.254 60.4332 143.857 60.2642 144.547 60.2642C144.944 60.2642 145.337 60.3305 145.725 60.4631C146.113 60.5956 146.466 60.8111 146.784 61.1094C147.102 61.4044 147.355 61.7955 147.544 62.2827C147.733 62.7699 147.828 63.3698 147.828 64.0824V64.5795H141.941V63.5653H146.635C146.635 63.1345 146.548 62.75 146.376 62.4119C146.207 62.0739 145.965 61.8071 145.65 61.6115C145.339 61.416 144.971 61.3182 144.547 61.3182C144.079 61.3182 143.675 61.4342 143.333 61.6662C142.995 61.8949 142.735 62.1932 142.553 62.5611C142.371 62.929 142.28 63.3234 142.28 63.7443V64.4205C142.28 64.9972 142.379 65.486 142.578 65.8871C142.78 66.2848 143.06 66.5881 143.418 66.7969C143.776 67.0024 144.192 67.1051 144.666 67.1051C144.974 67.1051 145.253 67.062 145.501 66.9759C145.753 66.8864 145.97 66.7538 146.152 66.5781C146.335 66.3991 146.476 66.1771 146.575 65.9119L147.708 66.2301C147.589 66.6146 147.389 66.9527 147.107 67.2443C146.825 67.5327 146.477 67.758 146.063 67.9205C145.649 68.0795 145.183 68.1591 144.666 68.1591ZM149.713 68V60.3636H150.846V61.517H150.926C151.065 61.1392 151.317 60.8326 151.681 60.5973C152.046 60.362 152.457 60.2443 152.914 60.2443C153 60.2443 153.108 60.246 153.237 60.2493C153.367 60.2526 153.464 60.2576 153.531 60.2642V61.4574C153.491 61.4474 153.4 61.4325 153.257 61.4126C153.118 61.3894 152.971 61.3778 152.815 61.3778C152.444 61.3778 152.112 61.4557 151.821 61.6115C151.532 61.764 151.304 61.9761 151.134 62.2479C150.969 62.5163 150.886 62.8229 150.886 63.1676V68H149.713Z" fill="#44444F"/>
</g>
<g clip-path="url(#clip12_35_1029)">
<rect x="15.7" y="58" width="7.19178" height="10" rx="3.59589" fill="#0062FF"/>
<path d="M27.3996 68V57.8182H28.6326V62.3523H34.0616V57.8182H35.2945V68H34.0616V63.446H28.6326V68H27.3996ZM40.8061 68.1591C40.1167 68.1591 39.5118 67.995 38.9915 67.6669C38.4744 67.3388 38.0701 66.8797 37.7784 66.2898C37.4901 65.6998 37.3459 65.0104 37.3459 64.2216C37.3459 63.4261 37.4901 62.7318 37.7784 62.1385C38.0701 61.5452 38.4744 61.0845 38.9915 60.7564C39.5118 60.4283 40.1167 60.2642 40.8061 60.2642C41.4955 60.2642 42.0987 60.4283 42.6158 60.7564C43.1361 61.0845 43.5405 61.5452 43.8288 62.1385C44.1205 62.7318 44.2663 63.4261 44.2663 64.2216C44.2663 65.0104 44.1205 65.6998 43.8288 66.2898C43.5405 66.8797 43.1361 67.3388 42.6158 67.6669C42.0987 67.995 41.4955 68.1591 40.8061 68.1591ZM40.8061 67.1051C41.3298 67.1051 41.7607 66.9709 42.0987 66.7024C42.4368 66.4339 42.687 66.081 42.8494 65.6435C43.0118 65.206 43.093 64.732 43.093 64.2216C43.093 63.7112 43.0118 63.2356 42.8494 62.7947C42.687 62.3539 42.4368 61.9976 42.0987 61.7259C41.7607 61.4541 41.3298 61.3182 40.8061 61.3182C40.2824 61.3182 39.8516 61.4541 39.5135 61.7259C39.1754 61.9976 38.9252 62.3539 38.7628 62.7947C38.6004 63.2356 38.5192 63.7112 38.5192 64.2216C38.5192 64.732 38.6004 65.206 38.7628 65.6435C38.9252 66.081 39.1754 66.4339 39.5135 66.7024C39.8516 66.9709 40.2824 67.1051 40.8061 67.1051ZM46.1573 68V60.3636H47.2909V61.5568H47.3903C47.5494 61.1491 47.8063 60.8326 48.1609 60.6072C48.5155 60.3786 48.9414 60.2642 49.4386 60.2642C49.9424 60.2642 50.3617 60.3786 50.6964 60.6072C51.0345 60.8326 51.298 61.1491 51.4869 61.5568H51.5664C51.762 61.1624 52.0553 60.8492 52.4464 60.6172C52.8375 60.3819 53.3065 60.2642 53.8534 60.2642C54.5361 60.2642 55.0946 60.478 55.5288 60.9055C55.963 61.3298 56.1801 61.991 56.1801 62.8892V68H55.0068V62.8892C55.0068 62.3258 54.8527 61.9231 54.5444 61.6811C54.2362 61.4392 53.8733 61.3182 53.4556 61.3182C52.9187 61.3182 52.5028 61.4806 52.2078 61.8054C51.9128 62.1269 51.7653 62.5346 51.7653 63.0284V68H50.5721V62.7699C50.5721 62.3357 50.4313 61.986 50.1495 61.7209C49.8678 61.4524 49.5049 61.3182 49.0608 61.3182C48.7558 61.3182 48.4708 61.3994 48.2056 61.5618C47.9438 61.7242 47.7317 61.9496 47.5693 62.2379C47.4102 62.523 47.3306 62.8527 47.3306 63.2273V68H46.1573ZM61.627 68.1591C60.8912 68.1591 60.2565 67.9967 59.7229 67.6719C59.1926 67.3438 58.7833 66.8864 58.4949 66.2997C58.2099 65.7098 58.0674 65.0237 58.0674 64.2415C58.0674 63.4593 58.2099 62.7699 58.4949 62.1733C58.7833 61.5734 59.1843 61.1061 59.698 60.7713C60.2151 60.4332 60.8183 60.2642 61.5077 60.2642C61.9054 60.2642 62.2982 60.3305 62.686 60.4631C63.0738 60.5956 63.4267 60.8111 63.7449 61.1094C64.0631 61.4044 64.3167 61.7955 64.5056 62.2827C64.6945 62.7699 64.789 63.3698 64.789 64.0824V64.5795H58.9026V63.5653H63.5958C63.5958 63.1345 63.5096 62.75 63.3372 62.4119C63.1682 62.0739 62.9263 61.8071 62.6114 61.6115C62.2998 61.416 61.9319 61.3182 61.5077 61.3182C61.0404 61.3182 60.636 61.4342 60.2946 61.6662C59.9566 61.8949 59.6964 62.1932 59.5141 62.5611C59.3318 62.929 59.2407 63.3234 59.2407 63.7443V64.4205C59.2407 64.9972 59.3401 65.486 59.539 65.8871C59.7411 66.2848 60.0212 66.5881 60.3792 66.7969C60.7371 67.0024 61.1531 67.1051 61.627 67.1051C61.9353 67.1051 62.2137 67.062 62.4622 66.9759C62.7141 66.8864 62.9312 66.7538 63.1135 66.5781C63.2958 66.3991 63.4367 66.1771 63.5361 65.9119L64.6696 66.2301C64.5503 66.6146 64.3498 66.9527 64.0681 67.2443C63.7863 67.5327 63.4383 67.758 63.024 67.9205C62.6097 68.0795 62.1441 68.1591 61.627 68.1591ZM66.6738 68V60.3636H67.8073V61.5568H67.9067C68.0658 61.1491 68.3227 60.8326 68.6773 60.6072C69.0319 60.3786 69.4578 60.2642 69.955 60.2642C70.4588 60.2642 70.8781 60.3786 71.2128 60.6072C71.5509 60.8326 71.8144 61.1491 72.0033 61.5568H72.0828C72.2784 61.1624 72.5717 60.8492 72.9628 60.6172C73.3539 60.3819 73.8229 60.2642 74.3698 60.2642C75.0525 60.2642 75.611 60.478 76.0452 60.9055C76.4794 61.3298 76.6965 61.991 76.6965 62.8892V68H75.5232V62.8892C75.5232 62.3258 75.3691 61.9231 75.0608 61.6811C74.7526 61.4392 74.3897 61.3182 73.9721 61.3182C73.4351 61.3182 73.0192 61.4806 72.7242 61.8054C72.4292 62.1269 72.2817 62.5346 72.2817 63.0284V68H71.0885V62.7699C71.0885 62.3357 70.9477 61.986 70.6659 61.7209C70.3842 61.4524 70.0213 61.3182 69.5772 61.3182C69.2722 61.3182 68.9872 61.3994 68.7221 61.5618C68.4602 61.7242 68.2481 61.9496 68.0857 62.2379C67.9266 62.523 67.8471 62.8527 67.8471 63.2273V68H66.6738Z" fill="#44444F"/>
</g>
<path d="M16.19 27.1C16.19 26.1387 16.4047 25.28 16.834 24.524C17.2727 23.7587 17.8653 23.166 18.612 22.746C19.368 22.3167 20.2127 22.102 21.146 22.102C22.238 22.102 23.1947 22.382 24.016 22.942C24.8373 23.502 25.4113 24.2767 25.738 25.266H23.484C23.26 24.7993 22.9427 24.4493 22.532 24.216C22.1307 23.9827 21.664 23.866 21.132 23.866C20.5627 23.866 20.054 24.0013 19.606 24.272C19.1673 24.5333 18.822 24.9067 18.57 25.392C18.3273 25.8773 18.206 26.4467 18.206 27.1C18.206 27.744 18.3273 28.3133 18.57 28.808C18.822 29.2933 19.1673 29.6713 19.606 29.942C20.054 30.2033 20.5627 30.334 21.132 30.334C21.664 30.334 22.1307 30.2173 22.532 29.984C22.9427 29.7413 23.26 29.3867 23.484 28.92H25.738C25.4113 29.9187 24.8373 30.698 24.016 31.258C23.204 31.8087 22.2473 32.084 21.146 32.084C20.2127 32.084 19.368 31.874 18.612 31.454C17.8653 31.0247 17.2727 30.432 16.834 29.676C16.4047 28.92 16.19 28.0613 16.19 27.1ZM32.5521 32L30.3961 28.192H29.4721V32H27.5121V22.228H31.1801C31.9361 22.228 32.5801 22.3633 33.1121 22.634C33.6441 22.8953 34.0408 23.2547 34.3021 23.712C34.5728 24.16 34.7081 24.664 34.7081 25.224C34.7081 25.868 34.5214 26.4513 34.1481 26.974C33.7748 27.4873 33.2194 27.842 32.4821 28.038L34.8201 32H32.5521ZM29.4721 26.722H31.1101C31.6421 26.722 32.0388 26.596 32.3001 26.344C32.5614 26.0827 32.6921 25.7233 32.6921 25.266C32.6921 24.818 32.5614 24.4727 32.3001 24.23C32.0388 23.978 31.6421 23.852 31.1101 23.852H29.4721V26.722ZM38.5409 23.81V26.26H41.8309V27.814H38.5409V30.404H42.2509V32H36.5809V22.214H42.2509V23.81H38.5409ZM47.506 32.098C46.8247 32.098 46.2087 31.9813 45.658 31.748C45.1167 31.5147 44.6874 31.1787 44.37 30.74C44.0527 30.3013 43.8894 29.7833 43.88 29.186H45.98C46.008 29.5873 46.148 29.9047 46.4 30.138C46.6614 30.3713 47.016 30.488 47.464 30.488C47.9214 30.488 48.2807 30.3807 48.542 30.166C48.8034 29.942 48.934 29.6527 48.934 29.298C48.934 29.0087 48.8454 28.7707 48.668 28.584C48.4907 28.3973 48.2667 28.2527 47.996 28.15C47.7347 28.038 47.3707 27.9167 46.904 27.786C46.2694 27.5993 45.7514 27.4173 45.35 27.24C44.958 27.0533 44.6174 26.778 44.328 26.414C44.048 26.0407 43.908 25.546 43.908 24.93C43.908 24.3513 44.0527 23.8473 44.342 23.418C44.6314 22.9887 45.0374 22.662 45.56 22.438C46.0827 22.2047 46.68 22.088 47.352 22.088C48.36 22.088 49.1767 22.3353 49.802 22.83C50.4367 23.3153 50.7867 23.9967 50.852 24.874H48.696C48.6774 24.538 48.5327 24.2627 48.262 24.048C48.0007 23.824 47.6507 23.712 47.212 23.712C46.8294 23.712 46.5214 23.81 46.288 24.006C46.064 24.202 45.952 24.4867 45.952 24.86C45.952 25.1213 46.036 25.3407 46.204 25.518C46.3814 25.686 46.596 25.826 46.848 25.938C47.1094 26.0407 47.4734 26.162 47.94 26.302C48.5747 26.4887 49.0927 26.6753 49.494 26.862C49.8954 27.0487 50.2407 27.3287 50.53 27.702C50.8194 28.0753 50.964 28.5653 50.964 29.172C50.964 29.6947 50.8287 30.18 50.558 30.628C50.2874 31.076 49.8907 31.4353 49.368 31.706C48.8454 31.9673 48.2247 32.098 47.506 32.098ZM52.2873 27.1C52.2873 26.1387 52.5019 25.28 52.9313 24.524C53.3699 23.7587 53.9626 23.166 54.7093 22.746C55.4653 22.3167 56.3099 22.102 57.2433 22.102C58.3353 22.102 59.2919 22.382 60.1133 22.942C60.9346 23.502 61.5086 24.2767 61.8353 25.266H59.5813C59.3573 24.7993 59.0399 24.4493 58.6293 24.216C58.2279 23.9827 57.7613 23.866 57.2293 23.866C56.6599 23.866 56.1513 24.0013 55.7033 24.272C55.2646 24.5333 54.9193 24.9067 54.6673 25.392C54.4246 25.8773 54.3033 26.4467 54.3033 27.1C54.3033 27.744 54.4246 28.3133 54.6673 28.808C54.9193 29.2933 55.2646 29.6713 55.7033 29.942C56.1513 30.2033 56.6599 30.334 57.2293 30.334C57.7613 30.334 58.2279 30.2173 58.6293 29.984C59.0399 29.7413 59.3573 29.3867 59.5813 28.92H61.8353C61.5086 29.9187 60.9346 30.698 60.1133 31.258C59.3013 31.8087 58.3446 32.084 57.2433 32.084C56.3099 32.084 55.4653 31.874 54.7093 31.454C53.9626 31.0247 53.3699 30.432 52.9313 29.676C52.5019 28.92 52.2873 28.0613 52.2873 27.1ZM65.5694 22.228V32H63.6094V22.228H65.5694ZM78.2599 22.228V32H76.2999V25.644L73.6819 32H72.1979L69.5659 25.644V32H67.6059V22.228H69.8319L72.9399 29.494L76.0479 22.228H78.2599ZM82.2577 23.81V26.26H85.5477V27.814H82.2577V30.404H85.9677V32H80.2977V22.214H85.9677V23.81H82.2577ZM96.2068 32H94.2468L89.8088 25.294V32H87.8488V22.214H89.8088L94.2468 28.934V22.214H96.2068V32ZM104.894 22.228V23.81H102.29V32H100.33V23.81H97.7257V22.228H104.894ZM110.96 32.098C110.045 32.098 109.205 31.8833 108.44 31.454C107.674 31.0247 107.068 30.432 106.62 29.676C106.172 28.9107 105.948 28.0473 105.948 27.086C105.948 26.134 106.172 25.28 106.62 24.524C107.068 23.7587 107.674 23.1613 108.44 22.732C109.205 22.3027 110.045 22.088 110.96 22.088C111.884 22.088 112.724 22.3027 113.48 22.732C114.245 23.1613 114.847 23.7587 115.286 24.524C115.734 25.28 115.958 26.134 115.958 27.086C115.958 28.0473 115.734 28.9107 115.286 29.676C114.847 30.432 114.245 31.0247 113.48 31.454C112.714 31.8833 111.874 32.098 110.96 32.098ZM110.96 30.348C111.548 30.348 112.066 30.2173 112.514 29.956C112.962 29.6853 113.312 29.3027 113.564 28.808C113.816 28.3133 113.942 27.7393 113.942 27.086C113.942 26.4327 113.816 25.8633 113.564 25.378C113.312 24.8833 112.962 24.5053 112.514 24.244C112.066 23.9827 111.548 23.852 110.96 23.852C110.372 23.852 109.849 23.9827 109.392 24.244C108.944 24.5053 108.594 24.8833 108.342 25.378C108.09 25.8633 107.964 26.4327 107.964 27.086C107.964 27.7393 108.09 28.3133 108.342 28.808C108.594 29.3027 108.944 29.6853 109.392 29.956C109.849 30.2173 110.372 30.348 110.96 30.348ZM120.476 27.1C120.476 26.1387 120.691 25.28 121.12 24.524C121.559 23.7587 122.151 23.166 122.898 22.746C123.654 22.3167 124.499 22.102 125.432 22.102C126.524 22.102 127.481 22.382 128.302 22.942C129.123 23.502 129.697 24.2767 130.024 25.266H127.77C127.546 24.7993 127.229 24.4493 126.818 24.216C126.417 23.9827 125.95 23.866 125.418 23.866C124.849 23.866 124.34 24.0013 123.892 24.272C123.453 24.5333 123.108 24.9067 122.856 25.392C122.613 25.8773 122.492 26.4467 122.492 27.1C122.492 27.744 122.613 28.3133 122.856 28.808C123.108 29.2933 123.453 29.6713 123.892 29.942C124.34 30.2033 124.849 30.334 125.418 30.334C125.95 30.334 126.417 30.2173 126.818 29.984C127.229 29.7413 127.546 29.3867 127.77 28.92H130.024C129.697 29.9187 129.123 30.698 128.302 31.258C127.49 31.8087 126.533 32.084 125.432 32.084C124.499 32.084 123.654 31.874 122.898 31.454C122.151 31.0247 121.559 30.432 121.12 29.676C120.691 28.92 120.476 28.0613 120.476 27.1ZM133.758 30.446H136.978V32H131.798V22.228H133.758V30.446ZM140.284 22.228V32H138.324V22.228H140.284ZM144.28 23.81V26.26H147.57V27.814H144.28V30.404H147.99V32H142.32V22.214H147.99V23.81H144.28ZM158.229 32H156.269L151.831 25.294V32H149.871V22.214H151.831L156.269 28.934V22.214H158.229V32ZM166.916 22.228V23.81H164.312V32H162.352V23.81H159.748V22.228H166.916ZM170.406 23.81V26.26H173.696V27.814H170.406V30.404H174.116V32H168.446V22.214H174.116V23.81H170.406ZM179.372 32.098C178.69 32.098 178.074 31.9813 177.524 31.748C176.982 31.5147 176.553 31.1787 176.236 30.74C175.918 30.3013 175.755 29.7833 175.746 29.186H177.846C177.874 29.5873 178.014 29.9047 178.266 30.138C178.527 30.3713 178.882 30.488 179.33 30.488C179.787 30.488 180.146 30.3807 180.408 30.166C180.669 29.942 180.8 29.6527 180.8 29.298C180.8 29.0087 180.711 28.7707 180.534 28.584C180.356 28.3973 180.132 28.2527 179.862 28.15C179.6 28.038 179.236 27.9167 178.77 27.786C178.135 27.5993 177.617 27.4173 177.216 27.24C176.824 27.0533 176.483 26.778 176.194 26.414C175.914 26.0407 175.774 25.546 175.774 24.93C175.774 24.3513 175.918 23.8473 176.208 23.418C176.497 22.9887 176.903 22.662 177.426 22.438C177.948 22.2047 178.546 22.088 179.218 22.088C180.226 22.088 181.042 22.3353 181.668 22.83C182.302 23.3153 182.652 23.9967 182.718 24.874H180.562C180.543 24.538 180.398 24.2627 180.128 24.048C179.866 23.824 179.516 23.712 179.078 23.712C178.695 23.712 178.387 23.81 178.154 24.006C177.93 24.202 177.818 24.4867 177.818 24.86C177.818 25.1213 177.902 25.3407 178.07 25.518C178.247 25.686 178.462 25.826 178.714 25.938C178.975 26.0407 179.339 26.162 179.806 26.302C180.44 26.4887 180.958 26.6753 181.36 26.862C181.761 27.0487 182.106 27.3287 182.396 27.702C182.685 28.0753 182.83 28.5653 182.83 29.172C182.83 29.6947 182.694 30.18 182.424 30.628C182.153 31.076 181.756 31.4353 181.234 31.706C180.711 31.9673 180.09 32.098 179.372 32.098Z" fill="#171725"/>
<defs>
<clipPath id="clip0_35_1029">
<rect width="302.727" height="14" fill="white" transform="translate(21.1906 249)"/>
</clipPath>
<clipPath id="clip1_35_1029">
<rect width="317.918" height="14" fill="white" transform="translate(6 212)"/>
</clipPath>
<clipPath id="clip2_35_1029">
<rect width="317.918" height="14" fill="white" transform="translate(6 175)"/>
</clipPath>
<clipPath id="clip3_35_1029">
<rect width="317.918" height="14" fill="white" transform="translate(6 138)"/>
</clipPath>
<clipPath id="clip4_35_1029">
<rect width="317.918" height="14" fill="white" transform="translate(6 101)"/>
</clipPath>
<clipPath id="clip5_35_1029">
<rect width="24.4891" height="24" fill="white" transform="translate(184.726 267)"/>
</clipPath>
<clipPath id="clip6_35_1029">
<rect width="26.6186" height="24" fill="white" transform="translate(139.108 267)"/>
</clipPath>
<clipPath id="clip7_35_1029">
<rect width="25.5539" height="24" fill="white" transform="translate(94.5538 267)"/>
</clipPath>
<clipPath id="clip8_35_1029">
<rect width="25.5539" height="24" fill="white" transform="translate(275.964 267)"/>
</clipPath>
<clipPath id="clip9_35_1029">
<rect width="25.5539" height="24" fill="white" transform="translate(50 267)"/>
</clipPath>
<clipPath id="clip10_35_1029">
<rect width="119.32" height="24" fill="white" transform="translate(175.84 51)"/>
</clipPath>
<clipPath id="clip11_35_1029">
<rect width="64.8933" height="24" fill="white" transform="translate(94.2 51)"/>
</clipPath>
<clipPath id="clip12_35_1029">
<rect width="78.5" height="24" fill="white" transform="translate(15.7 51)"/>
</clipPath>
</defs>
</svg>
