<svg width="300" height="67" viewBox="0 0 300 67" fill="none" xmlns="http://www.w3.org/2000/svg">
<rect x="1" y="1" width="298" height="65" rx="19" fill="white" stroke="#E9E6F7" stroke-width="2"/>
<mask id="mask0_35_360" style="mask-type:luminance" maskUnits="userSpaceOnUse" x="0" y="0" width="300" height="67">
<rect width="300" height="67" rx="20" fill="white"/>
</mask>
<g mask="url(#mask0_35_360)">
<path opacity="0.1" fill-rule="evenodd" clip-rule="evenodd" d="M33 52C42.9411 52 51 43.9411 51 34C51 24.0589 42.9411 16 33 16C23.0589 16 15 24.0589 15 34C15 43.9411 23.0589 52 33 52Z" stroke="#0062FF" stroke-width="1.54286"/>
<path fill-rule="evenodd" clip-rule="evenodd" d="M38.1515 29.7681C39.0983 30.9192 39.6667 32.3932 39.6667 34C39.6667 37.6819 36.6819 40.6667 33 40.6667C29.3181 40.6667 26.3333 37.6819 26.3333 34C26.3333 30.3181 29.3181 27.3333 33 27.3333C34.5949 27.3333 36.0591 27.8934 37.2064 28.8276L37.5736 28.4604L37.7482 27.5308C37.8161 27.169 38.1645 26.9307 38.5264 26.9986C38.8883 27.0666 39.1265 27.415 39.0586 27.7769L39.0206 27.9795L39.2232 27.9414C39.585 27.8735 39.9335 28.1118 40.0014 28.4736C40.0693 28.8355 39.8311 29.1839 39.4692 29.2519L38.4826 29.4371L38.1515 29.7681ZM36.2574 29.7767C35.3564 29.0807 34.2266 28.6667 33 28.6667C30.0545 28.6667 27.6667 31.0545 27.6667 34C27.6667 36.9455 30.0545 39.3333 33 39.3333C35.9455 39.3333 38.3333 36.9455 38.3333 34C38.3333 32.7616 37.9113 31.6218 37.2031 30.7166L36.2509 31.6688C36.7224 32.3252 37 33.1302 37 34C37 36.2091 35.2091 38 33 38C30.7909 38 29 36.2091 29 34C29 31.7909 30.7909 30 33 30C33.8579 30 34.6528 30.2701 35.3042 30.7299L36.2574 29.7767ZM34.3401 31.694C33.9463 31.4647 33.4885 31.3333 33 31.3333C31.5273 31.3333 30.3333 32.5272 30.3333 34C30.3333 35.4728 31.5273 36.6667 33 36.6667C34.4728 36.6667 35.6667 35.4728 35.6667 34C35.6667 33.4994 35.5288 33.0311 35.2888 32.6308L34.2832 33.6365C34.3159 33.752 34.3333 33.874 34.3333 34C34.3333 34.7364 33.7364 35.3333 33 35.3333C32.2636 35.3333 31.6667 34.7364 31.6667 34C31.6667 33.2636 32.2636 32.6667 33 32.6667C33.1128 32.6667 33.2224 32.6807 33.327 32.7071L34.3401 31.694Z" fill="#0062FF"/>
<path d="M15 34C15 43.9411 23.0589 52 33 52V52C42.9411 52 51 43.9411 51 34C51 24.0589 42.9411 16 33 16" stroke="#0062FF" stroke-width="1.54286" stroke-linecap="round" stroke-linejoin="round"/>
<path d="M60.6335 30.1392C60.1463 30.1359 59.6707 30.0514 59.2067 29.8857C58.7427 29.7166 58.325 29.4432 57.9538 29.0653C57.5826 28.6842 57.2876 28.1787 57.0689 27.549C56.8501 26.916 56.7424 26.1321 56.7457 25.1974C56.7457 24.3258 56.8385 23.5485 57.0241 22.8658C57.2098 22.183 57.4766 21.6063 57.8246 21.1357C58.1726 20.6617 58.5919 20.3004 59.0824 20.0518C59.5762 19.8033 60.1281 19.679 60.7379 19.679C61.3776 19.679 61.9444 19.8049 62.4382 20.0568C62.9354 20.3087 63.3364 20.6534 63.6413 21.0909C63.9463 21.5251 64.1352 22.0156 64.2081 22.5625H62.3935C62.3007 22.1714 62.1101 21.8598 61.8217 21.6278C61.5367 21.3925 61.1754 21.2749 60.7379 21.2749C60.032 21.2749 59.4884 21.5814 59.1072 22.1946C58.7294 22.8078 58.5388 23.6496 58.5355 24.7202H58.6051C58.7675 24.4285 58.978 24.1783 59.2365 23.9695C59.495 23.7607 59.7867 23.5999 60.1115 23.4872C60.4396 23.3712 60.786 23.3132 61.1506 23.3132C61.7472 23.3132 62.2824 23.4557 62.7564 23.7408C63.2337 24.0258 63.6115 24.4186 63.8899 24.919C64.1683 25.4162 64.3059 25.9863 64.3026 26.6293C64.3059 27.2988 64.1534 27.9003 63.8452 28.4339C63.5369 28.9643 63.1077 29.3819 62.5575 29.6868C62.0073 29.9917 61.366 30.1425 60.6335 30.1392ZM60.6236 28.6477C60.9848 28.6477 61.308 28.5599 61.593 28.3842C61.8781 28.2086 62.1035 27.9716 62.2692 27.6733C62.4349 27.375 62.5161 27.0402 62.5128 26.669C62.5161 26.3045 62.4366 25.9747 62.2741 25.6797C62.1151 25.3847 61.8946 25.151 61.6129 24.9787C61.3312 24.8063 61.0097 24.7202 60.6484 24.7202C60.38 24.7202 60.1297 24.7715 59.8977 24.8743C59.6657 24.977 59.4635 25.1196 59.2912 25.3018C59.1188 25.4808 58.983 25.6896 58.8835 25.9283C58.7874 26.1636 58.7377 26.4155 58.7344 26.6839C58.7377 27.0386 58.8205 27.3651 58.983 27.6634C59.1454 27.9616 59.3691 28.2003 59.6541 28.3793C59.9392 28.5582 60.2623 28.6477 60.6236 28.6477ZM69.7023 30.1392C68.9632 30.1392 68.3069 30.0149 67.7335 29.7663C67.1634 29.5178 66.716 29.178 66.3912 28.7472C66.0697 28.313 65.9106 27.8208 65.9139 27.2706C65.9106 26.843 66.0034 26.4503 66.1923 26.0923C66.3813 25.7344 66.6365 25.4361 66.958 25.1974C67.2828 24.9555 67.644 24.8014 68.0418 24.7351V24.6655C67.5181 24.5495 67.0938 24.2827 66.769 23.8651C66.4475 23.4441 66.2884 22.9586 66.2918 22.4084C66.2884 21.8847 66.4343 21.4174 66.7293 21.0064C67.0242 20.5954 67.4286 20.2723 67.9423 20.0369C68.4561 19.7983 69.0427 19.679 69.7023 19.679C70.3552 19.679 70.9369 19.7983 71.4473 20.0369C71.961 20.2723 72.3654 20.5954 72.6604 21.0064C72.9587 21.4174 73.1078 21.8847 73.1078 22.4084C73.1078 22.9586 72.9438 23.4441 72.6156 23.8651C72.2908 24.2827 71.8715 24.5495 71.3578 24.6655V24.7351C71.7555 24.8014 72.1135 24.9555 72.4317 25.1974C72.7532 25.4361 73.0084 25.7344 73.1973 26.0923C73.3895 26.4503 73.4857 26.843 73.4857 27.2706C73.4857 27.8208 73.3232 28.313 72.9984 28.7472C72.6736 29.178 72.2262 29.5178 71.6561 29.7663C71.0893 30.0149 70.4381 30.1392 69.7023 30.1392ZM69.7023 28.7173C70.0834 28.7173 70.4149 28.6527 70.6966 28.5234C70.9783 28.3909 71.1971 28.2053 71.3528 27.9666C71.5086 27.728 71.5882 27.4529 71.5915 27.1413C71.5882 26.8165 71.5036 26.5298 71.3379 26.2812C71.1755 26.0294 70.9518 25.8321 70.6668 25.6896C70.385 25.5471 70.0635 25.4759 69.7023 25.4759C69.3377 25.4759 69.0129 25.5471 68.7278 25.6896C68.4428 25.8321 68.2174 26.0294 68.0517 26.2812C67.8893 26.5298 67.8098 26.8165 67.8131 27.1413C67.8098 27.4529 67.886 27.728 68.0418 27.9666C68.1975 28.2019 68.4163 28.3859 68.698 28.5185C68.983 28.651 69.3178 28.7173 69.7023 28.7173ZM69.7023 24.0788C70.0138 24.0788 70.2889 24.0159 70.5276 23.8899C70.7695 23.764 70.9601 23.5883 71.0993 23.3629C71.2385 23.1375 71.3098 22.8774 71.3131 22.5824C71.3098 22.2907 71.2402 22.0355 71.1043 21.8168C70.9684 21.5947 70.7795 21.424 70.5375 21.3047C70.2955 21.1821 70.0171 21.1207 69.7023 21.1207C69.3808 21.1207 69.0974 21.1821 68.8521 21.3047C68.6102 21.424 68.4213 21.5947 68.2854 21.8168C68.1528 22.0355 68.0882 22.2907 68.0915 22.5824C68.0882 22.8774 68.1545 23.1375 68.2903 23.3629C68.4295 23.585 68.6201 23.7607 68.8621 23.8899C69.1073 24.0159 69.3874 24.0788 69.7023 24.0788ZM80.664 28.0909V27.554C80.664 27.1596 80.7468 26.7966 80.9125 26.4652C81.0816 26.1338 81.3268 25.867 81.6483 25.6648C81.9698 25.4626 82.3593 25.3615 82.8167 25.3615C83.2873 25.3615 83.6817 25.4626 83.9999 25.6648C84.3181 25.8636 84.5584 26.1288 84.7208 26.4602C84.8865 26.7917 84.9694 27.1562 84.9694 27.554V28.0909C84.9694 28.4853 84.8865 28.8482 84.7208 29.1797C84.5551 29.5111 84.3114 29.7779 83.99 29.9801C83.6718 30.1823 83.2807 30.2834 82.8167 30.2834C82.3526 30.2834 81.9599 30.1823 81.6384 29.9801C81.3169 29.7779 81.0733 29.5111 80.9076 29.1797C80.7452 28.8482 80.664 28.4853 80.664 28.0909ZM81.9615 27.554V28.0909C81.9615 28.3527 82.0245 28.593 82.1505 28.8118C82.2764 29.0305 82.4985 29.1399 82.8167 29.1399C83.1382 29.1399 83.3586 29.0322 83.4779 28.8168C83.6005 28.598 83.6618 28.3561 83.6618 28.0909V27.554C83.6618 27.2888 83.6038 27.0469 83.4878 26.8281C83.3718 26.6061 83.1481 26.495 82.8167 26.495C82.5051 26.495 82.2847 26.6061 82.1554 26.8281C82.0262 27.0469 81.9615 27.2888 81.9615 27.554ZM75.4885 22.2642V21.7273C75.4885 21.3295 75.573 20.965 75.7421 20.6335C75.9111 20.3021 76.1564 20.0369 76.4779 19.8381C76.7994 19.6359 77.1888 19.5348 77.6462 19.5348C78.1135 19.5348 78.5063 19.6359 78.8245 19.8381C79.146 20.0369 79.3879 20.3021 79.5503 20.6335C79.7127 20.965 79.7939 21.3295 79.7939 21.7273V22.2642C79.7939 22.6619 79.7111 23.0265 79.5453 23.358C79.3829 23.6861 79.141 23.9496 78.8195 24.1484C78.498 24.3473 78.1069 24.4467 77.6462 24.4467C77.1789 24.4467 76.7845 24.3473 76.463 24.1484C76.1448 23.9496 75.9028 23.6844 75.7371 23.353C75.5714 23.0215 75.4885 22.6586 75.4885 22.2642ZM76.7961 21.7273V22.2642C76.7961 22.5294 76.8574 22.7713 76.98 22.9901C77.106 23.2055 77.328 23.3132 77.6462 23.3132C77.9644 23.3132 78.1831 23.2055 78.3025 22.9901C78.4251 22.7713 78.4864 22.5294 78.4864 22.2642V21.7273C78.4864 21.4621 78.4284 21.2202 78.3124 21.0014C78.1964 20.7794 77.9743 20.6683 77.6462 20.6683C77.3313 20.6683 77.1109 20.7794 76.985 21.0014C76.859 21.2235 76.7961 21.4654 76.7961 21.7273ZM76.0553 30L83.0553 19.8182H84.2982L77.2982 30H76.0553Z" fill="#171725"/>
<path d="M56.9688 50V42H57.9375V45.5625H62.2031V42H63.1719V50H62.2031V46.4219H57.9375V50H56.9688ZM65.0649 50V44H65.9868V50H65.0649ZM65.5336 43C65.354 43 65.199 42.9388 65.0688 42.8164C64.9412 42.694 64.8774 42.5469 64.8774 42.375C64.8774 42.2031 64.9412 42.056 65.0688 41.9336C65.199 41.8112 65.354 41.75 65.5336 41.75C65.7133 41.75 65.867 41.8112 65.9946 41.9336C66.1248 42.056 66.1899 42.2031 66.1899 42.375C66.1899 42.5469 66.1248 42.694 65.9946 42.8164C65.867 42.9388 65.7133 43 65.5336 43ZM70.3632 44V44.7812H67.2538V44H70.3632ZM68.1601 42.5625H69.0819V48.2812C69.0819 48.5417 69.1197 48.737 69.1952 48.8672C69.2734 48.9948 69.3723 49.0807 69.4921 49.125C69.6145 49.1667 69.7434 49.1875 69.8788 49.1875C69.9804 49.1875 70.0637 49.1823 70.1288 49.1719C70.1939 49.1589 70.246 49.1484 70.2851 49.1406L70.4726 49.9687C70.4101 49.9922 70.3228 50.0156 70.2109 50.0391C70.0989 50.0651 69.9569 50.0781 69.7851 50.0781C69.5247 50.0781 69.2694 50.0221 69.0194 49.9102C68.7721 49.7982 68.5663 49.6276 68.4023 49.3984C68.2408 49.1693 68.1601 48.8802 68.1601 48.5312V42.5625ZM75.1258 50V42H77.8289C78.4539 42 78.967 42.1068 79.368 42.3203C79.769 42.5312 80.0659 42.8216 80.2586 43.1914C80.4513 43.5612 80.5477 43.9818 80.5477 44.4531C80.5477 44.9245 80.4513 45.3424 80.2586 45.707C80.0659 46.0716 79.7703 46.3581 79.3719 46.5664C78.9735 46.7721 78.4644 46.875 77.8446 46.875H75.6571V46H77.8133C78.2404 46 78.5841 45.9375 78.8446 45.8125C79.1076 45.6875 79.2977 45.5104 79.4149 45.2812C79.5347 45.0495 79.5946 44.7734 79.5946 44.4531C79.5946 44.1328 79.5347 43.8529 79.4149 43.6133C79.2951 43.3737 79.1037 43.1888 78.8407 43.0586C78.5776 42.9258 78.23 42.8594 77.7977 42.8594H76.0946V50H75.1258ZM78.8914 46.4062L80.8602 50H79.7352L77.7977 46.4062H78.8914ZM83.8811 50.1406C83.5009 50.1406 83.1559 50.069 82.846 49.9258C82.5361 49.7799 82.29 49.5703 82.1077 49.2969C81.9254 49.0208 81.8343 48.6875 81.8343 48.2969C81.8343 47.9531 81.902 47.6745 82.0374 47.4609C82.1728 47.2448 82.3538 47.0755 82.5804 46.9531C82.8069 46.8307 83.0569 46.7396 83.3304 46.6797C83.6064 46.6172 83.8837 46.5677 84.1624 46.5313C84.527 46.4844 84.8225 46.4492 85.0491 46.4258C85.2783 46.3997 85.4449 46.3568 85.5491 46.2969C85.6559 46.237 85.7093 46.1328 85.7093 45.9844V45.9531C85.7093 45.5677 85.6038 45.2682 85.3929 45.0547C85.1845 44.8411 84.8681 44.7344 84.4436 44.7344C84.0035 44.7344 83.6585 44.8307 83.4085 45.0234C83.1585 45.2161 82.9827 45.4219 82.8811 45.6406L82.0061 45.3281C82.1624 44.9635 82.3707 44.6797 82.6311 44.4766C82.8942 44.2708 83.1806 44.1276 83.4905 44.0469C83.803 43.9635 84.1103 43.9219 84.4124 43.9219C84.6051 43.9219 84.8265 43.9453 85.0765 43.9922C85.3291 44.0365 85.5725 44.1289 85.8069 44.2695C86.0439 44.4102 86.2405 44.6224 86.3968 44.9062C86.553 45.1901 86.6311 45.5703 86.6311 46.0469V50H85.7093V49.1875H85.6624C85.5999 49.3177 85.4957 49.457 85.3499 49.6055C85.2041 49.7539 85.01 49.8802 84.7679 49.9844C84.5257 50.0885 84.2301 50.1406 83.8811 50.1406ZM84.0218 49.3125C84.3863 49.3125 84.6936 49.2409 84.9436 49.0977C85.1962 48.9544 85.3863 48.7695 85.514 48.543C85.6442 48.3164 85.7093 48.0781 85.7093 47.8281V46.9844C85.6702 47.0312 85.5843 47.0742 85.4515 47.1133C85.3212 47.1497 85.1702 47.1823 84.9983 47.2109C84.8291 47.237 84.6637 47.2604 84.5022 47.2812C84.3434 47.2995 84.2145 47.3151 84.1155 47.3281C83.8759 47.3594 83.652 47.4102 83.4436 47.4805C83.2379 47.5482 83.0712 47.651 82.9436 47.7891C82.8186 47.9245 82.7561 48.1094 82.7561 48.3437C82.7561 48.6641 82.8746 48.9062 83.1116 49.0703C83.3512 49.2318 83.6546 49.3125 84.0218 49.3125ZM91.0017 44V44.7812H87.8923V44H91.0017ZM88.7986 42.5625H89.7205V48.2812C89.7205 48.5417 89.7582 48.737 89.8337 48.8672C89.9119 48.9948 90.0108 49.0807 90.1306 49.125C90.253 49.1667 90.3819 49.1875 90.5173 49.1875C90.6189 49.1875 90.7022 49.1823 90.7673 49.1719C90.8324 49.1589 90.8845 49.1484 90.9236 49.1406L91.1111 49.9687C91.0486 49.9922 90.9613 50.0156 90.8494 50.0391C90.7374 50.0651 90.5955 50.0781 90.4236 50.0781C90.1632 50.0781 89.908 50.0221 89.658 49.9102C89.4106 49.7982 89.2048 49.6276 89.0408 49.3984C88.8793 49.1693 88.7986 48.8802 88.7986 48.5312V42.5625ZM94.9182 50.125C94.34 50.125 93.8413 49.9974 93.4221 49.7422C93.0054 49.4844 92.6838 49.125 92.4572 48.6641C92.2333 48.2005 92.1213 47.6615 92.1213 47.0469C92.1213 46.4323 92.2333 45.8906 92.4572 45.4219C92.6838 44.9505 92.9989 44.5833 93.4025 44.3203C93.8088 44.0547 94.2827 43.9219 94.8244 43.9219C95.1369 43.9219 95.4455 43.974 95.7502 44.0781C96.0549 44.1823 96.3322 44.3516 96.5822 44.5859C96.8322 44.8177 97.0314 45.125 97.1799 45.5078C97.3283 45.8906 97.4025 46.362 97.4025 46.9219V47.3125H92.7775V46.5156H96.465C96.465 46.1771 96.3973 45.875 96.2619 45.6094C96.1291 45.3437 95.939 45.1341 95.6916 44.9805C95.4468 44.8268 95.1577 44.75 94.8244 44.75C94.4572 44.75 94.1395 44.8411 93.8713 45.0234C93.6057 45.2031 93.4012 45.4375 93.258 45.7266C93.1148 46.0156 93.0432 46.3255 93.0432 46.6562V47.1875C93.0432 47.6406 93.1213 48.0247 93.2775 48.3398C93.4364 48.6523 93.6564 48.8906 93.9377 49.0547C94.2189 49.2161 94.5458 49.2969 94.9182 49.2969C95.1604 49.2969 95.3791 49.263 95.5744 49.1953C95.7723 49.125 95.9429 49.0208 96.0861 48.8828C96.2294 48.7422 96.34 48.5677 96.4182 48.3594L97.3088 48.6094C97.215 48.9115 97.0575 49.1771 96.8361 49.4062C96.6148 49.6328 96.3413 49.8099 96.0158 49.9375C95.6903 50.0625 95.3244 50.125 94.9182 50.125ZM104.571 50.125C103.993 50.125 103.495 49.9974 103.075 49.7422C102.659 49.4844 102.337 49.125 102.11 48.6641C101.887 48.2005 101.775 47.6615 101.775 47.0469C101.775 46.4323 101.887 45.8906 102.11 45.4219C102.337 44.9505 102.652 44.5833 103.056 44.3203C103.462 44.0547 103.936 43.9219 104.478 43.9219C104.79 43.9219 105.099 43.974 105.403 44.0781C105.708 44.1823 105.985 44.3516 106.235 44.5859C106.485 44.8177 106.685 45.125 106.833 45.5078C106.982 45.8906 107.056 46.362 107.056 46.9219V47.3125H102.431V46.5156H106.118C106.118 46.1771 106.051 45.875 105.915 45.6094C105.782 45.3437 105.592 45.1341 105.345 44.9805C105.1 44.8268 104.811 44.75 104.478 44.75C104.11 44.75 103.793 44.8411 103.525 45.0234C103.259 45.2031 103.054 45.4375 102.911 45.7266C102.768 46.0156 102.696 46.3255 102.696 46.6562V47.1875C102.696 47.6406 102.775 48.0247 102.931 48.3398C103.09 48.6523 103.31 48.8906 103.591 49.0547C103.872 49.2161 104.199 49.2969 104.571 49.2969C104.814 49.2969 105.032 49.263 105.228 49.1953C105.426 49.125 105.596 49.0208 105.739 48.8828C105.883 48.7422 105.993 48.5677 106.071 48.3594L106.962 48.6094C106.868 48.9115 106.711 49.1771 106.489 49.4062C106.268 49.6328 105.995 49.8099 105.669 49.9375C105.344 50.0625 104.978 50.125 104.571 50.125ZM112.787 45.3437L111.959 45.5781C111.906 45.4401 111.83 45.306 111.728 45.1758C111.629 45.043 111.494 44.9336 111.322 44.8477C111.15 44.7617 110.93 44.7187 110.662 44.7187C110.295 44.7187 109.989 44.8034 109.744 44.9727C109.502 45.1393 109.38 45.3516 109.38 45.6094C109.38 45.8385 109.464 46.0195 109.63 46.1523C109.797 46.2852 110.058 46.3958 110.412 46.4844L111.302 46.7031C111.839 46.8333 112.239 47.0326 112.502 47.3008C112.765 47.5664 112.896 47.9089 112.896 48.3281C112.896 48.6719 112.797 48.9792 112.599 49.25C112.404 49.5208 112.13 49.7344 111.779 49.8906C111.427 50.0469 111.018 50.125 110.552 50.125C109.94 50.125 109.434 49.9922 109.033 49.7266C108.632 49.4609 108.378 49.0729 108.271 48.5625L109.146 48.3437C109.229 48.6667 109.387 48.9089 109.619 49.0703C109.853 49.2318 110.159 49.3125 110.537 49.3125C110.966 49.3125 111.308 49.2214 111.56 49.0391C111.815 48.8542 111.943 48.6328 111.943 48.375C111.943 48.1667 111.87 47.9922 111.724 47.8516C111.578 47.7083 111.354 47.6016 111.052 47.5312L110.052 47.2969C109.503 47.1667 109.099 46.9648 108.841 46.6914C108.586 46.4154 108.459 46.0703 108.459 45.6562C108.459 45.3177 108.554 45.0182 108.744 44.7578C108.936 44.4974 109.198 44.293 109.529 44.1445C109.862 43.9961 110.24 43.9219 110.662 43.9219C111.255 43.9219 111.722 44.0521 112.06 44.3125C112.401 44.5729 112.643 44.9167 112.787 45.3437ZM118.612 45.3437L117.784 45.5781C117.732 45.4401 117.655 45.306 117.554 45.1758C117.455 45.043 117.319 44.9336 117.147 44.8477C116.976 44.7617 116.756 44.7187 116.487 44.7187C116.12 44.7187 115.814 44.8034 115.569 44.9727C115.327 45.1393 115.206 45.3516 115.206 45.6094C115.206 45.8385 115.289 46.0195 115.456 46.1523C115.623 46.2852 115.883 46.3958 116.237 46.4844L117.128 46.7031C117.664 46.8333 118.064 47.0326 118.327 47.3008C118.59 47.5664 118.722 47.9089 118.722 48.3281C118.722 48.6719 118.623 48.9792 118.425 49.25C118.23 49.5208 117.956 49.7344 117.605 49.8906C117.253 50.0469 116.844 50.125 116.378 50.125C115.766 50.125 115.259 49.9922 114.858 49.7266C114.457 49.4609 114.203 49.0729 114.097 48.5625L114.972 48.3437C115.055 48.6667 115.213 48.9089 115.444 49.0703C115.679 49.2318 115.985 49.3125 116.362 49.3125C116.792 49.3125 117.133 49.2214 117.386 49.0391C117.641 48.8542 117.769 48.6328 117.769 48.375C117.769 48.1667 117.696 47.9922 117.55 47.8516C117.404 47.7083 117.18 47.6016 116.878 47.5312L115.878 47.2969C115.328 47.1667 114.925 46.9648 114.667 46.6914C114.412 46.4154 114.284 46.0703 114.284 45.6562C114.284 45.3177 114.379 45.0182 114.569 44.7578C114.762 44.4974 115.024 44.293 115.355 44.1445C115.688 43.9961 116.065 43.9219 116.487 43.9219C117.081 43.9219 117.547 44.0521 117.886 44.3125C118.227 44.5729 118.469 44.9167 118.612 45.3437ZM122.704 50.125C122.125 50.125 121.627 49.9974 121.208 49.7422C120.791 49.4844 120.469 49.125 120.243 48.6641C120.019 48.2005 119.907 47.6615 119.907 47.0469C119.907 46.4323 120.019 45.8906 120.243 45.4219C120.469 44.9505 120.784 44.5833 121.188 44.3203C121.594 44.0547 122.068 43.9219 122.61 43.9219C122.922 43.9219 123.231 43.974 123.536 44.0781C123.84 44.1823 124.118 44.3516 124.368 44.5859C124.618 44.8177 124.817 45.125 124.965 45.5078C125.114 45.8906 125.188 46.362 125.188 46.9219V47.3125H120.563V46.5156H124.25C124.25 46.1771 124.183 45.875 124.047 45.6094C123.915 45.3437 123.724 45.1341 123.477 44.9805C123.232 44.8268 122.943 44.75 122.61 44.75C122.243 44.75 121.925 44.8411 121.657 45.0234C121.391 45.2031 121.187 45.4375 121.043 45.7266C120.9 46.0156 120.829 46.3255 120.829 46.6562V47.1875C120.829 47.6406 120.907 48.0247 121.063 48.3398C121.222 48.6523 121.442 48.8906 121.723 49.0547C122.004 49.2161 122.331 49.2969 122.704 49.2969C122.946 49.2969 123.165 49.263 123.36 49.1953C123.558 49.125 123.728 49.0208 123.872 48.8828C124.015 48.7422 124.125 48.5677 124.204 48.3594L125.094 48.6094C125 48.9115 124.843 49.1771 124.622 49.4062C124.4 49.6328 124.127 49.8099 123.801 49.9375C123.476 50.0625 123.11 50.125 122.704 50.125ZM131.607 50.1406C131.227 50.1406 130.882 50.069 130.572 49.9258C130.262 49.7799 130.016 49.5703 129.833 49.2969C129.651 49.0208 129.56 48.6875 129.56 48.2969C129.56 47.9531 129.628 47.6745 129.763 47.4609C129.899 47.2448 130.079 47.0755 130.306 46.9531C130.533 46.8307 130.783 46.7396 131.056 46.6797C131.332 46.6172 131.609 46.5677 131.888 46.5313C132.253 46.4844 132.548 46.4492 132.775 46.4258C133.004 46.3997 133.171 46.3568 133.275 46.2969C133.382 46.237 133.435 46.1328 133.435 45.9844V45.9531C133.435 45.5677 133.329 45.2682 133.119 45.0547C132.91 44.8411 132.594 44.7344 132.169 44.7344C131.729 44.7344 131.384 44.8307 131.134 45.0234C130.884 45.2161 130.708 45.4219 130.607 45.6406L129.732 45.3281C129.888 44.9635 130.096 44.6797 130.357 44.4766C130.62 44.2708 130.906 44.1276 131.216 44.0469C131.529 43.9635 131.836 43.9219 132.138 43.9219C132.331 43.9219 132.552 43.9453 132.802 43.9922C133.055 44.0365 133.298 44.1289 133.533 44.2695C133.77 44.4102 133.966 44.6224 134.122 44.9062C134.279 45.1901 134.357 45.5703 134.357 46.0469V50H133.435V49.1875H133.388C133.326 49.3177 133.221 49.457 133.076 49.6055C132.93 49.7539 132.736 49.8802 132.494 49.9844C132.251 50.0885 131.956 50.1406 131.607 50.1406ZM131.747 49.3125C132.112 49.3125 132.419 49.2409 132.669 49.0977C132.922 48.9544 133.112 48.7695 133.24 48.543C133.37 48.3164 133.435 48.0781 133.435 47.8281V46.9844C133.396 47.0312 133.31 47.0742 133.177 47.1133C133.047 47.1497 132.896 47.1823 132.724 47.2109C132.555 47.237 132.389 47.2604 132.228 47.2812C132.069 47.2995 131.94 47.3151 131.841 47.3281C131.602 47.3594 131.378 47.4102 131.169 47.4805C130.964 47.5482 130.797 47.651 130.669 47.7891C130.544 47.9245 130.482 48.1094 130.482 48.3437C130.482 48.6641 130.6 48.9062 130.837 49.0703C131.077 49.2318 131.38 49.3125 131.747 49.3125ZM137.04 46.3906V50H136.118V44H137.009V44.9375H137.087C137.227 44.6328 137.441 44.388 137.727 44.2031C138.014 44.0156 138.384 43.9219 138.837 43.9219C139.243 43.9219 139.598 44.0052 139.903 44.1719C140.208 44.3359 140.445 44.5859 140.614 44.9219C140.783 45.2552 140.868 45.6771 140.868 46.1875V50H139.946V46.25C139.946 45.7786 139.824 45.4115 139.579 45.1484C139.334 44.8828 138.998 44.75 138.571 44.75C138.277 44.75 138.014 44.8138 137.782 44.9414C137.553 45.069 137.372 45.2552 137.239 45.5C137.106 45.7448 137.04 46.0417 137.04 46.3906ZM145.069 50.125C144.527 50.125 144.052 49.9961 143.643 49.7383C143.237 49.4805 142.919 49.1198 142.69 48.6562C142.463 48.1927 142.35 47.651 142.35 47.0312C142.35 46.4062 142.463 45.8607 142.69 45.3945C142.919 44.9284 143.237 44.5664 143.643 44.3086C144.052 44.0508 144.527 43.9219 145.069 43.9219C145.61 43.9219 146.084 44.0508 146.491 44.3086C146.899 44.5664 147.217 44.9284 147.444 45.3945C147.673 45.8607 147.787 46.4062 147.787 47.0312C147.787 47.651 147.673 48.1927 147.444 48.6562C147.217 49.1198 146.899 49.4805 146.491 49.7383C146.084 49.9961 145.61 50.125 145.069 50.125ZM145.069 49.2969C145.48 49.2969 145.819 49.1914 146.084 48.9805C146.35 48.7695 146.547 48.4922 146.674 48.1484C146.802 47.8047 146.866 47.4323 146.866 47.0312C146.866 46.6302 146.802 46.2565 146.674 45.9102C146.547 45.5638 146.35 45.2839 146.084 45.0703C145.819 44.8568 145.48 44.75 145.069 44.75C144.657 44.75 144.319 44.8568 144.053 45.0703C143.787 45.2839 143.591 45.5638 143.463 45.9102C143.336 46.2565 143.272 46.6302 143.272 47.0312C143.272 47.4323 143.336 47.8047 143.463 48.1484C143.591 48.4922 143.787 48.7695 144.053 48.9805C144.319 49.1914 144.657 49.2969 145.069 49.2969Z" fill="#696974"/>
<path opacity="0.1" fill-rule="evenodd" clip-rule="evenodd" d="M182 52C191.941 52 200 43.9411 200 34C200 24.0589 191.941 16 182 16C172.059 16 164 24.0589 164 34C164 43.9411 172.059 52 182 52Z" stroke="#3DD598" stroke-width="1.54"/>
<path fill-rule="evenodd" clip-rule="evenodd" d="M188 31.3333H176V33.3333C176 33.7015 176.298 34 176.667 34H187.333C187.702 34 188 33.7015 188 33.3333V31.3333ZM178.667 30C178.667 28.8954 179.562 28 180.667 28H183.333C184.438 28 185.333 28.8954 185.333 30H188C188.736 30 189.333 30.597 189.333 31.3333V38C189.333 39.4728 188.139 40.6667 186.667 40.6667H177.333C175.861 40.6667 174.667 39.4728 174.667 38V31.3333C174.667 30.597 175.264 30 176 30H178.667ZM180 30H184C184 29.6318 183.702 29.3333 183.333 29.3333H180.667C180.298 29.3333 180 29.6318 180 30ZM180 35.3333H176.667C176.433 35.3333 176.209 35.2932 176 35.2195V38C176 38.7364 176.597 39.3333 177.333 39.3333H186.667C187.403 39.3333 188 38.7364 188 38V35.2195C187.791 35.2932 187.567 35.3333 187.333 35.3333H184V36.4C184 36.9155 183.582 37.3333 183.067 37.3333H180.933C180.418 37.3333 180 36.9155 180 36.4V35.3333ZM181.333 36H182.667V35.3333H181.333V36Z" fill="#3DD598"/>
<path d="M164 34C164 43.9411 172.059 52 182 52V52C191.941 52 200 43.9411 200 34C200 24.0589 191.941 16 182 16" stroke="#3DD598" stroke-width="1.54286" stroke-linecap="round" stroke-linejoin="round"/>
<path d="M206.278 29L210.608 20.429V20.3594H205.582V18.8182H212.517V20.3942L208.192 29H206.278ZM217.732 29.1392C217.244 29.1359 216.769 29.0514 216.305 28.8857C215.841 28.7166 215.423 28.4432 215.052 28.0653C214.681 27.6842 214.386 27.1787 214.167 26.549C213.948 25.916 213.84 25.1321 213.844 24.1974C213.844 23.3258 213.937 22.5485 214.122 21.8658C214.308 21.183 214.575 20.6063 214.923 20.1357C215.271 19.6617 215.69 19.3004 216.18 19.0518C216.674 18.8033 217.226 18.679 217.836 18.679C218.476 18.679 219.042 18.8049 219.536 19.0568C220.033 19.3087 220.434 19.6534 220.739 20.0909C221.044 20.5251 221.233 21.0156 221.306 21.5625H219.492C219.399 21.1714 219.208 20.8598 218.92 20.6278C218.635 20.3925 218.273 20.2749 217.836 20.2749C217.13 20.2749 216.586 20.5814 216.205 21.1946C215.827 21.8078 215.637 22.6496 215.634 23.7202H215.703C215.866 23.4285 216.076 23.1783 216.335 22.9695C216.593 22.7607 216.885 22.5999 217.21 22.4872C217.538 22.3712 217.884 22.3132 218.249 22.3132C218.845 22.3132 219.38 22.4557 219.854 22.7408C220.332 23.0258 220.71 23.4186 220.988 23.919C221.266 24.4162 221.404 24.9863 221.401 25.6293C221.404 26.2988 221.251 26.9003 220.943 27.4339C220.635 27.9643 220.206 28.3819 219.656 28.6868C219.105 28.9917 218.464 29.1425 217.732 29.1392ZM217.722 27.6477C218.083 27.6477 218.406 27.5599 218.691 27.3842C218.976 27.2086 219.202 26.9716 219.367 26.6733C219.533 26.375 219.614 26.0402 219.611 25.669C219.614 25.3045 219.535 24.9747 219.372 24.6797C219.213 24.3847 218.993 24.151 218.711 23.9787C218.429 23.8063 218.108 23.7202 217.746 23.7202C217.478 23.7202 217.228 23.7715 216.996 23.8743C216.764 23.977 216.562 24.1196 216.389 24.3018C216.217 24.4808 216.081 24.6896 215.982 24.9283C215.885 25.1636 215.836 25.4155 215.832 25.6839C215.836 26.0386 215.919 26.3651 216.081 26.6634C216.243 26.9616 216.467 27.2003 216.752 27.3793C217.037 27.5582 217.36 27.6477 217.722 27.6477ZM228.625 27.0909V26.554C228.625 26.1596 228.708 25.7966 228.873 25.4652C229.043 25.1338 229.288 24.867 229.609 24.6648C229.931 24.4626 230.32 24.3615 230.778 24.3615C231.248 24.3615 231.643 24.4626 231.961 24.6648C232.279 24.8636 232.519 25.1288 232.682 25.4602C232.847 25.7917 232.93 26.1562 232.93 26.554V27.0909C232.93 27.4853 232.847 27.8482 232.682 28.1797C232.516 28.5111 232.272 28.7779 231.951 28.9801C231.633 29.1823 231.242 29.2834 230.778 29.2834C230.314 29.2834 229.921 29.1823 229.599 28.9801C229.278 28.7779 229.034 28.5111 228.869 28.1797C228.706 27.8482 228.625 27.4853 228.625 27.0909ZM229.922 26.554V27.0909C229.922 27.3527 229.985 27.593 230.111 27.8118C230.237 28.0305 230.459 28.1399 230.778 28.1399C231.099 28.1399 231.319 28.0322 231.439 27.8168C231.561 27.598 231.623 27.3561 231.623 27.0909V26.554C231.623 26.2888 231.565 26.0469 231.449 25.8281C231.333 25.6061 231.109 25.495 230.778 25.495C230.466 25.495 230.246 25.6061 230.116 25.8281C229.987 26.0469 229.922 26.2888 229.922 26.554ZM223.449 21.2642V20.7273C223.449 20.3295 223.534 19.965 223.703 19.6335C223.872 19.3021 224.117 19.0369 224.439 18.8381C224.76 18.6359 225.15 18.5348 225.607 18.5348C226.074 18.5348 226.467 18.6359 226.785 18.8381C227.107 19.0369 227.349 19.3021 227.511 19.6335C227.674 19.965 227.755 20.3295 227.755 20.7273V21.2642C227.755 21.6619 227.672 22.0265 227.506 22.358C227.344 22.6861 227.102 22.9496 226.78 23.1484C226.459 23.3473 226.068 23.4467 225.607 23.4467C225.14 23.4467 224.745 23.3473 224.424 23.1484C224.106 22.9496 223.864 22.6844 223.698 22.353C223.532 22.0215 223.449 21.6586 223.449 21.2642ZM224.757 20.7273V21.2642C224.757 21.5294 224.818 21.7713 224.941 21.9901C225.067 22.2055 225.289 22.3132 225.607 22.3132C225.925 22.3132 226.144 22.2055 226.263 21.9901C226.386 21.7713 226.447 21.5294 226.447 21.2642V20.7273C226.447 20.4621 226.389 20.2202 226.273 20.0014C226.157 19.7794 225.935 19.6683 225.607 19.6683C225.292 19.6683 225.072 19.7794 224.946 20.0014C224.82 20.2235 224.757 20.4654 224.757 20.7273ZM224.016 29L231.016 18.8182H232.259L225.259 29H224.016Z" fill="#171725"/>
<path d="M208.75 50H206.057V41.2727H208.869C209.716 41.2727 210.44 41.4474 211.043 41.7969C211.645 42.1435 212.107 42.642 212.428 43.2926C212.749 43.9403 212.909 44.7159 212.909 45.6193C212.909 46.5284 212.747 47.3111 212.423 47.9673C212.099 48.6207 211.628 49.1236 211.009 49.4759C210.389 49.8253 209.636 50 208.75 50ZM207.114 49.0625H208.682C209.403 49.0625 210.001 48.9233 210.476 48.6449C210.95 48.3665 211.304 47.9702 211.537 47.456C211.77 46.9418 211.886 46.3295 211.886 45.6193C211.886 44.9148 211.771 44.3082 211.541 43.7997C211.311 43.2884 210.967 42.8963 210.51 42.6236C210.053 42.348 209.483 42.2102 208.801 42.2102H207.114V49.0625ZM217.375 50.1364C216.745 50.1364 216.201 49.9972 215.743 49.7188C215.289 49.4375 214.938 49.0455 214.691 48.5426C214.447 48.0369 214.324 47.4489 214.324 46.7784C214.324 46.108 214.447 45.517 214.691 45.0057C214.938 44.4915 215.282 44.0909 215.722 43.804C216.165 43.5142 216.682 43.3693 217.273 43.3693C217.614 43.3693 217.951 43.4261 218.283 43.5398C218.616 43.6534 218.918 43.8381 219.191 44.0938C219.464 44.3466 219.681 44.6818 219.843 45.0994C220.005 45.517 220.086 46.0312 220.086 46.642V47.0682H215.04V46.1989H219.063C219.063 45.8295 218.989 45.5 218.841 45.2102C218.697 44.9205 218.489 44.6918 218.219 44.5241C217.952 44.3565 217.637 44.2727 217.273 44.2727C216.873 44.2727 216.526 44.3722 216.233 44.571C215.944 44.767 215.721 45.0227 215.564 45.3381C215.408 45.6534 215.33 45.9915 215.33 46.3523V46.9318C215.33 47.4261 215.415 47.8452 215.586 48.1889C215.759 48.5298 215.999 48.7898 216.306 48.9688C216.613 49.1449 216.969 49.233 217.375 49.233C217.64 49.233 217.878 49.196 218.091 49.1222C218.307 49.0455 218.493 48.9318 218.65 48.7812C218.806 48.6278 218.927 48.4375 219.012 48.2102L219.983 48.483C219.881 48.8125 219.709 49.1023 219.468 49.3523C219.226 49.5994 218.928 49.7926 218.573 49.9318C218.218 50.0682 217.819 50.1364 217.375 50.1364ZM223.627 50.1534C223.213 50.1534 222.836 50.0753 222.498 49.919C222.16 49.7599 221.892 49.5312 221.693 49.233C221.494 48.9318 221.394 48.5682 221.394 48.142C221.394 47.767 221.468 47.4631 221.616 47.2301C221.764 46.9943 221.961 46.8097 222.208 46.6761C222.456 46.5426 222.728 46.4432 223.027 46.3778C223.328 46.3097 223.63 46.2557 223.934 46.2159C224.332 46.1648 224.654 46.1264 224.902 46.1009C225.152 46.0724 225.333 46.0256 225.447 45.9602C225.563 45.8949 225.622 45.7812 225.622 45.6193V45.5852C225.622 45.1648 225.507 44.8381 225.277 44.6051C225.049 44.3722 224.704 44.2557 224.241 44.2557C223.761 44.2557 223.384 44.3608 223.112 44.571C222.839 44.7812 222.647 45.0057 222.536 45.2443L221.582 44.9034C221.752 44.5057 221.98 44.196 222.264 43.9744C222.551 43.75 222.863 43.5937 223.201 43.5057C223.542 43.4148 223.877 43.3693 224.207 43.3693C224.417 43.3693 224.659 43.3949 224.931 43.446C225.207 43.4943 225.473 43.5952 225.728 43.7486C225.987 43.902 226.201 44.1335 226.372 44.4432C226.542 44.7528 226.627 45.1676 226.627 45.6875V50H225.622V49.1136H225.571C225.502 49.2557 225.389 49.4077 225.23 49.5696C225.071 49.7315 224.859 49.8693 224.595 49.983C224.331 50.0966 224.008 50.1534 223.627 50.1534ZM223.781 49.25C224.179 49.25 224.514 49.1719 224.786 49.0156C225.062 48.8594 225.269 48.6577 225.409 48.4105C225.551 48.1634 225.622 47.9034 225.622 47.6307V46.7102C225.579 46.7614 225.485 46.8082 225.34 46.8509C225.198 46.8906 225.034 46.9261 224.846 46.9574C224.661 46.9858 224.481 47.0114 224.305 47.0341C224.132 47.054 223.991 47.071 223.883 47.0852C223.622 47.1193 223.377 47.1747 223.15 47.2514C222.926 47.3253 222.744 47.4375 222.605 47.5881C222.468 47.7358 222.4 47.9375 222.4 48.1932C222.4 48.5426 222.529 48.8068 222.788 48.9858C223.049 49.1619 223.38 49.25 223.781 49.25ZM229.554 41.2727V50H228.549V41.2727H229.554ZM236.118 44.9205L235.215 45.1761C235.158 45.0256 235.074 44.8793 234.964 44.7372C234.856 44.5923 234.708 44.473 234.52 44.3793C234.333 44.2855 234.093 44.2386 233.8 44.2386C233.4 44.2386 233.066 44.331 232.799 44.5156C232.535 44.6974 232.403 44.929 232.403 45.2102C232.403 45.4602 232.493 45.6577 232.675 45.8026C232.857 45.9474 233.141 46.0682 233.528 46.1648L234.499 46.4034C235.084 46.5455 235.52 46.7628 235.807 47.0554C236.094 47.3452 236.238 47.7187 236.238 48.1761C236.238 48.5511 236.13 48.8864 235.914 49.1818C235.701 49.4773 235.403 49.7102 235.019 49.8807C234.635 50.0511 234.189 50.1364 233.681 50.1364C233.013 50.1364 232.461 49.9915 232.023 49.7017C231.586 49.4119 231.309 48.9886 231.192 48.4318L232.147 48.1932C232.238 48.5455 232.41 48.8097 232.662 48.9858C232.918 49.1619 233.252 49.25 233.664 49.25C234.133 49.25 234.505 49.1506 234.78 48.9517C235.059 48.75 235.198 48.5085 235.198 48.2273C235.198 48 235.118 47.8097 234.959 47.6562C234.8 47.5 234.556 47.3835 234.226 47.3068L233.135 47.0511C232.536 46.9091 232.096 46.6889 231.814 46.3906C231.536 46.0895 231.397 45.7131 231.397 45.2614C231.397 44.892 231.501 44.5653 231.708 44.2812C231.918 43.9972 232.204 43.7741 232.564 43.6122C232.928 43.4503 233.34 43.3693 233.8 43.3693C234.448 43.3693 234.956 43.5114 235.326 43.7955C235.698 44.0795 235.962 44.4545 236.118 44.9205ZM244.042 50.1364C243.412 50.1364 242.868 49.9972 242.41 49.7188C241.956 49.4375 241.605 49.0455 241.358 48.5426C241.113 48.0369 240.991 47.4489 240.991 46.7784C240.991 46.108 241.113 45.517 241.358 45.0057C241.605 44.4915 241.949 44.0909 242.389 43.804C242.832 43.5142 243.349 43.3693 243.94 43.3693C244.281 43.3693 244.618 43.4261 244.95 43.5398C245.282 43.6534 245.585 43.8381 245.858 44.0938C246.13 44.3466 246.348 44.6818 246.51 45.0994C246.672 45.517 246.753 46.0312 246.753 46.642V47.0682H241.707V46.1989H245.73C245.73 45.8295 245.656 45.5 245.508 45.2102C245.363 44.9205 245.156 44.6918 244.886 44.5241C244.619 44.3565 244.304 44.2727 243.94 44.2727C243.539 44.2727 243.193 44.3722 242.9 44.571C242.611 44.767 242.388 45.0227 242.231 45.3381C242.075 45.6534 241.997 45.9915 241.997 46.3523V46.9318C241.997 47.4261 242.082 47.8452 242.253 48.1889C242.426 48.5298 242.666 48.7898 242.973 48.9688C243.28 49.1449 243.636 49.233 244.042 49.233C244.307 49.233 244.545 49.196 244.758 49.1222C244.974 49.0455 245.16 48.9318 245.316 48.7812C245.473 48.6278 245.593 48.4375 245.679 48.2102L246.65 48.483C246.548 48.8125 246.376 49.1023 246.135 49.3523C245.893 49.5994 245.595 49.7926 245.24 49.9318C244.885 50.0682 244.486 50.1364 244.042 50.1364ZM253.004 44.9205L252.101 45.1761C252.044 45.0256 251.96 44.8793 251.85 44.7372C251.742 44.5923 251.594 44.473 251.406 44.3793C251.219 44.2855 250.979 44.2386 250.686 44.2386C250.286 44.2386 249.952 44.331 249.685 44.5156C249.421 44.6974 249.289 44.929 249.289 45.2102C249.289 45.4602 249.379 45.6577 249.561 45.8026C249.743 45.9474 250.027 46.0682 250.414 46.1648L251.385 46.4034C251.97 46.5455 252.406 46.7628 252.693 47.0554C252.98 47.3452 253.124 47.7187 253.124 48.1761C253.124 48.5511 253.016 48.8864 252.8 49.1818C252.587 49.4773 252.289 49.7102 251.905 49.8807C251.522 50.0511 251.075 50.1364 250.567 50.1364C249.899 50.1364 249.347 49.9915 248.909 49.7017C248.472 49.4119 248.195 48.9886 248.078 48.4318L249.033 48.1932C249.124 48.5455 249.296 48.8097 249.549 48.9858C249.804 49.1619 250.138 49.25 250.55 49.25C251.019 49.25 251.391 49.1506 251.666 48.9517C251.945 48.75 252.084 48.5085 252.084 48.2273C252.084 48 252.004 47.8097 251.845 47.6562C251.686 47.5 251.442 47.3835 251.112 47.3068L250.022 47.0511C249.422 46.9091 248.982 46.6889 248.7 46.3906C248.422 46.0895 248.283 45.7131 248.283 45.2614C248.283 44.892 248.387 44.5653 248.594 44.2812C248.804 43.9972 249.09 43.7741 249.45 43.6122C249.814 43.4503 250.226 43.3693 250.686 43.3693C251.334 43.3693 251.843 43.5114 252.212 43.7955C252.584 44.0795 252.848 44.4545 253.004 44.9205ZM259.36 44.9205L258.456 45.1761C258.399 45.0256 258.316 44.8793 258.205 44.7372C258.097 44.5923 257.949 44.473 257.762 44.3793C257.574 44.2855 257.334 44.2386 257.042 44.2386C256.641 44.2386 256.307 44.331 256.04 44.5156C255.776 44.6974 255.644 44.929 255.644 45.2102C255.644 45.4602 255.735 45.6577 255.917 45.8026C256.098 45.9474 256.382 46.0682 256.769 46.1648L257.74 46.4034C258.326 46.5455 258.762 46.7628 259.049 47.0554C259.336 47.3452 259.479 47.7187 259.479 48.1761C259.479 48.5511 259.371 48.8864 259.155 49.1818C258.942 49.4773 258.644 49.7102 258.26 49.8807C257.877 50.0511 257.431 50.1364 256.922 50.1364C256.255 50.1364 255.702 49.9915 255.265 49.7017C254.827 49.4119 254.55 48.9886 254.434 48.4318L255.388 48.1932C255.479 48.5455 255.651 48.8097 255.904 48.9858C256.159 49.1619 256.493 49.25 256.905 49.25C257.374 49.25 257.746 49.1506 258.022 48.9517C258.3 48.75 258.439 48.5085 258.439 48.2273C258.439 48 258.36 47.8097 258.201 47.6562C258.042 47.5 257.797 47.3835 257.468 47.3068L256.377 47.0511C255.777 46.9091 255.337 46.6889 255.056 46.3906C254.777 46.0895 254.638 45.7131 254.638 45.2614C254.638 44.892 254.742 44.5653 254.949 44.2812C255.159 43.9972 255.445 43.7741 255.806 43.6122C256.169 43.4503 256.581 43.3693 257.042 43.3693C257.689 43.3693 258.198 43.5114 258.567 43.7955C258.939 44.0795 259.203 44.4545 259.36 44.9205ZM263.823 50.1364C263.192 50.1364 262.648 49.9972 262.191 49.7188C261.736 49.4375 261.385 49.0455 261.138 48.5426C260.894 48.0369 260.772 47.4489 260.772 46.7784C260.772 46.108 260.894 45.517 261.138 45.0057C261.385 44.4915 261.729 44.0909 262.17 43.804C262.613 43.5142 263.13 43.3693 263.721 43.3693C264.062 43.3693 264.398 43.4261 264.731 43.5398C265.063 43.6534 265.366 43.8381 265.638 44.0938C265.911 44.3466 266.128 44.6818 266.29 45.0994C266.452 45.517 266.533 46.0312 266.533 46.642V47.0682H261.488V46.1989H265.51C265.51 45.8295 265.437 45.5 265.289 45.2102C265.144 44.9205 264.937 44.6918 264.667 44.5241C264.4 44.3565 264.084 44.2727 263.721 44.2727C263.32 44.2727 262.973 44.3722 262.681 44.571C262.391 44.767 262.168 45.0227 262.012 45.3381C261.856 45.6534 261.777 45.9915 261.777 46.3523V46.9318C261.777 47.4261 261.863 47.8452 262.033 48.1889C262.206 48.5298 262.446 48.7898 262.753 48.9688C263.06 49.1449 263.417 49.233 263.823 49.233C264.087 49.233 264.326 49.196 264.539 49.1222C264.755 49.0455 264.941 48.9318 265.097 48.7812C265.253 48.6278 265.374 48.4375 265.459 48.2102L266.431 48.483C266.329 48.8125 266.157 49.1023 265.915 49.3523C265.674 49.5994 265.375 49.7926 265.02 49.9318C264.665 50.0682 264.266 50.1364 263.823 50.1364ZM273.536 50.1534C273.121 50.1534 272.744 50.0753 272.406 49.919C272.068 49.7599 271.8 49.5312 271.601 49.233C271.402 48.9318 271.303 48.5682 271.303 48.142C271.303 47.767 271.376 47.4631 271.524 47.2301C271.672 46.9943 271.869 46.8097 272.117 46.6761C272.364 46.5426 272.636 46.4432 272.935 46.3778C273.236 46.3097 273.538 46.2557 273.842 46.2159C274.24 46.1648 274.563 46.1264 274.81 46.1009C275.06 46.0724 275.242 46.0256 275.355 45.9602C275.472 45.8949 275.53 45.7812 275.53 45.6193V45.5852C275.53 45.1648 275.415 44.8381 275.185 44.6051C274.957 44.3722 274.612 44.2557 274.149 44.2557C273.669 44.2557 273.293 44.3608 273.02 44.571C272.747 44.7812 272.555 45.0057 272.445 45.2443L271.49 44.9034C271.661 44.5057 271.888 44.196 272.172 43.9744C272.459 43.75 272.771 43.5937 273.109 43.5057C273.45 43.4148 273.786 43.3693 274.115 43.3693C274.325 43.3693 274.567 43.3949 274.84 43.446C275.115 43.4943 275.381 43.5952 275.636 43.7486C275.895 43.902 276.109 44.1335 276.28 44.4432C276.45 44.7528 276.536 45.1676 276.536 45.6875V50H275.53V49.1136H275.479C275.411 49.2557 275.297 49.4077 275.138 49.5696C274.979 49.7315 274.767 49.8693 274.503 49.983C274.239 50.0966 273.916 50.1534 273.536 50.1534ZM273.689 49.25C274.087 49.25 274.422 49.1719 274.695 49.0156C274.97 48.8594 275.178 48.6577 275.317 48.4105C275.459 48.1634 275.53 47.9034 275.53 47.6307V46.7102C275.487 46.7614 275.393 46.8082 275.249 46.8509C275.107 46.8906 274.942 46.9261 274.754 46.9574C274.57 46.9858 274.389 47.0114 274.213 47.0341C274.04 47.054 273.899 47.071 273.791 47.0852C273.53 47.1193 273.286 47.1747 273.058 47.2514C272.834 47.3253 272.652 47.4375 272.513 47.5881C272.376 47.7358 272.308 47.9375 272.308 48.1932C272.308 48.5426 272.438 48.8068 272.696 48.9858C272.957 49.1619 273.288 49.25 273.689 49.25ZM279.463 46.0625V50H278.457V43.4545H279.428V44.4773H279.514C279.667 44.1449 279.9 43.8778 280.213 43.6761C280.525 43.4716 280.928 43.3693 281.423 43.3693C281.866 43.3693 282.254 43.4602 282.586 43.642C282.918 43.821 283.177 44.0938 283.362 44.4602C283.546 44.8239 283.639 45.2841 283.639 45.8409V50H282.633V45.9091C282.633 45.3949 282.499 44.9943 282.232 44.7074C281.965 44.4176 281.599 44.2727 281.133 44.2727C280.812 44.2727 280.525 44.3423 280.272 44.4815C280.022 44.6207 279.825 44.8239 279.68 45.0909C279.535 45.358 279.463 45.6818 279.463 46.0625ZM288.221 50.1364C287.63 50.1364 287.112 49.9957 286.666 49.7145C286.223 49.4332 285.876 49.0398 285.626 48.5341C285.379 48.0284 285.255 47.4375 285.255 46.7614C285.255 46.0795 285.379 45.4844 285.626 44.9759C285.876 44.4673 286.223 44.0724 286.666 43.7912C287.112 43.5099 287.63 43.3693 288.221 43.3693C288.812 43.3693 289.329 43.5099 289.772 43.7912C290.218 44.0724 290.565 44.4673 290.812 44.9759C291.062 45.4844 291.187 46.0795 291.187 46.7614C291.187 47.4375 291.062 48.0284 290.812 48.5341C290.565 49.0398 290.218 49.4332 289.772 49.7145C289.329 49.9957 288.812 50.1364 288.221 50.1364ZM288.221 49.233C288.67 49.233 289.039 49.1179 289.329 48.8878C289.619 48.6577 289.833 48.3551 289.973 47.9801C290.112 47.6051 290.181 47.1989 290.181 46.7614C290.181 46.3239 290.112 45.9162 289.973 45.5384C289.833 45.1605 289.619 44.8551 289.329 44.6222C289.039 44.3892 288.67 44.2727 288.221 44.2727C287.772 44.2727 287.403 44.3892 287.113 44.6222C286.823 44.8551 286.609 45.1605 286.47 45.5384C286.331 45.9162 286.261 46.3239 286.261 46.7614C286.261 47.1989 286.331 47.6051 286.47 47.9801C286.609 48.3551 286.823 48.6577 287.113 48.8878C287.403 49.1179 287.772 49.233 288.221 49.233Z" fill="#696974"/>
</g>
</svg>
