<svg width="350" height="78" viewBox="0 0 350 78" fill="none" xmlns="http://www.w3.org/2000/svg">
<rect x="1" y="1" width="348" height="76" rx="19" fill="white" stroke="#E9E6F7" stroke-width="2"/>
<mask id="mask0_35_360" style="mask-type:luminance" maskUnits="userSpaceOnUse" x="0" y="0" width="350" height="78">
<rect width="350" height="78" rx="20" fill="white"/>
</mask>
<g mask="url(#mask0_35_360)">
<path opacity="0.1" fill-rule="evenodd" clip-rule="evenodd" d="M38.5 60.5373C50.098 60.5373 59.5 51.1553 59.5 39.5821C59.5 28.0088 50.098 18.6269 38.5 18.6269C26.902 18.6269 17.5 28.0088 17.5 39.5821C17.5 51.1553 26.902 60.5373 38.5 60.5373Z" stroke="#0062FF" stroke-width="1.54286"/>
<path fill-rule="evenodd" clip-rule="evenodd" d="M44.5101 34.6554C45.6146 35.9955 46.2778 37.7115 46.2778 39.5821C46.2778 43.8685 42.7955 47.3433 38.5 47.3433C34.2044 47.3433 30.7222 43.8685 30.7222 39.5821C30.7222 35.2957 34.2044 31.8209 38.5 31.8209C40.3607 31.8209 42.0689 32.4729 43.4075 33.5605L43.8359 33.133L44.0395 32.0508C44.1187 31.6295 44.5252 31.3521 44.9474 31.4312C45.3696 31.5103 45.6476 31.9159 45.5683 32.3372L45.524 32.5731L45.7603 32.5288C46.1825 32.4497 46.589 32.7271 46.6683 33.1484C46.7475 33.5697 46.4695 33.9753 46.0474 34.0544L44.8963 34.27L44.5101 34.6554ZM42.3003 34.6653C41.2491 33.8551 39.931 33.3731 38.5 33.3731C35.0635 33.3731 32.2778 36.153 32.2778 39.5821C32.2778 43.0112 35.0635 45.791 38.5 45.791C41.9364 45.791 44.7222 43.0112 44.7222 39.5821C44.7222 38.1404 44.2298 36.8134 43.4036 35.7596L42.2926 36.8682C42.8427 37.6323 43.1666 38.5694 43.1666 39.5821C43.1666 42.1539 41.0773 44.2388 38.5 44.2388C35.9226 44.2388 33.8333 42.1539 33.8333 39.5821C33.8333 37.0102 35.9226 34.9253 38.5 34.9253C39.5009 34.9253 40.4282 35.2398 41.1882 35.7751L42.3003 34.6653ZM40.0634 36.8975C39.604 36.6305 39.0699 36.4776 38.5 36.4776C36.7818 36.4776 35.3889 37.8675 35.3889 39.5821C35.3889 41.2966 36.7818 42.6865 38.5 42.6865C40.2182 42.6865 41.6111 41.2966 41.6111 39.5821C41.6111 38.9993 41.4502 38.4541 41.1703 37.9881L39.997 39.1589C40.0351 39.2934 40.0555 39.4354 40.0555 39.5821C40.0555 40.4393 39.3591 41.1343 38.5 41.1343C37.6409 41.1343 36.9444 40.4393 36.9444 39.5821C36.9444 38.7248 37.6409 38.0298 38.5 38.0298C38.6316 38.0298 38.7594 38.0461 38.8815 38.0769L40.0634 36.8975Z" fill="#0062FF"/>
<path d="M17.5 39.5821C17.5 51.1553 26.902 60.5373 38.5 60.5373V60.5373C50.098 60.5373 59.5 51.1553 59.5 39.5821C59.5 28.0088 50.098 18.6269 38.5 18.6269" stroke="#0062FF" stroke-width="1.54286" stroke-linecap="round" stroke-linejoin="round"/>
<path d="M69.9669 32.7661C69.4797 32.7628 69.004 32.6782 68.54 32.5125C68.076 32.3435 67.6584 32.07 67.2872 31.6922C66.916 31.311 66.621 30.8056 66.4022 30.1759C66.1835 29.5428 66.0758 28.759 66.0791 27.8243C66.0791 26.9526 66.1719 26.1754 66.3575 25.4926C66.5431 24.8099 66.8099 24.2332 67.1579 23.7625C67.5059 23.2886 67.9252 22.9273 68.4157 22.6787C68.9096 22.4301 69.4614 22.3058 70.0713 22.3058C70.7109 22.3058 71.2777 22.4318 71.7716 22.6837C72.2687 22.9356 72.6698 23.2803 72.9747 23.7178C73.2796 24.152 73.4685 24.6425 73.5414 25.1894H71.7268C71.634 24.7983 71.4434 24.4867 71.1551 24.2547C70.87 24.0194 70.5088 23.9017 70.0713 23.9017C69.3653 23.9017 68.8217 24.2083 68.4406 24.8215C68.0627 25.4346 67.8722 26.2765 67.8689 27.347H67.9385C68.1009 27.0554 68.3113 26.8051 68.5698 26.5963C68.8284 26.3875 69.12 26.2268 69.4448 26.1141C69.773 25.9981 70.1193 25.9401 70.4839 25.9401C71.0805 25.9401 71.6158 26.0826 72.0897 26.3676C72.567 26.6527 72.9448 27.0454 73.2233 27.5459C73.5017 28.0431 73.6392 28.6131 73.6359 29.2561C73.6392 29.9256 73.4868 30.5272 73.1785 31.0608C72.8703 31.5911 72.4411 32.0087 71.8909 32.3137C71.3407 32.6186 70.6993 32.7694 69.9669 32.7661ZM69.9569 31.2746C70.3182 31.2746 70.6413 31.1868 70.9264 31.0111C71.2114 30.8354 71.4368 30.5985 71.6025 30.3002C71.7682 30.0019 71.8494 29.6671 71.8461 29.2959C71.8494 28.9313 71.7699 28.6015 71.6075 28.3065C71.4484 28.0116 71.228 27.7779 70.9463 27.6056C70.6645 27.4332 70.3431 27.347 69.9818 27.347C69.7133 27.347 69.4631 27.3984 69.2311 27.5012C68.9991 27.6039 68.7969 27.7464 68.6245 27.9287C68.4522 28.1077 68.3163 28.3165 68.2169 28.5551C68.1207 28.7905 68.071 29.0423 68.0677 29.3108C68.071 29.6655 68.1539 29.9919 68.3163 30.2902C68.4787 30.5885 68.7024 30.8271 68.9875 31.0061C69.2725 31.1851 69.5957 31.2746 69.9569 31.2746ZM79.0356 32.7661C78.2965 32.7661 77.6403 32.6418 77.0669 32.3932C76.4968 32.1446 76.0493 31.8049 75.7245 31.374C75.403 30.9398 75.2439 30.4476 75.2473 29.8975C75.2439 29.4699 75.3368 29.0771 75.5257 28.7192C75.7146 28.3612 75.9698 28.0629 76.2913 27.8243C76.6161 27.5824 76.9774 27.4282 77.3751 27.3619V27.2923C76.8514 27.1763 76.4272 26.9095 76.1024 26.4919C75.7809 26.071 75.6218 25.5854 75.6251 25.0352C75.6218 24.5116 75.7676 24.0442 76.0626 23.6333C76.3576 23.2223 76.7619 22.8991 77.2757 22.6638C77.7894 22.4252 78.3761 22.3058 79.0356 22.3058C79.6886 22.3058 80.2702 22.4252 80.7806 22.6638C81.2944 22.8991 81.6987 23.2223 81.9937 23.6333C82.292 24.0442 82.4412 24.5116 82.4412 25.0352C82.4412 25.5854 82.2771 26.071 81.949 26.4919C81.6242 26.9095 81.2049 27.1763 80.6912 27.2923V27.3619C81.0889 27.4282 81.4468 27.5824 81.765 27.8243C82.0865 28.0629 82.3417 28.3612 82.5306 28.7192C82.7229 29.0771 82.819 29.4699 82.819 29.8975C82.819 30.4476 82.6566 30.9398 82.3318 31.374C82.007 31.8049 81.5595 32.1446 80.9895 32.3932C80.4227 32.6418 79.7714 32.7661 79.0356 32.7661ZM79.0356 31.3442C79.4168 31.3442 79.7482 31.2796 80.0299 31.1503C80.3117 31.0177 80.5304 30.8321 80.6862 30.5935C80.842 30.3548 80.9215 30.0797 80.9248 29.7682C80.9215 29.4434 80.837 29.1567 80.6713 28.9081C80.5089 28.6562 80.2851 28.459 80.0001 28.3165C79.7184 28.174 79.3969 28.1027 79.0356 28.1027C78.671 28.1027 78.3462 28.174 78.0612 28.3165C77.7761 28.459 77.5508 28.6562 77.385 28.9081C77.2226 29.1567 77.1431 29.4434 77.1464 29.7682C77.1431 30.0797 77.2193 30.3548 77.3751 30.5935C77.5309 30.8288 77.7496 31.0128 78.0314 31.1453C78.3164 31.2779 78.6511 31.3442 79.0356 31.3442ZM79.0356 26.7057C79.3472 26.7057 79.6223 26.6427 79.8609 26.5168C80.1029 26.3908 80.2934 26.2152 80.4326 25.9898C80.5718 25.7644 80.6431 25.5042 80.6464 25.2092C80.6431 24.9176 80.5735 24.6624 80.4376 24.4436C80.3017 24.2216 80.1128 24.0509 79.8708 23.9315C79.6289 23.8089 79.3505 23.7476 79.0356 23.7476C78.7141 23.7476 78.4307 23.8089 78.1855 23.9315C77.9435 24.0509 77.7546 24.2216 77.6187 24.4436C77.4861 24.6624 77.4215 24.9176 77.4248 25.2092C77.4215 25.5042 77.4878 25.7644 77.6237 25.9898C77.7629 26.2119 77.9535 26.3875 78.1954 26.5168C78.4407 26.6427 78.7207 26.7057 79.0356 26.7057ZM89.9973 30.7178V30.1808C89.9973 29.7864 90.0802 29.4235 90.2459 29.0921C90.4149 28.7606 90.6602 28.4938 90.9817 28.2916C91.3032 28.0895 91.6926 27.9884 92.15 27.9884C92.6206 27.9884 93.0151 28.0895 93.3332 28.2916C93.6514 28.4905 93.8917 28.7556 94.0541 29.0871C94.2198 29.4185 94.3027 29.7831 94.3027 30.1808V30.7178C94.3027 31.1122 94.2198 31.4751 94.0541 31.8065C93.8884 32.138 93.6448 32.4048 93.3233 32.607C93.0051 32.8092 92.614 32.9102 92.15 32.9102C91.686 32.9102 91.2932 32.8092 90.9717 32.607C90.6502 32.4048 90.4066 32.138 90.2409 31.8065C90.0785 31.4751 89.9973 31.1122 89.9973 30.7178ZM91.2949 30.1808V30.7178C91.2949 30.9796 91.3579 31.2199 91.4838 31.4387C91.6098 31.6574 91.8318 31.7668 92.15 31.7668C92.4715 31.7668 92.6919 31.6591 92.8112 31.4436C92.9339 31.2249 92.9952 30.9829 92.9952 30.7178V30.1808C92.9952 29.9157 92.9372 29.6737 92.8212 29.455C92.7052 29.2329 92.4814 29.1219 92.15 29.1219C91.8384 29.1219 91.618 29.2329 91.4888 29.455C91.3595 29.6737 91.2949 29.9157 91.2949 30.1808ZM84.8219 24.8911V24.3541C84.8219 23.9564 84.9064 23.5918 85.0754 23.2604C85.2445 22.9289 85.4897 22.6638 85.8112 22.4649C86.1327 22.2628 86.5222 22.1617 86.9795 22.1617C87.4469 22.1617 87.8396 22.2628 88.1578 22.4649C88.4793 22.6638 88.7213 22.9289 88.8837 23.2604C89.0461 23.5918 89.1273 23.9564 89.1273 24.3541V24.8911C89.1273 25.2888 89.0444 25.6534 88.8787 25.9848C88.7163 26.3129 88.4743 26.5764 88.1528 26.7753C87.8313 26.9742 87.4402 27.0736 86.9795 27.0736C86.5122 27.0736 86.1178 26.9742 85.7963 26.7753C85.4781 26.5764 85.2362 26.3113 85.0705 25.9798C84.9047 25.6484 84.8219 25.2855 84.8219 24.8911ZM86.1294 24.3541V24.8911C86.1294 25.1562 86.1907 25.3982 86.3134 25.6169C86.4393 25.8324 86.6614 25.9401 86.9795 25.9401C87.2977 25.9401 87.5165 25.8324 87.6358 25.6169C87.7584 25.3982 87.8197 25.1562 87.8197 24.8911V24.3541C87.8197 24.089 87.7617 23.847 87.6457 23.6283C87.5297 23.4062 87.3077 23.2952 86.9795 23.2952C86.6647 23.2952 86.4443 23.4062 86.3183 23.6283C86.1924 23.8503 86.1294 24.0923 86.1294 24.3541ZM85.3886 32.6269L92.3886 22.445H93.6315L86.6315 32.6269H85.3886Z" fill="#171725"/>
<path d="M66.3021 56.403V48.403H67.2708V51.9655H71.5365V48.403H72.5052V56.403H71.5365V52.8249H67.2708V56.403H66.3021ZM74.3982 56.403V50.403H75.3201V56.403H74.3982ZM74.867 49.403C74.6873 49.403 74.5324 49.3418 74.4021 49.2194C74.2745 49.097 74.2107 48.9499 74.2107 48.778C74.2107 48.6061 74.2745 48.459 74.4021 48.3366C74.5324 48.2142 74.6873 48.153 74.867 48.153C75.0467 48.153 75.2003 48.2142 75.3279 48.3366C75.4581 48.459 75.5232 48.6061 75.5232 48.778C75.5232 48.9499 75.4581 49.097 75.3279 49.2194C75.2003 49.3418 75.0467 49.403 74.867 49.403ZM79.6965 50.403V51.1842H76.5872V50.403H79.6965ZM77.4934 48.9655H78.4153V54.6842C78.4153 54.9447 78.4531 55.14 78.5286 55.2702C78.6067 55.3978 78.7057 55.4837 78.8254 55.528C78.9478 55.5697 79.0767 55.5905 79.2122 55.5905C79.3137 55.5905 79.3971 55.5853 79.4622 55.5749C79.5273 55.5618 79.5794 55.5514 79.6184 55.5436L79.8059 56.3717C79.7434 56.3952 79.6562 56.4186 79.5442 56.442C79.4322 56.4681 79.2903 56.4811 79.1184 56.4811C78.858 56.4811 78.6028 56.4251 78.3528 56.3131C78.1054 56.2012 77.8997 56.0306 77.7356 55.8014C77.5741 55.5723 77.4934 55.2832 77.4934 54.9342V48.9655ZM84.4592 56.403V48.403H87.1623C87.7873 48.403 88.3003 48.5098 88.7013 48.7233C89.1024 48.9342 89.3993 49.2246 89.592 49.5944C89.7847 49.9642 89.881 50.3848 89.881 50.8561C89.881 51.3275 89.7847 51.7454 89.592 52.11C89.3993 52.4746 89.1037 52.7611 88.7052 52.9694C88.3068 53.1751 87.7977 53.278 87.1779 53.278H84.9904V52.403H87.1467C87.5737 52.403 87.9175 52.3405 88.1779 52.2155C88.4409 52.0905 88.631 51.9134 88.7482 51.6842C88.868 51.4525 88.9279 51.1764 88.9279 50.8561C88.9279 50.5358 88.868 50.2558 88.7482 50.0163C88.6284 49.7767 88.437 49.5918 88.174 49.4616C87.911 49.3288 87.5633 49.2624 87.131 49.2624H85.4279V56.403H84.4592ZM88.2248 52.8092L90.1935 56.403H89.0685L87.131 52.8092H88.2248ZM93.2145 56.5436C92.8343 56.5436 92.4892 56.472 92.1793 56.3288C91.8694 56.1829 91.6233 55.9733 91.441 55.6999C91.2588 55.4238 91.1676 55.0905 91.1676 54.6999C91.1676 54.3561 91.2353 54.0775 91.3707 53.8639C91.5061 53.6478 91.6871 53.4785 91.9137 53.3561C92.1403 53.2337 92.3903 53.1426 92.6637 53.0827C92.9397 53.0202 93.2171 52.9707 93.4957 52.9342C93.8603 52.8874 94.1559 52.8522 94.3825 52.8288C94.6116 52.8027 94.7783 52.7598 94.8825 52.6999C94.9892 52.64 95.0426 52.5358 95.0426 52.3874V52.3561C95.0426 51.9707 94.9371 51.6712 94.7262 51.4577C94.5179 51.2441 94.2015 51.1374 93.777 51.1374C93.3369 51.1374 92.9918 51.2337 92.7418 51.4264C92.4918 51.6191 92.316 51.8249 92.2145 52.0436L91.3395 51.7311C91.4957 51.3665 91.7041 51.0827 91.9645 50.8795C92.2275 50.6738 92.514 50.5306 92.8239 50.4499C93.1364 50.3665 93.4436 50.3249 93.7457 50.3249C93.9384 50.3249 94.1598 50.3483 94.4098 50.3952C94.6624 50.4394 94.9059 50.5319 95.1403 50.6725C95.3772 50.8131 95.5739 51.0254 95.7301 51.3092C95.8864 51.5931 95.9645 51.9733 95.9645 52.4499V56.403H95.0426V55.5905H94.9957C94.9332 55.7207 94.8291 55.86 94.6832 56.0085C94.5374 56.1569 94.3434 56.2832 94.1012 56.3874C93.859 56.4915 93.5634 56.5436 93.2145 56.5436ZM93.3551 55.7155C93.7197 55.7155 94.027 55.6439 94.277 55.5006C94.5296 55.3574 94.7197 55.1725 94.8473 54.946C94.9775 54.7194 95.0426 54.4811 95.0426 54.2311V53.3874C95.0035 53.4342 94.9176 53.4772 94.7848 53.5163C94.6546 53.5527 94.5035 53.5853 94.3317 53.6139C94.1624 53.64 93.997 53.6634 93.8356 53.6842C93.6767 53.7025 93.5478 53.7181 93.4489 53.7311C93.2093 53.7624 92.9853 53.8131 92.777 53.8835C92.5713 53.9512 92.4046 54.054 92.277 54.192C92.152 54.3275 92.0895 54.5124 92.0895 54.7467C92.0895 55.067 92.208 55.3092 92.445 55.4733C92.6845 55.6348 92.9879 55.7155 93.3551 55.7155ZM100.335 50.403V51.1842H97.2257V50.403H100.335ZM98.1319 48.9655H99.0538V54.6842C99.0538 54.9447 99.0916 55.14 99.1671 55.2702C99.2452 55.3978 99.3442 55.4837 99.464 55.528C99.5863 55.5697 99.7153 55.5905 99.8507 55.5905C99.9522 55.5905 100.036 55.5853 100.101 55.5749C100.166 55.5618 100.218 55.5514 100.257 55.5436L100.444 56.3717C100.382 56.3952 100.295 56.4186 100.183 56.442C100.071 56.4681 99.9288 56.4811 99.7569 56.4811C99.4965 56.4811 99.2413 56.4251 98.9913 56.3131C98.7439 56.2012 98.5382 56.0306 98.3741 55.8014C98.2126 55.5723 98.1319 55.2832 98.1319 54.9342V48.9655ZM104.252 56.528C103.673 56.528 103.175 56.4004 102.755 56.1452C102.339 55.8874 102.017 55.528 101.791 55.067C101.567 54.6035 101.455 54.0644 101.455 53.4499C101.455 52.8353 101.567 52.2936 101.791 51.8249C102.017 51.3535 102.332 50.9863 102.736 50.7233C103.142 50.4577 103.616 50.3249 104.158 50.3249C104.47 50.3249 104.779 50.3769 105.084 50.4811C105.388 50.5853 105.666 50.7545 105.916 50.9889C106.166 51.2207 106.365 51.528 106.513 51.9108C106.662 52.2936 106.736 52.765 106.736 53.3249V53.7155H102.111V52.9186H105.798C105.798 52.5801 105.731 52.278 105.595 52.0124C105.462 51.7467 105.272 51.5371 105.025 51.3835C104.78 51.2298 104.491 51.153 104.158 51.153C103.791 51.153 103.473 51.2441 103.205 51.4264C102.939 51.6061 102.735 51.8405 102.591 52.1295C102.448 52.4186 102.377 52.7285 102.377 53.0592V53.5905C102.377 54.0436 102.455 54.4277 102.611 54.7428C102.77 55.0553 102.99 55.2936 103.271 55.4577C103.552 55.6191 103.879 55.6999 104.252 55.6999C104.494 55.6999 104.712 55.666 104.908 55.5983C105.106 55.528 105.276 55.4238 105.419 55.2858C105.563 55.1452 105.673 54.9707 105.752 54.7624L106.642 55.0124C106.548 55.3144 106.391 55.5801 106.169 55.8092C105.948 56.0358 105.675 56.2129 105.349 56.3405C105.024 56.4655 104.658 56.528 104.252 56.528ZM113.905 56.528C113.327 56.528 112.828 56.4004 112.409 56.1452C111.992 55.8874 111.67 55.528 111.444 55.067C111.22 54.6035 111.108 54.0644 111.108 53.4499C111.108 52.8353 111.22 52.2936 111.444 51.8249C111.67 51.3535 111.985 50.9863 112.389 50.7233C112.795 50.4577 113.269 50.3249 113.811 50.3249C114.123 50.3249 114.432 50.3769 114.737 50.4811C115.041 50.5853 115.319 50.7545 115.569 50.9889C115.819 51.2207 116.018 51.528 116.166 51.9108C116.315 52.2936 116.389 52.765 116.389 53.3249V53.7155H111.764V52.9186H115.452C115.452 52.5801 115.384 52.278 115.248 52.0124C115.116 51.7467 114.926 51.5371 114.678 51.3835C114.433 51.2298 114.144 51.153 113.811 51.153C113.444 51.153 113.126 51.2441 112.858 51.4264C112.592 51.6061 112.388 51.8405 112.245 52.1295C112.101 52.4186 112.03 52.7285 112.03 53.0592V53.5905C112.03 54.0436 112.108 54.4277 112.264 54.7428C112.423 55.0553 112.643 55.2936 112.924 55.4577C113.206 55.6191 113.532 55.6999 113.905 55.6999C114.147 55.6999 114.366 55.666 114.561 55.5983C114.759 55.528 114.929 55.4238 115.073 55.2858C115.216 55.1452 115.327 54.9707 115.405 54.7624L116.295 55.0124C116.202 55.3144 116.044 55.5801 115.823 55.8092C115.601 56.0358 115.328 56.2129 115.002 56.3405C114.677 56.4655 114.311 56.528 113.905 56.528ZM122.12 51.7467L121.292 51.9811C121.24 51.8431 121.163 51.709 121.061 51.5788C120.962 51.446 120.827 51.3366 120.655 51.2506C120.483 51.1647 120.263 51.1217 119.995 51.1217C119.628 51.1217 119.322 51.2064 119.077 51.3756C118.835 51.5423 118.714 51.7545 118.714 52.0124C118.714 52.2415 118.797 52.4225 118.964 52.5553C119.13 52.6881 119.391 52.7988 119.745 52.8874L120.636 53.1061C121.172 53.2363 121.572 53.4355 121.835 53.7038C122.098 53.9694 122.229 54.3118 122.229 54.7311C122.229 55.0749 122.13 55.3822 121.933 55.653C121.737 55.9238 121.464 56.1374 121.112 56.2936C120.761 56.4499 120.352 56.528 119.886 56.528C119.274 56.528 118.767 56.3952 118.366 56.1295C117.965 55.8639 117.711 55.4759 117.604 54.9655L118.479 54.7467C118.563 55.0697 118.72 55.3118 118.952 55.4733C119.186 55.6348 119.492 55.7155 119.87 55.7155C120.3 55.7155 120.641 55.6243 120.893 55.442C121.149 55.2572 121.276 55.0358 121.276 54.778C121.276 54.5697 121.203 54.3952 121.058 54.2545C120.912 54.1113 120.688 54.0045 120.386 53.9342L119.386 53.6999C118.836 53.5697 118.433 53.3678 118.175 53.0944C117.92 52.8183 117.792 52.4733 117.792 52.0592C117.792 51.7207 117.887 51.4212 118.077 51.1608C118.27 50.9004 118.531 50.696 118.862 50.5475C119.196 50.3991 119.573 50.3249 119.995 50.3249C120.589 50.3249 121.055 50.4551 121.393 50.7155C121.735 50.9759 121.977 51.3197 122.12 51.7467ZM127.946 51.7467L127.118 51.9811C127.065 51.8431 126.989 51.709 126.887 51.5788C126.788 51.446 126.653 51.3366 126.481 51.2506C126.309 51.1647 126.089 51.1217 125.821 51.1217C125.453 51.1217 125.147 51.2064 124.903 51.3756C124.661 51.5423 124.539 51.7545 124.539 52.0124C124.539 52.2415 124.623 52.4225 124.789 52.5553C124.956 52.6881 125.217 52.7988 125.571 52.8874L126.461 53.1061C126.998 53.2363 127.397 53.4355 127.661 53.7038C127.924 53.9694 128.055 54.3118 128.055 54.7311C128.055 55.0749 127.956 55.3822 127.758 55.653C127.563 55.9238 127.289 56.1374 126.938 56.2936C126.586 56.4499 126.177 56.528 125.711 56.528C125.099 56.528 124.593 56.3952 124.192 56.1295C123.791 55.8639 123.537 55.4759 123.43 54.9655L124.305 54.7467C124.388 55.0697 124.546 55.3118 124.778 55.4733C125.012 55.6348 125.318 55.7155 125.696 55.7155C126.125 55.7155 126.467 55.6243 126.719 55.442C126.974 55.2572 127.102 55.0358 127.102 54.778C127.102 54.5697 127.029 54.3952 126.883 54.2545C126.737 54.1113 126.513 54.0045 126.211 53.9342L125.211 53.6999C124.662 53.5697 124.258 53.3678 124 53.0944C123.745 52.8183 123.618 52.4733 123.618 52.0592C123.618 51.7207 123.713 51.4212 123.903 51.1608C124.095 50.9004 124.357 50.696 124.688 50.5475C125.021 50.3991 125.399 50.3249 125.821 50.3249C126.414 50.3249 126.881 50.4551 127.219 50.7155C127.56 50.9759 127.802 51.3197 127.946 51.7467ZM132.037 56.528C131.459 56.528 130.96 56.4004 130.541 56.1452C130.124 55.8874 129.803 55.528 129.576 55.067C129.352 54.6035 129.24 54.0644 129.24 53.4499C129.24 52.8353 129.352 52.2936 129.576 51.8249C129.803 51.3535 130.118 50.9863 130.521 50.7233C130.928 50.4577 131.402 50.3249 131.943 50.3249C132.256 50.3249 132.564 50.3769 132.869 50.4811C133.174 50.5853 133.451 50.7545 133.701 50.9889C133.951 51.2207 134.15 51.528 134.299 51.9108C134.447 52.2936 134.521 52.765 134.521 53.3249V53.7155H129.896V52.9186H133.584C133.584 52.5801 133.516 52.278 133.381 52.0124C133.248 51.7467 133.058 51.5371 132.81 51.3835C132.566 51.2298 132.277 51.153 131.943 51.153C131.576 51.153 131.258 51.2441 130.99 51.4264C130.724 51.6061 130.52 51.8405 130.377 52.1295C130.234 52.4186 130.162 52.7285 130.162 53.0592V53.5905C130.162 54.0436 130.24 54.4277 130.396 54.7428C130.555 55.0553 130.775 55.2936 131.056 55.4577C131.338 55.6191 131.665 55.6999 132.037 55.6999C132.279 55.6999 132.498 55.666 132.693 55.5983C132.891 55.528 133.062 55.4238 133.205 55.2858C133.348 55.1452 133.459 54.9707 133.537 54.7624L134.428 55.0124C134.334 55.3144 134.176 55.5801 133.955 55.8092C133.734 56.0358 133.46 56.2129 133.135 56.3405C132.809 56.4655 132.443 56.528 132.037 56.528ZM140.94 56.5436C140.56 56.5436 140.215 56.472 139.905 56.3288C139.595 56.1829 139.349 55.9733 139.167 55.6999C138.984 55.4238 138.893 55.0905 138.893 54.6999C138.893 54.3561 138.961 54.0775 139.096 53.8639C139.232 53.6478 139.413 53.4785 139.639 53.3561C139.866 53.2337 140.116 53.1426 140.389 53.0827C140.665 53.0202 140.943 52.9707 141.221 52.9342C141.586 52.8874 141.882 52.8522 142.108 52.8288C142.337 52.8027 142.504 52.7598 142.608 52.6999C142.715 52.64 142.768 52.5358 142.768 52.3874V52.3561C142.768 51.9707 142.663 51.6712 142.452 51.4577C142.244 51.2441 141.927 51.1374 141.503 51.1374C141.063 51.1374 140.718 51.2337 140.468 51.4264C140.218 51.6191 140.042 51.8249 139.94 52.0436L139.065 51.7311C139.221 51.3665 139.43 51.0827 139.69 50.8795C139.953 50.6738 140.24 50.5306 140.55 50.4499C140.862 50.3665 141.169 50.3249 141.471 50.3249C141.664 50.3249 141.885 50.3483 142.135 50.3952C142.388 50.4394 142.632 50.5319 142.866 50.6725C143.103 50.8131 143.3 51.0254 143.456 51.3092C143.612 51.5931 143.69 51.9733 143.69 52.4499V56.403H142.768V55.5905H142.721C142.659 55.7207 142.555 55.86 142.409 56.0085C142.263 56.1569 142.069 56.2832 141.827 56.3874C141.585 56.4915 141.289 56.5436 140.94 56.5436ZM141.081 55.7155C141.445 55.7155 141.753 55.6439 142.003 55.5006C142.255 55.3574 142.445 55.1725 142.573 54.946C142.703 54.7194 142.768 54.4811 142.768 54.2311V53.3874C142.729 53.4342 142.643 53.4772 142.51 53.5163C142.38 53.5527 142.229 53.5853 142.057 53.6139C141.888 53.64 141.723 53.6634 141.561 53.6842C141.402 53.7025 141.274 53.7181 141.175 53.7311C140.935 53.7624 140.711 53.8131 140.503 53.8835C140.297 53.9512 140.13 54.054 140.003 54.192C139.878 54.3275 139.815 54.5124 139.815 54.7467C139.815 55.067 139.934 55.3092 140.171 55.4733C140.41 55.6348 140.714 55.7155 141.081 55.7155ZM146.373 52.7936V56.403H145.451V50.403H146.342V51.3405H146.42C146.561 51.0358 146.774 50.791 147.061 50.6061C147.347 50.4186 147.717 50.3249 148.17 50.3249C148.576 50.3249 148.932 50.4082 149.237 50.5749C149.541 50.7389 149.778 50.9889 149.947 51.3249C150.117 51.6582 150.201 52.0801 150.201 52.5905V56.403H149.279V52.653C149.279 52.1816 149.157 51.8144 148.912 51.5514C148.668 51.2858 148.332 51.153 147.904 51.153C147.61 51.153 147.347 51.2168 147.115 51.3444C146.886 51.472 146.705 51.6582 146.572 51.903C146.44 52.1478 146.373 52.4447 146.373 52.7936ZM154.402 56.528C153.86 56.528 153.385 56.3991 152.976 56.1413C152.57 55.8835 152.252 55.5228 152.023 55.0592C151.797 54.5957 151.683 54.054 151.683 53.4342C151.683 52.8092 151.797 52.2637 152.023 51.7975C152.252 51.3314 152.57 50.9694 152.976 50.7116C153.385 50.4538 153.86 50.3249 154.402 50.3249C154.944 50.3249 155.418 50.4538 155.824 50.7116C156.233 50.9694 156.55 51.3314 156.777 51.7975C157.006 52.2637 157.121 52.8092 157.121 53.4342C157.121 54.054 157.006 54.5957 156.777 55.0592C156.55 55.5228 156.233 55.8835 155.824 56.1413C155.418 56.3991 154.944 56.528 154.402 56.528ZM154.402 55.6999C154.813 55.6999 155.152 55.5944 155.418 55.3835C155.683 55.1725 155.88 54.8952 156.007 54.5514C156.135 54.2077 156.199 53.8353 156.199 53.4342C156.199 53.0332 156.135 52.6595 156.007 52.3131C155.88 51.9668 155.683 51.6868 155.418 51.4733C155.152 51.2598 154.813 51.153 154.402 51.153C153.991 51.153 153.652 51.2598 153.386 51.4733C153.121 51.6868 152.924 51.9668 152.797 52.3131C152.669 52.6595 152.605 53.0332 152.605 53.4342C152.605 53.8353 152.669 54.2077 152.797 54.5514C152.924 54.8952 153.121 55.1725 153.386 55.3835C153.652 55.5944 153.991 55.6999 154.402 55.6999Z" fill="#696974"/>
<path opacity="0.1" fill-rule="evenodd" clip-rule="evenodd" d="M212.333 60.5373C223.931 60.5373 233.333 51.1553 233.333 39.5821C233.333 28.0088 223.931 18.6269 212.333 18.6269C200.735 18.6269 191.333 28.0088 191.333 39.5821C191.333 51.1553 200.735 60.5373 212.333 60.5373Z" stroke="#3DD598" stroke-width="1.54"/>
<path fill-rule="evenodd" clip-rule="evenodd" d="M219.333 36.4776H205.333V38.806C205.333 39.2346 205.682 39.5821 206.111 39.5821H218.556C218.985 39.5821 219.333 39.2346 219.333 38.806V36.4776ZM208.444 34.9254C208.444 33.6395 209.489 32.597 210.778 32.597H213.889C215.178 32.597 216.222 33.6395 216.222 34.9254H219.333C220.192 34.9254 220.889 35.6203 220.889 36.4776V44.2388C220.889 45.9534 219.496 47.3433 217.778 47.3433H206.889C205.171 47.3433 203.778 45.9534 203.778 44.2388V36.4776C203.778 35.6203 204.474 34.9254 205.333 34.9254H208.444ZM210 34.9254H214.667C214.667 34.4967 214.318 34.1493 213.889 34.1493H210.778C210.348 34.1493 210 34.4967 210 34.9254ZM210 41.1343H206.111C205.838 41.1343 205.577 41.0876 205.333 41.0018V44.2388C205.333 45.0961 206.03 45.791 206.889 45.791H217.778C218.637 45.791 219.333 45.0961 219.333 44.2388V41.0018C219.09 41.0876 218.828 41.1343 218.556 41.1343H214.667V42.3761C214.667 42.9762 214.179 43.4627 213.578 43.4627H211.089C210.488 43.4627 210 42.9762 210 42.3761V41.1343ZM211.556 41.9104H213.111V41.1343H211.556V41.9104Z" fill="#3DD598"/>
<path d="M191.333 39.5821C191.333 51.1553 200.735 60.5373 212.333 60.5373V60.5373C223.931 60.5373 233.333 51.1553 233.333 39.5821C233.333 28.0088 223.931 18.6269 212.333 18.6269" stroke="#3DD598" stroke-width="1.54286" stroke-linecap="round" stroke-linejoin="round"/>
<path d="M240.444 31.4627L244.775 22.8917V22.8221H239.748V21.2809H246.684V22.8569L242.358 31.4627H240.444ZM251.898 31.6019C251.411 31.5986 250.935 31.5141 250.471 31.3483C250.007 31.1793 249.59 30.9059 249.219 30.528C248.847 30.1469 248.552 29.6414 248.334 29.0117C248.115 28.3786 248.007 27.5948 248.01 26.6601C248.01 25.7884 248.103 25.0112 248.289 24.3284C248.474 23.6457 248.741 23.069 249.089 22.5983C249.437 22.1244 249.857 21.7631 250.347 21.5145C250.841 21.2659 251.393 21.1417 252.003 21.1417C252.642 21.1417 253.209 21.2676 253.703 21.5195C254.2 21.7714 254.601 22.1161 254.906 22.5536C255.211 22.9878 255.4 23.4783 255.473 24.0252H253.658C253.565 23.6341 253.375 23.3225 253.086 23.0905C252.801 22.8552 252.44 22.7375 252.003 22.7375C251.297 22.7375 250.753 23.0441 250.372 23.6573C249.994 24.2704 249.804 25.1123 249.8 26.1828H249.87C250.032 25.8912 250.243 25.6409 250.501 25.4321C250.76 25.2233 251.051 25.0626 251.376 24.9499C251.704 24.8339 252.051 24.7759 252.415 24.7759C253.012 24.7759 253.547 24.9184 254.021 25.2034C254.498 25.4885 254.876 25.8812 255.155 26.3817C255.433 26.8789 255.571 27.4489 255.567 28.0919C255.571 28.7614 255.418 29.363 255.11 29.8966C254.802 30.4269 254.372 30.8445 253.822 31.1495C253.272 31.4544 252.631 31.6052 251.898 31.6019ZM251.888 30.1104C252.25 30.1104 252.573 30.0226 252.858 29.8469C253.143 29.6712 253.368 29.4343 253.534 29.136C253.7 28.8377 253.781 28.5029 253.778 28.1317C253.781 27.7671 253.701 27.4373 253.539 27.1424C253.38 26.8474 253.159 26.6137 252.878 26.4414C252.596 26.269 252.274 26.1828 251.913 26.1828C251.645 26.1828 251.394 26.2342 251.162 26.337C250.93 26.4397 250.728 26.5822 250.556 26.7645C250.384 26.9435 250.248 27.1523 250.148 27.3909C250.052 27.6263 250.002 27.8782 249.999 28.1466C250.002 28.5013 250.085 28.8277 250.248 29.126C250.41 29.4243 250.634 29.663 250.919 29.8419C251.204 30.0209 251.527 30.1104 251.888 30.1104ZM262.792 29.5536V29.0167C262.792 28.6222 262.874 28.2593 263.04 27.9279C263.209 27.5964 263.454 27.3296 263.776 27.1274C264.097 26.9253 264.487 26.8242 264.944 26.8242C265.415 26.8242 265.809 26.9253 266.128 27.1274C266.446 27.3263 266.686 27.5915 266.848 27.9229C267.014 28.2543 267.097 28.6189 267.097 29.0167V29.5536C267.097 29.948 267.014 30.3109 266.848 30.6424C266.683 30.9738 266.439 31.2406 266.118 31.4428C265.799 31.645 265.408 31.7461 264.944 31.7461C264.48 31.7461 264.087 31.645 263.766 31.4428C263.445 31.2406 263.201 30.9738 263.035 30.6424C262.873 30.3109 262.792 29.948 262.792 29.5536ZM264.089 29.0167V29.5536C264.089 29.8154 264.152 30.0557 264.278 30.2745C264.404 30.4932 264.626 30.6026 264.944 30.6026C265.266 30.6026 265.486 30.4949 265.605 30.2794C265.728 30.0607 265.789 29.8187 265.789 29.5536V29.0167C265.789 28.7515 265.731 28.5096 265.615 28.2908C265.499 28.0687 265.276 27.9577 264.944 27.9577C264.633 27.9577 264.412 28.0687 264.283 28.2908C264.154 28.5096 264.089 28.7515 264.089 29.0167ZM257.616 23.7269V23.1899C257.616 22.7922 257.701 22.4276 257.87 22.0962C258.039 21.7648 258.284 21.4996 258.605 21.3007C258.927 21.0986 259.316 20.9975 259.774 20.9975C260.241 20.9975 260.634 21.0986 260.952 21.3007C261.274 21.4996 261.516 21.7648 261.678 22.0962C261.84 22.4276 261.922 22.7922 261.922 23.1899V23.7269C261.922 24.1246 261.839 24.4892 261.673 24.8206C261.511 25.1488 261.269 25.4123 260.947 25.6111C260.626 25.81 260.235 25.9094 259.774 25.9094C259.306 25.9094 258.912 25.81 258.591 25.6111C258.272 25.4123 258.03 25.1471 257.865 24.8157C257.699 24.4842 257.616 24.1213 257.616 23.7269ZM258.924 23.1899V23.7269C258.924 23.992 258.985 24.234 259.108 24.4527C259.234 24.6682 259.456 24.7759 259.774 24.7759C260.092 24.7759 260.311 24.6682 260.43 24.4527C260.553 24.234 260.614 23.992 260.614 23.7269V23.1899C260.614 22.9248 260.556 22.6828 260.44 22.4641C260.324 22.242 260.102 22.131 259.774 22.131C259.459 22.131 259.239 22.242 259.113 22.4641C258.987 22.6862 258.924 22.9281 258.924 23.1899ZM258.183 31.4627L265.183 21.2809H266.426L259.426 31.4627H258.183Z" fill="#171725"/>
<path d="M242.917 56.2388H240.223V47.5115H243.036C243.883 47.5115 244.607 47.6862 245.209 48.0357C245.812 48.3823 246.273 48.8808 246.594 49.5314C246.915 50.1791 247.076 50.9547 247.076 51.8581C247.076 52.7672 246.914 53.5499 246.59 54.2061C246.266 54.8595 245.795 55.3624 245.175 55.7147C244.556 56.0641 243.803 56.2388 242.917 56.2388ZM241.28 55.3013H242.848C243.57 55.3013 244.168 55.1621 244.643 54.8837C245.117 54.6053 245.471 54.209 245.704 53.6948C245.937 53.1806 246.053 52.5683 246.053 51.8581C246.053 51.1536 245.938 50.547 245.708 50.0385C245.478 49.5272 245.134 49.1351 244.677 48.8624C244.219 48.5868 243.65 48.449 242.968 48.449H241.28V55.3013ZM251.542 56.3752C250.911 56.3752 250.367 56.236 249.91 55.9576C249.456 55.6763 249.105 55.2843 248.857 54.7814C248.613 54.2757 248.491 53.6877 248.491 53.0172C248.491 52.3468 248.613 51.7558 248.857 51.2445C249.105 50.7303 249.448 50.3297 249.889 50.0428C250.332 49.753 250.849 49.6081 251.44 49.6081C251.781 49.6081 252.117 49.6649 252.45 49.7786C252.782 49.8922 253.085 50.0769 253.357 50.3326C253.63 50.5854 253.848 50.9206 254.009 51.3382C254.171 51.7558 254.252 52.27 254.252 52.8808V53.307H249.207V52.4377H253.23C253.23 52.0683 253.156 51.7388 253.008 51.449C252.863 51.1593 252.656 50.9306 252.386 50.7629C252.119 50.5953 251.804 50.5115 251.44 50.5115C251.039 50.5115 250.693 50.611 250.4 50.8098C250.11 51.0058 249.887 51.2615 249.731 51.5769C249.575 51.8922 249.497 52.2303 249.497 52.5911V53.1706C249.497 53.6649 249.582 54.084 249.752 54.4277C249.926 54.7686 250.166 55.0286 250.473 55.2076C250.779 55.3837 251.136 55.4718 251.542 55.4718C251.806 55.4718 252.045 55.4348 252.258 55.361C252.474 55.2843 252.66 55.1706 252.816 55.0201C252.973 54.8666 253.093 54.6763 253.179 54.449L254.15 54.7218C254.048 55.0513 253.876 55.3411 253.634 55.5911C253.393 55.8382 253.095 56.0314 252.74 56.1706C252.384 56.307 251.985 56.3752 251.542 56.3752ZM257.794 56.3922C257.379 56.3922 257.003 56.3141 256.665 56.1578C256.327 55.9987 256.058 55.7701 255.859 55.4718C255.661 55.1706 255.561 54.807 255.561 54.3808C255.561 54.0058 255.635 53.7019 255.783 53.4689C255.93 53.2331 256.128 53.0485 256.375 52.9149C256.622 52.7814 256.895 52.682 257.193 52.6166C257.494 52.5485 257.797 52.4945 258.101 52.4547C258.499 52.4036 258.821 52.3652 259.068 52.3397C259.318 52.3112 259.5 52.2644 259.614 52.199C259.73 52.1337 259.788 52.02 259.788 51.8581V51.824C259.788 51.4036 259.673 51.0769 259.443 50.8439C259.216 50.611 258.871 50.4945 258.408 50.4945C257.928 50.4945 257.551 50.5996 257.278 50.8098C257.006 51.02 256.814 51.2445 256.703 51.4831L255.749 51.1422C255.919 50.7445 256.146 50.4348 256.43 50.2132C256.717 49.9888 257.03 49.8325 257.368 49.7445C257.709 49.6536 258.044 49.6081 258.374 49.6081C258.584 49.6081 258.825 49.6337 259.098 49.6848C259.374 49.7331 259.639 49.834 259.895 49.9874C260.153 50.1408 260.368 50.3723 260.538 50.682C260.709 50.9916 260.794 51.4064 260.794 51.9263V56.2388H259.788V55.3524H259.737C259.669 55.4945 259.555 55.6465 259.396 55.8084C259.237 55.9703 259.026 56.1081 258.761 56.2218C258.497 56.3354 258.175 56.3922 257.794 56.3922ZM257.947 55.4888C258.345 55.4888 258.68 55.4107 258.953 55.2544C259.229 55.0982 259.436 54.8965 259.575 54.6493C259.717 54.4022 259.788 54.1422 259.788 53.8695V52.949C259.746 53.0002 259.652 53.047 259.507 53.0897C259.365 53.1294 259.2 53.1649 259.013 53.1962C258.828 53.2246 258.648 53.2502 258.472 53.2729C258.298 53.2928 258.158 53.3098 258.05 53.324C257.788 53.3581 257.544 53.4135 257.317 53.4902C257.092 53.5641 256.911 53.6763 256.771 53.8269C256.635 53.9746 256.567 54.1763 256.567 54.432C256.567 54.7814 256.696 55.0456 256.955 55.2246C257.216 55.4007 257.547 55.4888 257.947 55.4888ZM263.721 47.5115V56.2388H262.715V47.5115H263.721ZM270.285 51.1593L269.382 51.4149C269.325 51.2644 269.241 51.1181 269.13 50.976C269.022 50.8311 268.875 50.7118 268.687 50.6181C268.5 50.5243 268.26 50.4774 267.967 50.4774C267.566 50.4774 267.233 50.5698 266.965 50.7544C266.701 50.9362 266.569 51.1678 266.569 51.449C266.569 51.699 266.66 51.8965 266.842 52.0414C267.024 52.1862 267.308 52.307 267.694 52.4036L268.666 52.6422C269.251 52.7843 269.687 53.0016 269.974 53.2942C270.261 53.584 270.404 53.9575 270.404 54.4149C270.404 54.7899 270.296 55.1252 270.081 55.4206C269.867 55.7161 269.569 55.949 269.186 56.1195C268.802 56.2899 268.356 56.3752 267.848 56.3752C267.18 56.3752 266.627 56.2303 266.19 55.9405C265.752 55.6507 265.475 55.2274 265.359 54.6706L266.314 54.432C266.404 54.7843 266.576 55.0485 266.829 55.2246C267.085 55.4007 267.419 55.4888 267.831 55.4888C268.299 55.4888 268.671 55.3894 268.947 55.1905C269.225 54.9888 269.365 54.7473 269.365 54.4661C269.365 54.2388 269.285 54.0485 269.126 53.8951C268.967 53.7388 268.723 53.6223 268.393 53.5456L267.302 53.2899C266.703 53.1479 266.262 52.9277 265.981 52.6294C265.703 52.3283 265.564 51.9519 265.564 51.5002C265.564 51.1308 265.667 50.8041 265.875 50.5201C266.085 50.236 266.37 50.0129 266.731 49.851C267.095 49.6891 267.507 49.6081 267.967 49.6081C268.615 49.6081 269.123 49.7502 269.492 50.0343C269.865 50.3183 270.129 50.6933 270.285 51.1593ZM278.209 56.3752C277.578 56.3752 277.034 56.236 276.577 55.9576C276.122 55.6763 275.772 55.2843 275.524 54.7814C275.28 54.2757 275.158 53.6877 275.158 53.0172C275.158 52.3468 275.28 51.7558 275.524 51.2445C275.772 50.7303 276.115 50.3297 276.556 50.0428C276.999 49.753 277.516 49.6081 278.107 49.6081C278.448 49.6081 278.784 49.6649 279.117 49.7786C279.449 49.8922 279.752 50.0769 280.024 50.3326C280.297 50.5854 280.514 50.9206 280.676 51.3382C280.838 51.7558 280.919 52.27 280.919 52.8808V53.307H275.874V52.4377H279.897C279.897 52.0683 279.823 51.7388 279.675 51.449C279.53 51.1593 279.323 50.9306 279.053 50.7629C278.786 50.5953 278.47 50.5115 278.107 50.5115C277.706 50.5115 277.36 50.611 277.067 50.8098C276.777 51.0058 276.554 51.2615 276.398 51.5769C276.242 51.8922 276.164 52.2303 276.164 52.5911V53.1706C276.164 53.6649 276.249 54.084 276.419 54.4277C276.593 54.7686 276.833 55.0286 277.139 55.2076C277.446 55.3837 277.803 55.4718 278.209 55.4718C278.473 55.4718 278.712 55.4348 278.925 55.361C279.141 55.2843 279.327 55.1706 279.483 55.0201C279.639 54.8666 279.76 54.6763 279.845 54.449L280.817 54.7218C280.715 55.0513 280.543 55.3411 280.301 55.5911C280.06 55.8382 279.762 56.0314 279.406 56.1706C279.051 56.307 278.652 56.3752 278.209 56.3752ZM287.171 51.1593L286.268 51.4149C286.211 51.2644 286.127 51.1181 286.016 50.976C285.908 50.8311 285.761 50.7118 285.573 50.6181C285.386 50.5243 285.146 50.4774 284.853 50.4774C284.452 50.4774 284.119 50.5698 283.852 50.7544C283.587 50.9362 283.455 51.1678 283.455 51.449C283.455 51.699 283.546 51.8965 283.728 52.0414C283.91 52.1862 284.194 52.307 284.58 52.4036L285.552 52.6422C286.137 52.7843 286.573 53.0016 286.86 53.2942C287.147 53.584 287.29 53.9575 287.29 54.4149C287.29 54.7899 287.183 55.1252 286.967 55.4206C286.754 55.7161 286.455 55.949 286.072 56.1195C285.688 56.2899 285.242 56.3752 284.734 56.3752C284.066 56.3752 283.513 56.2303 283.076 55.9405C282.638 55.6507 282.361 55.2274 282.245 54.6706L283.2 54.432C283.29 54.7843 283.462 55.0485 283.715 55.2246C283.971 55.4007 284.305 55.4888 284.717 55.4888C285.185 55.4888 285.558 55.3894 285.833 55.1905C286.111 54.9888 286.251 54.7473 286.251 54.4661C286.251 54.2388 286.171 54.0485 286.012 53.8951C285.853 53.7388 285.609 53.6223 285.279 53.5456L284.188 53.2899C283.589 53.1479 283.148 52.9277 282.867 52.6294C282.589 52.3283 282.45 51.9519 282.45 51.5002C282.45 51.1308 282.553 50.8041 282.761 50.5201C282.971 50.236 283.256 50.0129 283.617 49.851C283.981 49.6891 284.393 49.6081 284.853 49.6081C285.501 49.6081 286.009 49.7502 286.379 50.0343C286.751 50.3183 287.015 50.6933 287.171 51.1593ZM293.526 51.1593L292.623 51.4149C292.566 51.2644 292.482 51.1181 292.372 50.976C292.264 50.8311 292.116 50.7118 291.928 50.6181C291.741 50.5243 291.501 50.4774 291.208 50.4774C290.808 50.4774 290.474 50.5698 290.207 50.7544C289.943 50.9362 289.81 51.1678 289.81 51.449C289.81 51.699 289.901 51.8965 290.083 52.0414C290.265 52.1862 290.549 52.307 290.935 52.4036L291.907 52.6422C292.492 52.7843 292.928 53.0016 293.215 53.2942C293.502 53.584 293.646 53.9575 293.646 54.4149C293.646 54.7899 293.538 55.1252 293.322 55.4206C293.109 55.7161 292.81 55.949 292.427 56.1195C292.043 56.2899 291.597 56.3752 291.089 56.3752C290.421 56.3752 289.869 56.2303 289.431 55.9405C288.994 55.6507 288.717 55.2274 288.6 54.6706L289.555 54.432C289.646 54.7843 289.818 55.0485 290.07 55.2246C290.326 55.4007 290.66 55.4888 291.072 55.4888C291.541 55.4888 291.913 55.3894 292.188 55.1905C292.467 54.9888 292.606 54.7473 292.606 54.4661C292.606 54.2388 292.526 54.0485 292.367 53.8951C292.208 53.7388 291.964 53.6223 291.634 53.5456L290.543 53.2899C289.944 53.1479 289.504 52.9277 289.222 52.6294C288.944 52.3283 288.805 51.9519 288.805 51.5002C288.805 51.1308 288.908 50.8041 289.116 50.5201C289.326 50.236 289.612 50.0129 289.972 49.851C290.336 49.6891 290.748 49.6081 291.208 49.6081C291.856 49.6081 292.364 49.7502 292.734 50.0343C293.106 50.3183 293.37 50.6933 293.526 51.1593ZM297.99 56.3752C297.359 56.3752 296.815 56.236 296.357 55.9576C295.903 55.6763 295.552 55.2843 295.305 54.7814C295.061 54.2757 294.938 53.6877 294.938 53.0172C294.938 52.3468 295.061 51.7558 295.305 51.2445C295.552 50.7303 295.896 50.3297 296.336 50.0428C296.779 49.753 297.296 49.6081 297.887 49.6081C298.228 49.6081 298.565 49.6649 298.897 49.7786C299.23 49.8922 299.532 50.0769 299.805 50.3326C300.078 50.5854 300.295 50.9206 300.457 51.3382C300.619 51.7558 300.7 52.27 300.7 52.8808V53.307H295.654V52.4377H299.677C299.677 52.0683 299.603 51.7388 299.455 51.449C299.311 51.1593 299.103 50.9306 298.833 50.7629C298.566 50.5953 298.251 50.5115 297.887 50.5115C297.487 50.5115 297.14 50.611 296.848 50.8098C296.558 51.0058 296.335 51.2615 296.179 51.5769C296.022 51.8922 295.944 52.2303 295.944 52.5911V53.1706C295.944 53.6649 296.029 54.084 296.2 54.4277C296.373 54.7686 296.613 55.0286 296.92 55.2076C297.227 55.3837 297.583 55.4718 297.99 55.4718C298.254 55.4718 298.492 55.4348 298.705 55.361C298.921 55.2843 299.107 55.1706 299.264 55.0201C299.42 54.8666 299.541 54.6763 299.626 54.449L300.598 54.7218C300.495 55.0513 300.323 55.3411 300.082 55.5911C299.84 55.8382 299.542 56.0314 299.187 56.1706C298.832 56.307 298.433 56.3752 297.99 56.3752ZM307.702 56.3922C307.287 56.3922 306.911 56.3141 306.573 56.1578C306.235 55.9987 305.966 55.7701 305.768 55.4718C305.569 55.1706 305.469 54.807 305.469 54.3808C305.469 54.0058 305.543 53.7019 305.691 53.4689C305.839 53.2331 306.036 53.0485 306.283 52.9149C306.53 52.7814 306.803 52.682 307.101 52.6166C307.402 52.5485 307.705 52.4945 308.009 52.4547C308.407 52.4036 308.729 52.3652 308.976 52.3397C309.226 52.3112 309.408 52.2644 309.522 52.199C309.638 52.1337 309.697 52.02 309.697 51.8581V51.824C309.697 51.4036 309.581 51.0769 309.351 50.8439C309.124 50.611 308.779 50.4945 308.316 50.4945C307.836 50.4945 307.459 50.5996 307.187 50.8098C306.914 51.02 306.722 51.2445 306.611 51.4831L305.657 51.1422C305.827 50.7445 306.054 50.4348 306.339 50.2132C306.626 49.9888 306.938 49.8325 307.276 49.7445C307.617 49.6536 307.952 49.6081 308.282 49.6081C308.492 49.6081 308.733 49.6337 309.006 49.6848C309.282 49.7331 309.547 49.834 309.803 49.9874C310.062 50.1408 310.276 50.3723 310.447 50.682C310.617 50.9916 310.702 51.4064 310.702 51.9263V56.2388H309.697V55.3524H309.645C309.577 55.4945 309.464 55.6465 309.304 55.8084C309.145 55.9703 308.934 56.1081 308.67 56.2218C308.405 56.3354 308.083 56.3922 307.702 56.3922ZM307.856 55.4888C308.253 55.4888 308.589 55.4107 308.861 55.2544C309.137 55.0982 309.344 54.8965 309.483 54.6493C309.626 54.4022 309.697 54.1422 309.697 53.8695V52.949C309.654 53.0002 309.56 53.047 309.415 53.0897C309.273 53.1294 309.108 53.1649 308.921 53.1962C308.736 53.2246 308.556 53.2502 308.38 53.2729C308.206 53.2928 308.066 53.3098 307.958 53.324C307.697 53.3581 307.452 53.4135 307.225 53.4902C307.001 53.5641 306.819 53.6763 306.679 53.8269C306.543 53.9746 306.475 54.1763 306.475 54.432C306.475 54.7814 306.604 55.0456 306.863 55.2246C307.124 55.4007 307.455 55.4888 307.856 55.4888ZM313.629 52.3013V56.2388H312.624V49.6933H313.595V50.7161H313.68C313.834 50.3837 314.067 50.1166 314.379 49.9149C314.692 49.7104 315.095 49.6081 315.589 49.6081C316.033 49.6081 316.42 49.699 316.753 49.8808C317.085 50.0598 317.344 50.3326 317.528 50.699C317.713 51.0627 317.805 51.5229 317.805 52.0797V56.2388H316.8V52.1479C316.8 51.6337 316.666 51.2331 316.399 50.9462C316.132 50.6564 315.766 50.5115 315.3 50.5115C314.979 50.5115 314.692 50.5811 314.439 50.7203C314.189 50.8595 313.991 51.0627 313.847 51.3297C313.702 51.5968 313.629 51.9206 313.629 52.3013ZM322.388 56.3752C321.797 56.3752 321.278 56.2345 320.832 55.9533C320.389 55.672 320.043 55.2786 319.793 54.7729C319.546 54.2672 319.422 53.6763 319.422 53.0002C319.422 52.3183 319.546 51.7232 319.793 51.2147C320.043 50.7061 320.389 50.3112 320.832 50.03C321.278 49.7487 321.797 49.6081 322.388 49.6081C322.979 49.6081 323.496 49.7487 323.939 50.03C324.385 50.3112 324.732 50.7061 324.979 51.2147C325.229 51.7232 325.354 52.3183 325.354 53.0002C325.354 53.6763 325.229 54.2672 324.979 54.7729C324.732 55.2786 324.385 55.672 323.939 55.9533C323.496 56.2345 322.979 56.3752 322.388 56.3752ZM322.388 55.4718C322.837 55.4718 323.206 55.3567 323.496 55.1266C323.786 54.8965 324 54.5939 324.139 54.2189C324.278 53.8439 324.348 53.4377 324.348 53.0002C324.348 52.5627 324.278 52.155 324.139 51.7772C324 51.3993 323.786 51.0939 323.496 50.861C323.206 50.628 322.837 50.5115 322.388 50.5115C321.939 50.5115 321.57 50.628 321.28 50.861C320.99 51.0939 320.776 51.3993 320.636 51.7772C320.497 52.155 320.428 52.5627 320.428 53.0002C320.428 53.4377 320.497 53.8439 320.636 54.2189C320.776 54.5939 320.99 54.8965 321.28 55.1266C321.57 55.3567 321.939 55.4718 322.388 55.4718Z" fill="#696974"/>
</g>
</svg>
