<svg width="300" height="290" viewBox="0 0 300 290" fill="none" xmlns="http://www.w3.org/2000/svg">
<g clip-path="url(#clip0_35_441)">
<rect x="1" y="1" width="298" height="288" rx="19" fill="white" stroke="#E9E6F7" stroke-width="2"/>
<mask id="mask0_35_441" style="mask-type:luminance" maskUnits="userSpaceOnUse" x="0" y="0" width="300" height="290">
<rect width="300" height="290" rx="20" fill="white"/>
</mask>
<g mask="url(#mask0_35_441)">
</g>
<g clip-path="url(#clip1_35_441)">
<rect x="24" y="223" width="10.7477" height="12" rx="5.37383" fill="#0062FF"/>
<path d="M46.7283 234V223.818H47.9612V232.906H52.6942V234H46.7283ZM57.7459 234.159C57.0101 234.159 56.3754 233.997 55.8418 233.672C55.3115 233.344 54.9021 232.886 54.6138 232.3C54.3288 231.71 54.1862 231.024 54.1862 230.241C54.1862 229.459 54.3288 228.77 54.6138 228.173C54.9021 227.573 55.3032 227.106 55.8169 226.771C56.334 226.433 56.9372 226.264 57.6266 226.264C58.0243 226.264 58.4171 226.33 58.8048 226.463C59.1926 226.596 59.5456 226.811 59.8638 227.109C60.182 227.404 60.4355 227.795 60.6245 228.283C60.8134 228.77 60.9078 229.37 60.9078 230.082V230.58H55.0215V229.565H59.7146C59.7146 229.134 59.6285 228.75 59.4561 228.412C59.2871 228.074 59.0451 227.807 58.7303 227.612C58.4187 227.416 58.0508 227.318 57.6266 227.318C57.1593 227.318 56.7549 227.434 56.4135 227.666C56.0754 227.895 55.8153 228.193 55.633 228.561C55.4507 228.929 55.3595 229.323 55.3595 229.744V230.42C55.3595 230.997 55.459 231.486 55.6578 231.887C55.86 232.285 56.1401 232.588 56.498 232.797C56.856 233.002 57.2719 233.105 57.7459 233.105C58.0541 233.105 58.3325 233.062 58.5811 232.976C58.833 232.886 59.0501 232.754 59.2324 232.578C59.4147 232.399 59.5556 232.177 59.655 231.912L60.7885 232.23C60.6692 232.615 60.4687 232.953 60.187 233.244C59.9052 233.533 59.5572 233.758 59.1429 233.92C58.7286 234.08 58.2629 234.159 57.7459 234.159ZM65.0398 234.179C64.5559 234.179 64.1167 234.088 63.7223 233.906C63.3279 233.72 63.0147 233.453 62.7827 233.105C62.5507 232.754 62.4347 232.33 62.4347 231.832C62.4347 231.395 62.5209 231.04 62.6932 230.768C62.8655 230.493 63.0959 230.278 63.3843 230.122C63.6726 229.966 63.9908 229.85 64.3388 229.774C64.6901 229.695 65.0431 229.632 65.3977 229.585C65.8618 229.526 66.2379 229.481 66.5263 229.451C66.818 229.418 67.0301 229.363 67.1627 229.287C67.2986 229.211 67.3665 229.078 67.3665 228.889V228.849C67.3665 228.359 67.2323 227.978 66.9638 227.706C66.6986 227.434 66.2959 227.298 65.7557 227.298C65.1956 227.298 64.7564 227.421 64.4382 227.666C64.12 227.911 63.8963 228.173 63.7671 228.452L62.6534 228.054C62.8523 227.59 63.1174 227.229 63.4489 226.97C63.7836 226.708 64.1482 226.526 64.5426 226.423C64.9404 226.317 65.3315 226.264 65.7159 226.264C65.9612 226.264 66.2429 226.294 66.5611 226.354C66.8826 226.41 67.1925 226.528 67.4908 226.707C67.7924 226.886 68.0426 227.156 68.2415 227.517C68.4404 227.878 68.5398 228.362 68.5398 228.969V234H67.3665V232.966H67.3068C67.2273 233.132 67.0947 233.309 66.9091 233.498C66.7235 233.687 66.4766 233.848 66.1683 233.98C65.8601 234.113 65.4839 234.179 65.0398 234.179ZM65.2188 233.125C65.6828 233.125 66.0739 233.034 66.3921 232.852C66.7136 232.669 66.9555 232.434 67.1179 232.146C67.2836 231.857 67.3665 231.554 67.3665 231.236V230.162C67.3168 230.222 67.2074 230.276 67.0384 230.326C66.8727 230.372 66.6804 230.414 66.4617 230.45C66.2462 230.483 66.0358 230.513 65.8303 230.54C65.6281 230.563 65.464 230.583 65.3381 230.599C65.0332 230.639 64.7481 230.704 64.483 230.793C64.2211 230.879 64.009 231.01 63.8466 231.186C63.6875 231.358 63.608 231.594 63.608 231.892C63.608 232.3 63.7588 232.608 64.0604 232.817C64.3653 233.022 64.7514 233.125 65.2188 233.125ZM73.6648 234.159C73.0285 234.159 72.4667 233.998 71.9795 233.677C71.4922 233.352 71.1111 232.895 70.836 232.305C70.5609 231.711 70.4233 231.01 70.4233 230.202C70.4233 229.4 70.5609 228.704 70.836 228.114C71.1111 227.524 71.4939 227.068 71.9844 226.746C72.475 226.425 73.0417 226.264 73.6847 226.264C74.1819 226.264 74.5746 226.347 74.863 226.513C75.1546 226.675 75.3767 226.861 75.5292 227.07C75.6849 227.275 75.8059 227.444 75.8921 227.577H75.9915V223.818H77.1648V234H76.0313V232.827H75.8921C75.8059 232.966 75.6833 233.142 75.5242 233.354C75.3651 233.562 75.1381 233.75 74.8431 233.915C74.5481 234.078 74.1554 234.159 73.6648 234.159ZM73.8239 233.105C74.2946 233.105 74.6923 232.982 75.0171 232.737C75.3419 232.489 75.5888 232.146 75.7579 231.708C75.9269 231.267 76.0114 230.759 76.0114 230.182C76.0114 229.612 75.9286 229.113 75.7628 228.685C75.5971 228.254 75.3519 227.92 75.027 227.681C74.7022 227.439 74.3012 227.318 73.8239 227.318C73.3268 227.318 72.9125 227.446 72.581 227.701C72.2529 227.953 72.006 228.296 71.8403 228.73C71.6778 229.161 71.5966 229.645 71.5966 230.182C71.5966 230.725 71.6795 231.219 71.8452 231.663C72.0143 232.104 72.2628 232.455 72.591 232.717C72.9224 232.976 73.3334 233.105 73.8239 233.105ZM84.9857 228.074L83.9317 228.372C83.8654 228.196 83.7677 228.026 83.6384 227.86C83.5125 227.691 83.3401 227.552 83.1214 227.442C82.9026 227.333 82.6225 227.278 82.2812 227.278C81.8138 227.278 81.4244 227.386 81.1128 227.602C80.8046 227.814 80.6505 228.084 80.6505 228.412C80.6505 228.704 80.7565 228.934 80.9687 229.103C81.1808 229.272 81.5122 229.413 81.963 229.526L83.0965 229.804C83.7793 229.97 84.288 230.223 84.6228 230.565C84.9575 230.903 85.1249 231.339 85.1249 231.872C85.1249 232.31 84.999 232.701 84.7471 233.045C84.4985 233.39 84.1505 233.662 83.703 233.861C83.2556 234.06 82.7352 234.159 82.142 234.159C81.3631 234.159 80.7184 233.99 80.208 233.652C79.6976 233.314 79.3744 232.82 79.2385 232.17L80.3522 231.892C80.4582 232.303 80.6588 232.611 80.9537 232.817C81.252 233.022 81.6415 233.125 82.1221 233.125C82.6689 233.125 83.1031 233.009 83.4246 232.777C83.7494 232.542 83.9118 232.26 83.9118 231.932C83.9118 231.667 83.819 231.445 83.6334 231.266C83.4478 231.083 83.1628 230.947 82.7783 230.858L81.5056 230.56C80.8063 230.394 80.2925 230.137 79.9644 229.789C79.6396 229.438 79.4772 228.999 79.4772 228.472C79.4772 228.041 79.5982 227.66 79.8401 227.328C80.0854 226.997 80.4185 226.737 80.8394 226.548C81.2636 226.359 81.7442 226.264 82.2812 226.264C83.0368 226.264 83.6301 226.43 84.061 226.761C84.4952 227.093 84.8034 227.53 84.9857 228.074ZM90.3121 226.364V227.358H86.3547V226.364H90.3121ZM87.5081 224.534H88.6814V231.812C88.6814 232.144 88.7295 232.393 88.8256 232.558C88.925 232.721 89.051 232.83 89.2034 232.886C89.3592 232.939 89.5233 232.966 89.6956 232.966C89.8249 232.966 89.9309 232.959 90.0138 232.946C90.0967 232.929 90.1629 232.916 90.2127 232.906L90.4513 233.96C90.3718 233.99 90.2607 234.02 90.1182 234.05C89.9757 234.083 89.795 234.099 89.5763 234.099C89.2449 234.099 88.92 234.028 88.6019 233.886C88.287 233.743 88.0252 233.526 87.8164 233.234C87.6109 232.943 87.5081 232.575 87.5081 232.131V224.534ZM95.2967 234.159C94.5609 234.159 93.9262 233.997 93.3926 233.672C92.8623 233.344 92.4529 232.886 92.1646 232.3C91.8795 231.71 91.737 231.024 91.737 230.241C91.737 229.459 91.8795 228.77 92.1646 228.173C92.4529 227.573 92.854 227.106 93.3677 226.771C93.8847 226.433 94.488 226.264 95.1774 226.264C95.5751 226.264 95.9678 226.33 96.3556 226.463C96.7434 226.596 97.0964 226.811 97.4146 227.109C97.7328 227.404 97.9863 227.795 98.1752 228.283C98.3642 228.77 98.4586 229.37 98.4586 230.082V230.58H92.5722V229.565H97.2654C97.2654 229.134 97.1793 228.75 97.0069 228.412C96.8379 228.074 96.5959 227.807 96.2811 227.612C95.9695 227.416 95.6016 227.318 95.1774 227.318C94.71 227.318 94.3057 227.434 93.9643 227.666C93.6262 227.895 93.366 228.193 93.1838 228.561C93.0015 228.929 92.9103 229.323 92.9103 229.744V230.42C92.9103 230.997 93.0097 231.486 93.2086 231.887C93.4108 232.285 93.6909 232.588 94.0488 232.797C94.4068 233.002 94.8227 233.105 95.2967 233.105C95.6049 233.105 95.8833 233.062 96.1319 232.976C96.3838 232.886 96.6009 232.754 96.7832 232.578C96.9655 232.399 97.1063 232.177 97.2058 231.912L98.3393 232.23C98.22 232.615 98.0195 232.953 97.7377 233.244C97.456 233.533 97.108 233.758 96.6937 233.92C96.2794 234.08 95.8137 234.159 95.2967 234.159ZM100.343 234V226.364H101.477V227.517H101.556C101.696 227.139 101.948 226.833 102.312 226.597C102.677 226.362 103.088 226.244 103.545 226.244C103.631 226.244 103.739 226.246 103.868 226.249C103.998 226.253 104.095 226.258 104.162 226.264V227.457C104.122 227.447 104.031 227.433 103.888 227.413C103.749 227.389 103.601 227.378 103.446 227.378C103.074 227.378 102.743 227.456 102.451 227.612C102.163 227.764 101.934 227.976 101.765 228.248C101.6 228.516 101.517 228.823 101.517 229.168V234H100.343Z" fill="#44444F"/>
<path d="M110.807 235V233.449L114.431 230.093C114.739 229.795 114.998 229.526 115.206 229.288C115.419 229.049 115.579 228.815 115.689 228.587C115.798 228.355 115.853 228.104 115.853 227.836C115.853 227.538 115.785 227.281 115.649 227.065C115.513 226.847 115.327 226.679 115.092 226.563C114.857 226.444 114.59 226.384 114.292 226.384C113.98 226.384 113.708 226.447 113.476 226.573C113.244 226.699 113.065 226.88 112.939 227.115C112.813 227.35 112.75 227.63 112.75 227.955H110.707C110.707 227.289 110.858 226.711 111.16 226.22C111.461 225.73 111.884 225.35 112.427 225.082C112.971 224.813 113.597 224.679 114.307 224.679C115.036 224.679 115.67 224.808 116.211 225.067C116.754 225.322 117.177 225.677 117.478 226.131C117.78 226.585 117.931 227.105 117.931 227.692C117.931 228.076 117.855 228.456 117.702 228.83C117.553 229.205 117.286 229.621 116.902 230.078C116.517 230.532 115.975 231.077 115.276 231.714L113.79 233.17V233.24H118.065V235H110.807ZM120.983 235.129C120.655 235.129 120.373 235.013 120.138 234.781C119.906 234.546 119.79 234.264 119.79 233.936C119.79 233.611 119.906 233.333 120.138 233.101C120.373 232.869 120.655 232.753 120.983 232.753C121.301 232.753 121.579 232.869 121.818 233.101C122.057 233.333 122.176 233.611 122.176 233.936C122.176 234.155 122.12 234.355 122.007 234.538C121.898 234.717 121.753 234.861 121.574 234.97C121.395 235.076 121.198 235.129 120.983 235.129ZM127.153 224.818V235H125V226.862H124.941L122.609 228.323V226.414L125.13 224.818H127.153ZM131.612 232.803L131.617 230.262H131.925L134.371 227.364H136.802L133.516 231.202H133.014L131.612 232.803ZM129.693 235V224.818H131.811V235H129.693ZM134.466 235L132.218 231.674L133.63 230.178L136.946 235H134.466Z" fill="#44444F"/>
</g>
<rect x="162" y="223" width="10" height="12" rx="5" fill="#FF974A"/>
<path d="M183.233 234V223.818H184.466V228.352H189.895V223.818H191.128V234H189.895V229.446H184.466V234H183.233ZM196.639 234.159C195.95 234.159 195.345 233.995 194.825 233.667C194.308 233.339 193.903 232.88 193.612 232.29C193.323 231.7 193.179 231.01 193.179 230.222C193.179 229.426 193.323 228.732 193.612 228.138C193.903 227.545 194.308 227.085 194.825 226.756C195.345 226.428 195.95 226.264 196.639 226.264C197.329 226.264 197.932 226.428 198.449 226.756C198.969 227.085 199.374 227.545 199.662 228.138C199.954 228.732 200.1 229.426 200.1 230.222C200.1 231.01 199.954 231.7 199.662 232.29C199.374 232.88 198.969 233.339 198.449 233.667C197.932 233.995 197.329 234.159 196.639 234.159ZM196.639 233.105C197.163 233.105 197.594 232.971 197.932 232.702C198.27 232.434 198.52 232.081 198.683 231.643C198.845 231.206 198.926 230.732 198.926 230.222C198.926 229.711 198.845 229.236 198.683 228.795C198.52 228.354 198.27 227.998 197.932 227.726C197.594 227.454 197.163 227.318 196.639 227.318C196.116 227.318 195.685 227.454 195.347 227.726C195.009 227.998 194.758 228.354 194.596 228.795C194.434 229.236 194.352 229.711 194.352 230.222C194.352 230.732 194.434 231.206 194.596 231.643C194.758 232.081 195.009 232.434 195.347 232.702C195.685 232.971 196.116 233.105 196.639 233.105ZM207.4 228.074L206.346 228.372C206.279 228.196 206.182 228.026 206.052 227.86C205.927 227.691 205.754 227.552 205.535 227.442C205.317 227.333 205.037 227.278 204.695 227.278C204.228 227.278 203.838 227.386 203.527 227.602C203.219 227.814 203.065 228.084 203.065 228.412C203.065 228.704 203.171 228.934 203.383 229.103C203.595 229.272 203.926 229.413 204.377 229.526L205.511 229.804C206.193 229.97 206.702 230.223 207.037 230.565C207.372 230.903 207.539 231.339 207.539 231.872C207.539 232.31 207.413 232.701 207.161 233.045C206.913 233.39 206.565 233.662 206.117 233.861C205.67 234.06 205.149 234.159 204.556 234.159C203.777 234.159 203.132 233.99 202.622 233.652C202.112 233.314 201.788 232.82 201.653 232.17L202.766 231.892C202.872 232.303 203.073 232.611 203.368 232.817C203.666 233.022 204.056 233.125 204.536 233.125C205.083 233.125 205.517 233.009 205.839 232.777C206.163 232.542 206.326 232.26 206.326 231.932C206.326 231.667 206.233 231.445 206.047 231.266C205.862 231.083 205.577 230.947 205.192 230.858L203.92 230.56C203.22 230.394 202.707 230.137 202.378 229.789C202.054 229.438 201.891 228.999 201.891 228.472C201.891 228.041 202.012 227.66 202.254 227.328C202.499 226.997 202.833 226.737 203.253 226.548C203.678 226.359 204.158 226.264 204.695 226.264C205.451 226.264 206.044 226.43 206.475 226.761C206.909 227.093 207.217 227.53 207.4 228.074ZM212.726 226.364V227.358H208.769V226.364H212.726ZM209.922 224.534H211.095V231.812C211.095 232.144 211.144 232.393 211.24 232.558C211.339 232.721 211.465 232.83 211.617 232.886C211.773 232.939 211.937 232.966 212.11 232.966C212.239 232.966 212.345 232.959 212.428 232.946C212.511 232.929 212.577 232.916 212.627 232.906L212.865 233.96C212.786 233.99 212.675 234.02 212.532 234.05C212.39 234.083 212.209 234.099 211.99 234.099C211.659 234.099 211.334 234.028 211.016 233.886C210.701 233.743 210.439 233.526 210.23 233.234C210.025 232.943 209.922 232.575 209.922 232.131V224.534ZM214.591 234V226.364H215.764V234H214.591ZM215.188 225.091C214.959 225.091 214.762 225.013 214.596 224.857C214.434 224.701 214.352 224.514 214.352 224.295C214.352 224.077 214.434 223.889 214.596 223.734C214.762 223.578 214.959 223.5 215.188 223.5C215.416 223.5 215.612 223.578 215.774 223.734C215.94 223.889 216.023 224.077 216.023 224.295C216.023 224.514 215.94 224.701 215.774 224.857C215.612 225.013 215.416 225.091 215.188 225.091ZM219.187 229.406V234H218.013V226.364H219.147V227.557H219.246C219.425 227.169 219.697 226.857 220.062 226.622C220.426 226.384 220.897 226.264 221.474 226.264C221.991 226.264 222.443 226.37 222.831 226.582C223.219 226.791 223.52 227.109 223.736 227.537C223.951 227.961 224.059 228.498 224.059 229.148V234H222.885V229.227C222.885 228.627 222.73 228.16 222.418 227.825C222.107 227.487 221.679 227.318 221.135 227.318C220.761 227.318 220.426 227.399 220.131 227.562C219.84 227.724 219.609 227.961 219.44 228.273C219.271 228.584 219.187 228.962 219.187 229.406ZM229.385 237.023C228.818 237.023 228.331 236.95 227.924 236.804C227.516 236.661 227.176 236.473 226.904 236.237C226.636 236.005 226.422 235.757 226.263 235.491L227.198 234.835C227.304 234.974 227.438 235.134 227.6 235.312C227.763 235.495 227.985 235.652 228.267 235.785C228.552 235.921 228.924 235.989 229.385 235.989C230.002 235.989 230.51 235.839 230.911 235.541C231.312 235.243 231.513 234.776 231.513 234.139V232.588H231.414C231.327 232.727 231.205 232.9 231.046 233.105C230.89 233.307 230.665 233.488 230.37 233.647C230.078 233.803 229.683 233.881 229.186 233.881C228.57 233.881 228.016 233.735 227.526 233.443C227.039 233.152 226.652 232.727 226.367 232.17C226.086 231.614 225.945 230.937 225.945 230.142C225.945 229.36 226.082 228.679 226.357 228.099C226.633 227.515 227.015 227.065 227.506 226.746C227.996 226.425 228.563 226.264 229.206 226.264C229.703 226.264 230.098 226.347 230.389 226.513C230.684 226.675 230.91 226.861 231.066 227.07C231.225 227.275 231.347 227.444 231.433 227.577H231.553V226.364H232.686V234.219C232.686 234.875 232.537 235.409 232.239 235.82C231.944 236.234 231.546 236.537 231.046 236.729C230.549 236.925 229.995 237.023 229.385 237.023ZM229.345 232.827C229.816 232.827 230.214 232.719 230.539 232.504C230.863 232.288 231.11 231.978 231.279 231.574C231.448 231.17 231.533 230.686 231.533 230.122C231.533 229.572 231.45 229.086 231.284 228.665C231.119 228.245 230.873 227.915 230.549 227.676C230.224 227.437 229.823 227.318 229.345 227.318C228.848 227.318 228.434 227.444 228.102 227.696C227.774 227.948 227.527 228.286 227.362 228.71C227.199 229.134 227.118 229.605 227.118 230.122C227.118 230.652 227.201 231.121 227.367 231.529C227.536 231.933 227.784 232.252 228.112 232.484C228.444 232.712 228.855 232.827 229.345 232.827ZM238.136 234.159C237.4 234.159 236.765 233.997 236.232 233.672C235.701 233.344 235.292 232.886 235.004 232.3C234.719 231.71 234.576 231.024 234.576 230.241C234.576 229.459 234.719 228.77 235.004 228.173C235.292 227.573 235.693 227.106 236.207 226.771C236.724 226.433 237.327 226.264 238.016 226.264C238.414 226.264 238.807 226.33 239.195 226.463C239.582 226.596 239.935 226.811 240.254 227.109C240.572 227.404 240.825 227.795 241.014 228.283C241.203 228.77 241.298 229.37 241.298 230.082V230.58H235.411V229.565H240.104C240.104 229.134 240.018 228.75 239.846 228.412C239.677 228.074 239.435 227.807 239.12 227.612C238.809 227.416 238.441 227.318 238.016 227.318C237.549 227.318 237.145 227.434 236.803 227.666C236.465 227.895 236.205 228.193 236.023 228.561C235.841 228.929 235.749 229.323 235.749 229.744V230.42C235.749 230.997 235.849 231.486 236.048 231.887C236.25 232.285 236.53 232.588 236.888 232.797C237.246 233.002 237.662 233.105 238.136 233.105C238.444 233.105 238.722 233.062 238.971 232.976C239.223 232.886 239.44 232.754 239.622 232.578C239.805 232.399 239.945 232.177 240.045 231.912L241.178 232.23C241.059 232.615 240.858 232.953 240.577 233.244C240.295 233.533 239.947 233.758 239.533 233.92C239.118 234.08 238.653 234.159 238.136 234.159ZM243.182 234V226.364H244.316V227.517H244.396C244.535 227.139 244.787 226.833 245.151 226.597C245.516 226.362 245.927 226.244 246.384 226.244C246.47 226.244 246.578 226.246 246.707 226.249C246.837 226.253 246.934 226.258 247.001 226.264V227.457C246.961 227.447 246.87 227.433 246.727 227.413C246.588 227.389 246.441 227.378 246.285 227.378C245.914 227.378 245.582 227.456 245.29 227.612C245.002 227.764 244.773 227.976 244.604 228.248C244.439 228.516 244.356 228.823 244.356 229.168V234H243.182Z" fill="#44444F"/>
<path d="M259.255 223.818V234H257.102V225.862H257.043L254.711 227.323V225.414L257.232 223.818H259.255ZM263.714 231.803L263.719 229.262H264.027L266.473 226.364H268.904L265.618 230.202H265.116L263.714 231.803ZM261.795 234V223.818H263.913V234H261.795ZM266.568 234L264.32 230.674L265.732 229.178L269.048 234H266.568Z" fill="#44444F"/>
<rect x="24" y="257" width="10" height="12" rx="5" fill="#3DD598"/>
<path d="M45.233 257.818H46.7045L50.1648 266.27H50.2841L53.7443 257.818H55.2159V268H54.0625V260.264H53.9631L50.7812 268H49.6676L46.4858 260.264H46.3864V268H45.233V257.818ZM59.8761 268.179C59.3922 268.179 58.953 268.088 58.5586 267.906C58.1642 267.72 57.851 267.453 57.619 267.105C57.387 266.754 57.271 266.33 57.271 265.832C57.271 265.395 57.3572 265.04 57.5295 264.768C57.7019 264.493 57.9322 264.278 58.2206 264.122C58.5089 263.966 58.8271 263.85 59.1751 263.774C59.5264 263.695 59.8794 263.632 60.2341 263.585C60.6981 263.526 61.0743 263.481 61.3626 263.451C61.6543 263.418 61.8664 263.363 61.999 263.287C62.1349 263.211 62.2028 263.078 62.2028 262.889V262.849C62.2028 262.359 62.0686 261.978 61.8001 261.706C61.535 261.434 61.1323 261.298 60.592 261.298C60.0319 261.298 59.5927 261.421 59.2745 261.666C58.9564 261.911 58.7326 262.173 58.6034 262.452L57.4897 262.054C57.6886 261.59 57.9538 261.229 58.2852 260.97C58.6199 260.708 58.9845 260.526 59.3789 260.423C59.7767 260.317 60.1678 260.264 60.5522 260.264C60.7975 260.264 61.0792 260.294 61.3974 260.354C61.7189 260.41 62.0288 260.528 62.3271 260.707C62.6287 260.886 62.8789 261.156 63.0778 261.517C63.2767 261.878 63.3761 262.362 63.3761 262.969V268H62.2028V266.966H62.1431C62.0636 267.132 61.931 267.309 61.7454 267.498C61.5598 267.687 61.3129 267.848 61.0047 267.98C60.6964 268.113 60.3202 268.179 59.8761 268.179ZM60.0551 267.125C60.5191 267.125 60.9102 267.034 61.2284 266.852C61.5499 266.669 61.7918 266.434 61.9542 266.146C62.1199 265.857 62.2028 265.554 62.2028 265.236V264.162C62.1531 264.222 62.0437 264.276 61.8747 264.326C61.709 264.372 61.5167 264.414 61.298 264.45C61.0825 264.483 60.8721 264.513 60.6666 264.54C60.4644 264.563 60.3003 264.583 60.1744 264.599C59.8695 264.639 59.5844 264.704 59.3193 264.793C59.0574 264.879 58.8453 265.01 58.6829 265.186C58.5238 265.358 58.4443 265.594 58.4443 265.892C58.4443 266.3 58.5951 266.608 58.8967 266.817C59.2016 267.022 59.5877 267.125 60.0551 267.125ZM65.6176 268V260.364H66.7909V268H65.6176ZM66.2142 259.091C65.9855 259.091 65.7883 259.013 65.6226 258.857C65.4602 258.701 65.379 258.514 65.379 258.295C65.379 258.077 65.4602 257.889 65.6226 257.734C65.7883 257.578 65.9855 257.5 66.2142 257.5C66.4429 257.5 66.6384 257.578 66.8009 257.734C66.9666 257.889 67.0494 258.077 67.0494 258.295C67.0494 258.514 66.9666 258.701 66.8009 258.857C66.6384 259.013 66.4429 259.091 66.2142 259.091ZM70.2132 257.818V268H69.0399V257.818H70.2132ZM75.5644 268.159C74.8485 268.159 74.232 267.99 73.715 267.652C73.1979 267.314 72.8002 266.848 72.5218 266.255C72.2434 265.662 72.1042 264.984 72.1042 264.222C72.1042 263.446 72.2467 262.762 72.5317 262.168C72.8201 261.572 73.2211 261.106 73.7349 260.771C74.2519 260.433 74.8551 260.264 75.5445 260.264C76.0815 260.264 76.5654 260.364 76.9962 260.562C77.4271 260.761 77.7801 261.04 78.0552 261.398C78.3303 261.756 78.501 262.173 78.5673 262.651H77.394C77.3045 262.303 77.1056 261.994 76.7974 261.726C76.4924 261.454 76.0815 261.318 75.5644 261.318C75.107 261.318 74.706 261.437 74.3613 261.676C74.0199 261.911 73.7531 262.245 73.5609 262.675C73.3719 263.103 73.2775 263.605 73.2775 264.182C73.2775 264.772 73.3703 265.286 73.5559 265.723C73.7448 266.161 74.01 266.5 74.3513 266.742C74.696 266.984 75.1004 267.105 75.5644 267.105C75.8693 267.105 76.1461 267.052 76.3947 266.946C76.6433 266.84 76.8537 266.688 77.0261 266.489C77.1984 266.29 77.321 266.051 77.394 265.773H78.5673C78.501 266.223 78.3369 266.629 78.0751 266.991C77.8165 267.349 77.4735 267.634 77.046 267.846C76.6217 268.055 76.1279 268.159 75.5644 268.159ZM81.5558 263.406V268H80.3825V257.818H81.5558V261.557H81.6552C81.8342 261.162 82.1026 260.849 82.4606 260.617C82.8219 260.382 83.3024 260.264 83.9023 260.264C84.4227 260.264 84.8784 260.369 85.2695 260.577C85.6606 260.783 85.9639 261.099 86.1793 261.527C86.3981 261.951 86.5075 262.491 86.5075 263.148V268H85.3342V263.227C85.3342 262.621 85.1767 262.152 84.8619 261.82C84.5503 261.486 84.1178 261.318 83.5643 261.318C83.1798 261.318 82.8351 261.399 82.5302 261.562C82.2286 261.724 81.9899 261.961 81.8143 262.273C81.6419 262.584 81.5558 262.962 81.5558 263.406ZM88.7539 268V260.364H89.9272V268H88.7539ZM89.3505 259.091C89.1218 259.091 88.9246 259.013 88.7589 258.857C88.5965 258.701 88.5153 258.514 88.5153 258.295C88.5153 258.077 88.5965 257.889 88.7589 257.734C88.9246 257.578 89.1218 257.5 89.3505 257.5C89.5792 257.5 89.7748 257.578 89.9372 257.734C90.1029 257.889 90.1858 258.077 90.1858 258.295C90.1858 258.514 90.1029 258.701 89.9372 258.857C89.7748 259.013 89.5792 259.091 89.3505 259.091ZM92.1762 270.864V260.364H93.3097V261.577H93.4489C93.5351 261.444 93.6544 261.275 93.8069 261.07C93.9627 260.861 94.1847 260.675 94.4731 260.513C94.7647 260.347 95.1592 260.264 95.6563 260.264C96.2993 260.264 96.8661 260.425 97.3566 260.746C97.8471 261.068 98.2299 261.524 98.505 262.114C98.7801 262.704 98.9177 263.4 98.9177 264.202C98.9177 265.01 98.7801 265.711 98.505 266.305C98.2299 266.895 97.8488 267.352 97.3616 267.677C96.8744 267.998 96.3126 268.159 95.6762 268.159C95.1857 268.159 94.7929 268.078 94.4979 267.915C94.203 267.75 93.9759 267.562 93.8168 267.354C93.6577 267.142 93.5351 266.966 93.4489 266.827H93.3495V270.864H92.1762ZM93.3296 264.182C93.3296 264.759 93.4141 265.267 93.5832 265.708C93.7522 266.146 93.9991 266.489 94.3239 266.737C94.6487 266.982 95.0465 267.105 95.5171 267.105C96.0076 267.105 96.417 266.976 96.7451 266.717C97.0765 266.455 97.3251 266.104 97.4908 265.663C97.6599 265.219 97.7444 264.725 97.7444 264.182C97.7444 263.645 97.6615 263.161 97.4958 262.73C97.3334 262.296 97.0865 261.953 96.755 261.701C96.4269 261.446 96.0143 261.318 95.5171 261.318C95.0398 261.318 94.6388 261.439 94.314 261.681C93.9892 261.92 93.7439 262.254 93.5782 262.685C93.4125 263.113 93.3296 263.612 93.3296 264.182Z" fill="#44444F"/>
<path d="M108.255 257.818V268H106.102V259.862H106.043L103.711 261.323V259.414L106.232 257.818H108.255ZM111.486 268.129C111.158 268.129 110.876 268.013 110.641 267.781C110.409 267.546 110.293 267.264 110.293 266.936C110.293 266.611 110.409 266.333 110.641 266.101C110.876 265.869 111.158 265.753 111.486 265.753C111.804 265.753 112.082 265.869 112.321 266.101C112.56 266.333 112.679 266.611 112.679 266.936C112.679 267.155 112.623 267.355 112.51 267.538C112.401 267.717 112.256 267.861 112.077 267.97C111.898 268.076 111.701 268.129 111.486 268.129ZM117.99 257.679C118.514 257.679 119.018 257.767 119.502 257.942C119.989 258.118 120.423 258.398 120.804 258.783C121.189 259.167 121.492 259.678 121.714 260.314C121.94 260.947 122.054 261.724 122.057 262.646C122.057 263.511 121.959 264.283 121.764 264.962C121.572 265.638 121.295 266.214 120.934 266.688C120.572 267.161 120.137 267.523 119.626 267.771C119.116 268.017 118.546 268.139 117.916 268.139C117.236 268.139 116.637 268.008 116.116 267.746C115.596 267.481 115.177 267.122 114.858 266.668C114.544 266.21 114.353 265.696 114.287 265.126H116.41C116.492 265.498 116.666 265.786 116.932 265.991C117.197 266.194 117.525 266.295 117.916 266.295C118.579 266.295 119.083 266.006 119.427 265.43C119.772 264.85 119.946 264.056 119.949 263.048H119.88C119.727 263.347 119.522 263.603 119.263 263.819C119.005 264.031 118.708 264.195 118.373 264.311C118.042 264.427 117.689 264.485 117.314 264.485C116.714 264.485 116.179 264.344 115.709 264.062C115.238 263.781 114.867 263.393 114.595 262.899C114.323 262.405 114.187 261.842 114.187 261.209C114.184 260.526 114.341 259.918 114.66 259.384C114.978 258.851 115.422 258.433 115.992 258.131C116.565 257.826 117.231 257.676 117.99 257.679ZM118.005 259.369C117.671 259.369 117.372 259.449 117.111 259.608C116.852 259.767 116.646 259.981 116.494 260.249C116.345 260.518 116.272 260.818 116.275 261.149C116.275 261.484 116.348 261.786 116.494 262.054C116.643 262.319 116.845 262.531 117.101 262.69C117.359 262.846 117.654 262.924 117.986 262.924C118.234 262.924 118.464 262.878 118.677 262.785C118.889 262.692 119.073 262.564 119.228 262.402C119.388 262.236 119.512 262.046 119.601 261.83C119.691 261.615 119.736 261.386 119.736 261.144C119.732 260.823 119.656 260.528 119.507 260.259C119.358 259.991 119.152 259.775 118.89 259.613C118.629 259.451 118.334 259.369 118.005 259.369ZM125.588 265.803L125.593 263.262H125.901L128.347 260.364H130.778L127.492 264.202H126.99L125.588 265.803ZM123.669 268V257.818H125.787V268H123.669ZM128.441 268L126.194 264.674L127.606 263.178L130.922 268H128.441Z" fill="#44444F"/>
<g clip-path="url(#clip2_35_441)">
<rect x="162" y="257" width="11.5455" height="12" rx="5.77273" fill="#FFC542"/>
<path d="M186.324 268V257.818H189.764C190.56 257.818 191.213 257.954 191.723 258.226C192.233 258.494 192.611 258.864 192.857 259.335C193.102 259.805 193.224 260.34 193.224 260.94C193.224 261.54 193.102 262.072 192.857 262.536C192.611 263 192.235 263.365 191.728 263.63C191.221 263.892 190.573 264.023 189.784 264.023H187V262.909H189.744C190.288 262.909 190.725 262.83 191.057 262.67C191.392 262.511 191.634 262.286 191.783 261.994C191.935 261.699 192.011 261.348 192.011 260.94C192.011 260.533 191.935 260.176 191.783 259.871C191.63 259.567 191.387 259.331 191.052 259.165C190.717 258.996 190.275 258.912 189.724 258.912H187.557V268H186.324ZM191.116 263.426L193.622 268H192.19L189.724 263.426H191.116ZM198.021 268.159C197.385 268.159 196.823 267.998 196.336 267.677C195.849 267.352 195.468 266.895 195.193 266.305C194.917 265.711 194.78 265.01 194.78 264.202C194.78 263.4 194.917 262.704 195.193 262.114C195.468 261.524 195.85 261.068 196.341 260.746C196.831 260.425 197.398 260.264 198.041 260.264C198.538 260.264 198.931 260.347 199.219 260.513C199.511 260.675 199.733 260.861 199.886 261.07C200.041 261.275 200.162 261.444 200.249 261.577H200.348V257.818H201.521V268H200.388V266.827H200.249C200.162 266.966 200.04 267.142 199.881 267.354C199.722 267.562 199.495 267.75 199.2 267.915C198.905 268.078 198.512 268.159 198.021 268.159ZM198.18 267.105C198.651 267.105 199.049 266.982 199.374 266.737C199.698 266.489 199.945 266.146 200.114 265.708C200.283 265.267 200.368 264.759 200.368 264.182C200.368 263.612 200.285 263.113 200.119 262.685C199.954 262.254 199.708 261.92 199.384 261.681C199.059 261.439 198.658 261.318 198.18 261.318C197.683 261.318 197.269 261.446 196.938 261.701C196.609 261.953 196.362 262.296 196.197 262.73C196.034 263.161 195.953 263.645 195.953 264.182C195.953 264.725 196.036 265.219 196.202 265.663C196.371 266.104 196.619 266.455 196.947 266.717C197.279 266.976 197.69 267.105 198.18 267.105ZM209.66 260.364C209.601 259.86 209.359 259.469 208.935 259.19C208.51 258.912 207.99 258.773 207.373 258.773C206.923 258.773 206.528 258.846 206.19 258.991C205.855 259.137 205.594 259.338 205.405 259.593C205.219 259.848 205.126 260.138 205.126 260.463C205.126 260.735 205.191 260.969 205.32 261.164C205.453 261.356 205.622 261.517 205.827 261.646C206.033 261.772 206.248 261.877 206.474 261.96C206.699 262.039 206.906 262.104 207.095 262.153L208.129 262.432C208.394 262.501 208.689 262.598 209.014 262.72C209.342 262.843 209.655 263.01 209.954 263.222C210.255 263.431 210.504 263.7 210.699 264.028C210.895 264.356 210.993 264.759 210.993 265.236C210.993 265.786 210.849 266.283 210.56 266.727C210.275 267.171 209.858 267.524 209.307 267.786C208.761 268.048 208.096 268.179 207.314 268.179C206.585 268.179 205.953 268.061 205.42 267.826C204.889 267.591 204.472 267.263 204.167 266.842C203.865 266.421 203.694 265.932 203.655 265.375H204.927C204.961 265.759 205.09 266.078 205.315 266.33C205.544 266.578 205.832 266.764 206.18 266.886C206.532 267.006 206.909 267.065 207.314 267.065C207.784 267.065 208.207 266.989 208.582 266.837C208.956 266.681 209.253 266.465 209.471 266.19C209.69 265.912 209.8 265.587 209.8 265.216C209.8 264.878 209.705 264.603 209.516 264.391C209.327 264.179 209.079 264.006 208.77 263.874C208.462 263.741 208.129 263.625 207.771 263.526L206.518 263.168C205.723 262.939 205.093 262.612 204.629 262.188C204.165 261.764 203.933 261.209 203.933 260.523C203.933 259.953 204.087 259.455 204.395 259.031C204.707 258.604 205.125 258.272 205.648 258.037C206.175 257.798 206.764 257.679 207.413 257.679C208.069 257.679 208.653 257.797 209.163 258.032C209.674 258.264 210.078 258.582 210.376 258.987C210.678 259.391 210.837 259.85 210.854 260.364H209.66ZM216.282 260.364V261.358H212.325V260.364H216.282ZM213.478 258.534H214.651V265.812C214.651 266.144 214.699 266.393 214.795 266.558C214.895 266.721 215.021 266.83 215.173 266.886C215.329 266.939 215.493 266.966 215.665 266.966C215.795 266.966 215.901 266.959 215.984 266.946C216.066 266.929 216.133 266.916 216.182 266.906L216.421 267.96C216.342 267.99 216.231 268.02 216.088 268.05C215.945 268.083 215.765 268.099 215.546 268.099C215.215 268.099 214.89 268.028 214.572 267.886C214.257 267.743 213.995 267.526 213.786 267.234C213.581 266.943 213.478 266.575 213.478 266.131V258.534ZM220.394 268.179C219.91 268.179 219.471 268.088 219.076 267.906C218.682 267.72 218.369 267.453 218.137 267.105C217.905 266.754 217.789 266.33 217.789 265.832C217.789 265.395 217.875 265.04 218.047 264.768C218.22 264.493 218.45 264.278 218.738 264.122C219.027 263.966 219.345 263.85 219.693 263.774C220.044 263.695 220.397 263.632 220.752 263.585C221.216 263.526 221.592 263.481 221.88 263.451C222.172 263.418 222.384 263.363 222.517 263.287C222.653 263.211 222.721 263.078 222.721 262.889V262.849C222.721 262.359 222.586 261.978 222.318 261.706C222.053 261.434 221.65 261.298 221.11 261.298C220.55 261.298 220.111 261.421 219.792 261.666C219.474 261.911 219.25 262.173 219.121 262.452L218.008 262.054C218.206 261.59 218.472 261.229 218.803 260.97C219.138 260.708 219.502 260.526 219.897 260.423C220.295 260.317 220.686 260.264 221.07 260.264C221.315 260.264 221.597 260.294 221.915 260.354C222.237 260.41 222.547 260.528 222.845 260.707C223.147 260.886 223.397 261.156 223.596 261.517C223.795 261.878 223.894 262.362 223.894 262.969V268H222.721V266.966H222.661C222.581 267.132 222.449 267.309 222.263 267.498C222.078 267.687 221.831 267.848 221.523 267.98C221.214 268.113 220.838 268.179 220.394 268.179ZM220.573 267.125C221.037 267.125 221.428 267.034 221.746 266.852C222.068 266.669 222.31 266.434 222.472 266.146C222.638 265.857 222.721 265.554 222.721 265.236V264.162C222.671 264.222 222.562 264.276 222.393 264.326C222.227 264.372 222.035 264.414 221.816 264.45C221.6 264.483 221.39 264.513 221.184 264.54C220.982 264.563 220.818 264.583 220.692 264.599C220.387 264.639 220.102 264.704 219.837 264.793C219.575 264.879 219.363 265.01 219.201 265.186C219.042 265.358 218.962 265.594 218.962 265.892C218.962 266.3 219.113 266.608 219.415 266.817C219.719 267.022 220.106 267.125 220.573 267.125ZM229.457 260.364V261.358H225.499V260.364H229.457ZM226.653 258.534H227.826V265.812C227.826 266.144 227.874 266.393 227.97 266.558C228.069 266.721 228.195 266.83 228.348 266.886C228.504 266.939 228.668 266.966 228.84 266.966C228.969 266.966 229.075 266.959 229.158 266.946C229.241 266.929 229.307 266.916 229.357 266.906L229.596 267.96C229.516 267.99 229.405 268.02 229.263 268.05C229.12 268.083 228.939 268.099 228.721 268.099C228.389 268.099 228.064 268.028 227.746 267.886C227.431 267.743 227.17 267.526 226.961 267.234C226.755 266.943 226.653 266.575 226.653 266.131V258.534ZM231.321 268V260.364H232.495V268H231.321ZM231.918 259.091C231.689 259.091 231.492 259.013 231.326 258.857C231.164 258.701 231.083 258.514 231.083 258.295C231.083 258.077 231.164 257.889 231.326 257.734C231.492 257.578 231.689 257.5 231.918 257.5C232.147 257.5 232.342 257.578 232.505 257.734C232.67 257.889 232.753 258.077 232.753 258.295C232.753 258.514 232.67 258.701 232.505 258.857C232.342 259.013 232.147 259.091 231.918 259.091ZM237.846 268.159C237.157 268.159 236.552 267.995 236.031 267.667C235.514 267.339 235.11 266.88 234.818 266.29C234.53 265.7 234.386 265.01 234.386 264.222C234.386 263.426 234.53 262.732 234.818 262.138C235.11 261.545 235.514 261.085 236.031 260.756C236.552 260.428 237.157 260.264 237.846 260.264C238.535 260.264 239.139 260.428 239.656 260.756C240.176 261.085 240.58 261.545 240.869 262.138C241.16 262.732 241.306 263.426 241.306 264.222C241.306 265.01 241.16 265.7 240.869 266.29C240.58 266.88 240.176 267.339 239.656 267.667C239.139 267.995 238.535 268.159 237.846 268.159ZM237.846 267.105C238.37 267.105 238.801 266.971 239.139 266.702C239.477 266.434 239.727 266.081 239.889 265.643C240.052 265.206 240.133 264.732 240.133 264.222C240.133 263.711 240.052 263.236 239.889 262.795C239.727 262.354 239.477 261.998 239.139 261.726C238.801 261.454 238.37 261.318 237.846 261.318C237.322 261.318 236.891 261.454 236.553 261.726C236.215 261.998 235.965 262.354 235.803 262.795C235.64 263.236 235.559 263.711 235.559 264.222C235.559 264.732 235.64 265.206 235.803 265.643C235.965 266.081 236.215 266.434 236.553 266.702C236.891 266.971 237.322 267.105 237.846 267.105ZM244.37 263.406V268H243.197V260.364H244.331V261.557H244.43C244.609 261.169 244.881 260.857 245.245 260.622C245.61 260.384 246.081 260.264 246.657 260.264C247.174 260.264 247.627 260.37 248.015 260.582C248.402 260.791 248.704 261.109 248.919 261.537C249.135 261.961 249.243 262.498 249.243 263.148V268H248.069V263.227C248.069 262.627 247.914 262.16 247.602 261.825C247.29 261.487 246.863 261.318 246.319 261.318C245.945 261.318 245.61 261.399 245.315 261.562C245.023 261.724 244.793 261.961 244.624 262.273C244.455 262.584 244.37 262.962 244.37 263.406Z" fill="#44444F"/>
<path d="M258.255 257.818V268H256.102V259.862H256.043L253.711 261.323V259.414L256.232 257.818H258.255ZM264.494 268.139C263.791 268.139 263.165 268.01 262.614 267.751C262.068 267.493 261.633 267.137 261.312 266.683C260.99 266.228 260.823 265.708 260.81 265.121H262.898C262.921 265.516 263.087 265.836 263.395 266.081C263.703 266.326 264.069 266.449 264.494 266.449C264.832 266.449 265.13 266.374 265.389 266.225C265.65 266.073 265.854 265.862 266 265.594C266.149 265.322 266.224 265.01 266.224 264.659C266.224 264.301 266.148 263.986 265.995 263.714C265.846 263.443 265.639 263.231 265.374 263.078C265.108 262.926 264.805 262.848 264.464 262.844C264.166 262.844 263.876 262.906 263.594 263.028C263.315 263.151 263.098 263.318 262.943 263.531L261.028 263.188L261.511 257.818H267.735V259.578H263.286L263.022 262.129H263.082C263.261 261.877 263.531 261.668 263.892 261.502C264.253 261.336 264.658 261.254 265.105 261.254C265.718 261.254 266.265 261.398 266.746 261.686C267.226 261.974 267.606 262.371 267.884 262.874C268.163 263.375 268.3 263.951 268.297 264.604C268.3 265.29 268.141 265.9 267.82 266.434C267.501 266.964 267.056 267.382 266.482 267.687C265.912 267.988 265.249 268.139 264.494 268.139ZM270.828 268.129C270.5 268.129 270.218 268.013 269.983 267.781C269.751 267.546 269.635 267.264 269.635 266.936C269.635 266.611 269.751 266.333 269.983 266.101C270.218 265.869 270.5 265.753 270.828 265.753C271.146 265.753 271.425 265.869 271.663 266.101C271.902 266.333 272.021 266.611 272.021 266.936C272.021 267.155 271.965 267.355 271.852 267.538C271.743 267.717 271.599 267.861 271.42 267.97C271.241 268.076 271.043 268.129 270.828 268.129ZM273.86 268L278.081 259.648V259.578H273.164V257.818H280.308V259.603L276.082 268H273.86ZM283.822 265.803L283.827 263.262H284.136L286.582 260.364H289.013L285.727 264.202H285.224L283.822 265.803ZM281.903 268V257.818H284.021V268H281.903ZM286.676 268L284.429 264.674L285.841 263.178L289.157 268H286.676Z" fill="#44444F"/>
</g>
<path fill-rule="evenodd" clip-rule="evenodd" d="M274.586 27L270.293 22.7071C269.902 22.3166 269.902 21.6834 270.293 21.2929C270.683 20.9024 271.317 20.9024 271.707 21.2929L276.707 26.2929C277.098 26.6834 277.098 27.3166 276.707 27.7071L271.707 32.7071C271.317 33.0976 270.683 33.0976 270.293 32.7071C269.902 32.3166 269.902 31.6834 270.293 31.2929L274.586 27Z" fill="#92929D"/>
<path fill-rule="evenodd" clip-rule="evenodd" d="M25.4142 27L29.7071 31.2929C30.0976 31.6834 30.0976 32.3166 29.7071 32.7071C29.3166 33.0976 28.6834 33.0976 28.2929 32.7071L23.2929 27.7071C22.9024 27.3166 22.9024 26.6834 23.2929 26.2929L28.2929 21.2929C28.6834 20.9024 29.3166 20.9024 29.7071 21.2929C30.0976 21.6834 30.0976 22.3166 29.7071 22.7071L25.4142 27Z" fill="#92929D"/>
<path d="M135.034 31V29.4773L139.074 25.517C139.46 25.1269 139.782 24.7803 140.04 24.4773C140.297 24.1742 140.491 23.8807 140.619 23.5966C140.748 23.3125 140.812 23.0095 140.812 22.6875C140.812 22.3201 140.729 22.0057 140.562 21.7443C140.396 21.4792 140.167 21.2746 139.875 21.1307C139.583 20.9867 139.252 20.9148 138.881 20.9148C138.498 20.9148 138.163 20.9943 137.875 21.1534C137.587 21.3087 137.364 21.5303 137.205 21.8182C137.049 22.1061 136.972 22.4489 136.972 22.8466H134.966C134.966 22.108 135.134 21.4659 135.472 20.9205C135.809 20.375 136.273 19.9527 136.864 19.6534C137.458 19.3542 138.14 19.2045 138.909 19.2045C139.689 19.2045 140.375 19.3504 140.966 19.642C141.557 19.9337 142.015 20.3333 142.341 20.8409C142.67 21.3485 142.835 21.928 142.835 22.5795C142.835 23.0152 142.752 23.4432 142.585 23.8636C142.419 24.2841 142.125 24.75 141.705 25.2614C141.288 25.7727 140.703 26.392 139.949 27.1193L137.943 29.1591V29.2386H143.011V31H135.034ZM149.373 31.2216C148.437 31.2216 147.634 30.9848 146.964 30.5114C146.297 30.0341 145.784 29.3466 145.424 28.4489C145.068 27.5473 144.89 26.4621 144.89 25.1932C144.894 23.9242 145.073 22.8447 145.43 21.9545C145.789 21.0606 146.303 20.3788 146.969 19.9091C147.64 19.4394 148.441 19.2045 149.373 19.2045C150.305 19.2045 151.106 19.4394 151.776 19.9091C152.447 20.3788 152.96 21.0606 153.316 21.9545C153.676 22.8485 153.856 23.928 153.856 25.1932C153.856 26.4659 153.676 27.553 153.316 28.4545C152.96 29.3523 152.447 30.0379 151.776 30.5114C151.109 30.9848 150.308 31.2216 149.373 31.2216ZM149.373 29.4432C150.1 29.4432 150.674 29.0852 151.094 28.3693C151.519 27.6496 151.731 26.5909 151.731 25.1932C151.731 24.2689 151.634 23.4924 151.441 22.8636C151.248 22.2348 150.975 21.7614 150.623 21.4432C150.27 21.1212 149.854 20.9602 149.373 20.9602C148.649 20.9602 148.077 21.3201 147.657 22.0398C147.236 22.7557 147.024 23.8068 147.02 25.1932C147.017 26.1212 147.109 26.9015 147.299 27.5341C147.492 28.1667 147.765 28.6439 148.117 28.9659C148.469 29.2841 148.888 29.4432 149.373 29.4432ZM155.843 31V29.4773L159.883 25.517C160.27 25.1269 160.592 24.7803 160.849 24.4773C161.107 24.1742 161.3 23.8807 161.429 23.5966C161.557 23.3125 161.622 23.0095 161.622 22.6875C161.622 22.3201 161.539 22.0057 161.372 21.7443C161.205 21.4792 160.976 21.2746 160.684 21.1307C160.393 20.9867 160.061 20.9148 159.69 20.9148C159.307 20.9148 158.972 20.9943 158.684 21.1534C158.396 21.3087 158.173 21.5303 158.014 21.8182C157.859 22.1061 157.781 22.4489 157.781 22.8466H155.775C155.775 22.108 155.944 21.4659 156.281 20.9205C156.618 20.375 157.082 19.9527 157.673 19.6534C158.268 19.3542 158.95 19.2045 159.718 19.2045C160.499 19.2045 161.184 19.3504 161.775 19.642C162.366 19.9337 162.825 20.3333 163.15 20.8409C163.48 21.3485 163.645 21.928 163.645 22.5795C163.645 23.0152 163.561 23.4432 163.395 23.8636C163.228 24.2841 162.934 24.75 162.514 25.2614C162.097 25.7727 161.512 26.392 160.758 27.1193L158.753 29.1591V29.2386H163.821V31H155.843ZM165.881 31V29.4773L169.921 25.517C170.307 25.1269 170.629 24.7803 170.887 24.4773C171.144 24.1742 171.337 23.8807 171.466 23.5966C171.595 23.3125 171.659 23.0095 171.659 22.6875C171.659 22.3201 171.576 22.0057 171.409 21.7443C171.243 21.4792 171.014 21.2746 170.722 21.1307C170.43 20.9867 170.099 20.9148 169.728 20.9148C169.345 20.9148 169.01 20.9943 168.722 21.1534C168.434 21.3087 168.211 21.5303 168.051 21.8182C167.896 22.1061 167.818 22.4489 167.818 22.8466H165.813C165.813 22.108 165.981 21.4659 166.318 20.9205C166.656 20.375 167.12 19.9527 167.711 19.6534C168.305 19.3542 168.987 19.2045 169.756 19.2045C170.536 19.2045 171.222 19.3504 171.813 19.642C172.404 19.9337 172.862 20.3333 173.188 20.8409C173.517 21.3485 173.682 21.928 173.682 22.5795C173.682 23.0152 173.599 23.4432 173.432 23.8636C173.265 24.2841 172.972 24.75 172.551 25.2614C172.135 25.7727 171.55 26.392 170.796 27.1193L168.79 29.1591V29.2386H173.858V31H165.881Z" fill="#171725"/>
<path fill-rule="evenodd" clip-rule="evenodd" d="M150 192C185.346 192 214 163.346 214 128C214 92.6538 185.346 64 150 64C114.654 64 86 92.6538 86 128C86 163.346 114.654 192 150 192Z" stroke="#0062FF" stroke-width="5.12"/>
<path d="M87.8252 112.762C86.6324 117.646 86 122.749 86 128C86 152.037 99.2513 172.979 118.847 183.919" stroke="#3DD598" stroke-width="5.12" stroke-linecap="round" stroke-linejoin="round"/>
<path d="M118.934 183.968C128.134 189.085 138.726 192 150 192V192" stroke="#FF974A" stroke-width="5.12" stroke-linecap="round" stroke-linejoin="round"/>
<path d="M150 192C185.346 192 214 163.346 214 128C214 92.6538 185.346 64 150 64" stroke="#FFC542" stroke-width="5.12" stroke-linecap="round" stroke-linejoin="round"/>
<path d="M122.358 126.8V125.095L126.883 120.659C127.315 120.222 127.676 119.834 127.964 119.495C128.253 119.155 128.469 118.826 128.614 118.508C128.758 118.19 128.83 117.851 128.83 117.49C128.83 117.079 128.737 116.726 128.55 116.434C128.363 116.137 128.107 115.908 127.78 115.746C127.453 115.585 127.082 115.505 126.666 115.505C126.238 115.505 125.862 115.594 125.54 115.772C125.218 115.946 124.967 116.194 124.789 116.516C124.615 116.839 124.528 117.223 124.528 117.668H122.282C122.282 116.841 122.471 116.122 122.848 115.511C123.226 114.9 123.745 114.427 124.407 114.092C125.073 113.757 125.837 113.589 126.698 113.589C127.572 113.589 128.34 113.752 129.002 114.079C129.664 114.406 130.177 114.853 130.542 115.422C130.911 115.99 131.095 116.639 131.095 117.369C131.095 117.857 131.002 118.336 130.815 118.807C130.629 119.278 130.3 119.8 129.829 120.373C129.362 120.946 128.707 121.639 127.863 122.454L125.616 124.738V124.827H131.293V126.8H122.358ZM133.563 126.8V125.095L138.087 120.659C138.52 120.222 138.881 119.834 139.169 119.495C139.458 119.155 139.674 118.826 139.818 118.508C139.962 118.19 140.035 117.851 140.035 117.49C140.035 117.079 139.941 116.726 139.755 116.434C139.568 116.137 139.311 115.908 138.985 115.746C138.658 115.585 138.287 115.505 137.871 115.505C137.442 115.505 137.067 115.594 136.745 115.772C136.422 115.946 136.172 116.194 135.994 116.516C135.82 116.839 135.733 117.223 135.733 117.668H133.486C133.486 116.841 133.675 116.122 134.053 115.511C134.43 114.9 134.95 114.427 135.612 114.092C136.278 113.757 137.042 113.589 137.903 113.589C138.777 113.589 139.545 113.752 140.206 114.079C140.868 114.406 141.382 114.853 141.746 115.422C142.116 115.99 142.3 116.639 142.3 117.369C142.3 117.857 142.207 118.336 142.02 118.807C141.833 119.278 141.505 119.8 141.034 120.373C140.567 120.946 139.912 121.639 139.067 122.454L136.821 124.738V124.827H142.497V126.8H133.563ZM146.212 126.94C145.826 126.94 145.495 126.804 145.219 126.533C144.944 126.261 144.808 125.93 144.812 125.54C144.808 125.158 144.944 124.832 145.219 124.56C145.495 124.289 145.826 124.153 146.212 124.153C146.585 124.153 146.91 124.289 147.186 124.56C147.466 124.832 147.608 125.158 147.612 125.54C147.608 125.799 147.54 126.034 147.408 126.246C147.281 126.459 147.111 126.628 146.899 126.756C146.691 126.879 146.462 126.94 146.212 126.94ZM154.182 126.978C153.236 126.978 152.396 126.819 151.662 126.501C150.933 126.183 150.36 125.748 149.944 125.196C149.533 124.641 149.329 124.011 149.333 123.306C149.329 122.759 149.448 122.256 149.69 121.798C149.931 121.34 150.258 120.958 150.67 120.653C151.085 120.343 151.548 120.146 152.057 120.061V119.972C151.387 119.823 150.844 119.482 150.428 118.947C150.016 118.409 149.813 117.787 149.817 117.083C149.813 116.412 149.999 115.814 150.377 115.288C150.754 114.762 151.272 114.349 151.93 114.047C152.587 113.742 153.338 113.589 154.182 113.589C155.018 113.589 155.763 113.742 156.416 114.047C157.074 114.349 157.591 114.762 157.969 115.288C158.351 115.814 158.541 116.412 158.541 117.083C158.541 117.787 158.331 118.409 157.911 118.947C157.496 119.482 156.959 119.823 156.301 119.972V120.061C156.811 120.146 157.269 120.343 157.676 120.653C158.088 120.958 158.414 121.34 158.656 121.798C158.902 122.256 159.025 122.759 159.025 123.306C159.025 124.011 158.817 124.641 158.401 125.196C157.986 125.748 157.413 126.183 156.683 126.501C155.958 126.819 155.124 126.978 154.182 126.978ZM154.182 125.158C154.67 125.158 155.094 125.076 155.455 124.91C155.816 124.74 156.096 124.503 156.295 124.197C156.494 123.892 156.596 123.54 156.601 123.141C156.596 122.725 156.488 122.358 156.276 122.04C156.068 121.718 155.782 121.465 155.417 121.283C155.056 121.1 154.645 121.009 154.182 121.009C153.716 121.009 153.3 121.1 152.935 121.283C152.57 121.465 152.282 121.718 152.07 122.04C151.862 122.358 151.76 122.725 151.764 123.141C151.76 123.54 151.858 123.892 152.057 124.197C152.256 124.499 152.536 124.734 152.897 124.904C153.262 125.073 153.69 125.158 154.182 125.158ZM154.182 119.221C154.581 119.221 154.933 119.14 155.239 118.979C155.548 118.818 155.792 118.593 155.971 118.305C156.149 118.016 156.24 117.683 156.244 117.306C156.24 116.932 156.151 116.606 155.977 116.326C155.803 116.041 155.561 115.823 155.251 115.67C154.942 115.513 154.585 115.435 154.182 115.435C153.771 115.435 153.408 115.513 153.094 115.67C152.784 115.823 152.543 116.041 152.369 116.326C152.199 116.606 152.116 116.932 152.121 117.306C152.116 117.683 152.201 118.016 152.375 118.305C152.553 118.589 152.797 118.814 153.107 118.979C153.421 119.14 153.779 119.221 154.182 119.221ZM161.669 126.8L167.212 115.829V115.74H160.778V113.767H169.655V115.785L164.119 126.8H161.669ZM176.321 127.048C175.273 127.048 174.374 126.783 173.623 126.253C172.876 125.718 172.302 124.948 171.899 123.943C171.5 122.933 171.3 121.718 171.3 120.296C171.305 118.875 171.506 117.666 171.905 116.669C172.308 115.668 172.883 114.904 173.629 114.378C174.38 113.852 175.278 113.589 176.321 113.589C177.365 113.589 178.262 113.852 179.013 114.378C179.764 114.904 180.339 115.668 180.738 116.669C181.141 117.67 181.342 118.879 181.342 120.296C181.342 121.722 181.141 122.939 180.738 123.949C180.339 124.955 179.764 125.722 179.013 126.253C178.266 126.783 177.369 127.048 176.321 127.048ZM176.321 125.056C177.136 125.056 177.779 124.656 178.249 123.854C178.725 123.048 178.962 121.862 178.962 120.296C178.962 119.261 178.854 118.392 178.638 117.687C178.421 116.983 178.116 116.453 177.721 116.096C177.327 115.736 176.86 115.556 176.321 115.556C175.511 115.556 174.87 115.959 174.399 116.765C173.929 117.566 173.691 118.744 173.687 120.296C173.682 121.336 173.786 122.21 173.999 122.918C174.215 123.627 174.52 124.161 174.915 124.522C175.309 124.878 175.778 125.056 176.321 125.056Z" fill="#171725"/>
<path d="M111.056 141.484L112.991 146.969H113.067L115.002 141.484H115.829L113.436 148H112.622L110.229 141.484H111.056ZM116.806 148V143.113H117.557V148H116.806ZM117.188 142.298C117.042 142.298 116.916 142.248 116.809 142.149C116.706 142.049 116.654 141.929 116.654 141.789C116.654 141.649 116.706 141.529 116.809 141.43C116.916 141.33 117.042 141.28 117.188 141.28C117.334 141.28 117.46 141.33 117.564 141.43C117.67 141.529 117.723 141.649 117.723 141.789C117.723 141.929 117.67 142.049 117.564 142.149C117.46 142.248 117.334 142.298 117.188 142.298ZM122.458 144.207L121.784 144.398C121.741 144.286 121.679 144.177 121.596 144.07C121.515 143.962 121.405 143.873 121.265 143.803C121.125 143.733 120.946 143.698 120.727 143.698C120.428 143.698 120.179 143.767 119.98 143.905C119.782 144.041 119.684 144.214 119.684 144.424C119.684 144.61 119.752 144.758 119.887 144.866C120.023 144.974 120.235 145.064 120.524 145.136L121.249 145.315C121.686 145.421 122.012 145.583 122.226 145.801C122.44 146.018 122.547 146.297 122.547 146.638C122.547 146.918 122.467 147.168 122.306 147.389C122.147 147.61 121.924 147.784 121.637 147.911C121.351 148.038 121.018 148.102 120.638 148.102C120.14 148.102 119.727 147.994 119.401 147.777C119.074 147.561 118.867 147.245 118.78 146.829L119.493 146.651C119.561 146.914 119.689 147.111 119.878 147.243C120.069 147.374 120.318 147.44 120.626 147.44C120.976 147.44 121.253 147.366 121.459 147.217C121.667 147.067 121.771 146.886 121.771 146.676C121.771 146.507 121.712 146.365 121.593 146.25C121.474 146.133 121.292 146.046 121.046 145.989L120.231 145.798C119.783 145.692 119.455 145.528 119.245 145.305C119.037 145.08 118.933 144.799 118.933 144.462C118.933 144.186 119.01 143.942 119.165 143.73C119.322 143.518 119.535 143.351 119.805 143.23C120.076 143.11 120.384 143.049 120.727 143.049C121.211 143.049 121.591 143.155 121.867 143.367C122.144 143.579 122.342 143.859 122.458 144.207ZM123.742 148V143.113H124.493V148H123.742ZM124.124 142.298C123.977 142.298 123.851 142.248 123.745 142.149C123.641 142.049 123.589 141.929 123.589 141.789C123.589 141.649 123.641 141.529 123.745 141.43C123.851 141.33 123.977 141.28 124.124 141.28C124.27 141.28 124.395 141.33 124.499 141.43C124.605 141.529 124.658 141.649 124.658 141.789C124.658 141.929 124.605 142.049 124.499 142.149C124.395 142.248 124.27 142.298 124.124 142.298ZM128.057 143.113V143.749H125.525V143.113H128.057ZM126.263 141.942H127.014V146.6C127.014 146.812 127.045 146.971 127.106 147.077C127.17 147.181 127.25 147.251 127.348 147.287C127.448 147.321 127.553 147.338 127.663 147.338C127.746 147.338 127.814 147.334 127.867 147.325C127.92 147.315 127.962 147.306 127.994 147.3L128.147 147.975C128.096 147.994 128.025 148.013 127.933 148.032C127.842 148.053 127.727 148.064 127.587 148.064C127.374 148.064 127.167 148.018 126.963 147.927C126.761 147.836 126.594 147.697 126.46 147.51C126.329 147.323 126.263 147.088 126.263 146.804V141.942ZM130.689 148.115C130.38 148.115 130.098 148.056 129.846 147.94C129.594 147.821 129.393 147.65 129.245 147.427C129.096 147.202 129.022 146.931 129.022 146.613C129.022 146.333 129.077 146.106 129.187 145.932C129.298 145.756 129.445 145.618 129.63 145.518C129.814 145.418 130.018 145.344 130.241 145.295C130.465 145.245 130.691 145.204 130.918 145.175C131.215 145.136 131.456 145.108 131.641 145.089C131.827 145.067 131.963 145.032 132.048 144.984C132.135 144.935 132.178 144.85 132.178 144.729V144.704C132.178 144.39 132.092 144.146 131.921 143.972C131.751 143.798 131.493 143.711 131.147 143.711C130.789 143.711 130.508 143.789 130.304 143.946C130.101 144.103 129.957 144.271 129.875 144.449L129.162 144.195C129.289 143.898 129.459 143.666 129.671 143.501C129.885 143.333 130.119 143.217 130.371 143.151C130.626 143.083 130.876 143.049 131.122 143.049C131.279 143.049 131.459 143.068 131.663 143.106C131.869 143.142 132.067 143.218 132.258 143.332C132.451 143.447 132.611 143.62 132.738 143.851C132.866 144.082 132.929 144.392 132.929 144.78V148H132.178V147.338H132.14C132.089 147.444 132.004 147.558 131.886 147.679C131.767 147.8 131.609 147.902 131.411 147.987C131.214 148.072 130.973 148.115 130.689 148.115ZM130.804 147.44C131.101 147.44 131.351 147.382 131.555 147.265C131.76 147.148 131.915 146.998 132.019 146.813C132.125 146.629 132.178 146.435 132.178 146.231V145.544C132.146 145.582 132.076 145.617 131.968 145.649C131.862 145.678 131.739 145.705 131.599 145.728C131.461 145.749 131.327 145.768 131.195 145.785C131.066 145.8 130.961 145.813 130.88 145.824C130.685 145.849 130.503 145.89 130.333 145.948C130.165 146.003 130.03 146.087 129.926 146.199C129.824 146.309 129.773 146.46 129.773 146.651C129.773 146.912 129.869 147.109 130.062 147.243C130.258 147.374 130.505 147.44 130.804 147.44ZM135.115 145.06V148H134.364V143.113H135.089V143.876H135.153C135.267 143.628 135.441 143.429 135.675 143.278C135.908 143.125 136.209 143.049 136.578 143.049C136.909 143.049 137.199 143.117 137.447 143.253C137.695 143.386 137.888 143.59 138.026 143.864C138.164 144.135 138.233 144.479 138.233 144.895V148H137.482V144.945C137.482 144.562 137.382 144.262 137.183 144.048C136.983 143.832 136.71 143.724 136.362 143.724C136.122 143.724 135.908 143.776 135.719 143.88C135.533 143.983 135.385 144.135 135.277 144.335C135.169 144.534 135.115 144.776 135.115 145.06ZM141.794 143.113V143.749H139.262V143.113H141.794ZM140 141.942H140.751V146.6C140.751 146.812 140.782 146.971 140.843 147.077C140.907 147.181 140.987 147.251 141.085 147.287C141.185 147.321 141.29 147.338 141.4 147.338C141.483 147.338 141.551 147.334 141.604 147.325C141.657 147.315 141.699 147.306 141.731 147.3L141.884 147.975C141.833 147.994 141.762 148.013 141.67 148.032C141.579 148.053 141.464 148.064 141.324 148.064C141.111 148.064 140.904 148.018 140.7 147.927C140.498 147.836 140.331 147.697 140.197 147.51C140.066 147.323 140 147.088 140 146.804V141.942ZM144.985 148.102C144.514 148.102 144.107 147.998 143.766 147.79C143.427 147.58 143.165 147.287 142.98 146.912C142.798 146.534 142.706 146.095 142.706 145.595C142.706 145.094 142.798 144.653 142.98 144.271C143.165 143.887 143.421 143.588 143.75 143.374C144.081 143.157 144.467 143.049 144.908 143.049C145.163 143.049 145.414 143.092 145.662 143.176C145.911 143.261 146.136 143.399 146.34 143.59C146.544 143.779 146.706 144.029 146.827 144.341C146.948 144.653 147.008 145.037 147.008 145.493V145.811H143.241V145.162H146.245C146.245 144.886 146.189 144.64 146.079 144.424C145.971 144.207 145.816 144.037 145.615 143.911C145.415 143.786 145.18 143.724 144.908 143.724C144.609 143.724 144.35 143.798 144.132 143.946C143.916 144.093 143.749 144.284 143.632 144.519C143.516 144.755 143.457 145.007 143.457 145.276V145.709C143.457 146.078 143.521 146.391 143.648 146.648C143.778 146.902 143.957 147.096 144.186 147.23C144.415 147.362 144.681 147.427 144.985 147.427C145.182 147.427 145.36 147.4 145.519 147.345C145.68 147.287 145.819 147.202 145.936 147.09C146.053 146.975 146.143 146.833 146.206 146.664L146.932 146.867C146.856 147.113 146.727 147.33 146.547 147.516C146.367 147.701 146.144 147.845 145.879 147.949C145.614 148.051 145.316 148.102 144.985 148.102ZM151.676 144.207L151.002 144.398C150.959 144.286 150.897 144.177 150.814 144.07C150.733 143.962 150.623 143.873 150.483 143.803C150.343 143.733 150.164 143.698 149.945 143.698C149.646 143.698 149.397 143.767 149.198 143.905C149 144.041 148.902 144.214 148.902 144.424C148.902 144.61 148.97 144.758 149.105 144.866C149.241 144.974 149.453 145.064 149.742 145.136L150.467 145.315C150.904 145.421 151.23 145.583 151.444 145.801C151.658 146.018 151.765 146.297 151.765 146.638C151.765 146.918 151.685 147.168 151.524 147.389C151.365 147.61 151.142 147.784 150.855 147.911C150.569 148.038 150.236 148.102 149.856 148.102C149.358 148.102 148.945 147.994 148.619 147.777C148.292 147.561 148.085 147.245 147.998 146.829L148.711 146.651C148.779 146.914 148.907 147.111 149.096 147.243C149.287 147.374 149.536 147.44 149.844 147.44C150.194 147.44 150.471 147.366 150.677 147.217C150.885 147.067 150.989 146.886 150.989 146.676C150.989 146.507 150.93 146.365 150.811 146.25C150.692 146.133 150.51 146.046 150.264 145.989L149.449 145.798C149.001 145.692 148.673 145.528 148.463 145.305C148.255 145.08 148.151 144.799 148.151 144.462C148.151 144.186 148.228 143.942 148.383 143.73C148.54 143.518 148.753 143.351 149.023 143.23C149.294 143.11 149.602 143.049 149.945 143.049C150.429 143.049 150.809 143.155 151.085 143.367C151.362 143.579 151.56 143.859 151.676 144.207ZM157.593 148.102C157.122 148.102 156.716 147.998 156.374 147.79C156.035 147.58 155.773 147.287 155.588 146.912C155.406 146.534 155.315 146.095 155.315 145.595C155.315 145.094 155.406 144.653 155.588 144.271C155.773 143.887 156.03 143.588 156.358 143.374C156.689 143.157 157.075 143.049 157.516 143.049C157.771 143.049 158.022 143.092 158.271 143.176C158.519 143.261 158.745 143.399 158.948 143.59C159.152 143.779 159.314 144.029 159.435 144.341C159.556 144.653 159.616 145.037 159.616 145.493V145.811H155.849V145.162H158.853C158.853 144.886 158.798 144.64 158.687 144.424C158.579 144.207 158.424 144.037 158.223 143.911C158.023 143.786 157.788 143.724 157.516 143.724C157.217 143.724 156.959 143.798 156.74 143.946C156.524 144.093 156.357 144.284 156.241 144.519C156.124 144.755 156.066 145.007 156.066 145.276V145.709C156.066 146.078 156.129 146.391 156.256 146.648C156.386 146.902 156.565 147.096 156.794 147.23C157.023 147.362 157.29 147.427 157.593 147.427C157.79 147.427 157.968 147.4 158.127 147.345C158.289 147.287 158.428 147.202 158.544 147.09C158.661 146.975 158.751 146.833 158.815 146.664L159.54 146.867C159.464 147.113 159.335 147.33 159.155 147.516C158.975 147.701 158.752 147.845 158.487 147.949C158.222 148.051 157.924 148.102 157.593 148.102ZM164.285 144.207L163.61 144.398C163.568 144.286 163.505 144.177 163.422 144.07C163.342 143.962 163.231 143.873 163.091 143.803C162.951 143.733 162.772 143.698 162.554 143.698C162.255 143.698 162.005 143.767 161.806 143.905C161.609 144.041 161.51 144.214 161.51 144.424C161.51 144.61 161.578 144.758 161.714 144.866C161.849 144.974 162.062 145.064 162.35 145.136L163.076 145.315C163.512 145.421 163.838 145.583 164.052 145.801C164.267 146.018 164.374 146.297 164.374 146.638C164.374 146.918 164.293 147.168 164.132 147.389C163.973 147.61 163.75 147.784 163.464 147.911C163.177 148.038 162.844 148.102 162.465 148.102C161.966 148.102 161.554 147.994 161.227 147.777C160.9 147.561 160.693 147.245 160.606 146.829L161.319 146.651C161.387 146.914 161.515 147.111 161.704 147.243C161.895 147.374 162.144 147.44 162.452 147.44C162.802 147.44 163.08 147.366 163.286 147.217C163.493 147.067 163.597 146.886 163.597 146.676C163.597 146.507 163.538 146.365 163.419 146.25C163.3 146.133 163.118 146.046 162.872 145.989L162.057 145.798C161.61 145.692 161.281 145.528 161.071 145.305C160.863 145.08 160.759 144.799 160.759 144.462C160.759 144.186 160.837 143.942 160.991 143.73C161.148 143.518 161.362 143.351 161.631 143.23C161.902 143.11 162.21 143.049 162.554 143.049C163.037 143.049 163.417 143.155 163.693 143.367C163.971 143.579 164.168 143.859 164.285 144.207ZM169.03 144.207L168.355 144.398C168.313 144.286 168.25 144.177 168.168 144.07C168.087 143.962 167.977 143.873 167.837 143.803C167.697 143.733 167.517 143.698 167.299 143.698C167 143.698 166.751 143.767 166.551 143.905C166.354 144.041 166.255 144.214 166.255 144.424C166.255 144.61 166.323 144.758 166.459 144.866C166.595 144.974 166.807 145.064 167.095 145.136L167.821 145.315C168.258 145.421 168.583 145.583 168.798 145.801C169.012 146.018 169.119 146.297 169.119 146.638C169.119 146.918 169.038 147.168 168.877 147.389C168.718 147.61 168.495 147.784 168.209 147.911C167.923 148.038 167.59 148.102 167.21 148.102C166.711 148.102 166.299 147.994 165.972 147.777C165.645 147.561 165.439 147.245 165.352 146.829L166.064 146.651C166.132 146.914 166.261 147.111 166.449 147.243C166.64 147.374 166.89 147.44 167.197 147.44C167.547 147.44 167.825 147.366 168.031 147.217C168.239 147.067 168.343 146.886 168.343 146.676C168.343 146.507 168.283 146.365 168.164 146.25C168.046 146.133 167.863 146.046 167.617 145.989L166.803 145.798C166.355 145.692 166.026 145.528 165.816 145.305C165.608 145.08 165.504 144.799 165.504 144.462C165.504 144.186 165.582 143.942 165.737 143.73C165.894 143.518 166.107 143.351 166.376 143.23C166.648 143.11 166.955 143.049 167.299 143.049C167.783 143.049 168.162 143.155 168.438 143.367C168.716 143.579 168.913 143.859 169.03 144.207ZM172.362 148.102C171.891 148.102 171.485 147.998 171.144 147.79C170.804 147.58 170.542 147.287 170.358 146.912C170.175 146.534 170.084 146.095 170.084 145.595C170.084 145.094 170.175 144.653 170.358 144.271C170.542 143.887 170.799 143.588 171.128 143.374C171.459 143.157 171.845 143.049 172.286 143.049C172.541 143.049 172.792 143.092 173.04 143.176C173.288 143.261 173.514 143.399 173.718 143.59C173.921 143.779 174.084 144.029 174.205 144.341C174.326 144.653 174.386 145.037 174.386 145.493V145.811H170.619V145.162H173.622C173.622 144.886 173.567 144.64 173.457 144.424C173.349 144.207 173.194 144.037 172.992 143.911C172.793 143.786 172.558 143.724 172.286 143.724C171.987 143.724 171.728 143.798 171.51 143.946C171.293 144.093 171.127 144.284 171.01 144.519C170.893 144.755 170.835 145.007 170.835 145.276V145.709C170.835 146.078 170.899 146.391 171.026 146.648C171.155 146.902 171.335 147.096 171.564 147.23C171.793 147.362 172.059 147.427 172.362 147.427C172.56 147.427 172.738 147.4 172.897 147.345C173.058 147.287 173.197 147.202 173.314 147.09C173.43 146.975 173.521 146.833 173.584 146.664L174.31 146.867C174.233 147.113 174.105 147.33 173.925 147.516C173.744 147.701 173.522 147.845 173.256 147.949C172.991 148.051 172.693 148.102 172.362 148.102ZM179.614 148.115C179.305 148.115 179.024 148.056 178.771 147.94C178.519 147.821 178.318 147.65 178.17 147.427C178.021 147.202 177.947 146.931 177.947 146.613C177.947 146.333 178.002 146.106 178.113 145.932C178.223 145.756 178.37 145.618 178.555 145.518C178.739 145.418 178.943 145.344 179.166 145.295C179.391 145.245 179.617 145.204 179.844 145.175C180.141 145.136 180.381 145.108 180.566 145.089C180.752 145.067 180.888 145.032 180.973 144.984C181.06 144.935 181.104 144.85 181.104 144.729V144.704C181.104 144.39 181.018 144.146 180.846 143.972C180.676 143.798 180.418 143.711 180.073 143.711C179.714 143.711 179.433 143.789 179.229 143.946C179.026 144.103 178.883 144.271 178.8 144.449L178.087 144.195C178.214 143.898 178.384 143.666 178.596 143.501C178.811 143.333 179.044 143.217 179.296 143.151C179.551 143.083 179.801 143.049 180.047 143.049C180.204 143.049 180.384 143.068 180.588 143.106C180.794 143.142 180.992 143.218 181.183 143.332C181.376 143.447 181.536 143.62 181.664 143.851C181.791 144.082 181.854 144.392 181.854 144.78V148H181.104V147.338H181.065C181.014 147.444 180.93 147.558 180.811 147.679C180.692 147.8 180.534 147.902 180.337 147.987C180.139 148.072 179.899 148.115 179.614 148.115ZM179.729 147.44C180.026 147.44 180.276 147.382 180.48 147.265C180.686 147.148 180.841 146.998 180.944 146.813C181.051 146.629 181.104 146.435 181.104 146.231V145.544C181.072 145.582 181.002 145.617 180.894 145.649C180.787 145.678 180.664 145.705 180.524 145.728C180.387 145.749 180.252 145.768 180.12 145.785C179.991 145.8 179.886 145.813 179.805 145.824C179.61 145.849 179.428 145.89 179.258 145.948C179.091 146.003 178.955 146.087 178.851 146.199C178.749 146.309 178.698 146.46 178.698 146.651C178.698 146.912 178.795 147.109 178.988 147.243C179.183 147.374 179.43 147.44 179.729 147.44ZM184.04 145.06V148H183.289V143.113H184.014V143.876H184.078C184.193 143.628 184.367 143.429 184.6 143.278C184.833 143.125 185.134 143.049 185.504 143.049C185.834 143.049 186.124 143.117 186.372 143.253C186.62 143.386 186.813 143.59 186.951 143.864C187.089 144.135 187.158 144.479 187.158 144.895V148H186.407V144.945C186.407 144.562 186.308 144.262 186.108 144.048C185.909 143.832 185.635 143.724 185.287 143.724C185.048 143.724 184.833 143.776 184.644 143.88C184.458 143.983 184.31 144.135 184.202 144.335C184.094 144.534 184.04 144.776 184.04 145.06ZM190.58 148.102C190.139 148.102 189.751 147.997 189.418 147.787C189.087 147.577 188.829 147.283 188.642 146.905C188.457 146.528 188.365 146.087 188.365 145.582C188.365 145.073 188.457 144.628 188.642 144.249C188.829 143.869 189.087 143.574 189.418 143.364C189.751 143.154 190.139 143.049 190.58 143.049C191.021 143.049 191.407 143.154 191.738 143.364C192.071 143.574 192.33 143.869 192.514 144.249C192.701 144.628 192.794 145.073 192.794 145.582C192.794 146.087 192.701 146.528 192.514 146.905C192.33 147.283 192.071 147.577 191.738 147.787C191.407 147.997 191.021 148.102 190.58 148.102ZM190.58 147.427C190.915 147.427 191.191 147.341 191.407 147.17C191.623 146.998 191.784 146.772 191.887 146.492C191.991 146.212 192.043 145.908 192.043 145.582C192.043 145.255 191.991 144.951 191.887 144.669C191.784 144.387 191.623 144.158 191.407 143.985C191.191 143.811 190.915 143.724 190.58 143.724C190.245 143.724 189.969 143.811 189.752 143.985C189.536 144.158 189.376 144.387 189.272 144.669C189.168 144.951 189.116 145.255 189.116 145.582C189.116 145.908 189.168 146.212 189.272 146.492C189.376 146.772 189.536 146.998 189.752 147.17C189.969 147.341 190.245 147.427 190.58 147.427Z" fill="#696974"/>
</g>
<defs>
<clipPath id="clip0_35_441">
<rect width="300" height="290" fill="white"/>
</clipPath>
<clipPath id="clip1_35_441">
<rect width="115" height="24" fill="white" transform="translate(24 217)"/>
</clipPath>
<clipPath id="clip2_35_441">
<rect width="127" height="24" fill="white" transform="translate(162 251)"/>
</clipPath>
</defs>
</svg>
