<svg width="350" height="290" viewBox="0 0 350 290" fill="none" xmlns="http://www.w3.org/2000/svg">
<g clip-path="url(#clip0_35_441)">
<rect x="1" y="1" width="348" height="288" rx="19" fill="white" stroke="#E9E6F7" stroke-width="2"/>
<mask id="mask0_35_441" style="mask-type:luminance" maskUnits="userSpaceOnUse" x="0" y="0" width="350" height="290">
<rect width="350" height="290" rx="20" fill="white"/>
</mask>
<g mask="url(#mask0_35_441)">
</g>
<g clip-path="url(#clip1_35_441)">
<rect x="28" y="223" width="12.5389" height="12" rx="6" fill="#0062FF"/>
<path d="M54.3108 234V223.818H55.5438V232.906H60.2767V234H54.3108ZM65.3284 234.159C64.5927 234.159 63.9579 233.997 63.4243 233.672C62.894 233.344 62.4847 232.886 62.1963 232.3C61.9113 231.71 61.7688 231.024 61.7688 230.241C61.7688 229.459 61.9113 228.77 62.1963 228.173C62.4847 227.573 62.8857 227.106 63.3995 226.771C63.9165 226.433 64.5197 226.264 65.2091 226.264C65.6069 226.264 65.9996 226.33 66.3874 226.463C66.7752 226.596 67.1282 226.811 67.4463 227.109C67.7645 227.404 68.0181 227.795 68.207 228.283C68.3959 228.77 68.4904 229.37 68.4904 230.082V230.58H62.604V229.565H67.2972C67.2972 229.134 67.211 228.75 67.0387 228.412C66.8696 228.074 66.6277 227.807 66.3128 227.612C66.0013 227.416 65.6334 227.318 65.2091 227.318C64.7418 227.318 64.3374 227.434 63.9961 227.666C63.658 227.895 63.3978 228.193 63.2155 228.561C63.0332 228.929 62.9421 229.323 62.9421 229.744V230.42C62.9421 230.997 63.0415 231.486 63.2404 231.887C63.4426 232.285 63.7226 232.588 64.0806 232.797C64.4385 233.002 64.8545 233.105 65.3284 233.105C65.6367 233.105 65.9151 233.062 66.1637 232.976C66.4156 232.886 66.6327 232.754 66.815 232.578C66.9972 232.399 67.1381 232.177 67.2375 231.912L68.3711 232.23C68.2517 232.615 68.0512 232.953 67.7695 233.244C67.4878 233.533 67.1398 233.758 66.7255 233.92C66.3112 234.08 65.8455 234.159 65.3284 234.159ZM72.6223 234.179C72.1384 234.179 71.6993 234.088 71.3049 233.906C70.9105 233.72 70.5972 233.453 70.3652 233.105C70.1332 232.754 70.0172 232.33 70.0172 231.832C70.0172 231.395 70.1034 231.04 70.2758 230.768C70.4481 230.493 70.6784 230.278 70.9668 230.122C71.2552 229.966 71.5733 229.85 71.9213 229.774C72.2727 229.695 72.6257 229.632 72.9803 229.585C73.4443 229.526 73.8205 229.481 74.1088 229.451C74.4005 229.418 74.6126 229.363 74.7452 229.287C74.8811 229.211 74.949 229.078 74.949 228.889V228.849C74.949 228.359 74.8148 227.978 74.5463 227.706C74.2812 227.434 73.8785 227.298 73.3383 227.298C72.7781 227.298 72.339 227.421 72.0208 227.666C71.7026 227.911 71.4789 228.173 71.3496 228.452L70.236 228.054C70.4348 227.59 70.7 227.229 71.0314 226.97C71.3662 226.708 71.7308 226.526 72.1252 226.423C72.5229 226.317 72.914 226.264 73.2985 226.264C73.5437 226.264 73.8255 226.294 74.1436 226.354C74.4651 226.41 74.775 226.528 75.0733 226.707C75.3749 226.886 75.6252 227.156 75.824 227.517C76.0229 227.878 76.1223 228.362 76.1223 228.969V234H74.949V232.966H74.8894C74.8098 233.132 74.6773 233.309 74.4917 233.498C74.3061 233.687 74.0591 233.848 73.7509 233.98C73.4427 234.113 73.0665 234.179 72.6223 234.179ZM72.8013 233.125C73.2653 233.125 73.6564 233.034 73.9746 232.852C74.2961 232.669 74.5381 232.434 74.7005 232.146C74.8662 231.857 74.949 231.554 74.949 231.236V230.162C74.8993 230.222 74.79 230.276 74.6209 230.326C74.4552 230.372 74.263 230.414 74.0442 230.45C73.8288 230.483 73.6183 230.513 73.4128 230.54C73.2106 230.563 73.0466 230.583 72.9206 230.599C72.6157 230.639 72.3307 230.704 72.0655 230.793C71.8037 230.879 71.5916 231.01 71.4292 231.186C71.2701 231.358 71.1905 231.594 71.1905 231.892C71.1905 232.3 71.3413 232.608 71.6429 232.817C71.9479 233.022 72.334 233.125 72.8013 233.125ZM81.2474 234.159C80.611 234.159 80.0492 233.998 79.562 233.677C79.0748 233.352 78.6936 232.895 78.4185 232.305C78.1434 231.711 78.0059 231.01 78.0059 230.202C78.0059 229.4 78.1434 228.704 78.4185 228.114C78.6936 227.524 79.0764 227.068 79.567 226.746C80.0575 226.425 80.6243 226.264 81.2673 226.264C81.7644 226.264 82.1572 226.347 82.4455 226.513C82.7372 226.675 82.9593 226.861 83.1117 227.07C83.2675 227.275 83.3885 227.444 83.4746 227.577H83.5741V223.818H84.7474V234H83.6139V232.827H83.4746C83.3885 232.966 83.2658 233.142 83.1068 233.354C82.9477 233.562 82.7206 233.75 82.4256 233.915C82.1307 234.078 81.7379 234.159 81.2474 234.159ZM81.4065 233.105C81.8771 233.105 82.2748 232.982 82.5996 232.737C82.9245 232.489 83.1714 232.146 83.3404 231.708C83.5094 231.267 83.594 230.759 83.594 230.182C83.594 229.612 83.5111 229.113 83.3454 228.685C83.1797 228.254 82.9344 227.92 82.6096 227.681C82.2848 227.439 81.8837 227.318 81.4065 227.318C80.9093 227.318 80.495 227.446 80.1636 227.701C79.8354 227.953 79.5885 228.296 79.4228 228.73C79.2604 229.161 79.1792 229.645 79.1792 230.182C79.1792 230.725 79.2621 231.219 79.4278 231.663C79.5968 232.104 79.8454 232.455 80.1735 232.717C80.505 232.976 80.9159 233.105 81.4065 233.105ZM92.5683 228.074L91.5143 228.372C91.448 228.196 91.3502 228.026 91.221 227.86C91.095 227.691 90.9227 227.552 90.7039 227.442C90.4852 227.333 90.2051 227.278 89.8637 227.278C89.3964 227.278 89.0069 227.386 88.6954 227.602C88.3872 227.814 88.233 228.084 88.233 228.412C88.233 228.704 88.3391 228.934 88.5512 229.103C88.7633 229.272 89.0948 229.413 89.5455 229.526L90.6791 229.804C91.3618 229.97 91.8706 230.223 92.2053 230.565C92.5401 230.903 92.7075 231.339 92.7075 231.872C92.7075 232.31 92.5815 232.701 92.3296 233.045C92.081 233.39 91.733 233.662 91.2856 233.861C90.8381 234.06 90.3178 234.159 89.7245 234.159C88.9456 234.159 88.301 233.99 87.7906 233.652C87.2801 233.314 86.957 232.82 86.8211 232.17L87.9347 231.892C88.0408 232.303 88.2413 232.611 88.5363 232.817C88.8346 233.022 89.224 233.125 89.7046 233.125C90.2515 233.125 90.6857 233.009 91.0072 232.777C91.332 232.542 91.4944 232.26 91.4944 231.932C91.4944 231.667 91.4016 231.445 91.216 231.266C91.0304 231.083 90.7453 230.947 90.3609 230.858L89.0881 230.56C88.3888 230.394 87.8751 230.137 87.547 229.789C87.2221 229.438 87.0597 228.999 87.0597 228.472C87.0597 228.041 87.1807 227.66 87.4227 227.328C87.6679 226.997 88.001 226.737 88.422 226.548C88.8462 226.359 89.3268 226.264 89.8637 226.264C90.6194 226.264 91.2127 226.43 91.6435 226.761C92.0777 227.093 92.386 227.53 92.5683 228.074ZM97.8946 226.364V227.358H93.9373V226.364H97.8946ZM95.0907 224.534H96.264V231.812C96.264 232.144 96.312 232.393 96.4081 232.558C96.5076 232.721 96.6335 232.83 96.786 232.886C96.9418 232.939 97.1058 232.966 97.2782 232.966C97.4074 232.966 97.5135 232.959 97.5963 232.946C97.6792 232.929 97.7455 232.916 97.7952 232.906L98.0338 233.96C97.9543 233.99 97.8433 234.02 97.7008 234.05C97.5582 234.083 97.3776 234.099 97.1588 234.099C96.8274 234.099 96.5026 234.028 96.1844 233.886C95.8695 233.743 95.6077 233.526 95.3989 233.234C95.1934 232.943 95.0907 232.575 95.0907 232.131V224.534ZM102.879 234.159C102.143 234.159 101.509 233.997 100.975 233.672C100.445 233.344 100.035 232.886 99.7471 232.3C99.4621 231.71 99.3196 231.024 99.3196 230.241C99.3196 229.459 99.4621 228.77 99.7471 228.173C100.035 227.573 100.437 227.106 100.95 226.771C101.467 226.433 102.071 226.264 102.76 226.264C103.158 226.264 103.55 226.33 103.938 226.463C104.326 226.596 104.679 226.811 104.997 227.109C105.315 227.404 105.569 227.795 105.758 228.283C105.947 228.77 106.041 229.37 106.041 230.082V230.58H100.155V229.565H104.848C104.848 229.134 104.762 228.75 104.589 228.412C104.42 228.074 104.178 227.807 103.864 227.612C103.552 227.416 103.184 227.318 102.76 227.318C102.293 227.318 101.888 227.434 101.547 227.666C101.209 227.895 100.949 228.193 100.766 228.561C100.584 228.929 100.493 229.323 100.493 229.744V230.42C100.493 230.997 100.592 231.486 100.791 231.887C100.993 232.285 101.273 232.588 101.631 232.797C101.989 233.002 102.405 233.105 102.879 233.105C103.187 233.105 103.466 233.062 103.714 232.976C103.966 232.886 104.183 232.754 104.366 232.578C104.548 232.399 104.689 232.177 104.788 231.912L105.922 232.23C105.803 232.615 105.602 232.953 105.32 233.244C105.039 233.533 104.691 233.758 104.276 233.92C103.862 234.08 103.396 234.159 102.879 234.159ZM107.926 234V226.364H109.059V227.517H109.139C109.278 227.139 109.53 226.833 109.895 226.597C110.259 226.362 110.67 226.244 111.128 226.244C111.214 226.244 111.322 226.246 111.451 226.249C111.58 226.253 111.678 226.258 111.744 226.264V227.457C111.704 227.447 111.613 227.433 111.471 227.413C111.332 227.389 111.184 227.378 111.028 227.378C110.657 227.378 110.326 227.456 110.034 227.612C109.746 227.764 109.517 227.976 109.348 228.248C109.182 228.516 109.099 228.823 109.099 229.168V234H107.926Z" fill="#44444F"/>
<path d="M129.137 235V233.449L132.761 230.093C133.069 229.795 133.328 229.526 133.537 229.288C133.749 229.049 133.91 228.815 134.019 228.587C134.128 228.355 134.183 228.104 134.183 227.836C134.183 227.538 134.115 227.281 133.979 227.065C133.843 226.847 133.658 226.679 133.422 226.563C133.187 226.444 132.92 226.384 132.622 226.384C132.31 226.384 132.039 226.447 131.807 226.573C131.575 226.699 131.396 226.88 131.27 227.115C131.144 227.35 131.081 227.63 131.081 227.955H129.037C129.037 227.289 129.188 226.711 129.49 226.22C129.791 225.73 130.214 225.35 130.758 225.082C131.301 224.813 131.928 224.679 132.637 224.679C133.366 224.679 134.001 224.808 134.541 225.067C135.084 225.322 135.507 225.677 135.809 226.131C136.11 226.585 136.261 227.105 136.261 227.692C136.261 228.076 136.185 228.456 136.032 228.83C135.883 229.205 135.616 229.621 135.232 230.078C134.848 230.532 134.306 231.077 133.606 231.714L132.12 233.17V233.24H136.395V235H129.137ZM139.313 235.129C138.985 235.129 138.703 235.013 138.468 234.781C138.236 234.546 138.12 234.264 138.12 233.936C138.12 233.611 138.236 233.333 138.468 233.101C138.703 232.869 138.985 232.753 139.313 232.753C139.631 232.753 139.91 232.869 140.148 233.101C140.387 233.333 140.506 233.611 140.506 233.936C140.506 234.155 140.45 234.355 140.337 234.538C140.228 234.717 140.084 234.861 139.905 234.97C139.726 235.076 139.528 235.129 139.313 235.129ZM145.483 224.818V235H143.331V226.862H143.271L140.939 228.323V226.414L143.46 224.818H145.483ZM149.942 232.803L149.947 230.262H150.255L152.701 227.364H155.132L151.846 231.202H151.344L149.942 232.803ZM148.023 235V224.818H150.141V235H148.023ZM152.796 235L150.549 231.674L151.961 230.178L155.277 235H152.796Z" fill="#44444F"/>
</g>
<rect x="189" y="223" width="11.6667" height="12" rx="5.83333" fill="#FF974A"/>
<path d="M213.566 234V223.818H214.799V228.352H220.228V223.818H221.461V234H220.228V229.446H214.799V234H213.566ZM226.973 234.159C226.283 234.159 225.678 233.995 225.158 233.667C224.641 233.339 224.237 232.88 223.945 232.29C223.657 231.7 223.513 231.01 223.513 230.222C223.513 229.426 223.657 228.732 223.945 228.138C224.237 227.545 224.641 227.085 225.158 226.756C225.678 226.428 226.283 226.264 226.973 226.264C227.662 226.264 228.265 226.428 228.782 226.756C229.303 227.085 229.707 227.545 229.995 228.138C230.287 228.732 230.433 229.426 230.433 230.222C230.433 231.01 230.287 231.7 229.995 232.29C229.707 232.88 229.303 233.339 228.782 233.667C228.265 233.995 227.662 234.159 226.973 234.159ZM226.973 233.105C227.496 233.105 227.927 232.971 228.265 232.702C228.603 232.434 228.854 232.081 229.016 231.643C229.178 231.206 229.26 230.732 229.26 230.222C229.26 229.711 229.178 229.236 229.016 228.795C228.854 228.354 228.603 227.998 228.265 227.726C227.927 227.454 227.496 227.318 226.973 227.318C226.449 227.318 226.018 227.454 225.68 227.726C225.342 227.998 225.092 228.354 224.929 228.795C224.767 229.236 224.686 229.711 224.686 230.222C224.686 230.732 224.767 231.206 224.929 231.643C225.092 232.081 225.342 232.434 225.68 232.702C226.018 232.971 226.449 233.105 226.973 233.105ZM237.733 228.074L236.679 228.372C236.613 228.196 236.515 228.026 236.386 227.86C236.26 227.691 236.087 227.552 235.869 227.442C235.65 227.333 235.37 227.278 235.029 227.278C234.561 227.278 234.172 227.386 233.86 227.602C233.552 227.814 233.398 228.084 233.398 228.412C233.398 228.704 233.504 228.934 233.716 229.103C233.928 229.272 234.26 229.413 234.71 229.526L235.844 229.804C236.527 229.97 237.035 230.223 237.37 230.565C237.705 230.903 237.872 231.339 237.872 231.872C237.872 232.31 237.746 232.701 237.494 233.045C237.246 233.39 236.898 233.662 236.45 233.861C236.003 234.06 235.483 234.159 234.889 234.159C234.11 234.159 233.466 233.99 232.955 233.652C232.445 233.314 232.122 232.82 231.986 232.17L233.1 231.892C233.206 232.303 233.406 232.611 233.701 232.817C233.999 233.022 234.389 233.125 234.869 233.125C235.416 233.125 235.851 233.009 236.172 232.777C236.497 232.542 236.659 232.26 236.659 231.932C236.659 231.667 236.566 231.445 236.381 231.266C236.195 231.083 235.91 230.947 235.526 230.858L234.253 230.56C233.554 230.394 233.04 230.137 232.712 229.789C232.387 229.438 232.225 228.999 232.225 228.472C232.225 228.041 232.346 227.66 232.587 227.328C232.833 226.997 233.166 226.737 233.587 226.548C234.011 226.359 234.492 226.264 235.029 226.264C235.784 226.264 236.377 226.43 236.808 226.761C237.243 227.093 237.551 227.53 237.733 228.074ZM243.059 226.364V227.358H239.102V226.364H243.059ZM240.255 224.534H241.429V231.812C241.429 232.144 241.477 232.393 241.573 232.558C241.672 232.721 241.798 232.83 241.951 232.886C242.107 232.939 242.271 232.966 242.443 232.966C242.572 232.966 242.678 232.959 242.761 232.946C242.844 232.929 242.91 232.916 242.96 232.906L243.199 233.96C243.119 233.99 243.008 234.02 242.866 234.05C242.723 234.083 242.542 234.099 242.324 234.099C241.992 234.099 241.667 234.028 241.349 233.886C241.034 233.743 240.773 233.526 240.564 233.234C240.358 232.943 240.255 232.575 240.255 232.131V224.534ZM244.924 234V226.364H246.098V234H244.924ZM245.521 225.091C245.292 225.091 245.095 225.013 244.929 224.857C244.767 224.701 244.686 224.514 244.686 224.295C244.686 224.077 244.767 223.889 244.929 223.734C245.095 223.578 245.292 223.5 245.521 223.5C245.75 223.5 245.945 223.578 246.108 223.734C246.273 223.889 246.356 224.077 246.356 224.295C246.356 224.514 246.273 224.701 246.108 224.857C245.945 225.013 245.75 225.091 245.521 225.091ZM249.52 229.406V234H248.347V226.364H249.48V227.557H249.58C249.759 227.169 250.03 226.857 250.395 226.622C250.76 226.384 251.23 226.264 251.807 226.264C252.324 226.264 252.776 226.37 253.164 226.582C253.552 226.791 253.854 227.109 254.069 227.537C254.284 227.961 254.392 228.498 254.392 229.148V234H253.219V229.227C253.219 228.627 253.063 228.16 252.751 227.825C252.44 227.487 252.012 227.318 251.469 227.318C251.094 227.318 250.76 227.399 250.465 227.562C250.173 227.724 249.943 227.961 249.773 228.273C249.604 228.584 249.52 228.962 249.52 229.406ZM259.718 237.023C259.152 237.023 258.665 236.95 258.257 236.804C257.849 236.661 257.509 236.473 257.238 236.237C256.969 236.005 256.755 235.757 256.596 235.491L257.531 234.835C257.637 234.974 257.771 235.134 257.934 235.312C258.096 235.495 258.318 235.652 258.6 235.785C258.885 235.921 259.258 235.989 259.718 235.989C260.335 235.989 260.844 235.839 261.245 235.541C261.646 235.243 261.846 234.776 261.846 234.139V232.588H261.747C261.661 232.727 261.538 232.9 261.379 233.105C261.223 233.307 260.998 233.488 260.703 233.647C260.411 233.803 260.017 233.881 259.52 233.881C258.903 233.881 258.35 233.735 257.859 233.443C257.372 233.152 256.986 232.727 256.701 232.17C256.419 231.614 256.278 230.937 256.278 230.142C256.278 229.36 256.416 228.679 256.691 228.099C256.966 227.515 257.349 227.065 257.839 226.746C258.33 226.425 258.897 226.264 259.54 226.264C260.037 226.264 260.431 226.347 260.723 226.513C261.018 226.675 261.243 226.861 261.399 227.07C261.558 227.275 261.681 227.444 261.767 227.577H261.886V226.364H263.02V234.219C263.02 234.875 262.87 235.409 262.572 235.82C262.277 236.234 261.879 236.537 261.379 236.729C260.882 236.925 260.328 237.023 259.718 237.023ZM259.679 232.827C260.149 232.827 260.547 232.719 260.872 232.504C261.197 232.288 261.444 231.978 261.613 231.574C261.782 231.17 261.866 230.686 261.866 230.122C261.866 229.572 261.783 229.086 261.618 228.665C261.452 228.245 261.207 227.915 260.882 227.676C260.557 227.437 260.156 227.318 259.679 227.318C259.182 227.318 258.767 227.444 258.436 227.696C258.108 227.948 257.861 228.286 257.695 228.71C257.533 229.134 257.451 229.605 257.451 230.122C257.451 230.652 257.534 231.121 257.7 231.529C257.869 231.933 258.118 232.252 258.446 232.484C258.777 232.712 259.188 232.827 259.679 232.827ZM268.469 234.159C267.733 234.159 267.099 233.997 266.565 233.672C266.035 233.344 265.625 232.886 265.337 232.3C265.052 231.71 264.909 231.024 264.909 230.241C264.909 229.459 265.052 228.77 265.337 228.173C265.625 227.573 266.026 227.106 266.54 226.771C267.057 226.433 267.66 226.264 268.35 226.264C268.747 226.264 269.14 226.33 269.528 226.463C269.916 226.596 270.269 226.811 270.587 227.109C270.905 227.404 271.159 227.795 271.348 228.283C271.537 228.77 271.631 229.37 271.631 230.082V230.58H265.745V229.565H270.438C270.438 229.134 270.352 228.75 270.179 228.412C270.01 228.074 269.768 227.807 269.453 227.612C269.142 227.416 268.774 227.318 268.35 227.318C267.882 227.318 267.478 227.434 267.137 227.666C266.799 227.895 266.538 228.193 266.356 228.561C266.174 228.929 266.083 229.323 266.083 229.744V230.42C266.083 230.997 266.182 231.486 266.381 231.887C266.583 232.285 266.863 232.588 267.221 232.797C267.579 233.002 267.995 233.105 268.469 233.105C268.777 233.105 269.056 233.062 269.304 232.976C269.556 232.886 269.773 232.754 269.956 232.578C270.138 232.399 270.279 232.177 270.378 231.912L271.512 232.23C271.392 232.615 271.192 232.953 270.91 233.244C270.628 233.533 270.28 233.758 269.866 233.92C269.452 234.08 268.986 234.159 268.469 234.159ZM273.516 234V226.364H274.649V227.517H274.729C274.868 227.139 275.12 226.833 275.485 226.597C275.849 226.362 276.26 226.244 276.717 226.244C276.804 226.244 276.911 226.246 277.041 226.249C277.17 226.253 277.268 226.258 277.334 226.264V227.457C277.294 227.447 277.203 227.433 277.061 227.413C276.921 227.389 276.774 227.378 276.618 227.378C276.247 227.378 275.915 227.456 275.624 227.612C275.335 227.764 275.107 227.976 274.938 228.248C274.772 228.516 274.689 228.823 274.689 229.168V234H273.516Z" fill="#44444F"/>
<path d="M301.588 223.818V234H299.436V225.862H299.376L297.044 227.323V225.414L299.565 223.818H301.588ZM306.047 231.803L306.052 229.262H306.36L308.806 226.364H311.237L307.951 230.202H307.449L306.047 231.803ZM304.128 234V223.818H306.246V234H304.128ZM308.901 234L306.654 230.674L308.066 229.178L311.382 234H308.901Z" fill="#44444F"/>
<rect x="28" y="257" width="11.6667" height="12" rx="5.83333" fill="#3DD598"/>
<path d="M52.5663 257.818H54.0379L57.4981 266.27H57.6174L61.0777 257.818H62.5493V268H61.3958V260.264H61.2964L58.1146 268H57.001L53.8191 260.264H53.7197V268H52.5663V257.818ZM67.2094 268.179C66.7255 268.179 66.2864 268.088 65.892 267.906C65.4976 267.72 65.1844 267.453 64.9523 267.105C64.7203 266.754 64.6043 266.33 64.6043 265.832C64.6043 265.395 64.6905 265.04 64.8629 264.768C65.0352 264.493 65.2656 264.278 65.5539 264.122C65.8423 263.966 66.1604 263.85 66.5085 263.774C66.8598 263.695 67.2128 263.632 67.5674 263.585C68.0314 263.526 68.4076 263.481 68.696 263.451C68.9876 263.418 69.1997 263.363 69.3323 263.287C69.4682 263.211 69.5361 263.078 69.5361 262.889V262.849C69.5361 262.359 69.4019 261.978 69.1335 261.706C68.8683 261.434 68.4656 261.298 67.9254 261.298C67.3652 261.298 66.9261 261.421 66.6079 261.666C66.2897 261.911 66.066 262.173 65.9367 262.452L64.8231 262.054C65.0219 261.59 65.2871 261.229 65.6185 260.97C65.9533 260.708 66.3179 260.526 66.7123 260.423C67.11 260.317 67.5011 260.264 67.8856 260.264C68.1308 260.264 68.4126 260.294 68.7308 260.354C69.0522 260.41 69.3621 260.528 69.6604 260.707C69.962 260.886 70.2123 261.156 70.4111 261.517C70.61 261.878 70.7094 262.362 70.7094 262.969V268H69.5361V266.966H69.4765C69.3969 267.132 69.2644 267.309 69.0788 267.498C68.8932 267.687 68.6462 267.848 68.338 267.98C68.0298 268.113 67.6536 268.179 67.2094 268.179ZM67.3884 267.125C67.8524 267.125 68.2435 267.034 68.5617 266.852C68.8832 266.669 69.1252 266.434 69.2876 266.146C69.4533 265.857 69.5361 265.554 69.5361 265.236V264.162C69.4864 264.222 69.3771 264.276 69.208 264.326C69.0423 264.372 68.8501 264.414 68.6313 264.45C68.4159 264.483 68.2054 264.513 67.9999 264.54C67.7977 264.563 67.6337 264.583 67.5077 264.599C67.2028 264.639 66.9178 264.704 66.6526 264.793C66.3908 264.879 66.1787 265.01 66.0163 265.186C65.8572 265.358 65.7776 265.594 65.7776 265.892C65.7776 266.3 65.9284 266.608 66.23 266.817C66.535 267.022 66.9211 267.125 67.3884 267.125ZM72.951 268V260.364H74.1243V268H72.951ZM73.5475 259.091C73.3189 259.091 73.1216 259.013 72.9559 258.857C72.7935 258.701 72.7123 258.514 72.7123 258.295C72.7123 258.077 72.7935 257.889 72.9559 257.734C73.1216 257.578 73.3189 257.5 73.5475 257.5C73.7762 257.5 73.9718 257.578 74.1342 257.734C74.2999 257.889 74.3828 258.077 74.3828 258.295C74.3828 258.514 74.2999 258.701 74.1342 258.857C73.9718 259.013 73.7762 259.091 73.5475 259.091ZM77.5465 257.818V268H76.3732V257.818H77.5465ZM82.8978 268.159C82.1819 268.159 81.5654 267.99 81.0483 267.652C80.5313 267.314 80.1336 266.848 79.8551 266.255C79.5767 265.662 79.4375 264.984 79.4375 264.222C79.4375 263.446 79.5801 262.762 79.8651 262.168C80.1534 261.572 80.5545 261.106 81.0682 260.771C81.5853 260.433 82.1885 260.264 82.8779 260.264C83.4148 260.264 83.8987 260.364 84.3296 260.562C84.7605 260.761 85.1134 261.04 85.3885 261.398C85.6636 261.756 85.8343 262.173 85.9006 262.651H84.7273C84.6378 262.303 84.439 261.994 84.1307 261.726C83.8258 261.454 83.4148 261.318 82.8978 261.318C82.4404 261.318 82.0393 261.437 81.6946 261.676C81.3533 261.911 81.0864 262.245 80.8942 262.675C80.7053 263.103 80.6108 263.605 80.6108 264.182C80.6108 264.772 80.7036 265.286 80.8892 265.723C81.0782 266.161 81.3433 266.5 81.6847 266.742C82.0294 266.984 82.4337 267.105 82.8978 267.105C83.2027 267.105 83.4794 267.052 83.728 266.946C83.9766 266.84 84.1871 266.688 84.3594 266.489C84.5318 266.29 84.6544 266.051 84.7273 265.773H85.9006C85.8343 266.223 85.6703 266.629 85.4084 266.991C85.1499 267.349 84.8069 267.634 84.3793 267.846C83.9551 268.055 83.4612 268.159 82.8978 268.159ZM88.8891 263.406V268H87.7158V257.818H88.8891V261.557H88.9885C89.1675 261.162 89.436 260.849 89.7939 260.617C90.1552 260.382 90.6358 260.264 91.2357 260.264C91.756 260.264 92.2118 260.369 92.6029 260.577C92.994 260.783 93.2972 261.099 93.5127 261.527C93.7314 261.951 93.8408 262.491 93.8408 263.148V268H92.6675V263.227C92.6675 262.621 92.5101 262.152 92.1952 261.82C91.8837 261.486 91.4511 261.318 90.8976 261.318C90.5131 261.318 90.1685 261.399 89.8635 261.562C89.5619 261.724 89.3233 261.961 89.1476 262.273C88.9753 262.584 88.8891 262.962 88.8891 263.406ZM96.0873 268V260.364H97.2606V268H96.0873ZM96.6839 259.091C96.4552 259.091 96.258 259.013 96.0923 258.857C95.9299 258.701 95.8486 258.514 95.8486 258.295C95.8486 258.077 95.9299 257.889 96.0923 257.734C96.258 257.578 96.4552 257.5 96.6839 257.5C96.9126 257.5 97.1081 257.578 97.2705 257.734C97.4362 257.889 97.5191 258.077 97.5191 258.295C97.5191 258.514 97.4362 258.701 97.2705 258.857C97.1081 259.013 96.9126 259.091 96.6839 259.091ZM99.5096 270.864V260.364H100.643V261.577H100.782C100.868 261.444 100.988 261.275 101.14 261.07C101.296 260.861 101.518 260.675 101.806 260.513C102.098 260.347 102.493 260.264 102.99 260.264C103.633 260.264 104.199 260.425 104.69 260.746C105.18 261.068 105.563 261.524 105.838 262.114C106.113 262.704 106.251 263.4 106.251 264.202C106.251 265.01 106.113 265.711 105.838 266.305C105.563 266.895 105.182 267.352 104.695 267.677C104.208 267.998 103.646 268.159 103.01 268.159C102.519 268.159 102.126 268.078 101.831 267.915C101.536 267.75 101.309 267.562 101.15 267.354C100.991 267.142 100.868 266.966 100.782 266.827H100.683V270.864H99.5096ZM100.663 264.182C100.663 264.759 100.747 265.267 100.917 265.708C101.086 266.146 101.332 266.489 101.657 266.737C101.982 266.982 102.38 267.105 102.85 267.105C103.341 267.105 103.75 266.976 104.078 266.717C104.41 266.455 104.658 266.104 104.824 265.663C104.993 265.219 105.078 264.725 105.078 264.182C105.078 263.645 104.995 263.161 104.829 262.73C104.667 262.296 104.42 261.953 104.088 261.701C103.76 261.446 103.348 261.318 102.85 261.318C102.373 261.318 101.972 261.439 101.647 261.681C101.323 261.92 101.077 262.254 100.912 262.685C100.746 263.113 100.663 263.612 100.663 264.182Z" fill="#44444F"/>
<path d="M125.422 257.818V268H123.269V259.862H123.209L120.878 261.323V259.414L123.398 257.818H125.422ZM128.652 268.129C128.324 268.129 128.043 268.013 127.807 267.781C127.575 267.546 127.459 267.264 127.459 266.936C127.459 266.611 127.575 266.333 127.807 266.101C128.043 265.869 128.324 265.753 128.652 265.753C128.971 265.753 129.249 265.869 129.488 266.101C129.726 266.333 129.846 266.611 129.846 266.936C129.846 267.155 129.789 267.355 129.677 267.538C129.567 267.717 129.423 267.861 129.244 267.97C129.065 268.076 128.868 268.129 128.652 268.129ZM135.157 257.679C135.681 257.679 136.185 257.767 136.669 257.942C137.156 258.118 137.59 258.398 137.971 258.783C138.356 259.167 138.659 259.678 138.881 260.314C139.106 260.947 139.221 261.724 139.224 262.646C139.224 263.511 139.126 264.283 138.931 264.962C138.738 265.638 138.462 266.214 138.1 266.688C137.739 267.161 137.303 267.523 136.793 267.771C136.282 268.017 135.712 268.139 135.083 268.139C134.403 268.139 133.803 268.008 133.283 267.746C132.762 267.481 132.343 267.122 132.025 266.668C131.71 266.21 131.52 265.696 131.453 265.126H133.576C133.659 265.498 133.833 265.786 134.098 265.991C134.363 266.194 134.691 266.295 135.083 266.295C135.745 266.295 136.249 266.006 136.594 265.43C136.939 264.85 137.113 264.056 137.116 263.048H137.046C136.894 263.347 136.688 263.603 136.43 263.819C136.171 264.031 135.875 264.195 135.54 264.311C135.209 264.427 134.856 264.485 134.481 264.485C133.881 264.485 133.346 264.344 132.875 264.062C132.405 263.781 132.033 263.393 131.762 262.899C131.49 262.405 131.354 261.842 131.354 261.209C131.351 260.526 131.508 259.918 131.826 259.384C132.144 258.851 132.588 258.433 133.159 258.131C133.732 257.826 134.398 257.676 135.157 257.679ZM135.172 259.369C134.837 259.369 134.539 259.449 134.277 259.608C134.019 259.767 133.813 259.981 133.661 260.249C133.512 260.518 133.439 260.818 133.442 261.149C133.442 261.484 133.515 261.786 133.661 262.054C133.81 262.319 134.012 262.531 134.267 262.69C134.526 262.846 134.821 262.924 135.152 262.924C135.401 262.924 135.631 262.878 135.843 262.785C136.055 262.692 136.239 262.564 136.395 262.402C136.554 262.236 136.678 262.046 136.768 261.83C136.857 261.615 136.902 261.386 136.902 261.144C136.899 260.823 136.823 260.528 136.673 260.259C136.524 259.991 136.319 259.775 136.057 259.613C135.795 259.451 135.5 259.369 135.172 259.369ZM142.754 265.803L142.759 263.262H143.068L145.514 260.364H147.945L144.658 264.202H144.156L142.754 265.803ZM140.835 268V257.818H142.953V268H140.835ZM145.608 268L143.361 264.674L144.773 263.178L148.089 268H145.608Z" fill="#44444F"/>
<g clip-path="url(#clip2_35_441)">
<rect x="189" y="257" width="13.4697" height="12" rx="6" fill="#FFC542"/>
<path d="M217.172 268V257.818H220.613C221.408 257.818 222.061 257.954 222.571 258.226C223.082 258.494 223.46 258.864 223.705 259.335C223.95 259.805 224.073 260.34 224.073 260.94C224.073 261.54 223.95 262.072 223.705 262.536C223.46 263 223.084 263.365 222.576 263.63C222.069 263.892 221.421 264.023 220.633 264.023H217.848V262.909H220.593C221.136 262.909 221.574 262.83 221.905 262.67C222.24 262.511 222.482 262.286 222.631 261.994C222.784 261.699 222.86 261.348 222.86 260.94C222.86 260.533 222.784 260.176 222.631 259.871C222.479 259.567 222.235 259.331 221.9 259.165C221.566 258.996 221.123 258.912 220.573 258.912H218.405V268H217.172ZM221.965 263.426L224.471 268H223.039L220.573 263.426H221.965ZM228.87 268.159C228.233 268.159 227.672 267.998 227.184 267.677C226.697 267.352 226.316 266.895 226.041 266.305C225.766 265.711 225.628 265.01 225.628 264.202C225.628 263.4 225.766 262.704 226.041 262.114C226.316 261.524 226.699 261.068 227.189 260.746C227.68 260.425 228.247 260.264 228.89 260.264C229.387 260.264 229.78 260.347 230.068 260.513C230.36 260.675 230.582 260.861 230.734 261.07C230.89 261.275 231.011 261.444 231.097 261.577H231.197V257.818H232.37V268H231.236V266.827H231.097C231.011 266.966 230.888 267.142 230.729 267.354C230.57 267.562 230.343 267.75 230.048 267.915C229.753 268.078 229.36 268.159 228.87 268.159ZM229.029 267.105C229.5 267.105 229.897 266.982 230.222 266.737C230.547 266.489 230.794 266.146 230.963 265.708C231.132 265.267 231.216 264.759 231.216 264.182C231.216 263.612 231.134 263.113 230.968 262.685C230.802 262.254 230.557 261.92 230.232 261.681C229.907 261.439 229.506 261.318 229.029 261.318C228.532 261.318 228.117 261.446 227.786 261.701C227.458 261.953 227.211 262.296 227.045 262.73C226.883 263.161 226.802 263.645 226.802 264.182C226.802 264.725 226.885 265.219 227.05 265.663C227.219 266.104 227.468 266.455 227.796 266.717C228.127 266.976 228.538 267.105 229.029 267.105ZM240.509 260.364C240.449 259.86 240.207 259.469 239.783 259.19C239.359 258.912 238.838 258.773 238.222 258.773C237.771 258.773 237.377 258.846 237.039 258.991C236.704 259.137 236.442 259.338 236.253 259.593C236.068 259.848 235.975 260.138 235.975 260.463C235.975 260.735 236.039 260.969 236.169 261.164C236.301 261.356 236.47 261.517 236.676 261.646C236.881 261.772 237.097 261.877 237.322 261.96C237.547 262.039 237.755 262.104 237.944 262.153L238.978 262.432C239.243 262.501 239.538 262.598 239.863 262.72C240.191 262.843 240.504 263.01 240.802 263.222C241.104 263.431 241.352 263.7 241.548 264.028C241.744 264.356 241.841 264.759 241.841 265.236C241.841 265.786 241.697 266.283 241.409 266.727C241.124 267.171 240.706 267.524 240.156 267.786C239.609 268.048 238.944 268.179 238.162 268.179C237.433 268.179 236.802 268.061 236.268 267.826C235.738 267.591 235.32 267.263 235.015 266.842C234.714 266.421 234.543 265.932 234.503 265.375H235.776C235.809 265.759 235.938 266.078 236.164 266.33C236.392 266.578 236.681 266.764 237.029 266.886C237.38 267.006 237.758 267.065 238.162 267.065C238.633 267.065 239.056 266.989 239.43 266.837C239.805 266.681 240.101 266.465 240.32 266.19C240.539 265.912 240.648 265.587 240.648 265.216C240.648 264.878 240.554 264.603 240.365 264.391C240.176 264.179 239.927 264.006 239.619 263.874C239.311 263.741 238.978 263.625 238.62 263.526L237.367 263.168C236.571 262.939 235.942 262.612 235.478 262.188C235.014 261.764 234.782 261.209 234.782 260.523C234.782 259.953 234.936 259.455 235.244 259.031C235.556 258.604 235.973 258.272 236.497 258.037C237.024 257.798 237.612 257.679 238.262 257.679C238.918 257.679 239.501 257.797 240.012 258.032C240.522 258.264 240.927 258.582 241.225 258.987C241.526 259.391 241.685 259.85 241.702 260.364H240.509ZM247.13 260.364V261.358H243.173V260.364H247.13ZM244.326 258.534H245.5V265.812C245.5 266.144 245.548 266.393 245.644 266.558C245.743 266.721 245.869 266.83 246.022 266.886C246.177 266.939 246.342 266.966 246.514 266.966C246.643 266.966 246.749 266.959 246.832 266.946C246.915 266.929 246.981 266.916 247.031 266.906L247.27 267.96C247.19 267.99 247.079 268.02 246.936 268.05C246.794 268.083 246.613 268.099 246.395 268.099C246.063 268.099 245.738 268.028 245.42 267.886C245.105 267.743 244.843 267.526 244.635 267.234C244.429 266.943 244.326 266.575 244.326 266.131V258.534ZM251.242 268.179C250.759 268.179 250.319 268.088 249.925 267.906C249.531 267.72 249.217 267.453 248.985 267.105C248.753 266.754 248.637 266.33 248.637 265.832C248.637 265.395 248.724 265.04 248.896 264.768C249.068 264.493 249.299 264.278 249.587 264.122C249.875 263.966 250.193 263.85 250.541 263.774C250.893 263.695 251.246 263.632 251.6 263.585C252.064 263.526 252.441 263.481 252.729 263.451C253.021 263.418 253.233 263.363 253.365 263.287C253.501 263.211 253.569 263.078 253.569 262.889V262.849C253.569 262.359 253.435 261.978 253.166 261.706C252.901 261.434 252.499 261.298 251.958 261.298C251.398 261.298 250.959 261.421 250.641 261.666C250.323 261.911 250.099 262.173 249.97 262.452L248.856 262.054C249.055 261.59 249.32 261.229 249.652 260.97C249.986 260.708 250.351 260.526 250.745 260.423C251.143 260.317 251.534 260.264 251.919 260.264C252.164 260.264 252.446 260.294 252.764 260.354C253.085 260.41 253.395 260.528 253.693 260.707C253.995 260.886 254.245 261.156 254.444 261.517C254.643 261.878 254.742 262.362 254.742 262.969V268H253.569V266.966H253.509C253.43 267.132 253.297 267.309 253.112 267.498C252.926 267.687 252.679 267.848 252.371 267.98C252.063 268.113 251.687 268.179 251.242 268.179ZM251.421 267.125C251.885 267.125 252.277 267.034 252.595 266.852C252.916 266.669 253.158 266.434 253.321 266.146C253.486 265.857 253.569 265.554 253.569 265.236V264.162C253.519 264.222 253.41 264.276 253.241 264.326C253.075 264.372 252.883 264.414 252.664 264.45C252.449 264.483 252.238 264.513 252.033 264.54C251.831 264.563 251.667 264.583 251.541 264.599C251.236 264.639 250.951 264.704 250.686 264.793C250.424 264.879 250.212 265.01 250.049 265.186C249.89 265.358 249.811 265.594 249.811 265.892C249.811 266.3 249.961 266.608 250.263 266.817C250.568 267.022 250.954 267.125 251.421 267.125ZM260.305 260.364V261.358H256.348V260.364H260.305ZM257.501 258.534H258.674V265.812C258.674 266.144 258.722 266.393 258.818 266.558C258.918 266.721 259.044 266.83 259.196 266.886C259.352 266.939 259.516 266.966 259.689 266.966C259.818 266.966 259.924 266.959 260.007 266.946C260.09 266.929 260.156 266.916 260.206 266.906L260.444 267.96C260.365 267.99 260.254 268.02 260.111 268.05C259.969 268.083 259.788 268.099 259.569 268.099C259.238 268.099 258.913 268.028 258.595 267.886C258.28 267.743 258.018 267.526 257.809 267.234C257.604 266.943 257.501 266.575 257.501 266.131V258.534ZM262.17 268V260.364H263.343V268H262.17ZM262.766 259.091C262.538 259.091 262.341 259.013 262.175 258.857C262.012 258.701 261.931 258.514 261.931 258.295C261.931 258.077 262.012 257.889 262.175 257.734C262.341 257.578 262.538 257.5 262.766 257.5C262.995 257.5 263.191 257.578 263.353 257.734C263.519 257.889 263.602 258.077 263.602 258.295C263.602 258.514 263.519 258.701 263.353 258.857C263.191 259.013 262.995 259.091 262.766 259.091ZM268.694 268.159C268.005 268.159 267.4 267.995 266.88 267.667C266.363 267.339 265.958 266.88 265.667 266.29C265.378 265.7 265.234 265.01 265.234 264.222C265.234 263.426 265.378 262.732 265.667 262.138C265.958 261.545 266.363 261.085 266.88 260.756C267.4 260.428 268.005 260.264 268.694 260.264C269.384 260.264 269.987 260.428 270.504 260.756C271.024 261.085 271.429 261.545 271.717 262.138C272.009 262.732 272.155 263.426 272.155 264.222C272.155 265.01 272.009 265.7 271.717 266.29C271.429 266.88 271.024 267.339 270.504 267.667C269.987 267.995 269.384 268.159 268.694 268.159ZM268.694 267.105C269.218 267.105 269.649 266.971 269.987 266.702C270.325 266.434 270.575 266.081 270.738 265.643C270.9 265.206 270.981 264.732 270.981 264.222C270.981 263.711 270.9 263.236 270.738 262.795C270.575 262.354 270.325 261.998 269.987 261.726C269.649 261.454 269.218 261.318 268.694 261.318C268.171 261.318 267.74 261.454 267.402 261.726C267.064 261.998 266.814 262.354 266.651 262.795C266.489 263.236 266.408 263.711 266.408 264.222C266.408 264.732 266.489 265.206 266.651 265.643C266.814 266.081 267.064 266.434 267.402 266.702C267.74 266.971 268.171 267.105 268.694 267.105ZM275.219 263.406V268H274.046V260.364H275.179V261.557H275.279C275.458 261.169 275.729 260.857 276.094 260.622C276.459 260.384 276.929 260.264 277.506 260.264C278.023 260.264 278.475 260.37 278.863 260.582C279.251 260.791 279.553 261.109 279.768 261.537C279.983 261.961 280.091 262.498 280.091 263.148V268H278.918V263.227C278.918 262.627 278.762 262.16 278.451 261.825C278.139 261.487 277.711 261.318 277.168 261.318C276.793 261.318 276.459 261.399 276.164 261.562C275.872 261.724 275.642 261.961 275.473 262.273C275.303 262.584 275.219 262.962 275.219 263.406Z" fill="#44444F"/>
<path d="M300.422 257.818V268H298.269V259.862H298.209L295.878 261.323V259.414L298.398 257.818H300.422ZM306.66 268.139C305.958 268.139 305.331 268.01 304.781 267.751C304.234 267.493 303.8 267.137 303.478 266.683C303.157 266.228 302.99 265.708 302.976 265.121H305.064C305.088 265.516 305.253 265.836 305.562 266.081C305.87 266.326 306.236 266.449 306.66 266.449C306.998 266.449 307.297 266.374 307.555 266.225C307.817 266.073 308.021 265.862 308.167 265.594C308.316 265.322 308.39 265.01 308.39 264.659C308.39 264.301 308.314 263.986 308.162 263.714C308.013 263.443 307.805 263.231 307.54 263.078C307.275 262.926 306.972 262.848 306.63 262.844C306.332 262.844 306.042 262.906 305.76 263.028C305.482 263.151 305.265 263.318 305.109 263.531L303.195 263.188L303.677 257.818H309.902V259.578H305.452L305.189 262.129H305.248C305.427 261.877 305.697 261.668 306.059 261.502C306.42 261.336 306.824 261.254 307.272 261.254C307.885 261.254 308.432 261.398 308.912 261.686C309.393 261.974 309.773 262.371 310.051 262.874C310.329 263.375 310.467 263.951 310.464 264.604C310.467 265.29 310.308 265.9 309.986 266.434C309.668 266.964 309.222 267.382 308.649 267.687C308.079 267.988 307.416 268.139 306.66 268.139ZM312.995 268.129C312.667 268.129 312.385 268.013 312.15 267.781C311.918 267.546 311.802 267.264 311.802 266.936C311.802 266.611 311.918 266.333 312.15 266.101C312.385 265.869 312.667 265.753 312.995 265.753C313.313 265.753 313.591 265.869 313.83 266.101C314.069 266.333 314.188 266.611 314.188 266.936C314.188 267.155 314.132 267.355 314.019 267.538C313.909 267.717 313.765 267.861 313.586 267.97C313.407 268.076 313.21 268.129 312.995 268.129ZM316.027 268L320.248 259.648V259.578H315.331V257.818H322.475V259.603L318.249 268H316.027ZM325.989 265.803L325.994 263.262H326.302L328.748 260.364H331.179L327.893 264.202H327.391L325.989 265.803ZM324.07 268V257.818H326.188V268H324.07ZM328.843 268L326.596 264.674L328.008 263.178L331.324 268H328.843Z" fill="#44444F"/>
</g>
<path fill-rule="evenodd" clip-rule="evenodd" d="M320.35 27L315.342 22.7071C314.886 22.3166 314.886 21.6834 315.342 21.2929C315.797 20.9024 316.536 20.9024 316.992 21.2929L322.825 26.2929C323.281 26.6834 323.281 27.3166 322.825 27.7071L316.992 32.7071C316.536 33.0976 315.797 33.0976 315.342 32.7071C314.886 32.3166 314.886 31.6834 315.342 31.2929L320.35 27Z" fill="#92929D"/>
<path fill-rule="evenodd" clip-rule="evenodd" d="M29.6499 27L34.6583 31.2929C35.1139 31.6834 35.1139 32.3166 34.6583 32.7071C34.2027 33.0976 33.464 33.0976 33.0084 32.7071L27.1751 27.7071C26.7194 27.3166 26.7194 26.6834 27.1751 26.2929L33.0084 21.2929C33.464 20.9024 34.2027 20.9024 34.6583 21.2929C35.1139 21.6834 35.1139 22.3166 34.6583 22.7071L29.6499 27Z" fill="#92929D"/>
<path d="M157.367 31V29.4773L161.407 25.517C161.794 25.1269 162.116 24.7803 162.373 24.4773C162.631 24.1742 162.824 23.8807 162.953 23.5966C163.081 23.3125 163.146 23.0095 163.146 22.6875C163.146 22.3201 163.062 22.0057 162.896 21.7443C162.729 21.4792 162.5 21.2746 162.208 21.1307C161.917 20.9867 161.585 20.9148 161.214 20.9148C160.831 20.9148 160.496 20.9943 160.208 21.1534C159.92 21.3087 159.697 21.5303 159.538 21.8182C159.383 22.1061 159.305 22.4489 159.305 22.8466H157.299C157.299 22.108 157.468 21.4659 157.805 20.9205C158.142 20.375 158.606 19.9527 159.197 19.6534C159.792 19.3542 160.473 19.2045 161.242 19.2045C162.023 19.2045 162.708 19.3504 163.299 19.642C163.89 19.9337 164.348 20.3333 164.674 20.8409C165.004 21.3485 165.169 21.928 165.169 22.5795C165.169 23.0152 165.085 23.4432 164.919 23.8636C164.752 24.2841 164.458 24.75 164.038 25.2614C163.621 25.7727 163.036 26.392 162.282 27.1193L160.277 29.1591V29.2386H165.345V31H157.367ZM171.706 31.2216C170.77 31.2216 169.967 30.9848 169.297 30.5114C168.63 30.0341 168.117 29.3466 167.757 28.4489C167.401 27.5473 167.223 26.4621 167.223 25.1932C167.227 23.9242 167.407 22.8447 167.763 21.9545C168.123 21.0606 168.636 20.3788 169.303 19.9091C169.973 19.4394 170.774 19.2045 171.706 19.2045C172.638 19.2045 173.439 19.4394 174.109 19.9091C174.78 20.3788 175.293 21.0606 175.649 21.9545C176.009 22.8485 176.189 23.928 176.189 25.1932C176.189 26.4659 176.009 27.553 175.649 28.4545C175.293 29.3523 174.78 30.0379 174.109 30.5114C173.443 30.9848 172.642 31.2216 171.706 31.2216ZM171.706 29.4432C172.433 29.4432 173.007 29.0852 173.428 28.3693C173.852 27.6496 174.064 26.5909 174.064 25.1932C174.064 24.2689 173.967 23.4924 173.774 22.8636C173.581 22.2348 173.308 21.7614 172.956 21.4432C172.604 21.1212 172.187 20.9602 171.706 20.9602C170.983 20.9602 170.411 21.3201 169.99 22.0398C169.57 22.7557 169.358 23.8068 169.354 25.1932C169.35 26.1212 169.443 26.9015 169.632 27.5341C169.825 28.1667 170.098 28.6439 170.45 28.9659C170.803 29.2841 171.221 29.4432 171.706 29.4432ZM178.177 31V29.4773L182.217 25.517C182.603 25.1269 182.925 24.7803 183.182 24.4773C183.44 24.1742 183.633 23.8807 183.762 23.5966C183.891 23.3125 183.955 23.0095 183.955 22.6875C183.955 22.3201 183.872 22.0057 183.705 21.7443C183.539 21.4792 183.309 21.2746 183.018 21.1307C182.726 20.9867 182.395 20.9148 182.023 20.9148C181.641 20.9148 181.306 20.9943 181.018 21.1534C180.73 21.3087 180.506 21.5303 180.347 21.8182C180.192 22.1061 180.114 22.4489 180.114 22.8466H178.109C178.109 22.108 178.277 21.4659 178.614 20.9205C178.951 20.375 179.415 19.9527 180.006 19.6534C180.601 19.3542 181.283 19.2045 182.052 19.2045C182.832 19.2045 183.518 19.3504 184.109 19.642C184.7 19.9337 185.158 20.3333 185.484 20.8409C185.813 21.3485 185.978 21.928 185.978 22.5795C185.978 23.0152 185.895 23.4432 185.728 23.8636C185.561 24.2841 185.268 24.75 184.847 25.2614C184.431 25.7727 183.845 26.392 183.092 27.1193L181.086 29.1591V29.2386H186.154V31H178.177ZM188.214 31V29.4773L192.254 25.517C192.64 25.1269 192.962 24.7803 193.22 24.4773C193.478 24.1742 193.671 23.8807 193.8 23.5966C193.928 23.3125 193.993 23.0095 193.993 22.6875C193.993 22.3201 193.909 22.0057 193.743 21.7443C193.576 21.4792 193.347 21.2746 193.055 21.1307C192.764 20.9867 192.432 20.9148 192.061 20.9148C191.678 20.9148 191.343 20.9943 191.055 21.1534C190.767 21.3087 190.544 21.5303 190.385 21.8182C190.229 22.1061 190.152 22.4489 190.152 22.8466H188.146C188.146 22.108 188.315 21.4659 188.652 20.9205C188.989 20.375 189.453 19.9527 190.044 19.6534C190.639 19.3542 191.32 19.2045 192.089 19.2045C192.87 19.2045 193.555 19.3504 194.146 19.642C194.737 19.9337 195.195 20.3333 195.521 20.8409C195.851 21.3485 196.015 21.928 196.015 22.5795C196.015 23.0152 195.932 23.4432 195.765 23.8636C195.599 24.2841 195.305 24.75 194.885 25.2614C194.468 25.7727 193.883 26.392 193.129 27.1193L191.123 29.1591V29.2386H196.192V31H188.214Z" fill="#171725"/>
<path fill-rule="evenodd" clip-rule="evenodd" d="M175 191C210.899 191 240 161.899 240 126C240 90.1015 210.899 61 175 61C139.101 61 110 90.1015 110 126C110 161.899 139.101 191 175 191Z" stroke="#0062FF" stroke-width="5.12"/>
<path d="M111.854 110.524C110.642 115.484 110 120.667 110 126C110 150.413 123.458 171.682 143.36 182.793" stroke="#3DD598" stroke-width="5.12" stroke-linecap="round" stroke-linejoin="round"/>
<path d="M143.449 182.842C152.792 188.04 163.55 191 175 191V191" stroke="#FF974A" stroke-width="5.12" stroke-linecap="round" stroke-linejoin="round"/>
<path d="M175 191C210.899 191 240 161.899 240 126C240 90.1015 210.899 61 175 61" stroke="#FFC542" stroke-width="5.12" stroke-linecap="round" stroke-linejoin="round"/>
<path d="M146.908 124.5V122.795L151.433 118.359C151.865 117.922 152.226 117.534 152.515 117.195C152.803 116.855 153.019 116.526 153.164 116.208C153.308 115.89 153.38 115.551 153.38 115.19C153.38 114.779 153.287 114.426 153.1 114.134C152.913 113.837 152.657 113.608 152.33 113.446C152.003 113.285 151.632 113.205 151.216 113.205C150.788 113.205 150.412 113.294 150.09 113.472C149.768 113.646 149.517 113.894 149.339 114.216C149.165 114.539 149.078 114.923 149.078 115.368H146.832C146.832 114.541 147.021 113.822 147.398 113.211C147.776 112.6 148.295 112.127 148.957 111.792C149.623 111.457 150.387 111.289 151.248 111.289C152.122 111.289 152.89 111.452 153.552 111.779C154.214 112.106 154.727 112.553 155.092 113.122C155.461 113.69 155.645 114.339 155.645 115.069C155.645 115.557 155.552 116.036 155.365 116.507C155.179 116.978 154.85 117.5 154.379 118.073C153.912 118.646 153.257 119.339 152.413 120.154L150.166 122.438V122.527H155.843V124.5H146.908ZM158.113 124.5V122.795L162.637 118.359C163.07 117.922 163.431 117.534 163.719 117.195C164.008 116.855 164.224 116.526 164.368 116.208C164.513 115.89 164.585 115.551 164.585 115.19C164.585 114.779 164.491 114.426 164.305 114.134C164.118 113.837 163.861 113.608 163.535 113.446C163.208 113.285 162.837 113.205 162.421 113.205C161.993 113.205 161.617 113.294 161.295 113.472C160.972 113.646 160.722 113.894 160.544 114.216C160.37 114.539 160.283 114.923 160.283 115.368H158.036C158.036 114.541 158.225 113.822 158.603 113.211C158.98 112.6 159.5 112.127 160.162 111.792C160.828 111.457 161.592 111.289 162.453 111.289C163.327 111.289 164.095 111.452 164.756 111.779C165.418 112.106 165.932 112.553 166.296 113.122C166.666 113.69 166.85 114.339 166.85 115.069C166.85 115.557 166.757 116.036 166.57 116.507C166.383 116.978 166.055 117.5 165.584 118.073C165.117 118.646 164.462 119.339 163.617 120.154L161.371 122.438V122.527H167.047V124.5H158.113ZM170.762 124.64C170.376 124.64 170.045 124.504 169.769 124.233C169.494 123.961 169.358 123.63 169.362 123.24C169.358 122.858 169.494 122.532 169.769 122.26C170.045 121.989 170.376 121.853 170.762 121.853C171.135 121.853 171.46 121.989 171.736 122.26C172.016 122.532 172.158 122.858 172.162 123.24C172.158 123.499 172.09 123.734 171.958 123.946C171.831 124.159 171.661 124.328 171.449 124.456C171.241 124.579 171.012 124.64 170.762 124.64ZM178.732 124.678C177.786 124.678 176.946 124.519 176.212 124.201C175.483 123.883 174.91 123.448 174.494 122.896C174.083 122.341 173.879 121.711 173.883 121.006C173.879 120.459 173.998 119.956 174.24 119.498C174.481 119.04 174.808 118.658 175.22 118.353C175.635 118.043 176.098 117.846 176.607 117.761V117.672C175.937 117.523 175.394 117.182 174.978 116.647C174.566 116.109 174.363 115.487 174.367 114.783C174.363 114.112 174.549 113.514 174.927 112.988C175.304 112.462 175.822 112.049 176.48 111.747C177.137 111.442 177.888 111.289 178.732 111.289C179.568 111.289 180.313 111.442 180.966 111.747C181.624 112.049 182.141 112.462 182.519 112.988C182.901 113.514 183.091 114.112 183.091 114.783C183.091 115.487 182.881 116.109 182.461 116.647C182.046 117.182 181.509 117.523 180.851 117.672V117.761C181.361 117.846 181.819 118.043 182.226 118.353C182.638 118.658 182.964 119.04 183.206 119.498C183.452 119.956 183.575 120.459 183.575 121.006C183.575 121.711 183.367 122.341 182.951 122.896C182.536 123.448 181.963 123.883 181.233 124.201C180.508 124.519 179.674 124.678 178.732 124.678ZM178.732 122.858C179.22 122.858 179.644 122.776 180.005 122.61C180.366 122.44 180.646 122.203 180.845 121.897C181.044 121.592 181.146 121.24 181.151 120.841C181.146 120.425 181.038 120.058 180.826 119.74C180.618 119.418 180.332 119.165 179.967 118.983C179.606 118.8 179.195 118.709 178.732 118.709C178.266 118.709 177.85 118.8 177.485 118.983C177.12 119.165 176.832 119.418 176.62 119.74C176.412 120.058 176.31 120.425 176.314 120.841C176.31 121.24 176.408 121.592 176.607 121.897C176.806 122.199 177.086 122.434 177.447 122.604C177.812 122.773 178.24 122.858 178.732 122.858ZM178.732 116.921C179.131 116.921 179.483 116.84 179.789 116.679C180.098 116.518 180.342 116.293 180.521 116.005C180.699 115.716 180.79 115.383 180.794 115.006C180.79 114.632 180.701 114.306 180.527 114.026C180.353 113.741 180.111 113.523 179.801 113.37C179.492 113.213 179.135 113.135 178.732 113.135C178.321 113.135 177.958 113.213 177.644 113.37C177.334 113.523 177.093 113.741 176.919 114.026C176.749 114.306 176.666 114.632 176.671 115.006C176.666 115.383 176.751 115.716 176.925 116.005C177.103 116.289 177.347 116.514 177.657 116.679C177.971 116.84 178.329 116.921 178.732 116.921ZM186.219 124.5L191.762 113.529V113.44H185.328V111.467H194.205V113.485L188.669 124.5H186.219ZM200.871 124.748C199.823 124.748 198.924 124.483 198.173 123.953C197.426 123.418 196.852 122.648 196.449 121.643C196.05 120.633 195.85 119.418 195.85 117.996C195.855 116.575 196.056 115.366 196.455 114.369C196.858 113.368 197.433 112.604 198.179 112.078C198.93 111.552 199.828 111.289 200.871 111.289C201.915 111.289 202.812 111.552 203.563 112.078C204.314 112.604 204.889 113.368 205.288 114.369C205.691 115.37 205.892 116.579 205.892 117.996C205.892 119.422 205.691 120.639 205.288 121.649C204.889 122.655 204.314 123.422 203.563 123.953C202.816 124.483 201.919 124.748 200.871 124.748ZM200.871 122.756C201.686 122.756 202.329 122.356 202.799 121.554C203.275 120.748 203.512 119.562 203.512 117.996C203.512 116.961 203.404 116.092 203.188 115.387C202.971 114.683 202.666 114.153 202.271 113.796C201.877 113.436 201.41 113.256 200.871 113.256C200.061 113.256 199.42 113.659 198.949 114.465C198.479 115.266 198.241 116.444 198.237 117.996C198.232 119.036 198.336 119.91 198.549 120.618C198.765 121.327 199.07 121.861 199.465 122.222C199.859 122.578 200.328 122.756 200.871 122.756Z" fill="#171725"/>
<path d="M135.431 139.656L137.366 145.141H137.442L139.377 139.656H140.204L137.811 146.172H136.997L134.604 139.656H135.431ZM141.181 146.172V141.285H141.932V146.172H141.181ZM141.563 140.47C141.417 140.47 141.291 140.42 141.184 140.321C141.081 140.221 141.029 140.101 141.029 139.961C141.029 139.821 141.081 139.701 141.184 139.601C141.291 139.502 141.417 139.452 141.563 139.452C141.709 139.452 141.835 139.502 141.939 139.601C142.045 139.701 142.098 139.821 142.098 139.961C142.098 140.101 142.045 140.221 141.939 140.321C141.835 140.42 141.709 140.47 141.563 140.47ZM146.833 142.379L146.159 142.57C146.116 142.458 146.054 142.348 145.971 142.242C145.89 142.134 145.78 142.045 145.64 141.975C145.5 141.905 145.321 141.87 145.102 141.87C144.803 141.87 144.554 141.939 144.355 142.077C144.157 142.213 144.059 142.386 144.059 142.596C144.059 142.782 144.127 142.93 144.262 143.038C144.398 143.146 144.61 143.236 144.899 143.308L145.624 143.486C146.061 143.592 146.387 143.755 146.601 143.973C146.815 144.19 146.922 144.469 146.922 144.81C146.922 145.09 146.842 145.34 146.681 145.561C146.522 145.782 146.299 145.956 146.012 146.083C145.726 146.21 145.393 146.274 145.013 146.274C144.515 146.274 144.102 146.166 143.776 145.949C143.449 145.733 143.242 145.417 143.155 145.001L143.868 144.823C143.936 145.086 144.064 145.283 144.253 145.415C144.444 145.546 144.693 145.612 145.001 145.612C145.351 145.612 145.628 145.538 145.834 145.389C146.042 145.239 146.146 145.058 146.146 144.848C146.146 144.679 146.087 144.536 145.968 144.422C145.849 144.305 145.667 144.218 145.421 144.161L144.606 143.97C144.158 143.864 143.83 143.7 143.62 143.477C143.412 143.252 143.308 142.971 143.308 142.634C143.308 142.358 143.385 142.114 143.54 141.902C143.697 141.69 143.91 141.523 144.18 141.402C144.451 141.281 144.759 141.221 145.102 141.221C145.586 141.221 145.966 141.327 146.242 141.539C146.519 141.751 146.717 142.031 146.833 142.379ZM148.117 146.172V141.285H148.868V146.172H148.117ZM148.499 140.47C148.352 140.47 148.226 140.42 148.12 140.321C148.016 140.221 147.964 140.101 147.964 139.961C147.964 139.821 148.016 139.701 148.12 139.601C148.226 139.502 148.352 139.452 148.499 139.452C148.645 139.452 148.77 139.502 148.874 139.601C148.98 139.701 149.033 139.821 149.033 139.961C149.033 140.101 148.98 140.221 148.874 140.321C148.77 140.42 148.645 140.47 148.499 140.47ZM152.432 141.285V141.921H149.9V141.285H152.432ZM150.638 140.114H151.389V144.772C151.389 144.984 151.42 145.143 151.481 145.249C151.545 145.353 151.625 145.423 151.723 145.459C151.823 145.493 151.928 145.51 152.038 145.51C152.121 145.51 152.189 145.506 152.242 145.497C152.295 145.487 152.337 145.478 152.369 145.472L152.522 146.146C152.471 146.166 152.4 146.185 152.308 146.204C152.217 146.225 152.102 146.236 151.962 146.236C151.749 146.236 151.542 146.19 151.338 146.099C151.136 146.007 150.969 145.869 150.835 145.682C150.704 145.495 150.638 145.26 150.638 144.976V140.114ZM155.064 146.286C154.755 146.286 154.473 146.228 154.221 146.111C153.969 145.993 153.768 145.822 153.62 145.599C153.471 145.374 153.397 145.103 153.397 144.785C153.397 144.505 153.452 144.278 153.562 144.104C153.673 143.928 153.82 143.79 154.005 143.69C154.189 143.59 154.393 143.516 154.616 143.467C154.84 143.416 155.066 143.376 155.293 143.346C155.59 143.308 155.831 143.28 156.016 143.261C156.202 143.239 156.338 143.204 156.423 143.156C156.51 143.107 156.553 143.022 156.553 142.901V142.876C156.553 142.562 156.467 142.318 156.296 142.144C156.126 141.97 155.868 141.883 155.522 141.883C155.164 141.883 154.883 141.961 154.679 142.118C154.476 142.275 154.332 142.443 154.25 142.621L153.537 142.366C153.664 142.069 153.834 141.838 154.046 141.673C154.26 141.505 154.494 141.389 154.746 141.323C155.001 141.255 155.251 141.221 155.497 141.221C155.654 141.221 155.834 141.24 156.038 141.278C156.244 141.314 156.442 141.39 156.633 141.504C156.826 141.619 156.986 141.792 157.113 142.023C157.241 142.254 157.304 142.564 157.304 142.952V146.172H156.553V145.51H156.515C156.464 145.616 156.379 145.73 156.261 145.851C156.142 145.971 155.984 146.074 155.786 146.159C155.589 146.244 155.348 146.286 155.064 146.286ZM155.179 145.612C155.476 145.612 155.726 145.554 155.93 145.437C156.135 145.32 156.29 145.17 156.394 144.985C156.5 144.801 156.553 144.606 156.553 144.403V143.716C156.521 143.754 156.451 143.789 156.343 143.821C156.237 143.85 156.114 143.877 155.974 143.9C155.836 143.921 155.702 143.94 155.57 143.957C155.441 143.972 155.336 143.985 155.255 143.996C155.06 144.021 154.878 144.062 154.708 144.12C154.54 144.175 154.405 144.259 154.301 144.371C154.199 144.481 154.148 144.632 154.148 144.823C154.148 145.084 154.244 145.281 154.437 145.415C154.633 145.546 154.88 145.612 155.179 145.612ZM159.49 143.232V146.172H158.739V141.285H159.464V142.048H159.528C159.642 141.8 159.816 141.601 160.05 141.45C160.283 141.297 160.584 141.221 160.953 141.221C161.284 141.221 161.574 141.289 161.822 141.425C162.07 141.558 162.263 141.762 162.401 142.036C162.539 142.307 162.608 142.651 162.608 143.066V146.172H161.857V143.117C161.857 142.733 161.757 142.434 161.558 142.22C161.358 142.004 161.085 141.896 160.737 141.896C160.497 141.896 160.283 141.947 160.094 142.051C159.908 142.155 159.76 142.307 159.652 142.506C159.544 142.706 159.49 142.948 159.49 143.232ZM166.169 141.285V141.921H163.637V141.285H166.169ZM164.375 140.114H165.126V144.772C165.126 144.984 165.157 145.143 165.218 145.249C165.282 145.353 165.362 145.423 165.46 145.459C165.56 145.493 165.665 145.51 165.775 145.51C165.858 145.51 165.926 145.506 165.979 145.497C166.032 145.487 166.074 145.478 166.106 145.472L166.259 146.146C166.208 146.166 166.137 146.185 166.045 146.204C165.954 146.225 165.839 146.236 165.699 146.236C165.486 146.236 165.279 146.19 165.075 146.099C164.873 146.007 164.706 145.869 164.572 145.682C164.441 145.495 164.375 145.26 164.375 144.976V140.114ZM169.36 146.274C168.889 146.274 168.482 146.17 168.141 145.962C167.802 145.752 167.54 145.459 167.355 145.084C167.173 144.706 167.081 144.267 167.081 143.766C167.081 143.266 167.173 142.825 167.355 142.443C167.54 142.059 167.796 141.76 168.125 141.546C168.456 141.329 168.842 141.221 169.283 141.221C169.538 141.221 169.789 141.263 170.037 141.348C170.286 141.433 170.511 141.571 170.715 141.762C170.919 141.951 171.081 142.201 171.202 142.513C171.323 142.825 171.383 143.209 171.383 143.665V143.983H167.616V143.334H170.62C170.62 143.058 170.564 142.812 170.454 142.596C170.346 142.379 170.191 142.208 169.99 142.083C169.79 141.958 169.555 141.896 169.283 141.896C168.984 141.896 168.725 141.97 168.507 142.118C168.291 142.265 168.124 142.456 168.007 142.691C167.891 142.926 167.832 143.179 167.832 143.448V143.881C167.832 144.25 167.896 144.563 168.023 144.82C168.153 145.074 168.332 145.268 168.561 145.402C168.79 145.533 169.056 145.599 169.36 145.599C169.557 145.599 169.735 145.572 169.894 145.516C170.055 145.459 170.194 145.374 170.311 145.262C170.428 145.147 170.518 145.005 170.581 144.836L171.307 145.039C171.231 145.285 171.102 145.502 170.922 145.688C170.742 145.873 170.519 146.017 170.254 146.121C169.989 146.223 169.691 146.274 169.36 146.274ZM176.051 142.379L175.377 142.57C175.334 142.458 175.272 142.348 175.189 142.242C175.108 142.134 174.998 142.045 174.858 141.975C174.718 141.905 174.539 141.87 174.32 141.87C174.021 141.87 173.772 141.939 173.573 142.077C173.375 142.213 173.277 142.386 173.277 142.596C173.277 142.782 173.345 142.93 173.48 143.038C173.616 143.146 173.828 143.236 174.117 143.308L174.842 143.486C175.279 143.592 175.605 143.755 175.819 143.973C176.033 144.19 176.14 144.469 176.14 144.81C176.14 145.09 176.06 145.34 175.899 145.561C175.74 145.782 175.517 145.956 175.23 146.083C174.944 146.21 174.611 146.274 174.231 146.274C173.733 146.274 173.32 146.166 172.994 145.949C172.667 145.733 172.46 145.417 172.373 145.001L173.086 144.823C173.154 145.086 173.282 145.283 173.471 145.415C173.662 145.546 173.911 145.612 174.219 145.612C174.569 145.612 174.846 145.538 175.052 145.389C175.26 145.239 175.364 145.058 175.364 144.848C175.364 144.679 175.305 144.536 175.186 144.422C175.067 144.305 174.885 144.218 174.639 144.161L173.824 143.97C173.376 143.864 173.048 143.7 172.838 143.477C172.63 143.252 172.526 142.971 172.526 142.634C172.526 142.358 172.603 142.114 172.758 141.902C172.915 141.69 173.128 141.523 173.398 141.402C173.669 141.281 173.977 141.221 174.32 141.221C174.804 141.221 175.184 141.327 175.46 141.539C175.737 141.751 175.935 142.031 176.051 142.379ZM181.968 146.274C181.497 146.274 181.091 146.17 180.749 145.962C180.41 145.752 180.148 145.459 179.963 145.084C179.781 144.706 179.69 144.267 179.69 143.766C179.69 143.266 179.781 142.825 179.963 142.443C180.148 142.059 180.405 141.76 180.733 141.546C181.064 141.329 181.45 141.221 181.891 141.221C182.146 141.221 182.397 141.263 182.646 141.348C182.894 141.433 183.12 141.571 183.323 141.762C183.527 141.951 183.689 142.201 183.81 142.513C183.931 142.825 183.991 143.209 183.991 143.665V143.983H180.224V143.334H183.228C183.228 143.058 183.173 142.812 183.062 142.596C182.954 142.379 182.799 142.208 182.598 142.083C182.398 141.958 182.163 141.896 181.891 141.896C181.592 141.896 181.334 141.97 181.115 142.118C180.899 142.265 180.732 142.456 180.616 142.691C180.499 142.926 180.441 143.179 180.441 143.448V143.881C180.441 144.25 180.504 144.563 180.631 144.82C180.761 145.074 180.94 145.268 181.169 145.402C181.398 145.533 181.665 145.599 181.968 145.599C182.165 145.599 182.343 145.572 182.502 145.516C182.664 145.459 182.803 145.374 182.919 145.262C183.036 145.147 183.126 145.005 183.19 144.836L183.915 145.039C183.839 145.285 183.71 145.502 183.53 145.688C183.35 145.873 183.127 146.017 182.862 146.121C182.597 146.223 182.299 146.274 181.968 146.274ZM188.66 142.379L187.985 142.57C187.943 142.458 187.88 142.348 187.797 142.242C187.717 142.134 187.606 142.045 187.466 141.975C187.326 141.905 187.147 141.87 186.929 141.87C186.63 141.87 186.38 141.939 186.181 142.077C185.984 142.213 185.885 142.386 185.885 142.596C185.885 142.782 185.953 142.93 186.089 143.038C186.224 143.146 186.437 143.236 186.725 143.308L187.451 143.486C187.887 143.592 188.213 143.755 188.427 143.973C188.642 144.19 188.749 144.469 188.749 144.81C188.749 145.09 188.668 145.34 188.507 145.561C188.348 145.782 188.125 145.956 187.839 146.083C187.552 146.21 187.219 146.274 186.84 146.274C186.341 146.274 185.929 146.166 185.602 145.949C185.275 145.733 185.068 145.417 184.981 145.001L185.694 144.823C185.762 145.086 185.89 145.283 186.079 145.415C186.27 145.546 186.519 145.612 186.827 145.612C187.177 145.612 187.455 145.538 187.661 145.389C187.868 145.239 187.972 145.058 187.972 144.848C187.972 144.679 187.913 144.536 187.794 144.422C187.675 144.305 187.493 144.218 187.247 144.161L186.432 143.97C185.985 143.864 185.656 143.7 185.446 143.477C185.238 143.252 185.134 142.971 185.134 142.634C185.134 142.358 185.212 142.114 185.366 141.902C185.523 141.69 185.737 141.523 186.006 141.402C186.277 141.281 186.585 141.221 186.929 141.221C187.412 141.221 187.792 141.327 188.068 141.539C188.346 141.751 188.543 142.031 188.66 142.379ZM193.405 142.379L192.73 142.57C192.688 142.458 192.625 142.348 192.543 142.242C192.462 142.134 192.352 142.045 192.212 141.975C192.072 141.905 191.892 141.87 191.674 141.87C191.375 141.87 191.126 141.939 190.926 142.077C190.729 142.213 190.63 142.386 190.63 142.596C190.63 142.782 190.698 142.93 190.834 143.038C190.97 143.146 191.182 143.236 191.47 143.308L192.196 143.486C192.633 143.592 192.958 143.755 193.173 143.973C193.387 144.19 193.494 144.469 193.494 144.81C193.494 145.09 193.413 145.34 193.252 145.561C193.093 145.782 192.87 145.956 192.584 146.083C192.298 146.21 191.965 146.274 191.585 146.274C191.086 146.274 190.674 146.166 190.347 145.949C190.02 145.733 189.814 145.417 189.727 145.001L190.439 144.823C190.507 145.086 190.636 145.283 190.824 145.415C191.015 145.546 191.265 145.612 191.572 145.612C191.922 145.612 192.2 145.538 192.406 145.389C192.614 145.239 192.718 145.058 192.718 144.848C192.718 144.679 192.658 144.536 192.539 144.422C192.421 144.305 192.238 144.218 191.992 144.161L191.178 143.97C190.73 143.864 190.401 143.7 190.191 143.477C189.983 143.252 189.879 142.971 189.879 142.634C189.879 142.358 189.957 142.114 190.112 141.902C190.269 141.69 190.482 141.523 190.751 141.402C191.023 141.281 191.33 141.221 191.674 141.221C192.158 141.221 192.537 141.327 192.813 141.539C193.091 141.751 193.288 142.031 193.405 142.379ZM196.737 146.274C196.266 146.274 195.86 146.17 195.519 145.962C195.179 145.752 194.917 145.459 194.733 145.084C194.55 144.706 194.459 144.267 194.459 143.766C194.459 143.266 194.55 142.825 194.733 142.443C194.917 142.059 195.174 141.76 195.503 141.546C195.834 141.329 196.22 141.221 196.661 141.221C196.916 141.221 197.167 141.263 197.415 141.348C197.663 141.433 197.889 141.571 198.093 141.762C198.296 141.951 198.459 142.201 198.58 142.513C198.701 142.825 198.761 143.209 198.761 143.665V143.983H194.994V143.334H197.997C197.997 143.058 197.942 142.812 197.832 142.596C197.724 142.379 197.569 142.208 197.367 142.083C197.168 141.958 196.933 141.896 196.661 141.896C196.362 141.896 196.103 141.97 195.885 142.118C195.668 142.265 195.502 142.456 195.385 142.691C195.268 142.926 195.21 143.179 195.21 143.448V143.881C195.21 144.25 195.274 144.563 195.401 144.82C195.53 145.074 195.71 145.268 195.939 145.402C196.168 145.533 196.434 145.599 196.737 145.599C196.935 145.599 197.113 145.572 197.272 145.516C197.433 145.459 197.572 145.374 197.689 145.262C197.805 145.147 197.896 145.005 197.959 144.836L198.685 145.039C198.608 145.285 198.48 145.502 198.3 145.688C198.119 145.873 197.897 146.017 197.631 146.121C197.366 146.223 197.068 146.274 196.737 146.274ZM203.989 146.286C203.68 146.286 203.399 146.228 203.146 146.111C202.894 145.993 202.693 145.822 202.545 145.599C202.396 145.374 202.322 145.103 202.322 144.785C202.322 144.505 202.377 144.278 202.488 144.104C202.598 143.928 202.745 143.79 202.93 143.69C203.114 143.59 203.318 143.516 203.541 143.467C203.766 143.416 203.992 143.376 204.219 143.346C204.516 143.308 204.756 143.28 204.941 143.261C205.127 143.239 205.263 143.204 205.348 143.156C205.435 143.107 205.479 143.022 205.479 142.901V142.876C205.479 142.562 205.393 142.318 205.221 142.144C205.051 141.97 204.793 141.883 204.448 141.883C204.089 141.883 203.808 141.961 203.604 142.118C203.401 142.275 203.258 142.443 203.175 142.621L202.462 142.366C202.589 142.069 202.759 141.838 202.971 141.673C203.186 141.505 203.419 141.389 203.671 141.323C203.926 141.255 204.176 141.221 204.422 141.221C204.579 141.221 204.759 141.24 204.963 141.278C205.169 141.314 205.367 141.39 205.558 141.504C205.751 141.619 205.911 141.792 206.039 142.023C206.166 142.254 206.229 142.564 206.229 142.952V146.172H205.479V145.51H205.44C205.389 145.616 205.305 145.73 205.186 145.851C205.067 145.971 204.909 146.074 204.712 146.159C204.514 146.244 204.274 146.286 203.989 146.286ZM204.104 145.612C204.401 145.612 204.651 145.554 204.855 145.437C205.061 145.32 205.216 145.17 205.319 144.985C205.426 144.801 205.479 144.606 205.479 144.403V143.716C205.447 143.754 205.377 143.789 205.269 143.821C205.162 143.85 205.039 143.877 204.899 143.9C204.762 143.921 204.627 143.94 204.495 143.957C204.366 143.972 204.261 143.985 204.18 143.996C203.985 144.021 203.803 144.062 203.633 144.12C203.466 144.175 203.33 144.259 203.226 144.371C203.124 144.481 203.073 144.632 203.073 144.823C203.073 145.084 203.17 145.281 203.363 145.415C203.558 145.546 203.805 145.612 204.104 145.612ZM208.415 143.232V146.172H207.664V141.285H208.389V142.048H208.453C208.568 141.8 208.742 141.601 208.975 141.45C209.208 141.297 209.509 141.221 209.879 141.221C210.209 141.221 210.499 141.289 210.747 141.425C210.995 141.558 211.188 141.762 211.326 142.036C211.464 142.307 211.533 142.651 211.533 143.066V146.172H210.782V143.117C210.782 142.733 210.683 142.434 210.483 142.22C210.284 142.004 210.01 141.896 209.662 141.896C209.423 141.896 209.208 141.947 209.019 142.051C208.833 142.155 208.685 142.307 208.577 142.506C208.469 142.706 208.415 142.948 208.415 143.232ZM214.955 146.274C214.514 146.274 214.126 146.169 213.793 145.959C213.462 145.749 213.204 145.455 213.017 145.077C212.832 144.7 212.74 144.259 212.74 143.754C212.74 143.245 212.832 142.8 213.017 142.421C213.204 142.041 213.462 141.746 213.793 141.536C214.126 141.326 214.514 141.221 214.955 141.221C215.396 141.221 215.782 141.326 216.113 141.536C216.446 141.746 216.705 142.041 216.889 142.421C217.076 142.8 217.169 143.245 217.169 143.754C217.169 144.259 217.076 144.7 216.889 145.077C216.705 145.455 216.446 145.749 216.113 145.959C215.782 146.169 215.396 146.274 214.955 146.274ZM214.955 145.599C215.29 145.599 215.566 145.513 215.782 145.341C215.998 145.17 216.159 144.944 216.262 144.664C216.366 144.384 216.418 144.08 216.418 143.754C216.418 143.427 216.366 143.123 216.262 142.841C216.159 142.558 215.998 142.33 215.782 142.156C215.566 141.982 215.29 141.896 214.955 141.896C214.62 141.896 214.344 141.982 214.127 142.156C213.911 142.33 213.751 142.558 213.647 142.841C213.543 143.123 213.491 143.427 213.491 143.754C213.491 144.08 213.543 144.384 213.647 144.664C213.751 144.944 213.911 145.17 214.127 145.341C214.344 145.513 214.62 145.599 214.955 145.599Z" fill="#696974"/>
</g>
<defs>
<clipPath id="clip0_35_441">
<rect width="350" height="290" fill="white"/>
</clipPath>
<clipPath id="clip1_35_441">
<rect width="134.167" height="24" fill="white" transform="translate(28 217)"/>
</clipPath>
<clipPath id="clip2_35_441">
<rect width="148.167" height="24" fill="white" transform="translate(189 251)"/>
</clipPath>
</defs>
</svg>
