<svg width="300" height="305" viewBox="0 0 300 305" fill="none" xmlns="http://www.w3.org/2000/svg">
<g clip-path="url(#clip0_35_388)">
<rect x="1" y="1" width="298" height="303" rx="19" fill="white" stroke="#E9E6F7" stroke-width="2"/>
<mask id="mask0_35_388" style="mask-type:luminance" maskUnits="userSpaceOnUse" x="0" y="0" width="300" height="305">
<rect width="300" height="305" rx="20" fill="white"/>
</mask>
<g mask="url(#mask0_35_388)">
<g clip-path="url(#clip1_35_388)">
<rect x="55.1534" y="107" width="276.847" height="1" fill="#F1F1F5"/>
<path d="M28.1347 107.091V96.1818H28.8336V107.091H28.1347ZM30.487 99.4545C30.4358 99.0227 30.2285 98.6875 29.8648 98.4489C29.5012 98.2102 29.0552 98.0909 28.5267 98.0909C28.1404 98.0909 27.8023 98.1534 27.5125 98.2784C27.2256 98.4034 27.0012 98.5753 26.8392 98.794C26.6802 99.0128 26.6006 99.2614 26.6006 99.5398C26.6006 99.7727 26.656 99.973 26.7668 100.141C26.8804 100.305 27.0253 100.443 27.2015 100.554C27.3776 100.662 27.5623 100.751 27.7554 100.822C27.9486 100.891 28.1262 100.946 28.2881 100.989L29.1745 101.227C29.4017 101.287 29.6546 101.369 29.933 101.474C30.2142 101.58 30.4827 101.723 30.7384 101.905C30.9969 102.084 31.21 102.314 31.3776 102.595C31.5452 102.876 31.629 103.222 31.629 103.631C31.629 104.102 31.5054 104.528 31.2583 104.909C31.014 105.29 30.656 105.592 30.1844 105.817C29.7157 106.041 29.1461 106.153 28.4756 106.153C27.8506 106.153 27.3094 106.053 26.852 105.851C26.3975 105.649 26.0395 105.368 25.7782 105.007C25.5196 104.646 25.3733 104.227 25.3392 103.75H26.4302C26.4586 104.08 26.5694 104.352 26.7625 104.568C26.9586 104.781 27.2057 104.94 27.504 105.045C27.8052 105.148 28.129 105.199 28.4756 105.199C28.879 105.199 29.2412 105.134 29.5623 105.003C29.8833 104.869 30.1375 104.685 30.325 104.449C30.5125 104.21 30.6063 103.932 30.6063 103.614C30.6063 103.324 30.5253 103.088 30.3634 102.906C30.2015 102.724 29.9884 102.577 29.7242 102.463C29.46 102.349 29.1745 102.25 28.8677 102.165L27.7938 101.858C27.112 101.662 26.5722 101.382 26.1745 101.018C25.7767 100.655 25.5779 100.179 25.5779 99.5909C25.5779 99.1023 25.71 98.6761 25.9742 98.3125C26.2412 97.946 26.5992 97.6619 27.0481 97.4602C27.4998 97.2557 28.004 97.1534 28.5608 97.1534C29.1233 97.1534 29.6233 97.2543 30.0608 97.456C30.4983 97.6548 30.8449 97.9276 31.1006 98.2741C31.3591 98.6207 31.4955 99.0142 31.5097 99.4545H30.487ZM36.3671 97.2727V106H35.3103V98.3807H35.2591L33.1284 99.7955V98.7216L35.3103 97.2727H36.3671ZM39.9173 103.614L39.9002 102.369H40.1048L42.9684 99.4545H44.2127L41.1616 102.54H41.0764L39.9173 103.614ZM38.9798 106V97.2727H39.9855V106H38.9798ZM43.1389 106L40.5821 102.761L41.298 102.062L44.4173 106H43.1389Z" fill="#92929D"/>
</g>
<g clip-path="url(#clip2_35_388)">
<rect x="55.1533" y="144" width="276.847" height="1" fill="#F1F1F5"/>
<path d="M18.6154 144.091V133.182H19.3142V144.091H18.6154ZM20.9677 136.455C20.9165 136.023 20.7091 135.688 20.3455 135.449C19.9819 135.21 19.5358 135.091 19.0074 135.091C18.6211 135.091 18.283 135.153 17.9932 135.278C17.7063 135.403 17.4819 135.575 17.3199 135.794C17.1608 136.013 17.0813 136.261 17.0813 136.54C17.0813 136.773 17.1367 136.973 17.2475 137.141C17.3611 137.305 17.506 137.443 17.6821 137.554C17.8583 137.662 18.0429 137.751 18.2361 137.822C18.4293 137.891 18.6069 137.946 18.7688 137.989L19.6552 138.227C19.8824 138.287 20.1353 138.369 20.4137 138.474C20.6949 138.58 20.9634 138.723 21.2191 138.905C21.4776 139.084 21.6907 139.314 21.8583 139.595C22.0259 139.876 22.1097 140.222 22.1097 140.631C22.1097 141.102 21.9861 141.528 21.739 141.909C21.4946 142.29 21.1367 142.592 20.6651 142.817C20.1963 143.041 19.6267 143.153 18.9563 143.153C18.3313 143.153 17.7901 143.053 17.3327 142.851C16.8782 142.649 16.5202 142.368 16.2588 142.007C16.0003 141.646 15.854 141.227 15.8199 140.75H16.9108C16.9392 141.08 17.05 141.352 17.2432 141.568C17.4392 141.781 17.6864 141.94 17.9847 142.045C18.2858 142.148 18.6097 142.199 18.9563 142.199C19.3597 142.199 19.7219 142.134 20.0429 142.003C20.364 141.869 20.6182 141.685 20.8057 141.449C20.9932 141.21 21.087 140.932 21.087 140.614C21.087 140.324 21.006 140.088 20.8441 139.906C20.6821 139.724 20.4691 139.577 20.2049 139.463C19.9407 139.349 19.6552 139.25 19.3483 139.165L18.2745 138.858C17.5927 138.662 17.0529 138.382 16.6552 138.018C16.2574 137.655 16.0586 137.179 16.0586 136.591C16.0586 136.102 16.1907 135.676 16.4549 135.312C16.7219 134.946 17.0799 134.662 17.5287 134.46C17.9804 134.256 18.4847 134.153 19.0415 134.153C19.604 134.153 20.104 134.254 20.5415 134.456C20.979 134.655 21.3256 134.928 21.5813 135.274C21.8398 135.621 21.9762 136.014 21.9904 136.455H20.9677ZM24.0523 143L27.9557 135.278V135.21H23.4557V134.273H29.0466V135.261L25.1603 143H24.0523ZM33.3308 143.119C32.8308 143.119 32.3806 143.02 31.98 142.821C31.5794 142.622 31.2584 142.349 31.0169 142.003C30.7754 141.656 30.6433 141.261 30.6206 140.818H31.6433C31.6831 141.213 31.8621 141.54 32.1803 141.798C32.5013 142.054 32.8848 142.182 33.3308 142.182C33.6888 142.182 34.007 142.098 34.2854 141.93C34.5666 141.763 34.7868 141.533 34.9459 141.24C35.1078 140.945 35.1888 140.611 35.1888 140.239C35.1888 139.858 35.105 139.518 34.9374 139.22C34.7726 138.919 34.5453 138.682 34.2556 138.509C33.9658 138.335 33.6348 138.247 33.2627 138.244C32.9956 138.241 32.7215 138.283 32.4402 138.368C32.159 138.45 31.9274 138.557 31.7456 138.688L30.757 138.568L31.2854 134.273H35.8195V135.21H32.1718L31.8649 137.784H31.9161C32.095 137.642 32.3195 137.524 32.5894 137.43C32.8593 137.337 33.1405 137.29 33.4331 137.29C33.9672 137.29 34.4431 137.418 34.8607 137.673C35.2811 137.926 35.6107 138.273 35.8493 138.713C36.0908 139.153 36.2115 139.656 36.2115 140.222C36.2115 140.778 36.0865 141.276 35.8365 141.713C35.5894 142.148 35.2485 142.491 34.8138 142.744C34.3791 142.994 33.8848 143.119 33.3308 143.119ZM40.8367 143.119C40.1946 143.119 39.6477 142.945 39.196 142.595C38.7443 142.243 38.3992 141.733 38.1605 141.065C37.9219 140.395 37.8026 139.585 37.8026 138.636C37.8026 137.693 37.9219 136.888 38.1605 136.22C38.402 135.55 38.7486 135.038 39.2003 134.686C39.6548 134.331 40.2003 134.153 40.8367 134.153C41.473 134.153 42.0171 134.331 42.4688 134.686C42.9233 135.038 43.2699 135.55 43.5085 136.22C43.75 136.888 43.8707 137.693 43.8707 138.636C43.8707 139.585 43.7514 140.395 43.5128 141.065C43.2742 141.733 42.929 142.243 42.4773 142.595C42.0256 142.945 41.4787 143.119 40.8367 143.119ZM40.8367 142.182C41.473 142.182 41.9673 141.875 42.3196 141.261C42.6719 140.648 42.848 139.773 42.848 138.636C42.848 137.881 42.7671 137.237 42.6051 136.706C42.446 136.175 42.2159 135.77 41.9148 135.491C41.6165 135.213 41.2571 135.074 40.8367 135.074C40.206 135.074 39.7131 135.385 39.358 136.007C39.0029 136.626 38.8253 137.503 38.8253 138.636C38.8253 139.392 38.9048 140.034 39.0639 140.562C39.223 141.091 39.4517 141.493 39.75 141.768C40.0511 142.044 40.4134 142.182 40.8367 142.182Z" fill="#92929D"/>
</g>
<g clip-path="url(#clip3_35_388)">
<path d="M17.8537 181.091V170.182H18.5525V181.091H17.8537ZM20.2059 173.455C20.1548 173.023 19.9474 172.688 19.5838 172.449C19.2201 172.21 18.7741 172.091 18.2457 172.091C17.8593 172.091 17.5213 172.153 17.2315 172.278C16.9446 172.403 16.7201 172.575 16.5582 172.794C16.3991 173.013 16.3196 173.261 16.3196 173.54C16.3196 173.773 16.375 173.973 16.4858 174.141C16.5994 174.305 16.7443 174.443 16.9204 174.554C17.0966 174.662 17.2812 174.751 17.4744 174.822C17.6676 174.891 17.8451 174.946 18.0071 174.989L18.8934 175.227C19.1207 175.287 19.3735 175.369 19.652 175.474C19.9332 175.58 20.2017 175.723 20.4574 175.905C20.7159 176.084 20.9289 176.314 21.0966 176.595C21.2642 176.876 21.348 177.222 21.348 177.631C21.348 178.102 21.2244 178.528 20.9772 178.909C20.7329 179.29 20.375 179.592 19.9034 179.817C19.4346 180.041 18.865 180.153 18.1946 180.153C17.5696 180.153 17.0284 180.053 16.571 179.851C16.1164 179.649 15.7585 179.368 15.4971 179.007C15.2386 178.646 15.0923 178.227 15.0582 177.75H16.1491C16.1775 178.08 16.2883 178.352 16.4815 178.568C16.6775 178.781 16.9247 178.94 17.223 179.045C17.5241 179.148 17.848 179.199 18.1946 179.199C18.598 179.199 18.9602 179.134 19.2812 179.003C19.6022 178.869 19.8565 178.685 20.044 178.449C20.2315 178.21 20.3253 177.932 20.3253 177.614C20.3253 177.324 20.2443 177.088 20.0824 176.906C19.9204 176.724 19.7074 176.577 19.4431 176.463C19.1789 176.349 18.8934 176.25 18.5866 176.165L17.5128 175.858C16.8309 175.662 16.2912 175.382 15.8934 175.018C15.4957 174.655 15.2968 174.179 15.2968 173.591C15.2968 173.102 15.4289 172.676 15.6931 172.312C15.9602 171.946 16.3181 171.662 16.767 171.46C17.2187 171.256 17.723 171.153 18.2798 171.153C18.8423 171.153 19.3423 171.254 19.7798 171.456C20.2173 171.655 20.5639 171.928 20.8196 172.274C21.0781 172.621 21.2145 173.014 21.2287 173.455H20.2059ZM25.7451 180.119C25.2451 180.119 24.7948 180.02 24.3943 179.821C23.9937 179.622 23.6727 179.349 23.4312 179.003C23.1897 178.656 23.0576 178.261 23.0349 177.818H24.0576C24.0974 178.213 24.2764 178.54 24.5946 178.798C24.9156 179.054 25.2991 179.182 25.7451 179.182C26.1031 179.182 26.4213 179.098 26.6997 178.93C26.9809 178.763 27.2011 178.533 27.3602 178.24C27.5221 177.945 27.6031 177.611 27.6031 177.239C27.6031 176.858 27.5193 176.518 27.3517 176.22C27.1869 175.919 26.9596 175.682 26.6698 175.509C26.3801 175.335 26.0491 175.247 25.6769 175.244C25.4099 175.241 25.1358 175.283 24.8545 175.368C24.5733 175.45 24.3417 175.557 24.1599 175.688L23.1713 175.568L23.6997 171.273H28.2338V172.21H24.586L24.2792 174.784H24.3304C24.5093 174.642 24.7338 174.524 25.0036 174.43C25.2735 174.337 25.5548 174.29 25.8474 174.29C26.3815 174.29 26.8573 174.418 27.275 174.673C27.6954 174.926 28.025 175.273 28.2636 175.713C28.5051 176.153 28.6258 176.656 28.6258 177.222C28.6258 177.778 28.5008 178.276 28.2508 178.713C28.0036 179.148 27.6627 179.491 27.2281 179.744C26.7934 179.994 26.2991 180.119 25.7451 180.119ZM33.2509 180.119C32.6089 180.119 32.062 179.945 31.6103 179.595C31.1586 179.243 30.8134 178.733 30.5748 178.065C30.3362 177.395 30.2168 176.585 30.2168 175.636C30.2168 174.693 30.3362 173.888 30.5748 173.22C30.8163 172.55 31.1629 172.038 31.6146 171.686C32.0691 171.331 32.6146 171.153 33.2509 171.153C33.8873 171.153 34.4313 171.331 34.883 171.686C35.3376 172.038 35.6842 172.55 35.9228 173.22C36.1643 173.888 36.285 174.693 36.285 175.636C36.285 176.585 36.1657 177.395 35.9271 178.065C35.6884 178.733 35.3433 179.243 34.8916 179.595C34.4399 179.945 33.893 180.119 33.2509 180.119ZM33.2509 179.182C33.8873 179.182 34.3816 178.875 34.7339 178.261C35.0862 177.648 35.2623 176.773 35.2623 175.636C35.2623 174.881 35.1813 174.237 35.0194 173.706C34.8603 173.175 34.6302 172.77 34.3291 172.491C34.0308 172.213 33.6714 172.074 33.2509 172.074C32.6203 172.074 32.1274 172.385 31.7722 173.007C31.4171 173.626 31.2396 174.503 31.2396 175.636C31.2396 176.392 31.3191 177.034 31.4782 177.562C31.6373 178.091 31.866 178.493 32.1643 178.768C32.4654 179.044 32.8276 179.182 33.2509 179.182ZM40.8367 180.119C40.1946 180.119 39.6477 179.945 39.196 179.595C38.7443 179.243 38.3992 178.733 38.1605 178.065C37.9219 177.395 37.8026 176.585 37.8026 175.636C37.8026 174.693 37.9219 173.888 38.1605 173.22C38.402 172.55 38.7486 172.038 39.2003 171.686C39.6548 171.331 40.2003 171.153 40.8367 171.153C41.473 171.153 42.0171 171.331 42.4688 171.686C42.9233 172.038 43.2699 172.55 43.5085 173.22C43.75 173.888 43.8707 174.693 43.8707 175.636C43.8707 176.585 43.7514 177.395 43.5128 178.065C43.2742 178.733 42.929 179.243 42.4773 179.595C42.0256 179.945 41.4787 180.119 40.8367 180.119ZM40.8367 179.182C41.473 179.182 41.9673 178.875 42.3196 178.261C42.6719 177.648 42.848 176.773 42.848 175.636C42.848 174.881 42.7671 174.237 42.6051 173.706C42.446 173.175 42.2159 172.77 41.9148 172.491C41.6165 172.213 41.2571 172.074 40.8367 172.074C40.206 172.074 39.7131 172.385 39.358 173.007C39.0028 173.626 38.8253 174.503 38.8253 175.636C38.8253 176.392 38.9048 177.034 39.0639 177.562C39.223 178.091 39.4517 178.493 39.75 178.768C40.0511 179.044 40.4134 179.182 40.8367 179.182Z" fill="#92929D"/>
<rect x="55.1533" y="181" width="276.847" height="1" fill="#F1F1F5"/>
</g>
<g clip-path="url(#clip4_35_388)">
<path d="M18.088 218.091V207.182H18.7869V218.091H18.088ZM20.4403 210.455C20.3892 210.023 20.1818 209.688 19.8182 209.449C19.4545 209.21 19.0085 209.091 18.4801 209.091C18.0937 209.091 17.7557 209.153 17.4659 209.278C17.1789 209.403 16.9545 209.575 16.7926 209.794C16.6335 210.013 16.5539 210.261 16.5539 210.54C16.5539 210.773 16.6093 210.973 16.7201 211.141C16.8338 211.305 16.9787 211.443 17.1548 211.554C17.3309 211.662 17.5156 211.751 17.7088 211.822C17.902 211.891 18.0795 211.946 18.2414 211.989L19.1278 212.227C19.3551 212.287 19.6079 212.369 19.8863 212.474C20.1676 212.58 20.436 212.723 20.6917 212.905C20.9503 213.084 21.1633 213.314 21.3309 213.595C21.4985 213.876 21.5824 214.222 21.5824 214.631C21.5824 215.102 21.4588 215.528 21.2116 215.909C20.9673 216.29 20.6093 216.592 20.1378 216.817C19.669 217.041 19.0994 217.153 18.4289 217.153C17.8039 217.153 17.2628 217.053 16.8054 216.851C16.3508 216.649 15.9929 216.368 15.7315 216.007C15.473 215.646 15.3267 215.227 15.2926 214.75H16.3835C16.4119 215.08 16.5227 215.352 16.7159 215.568C16.9119 215.781 17.1591 215.94 17.4574 216.045C17.7585 216.148 18.0824 216.199 18.4289 216.199C18.8324 216.199 19.1946 216.134 19.5156 216.003C19.8366 215.869 20.0909 215.685 20.2784 215.449C20.4659 215.21 20.5596 214.932 20.5596 214.614C20.5596 214.324 20.4787 214.088 20.3167 213.906C20.1548 213.724 19.9417 213.577 19.6775 213.463C19.4133 213.349 19.1278 213.25 18.821 213.165L17.7471 212.858C17.0653 212.662 16.5255 212.382 16.1278 212.018C15.7301 211.655 15.5312 211.179 15.5312 210.591C15.5312 210.102 15.6633 209.676 15.9275 209.312C16.1946 208.946 16.5525 208.662 17.0014 208.46C17.4531 208.256 17.9574 208.153 18.5142 208.153C19.0767 208.153 19.5767 208.254 20.0142 208.456C20.4517 208.655 20.7983 208.928 21.0539 209.274C21.3125 209.621 21.4488 210.014 21.463 210.455H20.4403ZM23.2522 217V216.233L26.1329 213.08C26.471 212.71 26.7494 212.389 26.9681 212.116C27.1869 211.841 27.3488 211.582 27.4539 211.341C27.5619 211.097 27.6159 210.841 27.6159 210.574C27.6159 210.267 27.542 210.001 27.3943 209.777C27.2494 209.553 27.0505 209.379 26.7977 209.257C26.5448 209.135 26.2608 209.074 25.9454 209.074C25.6102 209.074 25.3176 209.143 25.0676 209.283C24.8204 209.419 24.6287 209.611 24.4923 209.858C24.3588 210.105 24.292 210.395 24.292 210.727H23.2863C23.2863 210.216 23.4042 209.767 23.64 209.381C23.8758 208.994 24.1968 208.693 24.6031 208.477C25.0122 208.261 25.471 208.153 25.9795 208.153C26.4909 208.153 26.944 208.261 27.3389 208.477C27.7338 208.693 28.0434 208.984 28.2679 209.351C28.4923 209.717 28.6045 210.125 28.6045 210.574C28.6045 210.895 28.5463 211.209 28.4298 211.516C28.3162 211.82 28.1173 212.159 27.8332 212.534C27.5519 212.906 27.1613 213.361 26.6613 213.898L24.7011 215.994V216.062H28.7579V217H23.2522ZM33.3308 217.119C32.8308 217.119 32.3806 217.02 31.98 216.821C31.5794 216.622 31.2584 216.349 31.0169 216.003C30.7754 215.656 30.6433 215.261 30.6206 214.818H31.6433C31.6831 215.213 31.8621 215.54 32.1803 215.798C32.5013 216.054 32.8848 216.182 33.3308 216.182C33.6888 216.182 34.007 216.098 34.2854 215.93C34.5666 215.763 34.7868 215.533 34.9459 215.24C35.1078 214.945 35.1888 214.611 35.1888 214.239C35.1888 213.858 35.105 213.518 34.9374 213.22C34.7726 212.919 34.5453 212.682 34.2556 212.509C33.9658 212.335 33.6348 212.247 33.2627 212.244C32.9956 212.241 32.7215 212.283 32.4402 212.368C32.159 212.45 31.9274 212.557 31.7456 212.688L30.757 212.568L31.2854 208.273H35.8195V209.21H32.1718L31.8649 211.784H31.9161C32.095 211.642 32.3195 211.524 32.5894 211.43C32.8593 211.337 33.1405 211.29 33.4331 211.29C33.9672 211.29 34.4431 211.418 34.8607 211.673C35.2811 211.926 35.6107 212.273 35.8493 212.713C36.0908 213.153 36.2115 213.656 36.2115 214.222C36.2115 214.778 36.0865 215.276 35.8365 215.713C35.5894 216.148 35.2485 216.491 34.8138 216.744C34.3791 216.994 33.8848 217.119 33.3308 217.119ZM40.8367 217.119C40.1946 217.119 39.6477 216.945 39.196 216.595C38.7443 216.243 38.3992 215.733 38.1605 215.065C37.9219 214.395 37.8026 213.585 37.8026 212.636C37.8026 211.693 37.9219 210.888 38.1605 210.22C38.402 209.55 38.7486 209.038 39.2003 208.686C39.6548 208.331 40.2003 208.153 40.8367 208.153C41.473 208.153 42.0171 208.331 42.4688 208.686C42.9233 209.038 43.2699 209.55 43.5085 210.22C43.75 210.888 43.8707 211.693 43.8707 212.636C43.8707 213.585 43.7514 214.395 43.5128 215.065C43.2742 215.733 42.929 216.243 42.4773 216.595C42.0256 216.945 41.4787 217.119 40.8367 217.119ZM40.8367 216.182C41.473 216.182 41.9673 215.875 42.3196 215.261C42.6719 214.648 42.848 213.773 42.848 212.636C42.848 211.881 42.7671 211.237 42.6051 210.706C42.446 210.175 42.2159 209.77 41.9148 209.491C41.6165 209.213 41.2571 209.074 40.8367 209.074C40.206 209.074 39.7131 209.385 39.358 210.007C39.0029 210.626 38.8253 211.503 38.8253 212.636C38.8253 213.392 38.9048 214.034 39.0639 214.562C39.223 215.091 39.4517 215.493 39.75 215.768C40.0511 216.044 40.4134 216.182 40.8367 216.182Z" fill="#92929D"/>
<rect x="55.1533" y="218" width="276.847" height="1" fill="#F1F1F5"/>
</g>
<g clip-path="url(#clip5_35_388)">
<path d="M32.8259 255.091V244.182H33.5247V255.091H32.8259ZM35.1781 247.455C35.127 247.023 34.9196 246.688 34.556 246.449C34.1924 246.21 33.7463 246.091 33.2179 246.091C32.8316 246.091 32.4935 246.153 32.2037 246.278C31.9168 246.403 31.6924 246.575 31.5304 246.794C31.3713 247.013 31.2918 247.261 31.2918 247.54C31.2918 247.773 31.3472 247.973 31.458 248.141C31.5716 248.305 31.7165 248.443 31.8926 248.554C32.0688 248.662 32.2534 248.751 32.4466 248.822C32.6398 248.891 32.8174 248.946 32.9793 248.989L33.8656 249.227C34.0929 249.287 34.3458 249.369 34.6242 249.474C34.9054 249.58 35.1739 249.723 35.4296 249.905C35.6881 250.084 35.9012 250.314 36.0688 250.595C36.2364 250.876 36.3202 251.222 36.3202 251.631C36.3202 252.102 36.1966 252.528 35.9495 252.909C35.7051 253.29 35.3472 253.592 34.8756 253.817C34.4068 254.041 33.8372 254.153 33.1668 254.153C32.5418 254.153 32.0006 254.053 31.5432 253.851C31.0887 253.649 30.7307 253.368 30.4693 253.007C30.2108 252.646 30.0645 252.227 30.0304 251.75H31.1213C31.1497 252.08 31.2605 252.352 31.4537 252.568C31.6497 252.781 31.8969 252.94 32.1952 253.045C32.4963 253.148 32.8202 253.199 33.1668 253.199C33.5702 253.199 33.9324 253.134 34.2534 253.003C34.5745 252.869 34.8287 252.685 35.0162 252.449C35.2037 252.21 35.2975 251.932 35.2975 251.614C35.2975 251.324 35.2165 251.088 35.0546 250.906C34.8926 250.724 34.6796 250.577 34.4154 250.463C34.1512 250.349 33.8656 250.25 33.5588 250.165L32.485 249.858C31.8031 249.662 31.2634 249.382 30.8656 249.018C30.4679 248.655 30.2691 248.179 30.2691 247.591C30.2691 247.102 30.4012 246.676 30.6654 246.312C30.9324 245.946 31.2904 245.662 31.7392 245.46C32.1909 245.256 32.6952 245.153 33.252 245.153C33.8145 245.153 34.3145 245.254 34.752 245.456C35.1895 245.655 35.5361 245.928 35.7918 246.274C36.0503 246.621 36.1867 247.014 36.2009 247.455H35.1781ZM40.8367 254.119C40.1946 254.119 39.6477 253.945 39.196 253.595C38.7443 253.243 38.3992 252.733 38.1605 252.065C37.9219 251.395 37.8026 250.585 37.8026 249.636C37.8026 248.693 37.9219 247.888 38.1605 247.22C38.402 246.55 38.7486 246.038 39.2003 245.686C39.6548 245.331 40.2003 245.153 40.8367 245.153C41.473 245.153 42.0171 245.331 42.4688 245.686C42.9233 246.038 43.2699 246.55 43.5085 247.22C43.75 247.888 43.8707 248.693 43.8707 249.636C43.8707 250.585 43.7514 251.395 43.5128 252.065C43.2742 252.733 42.929 253.243 42.4773 253.595C42.0256 253.945 41.4787 254.119 40.8367 254.119ZM40.8367 253.182C41.473 253.182 41.9673 252.875 42.3196 252.261C42.6719 251.648 42.848 250.773 42.848 249.636C42.848 248.881 42.7671 248.237 42.6051 247.706C42.446 247.175 42.2159 246.77 41.9148 246.491C41.6165 246.213 41.2571 246.074 40.8367 246.074C40.206 246.074 39.7131 246.385 39.358 247.007C39.0029 247.626 38.8253 248.503 38.8253 249.636C38.8253 250.392 38.9048 251.034 39.0639 251.562C39.223 252.091 39.4517 252.493 39.75 252.768C40.0511 253.044 40.4134 253.182 40.8367 253.182Z" fill="#92929D"/>
<rect x="55.1533" y="255" width="276.847" height="1" fill="#F1F1F5"/>
</g>
<path d="M217.3 272.818H218.772L222.232 281.27H222.351L225.811 272.818H227.283V283H226.129V275.264H226.03L222.848 283H221.735L218.553 275.264H218.453V283H217.3V272.818ZM231.943 283.179C231.459 283.179 231.02 283.088 230.626 282.906C230.231 282.72 229.918 282.453 229.686 282.105C229.454 281.754 229.338 281.33 229.338 280.832C229.338 280.395 229.424 280.04 229.597 279.768C229.769 279.493 229.999 279.278 230.288 279.122C230.576 278.966 230.894 278.85 231.242 278.774C231.593 278.695 231.946 278.632 232.301 278.585C232.765 278.526 233.141 278.481 233.43 278.451C233.721 278.418 233.933 278.363 234.066 278.287C234.202 278.211 234.27 278.078 234.27 277.889V277.849C234.27 277.359 234.136 276.978 233.867 276.706C233.602 276.434 233.199 276.298 232.659 276.298C232.099 276.298 231.66 276.421 231.342 276.666C231.023 276.911 230.8 277.173 230.67 277.452L229.557 277.054C229.756 276.59 230.021 276.229 230.352 275.97C230.687 275.708 231.052 275.526 231.446 275.423C231.844 275.317 232.235 275.264 232.619 275.264C232.864 275.264 233.146 275.294 233.464 275.354C233.786 275.41 234.096 275.528 234.394 275.707C234.696 275.886 234.946 276.156 235.145 276.517C235.344 276.878 235.443 277.362 235.443 277.969V283H234.27V281.966H234.21C234.131 282.132 233.998 282.309 233.812 282.498C233.627 282.687 233.38 282.848 233.072 282.98C232.763 283.113 232.387 283.179 231.943 283.179ZM232.122 282.125C232.586 282.125 232.977 282.034 233.295 281.852C233.617 281.669 233.859 281.434 234.021 281.146C234.187 280.857 234.27 280.554 234.27 280.236V279.162C234.22 279.222 234.111 279.276 233.942 279.326C233.776 279.372 233.584 279.414 233.365 279.45C233.15 279.483 232.939 279.513 232.734 279.54C232.531 279.563 232.367 279.583 232.241 279.599C231.936 279.639 231.651 279.704 231.386 279.793C231.124 279.879 230.912 280.01 230.75 280.186C230.591 280.358 230.511 280.594 230.511 280.892C230.511 281.3 230.662 281.608 230.964 281.817C231.269 282.022 231.655 282.125 232.122 282.125ZM237.685 283V275.364H238.858V283H237.685ZM238.281 274.091C238.053 274.091 237.855 274.013 237.69 273.857C237.527 273.701 237.446 273.514 237.446 273.295C237.446 273.077 237.527 272.889 237.69 272.734C237.855 272.578 238.053 272.5 238.281 272.5C238.51 272.5 238.705 272.578 238.868 272.734C239.034 272.889 239.116 273.077 239.116 273.295C239.116 273.514 239.034 273.701 238.868 273.857C238.705 274.013 238.51 274.091 238.281 274.091Z" fill="#92929D"/>
<path fill-rule="evenodd" clip-rule="evenodd" d="M231.08 256V98.4205C231.08 96.5314 232.611 95 234.5 95C236.389 95 237.92 96.5314 237.92 98.4205V256H231.08Z" fill="#0062FF"/>
<path fill-rule="evenodd" clip-rule="evenodd" d="M220.08 256V149.42C220.08 147.531 221.611 146 223.5 146C225.389 146 226.92 147.531 226.92 149.42V256H220.08Z" fill="#3DD598"/>
<g clip-path="url(#clip6_35_388)">
<path d="M177.868 283H176.575L180.314 272.818H181.587L185.325 283H184.033L180.99 274.429H180.911L177.868 283ZM178.345 279.023H183.555V280.116H178.345V279.023ZM187.011 283V272.818H188.185V276.577H188.284C188.37 276.444 188.489 276.275 188.642 276.07C188.798 275.861 189.02 275.675 189.308 275.513C189.6 275.347 189.994 275.264 190.491 275.264C191.134 275.264 191.701 275.425 192.192 275.746C192.682 276.068 193.065 276.524 193.34 277.114C193.615 277.704 193.753 278.4 193.753 279.202C193.753 280.01 193.615 280.711 193.34 281.305C193.065 281.895 192.684 282.352 192.197 282.677C191.709 282.998 191.148 283.159 190.511 283.159C190.021 283.159 189.628 283.078 189.333 282.915C189.038 282.75 188.811 282.562 188.652 282.354C188.493 282.142 188.37 281.966 188.284 281.827H188.145V283H187.011ZM188.165 279.182C188.165 279.759 188.249 280.267 188.418 280.708C188.587 281.146 188.834 281.489 189.159 281.737C189.484 281.982 189.882 282.105 190.352 282.105C190.843 282.105 191.252 281.976 191.58 281.717C191.912 281.455 192.16 281.104 192.326 280.663C192.495 280.219 192.579 279.725 192.579 279.182C192.579 278.645 192.497 278.161 192.331 277.73C192.168 277.296 191.922 276.953 191.59 276.701C191.262 276.446 190.849 276.318 190.352 276.318C189.875 276.318 189.474 276.439 189.149 276.681C188.824 276.92 188.579 277.254 188.413 277.685C188.248 278.113 188.165 278.612 188.165 279.182ZM195.647 283V275.364H196.781V276.517H196.861C197 276.139 197.252 275.833 197.616 275.597C197.981 275.362 198.392 275.244 198.849 275.244C198.935 275.244 199.043 275.246 199.172 275.249C199.302 275.253 199.399 275.258 199.466 275.264V276.457C199.426 276.447 199.335 276.433 199.192 276.413C199.053 276.389 198.906 276.378 198.75 276.378C198.379 276.378 198.047 276.456 197.755 276.612C197.467 276.764 197.238 276.976 197.069 277.248C196.904 277.516 196.821 277.823 196.821 278.168V283H195.647Z" fill="#92929D"/>
<path fill-rule="evenodd" clip-rule="evenodd" d="M190.08 256V119.42C190.08 117.531 191.611 116 193.5 116C195.389 116 196.92 117.531 196.92 119.42V256H190.08Z" fill="#0062FF"/>
<path fill-rule="evenodd" clip-rule="evenodd" d="M179.08 256V179.42C179.08 177.531 180.611 176 182.5 176C184.389 176 185.92 177.531 185.92 179.42V256H179.08Z" fill="#3DD598"/>
</g>
<g clip-path="url(#clip7_35_388)">
<path d="M137.357 272.818H138.828L142.288 281.27H142.408L145.868 272.818H147.34V283H146.186V275.264H146.087L142.905 283H141.791L138.609 275.264H138.51V283H137.357V272.818ZM152 283.179C151.516 283.179 151.077 283.088 150.682 282.906C150.288 282.72 149.975 282.453 149.743 282.105C149.511 281.754 149.395 281.33 149.395 280.832C149.395 280.395 149.481 280.04 149.653 279.768C149.825 279.493 150.056 279.278 150.344 279.122C150.633 278.966 150.951 278.85 151.299 278.774C151.65 278.695 152.003 278.632 152.358 278.585C152.822 278.526 153.198 278.481 153.486 278.451C153.778 278.418 153.99 278.363 154.123 278.287C154.258 278.211 154.326 278.078 154.326 277.889V277.849C154.326 277.359 154.192 276.978 153.924 276.706C153.659 276.434 153.256 276.298 152.716 276.298C152.156 276.298 151.716 276.421 151.398 276.666C151.08 276.911 150.856 277.173 150.727 277.452L149.613 277.054C149.812 276.59 150.077 276.229 150.409 275.97C150.744 275.708 151.108 275.526 151.503 275.423C151.9 275.317 152.291 275.264 152.676 275.264C152.921 275.264 153.203 275.294 153.521 275.354C153.843 275.41 154.152 275.528 154.451 275.707C154.752 275.886 155.003 276.156 155.201 276.517C155.4 276.878 155.5 277.362 155.5 277.969V283H154.326V281.966H154.267C154.187 282.132 154.055 282.309 153.869 282.498C153.683 282.687 153.437 282.848 153.128 282.98C152.82 283.113 152.444 283.179 152 283.179ZM152.179 282.125C152.643 282.125 153.034 282.034 153.352 281.852C153.674 281.669 153.915 281.434 154.078 281.146C154.244 280.857 154.326 280.554 154.326 280.236V279.162C154.277 279.222 154.167 279.276 153.998 279.326C153.833 279.372 153.64 279.414 153.422 279.45C153.206 279.483 152.996 279.513 152.79 279.54C152.588 279.563 152.424 279.583 152.298 279.599C151.993 279.639 151.708 279.704 151.443 279.793C151.181 279.879 150.969 280.01 150.807 280.186C150.647 280.358 150.568 280.594 150.568 280.892C150.568 281.3 150.719 281.608 151.02 281.817C151.325 282.022 151.711 282.125 152.179 282.125ZM157.741 283V275.364H158.875V276.517H158.954C159.094 276.139 159.345 275.833 159.71 275.597C160.075 275.362 160.486 275.244 160.943 275.244C161.029 275.244 161.137 275.246 161.266 275.249C161.395 275.253 161.493 275.258 161.559 275.264V276.457C161.52 276.447 161.429 276.433 161.286 276.413C161.147 276.389 160.999 276.378 160.844 276.378C160.472 276.378 160.141 276.456 159.849 276.612C159.561 276.764 159.332 276.976 159.163 277.248C158.997 277.516 158.915 277.823 158.915 278.168V283H157.741Z" fill="#92929D"/>
<path fill-rule="evenodd" clip-rule="evenodd" d="M151.08 256V139.42C151.08 137.531 152.611 136 154.5 136C156.389 136 157.92 137.531 157.92 139.42V256H151.08Z" fill="#0062FF"/>
<path fill-rule="evenodd" clip-rule="evenodd" d="M140.08 256V169.42C140.08 167.531 141.611 166 143.5 166C145.389 166 146.92 167.531 146.92 169.42V256H140.08Z" fill="#3DD598"/>
</g>
<g clip-path="url(#clip8_35_388)">
<path d="M99.4503 283V272.818H105.555V273.912H100.683V277.352H105.098V278.446H100.683V283H99.4503ZM110.249 283.159C109.513 283.159 108.879 282.997 108.345 282.672C107.815 282.344 107.405 281.886 107.117 281.3C106.832 280.71 106.69 280.024 106.69 279.241C106.69 278.459 106.832 277.77 107.117 277.173C107.405 276.573 107.806 276.106 108.32 275.771C108.837 275.433 109.44 275.264 110.13 275.264C110.528 275.264 110.92 275.33 111.308 275.463C111.696 275.596 112.049 275.811 112.367 276.109C112.685 276.404 112.939 276.795 113.128 277.283C113.317 277.77 113.411 278.37 113.411 279.082V279.58H107.525V278.565H112.218C112.218 278.134 112.132 277.75 111.959 277.412C111.79 277.074 111.548 276.807 111.234 276.612C110.922 276.416 110.554 276.318 110.13 276.318C109.663 276.318 109.258 276.434 108.917 276.666C108.579 276.895 108.319 277.193 108.136 277.561C107.954 277.929 107.863 278.323 107.863 278.744V279.42C107.863 279.997 107.962 280.486 108.161 280.887C108.363 281.285 108.643 281.588 109.001 281.797C109.359 282.002 109.775 282.105 110.249 282.105C110.557 282.105 110.836 282.062 111.084 281.976C111.336 281.886 111.553 281.754 111.736 281.578C111.918 281.399 112.059 281.177 112.158 280.912L113.292 281.23C113.172 281.615 112.972 281.953 112.69 282.244C112.409 282.533 112.061 282.758 111.646 282.92C111.232 283.08 110.766 283.159 110.249 283.159ZM121.308 275.364L118.484 283H117.291L114.467 275.364H115.74L117.848 281.449H117.927L120.035 275.364H121.308Z" fill="#92929D"/>
<path fill-rule="evenodd" clip-rule="evenodd" d="M112.08 256V109.42C112.08 107.531 113.611 106 115.5 106C117.389 106 118.92 107.531 118.92 109.42V256H112.08Z" fill="#0062FF"/>
<path fill-rule="evenodd" clip-rule="evenodd" d="M101.08 256V129.42C101.08 127.531 102.611 126 104.5 126C106.389 126 107.92 127.531 107.92 129.42V256H101.08Z" fill="#3DD598"/>
</g>
<g clip-path="url(#clip9_35_388)">
<path d="M262.568 272.818H263.801V280.097C263.801 280.746 263.681 281.298 263.443 281.752C263.204 282.206 262.868 282.551 262.434 282.786C261.999 283.022 261.487 283.139 260.897 283.139C260.341 283.139 259.845 283.038 259.411 282.836C258.977 282.63 258.635 282.339 258.387 281.961C258.138 281.583 258.014 281.134 258.014 280.614H259.227C259.227 280.902 259.298 281.154 259.441 281.369C259.586 281.581 259.785 281.747 260.037 281.866C260.289 281.986 260.576 282.045 260.897 282.045C261.252 282.045 261.554 281.971 261.802 281.822C262.051 281.673 262.24 281.454 262.369 281.165C262.502 280.874 262.568 280.518 262.568 280.097V272.818ZM271.025 279.878V275.364H272.198V283H271.025V281.707H270.945C270.767 282.095 270.488 282.425 270.11 282.697C269.732 282.965 269.255 283.099 268.678 283.099C268.201 283.099 267.777 282.995 267.406 282.786C267.035 282.574 266.743 282.256 266.531 281.832C266.319 281.404 266.213 280.866 266.213 280.216V275.364H267.386V280.136C267.386 280.693 267.542 281.137 267.853 281.469C268.168 281.8 268.569 281.966 269.056 281.966C269.348 281.966 269.645 281.891 269.946 281.742C270.251 281.593 270.506 281.364 270.712 281.056C270.921 280.748 271.025 280.355 271.025 279.878ZM275.621 278.406V283H274.447V275.364H275.581V276.557H275.68C275.859 276.169 276.131 275.857 276.496 275.622C276.86 275.384 277.331 275.264 277.908 275.264C278.425 275.264 278.877 275.37 279.265 275.582C279.653 275.791 279.954 276.109 280.17 276.537C280.385 276.961 280.493 277.498 280.493 278.148V283H279.319V278.227C279.319 277.627 279.164 277.16 278.852 276.825C278.541 276.487 278.113 276.318 277.569 276.318C277.195 276.318 276.86 276.399 276.565 276.562C276.274 276.724 276.043 276.961 275.874 277.273C275.705 277.584 275.621 277.962 275.621 278.406Z" fill="#92929D"/>
<path fill-rule="evenodd" clip-rule="evenodd" d="M271 256L271 98.5C271 96.567 272.567 95 274.5 95C276.433 95 278 96.567 278 98.5V256H271Z" fill="#0062FF"/>
<path fill-rule="evenodd" clip-rule="evenodd" d="M260 256L260 179.5C260 177.567 261.567 176 263.5 176C265.433 176 267 177.567 267 179.5V256H260Z" fill="#3DD598"/>
</g>
<g clip-path="url(#clip10_35_388)">
<path d="M64.1908 272.818H65.4238V280.097C65.4238 280.746 65.3045 281.298 65.0658 281.752C64.8272 282.206 64.4908 282.551 64.0566 282.786C63.6224 283.022 63.1103 283.139 62.5204 283.139C61.9636 283.139 61.4681 283.038 61.0339 282.836C60.5997 282.63 60.2583 282.339 60.0097 281.961C59.7612 281.583 59.6369 281.134 59.6369 280.614H60.8499C60.8499 280.902 60.9212 281.154 61.0637 281.369C61.2095 281.581 61.4084 281.747 61.6603 281.866C61.9122 281.986 62.1989 282.045 62.5204 282.045C62.875 282.045 63.1766 281.971 63.4252 281.822C63.6738 281.673 63.8627 281.454 63.992 281.165C64.1245 280.874 64.1908 280.518 64.1908 280.097V272.818ZM70.0827 283.179C69.5988 283.179 69.1597 283.088 68.7653 282.906C68.3709 282.72 68.0576 282.453 67.8256 282.105C67.5936 281.754 67.4776 281.33 67.4776 280.832C67.4776 280.395 67.5638 280.04 67.7362 279.768C67.9085 279.493 68.1388 279.278 68.4272 279.122C68.7156 278.966 69.0337 278.85 69.3817 278.774C69.7331 278.695 70.0861 278.632 70.4407 278.585C70.9047 278.526 71.2809 278.481 71.5692 278.451C71.8609 278.418 72.073 278.363 72.2056 278.287C72.3415 278.211 72.4094 278.078 72.4094 277.889V277.849C72.4094 277.359 72.2752 276.978 72.0067 276.706C71.7416 276.434 71.3389 276.298 70.7987 276.298C70.2385 276.298 69.7994 276.421 69.4812 276.666C69.163 276.911 68.9393 277.173 68.81 277.452L67.6964 277.054C67.8952 276.59 68.1604 276.229 68.4918 275.97C68.8266 275.708 69.1912 275.526 69.5856 275.423C69.9833 275.317 70.3744 275.264 70.7589 275.264C71.0041 275.264 71.2859 275.294 71.604 275.354C71.9255 275.41 72.2354 275.528 72.5337 275.707C72.8353 275.886 73.0856 276.156 73.2844 276.517C73.4833 276.878 73.5827 277.362 73.5827 277.969V283H72.4094V281.966H72.3498C72.2702 282.132 72.1377 282.309 71.9521 282.498C71.7665 282.687 71.5195 282.848 71.2113 282.98C70.9031 283.113 70.5269 283.179 70.0827 283.179ZM70.2617 282.125C70.7257 282.125 71.1168 282.034 71.435 281.852C71.7565 281.669 71.9985 281.434 72.1609 281.146C72.3266 280.857 72.4094 280.554 72.4094 280.236V279.162C72.3597 279.222 72.2504 279.276 72.0813 279.326C71.9156 279.372 71.7234 279.414 71.5046 279.45C71.2892 279.483 71.0787 279.513 70.8732 279.54C70.671 279.563 70.507 279.583 70.381 279.599C70.0761 279.639 69.7911 279.704 69.5259 279.793C69.2641 279.879 69.052 280.01 68.8896 280.186C68.7305 280.358 68.6509 280.594 68.6509 280.892C68.6509 281.3 68.8017 281.608 69.1033 281.817C69.4083 282.022 69.7944 282.125 70.2617 282.125ZM76.9975 278.406V283H75.8243V275.364H76.9578V276.557H77.0572C77.2362 276.169 77.508 275.857 77.8725 275.622C78.2371 275.384 78.7078 275.264 79.2845 275.264C79.8015 275.264 80.2539 275.37 80.6417 275.582C81.0295 275.791 81.3311 276.109 81.5466 276.537C81.762 276.961 81.8697 277.498 81.8697 278.148V283H80.6964V278.227C80.6964 277.627 80.5406 277.16 80.2291 276.825C79.9175 276.487 79.49 276.318 78.9464 276.318C78.5719 276.318 78.2371 276.399 77.9422 276.562C77.6505 276.724 77.4201 276.961 77.2511 277.273C77.0821 277.584 76.9975 277.962 76.9975 278.406Z" fill="#92929D"/>
<path fill-rule="evenodd" clip-rule="evenodd" d="M73.0795 256V129.42C73.0795 127.531 74.6109 126 76.5 126C78.3891 126 79.9205 127.531 79.9205 129.42V256H73.0795Z" fill="#0062FF"/>
<path fill-rule="evenodd" clip-rule="evenodd" d="M62.0795 256V179.42C62.0795 177.531 63.6109 176 65.5 176C67.3891 176 68.9205 177.531 68.9205 179.42V256H62.0795Z" fill="#3DD598"/>
</g>
</g>
<g clip-path="url(#clip11_35_388)">
<rect x="130" y="58" width="9.89247" height="10" rx="4.94624" fill="#3DD598"/>
<path d="M147.435 57.8182L150.458 66.3892H150.577L153.6 57.8182H154.892L151.154 68H149.881L146.142 57.8182H147.435ZM158.91 68.1591C158.174 68.1591 157.539 67.9967 157.006 67.6719C156.475 67.3438 156.066 66.8864 155.778 66.2997C155.493 65.7098 155.35 65.0237 155.35 64.2415C155.35 63.4593 155.493 62.7699 155.778 62.1733C156.066 61.5734 156.467 61.1061 156.981 60.7713C157.498 60.4332 158.101 60.2642 158.791 60.2642C159.188 60.2642 159.581 60.3305 159.969 60.4631C160.357 60.5956 160.71 60.8111 161.028 61.1094C161.346 61.4044 161.6 61.7955 161.788 62.2827C161.977 62.7699 162.072 63.3698 162.072 64.0824V64.5795H156.185V63.5653H160.879C160.879 63.1345 160.792 62.75 160.62 62.4119C160.451 62.0739 160.209 61.8071 159.894 61.6115C159.583 61.416 159.215 61.3182 158.791 61.3182C158.323 61.3182 157.919 61.4342 157.577 61.6662C157.239 61.8949 156.979 62.1932 156.797 62.5611C156.615 62.929 156.524 63.3234 156.524 63.7443V64.4205C156.524 64.9972 156.623 65.486 156.822 65.8871C157.024 66.2848 157.304 66.5881 157.662 66.7969C158.02 67.0024 158.436 67.1051 158.91 67.1051C159.218 67.1051 159.497 67.062 159.745 66.9759C159.997 66.8864 160.214 66.7538 160.396 66.5781C160.579 66.3991 160.72 66.1771 160.819 65.9119L161.952 66.2301C161.833 66.6146 161.633 66.9527 161.351 67.2443C161.069 67.5327 160.721 67.758 160.307 67.9205C159.893 68.0795 159.427 68.1591 158.91 68.1591ZM165.13 63.4062V68H163.957V60.3636H165.09V61.5568H165.19C165.369 61.169 165.64 60.8575 166.005 60.6222C166.369 60.3835 166.84 60.2642 167.417 60.2642C167.934 60.2642 168.386 60.3703 168.774 60.5824C169.162 60.7912 169.463 61.1094 169.679 61.5369C169.894 61.9612 170.002 62.4981 170.002 63.1477V68H168.829V63.2273C168.829 62.6274 168.673 62.16 168.361 61.8253C168.05 61.4872 167.622 61.3182 167.079 61.3182C166.704 61.3182 166.369 61.3994 166.075 61.5618C165.783 61.7242 165.552 61.9612 165.383 62.2727C165.214 62.5843 165.13 62.9621 165.13 63.4062ZM175.13 68.1591C174.493 68.1591 173.931 67.9983 173.444 67.6768C172.957 67.352 172.576 66.8946 172.301 66.3047C172.026 65.7114 171.888 65.0104 171.888 64.2017C171.888 63.3996 172.026 62.7036 172.301 62.1136C172.576 61.5237 172.959 61.0679 173.449 60.7464C173.94 60.425 174.506 60.2642 175.149 60.2642C175.647 60.2642 176.039 60.3471 176.328 60.5128C176.619 60.6752 176.841 60.8608 176.994 61.0696C177.15 61.2751 177.271 61.4441 177.357 61.5767H177.456V57.8182H178.63V68H177.496V66.8267H177.357C177.271 66.9659 177.148 67.1416 176.989 67.3537C176.83 67.5625 176.603 67.7498 176.308 67.9155C176.013 68.0779 175.62 68.1591 175.13 68.1591ZM175.289 67.1051C175.759 67.1051 176.157 66.9825 176.482 66.7372C176.807 66.4886 177.054 66.1456 177.223 65.7081C177.392 65.2673 177.476 64.7585 177.476 64.1818C177.476 63.6117 177.393 63.1129 177.228 62.6854C177.062 62.2545 176.817 61.9197 176.492 61.6811C176.167 61.4392 175.766 61.3182 175.289 61.3182C174.792 61.3182 174.377 61.4458 174.046 61.701C173.718 61.9529 173.471 62.2959 173.305 62.7301C173.143 63.161 173.061 63.6449 173.061 64.1818C173.061 64.7254 173.144 65.2192 173.31 65.6634C173.479 66.1042 173.728 66.4555 174.056 66.7173C174.387 66.9759 174.798 67.1051 175.289 67.1051ZM183.289 68.179C182.805 68.179 182.365 68.0878 181.971 67.9055C181.577 67.7199 181.263 67.4531 181.031 67.1051C180.799 66.7538 180.683 66.3295 180.683 65.8324C180.683 65.3949 180.77 65.0402 180.942 64.7685C181.114 64.4934 181.345 64.2779 181.633 64.1222C181.921 63.9664 182.24 63.8504 182.588 63.7741C182.939 63.6946 183.292 63.6316 183.646 63.5852C184.111 63.5256 184.487 63.4808 184.775 63.451C185.067 63.4179 185.279 63.3632 185.411 63.2869C185.547 63.2107 185.615 63.0781 185.615 62.8892V62.8494C185.615 62.3589 185.481 61.9777 185.213 61.706C184.947 61.4342 184.545 61.2983 184.004 61.2983C183.444 61.2983 183.005 61.4209 182.687 61.6662C182.369 61.9115 182.145 62.1733 182.016 62.4517L180.902 62.054C181.101 61.59 181.366 61.2287 181.698 60.9702C182.032 60.7083 182.397 60.526 182.791 60.4233C183.189 60.3172 183.58 60.2642 183.965 60.2642C184.21 60.2642 184.492 60.294 184.81 60.3537C185.131 60.41 185.441 60.5277 185.74 60.7067C186.041 60.8857 186.291 61.1558 186.49 61.517C186.689 61.8783 186.789 62.3622 186.789 62.9688V68H185.615V66.9659H185.556C185.476 67.1316 185.343 67.3089 185.158 67.4979C184.972 67.6868 184.725 67.8475 184.417 67.9801C184.109 68.1127 183.733 68.179 183.289 68.179ZM183.468 67.125C183.932 67.125 184.323 67.0339 184.641 66.8516C184.962 66.6693 185.204 66.4339 185.367 66.1456C185.532 65.8572 185.615 65.554 185.615 65.2358V64.1619C185.566 64.2216 185.456 64.2763 185.287 64.326C185.121 64.3724 184.929 64.4138 184.71 64.4503C184.495 64.4834 184.285 64.5133 184.079 64.5398C183.877 64.563 183.713 64.5829 183.587 64.5994C183.282 64.6392 182.997 64.7038 182.732 64.7933C182.47 64.8795 182.258 65.0104 182.095 65.1861C181.936 65.3584 181.857 65.5937 181.857 65.892C181.857 66.2997 182.008 66.608 182.309 66.8168C182.614 67.0223 183 67.125 183.468 67.125ZM194.439 62.0739L193.385 62.3722C193.319 62.1965 193.221 62.0258 193.092 61.8601C192.966 61.6911 192.794 61.5518 192.575 61.4425C192.356 61.3331 192.076 61.2784 191.735 61.2784C191.267 61.2784 190.878 61.3861 190.566 61.6016C190.258 61.8137 190.104 62.0838 190.104 62.4119C190.104 62.7036 190.21 62.9339 190.422 63.103C190.634 63.272 190.966 63.4129 191.416 63.5256L192.55 63.804C193.233 63.9697 193.741 64.2232 194.076 64.5646C194.411 64.9027 194.578 65.3385 194.578 65.8722C194.578 66.3097 194.452 66.7008 194.201 67.0455C193.952 67.3902 193.604 67.6619 193.156 67.8608C192.709 68.0597 192.189 68.1591 191.595 68.1591C190.817 68.1591 190.172 67.9901 189.661 67.652C189.151 67.3139 188.828 66.8201 188.692 66.1705L189.806 65.892C189.912 66.303 190.112 66.6113 190.407 66.8168C190.705 67.0223 191.095 67.125 191.576 67.125C192.122 67.125 192.557 67.009 192.878 66.777C193.203 66.5417 193.365 66.2599 193.365 65.9318C193.365 65.6667 193.272 65.4446 193.087 65.2656C192.901 65.0833 192.616 64.9474 192.232 64.858L190.959 64.5597C190.26 64.3939 189.746 64.1371 189.418 63.7891C189.093 63.4377 188.931 62.9986 188.931 62.4716C188.931 62.0407 189.052 61.6596 189.294 61.3281C189.539 60.9967 189.872 60.7365 190.293 60.5476C190.717 60.3587 191.198 60.2642 191.735 60.2642C192.49 60.2642 193.084 60.4299 193.514 60.7614C193.949 61.0928 194.257 61.5303 194.439 62.0739ZM209.232 62.9091C209.232 63.983 209.038 64.911 208.65 65.6932C208.263 66.4754 207.731 67.0786 207.054 67.5028C206.378 67.9271 205.606 68.1392 204.738 68.1392C203.869 68.1392 203.097 67.9271 202.421 67.5028C201.745 67.0786 201.213 66.4754 200.825 65.6932C200.437 64.911 200.243 63.983 200.243 62.9091C200.243 61.8352 200.437 60.9072 200.825 60.125C201.213 59.3428 201.745 58.7396 202.421 58.3153C203.097 57.8911 203.869 57.679 204.738 57.679C205.606 57.679 206.378 57.8911 207.054 58.3153C207.731 58.7396 208.263 59.3428 208.65 60.125C209.038 60.9072 209.232 61.8352 209.232 62.9091ZM208.039 62.9091C208.039 62.0275 207.891 61.2834 207.596 60.6768C207.305 60.0703 206.909 59.6113 206.408 59.2997C205.911 58.9882 205.354 58.8324 204.738 58.8324C204.121 58.8324 203.563 58.9882 203.062 59.2997C202.565 59.6113 202.169 60.0703 201.874 60.6768C201.582 61.2834 201.437 62.0275 201.437 62.9091C201.437 63.7907 201.582 64.5348 201.874 65.1413C202.169 65.7479 202.565 66.2069 203.062 66.5185C203.563 66.83 204.121 66.9858 204.738 66.9858C205.354 66.9858 205.911 66.83 206.408 66.5185C206.909 66.2069 207.305 65.7479 207.596 65.1413C207.891 64.5348 208.039 63.7907 208.039 62.9091ZM214.647 60.3636V61.358H210.53V60.3636H214.647ZM211.763 68V59.3097C211.763 58.8722 211.866 58.5076 212.071 58.2159C212.277 57.9242 212.544 57.7055 212.872 57.5597C213.2 57.4138 213.546 57.3409 213.911 57.3409C214.199 57.3409 214.435 57.3641 214.617 57.4105C214.799 57.4569 214.935 57.5 215.024 57.5398L214.686 58.554C214.627 58.5341 214.544 58.5092 214.438 58.4794C214.335 58.4496 214.199 58.4347 214.03 58.4347C213.642 58.4347 213.362 58.5324 213.19 58.728C213.021 58.9235 212.936 59.2102 212.936 59.5881V68H211.763ZM219.792 60.3636V61.358H215.675V60.3636H219.792ZM216.908 68V59.3097C216.908 58.8722 217.011 58.5076 217.216 58.2159C217.422 57.9242 217.689 57.7055 218.017 57.5597C218.345 57.4138 218.691 57.3409 219.056 57.3409C219.344 57.3409 219.579 57.3641 219.762 57.4105C219.944 57.4569 220.08 57.5 220.169 57.5398L219.831 58.554C219.772 58.5341 219.689 58.5092 219.583 58.4794C219.48 58.4496 219.344 58.4347 219.175 58.4347C218.787 58.4347 218.507 58.5324 218.335 58.728C218.166 58.9235 218.081 59.2102 218.081 59.5881V68H216.908ZM222.709 57.8182V68H221.536V57.8182H222.709ZM224.958 68V60.3636H226.131V68H224.958ZM225.555 59.0909C225.326 59.0909 225.129 59.013 224.963 58.8572C224.801 58.7015 224.72 58.5142 224.72 58.2955C224.72 58.0767 224.801 57.8894 224.963 57.7337C225.129 57.5779 225.326 57.5 225.555 57.5C225.783 57.5 225.979 57.5779 226.141 57.7337C226.307 57.8894 226.39 58.0767 226.39 58.2955C226.39 58.5142 226.307 58.7015 226.141 58.8572C225.979 59.013 225.783 59.0909 225.555 59.0909ZM229.554 63.4062V68H228.38V60.3636H229.514V61.5568H229.613C229.792 61.169 230.064 60.8575 230.429 60.6222C230.793 60.3835 231.264 60.2642 231.841 60.2642C232.358 60.2642 232.81 60.3703 233.198 60.5824C233.586 60.7912 233.887 61.1094 234.103 61.5369C234.318 61.9612 234.426 62.4981 234.426 63.1477V68H233.253V63.2273C233.253 62.6274 233.097 62.16 232.785 61.8253C232.474 61.4872 232.046 61.3182 231.503 61.3182C231.128 61.3182 230.793 61.3994 230.498 61.5618C230.207 61.7242 229.976 61.9612 229.807 62.2727C229.638 62.5843 229.554 62.9621 229.554 63.4062ZM239.872 68.1591C239.136 68.1591 238.501 67.9967 237.967 67.6719C237.437 67.3438 237.028 66.8864 236.74 66.2997C236.454 65.7098 236.312 65.0237 236.312 64.2415C236.312 63.4593 236.454 62.7699 236.74 62.1733C237.028 61.5734 237.429 61.1061 237.943 60.7713C238.46 60.4332 239.063 60.2642 239.752 60.2642C240.15 60.2642 240.543 60.3305 240.931 60.4631C241.318 60.5956 241.671 60.8111 241.99 61.1094C242.308 61.4044 242.561 61.7955 242.75 62.2827C242.939 62.7699 243.034 63.3698 243.034 64.0824V64.5795H237.147V63.5653H241.84C241.84 63.1345 241.754 62.75 241.582 62.4119C241.413 62.0739 241.171 61.8071 240.856 61.6115C240.544 61.416 240.177 61.3182 239.752 61.3182C239.285 61.3182 238.881 61.4342 238.539 61.6662C238.201 61.8949 237.941 62.1932 237.759 62.5611C237.576 62.929 237.485 63.3234 237.485 63.7443V64.4205C237.485 64.9972 237.585 65.486 237.784 65.8871C237.986 66.2848 238.266 66.5881 238.624 66.7969C238.982 67.0024 239.398 67.1051 239.872 67.1051C240.18 67.1051 240.458 67.062 240.707 66.9759C240.959 66.8864 241.176 66.7538 241.358 66.5781C241.54 66.3991 241.681 66.1771 241.781 65.9119L242.914 66.2301C242.795 66.6146 242.594 66.9527 242.313 67.2443C242.031 67.5327 241.683 67.758 241.269 67.9205C240.854 68.0795 240.389 68.1591 239.872 68.1591Z" fill="#44444F"/>
</g>
<rect x="15" y="58" width="8" height="10" rx="4" fill="#0062FF"/>
<path d="M29.6506 57.8182L32.6733 66.3892H32.7926L35.8153 57.8182H37.108L33.3693 68H32.0966L28.358 57.8182H29.6506ZM41.1256 68.1591C40.3898 68.1591 39.7551 67.9967 39.2214 67.6719C38.6911 67.3438 38.2818 66.8864 37.9935 66.2997C37.7084 65.7098 37.5659 65.0237 37.5659 64.2415C37.5659 63.4593 37.7084 62.7699 37.9935 62.1733C38.2818 61.5734 38.6829 61.1061 39.1966 60.7713C39.7136 60.4332 40.3169 60.2642 41.0063 60.2642C41.404 60.2642 41.7967 60.3305 42.1845 60.4631C42.5723 60.5956 42.9253 60.8111 43.2435 61.1094C43.5616 61.4044 43.8152 61.7955 44.0041 62.2827C44.193 62.7699 44.2875 63.3698 44.2875 64.0824V64.5795H38.4011V63.5653H43.0943C43.0943 63.1345 43.0081 62.75 42.8358 62.4119C42.6668 62.0739 42.4248 61.8071 42.1099 61.6115C41.7984 61.416 41.4305 61.3182 41.0063 61.3182C40.5389 61.3182 40.1346 61.4342 39.7932 61.6662C39.4551 61.8949 39.1949 62.1932 39.0126 62.5611C38.8304 62.929 38.7392 63.3234 38.7392 63.7443V64.4205C38.7392 64.9972 38.8386 65.486 39.0375 65.8871C39.2397 66.2848 39.5197 66.5881 39.8777 66.7969C40.2357 67.0024 40.6516 67.1051 41.1256 67.1051C41.4338 67.1051 41.7122 67.062 41.9608 66.9759C42.2127 66.8864 42.4298 66.7538 42.6121 66.5781C42.7944 66.3991 42.9352 66.1771 43.0347 65.9119L44.1682 66.2301C44.0489 66.6146 43.8483 66.9527 43.5666 67.2443C43.2849 67.5327 42.9369 67.758 42.5226 67.9205C42.1083 68.0795 41.6426 68.1591 41.1256 68.1591ZM47.3456 63.4062V68H46.1723V60.3636H47.3058V61.5568H47.4053C47.5842 61.169 47.856 60.8575 48.2206 60.6222C48.5852 60.3835 49.0558 60.2642 49.6325 60.2642C50.1496 60.2642 50.602 60.3703 50.9898 60.5824C51.3776 60.7912 51.6792 61.1094 51.8946 61.5369C52.11 61.9612 52.2178 62.4981 52.2178 63.1477V68H51.0445V63.2273C51.0445 62.6274 50.8887 62.16 50.5771 61.8253C50.2656 61.4872 49.838 61.3182 49.2945 61.3182C48.9199 61.3182 48.5852 61.3994 48.2902 61.5618C47.9985 61.7242 47.7682 61.9612 47.5991 62.2727C47.4301 62.5843 47.3456 62.9621 47.3456 63.4062ZM57.3453 68.1591C56.7089 68.1591 56.1471 67.9983 55.6599 67.6768C55.1727 67.352 54.7915 66.8946 54.5164 66.3047C54.2413 65.7114 54.1038 65.0104 54.1038 64.2017C54.1038 63.3996 54.2413 62.7036 54.5164 62.1136C54.7915 61.5237 55.1743 61.0679 55.6649 60.7464C56.1554 60.425 56.7222 60.2642 57.3652 60.2642C57.8623 60.2642 58.2551 60.3471 58.5434 60.5128C58.8351 60.6752 59.0572 60.8608 59.2096 61.0696C59.3654 61.2751 59.4864 61.4441 59.5725 61.5767H59.672V57.8182H60.8453V68H59.7118V66.8267H59.5725C59.4864 66.9659 59.3637 67.1416 59.2047 67.3537C59.0456 67.5625 58.8185 67.7498 58.5235 67.9155C58.2286 68.0779 57.8358 68.1591 57.3453 68.1591ZM57.5044 67.1051C57.975 67.1051 58.3727 66.9825 58.6975 66.7372C59.0224 66.4886 59.2693 66.1456 59.4383 65.7081C59.6074 65.2673 59.6919 64.7585 59.6919 64.1818C59.6919 63.6117 59.609 63.1129 59.4433 62.6854C59.2776 62.2545 59.0323 61.9197 58.7075 61.6811C58.3827 61.4392 57.9816 61.3182 57.5044 61.3182C57.0072 61.3182 56.5929 61.4458 56.2615 61.701C55.9333 61.9529 55.6864 62.2959 55.5207 62.7301C55.3583 63.161 55.2771 63.6449 55.2771 64.1818C55.2771 64.7254 55.36 65.2192 55.5257 65.6634C55.6947 66.1042 55.9433 66.4555 56.2714 66.7173C56.6029 66.9759 57.0138 67.1051 57.5044 67.1051ZM65.5042 68.179C65.0203 68.179 64.5812 68.0878 64.1868 67.9055C63.7923 67.7199 63.4791 67.4531 63.2471 67.1051C63.0151 66.7538 62.8991 66.3295 62.8991 65.8324C62.8991 65.3949 62.9853 65.0402 63.1576 64.7685C63.33 64.4934 63.5603 64.2779 63.8487 64.1222C64.137 63.9664 64.4552 63.8504 64.8032 63.7741C65.1546 63.6946 65.5075 63.6316 65.8622 63.5852C66.3262 63.5256 66.7024 63.4808 66.9907 63.451C67.2824 63.4179 67.4945 63.3632 67.6271 63.2869C67.763 63.2107 67.8309 63.0781 67.8309 62.8892V62.8494C67.8309 62.3589 67.6967 61.9777 67.4282 61.706C67.1631 61.4342 66.7604 61.2983 66.2201 61.2983C65.66 61.2983 65.2208 61.4209 64.9027 61.6662C64.5845 61.9115 64.3608 62.1733 64.2315 62.4517L63.1179 62.054C63.3167 61.59 63.5819 61.2287 63.9133 60.9702C64.2481 60.7083 64.6127 60.526 65.0071 60.4233C65.4048 60.3172 65.7959 60.2642 66.1804 60.2642C66.4256 60.2642 66.7074 60.294 67.0255 60.3537C67.347 60.41 67.6569 60.5277 67.9552 60.7067C68.2568 60.8857 68.5071 61.1558 68.7059 61.517C68.9048 61.8783 69.0042 62.3622 69.0042 62.9688V68H67.8309V66.9659H67.7713C67.6917 67.1316 67.5592 67.3089 67.3735 67.4979C67.1879 67.6868 66.941 67.8475 66.6328 67.9801C66.3245 68.1127 65.9484 68.179 65.5042 68.179ZM65.6832 67.125C66.1472 67.125 66.5383 67.0339 66.8565 66.8516C67.178 66.6693 67.4199 66.4339 67.5824 66.1456C67.7481 65.8572 67.8309 65.554 67.8309 65.2358V64.1619C67.7812 64.2216 67.6718 64.2763 67.5028 64.326C67.3371 64.3724 67.1449 64.4138 66.9261 64.4503C66.7107 64.4834 66.5002 64.5133 66.2947 64.5398C66.0925 64.563 65.9285 64.5829 65.8025 64.5994C65.4976 64.6392 65.2126 64.7038 64.9474 64.7933C64.6856 64.8795 64.4735 65.0104 64.311 65.1861C64.152 65.3584 64.0724 65.5937 64.0724 65.892C64.0724 66.2997 64.2232 66.608 64.5248 66.8168C64.8297 67.0223 65.2159 67.125 65.6832 67.125ZM76.6548 62.0739L75.6009 62.3722C75.5346 62.1965 75.4368 62.0258 75.3075 61.8601C75.1816 61.6911 75.0092 61.5518 74.7905 61.4425C74.5717 61.3331 74.2917 61.2784 73.9503 61.2784C73.483 61.2784 73.0935 61.3861 72.782 61.6016C72.4737 61.8137 72.3196 62.0838 72.3196 62.4119C72.3196 62.7036 72.4257 62.9339 72.6378 63.103C72.8499 63.272 73.1813 63.4129 73.6321 63.5256L74.7656 63.804C75.4484 63.9697 75.9571 64.2232 76.2919 64.5646C76.6267 64.9027 76.794 65.3385 76.794 65.8722C76.794 66.3097 76.6681 66.7008 76.4162 67.0455C76.1676 67.3902 75.8196 67.6619 75.3722 67.8608C74.9247 68.0597 74.4044 68.1591 73.8111 68.1591C73.0322 68.1591 72.3875 67.9901 71.8771 67.652C71.3667 67.3139 71.0436 66.8201 70.9077 66.1705L72.0213 65.892C72.1274 66.303 72.3279 66.6113 72.6229 66.8168C72.9212 67.0223 73.3106 67.125 73.7912 67.125C74.3381 67.125 74.7723 67.009 75.0938 66.777C75.4186 66.5417 75.581 66.2599 75.581 65.9318C75.581 65.6667 75.4882 65.4446 75.3026 65.2656C75.117 65.0833 74.8319 64.9474 74.4474 64.858L73.1747 64.5597C72.4754 64.3939 71.9616 64.1371 71.6335 63.7891C71.3087 63.4377 71.1463 62.9986 71.1463 62.4716C71.1463 62.0407 71.2673 61.6596 71.5092 61.3281C71.7545 60.9967 72.0876 60.7365 72.5085 60.5476C72.9328 60.3587 73.4134 60.2642 73.9503 60.2642C74.706 60.2642 75.2992 60.4299 75.7301 60.7614C76.1643 61.0928 76.4725 61.5303 76.6548 62.0739ZM85.8 68.1591C85.1106 68.1591 84.5057 67.995 83.9853 67.6669C83.4683 67.3388 83.0639 66.8797 82.7723 66.2898C82.4839 65.6998 82.3397 65.0104 82.3397 64.2216C82.3397 63.4261 82.4839 62.7318 82.7723 62.1385C83.0639 61.5452 83.4683 61.0845 83.9853 60.7564C84.5057 60.4283 85.1106 60.2642 85.8 60.2642C86.4894 60.2642 87.0926 60.4283 87.6096 60.7564C88.13 61.0845 88.5343 61.5452 88.8227 62.1385C89.1144 62.7318 89.2602 63.4261 89.2602 64.2216C89.2602 65.0104 89.1144 65.6998 88.8227 66.2898C88.5343 66.8797 88.13 67.3388 87.6096 67.6669C87.0926 67.995 86.4894 68.1591 85.8 68.1591ZM85.8 67.1051C86.3236 67.1051 86.7545 66.9709 87.0926 66.7024C87.4306 66.4339 87.6809 66.081 87.8433 65.6435C88.0057 65.206 88.0869 64.732 88.0869 64.2216C88.0869 63.7112 88.0057 63.2356 87.8433 62.7947C87.6809 62.3539 87.4306 61.9976 87.0926 61.7259C86.7545 61.4541 86.3236 61.3182 85.8 61.3182C85.2763 61.3182 84.8454 61.4541 84.5074 61.7259C84.1693 61.9976 83.919 62.3539 83.7566 62.7947C83.5942 63.2356 83.513 63.7112 83.513 64.2216C83.513 64.732 83.5942 65.206 83.7566 65.6435C83.919 66.081 84.1693 66.4339 84.5074 66.7024C84.8454 66.9709 85.2763 67.1051 85.8 67.1051ZM92.3245 63.4062V68H91.1512V60.3636H92.2847V61.5568H92.3842C92.5631 61.169 92.8349 60.8575 93.1995 60.6222C93.5641 60.3835 94.0347 60.2642 94.6114 60.2642C95.1285 60.2642 95.5809 60.3703 95.9687 60.5824C96.3565 60.7912 96.6581 61.1094 96.8735 61.5369C97.0889 61.9612 97.1967 62.4981 97.1967 63.1477V68H96.0234V63.2273C96.0234 62.6274 95.8676 62.16 95.556 61.8253C95.2445 61.4872 94.8169 61.3182 94.2734 61.3182C93.8988 61.3182 93.5641 61.3994 93.2691 61.5618C92.9774 61.7242 92.7471 61.9612 92.5781 62.2727C92.409 62.5843 92.3245 62.9621 92.3245 63.4062ZM100.614 57.8182V68H99.4407V57.8182H100.614ZM102.863 68V60.3636H104.036V68H102.863ZM103.46 59.0909C103.231 59.0909 103.034 59.013 102.868 58.8572C102.705 58.7015 102.624 58.5142 102.624 58.2955C102.624 58.0767 102.705 57.8894 102.868 57.7337C103.034 57.5779 103.231 57.5 103.46 57.5C103.688 57.5 103.884 57.5779 104.046 57.7337C104.212 57.8894 104.295 58.0767 104.295 58.2955C104.295 58.5142 104.212 58.7015 104.046 58.8572C103.884 59.013 103.688 59.0909 103.46 59.0909ZM107.458 63.4062V68H106.285V60.3636H107.419V61.5568H107.518C107.697 61.169 107.969 60.8575 108.333 60.6222C108.698 60.3835 109.169 60.2642 109.745 60.2642C110.262 60.2642 110.715 60.3703 111.103 60.5824C111.49 60.7912 111.792 61.1094 112.007 61.5369C112.223 61.9612 112.331 62.4981 112.331 63.1477V68H111.157V63.2273C111.157 62.6274 111.002 62.16 110.69 61.8253C110.378 61.4872 109.951 61.3182 109.407 61.3182C109.033 61.3182 108.698 61.3994 108.403 61.5618C108.111 61.7242 107.881 61.9612 107.712 62.2727C107.543 62.5843 107.458 62.9621 107.458 63.4062ZM117.776 68.1591C117.041 68.1591 116.406 67.9967 115.872 67.6719C115.342 67.3438 114.933 66.8864 114.644 66.2997C114.359 65.7098 114.217 65.0237 114.217 64.2415C114.217 63.4593 114.359 62.7699 114.644 62.1733C114.933 61.5734 115.334 61.1061 115.847 60.7713C116.364 60.4332 116.968 60.2642 117.657 60.2642C118.055 60.2642 118.448 60.3305 118.835 60.4631C119.223 60.5956 119.576 60.8111 119.894 61.1094C120.212 61.4044 120.466 61.7955 120.655 62.2827C120.844 62.7699 120.938 63.3698 120.938 64.0824V64.5795H115.052V63.5653H119.745C119.745 63.1345 119.659 62.75 119.487 62.4119C119.318 62.0739 119.076 61.8071 118.761 61.6115C118.449 61.416 118.081 61.3182 117.657 61.3182C117.19 61.3182 116.785 61.4342 116.444 61.6662C116.106 61.8949 115.846 62.1932 115.663 62.5611C115.481 62.929 115.39 63.3234 115.39 63.7443V64.4205C115.39 64.9972 115.489 65.486 115.688 65.8871C115.89 66.2848 116.171 66.5881 116.528 66.7969C116.886 67.0024 117.302 67.1051 117.776 67.1051C118.085 67.1051 118.363 67.062 118.612 66.9759C118.863 66.8864 119.081 66.7538 119.263 66.5781C119.445 66.3991 119.586 66.1771 119.685 65.9119L120.819 66.2301C120.7 66.6146 120.499 66.9527 120.217 67.2443C119.936 67.5327 119.588 67.758 119.173 67.9205C118.759 68.0795 118.293 68.1591 117.776 68.1591Z" fill="#44444F"/>
<path d="M16.1477 30V18.3636H20.5114C21.4053 18.3636 22.1553 18.5189 22.7614 18.8295C23.3712 19.1402 23.8314 19.5758 24.142 20.1364C24.4564 20.6932 24.6136 21.3428 24.6136 22.0852C24.6136 22.8314 24.4545 23.4792 24.1364 24.0284C23.822 24.5739 23.358 24.9962 22.7443 25.2955C22.1307 25.5909 21.3769 25.7386 20.483 25.7386H17.375V23.9886H20.1989C20.7216 23.9886 21.1496 23.9167 21.483 23.7727C21.8163 23.625 22.0625 23.411 22.2216 23.1307C22.3845 22.8466 22.4659 22.4981 22.4659 22.0852C22.4659 21.6723 22.3845 21.3201 22.2216 21.0284C22.0587 20.733 21.8106 20.5095 21.4773 20.358C21.1439 20.2027 20.714 20.125 20.1875 20.125H18.2557V30H16.1477ZM22.1591 24.7273L25.0398 30H22.6875L19.858 24.7273H22.1591ZM30.3017 30.1705C29.4267 30.1705 28.671 29.9886 28.0347 29.625C27.4021 29.2576 26.9153 28.7386 26.5744 28.0682C26.2335 27.3939 26.0631 26.6004 26.0631 25.6875C26.0631 24.7898 26.2335 24.0019 26.5744 23.3239C26.9191 22.642 27.4002 22.1117 28.0176 21.733C28.635 21.3504 29.3604 21.1591 30.1938 21.1591C30.7316 21.1591 31.2392 21.2462 31.7165 21.4205C32.1975 21.5909 32.6218 21.8561 32.9892 22.2159C33.3604 22.5758 33.6521 23.0341 33.8642 23.5909C34.0763 24.1439 34.1824 24.803 34.1824 25.5682V26.1989H27.029V24.8125H32.2108C32.207 24.4186 32.1218 24.0682 31.9551 23.7614C31.7884 23.4508 31.5555 23.2064 31.2563 23.0284C30.9608 22.8504 30.6161 22.7614 30.2222 22.7614C29.8017 22.7614 29.4324 22.8636 29.1142 23.0682C28.796 23.2689 28.5479 23.5341 28.3699 23.8636C28.1956 24.1894 28.1066 24.5473 28.1028 24.9375V26.1477C28.1028 26.6553 28.1956 27.0909 28.3813 27.4545C28.5669 27.8144 28.8263 28.0909 29.1597 28.2841C29.493 28.4735 29.8831 28.5682 30.3301 28.5682C30.6294 28.5682 30.9002 28.5265 31.1426 28.4432C31.385 28.3561 31.5953 28.2292 31.7733 28.0625C31.9513 27.8958 32.0858 27.6894 32.1767 27.4432L34.0972 27.6591C33.9759 28.1667 33.7449 28.6098 33.404 28.9886C33.0669 29.3636 32.635 29.6553 32.1085 29.8636C31.582 30.0682 30.9797 30.1705 30.3017 30.1705ZM38.0793 18.3636V30H36.0224V18.3636H38.0793ZM42.8057 30.1761C42.2527 30.1761 41.7545 30.0777 41.3114 29.8807C40.872 29.6799 40.5235 29.3845 40.2659 28.9943C40.0121 28.6042 39.8852 28.1231 39.8852 27.5511C39.8852 27.0587 39.9761 26.6515 40.158 26.3295C40.3398 26.0076 40.5879 25.75 40.9023 25.5568C41.2167 25.3636 41.5708 25.2178 41.9648 25.1193C42.3625 25.017 42.7735 24.9432 43.1977 24.8977C43.7091 24.8447 44.1239 24.7973 44.442 24.7557C44.7602 24.7102 44.9913 24.642 45.1352 24.5511C45.283 24.4564 45.3568 24.3106 45.3568 24.1136V24.0795C45.3568 23.6515 45.2299 23.3201 44.9761 23.0852C44.7223 22.8504 44.3568 22.733 43.8795 22.733C43.3758 22.733 42.9761 22.8428 42.6807 23.0625C42.389 23.2822 42.192 23.5417 42.0898 23.8409L40.1693 23.5682C40.3208 23.0379 40.5708 22.5947 40.9193 22.2386C41.2678 21.8788 41.6939 21.6098 42.1977 21.4318C42.7015 21.25 43.2583 21.1591 43.8682 21.1591C44.2886 21.1591 44.7072 21.2083 45.1239 21.3068C45.5405 21.4053 45.9212 21.5682 46.2659 21.7955C46.6106 22.0189 46.8871 22.3239 47.0955 22.7102C47.3076 23.0966 47.4136 23.5795 47.4136 24.1591V30H45.4364V28.8011H45.3682C45.2432 29.0436 45.067 29.2708 44.8398 29.483C44.6163 29.6913 44.3341 29.8598 43.9932 29.9886C43.6561 30.1136 43.2602 30.1761 42.8057 30.1761ZM43.3398 28.6648C43.7527 28.6648 44.1106 28.5833 44.4136 28.4205C44.7167 28.2538 44.9496 28.0341 45.1125 27.7614C45.2792 27.4886 45.3625 27.1913 45.3625 26.8693V25.8409C45.2981 25.8939 45.1883 25.9432 45.033 25.9886C44.8814 26.0341 44.711 26.0739 44.5216 26.108C44.3322 26.142 44.1447 26.1723 43.9591 26.1989C43.7735 26.2254 43.6125 26.2481 43.4761 26.267C43.1693 26.3087 42.8947 26.3769 42.6523 26.4716C42.4098 26.5663 42.2186 26.6989 42.0784 26.8693C41.9383 27.036 41.8682 27.2519 41.8682 27.517C41.8682 27.8958 42.0064 28.1818 42.283 28.375C42.5595 28.5682 42.9117 28.6648 43.3398 28.6648ZM53.9398 21.2727V22.8636H48.9227V21.2727H53.9398ZM50.1614 19.1818H52.2182V27.375C52.2182 27.6515 52.2599 27.8636 52.3432 28.0114C52.4303 28.1553 52.5439 28.2538 52.6841 28.3068C52.8242 28.3598 52.9795 28.3864 53.15 28.3864C53.2788 28.3864 53.3962 28.3769 53.5023 28.358C53.6121 28.339 53.6955 28.322 53.7523 28.3068L54.0989 29.9148C53.989 29.9527 53.8318 29.9943 53.6273 30.0398C53.4265 30.0852 53.1803 30.1117 52.8886 30.1193C52.3735 30.1345 51.9095 30.0568 51.4966 29.8864C51.0837 29.7121 50.7561 29.4432 50.5136 29.0795C50.275 28.7159 50.1576 28.2614 50.1614 27.7159V19.1818ZM59.473 30.1705C58.6207 30.1705 57.8821 29.983 57.2571 29.608C56.6321 29.233 56.1473 28.7083 55.8026 28.0341C55.4616 27.3598 55.2912 26.572 55.2912 25.6705C55.2912 24.7689 55.4616 23.9792 55.8026 23.3011C56.1473 22.6231 56.6321 22.0966 57.2571 21.7216C57.8821 21.3466 58.6207 21.1591 59.473 21.1591C60.3253 21.1591 61.0639 21.3466 61.6889 21.7216C62.3139 22.0966 62.7969 22.6231 63.1378 23.3011C63.4825 23.9792 63.6548 24.7689 63.6548 25.6705C63.6548 26.572 63.4825 27.3598 63.1378 28.0341C62.7969 28.7083 62.3139 29.233 61.6889 29.608C61.0639 29.983 60.3253 30.1705 59.473 30.1705ZM59.4844 28.5227C59.9465 28.5227 60.3329 28.3958 60.6435 28.142C60.9541 27.8845 61.1851 27.5398 61.3366 27.108C61.492 26.6761 61.5696 26.1951 61.5696 25.6648C61.5696 25.1307 61.492 24.6477 61.3366 24.2159C61.1851 23.7803 60.9541 23.4337 60.6435 23.1761C60.3329 22.9186 59.9465 22.7898 59.4844 22.7898C59.0109 22.7898 58.617 22.9186 58.3026 23.1761C57.992 23.4337 57.759 23.7803 57.6037 24.2159C57.4522 24.6477 57.3764 25.1307 57.3764 25.6648C57.3764 26.1951 57.4522 26.6761 57.6037 27.108C57.759 27.5398 57.992 27.8845 58.3026 28.142C58.617 28.3958 59.0109 28.5227 59.4844 28.5227ZM58.6832 20.125L59.956 17.5284H61.9673L60.223 20.125H58.6832ZM65.5006 30V21.2727H67.4949V22.7273H67.5858C67.7449 22.2235 68.0176 21.8352 68.404 21.5625C68.7941 21.286 69.2392 21.1477 69.7392 21.1477C69.8528 21.1477 69.9797 21.1534 70.1199 21.1648C70.2638 21.1723 70.3831 21.1856 70.4778 21.2045V23.0966C70.3907 23.0663 70.2525 23.0398 70.0631 23.017C69.8775 22.9905 69.6975 22.9773 69.5233 22.9773C69.1483 22.9773 68.8112 23.0587 68.5119 23.2216C68.2165 23.3807 67.9835 23.6023 67.8131 23.8864C67.6426 24.1705 67.5574 24.4981 67.5574 24.8693V30H65.5006ZM71.9443 30V21.2727H74.0011V30H71.9443ZM72.9784 20.0341C72.6527 20.0341 72.3723 19.9261 72.1375 19.7102C71.9027 19.4905 71.7852 19.2273 71.7852 18.9205C71.7852 18.6098 71.9027 18.3466 72.1375 18.1307C72.3723 17.911 72.6527 17.8011 72.9784 17.8011C73.308 17.8011 73.5883 17.911 73.8193 18.1307C74.0542 18.3466 74.1716 18.6098 74.1716 18.9205C74.1716 19.2273 74.0542 19.4905 73.8193 19.7102C73.5883 19.9261 73.308 20.0341 72.9784 20.0341ZM80.023 30.1705C79.1707 30.1705 78.4321 29.983 77.8071 29.608C77.1821 29.233 76.6973 28.7083 76.3526 28.0341C76.0116 27.3598 75.8412 26.572 75.8412 25.6705C75.8412 24.7689 76.0116 23.9792 76.3526 23.3011C76.6973 22.6231 77.1821 22.0966 77.8071 21.7216C78.4321 21.3466 79.1707 21.1591 80.023 21.1591C80.8753 21.1591 81.6139 21.3466 82.2389 21.7216C82.8639 22.0966 83.3469 22.6231 83.6878 23.3011C84.0325 23.9792 84.2048 24.7689 84.2048 25.6705C84.2048 26.572 84.0325 27.3598 83.6878 28.0341C83.3469 28.7083 82.8639 29.233 82.2389 29.608C81.6139 29.983 80.8753 30.1705 80.023 30.1705ZM80.0344 28.5227C80.4965 28.5227 80.8829 28.3958 81.1935 28.142C81.5041 27.8845 81.7351 27.5398 81.8866 27.108C82.042 26.6761 82.1196 26.1951 82.1196 25.6648C82.1196 25.1307 82.042 24.6477 81.8866 24.2159C81.7351 23.7803 81.5041 23.4337 81.1935 23.1761C80.8829 22.9186 80.4965 22.7898 80.0344 22.7898C79.5609 22.7898 79.167 22.9186 78.8526 23.1761C78.542 23.4337 78.309 23.7803 78.1537 24.2159C78.0022 24.6477 77.9264 25.1307 77.9264 25.6648C77.9264 26.1951 78.0022 26.6761 78.1537 27.108C78.309 27.5398 78.542 27.8845 78.8526 28.142C79.167 28.3958 79.5609 28.5227 80.0344 28.5227ZM93.358 30.1534C92.6723 30.1534 92.0587 29.9773 91.517 29.625C90.9754 29.2727 90.5473 28.7614 90.233 28.0909C89.9186 27.4205 89.7614 26.6061 89.7614 25.6477C89.7614 24.678 89.9205 23.8598 90.2386 23.1932C90.5606 22.5227 90.9943 22.017 91.5398 21.6761C92.0852 21.3314 92.6932 21.1591 93.3636 21.1591C93.875 21.1591 94.2955 21.2462 94.625 21.4205C94.9545 21.5909 95.2159 21.7973 95.4091 22.0398C95.6023 22.2784 95.7519 22.5038 95.858 22.7159H95.9432V18.3636H98.0057V30H95.983V28.625H95.858C95.7519 28.8371 95.5985 29.0625 95.3977 29.3011C95.197 29.536 94.9318 29.7367 94.6023 29.9034C94.2727 30.0701 93.858 30.1534 93.358 30.1534ZM93.9318 28.4659C94.3674 28.4659 94.7386 28.3485 95.0455 28.1136C95.3523 27.875 95.5852 27.5436 95.7443 27.1193C95.9034 26.6951 95.983 26.2008 95.983 25.6364C95.983 25.072 95.9034 24.5814 95.7443 24.1648C95.589 23.7481 95.358 23.4242 95.0511 23.1932C94.7481 22.9621 94.375 22.8466 93.9318 22.8466C93.4735 22.8466 93.0909 22.9659 92.7841 23.2045C92.4773 23.4432 92.2462 23.7727 92.0909 24.1932C91.9356 24.6136 91.858 25.0947 91.858 25.6364C91.858 26.1818 91.9356 26.6686 92.0909 27.0966C92.25 27.5208 92.483 27.8561 92.7898 28.1023C93.1004 28.3447 93.4811 28.4659 93.9318 28.4659ZM104.161 30.1705C103.286 30.1705 102.53 29.9886 101.894 29.625C101.261 29.2576 100.775 28.7386 100.434 28.0682C100.093 27.3939 99.9224 26.6004 99.9224 25.6875C99.9224 24.7898 100.093 24.0019 100.434 23.3239C100.779 22.642 101.26 22.1117 101.877 21.733C102.494 21.3504 103.22 21.1591 104.053 21.1591C104.591 21.1591 105.099 21.2462 105.576 21.4205C106.057 21.5909 106.481 21.8561 106.849 22.2159C107.22 22.5758 107.511 23.0341 107.724 23.5909C107.936 24.1439 108.042 24.803 108.042 25.5682V26.1989H100.888V24.8125H106.07C106.066 24.4186 105.981 24.0682 105.814 23.7614C105.648 23.4508 105.415 23.2064 105.116 23.0284C104.82 22.8504 104.475 22.7614 104.082 22.7614C103.661 22.7614 103.292 22.8636 102.974 23.0682C102.655 23.2689 102.407 23.5341 102.229 23.8636C102.055 24.1894 101.966 24.5473 101.962 24.9375V26.1477C101.962 26.6553 102.055 27.0909 102.241 27.4545C102.426 27.8144 102.686 28.0909 103.019 28.2841C103.352 28.4735 103.743 28.5682 104.189 28.5682C104.489 28.5682 104.76 28.5265 105.002 28.4432C105.244 28.3561 105.455 28.2292 105.633 28.0625C105.811 27.8958 105.945 27.6894 106.036 27.4432L107.957 27.6591C107.835 28.1667 107.604 28.6098 107.263 28.9886C106.926 29.3636 106.494 29.6553 105.968 29.8636C105.441 30.0682 104.839 30.1705 104.161 30.1705ZM115.598 18.3636L118.627 27.5227H118.746L121.769 18.3636H124.087L119.985 30H117.382L113.286 18.3636H115.598ZM128.555 30.1705C127.68 30.1705 126.924 29.9886 126.288 29.625C125.655 29.2576 125.168 28.7386 124.828 28.0682C124.487 27.3939 124.316 26.6004 124.316 25.6875C124.316 24.7898 124.487 24.0019 124.828 23.3239C125.172 22.642 125.653 22.1117 126.271 21.733C126.888 21.3504 127.614 21.1591 128.447 21.1591C128.985 21.1591 129.492 21.2462 129.97 21.4205C130.451 21.5909 130.875 21.8561 131.242 22.2159C131.614 22.5758 131.905 23.0341 132.117 23.5909C132.329 24.1439 132.436 24.803 132.436 25.5682V26.1989H125.282V24.8125H130.464C130.46 24.4186 130.375 24.0682 130.208 23.7614C130.042 23.4508 129.809 23.2064 129.509 23.0284C129.214 22.8504 128.869 22.7614 128.475 22.7614C128.055 22.7614 127.686 22.8636 127.367 23.0682C127.049 23.2689 126.801 23.5341 126.623 23.8636C126.449 24.1894 126.36 24.5473 126.356 24.9375V26.1477C126.356 26.6553 126.449 27.0909 126.634 27.4545C126.82 27.8144 127.079 28.0909 127.413 28.2841C127.746 28.4735 128.136 28.5682 128.583 28.5682C128.882 28.5682 129.153 28.5265 129.396 28.4432C129.638 28.3561 129.848 28.2292 130.026 28.0625C130.204 27.8958 130.339 27.6894 130.43 27.4432L132.35 27.6591C132.229 28.1667 131.998 28.6098 131.657 28.9886C131.32 29.3636 130.888 29.6553 130.362 29.8636C129.835 30.0682 129.233 30.1705 128.555 30.1705ZM136.332 24.8864V30H134.276V21.2727H136.241V22.7557H136.344C136.545 22.267 136.865 21.8788 137.304 21.5909C137.747 21.303 138.295 21.1591 138.946 21.1591C139.548 21.1591 140.073 21.2879 140.52 21.5455C140.971 21.803 141.319 22.1761 141.565 22.6648C141.815 23.1534 141.938 23.7462 141.935 24.4432V30H139.878V24.7614C139.878 24.178 139.726 23.7216 139.423 23.392C139.124 23.0625 138.709 22.8977 138.179 22.8977C137.819 22.8977 137.499 22.9773 137.219 23.1364C136.942 23.2917 136.724 23.517 136.565 23.8125C136.41 24.108 136.332 24.4659 136.332 24.8864ZM147.364 30.1534C146.679 30.1534 146.065 29.9773 145.523 29.625C144.982 29.2727 144.554 28.7614 144.239 28.0909C143.925 27.4205 143.768 26.6061 143.768 25.6477C143.768 24.678 143.927 23.8598 144.245 23.1932C144.567 22.5227 145.001 22.017 145.546 21.6761C146.091 21.3314 146.699 21.1591 147.37 21.1591C147.881 21.1591 148.302 21.2462 148.631 21.4205C148.961 21.5909 149.222 21.7973 149.415 22.0398C149.609 22.2784 149.758 22.5038 149.864 22.7159H149.949V18.3636H152.012V30H149.989V28.625H149.864C149.758 28.8371 149.605 29.0625 149.404 29.3011C149.203 29.536 148.938 29.7367 148.609 29.9034C148.279 30.0701 147.864 30.1534 147.364 30.1534ZM147.938 28.4659C148.374 28.4659 148.745 28.3485 149.052 28.1136C149.359 27.875 149.591 27.5436 149.751 27.1193C149.91 26.6951 149.989 26.2008 149.989 25.6364C149.989 25.072 149.91 24.5814 149.751 24.1648C149.595 23.7481 149.364 23.4242 149.057 23.1932C148.754 22.9621 148.381 22.8466 147.938 22.8466C147.48 22.8466 147.097 22.9659 146.79 23.2045C146.484 23.4432 146.252 23.7727 146.097 24.1932C145.942 24.6136 145.864 25.0947 145.864 25.6364C145.864 26.1818 145.942 26.6686 146.097 27.0966C146.256 27.5208 146.489 27.8561 146.796 28.1023C147.107 28.3447 147.487 28.4659 147.938 28.4659ZM156.815 30.1761C156.262 30.1761 155.764 30.0777 155.321 29.8807C154.881 29.6799 154.533 29.3845 154.275 28.9943C154.021 28.6042 153.895 28.1231 153.895 27.5511C153.895 27.0587 153.986 26.6515 154.167 26.3295C154.349 26.0076 154.597 25.75 154.912 25.5568C155.226 25.3636 155.58 25.2178 155.974 25.1193C156.372 25.017 156.783 24.9432 157.207 24.8977C157.718 24.8447 158.133 24.7973 158.451 24.7557C158.77 24.7102 159.001 24.642 159.145 24.5511C159.292 24.4564 159.366 24.3106 159.366 24.1136V24.0795C159.366 23.6515 159.239 23.3201 158.986 23.0852C158.732 22.8504 158.366 22.733 157.889 22.733C157.385 22.733 156.986 22.8428 156.69 23.0625C156.398 23.2822 156.201 23.5417 156.099 23.8409L154.179 23.5682C154.33 23.0379 154.58 22.5947 154.929 22.2386C155.277 21.8788 155.703 21.6098 156.207 21.4318C156.711 21.25 157.268 21.1591 157.878 21.1591C158.298 21.1591 158.717 21.2083 159.133 21.3068C159.55 21.4053 159.931 21.5682 160.275 21.7955C160.62 22.0189 160.896 22.3239 161.105 22.7102C161.317 23.0966 161.423 23.5795 161.423 24.1591V30H159.446V28.8011H159.378C159.253 29.0436 159.076 29.2708 158.849 29.483C158.626 29.6913 158.343 29.8598 158.003 29.9886C157.665 30.1136 157.27 30.1761 156.815 30.1761ZM157.349 28.6648C157.762 28.6648 158.12 28.5833 158.423 28.4205C158.726 28.2538 158.959 28.0341 159.122 27.7614C159.289 27.4886 159.372 27.1913 159.372 26.8693V25.8409C159.307 25.8939 159.198 25.9432 159.042 25.9886C158.891 26.0341 158.72 26.0739 158.531 26.108C158.342 26.142 158.154 26.1723 157.968 26.1989C157.783 26.2254 157.622 26.2481 157.486 26.267C157.179 26.3087 156.904 26.3769 156.662 26.4716C156.419 26.5663 156.228 26.6989 156.088 26.8693C155.948 27.036 155.878 27.2519 155.878 27.517C155.878 27.8958 156.016 28.1818 156.292 28.375C156.569 28.5682 156.921 28.6648 157.349 28.6648ZM170.489 23.5795L168.614 23.7841C168.561 23.5947 168.468 23.4167 168.336 23.25C168.207 23.0833 168.032 22.9489 167.813 22.8466C167.593 22.7443 167.324 22.6932 167.006 22.6932C166.578 22.6932 166.218 22.786 165.926 22.9716C165.639 23.1572 165.496 23.3977 165.5 23.6932C165.496 23.947 165.589 24.1534 165.779 24.3125C165.972 24.4716 166.29 24.6023 166.733 24.7045L168.222 25.0227C169.048 25.2008 169.661 25.483 170.063 25.8693C170.468 26.2557 170.673 26.7614 170.676 27.3864C170.673 27.9356 170.512 28.4205 170.193 28.8409C169.879 29.2576 169.442 29.5833 168.881 29.8182C168.32 30.053 167.676 30.1705 166.949 30.1705C165.881 30.1705 165.021 29.947 164.37 29.5C163.718 29.0492 163.33 28.4223 163.205 27.6193L165.211 27.4261C165.301 27.8201 165.495 28.1174 165.79 28.3182C166.086 28.5189 166.47 28.6193 166.943 28.6193C167.432 28.6193 167.824 28.5189 168.12 28.3182C168.419 28.1174 168.568 27.8693 168.568 27.5739C168.568 27.3239 168.472 27.1174 168.279 26.9545C168.089 26.7917 167.794 26.6667 167.392 26.5795L165.904 26.267C165.067 26.0928 164.447 25.7992 164.046 25.3864C163.644 24.9697 163.445 24.4432 163.449 23.8068C163.445 23.2689 163.591 22.803 163.887 22.4091C164.186 22.0114 164.601 21.7045 165.131 21.4886C165.665 21.2689 166.281 21.1591 166.978 21.1591C168 21.1591 168.805 21.3769 169.392 21.8125C169.983 22.2481 170.349 22.8371 170.489 23.5795Z" fill="#171725"/>
<path d="M114.054 48V47.1051L117.415 43.4261C117.809 42.9953 118.134 42.6207 118.389 42.3026C118.644 41.9811 118.833 41.6795 118.956 41.3977C119.082 41.1127 119.145 40.8144 119.145 40.5028C119.145 40.1449 119.059 39.835 118.886 39.5732C118.717 39.3113 118.485 39.1091 118.19 38.9666C117.895 38.8241 117.564 38.7528 117.196 38.7528C116.805 38.7528 116.464 38.834 116.172 38.9964C115.884 39.1555 115.66 39.3793 115.501 39.6676C115.345 39.956 115.267 40.294 115.267 40.6818H114.094C114.094 40.0852 114.231 39.5616 114.506 39.1108C114.781 38.66 115.156 38.3087 115.63 38.0568C116.107 37.8049 116.643 37.679 117.236 37.679C117.832 37.679 118.361 37.8049 118.822 38.0568C119.282 38.3087 119.644 38.6484 119.906 39.076C120.167 39.5036 120.298 39.9792 120.298 40.5028C120.298 40.8774 120.23 41.2436 120.094 41.6016C119.962 41.9562 119.73 42.3523 119.398 42.7898C119.07 43.224 118.615 43.7543 118.031 44.3807L115.744 46.8267V46.9062H120.477V48H114.054ZM125.952 48.1392C125.203 48.1392 124.564 47.9354 124.038 47.5277C123.511 47.1167 123.108 46.5218 122.829 45.7429C122.551 44.9607 122.412 44.0161 122.412 42.9091C122.412 41.8087 122.551 40.8691 122.829 40.0902C123.111 39.308 123.515 38.7114 124.042 38.3004C124.573 37.8861 125.209 37.679 125.952 37.679C126.694 37.679 127.329 37.8861 127.856 38.3004C128.386 38.7114 128.79 39.308 129.069 40.0902C129.35 40.8691 129.491 41.8087 129.491 42.9091C129.491 44.0161 129.352 44.9607 129.074 45.7429C128.795 46.5218 128.393 47.1167 127.866 47.5277C127.339 47.9354 126.701 48.1392 125.952 48.1392ZM125.952 47.0455C126.694 47.0455 127.271 46.6875 127.682 45.9716C128.093 45.2557 128.298 44.2348 128.298 42.9091C128.298 42.0275 128.204 41.2768 128.015 40.657C127.829 40.0372 127.561 39.5649 127.209 39.2401C126.861 38.9152 126.442 38.7528 125.952 38.7528C125.216 38.7528 124.641 39.1158 124.226 39.8416C123.812 40.5642 123.605 41.5866 123.605 42.9091C123.605 43.7907 123.698 44.5398 123.883 45.1562C124.069 45.7727 124.336 46.2417 124.684 46.5632C125.035 46.8847 125.458 47.0455 125.952 47.0455ZM131.481 48V47.1051L134.841 43.4261C135.236 42.9953 135.561 42.6207 135.816 42.3026C136.071 41.9811 136.26 41.6795 136.383 41.3977C136.508 41.1127 136.571 40.8144 136.571 40.5028C136.571 40.1449 136.485 39.835 136.313 39.5732C136.144 39.3113 135.912 39.1091 135.617 38.9666C135.322 38.8241 134.99 38.7528 134.623 38.7528C134.231 38.7528 133.89 38.834 133.598 38.9964C133.31 39.1555 133.086 39.3793 132.927 39.6676C132.771 39.956 132.694 40.294 132.694 40.6818H131.52C131.52 40.0852 131.658 39.5616 131.933 39.1108C132.208 38.66 132.583 38.3087 133.057 38.0568C133.534 37.8049 134.069 37.679 134.662 37.679C135.259 37.679 135.788 37.8049 136.248 38.0568C136.709 38.3087 137.07 38.6484 137.332 39.076C137.594 39.5036 137.725 39.9792 137.725 40.5028C137.725 40.8774 137.657 41.2436 137.521 41.6016C137.388 41.9562 137.156 42.3523 136.825 42.7898C136.497 43.224 136.041 43.7543 135.458 44.3807L133.171 46.8267V46.9062H137.904V48H131.481ZM143.637 37.8182V48H142.404V39.1108H142.344L139.858 40.7614V39.5085L142.404 37.8182H143.637ZM151.06 42.3622V43.456H146.605V42.3622H151.06ZM152.726 48V47.1051L156.087 43.4261C156.481 42.9953 156.806 42.6207 157.061 42.3026C157.316 41.9811 157.505 41.6795 157.628 41.3977C157.754 41.1127 157.817 40.8144 157.817 40.5028C157.817 40.1449 157.731 39.835 157.558 39.5732C157.389 39.3113 157.157 39.1091 156.862 38.9666C156.567 38.8241 156.236 38.7528 155.868 38.7528C155.477 38.7528 155.135 38.834 154.844 38.9964C154.555 39.1555 154.332 39.3793 154.173 39.6676C154.017 39.956 153.939 40.294 153.939 40.6818H152.766C152.766 40.0852 152.903 39.5616 153.178 39.1108C153.453 38.66 153.828 38.3087 154.302 38.0568C154.779 37.8049 155.314 37.679 155.908 37.679C156.504 37.679 157.033 37.8049 157.494 38.0568C157.954 38.3087 158.316 38.6484 158.577 39.076C158.839 39.5036 158.97 39.9792 158.97 40.5028C158.97 40.8774 158.902 41.2436 158.766 41.6016C158.634 41.9562 158.402 42.3523 158.07 42.7898C157.742 43.224 157.286 43.7543 156.703 44.3807L154.416 46.8267V46.9062H159.149V48H152.726ZM164.623 48.1392C163.874 48.1392 163.236 47.9354 162.709 47.5277C162.182 47.1167 161.78 46.5218 161.501 45.7429C161.223 44.9607 161.084 44.0161 161.084 42.9091C161.084 41.8087 161.223 40.8691 161.501 40.0902C161.783 39.308 162.187 38.7114 162.714 38.3004C163.245 37.8861 163.881 37.679 164.623 37.679C165.366 37.679 166.001 37.8861 166.528 38.3004C167.058 38.7114 167.462 39.308 167.741 40.0902C168.022 40.8691 168.163 41.8087 168.163 42.9091C168.163 44.0161 168.024 44.9607 167.746 45.7429C167.467 46.5218 167.064 47.1167 166.537 47.5277C166.011 47.9354 165.372 48.1392 164.623 48.1392ZM164.623 47.0455C165.366 47.0455 165.943 46.6875 166.354 45.9716C166.765 45.2557 166.97 44.2348 166.97 42.9091C166.97 42.0275 166.876 41.2768 166.687 40.657C166.501 40.0372 166.233 39.5649 165.881 39.2401C165.533 38.9152 165.114 38.7528 164.623 38.7528C163.888 38.7528 163.313 39.1158 162.898 39.8416C162.484 40.5642 162.277 41.5866 162.277 42.9091C162.277 43.7907 162.37 44.5398 162.555 45.1562C162.741 45.7727 163.008 46.2417 163.356 46.5632C163.707 46.8847 164.13 47.0455 164.623 47.0455ZM170.152 48V47.1051L173.513 43.4261C173.908 42.9953 174.232 42.6207 174.488 42.3026C174.743 41.9811 174.932 41.6795 175.054 41.3977C175.18 41.1127 175.243 40.8144 175.243 40.5028C175.243 40.1449 175.157 39.835 174.985 39.5732C174.816 39.3113 174.584 39.1091 174.289 38.9666C173.994 38.8241 173.662 38.7528 173.294 38.7528C172.903 38.7528 172.562 38.834 172.27 38.9964C171.982 39.1555 171.758 39.3793 171.599 39.6676C171.443 39.956 171.365 40.294 171.365 40.6818H170.192C170.192 40.0852 170.33 39.5616 170.605 39.1108C170.88 38.66 171.254 38.3087 171.728 38.0568C172.206 37.8049 172.741 37.679 173.334 37.679C173.931 37.679 174.459 37.8049 174.92 38.0568C175.381 38.3087 175.742 38.6484 176.004 39.076C176.266 39.5036 176.397 39.9792 176.397 40.5028C176.397 40.8774 176.329 41.2436 176.193 41.6016C176.06 41.9562 175.828 42.3523 175.497 42.7898C175.169 43.224 174.713 43.7543 174.13 44.3807L171.843 46.8267V46.9062H176.576V48H170.152ZM182.169 48.1392C181.513 48.1392 180.928 48.0265 180.414 47.8011C179.904 47.5758 179.498 47.2625 179.196 46.8615C178.898 46.4571 178.736 45.9882 178.709 45.4545H179.962C179.988 45.7827 180.101 46.0661 180.3 46.3047C180.499 46.54 180.759 46.7223 181.081 46.8516C181.402 46.9808 181.758 47.0455 182.149 47.0455C182.587 47.0455 182.975 46.9692 183.313 46.8168C183.651 46.6643 183.916 46.4522 184.108 46.1804C184.3 45.9086 184.397 45.5938 184.397 45.2358C184.397 44.8613 184.304 44.5315 184.118 44.2464C183.933 43.9581 183.661 43.7327 183.303 43.5703C182.945 43.4079 182.507 43.3267 181.99 43.3267H181.175V42.233H181.99C182.395 42.233 182.749 42.16 183.054 42.0142C183.363 41.8684 183.603 41.6629 183.775 41.3977C183.951 41.1326 184.039 40.821 184.039 40.4631C184.039 40.1184 183.962 39.8184 183.81 39.5632C183.657 39.308 183.442 39.1091 183.164 38.9666C182.889 38.8241 182.564 38.7528 182.189 38.7528C181.838 38.7528 181.506 38.8175 181.195 38.9467C180.887 39.0727 180.635 39.2566 180.439 39.4986C180.244 39.7372 180.138 40.0256 180.121 40.3636H178.928C178.948 39.83 179.108 39.3627 179.41 38.9616C179.712 38.5573 180.106 38.2424 180.593 38.017C181.084 37.7917 181.622 37.679 182.209 37.679C182.839 37.679 183.379 37.8066 183.83 38.0618C184.281 38.3137 184.627 38.6468 184.869 39.0611C185.111 39.4754 185.232 39.9228 185.232 40.4034C185.232 40.9768 185.081 41.4657 184.779 41.87C184.481 42.2744 184.075 42.5545 183.561 42.7102V42.7898C184.204 42.8958 184.706 43.1693 185.068 43.6101C185.429 44.0476 185.61 44.5895 185.61 45.2358C185.61 45.7893 185.459 46.2865 185.157 46.7273C184.859 47.1648 184.451 47.5095 183.934 47.7614C183.417 48.0133 182.829 48.1392 182.169 48.1392Z" fill="#696974"/>
</g>
<defs>
<clipPath id="clip0_35_388">
<rect width="300" height="305" fill="white"/>
</clipPath>
<clipPath id="clip1_35_388">
<rect width="308.547" height="14" fill="white" transform="translate(23.4533 94)"/>
</clipPath>
<clipPath id="clip2_35_388">
<rect width="317" height="14" fill="white" transform="translate(15 131)"/>
</clipPath>
<clipPath id="clip3_35_388">
<rect width="317" height="14" fill="white" transform="translate(15 168)"/>
</clipPath>
<clipPath id="clip4_35_388">
<rect width="317" height="14" fill="white" transform="translate(15 205)"/>
</clipPath>
<clipPath id="clip5_35_388">
<rect width="302.207" height="14" fill="white" transform="translate(29.7933 242)"/>
</clipPath>
<clipPath id="clip6_35_388">
<rect width="23" height="174" fill="white" transform="translate(177 116)"/>
</clipPath>
<clipPath id="clip7_35_388">
<rect width="25" height="154" fill="white" transform="translate(137 136)"/>
</clipPath>
<clipPath id="clip8_35_388">
<rect width="24" height="184" fill="white" transform="translate(98 106)"/>
</clipPath>
<clipPath id="clip9_35_388">
<rect width="24" height="195" fill="white" transform="translate(257 95)"/>
</clipPath>
<clipPath id="clip10_35_388">
<rect width="24" height="164" fill="white" transform="translate(59 126)"/>
</clipPath>
<clipPath id="clip11_35_388">
<rect width="115" height="24" fill="white" transform="translate(130 51)"/>
</clipPath>
</defs>
</svg>
