<svg width="350" height="305" viewBox="0 0 350 305" fill="none" xmlns="http://www.w3.org/2000/svg">
<g clip-path="url(#clip0_35_388)">
<rect x="1" y="1" width="348" height="303" rx="19" fill="white" stroke="#E9E6F7" stroke-width="2"/>
<mask id="mask0_35_388" style="mask-type:luminance" maskUnits="userSpaceOnUse" x="0" y="0" width="350" height="305">
<rect width="350" height="305" rx="20" fill="white"/>
</mask>
<g mask="url(#mask0_35_388)">
<g clip-path="url(#clip1_35_388)">
<rect x="64.3456" y="107" width="322.988" height="1" fill="#F1F1F5"/>
<path d="M35.5658 107.091V96.1818H36.2647V107.091H35.5658ZM37.9181 99.4545C37.8669 99.0227 37.6596 98.6875 37.2959 98.4489C36.9323 98.2102 36.4863 98.0909 35.9578 98.0909C35.5715 98.0909 35.2334 98.1534 34.9436 98.2784C34.6567 98.4034 34.4323 98.5753 34.2703 98.794C34.1113 99.0128 34.0317 99.2614 34.0317 99.5398C34.0317 99.7727 34.0871 99.973 34.1979 100.141C34.3115 100.305 34.4564 100.443 34.6326 100.554C34.8087 100.662 34.9934 100.751 35.1865 100.822C35.3797 100.891 35.5573 100.946 35.7192 100.989L36.6056 101.227C36.8328 101.287 37.0857 101.369 37.3641 101.474C37.6453 101.58 37.9138 101.723 38.1695 101.905C38.428 102.084 38.6411 102.314 38.8087 102.595C38.9763 102.876 39.0601 103.222 39.0601 103.631C39.0601 104.102 38.9365 104.528 38.6894 104.909C38.4451 105.29 38.0871 105.592 37.6155 105.817C37.1468 106.041 36.5772 106.153 35.9067 106.153C35.2817 106.153 34.7405 106.053 34.2831 105.851C33.8286 105.649 33.4706 105.368 33.2093 105.007C32.9507 104.646 32.8044 104.227 32.7703 103.75H33.8613C33.8897 104.08 34.0005 104.352 34.1936 104.568C34.3897 104.781 34.6368 104.94 34.9351 105.045C35.2363 105.148 35.5601 105.199 35.9067 105.199C36.3101 105.199 36.6723 105.134 36.9934 105.003C37.3144 104.869 37.5686 104.685 37.7561 104.449C37.9436 104.21 38.0374 103.932 38.0374 103.614C38.0374 103.324 37.9564 103.088 37.7945 102.906C37.6326 102.724 37.4195 102.577 37.1553 102.463C36.8911 102.349 36.6056 102.25 36.2988 102.165L35.2249 101.858C34.5431 101.662 34.0033 101.382 33.6056 101.018C33.2078 100.655 33.009 100.179 33.009 99.5909C33.009 99.1023 33.1411 98.6761 33.4053 98.3125C33.6723 97.946 34.0303 97.6619 34.4792 97.4602C34.9309 97.2557 35.4351 97.1534 35.9919 97.1534C36.5544 97.1534 37.0544 97.2543 37.4919 97.456C37.9294 97.6548 38.276 97.9276 38.5317 98.2741C38.7902 98.6207 38.9266 99.0142 38.9408 99.4545H37.9181ZM43.7982 97.2727V106H42.7414V98.3807H42.6902L40.5595 99.7955V98.7216L42.7414 97.2727H43.7982ZM47.3484 103.614L47.3313 102.369H47.5359L50.3995 99.4545H51.6438L48.5927 102.54H48.5075L47.3484 103.614ZM46.4109 106V97.2727H47.4166V106H46.4109ZM50.57 106L48.0132 102.761L48.7291 102.062L51.8484 106H50.57Z" fill="#92929D"/>
</g>
<g clip-path="url(#clip2_35_388)">
<rect x="64.3456" y="144" width="322.988" height="1" fill="#F1F1F5"/>
<path d="M26.0465 144.091V133.182H26.7454V144.091H26.0465ZM28.3988 136.455C28.3476 136.023 28.1403 135.688 27.7766 135.449C27.413 135.21 26.967 135.091 26.4386 135.091C26.0522 135.091 25.7141 135.153 25.4244 135.278C25.1374 135.403 24.913 135.575 24.7511 135.794C24.592 136.013 24.5124 136.261 24.5124 136.54C24.5124 136.773 24.5678 136.973 24.6786 137.141C24.7923 137.305 24.9371 137.443 25.1133 137.554C25.2894 137.662 25.4741 137.751 25.6673 137.822C25.8604 137.891 26.038 137.946 26.1999 137.989L27.0863 138.227C27.3136 138.287 27.5664 138.369 27.8448 138.474C28.1261 138.58 28.3945 138.723 28.6502 138.905C28.9087 139.084 29.1218 139.314 29.2894 139.595C29.457 139.876 29.5408 140.222 29.5408 140.631C29.5408 141.102 29.4173 141.528 29.1701 141.909C28.9258 142.29 28.5678 142.592 28.0962 142.817C27.6275 143.041 27.0579 143.153 26.3874 143.153C25.7624 143.153 25.2212 143.053 24.7638 142.851C24.3093 142.649 23.9513 142.368 23.69 142.007C23.4315 141.646 23.2851 141.227 23.2511 140.75H24.342C24.3704 141.08 24.4812 141.352 24.6744 141.568C24.8704 141.781 25.1175 141.94 25.4158 142.045C25.717 142.148 26.0408 142.199 26.3874 142.199C26.7908 142.199 27.153 142.134 27.4741 142.003C27.7951 141.869 28.0494 141.685 28.2369 141.449C28.4244 141.21 28.5181 140.932 28.5181 140.614C28.5181 140.324 28.4371 140.088 28.2752 139.906C28.1133 139.724 27.9002 139.577 27.636 139.463C27.3718 139.349 27.0863 139.25 26.7795 139.165L25.7056 138.858C25.0238 138.662 24.484 138.382 24.0863 138.018C23.6886 137.655 23.4897 137.179 23.4897 136.591C23.4897 136.102 23.6218 135.676 23.886 135.312C24.153 134.946 24.511 134.662 24.9599 134.46C25.4116 134.256 25.9158 134.153 26.4726 134.153C27.0351 134.153 27.5351 134.254 27.9726 134.456C28.4101 134.655 28.7567 134.928 29.0124 135.274C29.2709 135.621 29.4073 136.014 29.4215 136.455H28.3988ZM31.4834 143L35.3868 135.278V135.21H30.8868V134.273H36.4778V135.261L32.5914 143H31.4834ZM40.762 143.119C40.262 143.119 39.8117 143.02 39.4111 142.821C39.0106 142.622 38.6895 142.349 38.4481 142.003C38.2066 141.656 38.0745 141.261 38.0517 140.818H39.0745C39.1142 141.213 39.2932 141.54 39.6114 141.798C39.9324 142.054 40.316 142.182 40.762 142.182C41.1199 142.182 41.4381 142.098 41.7165 141.93C41.9978 141.763 42.2179 141.533 42.377 141.24C42.539 140.945 42.6199 140.611 42.6199 140.239C42.6199 139.858 42.5361 139.518 42.3685 139.22C42.2037 138.919 41.9765 138.682 41.6867 138.509C41.3969 138.335 41.066 138.247 40.6938 138.244C40.4267 138.241 40.1526 138.283 39.8713 138.368C39.5901 138.45 39.3586 138.557 39.1767 138.688L38.1881 138.568L38.7165 134.273H43.2506V135.21H39.6029L39.2961 137.784H39.3472C39.5262 137.642 39.7506 137.524 40.0205 137.43C40.2904 137.337 40.5716 137.29 40.8642 137.29C41.3983 137.29 41.8742 137.418 42.2918 137.673C42.7123 137.926 43.0418 138.273 43.2804 138.713C43.5219 139.153 43.6427 139.656 43.6427 140.222C43.6427 140.778 43.5177 141.276 43.2677 141.713C43.0205 142.148 42.6796 142.491 42.2449 142.744C41.8103 142.994 41.316 143.119 40.762 143.119ZM48.2678 143.119C47.6257 143.119 47.0789 142.945 46.6272 142.595C46.1755 142.243 45.8303 141.733 45.5917 141.065C45.353 140.395 45.2337 139.585 45.2337 138.636C45.2337 137.693 45.353 136.888 45.5917 136.22C45.8331 135.55 46.1797 135.038 46.6314 134.686C47.086 134.331 47.6314 134.153 48.2678 134.153C48.9042 134.153 49.4482 134.331 49.8999 134.686C50.3544 135.038 50.701 135.55 50.9397 136.22C51.1811 136.888 51.3019 137.693 51.3019 138.636C51.3019 139.585 51.1826 140.395 50.9439 141.065C50.7053 141.733 50.3601 142.243 49.9084 142.595C49.4567 142.945 48.9098 143.119 48.2678 143.119ZM48.2678 142.182C48.9042 142.182 49.3985 141.875 49.7507 141.261C50.103 140.648 50.2792 139.773 50.2792 138.636C50.2792 137.881 50.1982 137.237 50.0363 136.706C49.8772 136.175 49.647 135.77 49.3459 135.491C49.0476 135.213 48.6882 135.074 48.2678 135.074C47.6371 135.074 47.1442 135.385 46.7891 136.007C46.434 136.626 46.2564 137.503 46.2564 138.636C46.2564 139.392 46.336 140.034 46.4951 140.562C46.6542 141.091 46.8828 141.493 47.1811 141.768C47.4823 142.044 47.8445 142.182 48.2678 142.182Z" fill="#92929D"/>
</g>
<g clip-path="url(#clip3_35_388)">
<path d="M25.2848 181.091V170.182H25.9836V181.091H25.2848ZM27.6371 173.455C27.5859 173.023 27.3785 172.688 27.0149 172.449C26.6513 172.21 26.2052 172.091 25.6768 172.091C25.2905 172.091 24.9524 172.153 24.6626 172.278C24.3757 172.403 24.1513 172.575 23.9893 172.794C23.8302 173.013 23.7507 173.261 23.7507 173.54C23.7507 173.773 23.8061 173.973 23.9169 174.141C24.0305 174.305 24.1754 174.443 24.3515 174.554C24.5277 174.662 24.7123 174.751 24.9055 174.822C25.0987 174.891 25.2763 174.946 25.4382 174.989L26.3246 175.227C26.5518 175.287 26.8047 175.369 27.0831 175.474C27.3643 175.58 27.6328 175.723 27.8885 175.905C28.147 176.084 28.3601 176.314 28.5277 176.595C28.6953 176.876 28.7791 177.222 28.7791 177.631C28.7791 178.102 28.6555 178.528 28.4084 178.909C28.164 179.29 27.8061 179.592 27.3345 179.817C26.8658 180.041 26.2961 180.153 25.6257 180.153C25.0007 180.153 24.4595 180.053 24.0021 179.851C23.5476 179.649 23.1896 179.368 22.9283 179.007C22.6697 178.646 22.5234 178.227 22.4893 177.75H23.5802C23.6086 178.08 23.7194 178.352 23.9126 178.568C24.1086 178.781 24.3558 178.94 24.6541 179.045C24.9552 179.148 25.2791 179.199 25.6257 179.199C26.0291 179.199 26.3913 179.134 26.7123 179.003C27.0334 178.869 27.2876 178.685 27.4751 178.449C27.6626 178.21 27.7564 177.932 27.7564 177.614C27.7564 177.324 27.6754 177.088 27.5135 176.906C27.3515 176.724 27.1385 176.577 26.8743 176.463C26.6101 176.349 26.3246 176.25 26.0177 176.165L24.9439 175.858C24.2621 175.662 23.7223 175.382 23.3246 175.018C22.9268 174.655 22.728 174.179 22.728 173.591C22.728 173.102 22.8601 172.676 23.1243 172.312C23.3913 171.946 23.7493 171.662 24.1981 171.46C24.6498 171.256 25.1541 171.153 25.7109 171.153C26.2734 171.153 26.7734 171.254 27.2109 171.456C27.6484 171.655 27.995 171.928 28.2507 172.274C28.5092 172.621 28.6456 173.014 28.6598 173.455H27.6371ZM33.1763 180.119C32.6763 180.119 32.226 180.02 31.8254 179.821C31.4248 179.622 31.1038 179.349 30.8623 179.003C30.6209 178.656 30.4888 178.261 30.466 177.818H31.4888C31.5285 178.213 31.7075 178.54 32.0257 178.798C32.3467 179.054 32.7302 179.182 33.1763 179.182C33.5342 179.182 33.8524 179.098 34.1308 178.93C34.412 178.763 34.6322 178.533 34.7913 178.24C34.9532 177.945 35.0342 177.611 35.0342 177.239C35.0342 176.858 34.9504 176.518 34.7828 176.22C34.618 175.919 34.3907 175.682 34.101 175.509C33.8112 175.335 33.4802 175.247 33.1081 175.244C32.841 175.241 32.5669 175.283 32.2856 175.368C32.0044 175.45 31.7728 175.557 31.591 175.688L30.6024 175.568L31.1308 171.273H35.6649V172.21H32.0172L31.7103 174.784H31.7615C31.9405 174.642 32.1649 174.524 32.4348 174.43C32.7047 174.337 32.9859 174.29 33.2785 174.29C33.8126 174.29 34.2885 174.418 34.7061 174.673C35.1265 174.926 35.4561 175.273 35.6947 175.713C35.9362 176.153 36.0569 176.656 36.0569 177.222C36.0569 177.778 35.9319 178.276 35.6819 178.713C35.4348 179.148 35.0939 179.491 34.6592 179.744C34.2245 179.994 33.7302 180.119 33.1763 180.119ZM40.6821 180.119C40.04 180.119 39.4931 179.945 39.0414 179.595C38.5897 179.243 38.2446 178.733 38.0059 178.065C37.7673 177.395 37.648 176.585 37.648 175.636C37.648 174.693 37.7673 173.888 38.0059 173.22C38.2474 172.55 38.594 172.038 39.0457 171.686C39.5002 171.331 40.0457 171.153 40.6821 171.153C41.3184 171.153 41.8625 171.331 42.3142 171.686C42.7687 172.038 43.1153 172.55 43.3539 173.22C43.5954 173.888 43.7162 174.693 43.7162 175.636C43.7162 176.585 43.5968 177.395 43.3582 178.065C43.1196 178.733 42.7744 179.243 42.3227 179.595C41.871 179.945 41.3241 180.119 40.6821 180.119ZM40.6821 179.182C41.3184 179.182 41.8127 178.875 42.165 178.261C42.5173 177.648 42.6934 176.773 42.6934 175.636C42.6934 174.881 42.6125 174.237 42.4505 173.706C42.2914 173.175 42.0613 172.77 41.7602 172.491C41.4619 172.213 41.1025 172.074 40.6821 172.074C40.0514 172.074 39.5585 172.385 39.2034 173.007C38.8483 173.626 38.6707 174.503 38.6707 175.636C38.6707 176.392 38.7502 177.034 38.9093 177.562C39.0684 178.091 39.2971 178.493 39.5954 178.768C39.8966 179.044 40.2588 179.182 40.6821 179.182ZM48.2678 180.119C47.6257 180.119 47.0789 179.945 46.6272 179.595C46.1755 179.243 45.8303 178.733 45.5916 178.065C45.353 177.395 45.2337 176.585 45.2337 175.636C45.2337 174.693 45.353 173.888 45.5916 173.22C45.8331 172.55 46.1797 172.038 46.6314 171.686C47.086 171.331 47.6314 171.153 48.2678 171.153C48.9041 171.153 49.4482 171.331 49.8999 171.686C50.3544 172.038 50.701 172.55 50.9397 173.22C51.1811 173.888 51.3019 174.693 51.3019 175.636C51.3019 176.585 51.1826 177.395 50.9439 178.065C50.7053 178.733 50.3601 179.243 49.9084 179.595C49.4567 179.945 48.9098 180.119 48.2678 180.119ZM48.2678 179.182C48.9041 179.182 49.3985 178.875 49.7507 178.261C50.103 177.648 50.2791 176.773 50.2791 175.636C50.2791 174.881 50.1982 174.237 50.0362 173.706C49.8772 173.175 49.647 172.77 49.3459 172.491C49.0476 172.213 48.6882 172.074 48.2678 172.074C47.6371 172.074 47.1442 172.385 46.7891 173.007C46.434 173.626 46.2564 174.503 46.2564 175.636C46.2564 176.392 46.336 177.034 46.4951 177.562C46.6541 178.091 46.8828 178.493 47.1811 178.768C47.4823 179.044 47.8445 179.182 48.2678 179.182Z" fill="#92929D"/>
<rect x="64.3456" y="181" width="322.988" height="1" fill="#F1F1F5"/>
</g>
<g clip-path="url(#clip4_35_388)">
<path d="M25.5192 218.091V207.182H26.218V218.091H25.5192ZM27.8714 210.455C27.8203 210.023 27.6129 209.688 27.2493 209.449C26.8856 209.21 26.4396 209.091 25.9112 209.091C25.5248 209.091 25.1868 209.153 24.897 209.278C24.6101 209.403 24.3856 209.575 24.2237 209.794C24.0646 210.013 23.9851 210.261 23.9851 210.54C23.9851 210.773 24.0405 210.973 24.1513 211.141C24.2649 211.305 24.4098 211.443 24.5859 211.554C24.7621 211.662 24.9467 211.751 25.1399 211.822C25.3331 211.891 25.5106 211.946 25.6726 211.989L26.5589 212.227C26.7862 212.287 27.0391 212.369 27.3175 212.474C27.5987 212.58 27.8672 212.723 28.1229 212.905C28.3814 213.084 28.5945 213.314 28.7621 213.595C28.9297 213.876 29.0135 214.222 29.0135 214.631C29.0135 215.102 28.8899 215.528 28.6427 215.909C28.3984 216.29 28.0405 216.592 27.5689 216.817C27.1001 217.041 26.5305 217.153 25.8601 217.153C25.2351 217.153 24.6939 217.053 24.2365 216.851C23.782 216.649 23.424 216.368 23.1626 216.007C22.9041 215.646 22.7578 215.227 22.7237 214.75H23.8146C23.843 215.08 23.9538 215.352 24.147 215.568C24.343 215.781 24.5902 215.94 24.8885 216.045C25.1896 216.148 25.5135 216.199 25.8601 216.199C26.2635 216.199 26.6257 216.134 26.9467 216.003C27.2677 215.869 27.522 215.685 27.7095 215.449C27.897 215.21 27.9908 214.932 27.9908 214.614C27.9908 214.324 27.9098 214.088 27.7479 213.906C27.5859 213.724 27.3729 213.577 27.1087 213.463C26.8445 213.349 26.5589 213.25 26.2521 213.165L25.1783 212.858C24.4964 212.662 23.9567 212.382 23.5589 212.018C23.1612 211.655 22.9623 211.179 22.9623 210.591C22.9623 210.102 23.0945 209.676 23.3587 209.312C23.6257 208.946 23.9837 208.662 24.4325 208.46C24.8842 208.256 25.3885 208.153 25.9453 208.153C26.5078 208.153 27.0078 208.254 27.4453 208.456C27.8828 208.655 28.2294 208.928 28.4851 209.274C28.7436 209.621 28.88 210.014 28.8942 210.455H27.8714ZM30.6834 217V216.233L33.564 213.08C33.9021 212.71 34.1805 212.389 34.3993 212.116C34.618 211.841 34.78 211.582 34.8851 211.341C34.993 211.097 35.047 210.841 35.047 210.574C35.047 210.267 34.9731 210.001 34.8254 209.777C34.6805 209.553 34.4817 209.379 34.2288 209.257C33.976 209.135 33.6919 209.074 33.3765 209.074C33.0413 209.074 32.7487 209.143 32.4987 209.283C32.2515 209.419 32.0598 209.611 31.9234 209.858C31.7899 210.105 31.7231 210.395 31.7231 210.727H30.7175C30.7175 210.216 30.8354 209.767 31.0711 209.381C31.3069 208.994 31.628 208.693 32.0342 208.477C32.4433 208.261 32.9021 208.153 33.4106 208.153C33.922 208.153 34.3751 208.261 34.77 208.477C35.1649 208.693 35.4746 208.984 35.699 209.351C35.9234 209.717 36.0356 210.125 36.0356 210.574C36.0356 210.895 35.9774 211.209 35.8609 211.516C35.7473 211.82 35.5484 212.159 35.2643 212.534C34.9831 212.906 34.5925 213.361 34.0925 213.898L32.1322 215.994V216.062H36.189V217H30.6834ZM40.762 217.119C40.262 217.119 39.8117 217.02 39.4111 216.821C39.0106 216.622 38.6895 216.349 38.4481 216.003C38.2066 215.656 38.0745 215.261 38.0517 214.818H39.0745C39.1142 215.213 39.2932 215.54 39.6114 215.798C39.9324 216.054 40.316 216.182 40.762 216.182C41.1199 216.182 41.4381 216.098 41.7165 215.93C41.9978 215.763 42.2179 215.533 42.377 215.24C42.539 214.945 42.6199 214.611 42.6199 214.239C42.6199 213.858 42.5361 213.518 42.3685 213.22C42.2037 212.919 41.9765 212.682 41.6867 212.509C41.3969 212.335 41.066 212.247 40.6938 212.244C40.4267 212.241 40.1526 212.283 39.8713 212.368C39.5901 212.45 39.3586 212.557 39.1767 212.688L38.1881 212.568L38.7165 208.273H43.2506V209.21H39.6029L39.2961 211.784H39.3472C39.5262 211.642 39.7506 211.524 40.0205 211.43C40.2904 211.337 40.5716 211.29 40.8642 211.29C41.3983 211.29 41.8742 211.418 42.2918 211.673C42.7123 211.926 43.0418 212.273 43.2804 212.713C43.5219 213.153 43.6427 213.656 43.6427 214.222C43.6427 214.778 43.5177 215.276 43.2677 215.713C43.0205 216.148 42.6796 216.491 42.2449 216.744C41.8103 216.994 41.316 217.119 40.762 217.119ZM48.2678 217.119C47.6257 217.119 47.0789 216.945 46.6272 216.595C46.1755 216.243 45.8303 215.733 45.5917 215.065C45.353 214.395 45.2337 213.585 45.2337 212.636C45.2337 211.693 45.353 210.888 45.5917 210.22C45.8331 209.55 46.1797 209.038 46.6314 208.686C47.086 208.331 47.6314 208.153 48.2678 208.153C48.9042 208.153 49.4482 208.331 49.8999 208.686C50.3544 209.038 50.701 209.55 50.9397 210.22C51.1811 210.888 51.3019 211.693 51.3019 212.636C51.3019 213.585 51.1826 214.395 50.9439 215.065C50.7053 215.733 50.3601 216.243 49.9084 216.595C49.4567 216.945 48.9098 217.119 48.2678 217.119ZM48.2678 216.182C48.9042 216.182 49.3985 215.875 49.7507 215.261C50.103 214.648 50.2792 213.773 50.2792 212.636C50.2792 211.881 50.1982 211.237 50.0363 210.706C49.8772 210.175 49.647 209.77 49.3459 209.491C49.0476 209.213 48.6882 209.074 48.2678 209.074C47.6371 209.074 47.1442 209.385 46.7891 210.007C46.434 210.626 46.2564 211.503 46.2564 212.636C46.2564 213.392 46.336 214.034 46.4951 214.562C46.6542 215.091 46.8828 215.493 47.1811 215.768C47.4823 216.044 47.8445 216.182 48.2678 216.182Z" fill="#92929D"/>
<rect x="64.3456" y="218" width="322.988" height="1" fill="#F1F1F5"/>
</g>
<g clip-path="url(#clip5_35_388)">
<path d="M40.257 255.091V244.182H40.9559V255.091H40.257ZM42.6093 247.455C42.5581 247.023 42.3507 246.688 41.9871 246.449C41.6235 246.21 41.1774 246.091 40.649 246.091C40.2627 246.091 39.9246 246.153 39.6348 246.278C39.3479 246.403 39.1235 246.575 38.9615 246.794C38.8024 247.013 38.7229 247.261 38.7229 247.54C38.7229 247.773 38.7783 247.973 38.8891 248.141C39.0027 248.305 39.1476 248.443 39.3238 248.554C39.4999 248.662 39.6845 248.751 39.8777 248.822C40.0709 248.891 40.2485 248.946 40.4104 248.989L41.2968 249.227C41.524 249.287 41.7769 249.369 42.0553 249.474C42.3365 249.58 42.605 249.723 42.8607 249.905C43.1192 250.084 43.3323 250.314 43.4999 250.595C43.6675 250.876 43.7513 251.222 43.7513 251.631C43.7513 252.102 43.6277 252.528 43.3806 252.909C43.1363 253.29 42.7783 253.592 42.3067 253.817C41.838 254.041 41.2684 254.153 40.5979 254.153C39.9729 254.153 39.4317 254.053 38.9743 253.851C38.5198 253.649 38.1618 253.368 37.9005 253.007C37.6419 252.646 37.4956 252.227 37.4615 251.75H38.5524C38.5809 252.08 38.6917 252.352 38.8848 252.568C39.0809 252.781 39.328 252.94 39.6263 253.045C39.9274 253.148 40.2513 253.199 40.5979 253.199C41.0013 253.199 41.3635 253.134 41.6846 253.003C42.0056 252.869 42.2598 252.685 42.4473 252.449C42.6348 252.21 42.7286 251.932 42.7286 251.614C42.7286 251.324 42.6476 251.088 42.4857 250.906C42.3238 250.724 42.1107 250.577 41.8465 250.463C41.5823 250.349 41.2968 250.25 40.9899 250.165L39.9161 249.858C39.2343 249.662 38.6945 249.382 38.2968 249.018C37.899 248.655 37.7002 248.179 37.7002 247.591C37.7002 247.102 37.8323 246.676 38.0965 246.312C38.3635 245.946 38.7215 245.662 39.1703 245.46C39.622 245.256 40.1263 245.153 40.6831 245.153C41.2456 245.153 41.7456 245.254 42.1831 245.456C42.6206 245.655 42.9672 245.928 43.2229 246.274C43.4814 246.621 43.6178 247.014 43.632 247.455H42.6093ZM48.2678 254.119C47.6257 254.119 47.0789 253.945 46.6272 253.595C46.1754 253.243 45.8303 252.733 45.5916 252.065C45.353 251.395 45.2337 250.585 45.2337 249.636C45.2337 248.693 45.353 247.888 45.5916 247.22C45.8331 246.55 46.1797 246.038 46.6314 245.686C47.086 245.331 47.6314 245.153 48.2678 245.153C48.9041 245.153 49.4482 245.331 49.8999 245.686C50.3544 246.038 50.701 246.55 50.9397 247.22C51.1811 247.888 51.3019 248.693 51.3019 249.636C51.3019 250.585 51.1826 251.395 50.9439 252.065C50.7053 252.733 50.3601 253.243 49.9084 253.595C49.4567 253.945 48.9098 254.119 48.2678 254.119ZM48.2678 253.182C48.9041 253.182 49.3985 252.875 49.7507 252.261C50.103 251.648 50.2791 250.773 50.2791 249.636C50.2791 248.881 50.1982 248.237 50.0362 247.706C49.8772 247.175 49.647 246.77 49.3459 246.491C49.0476 246.213 48.6882 246.074 48.2678 246.074C47.6371 246.074 47.1442 246.385 46.7891 247.007C46.434 247.626 46.2564 248.503 46.2564 249.636C46.2564 250.392 46.336 251.034 46.4951 251.562C46.6541 252.091 46.8828 252.493 47.1811 252.768C47.4823 253.044 47.8445 253.182 48.2678 253.182Z" fill="#92929D"/>
<rect x="64.3456" y="255" width="322.988" height="1" fill="#F1F1F5"/>
</g>
<path d="M255.3 272.818H256.772L260.232 281.27H260.351L263.811 272.818H265.283V283H264.13V275.264H264.03L260.848 283H259.735L256.553 275.264H256.453V283H255.3V272.818ZM269.943 283.179C269.459 283.179 269.02 283.088 268.626 282.906C268.231 282.72 267.918 282.453 267.686 282.105C267.454 281.754 267.338 281.33 267.338 280.832C267.338 280.395 267.424 280.04 267.597 279.768C267.769 279.493 267.999 279.278 268.288 279.122C268.576 278.966 268.894 278.85 269.242 278.774C269.593 278.695 269.946 278.632 270.301 278.585C270.765 278.526 271.141 278.481 271.43 278.451C271.721 278.418 271.933 278.363 272.066 278.287C272.202 278.211 272.27 278.078 272.27 277.889V277.849C272.27 277.359 272.136 276.978 271.867 276.706C271.602 276.434 271.199 276.298 270.659 276.298C270.099 276.298 269.66 276.421 269.342 276.666C269.023 276.911 268.8 277.173 268.67 277.452L267.557 277.054C267.756 276.59 268.021 276.229 268.352 275.97C268.687 275.708 269.052 275.526 269.446 275.423C269.844 275.317 270.235 275.264 270.619 275.264C270.865 275.264 271.146 275.294 271.464 275.354C271.786 275.41 272.096 275.528 272.394 275.707C272.696 275.886 272.946 276.156 273.145 276.517C273.344 276.878 273.443 277.362 273.443 277.969V283H272.27V281.966H272.21C272.131 282.132 271.998 282.309 271.812 282.498C271.627 282.687 271.38 282.848 271.072 282.98C270.763 283.113 270.387 283.179 269.943 283.179ZM270.122 282.125C270.586 282.125 270.977 282.034 271.295 281.852C271.617 281.669 271.859 281.434 272.021 281.146C272.187 280.857 272.27 280.554 272.27 280.236V279.162C272.22 279.222 272.111 279.276 271.942 279.326C271.776 279.372 271.584 279.414 271.365 279.45C271.15 279.483 270.939 279.513 270.734 279.54C270.531 279.563 270.367 279.583 270.241 279.599C269.936 279.639 269.651 279.704 269.386 279.793C269.124 279.879 268.912 280.01 268.75 280.186C268.591 280.358 268.511 280.594 268.511 280.892C268.511 281.3 268.662 281.608 268.964 281.817C269.269 282.022 269.655 282.125 270.122 282.125ZM275.685 283V275.364H276.858V283H275.685ZM276.281 274.091C276.053 274.091 275.855 274.013 275.69 273.857C275.527 273.701 275.446 273.514 275.446 273.295C275.446 273.077 275.527 272.889 275.69 272.734C275.855 272.578 276.053 272.5 276.281 272.5C276.51 272.5 276.705 272.578 276.868 272.734C277.034 272.889 277.116 273.077 277.116 273.295C277.116 273.514 277.034 273.701 276.868 273.857C276.705 274.013 276.51 274.091 276.281 274.091Z" fill="#92929D"/>
<path fill-rule="evenodd" clip-rule="evenodd" d="M269.593 256V98.9905C269.593 96.7866 271.379 95 273.583 95V95C275.787 95 277.574 96.7866 277.574 98.9905V256H269.593Z" fill="#0062FF"/>
<path fill-rule="evenodd" clip-rule="evenodd" d="M256.759 256V149.991C256.759 147.787 258.546 146 260.75 146V146C262.954 146 264.741 147.787 264.741 149.991V256H256.759Z" fill="#3DD598"/>
<g clip-path="url(#clip6_35_388)">
<path d="M209.201 283H207.909L211.647 272.818H212.92L216.659 283H215.366L212.323 274.429H212.244L209.201 283ZM209.679 279.023H214.889V280.116H209.679V279.023ZM218.345 283V272.818H219.518V276.577H219.617C219.704 276.444 219.823 276.275 219.975 276.07C220.131 275.861 220.353 275.675 220.641 275.513C220.933 275.347 221.328 275.264 221.825 275.264C222.468 275.264 223.034 275.425 223.525 275.746C224.016 276.068 224.398 276.524 224.673 277.114C224.949 277.704 225.086 278.4 225.086 279.202C225.086 280.01 224.949 280.711 224.673 281.305C224.398 281.895 224.017 282.352 223.53 282.677C223.043 282.998 222.481 283.159 221.845 283.159C221.354 283.159 220.961 283.078 220.666 282.915C220.371 282.75 220.144 282.562 219.985 282.354C219.826 282.142 219.704 281.966 219.617 281.827H219.478V283H218.345ZM219.498 279.182C219.498 279.759 219.583 280.267 219.752 280.708C219.921 281.146 220.168 281.489 220.492 281.737C220.817 281.982 221.215 282.105 221.686 282.105C222.176 282.105 222.585 281.976 222.914 281.717C223.245 281.455 223.494 281.104 223.659 280.663C223.828 280.219 223.913 279.725 223.913 279.182C223.913 278.645 223.83 278.161 223.664 277.73C223.502 277.296 223.255 276.953 222.923 276.701C222.595 276.446 222.183 276.318 221.686 276.318C221.208 276.318 220.807 276.439 220.482 276.681C220.158 276.92 219.912 277.254 219.747 277.685C219.581 278.113 219.498 278.612 219.498 279.182ZM226.981 283V275.364H228.114V276.517H228.194C228.333 276.139 228.585 275.833 228.95 275.597C229.314 275.362 229.725 275.244 230.183 275.244C230.269 275.244 230.376 275.246 230.506 275.249C230.635 275.253 230.733 275.258 230.799 275.264V276.457C230.759 276.447 230.668 276.433 230.526 276.413C230.386 276.389 230.239 276.378 230.083 276.378C229.712 276.378 229.38 276.456 229.089 276.612C228.8 276.764 228.572 276.976 228.403 277.248C228.237 277.516 228.154 277.823 228.154 278.168V283H226.981Z" fill="#92929D"/>
<path fill-rule="evenodd" clip-rule="evenodd" d="M221.759 256V119.991C221.759 117.787 223.546 116 225.75 116V116C227.954 116 229.741 117.787 229.741 119.991V256H221.759Z" fill="#0062FF"/>
<path fill-rule="evenodd" clip-rule="evenodd" d="M208.926 256V179.991C208.926 177.787 210.713 176 212.917 176V176C215.121 176 216.907 177.787 216.907 179.991V256H208.926Z" fill="#3DD598"/>
</g>
<g clip-path="url(#clip7_35_388)">
<path d="M162.19 272.818H163.662L167.122 281.27H167.241L170.701 272.818H172.173V283H171.019V275.264H170.92L167.738 283H166.625L163.443 275.264H163.343V283H162.19V272.818ZM176.833 283.179C176.349 283.179 175.91 283.088 175.516 282.906C175.121 282.72 174.808 282.453 174.576 282.105C174.344 281.754 174.228 281.33 174.228 280.832C174.228 280.395 174.314 280.04 174.486 279.768C174.659 279.493 174.889 279.278 175.178 279.122C175.466 278.966 175.784 278.85 176.132 278.774C176.483 278.695 176.836 278.632 177.191 278.585C177.655 278.526 178.031 278.481 178.32 278.451C178.611 278.418 178.823 278.363 178.956 278.287C179.092 278.211 179.16 278.078 179.16 277.889V277.849C179.16 277.359 179.026 276.978 178.757 276.706C178.492 276.434 178.089 276.298 177.549 276.298C176.989 276.298 176.55 276.421 176.232 276.666C175.913 276.911 175.69 277.173 175.56 277.452L174.447 277.054C174.646 276.59 174.911 276.229 175.242 275.97C175.577 275.708 175.941 275.526 176.336 275.423C176.734 275.317 177.125 275.264 177.509 275.264C177.754 275.264 178.036 275.294 178.354 275.354C178.676 275.41 178.986 275.528 179.284 275.707C179.586 275.886 179.836 276.156 180.035 276.517C180.234 276.878 180.333 277.362 180.333 277.969V283H179.16V281.966H179.1C179.021 282.132 178.888 282.309 178.702 282.498C178.517 282.687 178.27 282.848 177.962 282.98C177.653 283.113 177.277 283.179 176.833 283.179ZM177.012 282.125C177.476 282.125 177.867 282.034 178.185 281.852C178.507 281.669 178.749 281.434 178.911 281.146C179.077 280.857 179.16 280.554 179.16 280.236V279.162C179.11 279.222 179.001 279.276 178.832 279.326C178.666 279.372 178.474 279.414 178.255 279.45C178.04 279.483 177.829 279.513 177.624 279.54C177.421 279.563 177.257 279.583 177.131 279.599C176.826 279.639 176.541 279.704 176.276 279.793C176.014 279.879 175.802 280.01 175.64 280.186C175.481 280.358 175.401 280.594 175.401 280.892C175.401 281.3 175.552 281.608 175.854 281.817C176.159 282.022 176.545 282.125 177.012 282.125ZM182.575 283V275.364H183.708V276.517H183.788C183.927 276.139 184.179 275.833 184.543 275.597C184.908 275.362 185.319 275.244 185.776 275.244C185.862 275.244 185.97 275.246 186.099 275.249C186.229 275.253 186.326 275.258 186.393 275.264V276.457C186.353 276.447 186.262 276.433 186.119 276.413C185.98 276.389 185.833 276.378 185.677 276.378C185.306 276.378 184.974 276.456 184.683 276.612C184.394 276.764 184.165 276.976 183.996 277.248C183.831 277.516 183.748 277.823 183.748 278.168V283H182.575Z" fill="#92929D"/>
<path fill-rule="evenodd" clip-rule="evenodd" d="M176.259 256V139.991C176.259 137.787 178.046 136 180.25 136V136C182.454 136 184.241 137.787 184.241 139.991V256H176.259Z" fill="#0062FF"/>
<path fill-rule="evenodd" clip-rule="evenodd" d="M163.426 256V169.991C163.426 167.787 165.213 166 167.417 166V166C169.621 166 171.407 167.787 171.407 169.991V256H163.426Z" fill="#3DD598"/>
</g>
<g clip-path="url(#clip8_35_388)">
<path d="M117.784 283V272.818H123.889V273.912H119.017V277.352H123.431V278.446H119.017V283H117.784ZM128.583 283.159C127.847 283.159 127.212 282.997 126.678 282.672C126.148 282.344 125.739 281.886 125.45 281.3C125.165 280.71 125.023 280.024 125.023 279.241C125.023 278.459 125.165 277.77 125.45 277.173C125.739 276.573 126.14 276.106 126.654 275.771C127.171 275.433 127.774 275.264 128.463 275.264C128.861 275.264 129.254 275.33 129.641 275.463C130.029 275.596 130.382 275.811 130.7 276.109C131.019 276.404 131.272 276.795 131.461 277.283C131.65 277.77 131.744 278.37 131.744 279.082V279.58H125.858V278.565H130.551C130.551 278.134 130.465 277.75 130.293 277.412C130.124 277.074 129.882 276.807 129.567 276.612C129.255 276.416 128.887 276.318 128.463 276.318C127.996 276.318 127.592 276.434 127.25 276.666C126.912 276.895 126.652 277.193 126.47 277.561C126.287 277.929 126.196 278.323 126.196 278.744V279.42C126.196 279.997 126.296 280.486 126.494 280.887C126.697 281.285 126.977 281.588 127.335 281.797C127.693 282.002 128.109 282.105 128.583 282.105C128.891 282.105 129.169 282.062 129.418 281.976C129.67 281.886 129.887 281.754 130.069 281.578C130.251 281.399 130.392 281.177 130.492 280.912L131.625 281.23C131.506 281.615 131.305 281.953 131.024 282.244C130.742 282.533 130.394 282.758 129.98 282.92C129.565 283.08 129.1 283.159 128.583 283.159ZM139.641 275.364L136.817 283H135.624L132.8 275.364H134.073L136.181 281.449H136.26L138.368 275.364H139.641Z" fill="#92929D"/>
<path fill-rule="evenodd" clip-rule="evenodd" d="M130.759 256V109.991C130.759 107.787 132.546 106 134.75 106V106C136.954 106 138.741 107.787 138.741 109.991V256H130.759Z" fill="#0062FF"/>
<path fill-rule="evenodd" clip-rule="evenodd" d="M117.926 256V129.991C117.926 127.787 119.713 126 121.917 126V126C124.121 126 125.907 127.787 125.907 129.991V256H117.926Z" fill="#3DD598"/>
</g>
<g clip-path="url(#clip9_35_388)">
<path d="M307.484 272.818H308.717V280.097C308.717 280.746 308.598 281.298 308.359 281.752C308.121 282.206 307.784 282.551 307.35 282.786C306.916 283.022 306.404 283.139 305.814 283.139C305.257 283.139 304.762 283.038 304.328 282.836C303.893 282.63 303.552 282.339 303.303 281.961C303.055 281.583 302.93 281.134 302.93 280.614H304.144C304.144 280.902 304.215 281.154 304.357 281.369C304.503 281.581 304.702 281.747 304.954 281.866C305.206 281.986 305.493 282.045 305.814 282.045C306.169 282.045 306.47 281.971 306.719 281.822C306.967 281.673 307.156 281.454 307.286 281.165C307.418 280.874 307.484 280.518 307.484 280.097V272.818ZM315.942 279.878V275.364H317.115V283H315.942V281.707H315.862C315.683 282.095 315.405 282.425 315.027 282.697C314.649 282.965 314.172 283.099 313.595 283.099C313.118 283.099 312.694 282.995 312.322 282.786C311.951 282.574 311.66 282.256 311.447 281.832C311.235 281.404 311.129 280.866 311.129 280.216V275.364H312.303V280.136C312.303 280.693 312.458 281.137 312.77 281.469C313.085 281.8 313.486 281.966 313.973 281.966C314.265 281.966 314.561 281.891 314.863 281.742C315.168 281.593 315.423 281.364 315.629 281.056C315.837 280.748 315.942 280.355 315.942 279.878ZM320.537 278.406V283H319.364V275.364H320.497V276.557H320.597C320.776 276.169 321.048 275.857 321.412 275.622C321.777 275.384 322.248 275.264 322.824 275.264C323.341 275.264 323.794 275.37 324.181 275.582C324.569 275.791 324.871 276.109 325.086 276.537C325.302 276.961 325.409 277.498 325.409 278.148V283H324.236V278.227C324.236 277.627 324.08 277.16 323.769 276.825C323.457 276.487 323.03 276.318 322.486 276.318C322.112 276.318 321.777 276.399 321.482 276.562C321.19 276.724 320.96 276.961 320.791 277.273C320.622 277.584 320.537 277.962 320.537 278.406Z" fill="#92929D"/>
<path fill-rule="evenodd" clip-rule="evenodd" d="M316.167 256L316.167 99.0833C316.167 96.8282 317.995 95 320.25 95V95C322.505 95 324.333 96.8282 324.333 99.0833V256H316.167Z" fill="#0062FF"/>
<path fill-rule="evenodd" clip-rule="evenodd" d="M303.333 256L303.333 180.083C303.333 177.828 305.162 176 307.417 176V176C309.672 176 311.5 177.828 311.5 180.083V256H303.333Z" fill="#3DD598"/>
</g>
<g clip-path="url(#clip10_35_388)">
<path d="M76.0242 272.818H77.2571V280.097C77.2571 280.746 77.1378 281.298 76.8992 281.752C76.6605 282.206 76.3241 282.551 75.8899 282.786C75.4558 283.022 74.9437 283.139 74.3537 283.139C73.7969 283.139 73.3014 283.038 72.8672 282.836C72.433 282.63 72.0917 282.339 71.8431 281.961C71.5945 281.583 71.4702 281.134 71.4702 280.614H72.6833C72.6833 280.902 72.7545 281.154 72.8971 281.369C73.0429 281.581 73.2417 281.747 73.4936 281.866C73.7455 281.986 74.0322 282.045 74.3537 282.045C74.7084 282.045 75.01 281.971 75.2586 281.822C75.5071 281.673 75.6961 281.454 75.8253 281.165C75.9579 280.874 76.0242 280.518 76.0242 280.097V272.818ZM81.9161 283.179C81.4322 283.179 80.993 283.088 80.5986 282.906C80.2042 282.72 79.891 282.453 79.659 282.105C79.427 281.754 79.311 281.33 79.311 280.832C79.311 280.395 79.3971 280.04 79.5695 279.768C79.7418 279.493 79.9722 279.278 80.2605 279.122C80.5489 278.966 80.8671 278.85 81.2151 278.774C81.5664 278.695 81.9194 278.632 82.274 278.585C82.7381 278.526 83.1142 278.481 83.4026 278.451C83.6943 278.418 83.9064 278.363 84.039 278.287C84.1748 278.211 84.2428 278.078 84.2428 277.889V277.849C84.2428 277.359 84.1086 276.978 83.8401 276.706C83.5749 276.434 83.1722 276.298 82.632 276.298C82.0719 276.298 81.6327 276.421 81.3145 276.666C80.9963 276.911 80.7726 277.173 80.6434 277.452L79.5297 277.054C79.7286 276.59 79.9937 276.229 80.3252 275.97C80.6599 275.708 81.0245 275.526 81.4189 275.423C81.8167 275.317 82.2078 275.264 82.5922 275.264C82.8375 275.264 83.1192 275.294 83.4374 275.354C83.7589 275.41 84.0688 275.528 84.3671 275.707C84.6687 275.886 84.9189 276.156 85.1178 276.517C85.3167 276.878 85.4161 277.362 85.4161 277.969V283H84.2428V281.966H84.1831C84.1036 282.132 83.971 282.309 83.7854 282.498C83.5998 282.687 83.3529 282.848 83.0446 282.98C82.7364 283.113 82.3602 283.179 81.9161 283.179ZM82.0951 282.125C82.5591 282.125 82.9502 282.034 83.2684 281.852C83.5899 281.669 83.8318 281.434 83.9942 281.146C84.1599 280.857 84.2428 280.554 84.2428 280.236V279.162C84.1931 279.222 84.0837 279.276 83.9147 279.326C83.7489 279.372 83.5567 279.414 83.338 279.45C83.1225 279.483 82.9121 279.513 82.7066 279.54C82.5044 279.563 82.3403 279.583 82.2144 279.599C81.9095 279.639 81.6244 279.704 81.3593 279.793C81.0974 279.879 80.8853 280.01 80.7229 280.186C80.5638 280.358 80.4843 280.594 80.4843 280.892C80.4843 281.3 80.6351 281.608 80.9367 281.817C81.2416 282.022 81.6277 282.125 82.0951 282.125ZM88.8309 278.406V283H87.6576V275.364H88.7911V276.557H88.8906C89.0695 276.169 89.3413 275.857 89.7059 275.622C90.0705 275.384 90.5411 275.264 91.1178 275.264C91.6349 275.264 92.0873 275.37 92.4751 275.582C92.8629 275.791 93.1645 276.109 93.3799 276.537C93.5953 276.961 93.7031 277.498 93.7031 278.148V283H92.5298V278.227C92.5298 277.627 92.374 277.16 92.0624 276.825C91.7509 276.487 91.3233 276.318 90.7798 276.318C90.4052 276.318 90.0705 276.399 89.7755 276.562C89.4838 276.724 89.2535 276.961 89.0844 277.273C88.9154 277.584 88.8309 277.962 88.8309 278.406Z" fill="#92929D"/>
<path fill-rule="evenodd" clip-rule="evenodd" d="M85.2595 256V129.991C85.2595 127.787 87.0461 126 89.25 126V126C91.4539 126 93.2406 127.787 93.2406 129.991V256H85.2595Z" fill="#0062FF"/>
<path fill-rule="evenodd" clip-rule="evenodd" d="M72.4261 256V179.991C72.4261 177.787 74.2128 176 76.4167 176V176C78.6206 176 80.4072 177.787 80.4072 179.991V256H72.4261Z" fill="#3DD598"/>
</g>
</g>
<g clip-path="url(#clip11_35_388)">
<rect x="151.667" y="58" width="11.5412" height="10" rx="5" fill="#3DD598"/>
<path d="M171.732 57.8182L174.755 66.3892H174.874L177.897 57.8182H179.19L175.451 68H174.178L170.44 57.8182H171.732ZM183.207 68.1591C182.471 68.1591 181.837 67.9967 181.303 67.6719C180.773 67.3438 180.364 66.8864 180.075 66.2997C179.79 65.7098 179.648 65.0237 179.648 64.2415C179.648 63.4593 179.79 62.7699 180.075 62.1733C180.364 61.5734 180.765 61.1061 181.278 60.7713C181.795 60.4332 182.399 60.2642 183.088 60.2642C183.486 60.2642 183.878 60.3305 184.266 60.4631C184.654 60.5956 185.007 60.8111 185.325 61.1094C185.643 61.4044 185.897 61.7955 186.086 62.2827C186.275 62.7699 186.369 63.3698 186.369 64.0824V64.5795H180.483V63.5653H185.176C185.176 63.1345 185.09 62.75 184.918 62.4119C184.748 62.0739 184.507 61.8071 184.192 61.6115C183.88 61.416 183.512 61.3182 183.088 61.3182C182.621 61.3182 182.216 61.4342 181.875 61.6662C181.537 61.8949 181.277 62.1932 181.094 62.5611C180.912 62.929 180.821 63.3234 180.821 63.7443V64.4205C180.821 64.9972 180.92 65.486 181.119 65.8871C181.321 66.2848 181.601 66.5881 181.959 66.7969C182.317 67.0024 182.733 67.1051 183.207 67.1051C183.516 67.1051 183.794 67.062 184.043 66.9759C184.294 66.8864 184.511 66.7538 184.694 66.5781C184.876 66.3991 185.017 66.1771 185.116 65.9119L186.25 66.2301C186.131 66.6146 185.93 66.9527 185.648 67.2443C185.367 67.5327 185.019 67.758 184.604 67.9205C184.19 68.0795 183.724 68.1591 183.207 68.1591ZM189.427 63.4062V68H188.254V60.3636H189.388V61.5568H189.487C189.666 61.169 189.938 60.8575 190.302 60.6222C190.667 60.3835 191.138 60.2642 191.714 60.2642C192.231 60.2642 192.684 60.3703 193.071 60.5824C193.459 60.7912 193.761 61.1094 193.976 61.5369C194.192 61.9612 194.299 62.4981 194.299 63.1477V68H193.126V63.2273C193.126 62.6274 192.97 62.16 192.659 61.8253C192.347 61.4872 191.92 61.3182 191.376 61.3182C191.002 61.3182 190.667 61.3994 190.372 61.5618C190.08 61.7242 189.85 61.9612 189.681 62.2727C189.512 62.5843 189.427 62.9621 189.427 63.4062ZM199.427 68.1591C198.791 68.1591 198.229 67.9983 197.742 67.6768C197.254 67.352 196.873 66.8946 196.598 66.3047C196.323 65.7114 196.186 65.0104 196.186 64.2017C196.186 63.3996 196.323 62.7036 196.598 62.1136C196.873 61.5237 197.256 61.0679 197.747 60.7464C198.237 60.425 198.804 60.2642 199.447 60.2642C199.944 60.2642 200.337 60.3471 200.625 60.5128C200.917 60.6752 201.139 60.8608 201.291 61.0696C201.447 61.2751 201.568 61.4441 201.654 61.5767H201.754V57.8182H202.927V68H201.793V66.8267H201.654C201.568 66.9659 201.445 67.1416 201.286 67.3537C201.127 67.5625 200.9 67.7498 200.605 67.9155C200.31 68.0779 199.918 68.1591 199.427 68.1591ZM199.586 67.1051C200.057 67.1051 200.454 66.9825 200.779 66.7372C201.104 66.4886 201.351 66.1456 201.52 65.7081C201.689 65.2673 201.774 64.7585 201.774 64.1818C201.774 63.6117 201.691 63.1129 201.525 62.6854C201.359 62.2545 201.114 61.9197 200.789 61.6811C200.464 61.4392 200.063 61.3182 199.586 61.3182C199.089 61.3182 198.675 61.4458 198.343 61.701C198.015 61.9529 197.768 62.2959 197.602 62.7301C197.44 63.161 197.359 63.6449 197.359 64.1818C197.359 64.7254 197.442 65.2192 197.607 65.6634C197.776 66.1042 198.025 66.4555 198.353 66.7173C198.685 66.9759 199.096 67.1051 199.586 67.1051ZM207.586 68.179C207.102 68.179 206.663 68.0878 206.268 67.9055C205.874 67.7199 205.561 67.4531 205.329 67.1051C205.097 66.7538 204.981 66.3295 204.981 65.8324C204.981 65.3949 205.067 65.0402 205.239 64.7685C205.412 64.4934 205.642 64.2779 205.93 64.1222C206.219 63.9664 206.537 63.8504 206.885 63.7741C207.236 63.6946 207.589 63.6316 207.944 63.5852C208.408 63.5256 208.784 63.4808 209.072 63.451C209.364 63.4179 209.576 63.3632 209.709 63.2869C209.845 63.2107 209.913 63.0781 209.913 62.8892V62.8494C209.913 62.3589 209.778 61.9777 209.51 61.706C209.245 61.4342 208.842 61.2983 208.302 61.2983C207.742 61.2983 207.303 61.4209 206.984 61.6662C206.666 61.9115 206.442 62.1733 206.313 62.4517L205.2 62.054C205.398 61.59 205.664 61.2287 205.995 60.9702C206.33 60.7083 206.694 60.526 207.089 60.4233C207.487 60.3172 207.878 60.2642 208.262 60.2642C208.507 60.2642 208.789 60.294 209.107 60.3537C209.429 60.41 209.739 60.5277 210.037 60.7067C210.339 60.8857 210.589 61.1558 210.788 61.517C210.987 61.8783 211.086 62.3622 211.086 62.9688V68H209.913V66.9659H209.853C209.773 67.1316 209.641 67.3089 209.455 67.4979C209.27 67.6868 209.023 67.8475 208.714 67.9801C208.406 68.1127 208.03 68.179 207.586 68.179ZM207.765 67.125C208.229 67.125 208.62 67.0339 208.938 66.8516C209.26 66.6693 209.502 66.4339 209.664 66.1456C209.83 65.8572 209.913 65.554 209.913 65.2358V64.1619C209.863 64.2216 209.754 64.2763 209.585 64.326C209.419 64.3724 209.227 64.4138 209.008 64.4503C208.792 64.4834 208.582 64.5133 208.376 64.5398C208.174 64.563 208.01 64.5829 207.884 64.5994C207.579 64.6392 207.294 64.7038 207.029 64.7933C206.767 64.8795 206.555 65.0104 206.393 65.1861C206.234 65.3584 206.154 65.5937 206.154 65.892C206.154 66.2997 206.305 66.608 206.607 66.8168C206.911 67.0223 207.298 67.125 207.765 67.125ZM218.737 62.0739L217.683 62.3722C217.616 62.1965 217.519 62.0258 217.389 61.8601C217.263 61.6911 217.091 61.5518 216.872 61.4425C216.653 61.3331 216.373 61.2784 216.032 61.2784C215.565 61.2784 215.175 61.3861 214.864 61.6016C214.555 61.8137 214.401 62.0838 214.401 62.4119C214.401 62.7036 214.507 62.9339 214.719 63.103C214.932 63.272 215.263 63.4129 215.714 63.5256L216.847 63.804C217.53 63.9697 218.039 64.2232 218.374 64.5646C218.708 64.9027 218.876 65.3385 218.876 65.8722C218.876 66.3097 218.75 66.7008 218.498 67.0455C218.249 67.3902 217.901 67.6619 217.454 67.8608C217.006 68.0597 216.486 68.1591 215.893 68.1591C215.114 68.1591 214.469 67.9901 213.959 67.652C213.448 67.3139 213.125 66.8201 212.989 66.1705L214.103 65.892C214.209 66.303 214.41 66.6113 214.705 66.8168C215.003 67.0223 215.392 67.125 215.873 67.125C216.42 67.125 216.854 67.009 217.175 66.777C217.5 66.5417 217.663 66.2599 217.663 65.9318C217.663 65.6667 217.57 65.4446 217.384 65.2656C217.199 65.0833 216.914 64.9474 216.529 64.858L215.256 64.5597C214.557 64.3939 214.043 64.1371 213.715 63.7891C213.39 63.4377 213.228 62.9986 213.228 62.4716C213.228 62.0407 213.349 61.6596 213.591 61.3281C213.836 60.9967 214.169 60.7365 214.59 60.5476C215.014 60.3587 215.495 60.2642 216.032 60.2642C216.788 60.2642 217.381 60.4299 217.812 60.7614C218.246 61.0928 218.554 61.5303 218.737 62.0739ZM233.529 62.9091C233.529 63.983 233.336 64.911 232.948 65.6932C232.56 66.4754 232.028 67.0786 231.352 67.5028C230.676 67.9271 229.903 68.1392 229.035 68.1392C228.167 68.1392 227.394 67.9271 226.718 67.5028C226.042 67.0786 225.51 66.4754 225.122 65.6932C224.735 64.911 224.541 63.983 224.541 62.9091C224.541 61.8352 224.735 60.9072 225.122 60.125C225.51 59.3428 226.042 58.7396 226.718 58.3153C227.394 57.8911 228.167 57.679 229.035 57.679C229.903 57.679 230.676 57.8911 231.352 58.3153C232.028 58.7396 232.56 59.3428 232.948 60.125C233.336 60.9072 233.529 61.8352 233.529 62.9091ZM232.336 62.9091C232.336 62.0275 232.189 61.2834 231.894 60.6768C231.602 60.0703 231.206 59.6113 230.706 59.2997C230.208 58.9882 229.652 58.8324 229.035 58.8324C228.419 58.8324 227.86 58.9882 227.36 59.2997C226.863 59.6113 226.466 60.0703 226.171 60.6768C225.88 61.2834 225.734 62.0275 225.734 62.9091C225.734 63.7907 225.88 64.5348 226.171 65.1413C226.466 65.7479 226.863 66.2069 227.36 66.5185C227.86 66.83 228.419 66.9858 229.035 66.9858C229.652 66.9858 230.208 66.83 230.706 66.5185C231.206 66.2069 231.602 65.7479 231.894 65.1413C232.189 64.5348 232.336 63.7907 232.336 62.9091ZM238.944 60.3636V61.358H234.828V60.3636H238.944ZM236.061 68V59.3097C236.061 58.8722 236.163 58.5076 236.369 58.2159C236.574 57.9242 236.841 57.7055 237.169 57.5597C237.497 57.4138 237.844 57.3409 238.208 57.3409C238.497 57.3409 238.732 57.3641 238.914 57.4105C239.096 57.4569 239.232 57.5 239.322 57.5398L238.984 58.554C238.924 58.5341 238.841 58.5092 238.735 58.4794C238.632 58.4496 238.497 58.4347 238.328 58.4347C237.94 58.4347 237.66 58.5324 237.487 58.728C237.318 58.9235 237.234 59.2102 237.234 59.5881V68H236.061ZM244.089 60.3636V61.358H239.972V60.3636H244.089ZM241.205 68V59.3097C241.205 58.8722 241.308 58.5076 241.514 58.2159C241.719 57.9242 241.986 57.7055 242.314 57.5597C242.642 57.4138 242.989 57.3409 243.353 57.3409C243.642 57.3409 243.877 57.3641 244.059 57.4105C244.241 57.4569 244.377 57.5 244.467 57.5398L244.129 58.554C244.069 58.5341 243.986 58.5092 243.88 58.4794C243.777 58.4496 243.642 58.4347 243.472 58.4347C243.085 58.4347 242.805 58.5324 242.632 58.728C242.463 58.9235 242.379 59.2102 242.379 59.5881V68H241.205ZM247.007 57.8182V68H245.833V57.8182H247.007ZM249.256 68V60.3636H250.429V68H249.256ZM249.852 59.0909C249.623 59.0909 249.426 59.013 249.261 58.8572C249.098 58.7015 249.017 58.5142 249.017 58.2955C249.017 58.0767 249.098 57.8894 249.261 57.7337C249.426 57.5779 249.623 57.5 249.852 57.5C250.081 57.5 250.276 57.5779 250.439 57.7337C250.605 57.8894 250.687 58.0767 250.687 58.2955C250.687 58.5142 250.605 58.7015 250.439 58.8572C250.276 59.013 250.081 59.0909 249.852 59.0909ZM253.851 63.4062V68H252.678V60.3636H253.811V61.5568H253.911C254.09 61.169 254.362 60.8575 254.726 60.6222C255.091 60.3835 255.561 60.2642 256.138 60.2642C256.655 60.2642 257.108 60.3703 257.495 60.5824C257.883 60.7912 258.185 61.1094 258.4 61.5369C258.616 61.9612 258.723 62.4981 258.723 63.1477V68H257.55V63.2273C257.55 62.6274 257.394 62.16 257.083 61.8253C256.771 61.4872 256.344 61.3182 255.8 61.3182C255.425 61.3182 255.091 61.3994 254.796 61.5618C254.504 61.7242 254.274 61.9612 254.105 62.2727C253.936 62.5843 253.851 62.9621 253.851 63.4062ZM264.169 68.1591C263.433 68.1591 262.798 67.9967 262.265 67.6719C261.735 67.3438 261.325 66.8864 261.037 66.2997C260.752 65.7098 260.609 65.0237 260.609 64.2415C260.609 63.4593 260.752 62.7699 261.037 62.1733C261.325 61.5734 261.726 61.1061 262.24 60.7713C262.757 60.4332 263.36 60.2642 264.05 60.2642C264.447 60.2642 264.84 60.3305 265.228 60.4631C265.616 60.5956 265.969 60.8111 266.287 61.1094C266.605 61.4044 266.859 61.7955 267.048 62.2827C267.236 62.7699 267.331 63.3698 267.331 64.0824V64.5795H261.445V63.5653H266.138C266.138 63.1345 266.052 62.75 265.879 62.4119C265.71 62.0739 265.468 61.8071 265.153 61.6115C264.842 61.416 264.474 61.3182 264.05 61.3182C263.582 61.3182 263.178 61.4342 262.837 61.6662C262.499 61.8949 262.238 62.1932 262.056 62.5611C261.874 62.929 261.783 63.3234 261.783 63.7443V64.4205C261.783 64.9972 261.882 65.486 262.081 65.8871C262.283 66.2848 262.563 66.5881 262.921 66.7969C263.279 67.0024 263.695 67.1051 264.169 67.1051C264.477 67.1051 264.756 67.062 265.004 66.9759C265.256 66.8864 265.473 66.7538 265.656 66.5781C265.838 66.3991 265.979 66.1771 266.078 65.9119L267.212 66.2301C267.092 66.6146 266.892 66.9527 266.61 67.2443C266.328 67.5327 265.98 67.758 265.566 67.9205C265.152 68.0795 264.686 68.1591 264.169 68.1591Z" fill="#44444F"/>
</g>
<rect x="17.5" y="58" width="9.33333" height="10" rx="4.66667" fill="#0062FF"/>
<path d="M34.3172 57.8182L37.34 66.3892H37.4593L40.482 57.8182H41.7746L38.036 68H36.7632L33.0246 57.8182H34.3172ZM45.7922 68.1591C45.0564 68.1591 44.4217 67.9967 43.8881 67.6719C43.3578 67.3438 42.9485 66.8864 42.6601 66.2997C42.3751 65.7098 42.2326 65.0237 42.2326 64.2415C42.2326 63.4593 42.3751 62.7699 42.6601 62.1733C42.9485 61.5734 43.3495 61.1061 43.8632 60.7713C44.3803 60.4332 44.9835 60.2642 45.6729 60.2642C46.0706 60.2642 46.4634 60.3305 46.8512 60.4631C47.239 60.5956 47.5919 60.8111 47.9101 61.1094C48.2283 61.4044 48.4819 61.7955 48.6708 62.2827C48.8597 62.7699 48.9542 63.3698 48.9542 64.0824V64.5795H43.0678V63.5653H47.761C47.761 63.1345 47.6748 62.75 47.5025 62.4119C47.3334 62.0739 47.0915 61.8071 46.7766 61.6115C46.465 61.416 46.0971 61.3182 45.6729 61.3182C45.2056 61.3182 44.8012 61.4342 44.4598 61.6662C44.1218 61.8949 43.8616 62.1932 43.6793 62.5611C43.497 62.929 43.4059 63.3234 43.4059 63.7443V64.4205C43.4059 64.9972 43.5053 65.486 43.7042 65.8871C43.9063 66.2848 44.1864 66.5881 44.5444 66.7969C44.9023 67.0024 45.3183 67.1051 45.7922 67.1051C46.1005 67.1051 46.3789 67.062 46.6275 66.9759C46.8793 66.8864 47.0964 66.7538 47.2787 66.5781C47.461 66.3991 47.6019 66.1771 47.7013 65.9119L48.8348 66.2301C48.7155 66.6146 48.515 66.9527 48.2333 67.2443C47.9516 67.5327 47.6035 67.758 47.1892 67.9205C46.7749 68.0795 46.3093 68.1591 45.7922 68.1591ZM52.0123 63.4062V68H50.839V60.3636H51.9725V61.5568H52.0719C52.2509 61.169 52.5227 60.8575 52.8873 60.6222C53.2518 60.3835 53.7225 60.2642 54.2992 60.2642C54.8162 60.2642 55.2686 60.3703 55.6564 60.5824C56.0442 60.7912 56.3458 61.1094 56.5613 61.5369C56.7767 61.9612 56.8844 62.4981 56.8844 63.1477V68H55.7111V63.2273C55.7111 62.6274 55.5553 62.16 55.2438 61.8253C54.9322 61.4872 54.5047 61.3182 53.9611 61.3182C53.5866 61.3182 53.2518 61.3994 52.9569 61.5618C52.6652 61.7242 52.4348 61.9612 52.2658 62.2727C52.0968 62.5843 52.0123 62.9621 52.0123 63.4062ZM62.0119 68.1591C61.3756 68.1591 60.8138 67.9983 60.3266 67.6768C59.8393 67.352 59.4582 66.8946 59.1831 66.3047C58.908 65.7114 58.7705 65.0104 58.7705 64.2017C58.7705 63.3996 58.908 62.7036 59.1831 62.1136C59.4582 61.5237 59.841 61.0679 60.3315 60.7464C60.8221 60.425 61.3888 60.2642 62.0318 60.2642C62.529 60.2642 62.9217 60.3471 63.2101 60.5128C63.5018 60.6752 63.7238 60.8608 63.8763 61.0696C64.0321 61.2751 64.153 61.4441 64.2392 61.5767H64.3386V57.8182H65.5119V68H64.3784V66.8267H64.2392C64.153 66.9659 64.0304 67.1416 63.8713 67.3537C63.7122 67.5625 63.4852 67.7498 63.1902 67.9155C62.8952 68.0779 62.5025 68.1591 62.0119 68.1591ZM62.171 67.1051C62.6417 67.1051 63.0394 66.9825 63.3642 66.7372C63.689 66.4886 63.9359 66.1456 64.105 65.7081C64.274 65.2673 64.3585 64.7585 64.3585 64.1818C64.3585 63.6117 64.2757 63.1129 64.1099 62.6854C63.9442 62.2545 63.699 61.9197 63.3741 61.6811C63.0493 61.4392 62.6483 61.3182 62.171 61.3182C61.6739 61.3182 61.2596 61.4458 60.9281 61.701C60.6 61.9529 60.3531 62.2959 60.1874 62.7301C60.025 63.161 59.9438 63.6449 59.9438 64.1818C59.9438 64.7254 60.0266 65.2192 60.1923 65.6634C60.3614 66.1042 60.6099 66.4555 60.9381 66.7173C61.2695 66.9759 61.6805 67.1051 62.171 67.1051ZM70.1709 68.179C69.687 68.179 69.2478 68.0878 68.8534 67.9055C68.459 67.7199 68.1458 67.4531 67.9138 67.1051C67.6818 66.7538 67.5658 66.3295 67.5658 65.8324C67.5658 65.3949 67.6519 65.0402 67.8243 64.7685C67.9966 64.4934 68.227 64.2779 68.5153 64.1222C68.8037 63.9664 69.1219 63.8504 69.4699 63.7741C69.8212 63.6946 70.1742 63.6316 70.5288 63.5852C70.9929 63.5256 71.369 63.4808 71.6574 63.451C71.9491 63.4179 72.1612 63.3632 72.2938 63.2869C72.4296 63.2107 72.4976 63.0781 72.4976 62.8892V62.8494C72.4976 62.3589 72.3634 61.9777 72.0949 61.706C71.8297 61.4342 71.427 61.2983 70.8868 61.2983C70.3267 61.2983 69.8875 61.4209 69.5693 61.6662C69.2511 61.9115 69.0274 62.1733 68.8982 62.4517L67.7845 62.054C67.9834 61.59 68.2485 61.2287 68.58 60.9702C68.9147 60.7083 69.2793 60.526 69.6737 60.4233C70.0715 60.3172 70.4626 60.2642 70.847 60.2642C71.0923 60.2642 71.374 60.294 71.6922 60.3537C72.0137 60.41 72.3236 60.5277 72.6219 60.7067C72.9235 60.8857 73.1737 61.1558 73.3726 61.517C73.5715 61.8783 73.6709 62.3622 73.6709 62.9688V68H72.4976V66.9659H72.4379C72.3584 67.1316 72.2258 67.3089 72.0402 67.4979C71.8546 67.6868 71.6077 67.8475 71.2994 67.9801C70.9912 68.1127 70.615 68.179 70.1709 68.179ZM70.3499 67.125C70.8139 67.125 71.205 67.0339 71.5232 66.8516C71.8447 66.6693 72.0866 66.4339 72.249 66.1456C72.4147 65.8572 72.4976 65.554 72.4976 65.2358V64.1619C72.4479 64.2216 72.3385 64.2763 72.1695 64.326C72.0037 64.3724 71.8115 64.4138 71.5928 64.4503C71.3773 64.4834 71.1669 64.5133 70.9614 64.5398C70.7592 64.563 70.5951 64.5829 70.4692 64.5994C70.1643 64.6392 69.8792 64.7038 69.6141 64.7933C69.3522 64.8795 69.1401 65.0104 68.9777 65.1861C68.8186 65.3584 68.7391 65.5937 68.7391 65.892C68.7391 66.2997 68.8899 66.608 69.1915 66.8168C69.4964 67.0223 69.8825 67.125 70.3499 67.125ZM81.3215 62.0739L80.2675 62.3722C80.2012 62.1965 80.1034 62.0258 79.9742 61.8601C79.8482 61.6911 79.6759 61.5518 79.4571 61.4425C79.2384 61.3331 78.9583 61.2784 78.6169 61.2784C78.1496 61.2784 77.7602 61.3861 77.4486 61.6016C77.1404 61.8137 76.9863 62.0838 76.9863 62.4119C76.9863 62.7036 77.0923 62.9339 77.3044 63.103C77.5166 63.272 77.848 63.4129 78.2988 63.5256L79.4323 63.804C80.115 63.9697 80.6238 64.2232 80.9586 64.5646C81.2933 64.9027 81.4607 65.3385 81.4607 65.8722C81.4607 66.3097 81.3347 66.7008 81.0828 67.0455C80.8343 67.3902 80.4863 67.6619 80.0388 67.8608C79.5914 68.0597 79.071 68.1591 78.4777 68.1591C77.6989 68.1591 77.0542 67.9901 76.5438 67.652C76.0334 67.3139 75.7102 66.8201 75.5743 66.1705L76.688 65.892C76.794 66.303 76.9945 66.6113 77.2895 66.8168C77.5878 67.0223 77.9773 67.125 78.4578 67.125C79.0047 67.125 79.4389 67.009 79.7604 66.777C80.0852 66.5417 80.2476 66.2599 80.2476 65.9318C80.2476 65.6667 80.1548 65.4446 79.9692 65.2656C79.7836 65.0833 79.4986 64.9474 79.1141 64.858L77.8414 64.5597C77.142 64.3939 76.6283 64.1371 76.3002 63.7891C75.9754 63.4377 75.813 62.9986 75.813 62.4716C75.813 62.0407 75.9339 61.6596 76.1759 61.3281C76.4212 60.9967 76.7543 60.7365 77.1752 60.5476C77.5994 60.3587 78.08 60.2642 78.6169 60.2642C79.3726 60.2642 79.9659 60.4299 80.3968 60.7614C80.831 61.0928 81.1392 61.5303 81.3215 62.0739ZM90.4666 68.1591C89.7772 68.1591 89.1724 67.995 88.652 67.6669C88.1349 67.3388 87.7306 66.8797 87.4389 66.2898C87.1506 65.6998 87.0064 65.0104 87.0064 64.2216C87.0064 63.4261 87.1506 62.7318 87.4389 62.1385C87.7306 61.5452 88.1349 61.0845 88.652 60.7564C89.1724 60.4283 89.7772 60.2642 90.4666 60.2642C91.156 60.2642 91.7592 60.4283 92.2763 60.7564C92.7966 61.0845 93.201 61.5452 93.4893 62.1385C93.781 62.7318 93.9268 63.4261 93.9268 64.2216C93.9268 65.0104 93.781 65.6998 93.4893 66.2898C93.201 66.8797 92.7966 67.3388 92.2763 67.6669C91.7592 67.995 91.156 68.1591 90.4666 68.1591ZM90.4666 67.1051C90.9903 67.1051 91.4212 66.9709 91.7592 66.7024C92.0973 66.4339 92.3475 66.081 92.5099 65.6435C92.6724 65.206 92.7536 64.732 92.7536 64.2216C92.7536 63.7112 92.6724 63.2356 92.5099 62.7947C92.3475 62.3539 92.0973 61.9976 91.7592 61.7259C91.4212 61.4541 90.9903 61.3182 90.4666 61.3182C89.9429 61.3182 89.5121 61.4541 89.174 61.7259C88.8359 61.9976 88.5857 62.3539 88.4233 62.7947C88.2609 63.2356 88.1797 63.7112 88.1797 64.2216C88.1797 64.732 88.2609 65.206 88.4233 65.6435C88.5857 66.081 88.8359 66.4339 89.174 66.7024C89.5121 66.9709 89.9429 67.1051 90.4666 67.1051ZM96.9912 63.4062V68H95.8179V60.3636H96.9514V61.5568H97.0508C97.2298 61.169 97.5016 60.8575 97.8662 60.6222C98.2307 60.3835 98.7014 60.2642 99.2781 60.2642C99.7951 60.2642 100.248 60.3703 100.635 60.5824C101.023 60.7912 101.325 61.1094 101.54 61.5369C101.756 61.9612 101.863 62.4981 101.863 63.1477V68H100.69V63.2273C100.69 62.6274 100.534 62.16 100.223 61.8253C99.9111 61.4872 99.4836 61.3182 98.94 61.3182C98.5655 61.3182 98.2307 61.3994 97.9358 61.5618C97.6441 61.7242 97.4137 61.9612 97.2447 62.2727C97.0757 62.5843 96.9912 62.9621 96.9912 63.4062ZM105.281 57.8182V68H104.107V57.8182H105.281ZM107.53 68V60.3636H108.703V68H107.53ZM108.126 59.0909C107.897 59.0909 107.7 59.013 107.535 58.8572C107.372 58.7015 107.291 58.5142 107.291 58.2955C107.291 58.0767 107.372 57.8894 107.535 57.7337C107.7 57.5779 107.897 57.5 108.126 57.5C108.355 57.5 108.55 57.5779 108.713 57.7337C108.879 57.8894 108.961 58.0767 108.961 58.2955C108.961 58.5142 108.879 58.7015 108.713 58.8572C108.55 59.013 108.355 59.0909 108.126 59.0909ZM112.125 63.4062V68H110.952V60.3636H112.085V61.5568H112.185C112.364 61.169 112.636 60.8575 113 60.6222C113.365 60.3835 113.835 60.2642 114.412 60.2642C114.929 60.2642 115.382 60.3703 115.769 60.5824C116.157 60.7912 116.459 61.1094 116.674 61.5369C116.89 61.9612 116.997 62.4981 116.997 63.1477V68H115.824V63.2273C115.824 62.6274 115.668 62.16 115.357 61.8253C115.045 61.4872 114.618 61.3182 114.074 61.3182C113.699 61.3182 113.365 61.3994 113.07 61.5618C112.778 61.7242 112.548 61.9612 112.379 62.2727C112.21 62.5843 112.125 62.9621 112.125 63.4062ZM122.443 68.1591C121.707 68.1591 121.073 67.9967 120.539 67.6719C120.009 67.3438 119.599 66.8864 119.311 66.2997C119.026 65.7098 118.883 65.0237 118.883 64.2415C118.883 63.4593 119.026 62.7699 119.311 62.1733C119.599 61.5734 120 61.1061 120.514 60.7713C121.031 60.4332 121.634 60.2642 122.324 60.2642C122.721 60.2642 123.114 60.3305 123.502 60.4631C123.89 60.5956 124.243 60.8111 124.561 61.1094C124.879 61.4044 125.133 61.7955 125.322 62.2827C125.51 62.7699 125.605 63.3698 125.605 64.0824V64.5795H119.719V63.5653H124.412C124.412 63.1345 124.326 62.75 124.153 62.4119C123.984 62.0739 123.742 61.8071 123.427 61.6115C123.116 61.416 122.748 61.3182 122.324 61.3182C121.856 61.3182 121.452 61.4342 121.111 61.6662C120.773 61.8949 120.512 62.1932 120.33 62.5611C120.148 62.929 120.057 63.3234 120.057 63.7443V64.4205C120.057 64.9972 120.156 65.486 120.355 65.8871C120.557 66.2848 120.837 66.5881 121.195 66.7969C121.553 67.0024 121.969 67.1051 122.443 67.1051C122.751 67.1051 123.03 67.062 123.278 66.9759C123.53 66.8864 123.747 66.7538 123.93 66.5781C124.112 66.3991 124.253 66.1771 124.352 65.9119L125.486 66.2301C125.366 66.6146 125.166 66.9527 124.884 67.2443C124.602 67.5327 124.254 67.758 123.84 67.9205C123.426 68.0795 122.96 68.1591 122.443 68.1591Z" fill="#44444F"/>
<path d="M18.6477 30V18.3636H23.0114C23.9053 18.3636 24.6553 18.5189 25.2614 18.8295C25.8712 19.1402 26.3314 19.5758 26.642 20.1364C26.9564 20.6932 27.1136 21.3428 27.1136 22.0852C27.1136 22.8314 26.9545 23.4792 26.6364 24.0284C26.322 24.5739 25.858 24.9962 25.2443 25.2955C24.6307 25.5909 23.8769 25.7386 22.983 25.7386H19.875V23.9886H22.6989C23.2216 23.9886 23.6496 23.9167 23.983 23.7727C24.3163 23.625 24.5625 23.411 24.7216 23.1307C24.8845 22.8466 24.9659 22.4981 24.9659 22.0852C24.9659 21.6723 24.8845 21.3201 24.7216 21.0284C24.5587 20.733 24.3106 20.5095 23.9773 20.358C23.6439 20.2027 23.214 20.125 22.6875 20.125H20.7557V30H18.6477ZM24.6591 24.7273L27.5398 30H25.1875L22.358 24.7273H24.6591ZM32.8017 30.1705C31.9267 30.1705 31.171 29.9886 30.5347 29.625C29.9021 29.2576 29.4153 28.7386 29.0744 28.0682C28.7335 27.3939 28.5631 26.6004 28.5631 25.6875C28.5631 24.7898 28.7335 24.0019 29.0744 23.3239C29.4191 22.642 29.9002 22.1117 30.5176 21.733C31.135 21.3504 31.8604 21.1591 32.6938 21.1591C33.2316 21.1591 33.7392 21.2462 34.2165 21.4205C34.6975 21.5909 35.1218 21.8561 35.4892 22.2159C35.8604 22.5758 36.1521 23.0341 36.3642 23.5909C36.5763 24.1439 36.6824 24.803 36.6824 25.5682V26.1989H29.529V24.8125H34.7108C34.707 24.4186 34.6218 24.0682 34.4551 23.7614C34.2884 23.4508 34.0555 23.2064 33.7563 23.0284C33.4608 22.8504 33.1161 22.7614 32.7222 22.7614C32.3017 22.7614 31.9324 22.8636 31.6142 23.0682C31.296 23.2689 31.0479 23.5341 30.8699 23.8636C30.6956 24.1894 30.6066 24.5473 30.6028 24.9375V26.1477C30.6028 26.6553 30.6956 27.0909 30.8813 27.4545C31.0669 27.8144 31.3263 28.0909 31.6597 28.2841C31.993 28.4735 32.3831 28.5682 32.8301 28.5682C33.1294 28.5682 33.4002 28.5265 33.6426 28.4432C33.885 28.3561 34.0953 28.2292 34.2733 28.0625C34.4513 27.8958 34.5858 27.6894 34.6767 27.4432L36.5972 27.6591C36.4759 28.1667 36.2449 28.6098 35.904 28.9886C35.5669 29.3636 35.135 29.6553 34.6085 29.8636C34.082 30.0682 33.4797 30.1705 32.8017 30.1705ZM40.5793 18.3636V30H38.5224V18.3636H40.5793ZM45.3057 30.1761C44.7527 30.1761 44.2545 30.0777 43.8114 29.8807C43.372 29.6799 43.0235 29.3845 42.7659 28.9943C42.5121 28.6042 42.3852 28.1231 42.3852 27.5511C42.3852 27.0587 42.4761 26.6515 42.658 26.3295C42.8398 26.0076 43.0879 25.75 43.4023 25.5568C43.7167 25.3636 44.0708 25.2178 44.4648 25.1193C44.8625 25.017 45.2735 24.9432 45.6977 24.8977C46.2091 24.8447 46.6239 24.7973 46.942 24.7557C47.2602 24.7102 47.4913 24.642 47.6352 24.5511C47.783 24.4564 47.8568 24.3106 47.8568 24.1136V24.0795C47.8568 23.6515 47.7299 23.3201 47.4761 23.0852C47.2223 22.8504 46.8568 22.733 46.3795 22.733C45.8758 22.733 45.4761 22.8428 45.1807 23.0625C44.889 23.2822 44.692 23.5417 44.5898 23.8409L42.6693 23.5682C42.8208 23.0379 43.0708 22.5947 43.4193 22.2386C43.7678 21.8788 44.1939 21.6098 44.6977 21.4318C45.2015 21.25 45.7583 21.1591 46.3682 21.1591C46.7886 21.1591 47.2072 21.2083 47.6239 21.3068C48.0405 21.4053 48.4212 21.5682 48.7659 21.7955C49.1106 22.0189 49.3871 22.3239 49.5955 22.7102C49.8076 23.0966 49.9136 23.5795 49.9136 24.1591V30H47.9364V28.8011H47.8682C47.7432 29.0436 47.567 29.2708 47.3398 29.483C47.1163 29.6913 46.8341 29.8598 46.4932 29.9886C46.1561 30.1136 45.7602 30.1761 45.3057 30.1761ZM45.8398 28.6648C46.2527 28.6648 46.6106 28.5833 46.9136 28.4205C47.2167 28.2538 47.4496 28.0341 47.6125 27.7614C47.7792 27.4886 47.8625 27.1913 47.8625 26.8693V25.8409C47.7981 25.8939 47.6883 25.9432 47.533 25.9886C47.3814 26.0341 47.211 26.0739 47.0216 26.108C46.8322 26.142 46.6447 26.1723 46.4591 26.1989C46.2735 26.2254 46.1125 26.2481 45.9761 26.267C45.6693 26.3087 45.3947 26.3769 45.1523 26.4716C44.9098 26.5663 44.7186 26.6989 44.5784 26.8693C44.4383 27.036 44.3682 27.2519 44.3682 27.517C44.3682 27.8958 44.5064 28.1818 44.783 28.375C45.0595 28.5682 45.4117 28.6648 45.8398 28.6648ZM56.4398 21.2727V22.8636H51.4227V21.2727H56.4398ZM52.6614 19.1818H54.7182V27.375C54.7182 27.6515 54.7599 27.8636 54.8432 28.0114C54.9303 28.1553 55.0439 28.2538 55.1841 28.3068C55.3242 28.3598 55.4795 28.3864 55.65 28.3864C55.7788 28.3864 55.8962 28.3769 56.0023 28.358C56.1121 28.339 56.1955 28.322 56.2523 28.3068L56.5989 29.9148C56.489 29.9527 56.3318 29.9943 56.1273 30.0398C55.9265 30.0852 55.6803 30.1117 55.3886 30.1193C54.8735 30.1345 54.4095 30.0568 53.9966 29.8864C53.5837 29.7121 53.2561 29.4432 53.0136 29.0795C52.775 28.7159 52.6576 28.2614 52.6614 27.7159V19.1818ZM61.973 30.1705C61.1207 30.1705 60.3821 29.983 59.7571 29.608C59.1321 29.233 58.6473 28.7083 58.3026 28.0341C57.9616 27.3598 57.7912 26.572 57.7912 25.6705C57.7912 24.7689 57.9616 23.9792 58.3026 23.3011C58.6473 22.6231 59.1321 22.0966 59.7571 21.7216C60.3821 21.3466 61.1207 21.1591 61.973 21.1591C62.8253 21.1591 63.5639 21.3466 64.1889 21.7216C64.8139 22.0966 65.2969 22.6231 65.6378 23.3011C65.9825 23.9792 66.1548 24.7689 66.1548 25.6705C66.1548 26.572 65.9825 27.3598 65.6378 28.0341C65.2969 28.7083 64.8139 29.233 64.1889 29.608C63.5639 29.983 62.8253 30.1705 61.973 30.1705ZM61.9844 28.5227C62.4465 28.5227 62.8329 28.3958 63.1435 28.142C63.4541 27.8845 63.6851 27.5398 63.8366 27.108C63.992 26.6761 64.0696 26.1951 64.0696 25.6648C64.0696 25.1307 63.992 24.6477 63.8366 24.2159C63.6851 23.7803 63.4541 23.4337 63.1435 23.1761C62.8329 22.9186 62.4465 22.7898 61.9844 22.7898C61.5109 22.7898 61.117 22.9186 60.8026 23.1761C60.492 23.4337 60.259 23.7803 60.1037 24.2159C59.9522 24.6477 59.8764 25.1307 59.8764 25.6648C59.8764 26.1951 59.9522 26.6761 60.1037 27.108C60.259 27.5398 60.492 27.8845 60.8026 28.142C61.117 28.3958 61.5109 28.5227 61.9844 28.5227ZM61.1832 20.125L62.456 17.5284H64.4673L62.723 20.125H61.1832ZM68.0006 30V21.2727H69.9949V22.7273H70.0858C70.2449 22.2235 70.5176 21.8352 70.904 21.5625C71.2941 21.286 71.7392 21.1477 72.2392 21.1477C72.3528 21.1477 72.4797 21.1534 72.6199 21.1648C72.7638 21.1723 72.8831 21.1856 72.9778 21.2045V23.0966C72.8907 23.0663 72.7525 23.0398 72.5631 23.017C72.3775 22.9905 72.1975 22.9773 72.0233 22.9773C71.6483 22.9773 71.3112 23.0587 71.0119 23.2216C70.7165 23.3807 70.4835 23.6023 70.3131 23.8864C70.1426 24.1705 70.0574 24.4981 70.0574 24.8693V30H68.0006ZM74.4443 30V21.2727H76.5011V30H74.4443ZM75.4784 20.0341C75.1527 20.0341 74.8723 19.9261 74.6375 19.7102C74.4027 19.4905 74.2852 19.2273 74.2852 18.9205C74.2852 18.6098 74.4027 18.3466 74.6375 18.1307C74.8723 17.911 75.1527 17.8011 75.4784 17.8011C75.808 17.8011 76.0883 17.911 76.3193 18.1307C76.5542 18.3466 76.6716 18.6098 76.6716 18.9205C76.6716 19.2273 76.5542 19.4905 76.3193 19.7102C76.0883 19.9261 75.808 20.0341 75.4784 20.0341ZM82.523 30.1705C81.6707 30.1705 80.9321 29.983 80.3071 29.608C79.6821 29.233 79.1973 28.7083 78.8526 28.0341C78.5116 27.3598 78.3412 26.572 78.3412 25.6705C78.3412 24.7689 78.5116 23.9792 78.8526 23.3011C79.1973 22.6231 79.6821 22.0966 80.3071 21.7216C80.9321 21.3466 81.6707 21.1591 82.523 21.1591C83.3753 21.1591 84.1139 21.3466 84.7389 21.7216C85.3639 22.0966 85.8469 22.6231 86.1878 23.3011C86.5325 23.9792 86.7048 24.7689 86.7048 25.6705C86.7048 26.572 86.5325 27.3598 86.1878 28.0341C85.8469 28.7083 85.3639 29.233 84.7389 29.608C84.1139 29.983 83.3753 30.1705 82.523 30.1705ZM82.5344 28.5227C82.9965 28.5227 83.3829 28.3958 83.6935 28.142C84.0041 27.8845 84.2351 27.5398 84.3866 27.108C84.542 26.6761 84.6196 26.1951 84.6196 25.6648C84.6196 25.1307 84.542 24.6477 84.3866 24.2159C84.2351 23.7803 84.0041 23.4337 83.6935 23.1761C83.3829 22.9186 82.9965 22.7898 82.5344 22.7898C82.0609 22.7898 81.667 22.9186 81.3526 23.1761C81.042 23.4337 80.809 23.7803 80.6537 24.2159C80.5022 24.6477 80.4264 25.1307 80.4264 25.6648C80.4264 26.1951 80.5022 26.6761 80.6537 27.108C80.809 27.5398 81.042 27.8845 81.3526 28.142C81.667 28.3958 82.0609 28.5227 82.5344 28.5227ZM95.858 30.1534C95.1723 30.1534 94.5587 29.9773 94.017 29.625C93.4754 29.2727 93.0473 28.7614 92.733 28.0909C92.4186 27.4205 92.2614 26.6061 92.2614 25.6477C92.2614 24.678 92.4205 23.8598 92.7386 23.1932C93.0606 22.5227 93.4943 22.017 94.0398 21.6761C94.5852 21.3314 95.1932 21.1591 95.8636 21.1591C96.375 21.1591 96.7955 21.2462 97.125 21.4205C97.4545 21.5909 97.7159 21.7973 97.9091 22.0398C98.1023 22.2784 98.2519 22.5038 98.358 22.7159H98.4432V18.3636H100.506V30H98.483V28.625H98.358C98.2519 28.8371 98.0985 29.0625 97.8977 29.3011C97.697 29.536 97.4318 29.7367 97.1023 29.9034C96.7727 30.0701 96.358 30.1534 95.858 30.1534ZM96.4318 28.4659C96.8674 28.4659 97.2386 28.3485 97.5455 28.1136C97.8523 27.875 98.0852 27.5436 98.2443 27.1193C98.4034 26.6951 98.483 26.2008 98.483 25.6364C98.483 25.072 98.4034 24.5814 98.2443 24.1648C98.089 23.7481 97.858 23.4242 97.5511 23.1932C97.2481 22.9621 96.875 22.8466 96.4318 22.8466C95.9735 22.8466 95.5909 22.9659 95.2841 23.2045C94.9773 23.4432 94.7462 23.7727 94.5909 24.1932C94.4356 24.6136 94.358 25.0947 94.358 25.6364C94.358 26.1818 94.4356 26.6686 94.5909 27.0966C94.75 27.5208 94.983 27.8561 95.2898 28.1023C95.6004 28.3447 95.9811 28.4659 96.4318 28.4659ZM106.661 30.1705C105.786 30.1705 105.03 29.9886 104.394 29.625C103.761 29.2576 103.275 28.7386 102.934 28.0682C102.593 27.3939 102.422 26.6004 102.422 25.6875C102.422 24.7898 102.593 24.0019 102.934 23.3239C103.279 22.642 103.76 22.1117 104.377 21.733C104.994 21.3504 105.72 21.1591 106.553 21.1591C107.091 21.1591 107.599 21.2462 108.076 21.4205C108.557 21.5909 108.981 21.8561 109.349 22.2159C109.72 22.5758 110.011 23.0341 110.224 23.5909C110.436 24.1439 110.542 24.803 110.542 25.5682V26.1989H103.388V24.8125H108.57C108.566 24.4186 108.481 24.0682 108.314 23.7614C108.148 23.4508 107.915 23.2064 107.616 23.0284C107.32 22.8504 106.975 22.7614 106.582 22.7614C106.161 22.7614 105.792 22.8636 105.474 23.0682C105.155 23.2689 104.907 23.5341 104.729 23.8636C104.555 24.1894 104.466 24.5473 104.462 24.9375V26.1477C104.462 26.6553 104.555 27.0909 104.741 27.4545C104.926 27.8144 105.186 28.0909 105.519 28.2841C105.852 28.4735 106.243 28.5682 106.689 28.5682C106.989 28.5682 107.26 28.5265 107.502 28.4432C107.744 28.3561 107.955 28.2292 108.133 28.0625C108.311 27.8958 108.445 27.6894 108.536 27.4432L110.457 27.6591C110.335 28.1667 110.104 28.6098 109.763 28.9886C109.426 29.3636 108.994 29.6553 108.468 29.8636C107.941 30.0682 107.339 30.1705 106.661 30.1705ZM118.098 18.3636L121.127 27.5227H121.246L124.269 18.3636H126.587L122.485 30H119.882L115.786 18.3636H118.098ZM131.055 30.1705C130.18 30.1705 129.424 29.9886 128.788 29.625C128.155 29.2576 127.668 28.7386 127.328 28.0682C126.987 27.3939 126.816 26.6004 126.816 25.6875C126.816 24.7898 126.987 24.0019 127.328 23.3239C127.672 22.642 128.153 22.1117 128.771 21.733C129.388 21.3504 130.114 21.1591 130.947 21.1591C131.485 21.1591 131.992 21.2462 132.47 21.4205C132.951 21.5909 133.375 21.8561 133.742 22.2159C134.114 22.5758 134.405 23.0341 134.617 23.5909C134.829 24.1439 134.936 24.803 134.936 25.5682V26.1989H127.782V24.8125H132.964C132.96 24.4186 132.875 24.0682 132.708 23.7614C132.542 23.4508 132.309 23.2064 132.009 23.0284C131.714 22.8504 131.369 22.7614 130.975 22.7614C130.555 22.7614 130.186 22.8636 129.867 23.0682C129.549 23.2689 129.301 23.5341 129.123 23.8636C128.949 24.1894 128.86 24.5473 128.856 24.9375V26.1477C128.856 26.6553 128.949 27.0909 129.134 27.4545C129.32 27.8144 129.579 28.0909 129.913 28.2841C130.246 28.4735 130.636 28.5682 131.083 28.5682C131.382 28.5682 131.653 28.5265 131.896 28.4432C132.138 28.3561 132.348 28.2292 132.526 28.0625C132.704 27.8958 132.839 27.6894 132.93 27.4432L134.85 27.6591C134.729 28.1667 134.498 28.6098 134.157 28.9886C133.82 29.3636 133.388 29.6553 132.862 29.8636C132.335 30.0682 131.733 30.1705 131.055 30.1705ZM138.832 24.8864V30H136.776V21.2727H138.741V22.7557H138.844C139.045 22.267 139.365 21.8788 139.804 21.5909C140.247 21.303 140.795 21.1591 141.446 21.1591C142.048 21.1591 142.573 21.2879 143.02 21.5455C143.471 21.803 143.819 22.1761 144.065 22.6648C144.315 23.1534 144.438 23.7462 144.435 24.4432V30H142.378V24.7614C142.378 24.178 142.226 23.7216 141.923 23.392C141.624 23.0625 141.209 22.8977 140.679 22.8977C140.319 22.8977 139.999 22.9773 139.719 23.1364C139.442 23.2917 139.224 23.517 139.065 23.8125C138.91 24.108 138.832 24.4659 138.832 24.8864ZM149.864 30.1534C149.179 30.1534 148.565 29.9773 148.023 29.625C147.482 29.2727 147.054 28.7614 146.739 28.0909C146.425 27.4205 146.268 26.6061 146.268 25.6477C146.268 24.678 146.427 23.8598 146.745 23.1932C147.067 22.5227 147.501 22.017 148.046 21.6761C148.591 21.3314 149.199 21.1591 149.87 21.1591C150.381 21.1591 150.802 21.2462 151.131 21.4205C151.461 21.5909 151.722 21.7973 151.915 22.0398C152.109 22.2784 152.258 22.5038 152.364 22.7159H152.449V18.3636H154.512V30H152.489V28.625H152.364C152.258 28.8371 152.105 29.0625 151.904 29.3011C151.703 29.536 151.438 29.7367 151.109 29.9034C150.779 30.0701 150.364 30.1534 149.864 30.1534ZM150.438 28.4659C150.874 28.4659 151.245 28.3485 151.552 28.1136C151.859 27.875 152.091 27.5436 152.251 27.1193C152.41 26.6951 152.489 26.2008 152.489 25.6364C152.489 25.072 152.41 24.5814 152.251 24.1648C152.095 23.7481 151.864 23.4242 151.557 23.1932C151.254 22.9621 150.881 22.8466 150.438 22.8466C149.98 22.8466 149.597 22.9659 149.29 23.2045C148.984 23.4432 148.752 23.7727 148.597 24.1932C148.442 24.6136 148.364 25.0947 148.364 25.6364C148.364 26.1818 148.442 26.6686 148.597 27.0966C148.756 27.5208 148.989 27.8561 149.296 28.1023C149.607 28.3447 149.987 28.4659 150.438 28.4659ZM159.315 30.1761C158.762 30.1761 158.264 30.0777 157.821 29.8807C157.381 29.6799 157.033 29.3845 156.775 28.9943C156.521 28.6042 156.395 28.1231 156.395 27.5511C156.395 27.0587 156.486 26.6515 156.667 26.3295C156.849 26.0076 157.097 25.75 157.412 25.5568C157.726 25.3636 158.08 25.2178 158.474 25.1193C158.872 25.017 159.283 24.9432 159.707 24.8977C160.218 24.8447 160.633 24.7973 160.951 24.7557C161.27 24.7102 161.501 24.642 161.645 24.5511C161.792 24.4564 161.866 24.3106 161.866 24.1136V24.0795C161.866 23.6515 161.739 23.3201 161.486 23.0852C161.232 22.8504 160.866 22.733 160.389 22.733C159.885 22.733 159.486 22.8428 159.19 23.0625C158.898 23.2822 158.701 23.5417 158.599 23.8409L156.679 23.5682C156.83 23.0379 157.08 22.5947 157.429 22.2386C157.777 21.8788 158.203 21.6098 158.707 21.4318C159.211 21.25 159.768 21.1591 160.378 21.1591C160.798 21.1591 161.217 21.2083 161.633 21.3068C162.05 21.4053 162.431 21.5682 162.775 21.7955C163.12 22.0189 163.396 22.3239 163.605 22.7102C163.817 23.0966 163.923 23.5795 163.923 24.1591V30H161.946V28.8011H161.878C161.753 29.0436 161.576 29.2708 161.349 29.483C161.126 29.6913 160.843 29.8598 160.503 29.9886C160.165 30.1136 159.77 30.1761 159.315 30.1761ZM159.849 28.6648C160.262 28.6648 160.62 28.5833 160.923 28.4205C161.226 28.2538 161.459 28.0341 161.622 27.7614C161.789 27.4886 161.872 27.1913 161.872 26.8693V25.8409C161.807 25.8939 161.698 25.9432 161.542 25.9886C161.391 26.0341 161.22 26.0739 161.031 26.108C160.842 26.142 160.654 26.1723 160.468 26.1989C160.283 26.2254 160.122 26.2481 159.986 26.267C159.679 26.3087 159.404 26.3769 159.162 26.4716C158.919 26.5663 158.728 26.6989 158.588 26.8693C158.448 27.036 158.378 27.2519 158.378 27.517C158.378 27.8958 158.516 28.1818 158.792 28.375C159.069 28.5682 159.421 28.6648 159.849 28.6648ZM172.989 23.5795L171.114 23.7841C171.061 23.5947 170.968 23.4167 170.836 23.25C170.707 23.0833 170.532 22.9489 170.313 22.8466C170.093 22.7443 169.824 22.6932 169.506 22.6932C169.078 22.6932 168.718 22.786 168.426 22.9716C168.139 23.1572 167.996 23.3977 168 23.6932C167.996 23.947 168.089 24.1534 168.279 24.3125C168.472 24.4716 168.79 24.6023 169.233 24.7045L170.722 25.0227C171.548 25.2008 172.161 25.483 172.563 25.8693C172.968 26.2557 173.173 26.7614 173.176 27.3864C173.173 27.9356 173.012 28.4205 172.693 28.8409C172.379 29.2576 171.942 29.5833 171.381 29.8182C170.82 30.053 170.176 30.1705 169.449 30.1705C168.381 30.1705 167.521 29.947 166.87 29.5C166.218 29.0492 165.83 28.4223 165.705 27.6193L167.711 27.4261C167.801 27.8201 167.995 28.1174 168.29 28.3182C168.586 28.5189 168.97 28.6193 169.443 28.6193C169.932 28.6193 170.324 28.5189 170.62 28.3182C170.919 28.1174 171.068 27.8693 171.068 27.5739C171.068 27.3239 170.972 27.1174 170.779 26.9545C170.589 26.7917 170.294 26.6667 169.892 26.5795L168.404 26.267C167.567 26.0928 166.947 25.7992 166.546 25.3864C166.144 24.9697 165.945 24.4432 165.949 23.8068C165.945 23.2689 166.091 22.803 166.387 22.4091C166.686 22.0114 167.101 21.7045 167.631 21.4886C168.165 21.2689 168.781 21.1591 169.478 21.1591C170.5 21.1591 171.305 21.3769 171.892 21.8125C172.483 22.2481 172.849 22.8371 172.989 23.5795Z" fill="#171725"/>
<path d="M132.887 48V47.1051L136.248 43.4261C136.643 42.9953 136.967 42.6207 137.223 42.3026C137.478 41.9811 137.667 41.6795 137.789 41.3977C137.915 41.1127 137.978 40.8144 137.978 40.5028C137.978 40.1449 137.892 39.835 137.72 39.5732C137.551 39.3113 137.319 39.1091 137.024 38.9666C136.729 38.8241 136.397 38.7528 136.029 38.7528C135.638 38.7528 135.297 38.834 135.005 38.9964C134.717 39.1555 134.493 39.3793 134.334 39.6676C134.178 39.956 134.1 40.294 134.1 40.6818H132.927C132.927 40.0852 133.065 39.5616 133.34 39.1108C133.615 38.66 133.989 38.3087 134.463 38.0568C134.941 37.8049 135.476 37.679 136.069 37.679C136.666 37.679 137.194 37.8049 137.655 38.0568C138.116 38.3087 138.477 38.6484 138.739 39.076C139.001 39.5036 139.132 39.9792 139.132 40.5028C139.132 40.8774 139.064 41.2436 138.928 41.6016C138.795 41.9562 138.563 42.3523 138.232 42.7898C137.904 43.224 137.448 43.7543 136.865 44.3807L134.578 46.8267V46.9062H139.311V48H132.887ZM144.785 48.1392C144.036 48.1392 143.398 47.9354 142.871 47.5277C142.344 47.1167 141.941 46.5218 141.663 45.7429C141.384 44.9607 141.245 44.0161 141.245 42.9091C141.245 41.8087 141.384 40.8691 141.663 40.0902C141.944 39.308 142.349 38.7114 142.876 38.3004C143.406 37.8861 144.042 37.679 144.785 37.679C145.527 37.679 146.162 37.8861 146.689 38.3004C147.219 38.7114 147.624 39.308 147.902 40.0902C148.184 40.8691 148.325 41.8087 148.325 42.9091C148.325 44.0161 148.185 44.9607 147.907 45.7429C147.629 46.5218 147.226 47.1167 146.699 47.5277C146.172 47.9354 145.534 48.1392 144.785 48.1392ZM144.785 47.0455C145.527 47.0455 146.104 46.6875 146.515 45.9716C146.926 45.2557 147.131 44.2348 147.131 42.9091C147.131 42.0275 147.037 41.2768 146.848 40.657C146.662 40.0372 146.394 39.5649 146.043 39.2401C145.695 38.9152 145.275 38.7528 144.785 38.7528C144.049 38.7528 143.474 39.1158 143.06 39.8416C142.645 40.5642 142.438 41.5866 142.438 42.9091C142.438 43.7907 142.531 44.5398 142.717 45.1562C142.902 45.7727 143.169 46.2417 143.517 46.5632C143.868 46.8847 144.291 47.0455 144.785 47.0455ZM150.314 48V47.1051L153.675 43.4261C154.069 42.9953 154.394 42.6207 154.649 42.3026C154.904 41.9811 155.093 41.6795 155.216 41.3977C155.342 41.1127 155.405 40.8144 155.405 40.5028C155.405 40.1449 155.319 39.835 155.146 39.5732C154.977 39.3113 154.745 39.1091 154.45 38.9666C154.155 38.8241 153.824 38.7528 153.456 38.7528C153.065 38.7528 152.723 38.834 152.432 38.9964C152.143 39.1555 151.92 39.3793 151.761 39.6676C151.605 39.956 151.527 40.294 151.527 40.6818H150.354C150.354 40.0852 150.491 39.5616 150.766 39.1108C151.041 38.66 151.416 38.3087 151.89 38.0568C152.367 37.8049 152.902 37.679 153.496 37.679C154.092 37.679 154.621 37.8049 155.082 38.0568C155.542 38.3087 155.904 38.6484 156.165 39.076C156.427 39.5036 156.558 39.9792 156.558 40.5028C156.558 40.8774 156.49 41.2436 156.354 41.6016C156.222 41.9562 155.99 42.3523 155.658 42.7898C155.33 43.224 154.874 43.7543 154.291 44.3807L152.004 46.8267V46.9062H156.737V48H150.314ZM162.47 37.8182V48H161.237V39.1108H161.177L158.692 40.7614V39.5085L161.237 37.8182H162.47ZM169.893 42.3622V43.456H165.439V42.3622H169.893ZM171.559 48V47.1051L174.92 43.4261C175.314 42.9953 175.639 42.6207 175.894 42.3026C176.15 41.9811 176.339 41.6795 176.461 41.3977C176.587 41.1127 176.65 40.8144 176.65 40.5028C176.65 40.1449 176.564 39.835 176.392 39.5732C176.223 39.3113 175.991 39.1091 175.696 38.9666C175.401 38.8241 175.069 38.7528 174.701 38.7528C174.31 38.7528 173.969 38.834 173.677 38.9964C173.389 39.1555 173.165 39.3793 173.006 39.6676C172.85 39.956 172.772 40.294 172.772 40.6818H171.599C171.599 40.0852 171.737 39.5616 172.012 39.1108C172.287 38.66 172.661 38.3087 173.135 38.0568C173.612 37.8049 174.148 37.679 174.741 37.679C175.338 37.679 175.866 37.8049 176.327 38.0568C176.788 38.3087 177.149 38.6484 177.411 39.076C177.673 39.5036 177.803 39.9792 177.803 40.5028C177.803 40.8774 177.736 41.2436 177.6 41.6016C177.467 41.9562 177.235 42.3523 176.904 42.7898C176.576 43.224 176.12 43.7543 175.536 44.3807L173.25 46.8267V46.9062H177.982V48H171.559ZM183.457 48.1392C182.708 48.1392 182.07 47.9354 181.543 47.5277C181.016 47.1167 180.613 46.5218 180.335 45.7429C180.056 44.9607 179.917 44.0161 179.917 42.9091C179.917 41.8087 180.056 40.8691 180.335 40.0902C180.616 39.308 181.021 38.7114 181.548 38.3004C182.078 37.8861 182.714 37.679 183.457 37.679C184.199 37.679 184.834 37.8861 185.361 38.3004C185.891 38.7114 186.296 39.308 186.574 40.0902C186.856 40.8691 186.997 41.8087 186.997 42.9091C186.997 44.0161 186.857 44.9607 186.579 45.7429C186.301 46.5218 185.898 47.1167 185.371 47.5277C184.844 47.9354 184.206 48.1392 183.457 48.1392ZM183.457 47.0455C184.199 47.0455 184.776 46.6875 185.187 45.9716C185.598 45.2557 185.803 44.2348 185.803 42.9091C185.803 42.0275 185.709 41.2768 185.52 40.657C185.334 40.0372 185.066 39.5649 184.715 39.2401C184.367 38.9152 183.947 38.7528 183.457 38.7528C182.721 38.7528 182.146 39.1158 181.732 39.8416C181.317 40.5642 181.11 41.5866 181.11 42.9091C181.11 43.7907 181.203 44.5398 181.389 45.1562C181.574 45.7727 181.841 46.2417 182.189 46.5632C182.54 46.8847 182.963 47.0455 183.457 47.0455ZM188.986 48V47.1051L192.347 43.4261C192.741 42.9953 193.066 42.6207 193.321 42.3026C193.576 41.9811 193.765 41.6795 193.888 41.3977C194.014 41.1127 194.077 40.8144 194.077 40.5028C194.077 40.1449 193.99 39.835 193.818 39.5732C193.649 39.3113 193.417 39.1091 193.122 38.9666C192.827 38.8241 192.496 38.7528 192.128 38.7528C191.737 38.7528 191.395 38.834 191.104 38.9964C190.815 39.1555 190.592 39.3793 190.432 39.6676C190.277 39.956 190.199 40.294 190.199 40.6818H189.026C189.026 40.0852 189.163 39.5616 189.438 39.1108C189.713 38.66 190.088 38.3087 190.562 38.0568C191.039 37.8049 191.574 37.679 192.168 37.679C192.764 37.679 193.293 37.8049 193.753 38.0568C194.214 38.3087 194.575 38.6484 194.837 39.076C195.099 39.5036 195.23 39.9792 195.23 40.5028C195.23 40.8774 195.162 41.2436 195.026 41.6016C194.894 41.9562 194.662 42.3523 194.33 42.7898C194.002 43.224 193.546 43.7543 192.963 44.3807L190.676 46.8267V46.9062H195.409V48H188.986ZM201.003 48.1392C200.346 48.1392 199.761 48.0265 199.248 47.8011C198.737 47.5758 198.331 47.2625 198.03 46.8615C197.731 46.4571 197.569 45.9882 197.542 45.4545H198.795C198.822 45.7827 198.934 46.0661 199.133 46.3047C199.332 46.54 199.592 46.7223 199.914 46.8516C200.235 46.9808 200.592 47.0455 200.983 47.0455C201.42 47.0455 201.808 46.9692 202.146 46.8168C202.484 46.6643 202.749 46.4522 202.942 46.1804C203.134 45.9086 203.23 45.5938 203.23 45.2358C203.23 44.8613 203.137 44.5315 202.952 44.2464C202.766 43.9581 202.494 43.7327 202.136 43.5703C201.778 43.4079 201.341 43.3267 200.824 43.3267H200.008V42.233H200.824C201.228 42.233 201.583 42.16 201.888 42.0142C202.196 41.8684 202.436 41.6629 202.608 41.3977C202.784 41.1326 202.872 40.821 202.872 40.4631C202.872 40.1184 202.796 39.8184 202.643 39.5632C202.491 39.308 202.275 39.1091 201.997 38.9666C201.722 38.8241 201.397 38.7528 201.023 38.7528C200.671 38.7528 200.34 38.8175 200.028 38.9467C199.72 39.0727 199.468 39.2566 199.273 39.4986C199.077 39.7372 198.971 40.0256 198.954 40.3636H197.761C197.781 39.83 197.942 39.3627 198.243 38.9616C198.545 38.5573 198.939 38.2424 199.427 38.017C199.917 37.7917 200.456 37.679 201.042 37.679C201.672 37.679 202.212 37.8066 202.663 38.0618C203.114 38.3137 203.46 38.6468 203.702 39.0611C203.944 39.4754 204.065 39.9228 204.065 40.4034C204.065 40.9768 203.914 41.4657 203.613 41.87C203.314 42.2744 202.908 42.5545 202.395 42.7102V42.7898C203.038 42.8958 203.54 43.1693 203.901 43.6101C204.262 44.0476 204.443 44.5895 204.443 45.2358C204.443 45.7893 204.292 46.2865 203.991 46.7273C203.692 47.1648 203.285 47.5095 202.768 47.7614C202.251 48.0133 201.662 48.1392 201.003 48.1392Z" fill="#696974"/>
</g>
<defs>
<clipPath id="clip0_35_388">
<rect width="350" height="305" fill="white"/>
</clipPath>
<clipPath id="clip1_35_388">
<rect width="359.971" height="14" fill="white" transform="translate(27.3622 94)"/>
</clipPath>
<clipPath id="clip2_35_388">
<rect width="369.833" height="14" fill="white" transform="translate(17.5 131)"/>
</clipPath>
<clipPath id="clip3_35_388">
<rect width="369.833" height="14" fill="white" transform="translate(17.5 168)"/>
</clipPath>
<clipPath id="clip4_35_388">
<rect width="369.833" height="14" fill="white" transform="translate(17.5 205)"/>
</clipPath>
<clipPath id="clip5_35_388">
<rect width="352.574" height="14" fill="white" transform="translate(34.7589 242)"/>
</clipPath>
<clipPath id="clip6_35_388">
<rect width="26.8333" height="174" fill="white" transform="translate(206.5 116)"/>
</clipPath>
<clipPath id="clip7_35_388">
<rect width="29.1667" height="154" fill="white" transform="translate(159.833 136)"/>
</clipPath>
<clipPath id="clip8_35_388">
<rect width="28" height="184" fill="white" transform="translate(114.333 106)"/>
</clipPath>
<clipPath id="clip9_35_388">
<rect width="28" height="195" fill="white" transform="translate(299.833 95)"/>
</clipPath>
<clipPath id="clip10_35_388">
<rect width="28" height="164" fill="white" transform="translate(68.8333 126)"/>
</clipPath>
<clipPath id="clip11_35_388">
<rect width="134.167" height="24" fill="white" transform="translate(151.667 51)"/>
</clipPath>
</defs>
</svg>
