<svg width="350" height="303" viewBox="0 0 350 303" fill="none" xmlns="http://www.w3.org/2000/svg">
<g clip-path="url(#clip0_35_288)">
<rect x="1" y="1" width="348" height="301" rx="19" fill="white" stroke="#E9E6F7" stroke-width="2"/>
<mask id="mask0_35_288" style="mask-type:luminance" maskUnits="userSpaceOnUse" x="0" y="0" width="350" height="303">
<rect width="350" height="303" rx="20" fill="white"/>
</mask>
<g mask="url(#mask0_35_288)">
<g clip-path="url(#clip1_35_288)">
<path d="M321.265 280.893C321.265 281.813 321.099 282.608 320.766 283.279C320.434 283.949 319.978 284.466 319.399 284.83C318.819 285.194 318.157 285.376 317.413 285.376C316.668 285.376 316.007 285.194 315.427 284.83C314.847 284.466 314.391 283.949 314.059 283.279C313.727 282.608 313.561 281.813 313.561 280.893C313.561 279.972 313.727 279.177 314.059 278.506C314.391 277.836 314.847 277.319 315.427 276.955C316.007 276.591 316.668 276.41 317.413 276.41C318.157 276.41 318.819 276.591 319.399 276.955C319.978 277.319 320.434 277.836 320.766 278.506C321.099 279.177 321.265 279.972 321.265 280.893ZM320.242 280.893C320.242 280.137 320.116 279.499 319.863 278.979C319.613 278.459 319.274 278.066 318.845 277.799C318.418 277.532 317.941 277.398 317.413 277.398C316.884 277.398 316.406 277.532 315.977 277.799C315.551 278.066 315.211 278.459 314.958 278.979C314.708 279.499 314.583 280.137 314.583 280.893C314.583 281.648 314.708 282.286 314.958 282.806C315.211 283.326 315.551 283.719 315.977 283.986C316.406 284.253 316.884 284.387 317.413 284.387C317.941 284.387 318.418 284.253 318.845 283.986C319.274 283.719 319.613 283.326 319.863 282.806C320.116 282.286 320.242 281.648 320.242 280.893ZM327.116 282.58V278.711H328.122V285.256H327.116V284.148H327.048C326.895 284.481 326.656 284.763 326.332 284.996C326.008 285.226 325.599 285.341 325.105 285.341C324.696 285.341 324.332 285.252 324.014 285.073C323.696 284.891 323.446 284.618 323.264 284.255C323.082 283.888 322.991 283.427 322.991 282.87V278.711H323.997V282.802C323.997 283.279 324.131 283.66 324.398 283.944C324.668 284.228 325.011 284.37 325.429 284.37C325.679 284.37 325.933 284.306 326.192 284.178C326.453 284.05 326.672 283.854 326.848 283.59C327.027 283.326 327.116 282.989 327.116 282.58ZM332.896 278.711V279.563H329.504V278.711H332.896ZM330.493 277.143H331.499V283.381C331.499 283.665 331.54 283.878 331.622 284.02C331.707 284.16 331.815 284.253 331.946 284.302C332.08 284.347 332.22 284.37 332.368 284.37C332.479 284.37 332.57 284.364 332.641 284.353C332.712 284.339 332.769 284.327 332.811 284.319L333.016 285.222C332.947 285.248 332.852 285.273 332.73 285.299C332.608 285.327 332.453 285.341 332.266 285.341C331.982 285.341 331.703 285.28 331.43 285.158C331.161 285.036 330.936 284.85 330.757 284.6C330.581 284.35 330.493 284.035 330.493 283.654V277.143Z" fill="#92929D"/>
<path fill-rule="evenodd" clip-rule="evenodd" d="M322 268.433V97H323.167V268.433H322Z" fill="#F1F1F5"/>
</g>
<g clip-path="url(#clip2_35_288)">
<path d="M269.246 278.711C269.195 278.279 268.987 277.944 268.624 277.705C268.26 277.466 267.814 277.347 267.286 277.347C266.899 277.347 266.561 277.41 266.271 277.535C265.984 277.66 265.76 277.832 265.598 278.05C265.439 278.269 265.359 278.518 265.359 278.796C265.359 279.029 265.415 279.229 265.526 279.397C265.639 279.562 265.784 279.699 265.96 279.81C266.136 279.918 266.321 280.008 266.514 280.079C266.707 280.147 266.885 280.202 267.047 280.245L267.933 280.483C268.161 280.543 268.413 280.626 268.692 280.731C268.973 280.836 269.241 280.979 269.497 281.161C269.756 281.34 269.969 281.57 270.136 281.851C270.304 282.133 270.388 282.478 270.388 282.887C270.388 283.358 270.264 283.785 270.017 284.165C269.773 284.546 269.415 284.849 268.943 285.073C268.474 285.297 267.905 285.41 267.234 285.41C266.609 285.41 266.068 285.309 265.611 285.107C265.156 284.905 264.798 284.624 264.537 284.263C264.278 283.903 264.132 283.483 264.098 283.006H265.189C265.217 283.336 265.328 283.608 265.521 283.824C265.717 284.037 265.965 284.197 266.263 284.302C266.564 284.404 266.888 284.455 267.234 284.455C267.638 284.455 268 284.39 268.321 284.259C268.642 284.126 268.896 283.941 269.084 283.705C269.271 283.466 269.365 283.188 269.365 282.87C269.365 282.58 269.284 282.344 269.122 282.162C268.96 281.981 268.747 281.833 268.483 281.719C268.219 281.606 267.933 281.506 267.626 281.421L266.553 281.114C265.871 280.918 265.331 280.638 264.933 280.275C264.536 279.911 264.337 279.435 264.337 278.847C264.337 278.358 264.469 277.932 264.733 277.569C265 277.202 265.358 276.918 265.807 276.716C266.259 276.512 266.763 276.41 267.32 276.41C267.882 276.41 268.382 276.51 268.82 276.712C269.257 276.911 269.604 277.184 269.859 277.53C270.118 277.877 270.254 278.27 270.268 278.711H269.246ZM274.819 285.393C274.188 285.393 273.644 285.253 273.187 284.975C272.732 284.694 272.382 284.302 272.134 283.799C271.89 283.293 271.768 282.705 271.768 282.035C271.768 281.364 271.89 280.773 272.134 280.262C272.382 279.748 272.725 279.347 273.166 279.06C273.609 278.77 274.126 278.626 274.717 278.626C275.058 278.626 275.394 278.682 275.727 278.796C276.059 278.91 276.362 279.094 276.634 279.35C276.907 279.603 277.124 279.938 277.286 280.356C277.448 280.773 277.529 281.287 277.529 281.898V282.324H272.484V281.455H276.507C276.507 281.086 276.433 280.756 276.285 280.466C276.14 280.177 275.933 279.948 275.663 279.78C275.396 279.613 275.08 279.529 274.717 279.529C274.316 279.529 273.97 279.628 273.677 279.827C273.387 280.023 273.164 280.279 273.008 280.594C272.852 280.91 272.774 281.248 272.774 281.608V282.188C272.774 282.682 272.859 283.101 273.029 283.445C273.203 283.786 273.443 284.046 273.749 284.225C274.056 284.401 274.413 284.489 274.819 284.489C275.083 284.489 275.322 284.452 275.535 284.378C275.751 284.302 275.937 284.188 276.093 284.037C276.249 283.884 276.37 283.694 276.455 283.466L277.427 283.739C277.325 284.069 277.153 284.358 276.911 284.608C276.67 284.856 276.372 285.049 276.016 285.188C275.661 285.324 275.262 285.393 274.819 285.393ZM281.991 278.711V279.563H278.599V278.711H281.991ZM279.588 277.143H280.594V283.381C280.594 283.665 280.635 283.878 280.717 284.02C280.802 284.16 280.91 284.253 281.041 284.302C281.175 284.347 281.315 284.37 281.463 284.37C281.574 284.37 281.665 284.364 281.736 284.353C281.807 284.339 281.864 284.327 281.906 284.319L282.111 285.222C282.043 285.248 281.947 285.273 281.825 285.299C281.703 285.327 281.548 285.341 281.361 285.341C281.077 285.341 280.798 285.28 280.525 285.158C280.256 285.036 280.031 284.85 279.852 284.6C279.676 284.35 279.588 284.035 279.588 283.654V277.143Z" fill="#92929D"/>
<path fill-rule="evenodd" clip-rule="evenodd" d="M271.833 268.433V97H273V268.433H271.833Z" fill="#F1F1F5"/>
</g>
<g clip-path="url(#clip3_35_288)">
<path d="M211.121 285.256H210.013L213.218 276.529H214.309L217.513 285.256H216.405L213.797 277.91H213.729L211.121 285.256ZM211.53 281.847H215.996V282.785H211.53V281.847ZM221.464 287.847C220.978 287.847 220.561 287.785 220.211 287.66C219.862 287.537 219.571 287.376 219.338 287.174C219.108 286.975 218.924 286.762 218.788 286.535L219.589 285.972C219.68 286.091 219.795 286.228 219.934 286.381C220.074 286.537 220.264 286.672 220.505 286.786C220.75 286.903 221.069 286.961 221.464 286.961C221.993 286.961 222.429 286.833 222.772 286.577C223.116 286.322 223.288 285.921 223.288 285.376V284.046H223.203C223.129 284.165 223.024 284.313 222.887 284.489C222.754 284.662 222.561 284.817 222.308 284.954C222.058 285.087 221.72 285.154 221.294 285.154C220.765 285.154 220.291 285.029 219.87 284.779C219.453 284.529 219.122 284.165 218.878 283.688C218.636 283.211 218.515 282.631 218.515 281.949C218.515 281.279 218.633 280.695 218.869 280.198C219.105 279.698 219.433 279.312 219.853 279.039C220.274 278.763 220.76 278.626 221.311 278.626C221.737 278.626 222.075 278.697 222.325 278.839C222.578 278.978 222.771 279.137 222.905 279.316C223.041 279.492 223.146 279.637 223.22 279.751H223.322V278.711H224.294V285.444C224.294 286.006 224.166 286.464 223.91 286.816C223.657 287.171 223.316 287.431 222.887 287.596C222.461 287.763 221.987 287.847 221.464 287.847ZM221.43 284.251C221.833 284.251 222.174 284.158 222.453 283.974C222.731 283.789 222.943 283.523 223.088 283.177C223.233 282.83 223.305 282.415 223.305 281.932C223.305 281.461 223.234 281.045 223.092 280.684C222.95 280.323 222.74 280.04 222.461 279.836C222.183 279.631 221.839 279.529 221.43 279.529C221.004 279.529 220.649 279.637 220.365 279.853C220.083 280.069 219.872 280.358 219.73 280.722C219.591 281.086 219.521 281.489 219.521 281.932C219.521 282.387 219.592 282.789 219.734 283.138C219.879 283.485 220.092 283.758 220.373 283.957C220.657 284.153 221.01 284.251 221.43 284.251ZM228.879 285.393C228.289 285.393 227.77 285.252 227.324 284.971C226.881 284.689 226.534 284.296 226.284 283.79C226.037 283.285 225.914 282.694 225.914 282.018C225.914 281.336 226.037 280.741 226.284 280.232C226.534 279.724 226.881 279.329 227.324 279.047C227.77 278.766 228.289 278.626 228.879 278.626C229.47 278.626 229.987 278.766 230.431 279.047C230.877 279.329 231.223 279.724 231.47 280.232C231.72 280.741 231.845 281.336 231.845 282.018C231.845 282.694 231.72 283.285 231.47 283.79C231.223 284.296 230.877 284.689 230.431 284.971C229.987 285.252 229.47 285.393 228.879 285.393ZM228.879 284.489C229.328 284.489 229.698 284.374 229.987 284.144C230.277 283.914 230.492 283.611 230.631 283.236C230.77 282.861 230.84 282.455 230.84 282.018C230.84 281.58 230.77 281.172 230.631 280.795C230.492 280.417 230.277 280.111 229.987 279.878C229.698 279.645 229.328 279.529 228.879 279.529C228.431 279.529 228.061 279.645 227.771 279.878C227.482 280.111 227.267 280.417 227.128 280.795C226.989 281.172 226.919 281.58 226.919 282.018C226.919 282.455 226.989 282.861 227.128 283.236C227.267 283.611 227.482 283.914 227.771 284.144C228.061 284.374 228.431 284.489 228.879 284.489Z" fill="#92929D"/>
<path fill-rule="evenodd" clip-rule="evenodd" d="M219.333 268.433L219.333 97H220.5V268.433H219.333Z" fill="#F1F1F5"/>
</g>
<g clip-path="url(#clip4_35_288)">
<path d="M167.644 276.529H168.701V282.768C168.701 283.324 168.599 283.797 168.394 284.187C168.189 284.576 167.901 284.871 167.529 285.073C167.157 285.275 166.718 285.376 166.212 285.376C165.735 285.376 165.31 285.289 164.938 285.116C164.566 284.939 164.273 284.689 164.06 284.366C163.847 284.042 163.741 283.657 163.741 283.211H164.78C164.78 283.458 164.841 283.674 164.964 283.858C165.089 284.04 165.259 284.182 165.475 284.285C165.691 284.387 165.937 284.438 166.212 284.438C166.516 284.438 166.775 284.374 166.988 284.246C167.201 284.118 167.363 283.931 167.474 283.684C167.587 283.434 167.644 283.128 167.644 282.768V276.529ZM174.893 282.58V278.711H175.899V285.256H174.893V284.148H174.825C174.671 284.481 174.433 284.763 174.109 284.996C173.785 285.226 173.376 285.341 172.882 285.341C172.473 285.341 172.109 285.252 171.791 285.073C171.473 284.891 171.223 284.618 171.041 284.255C170.859 283.888 170.768 283.427 170.768 282.87V278.711H171.774V282.802C171.774 283.279 171.907 283.66 172.174 283.944C172.444 284.228 172.788 284.37 173.206 284.37C173.456 284.37 173.71 284.306 173.968 284.178C174.23 284.05 174.448 283.854 174.625 283.59C174.804 283.326 174.893 282.989 174.893 282.58ZM178.832 276.529V285.256H177.826V276.529H178.832Z" fill="#92929D"/>
<path fill-rule="evenodd" clip-rule="evenodd" d="M170.333 268.433L170.333 97H171.5V268.433H170.333Z" fill="#F1F1F5"/>
</g>
<g clip-path="url(#clip5_35_288)">
<path d="M116.558 276.529H117.615V282.768C117.615 283.324 117.513 283.797 117.308 284.187C117.104 284.576 116.815 284.871 116.443 285.073C116.071 285.275 115.632 285.376 115.126 285.376C114.649 285.376 114.224 285.289 113.852 285.116C113.48 284.939 113.187 284.689 112.974 284.366C112.761 284.042 112.655 283.657 112.655 283.211H113.694C113.694 283.458 113.756 283.674 113.878 283.858C114.003 284.04 114.173 284.182 114.389 284.285C114.605 284.387 114.851 284.438 115.126 284.438C115.43 284.438 115.689 284.374 115.902 284.246C116.115 284.118 116.277 283.931 116.388 283.684C116.501 283.434 116.558 283.128 116.558 282.768V276.529ZM123.807 282.58V278.711H124.813V285.256H123.807V284.148H123.739C123.586 284.481 123.347 284.763 123.023 284.996C122.699 285.226 122.29 285.341 121.796 285.341C121.387 285.341 121.023 285.252 120.705 285.073C120.387 284.891 120.137 284.618 119.955 284.255C119.773 283.888 119.682 283.427 119.682 282.87V278.711H120.688V282.802C120.688 283.279 120.821 283.66 121.088 283.944C121.358 284.228 121.702 284.37 122.12 284.37C122.37 284.37 122.624 284.306 122.882 284.178C123.144 284.05 123.363 283.854 123.539 283.59C123.718 283.326 123.807 282.989 123.807 282.58ZM127.746 281.319V285.256H126.741V278.711H127.712V279.733H127.797C127.951 279.401 128.184 279.134 128.496 278.932C128.809 278.728 129.212 278.626 129.706 278.626C130.15 278.626 130.537 278.716 130.87 278.898C131.202 279.077 131.461 279.35 131.645 279.716C131.83 280.08 131.922 280.54 131.922 281.097V285.256H130.917V281.165C130.917 280.651 130.783 280.251 130.516 279.964C130.249 279.674 129.883 279.529 129.417 279.529C129.096 279.529 128.809 279.599 128.556 279.738C128.306 279.877 128.108 280.08 127.964 280.347C127.819 280.614 127.746 280.938 127.746 281.319Z" fill="#92929D"/>
<path fill-rule="evenodd" clip-rule="evenodd" d="M123.667 268.433L123.667 97H124.833V268.433H123.667Z" fill="#F1F1F5"/>
</g>
<g clip-path="url(#clip6_35_288)">
<path d="M60.2452 276.529H61.5065L64.4724 283.773H64.5747L67.5406 276.529H68.802V285.256H67.8133V278.626H67.7281L65.0008 285.256H64.0463L61.319 278.626H61.2338V285.256H60.2452V276.529ZM72.7964 285.41C72.3816 285.41 72.0052 285.332 71.6672 285.175C71.3291 285.016 71.0606 284.787 70.8618 284.489C70.6629 284.188 70.5635 283.824 70.5635 283.398C70.5635 283.023 70.6373 282.719 70.7851 282.486C70.9328 282.251 71.1302 282.066 71.3774 281.932C71.6245 281.799 71.8973 281.699 72.1956 281.634C72.4967 281.566 72.7993 281.512 73.1032 281.472C73.501 281.421 73.8234 281.383 74.0706 281.357C74.3206 281.329 74.5024 281.282 74.616 281.216C74.7325 281.151 74.7907 281.037 74.7907 280.876V280.841C74.7907 280.421 74.6757 280.094 74.4456 279.861C74.2183 279.628 73.8731 279.512 73.4101 279.512C72.9299 279.512 72.5535 279.617 72.2808 279.827C72.0081 280.037 71.8163 280.262 71.7055 280.501L70.751 280.16C70.9214 279.762 71.1487 279.452 71.4328 279.231C71.7197 279.006 72.0322 278.85 72.3703 278.762C72.7112 278.671 73.0464 278.626 73.376 278.626C73.5862 278.626 73.8277 278.651 74.1004 278.702C74.376 278.751 74.6416 278.851 74.8973 279.005C75.1558 279.158 75.3703 279.39 75.5407 279.699C75.7112 280.009 75.7964 280.424 75.7964 280.944V285.256H74.7907V284.37H74.7396C74.6714 284.512 74.5578 284.664 74.3987 284.826C74.2396 284.988 74.028 285.126 73.7637 285.239C73.4995 285.353 73.1771 285.41 72.7964 285.41ZM72.9498 284.506C73.3476 284.506 73.6828 284.428 73.9555 284.272C74.2311 284.116 74.4385 283.914 74.5777 283.667C74.7197 283.42 74.7907 283.16 74.7907 282.887V281.966C74.7481 282.018 74.6544 282.064 74.5095 282.107C74.3674 282.147 74.2027 282.182 74.0152 282.214C73.8305 282.242 73.6501 282.268 73.474 282.29C73.3007 282.31 73.1601 282.327 73.0521 282.341C72.7907 282.376 72.5464 282.431 72.3191 282.508C72.0947 282.582 71.9129 282.694 71.7737 282.844C71.6373 282.992 71.5691 283.194 71.5691 283.449C71.5691 283.799 71.6984 284.063 71.9569 284.242C72.2183 284.418 72.5493 284.506 72.9498 284.506ZM77.7177 285.256V278.711H78.7234V285.256H77.7177ZM78.2291 277.62C78.0331 277.62 77.864 277.553 77.722 277.42C77.5828 277.286 77.5132 277.126 77.5132 276.938C77.5132 276.751 77.5828 276.59 77.722 276.457C77.864 276.323 78.0331 276.256 78.2291 276.256C78.4251 276.256 78.5927 276.323 78.7319 276.457C78.874 276.59 78.945 276.751 78.945 276.938C78.945 277.126 78.874 277.286 78.7319 277.42C78.5927 277.553 78.4251 277.62 78.2291 277.62Z" fill="#92929D"/>
<path fill-rule="evenodd" clip-rule="evenodd" d="M70.0132 268.433V97H71.1534V268.433H70.0132Z" fill="#F1F1F5"/>
</g>
<path d="M9.0032 191.888C9.91337 193.271 13.7762 190.179 18.502 191.933C22.223 193.314 25.46 197.749 30.2239 199.09C39.2657 201.633 46.6452 204.248 50.8383 210.323C55.0313 216.399 61.3251 237 68.8253 237C76.3255 237 80.143 226.285 82.9724 219.226C85.6825 212.465 90.9025 196.227 99.3427 194.436C108.659 192.46 116.319 180.409 127.435 178.384C133.359 177.304 138.105 179.406 143.401 182.67C148.696 185.935 147.66 187.345 159.569 189.862C169.397 191.939 171.968 199.09 181.598 199.95C191.228 200.81 195.683 173.886 205.85 176.133C216.018 178.381 218.049 172.57 227.607 183.583C237.165 194.596 245.995 185.808 257.993 183.56C269.99 181.313 273.115 188.285 278.809 187.386C284.503 186.487 289.629 203.486 294.51 205.958C299.39 208.43 300.774 199.449 311.145 199.449C321.516 199.449 320.407 190.536 326.101 189.862C331.795 189.188 335.79 190.326 337.621 187.404" stroke="#0062FF" stroke-width="3" stroke-linecap="round" stroke-linejoin="round"/>
<path d="M10.1286 210.902C11.9616 212.708 25.9379 215.335 33.957 208.932C41.9762 202.529 49.0789 205.977 57.3272 207.29C65.5755 208.603 68.325 193.171 77.4898 191.201C86.6545 189.231 98.1105 178.706 111.858 176.243C125.605 173.781 124.688 188.41 142.789 190.544C160.889 192.678 165.93 177.738 174.178 173.47C182.427 169.201 186.092 149.75 199.84 151.063C213.587 152.377 220.46 165.537 231.916 167.179C243.372 168.82 245.664 179.709 256.432 187.753C267.201 195.798 277.053 196.783 290.571 195.141C304.089 193.499 307.755 176.9 314.17 176.243C320.586 175.587 326.314 183.502 331.812 185.308C337.311 187.114 338.915 195.141 350.6 195.141C362.285 195.141 360.911 198.26 367.326 197.768C373.741 197.275 378.324 192.678 380.386 190.544" stroke="#3DD598" stroke-width="3" stroke-linecap="round" stroke-linejoin="round"/>
</g>
<rect x="2.33334" y="95" width="57.1667" height="194" rx="24.5" fill="white"/>
<g clip-path="url(#clip7_35_288)">
<path d="M29.5272 102.273V111H28.4703V103.381H28.4192L26.2885 104.795V103.722L28.4703 102.273H29.5272ZM33.0774 108.614L33.0603 107.369H33.2649L36.1285 104.455H37.3728L34.3217 107.54H34.2365L33.0774 108.614ZM32.1399 111V102.273H33.1455V111H32.1399ZM36.299 111L33.7421 107.761L34.458 107.062L37.5774 111H36.299Z" fill="#92929D"/>
</g>
<g clip-path="url(#clip8_35_288)">
<path d="M37.9722 281.119C37.3302 281.119 36.7833 280.945 36.3316 280.595C35.8799 280.243 35.5347 279.733 35.2961 279.065C35.0575 278.395 34.9381 277.585 34.9381 276.636C34.9381 275.693 35.0575 274.888 35.2961 274.22C35.5376 273.55 35.8842 273.038 36.3359 272.686C36.7904 272.331 37.3359 272.153 37.9722 272.153C38.6086 272.153 39.1526 272.331 39.6043 272.686C40.0589 273.038 40.4055 273.55 40.6441 274.22C40.8856 274.888 41.0063 275.693 41.0063 276.636C41.0063 277.585 40.887 278.395 40.6484 279.065C40.4097 279.733 40.0646 280.243 39.6129 280.595C39.1611 280.945 38.6143 281.119 37.9722 281.119ZM37.9722 280.182C38.6086 280.182 39.1029 279.875 39.4552 279.261C39.8075 278.648 39.9836 277.773 39.9836 276.636C39.9836 275.881 39.9026 275.237 39.7407 274.706C39.5816 274.175 39.3515 273.77 39.0504 273.491C38.7521 273.213 38.3927 273.074 37.9722 273.074C37.3415 273.074 36.8486 273.385 36.4935 274.007C36.1384 274.626 35.9609 275.503 35.9609 276.636C35.9609 277.392 36.0404 278.034 36.1995 278.562C36.3586 279.091 36.5873 279.493 36.8856 279.768C37.1867 280.044 37.5489 280.182 37.9722 280.182Z" fill="#92929D"/>
</g>
<g clip-path="url(#clip9_35_288)">
<path d="M14.9034 247V246.233L17.7841 243.08C18.1222 242.71 18.4006 242.389 18.6193 242.116C18.8381 241.841 19 241.582 19.1051 241.341C19.2131 241.097 19.267 240.841 19.267 240.574C19.267 240.267 19.1932 240.001 19.0455 239.777C18.9006 239.553 18.7017 239.379 18.4489 239.257C18.196 239.135 17.9119 239.074 17.5966 239.074C17.2614 239.074 16.9688 239.143 16.7188 239.283C16.4716 239.419 16.2798 239.611 16.1435 239.858C16.0099 240.105 15.9432 240.395 15.9432 240.727H14.9375C14.9375 240.216 15.0554 239.767 15.2912 239.381C15.527 238.994 15.848 238.693 16.2543 238.477C16.6634 238.261 17.1222 238.153 17.6307 238.153C18.142 238.153 18.5952 238.261 18.9901 238.477C19.3849 238.693 19.6946 238.984 19.919 239.351C20.1435 239.717 20.2557 240.125 20.2557 240.574C20.2557 240.895 20.1974 241.209 20.081 241.516C19.9673 241.82 19.7685 242.159 19.4844 242.534C19.2031 242.906 18.8125 243.361 18.3125 243.898L16.3523 245.994V246.062H20.4091V247H14.9034ZM25.1013 247.119C24.4593 247.119 23.9124 246.945 23.4607 246.595C23.009 246.243 22.6638 245.733 22.4252 245.065C22.1866 244.395 22.0672 243.585 22.0672 242.636C22.0672 241.693 22.1866 240.888 22.4252 240.22C22.6667 239.55 23.0133 239.038 23.465 238.686C23.9195 238.331 24.465 238.153 25.1013 238.153C25.7377 238.153 26.2817 238.331 26.7334 238.686C27.188 239.038 27.5346 239.55 27.7732 240.22C28.0147 240.888 28.1354 241.693 28.1354 242.636C28.1354 243.585 28.0161 244.395 27.7775 245.065C27.5388 245.733 27.1937 246.243 26.742 246.595C26.2903 246.945 25.7434 247.119 25.1013 247.119ZM25.1013 246.182C25.7377 246.182 26.232 245.875 26.5843 245.261C26.9366 244.648 27.1127 243.773 27.1127 242.636C27.1127 241.881 27.0317 241.237 26.8698 240.706C26.7107 240.175 26.4806 239.77 26.1795 239.491C25.8812 239.213 25.5218 239.074 25.1013 239.074C24.4707 239.074 23.9778 239.385 23.6226 240.007C23.2675 240.626 23.09 241.503 23.09 242.636C23.09 243.392 23.1695 244.034 23.3286 244.562C23.4877 245.091 23.7164 245.493 24.0147 245.768C24.3158 246.044 24.678 246.182 25.1013 246.182ZM32.6871 247.119C32.045 247.119 31.4981 246.945 31.0464 246.595C30.5947 246.243 30.2496 245.733 30.0109 245.065C29.7723 244.395 29.653 243.585 29.653 242.636C29.653 241.693 29.7723 240.888 30.0109 240.22C30.2524 239.55 30.599 239.038 31.0507 238.686C31.5052 238.331 32.0507 238.153 32.6871 238.153C33.3234 238.153 33.8675 238.331 34.3192 238.686C34.7737 239.038 35.1203 239.55 35.3589 240.22C35.6004 240.888 35.7211 241.693 35.7211 242.636C35.7211 243.585 35.6018 244.395 35.3632 245.065C35.1246 245.733 34.7794 246.243 34.3277 246.595C33.876 246.945 33.3291 247.119 32.6871 247.119ZM32.6871 246.182C33.3234 246.182 33.8177 245.875 34.17 245.261C34.5223 244.648 34.6984 243.773 34.6984 242.636C34.6984 241.881 34.6175 241.237 34.4555 240.706C34.2964 240.175 34.0663 239.77 33.7652 239.491C33.4669 239.213 33.1075 239.074 32.6871 239.074C32.0564 239.074 31.5635 239.385 31.2084 240.007C30.8532 240.626 30.6757 241.503 30.6757 242.636C30.6757 243.392 30.7552 244.034 30.9143 244.562C31.0734 245.091 31.3021 245.493 31.6004 245.768C31.9015 246.044 32.2638 246.182 32.6871 246.182Z" fill="#92929D"/>
</g>
<g clip-path="url(#clip10_35_288)">
<path d="M14.6989 211.21V210.341L18.5341 204.273H19.1648V205.619H18.7386L15.8409 210.205V210.273H21.0057V211.21H14.6989ZM18.8068 213V210.946V210.541V204.273H19.8125V213H18.8068ZM25.5349 213.119C24.8929 213.119 24.346 212.945 23.8943 212.595C23.4426 212.243 23.0974 211.733 22.8588 211.065C22.6202 210.395 22.5008 209.585 22.5008 208.636C22.5008 207.693 22.6202 206.888 22.8588 206.22C23.1003 205.55 23.4469 205.038 23.8986 204.686C24.3531 204.331 24.8986 204.153 25.5349 204.153C26.1713 204.153 26.7153 204.331 27.167 204.686C27.6216 205.038 27.9682 205.55 28.2068 206.22C28.4483 206.888 28.569 207.693 28.569 208.636C28.569 209.585 28.4497 210.395 28.2111 211.065C27.9724 211.733 27.6273 212.243 27.1756 212.595C26.7239 212.945 26.177 213.119 25.5349 213.119ZM25.5349 212.182C26.1713 212.182 26.6656 211.875 27.0179 211.261C27.3702 210.648 27.5463 209.773 27.5463 208.636C27.5463 207.881 27.4653 207.237 27.3034 206.706C27.1443 206.175 26.9142 205.77 26.6131 205.491C26.3148 205.213 25.9554 205.074 25.5349 205.074C24.9043 205.074 24.4114 205.385 24.0562 206.007C23.7011 206.626 23.5236 207.503 23.5236 208.636C23.5236 209.392 23.6031 210.034 23.7622 210.562C23.9213 211.091 24.15 211.493 24.4483 211.768C24.7494 212.044 25.1116 212.182 25.5349 212.182ZM33.1206 213.119C32.4786 213.119 31.9317 212.945 31.48 212.595C31.0283 212.243 30.6831 211.733 30.4445 211.065C30.2059 210.395 30.0866 209.585 30.0866 208.636C30.0866 207.693 30.2059 206.888 30.4445 206.22C30.686 205.55 31.0326 205.038 31.4843 204.686C31.9388 204.331 32.4843 204.153 33.1206 204.153C33.757 204.153 34.301 204.331 34.7527 204.686C35.2073 205.038 35.5539 205.55 35.7925 206.22C36.034 206.888 36.1547 207.693 36.1547 208.636C36.1547 209.585 36.0354 210.395 35.7968 211.065C35.5581 211.733 35.213 212.243 34.7613 212.595C34.3096 212.945 33.7627 213.119 33.1206 213.119ZM33.1206 212.182C33.757 212.182 34.2513 211.875 34.6036 211.261C34.9559 210.648 35.132 209.773 35.132 208.636C35.132 207.881 35.051 207.237 34.8891 206.706C34.73 206.175 34.4999 205.77 34.1988 205.491C33.9005 205.213 33.5411 205.074 33.1206 205.074C32.49 205.074 31.9971 205.385 31.642 206.007C31.2868 206.626 31.1093 207.503 31.1093 208.636C31.1093 209.392 31.1888 210.034 31.3479 210.562C31.507 211.091 31.7357 211.493 32.034 211.768C32.3351 212.044 32.6974 212.182 33.1206 212.182Z" fill="#92929D"/>
</g>
<g clip-path="url(#clip11_35_288)">
<path d="M17.8011 179.119C17.4432 179.114 17.0852 179.045 16.7273 178.915C16.3693 178.784 16.0426 178.564 15.7472 178.254C15.4517 177.942 15.2145 177.52 15.0355 176.989C14.8565 176.455 14.767 175.784 14.767 174.977C14.767 174.205 14.8395 173.52 14.9844 172.923C15.1293 172.324 15.3395 171.82 15.6151 171.411C15.8906 170.999 16.223 170.686 16.6122 170.473C17.0043 170.26 17.446 170.153 17.9375 170.153C18.4261 170.153 18.8608 170.251 19.2415 170.447C19.625 170.641 19.9375 170.911 20.179 171.257C20.4205 171.604 20.5767 172.003 20.6477 172.455H19.608C19.5114 172.062 19.3239 171.737 19.0455 171.479C18.767 171.22 18.3977 171.091 17.9375 171.091C17.2614 171.091 16.7287 171.385 16.3395 171.973C15.9531 172.561 15.7585 173.386 15.7557 174.449H15.8239C15.983 174.207 16.1719 174.001 16.3906 173.831C16.6122 173.658 16.8565 173.524 17.1236 173.43C17.3906 173.337 17.6733 173.29 17.9716 173.29C18.4716 173.29 18.929 173.415 19.3438 173.665C19.7585 173.912 20.0909 174.254 20.3409 174.692C20.5909 175.126 20.7159 175.625 20.7159 176.188C20.7159 176.727 20.5952 177.222 20.3537 177.67C20.1122 178.116 19.7727 178.472 19.3352 178.736C18.9006 178.997 18.3892 179.125 17.8011 179.119ZM17.8011 178.182C18.1591 178.182 18.4801 178.092 18.7642 177.913C19.0511 177.734 19.277 177.494 19.4418 177.193C19.6094 176.892 19.6932 176.557 19.6932 176.188C19.6932 175.827 19.6122 175.499 19.4503 175.203C19.2912 174.905 19.071 174.668 18.7898 174.491C18.5114 174.315 18.1932 174.227 17.8352 174.227C17.5653 174.227 17.3139 174.281 17.081 174.389C16.848 174.494 16.6435 174.639 16.4673 174.824C16.294 175.009 16.1577 175.22 16.0582 175.459C15.9588 175.695 15.9091 175.943 15.9091 176.205C15.9091 176.551 15.9901 176.875 16.152 177.176C16.3168 177.477 16.5412 177.72 16.8253 177.905C17.1122 178.089 17.4375 178.182 17.8011 178.182ZM25.324 179.119C24.682 179.119 24.1351 178.945 23.6834 178.595C23.2317 178.243 22.8865 177.733 22.6479 177.065C22.4092 176.395 22.2899 175.585 22.2899 174.636C22.2899 173.693 22.4092 172.888 22.6479 172.22C22.8893 171.55 23.2359 171.038 23.6876 170.686C24.1422 170.331 24.6876 170.153 25.324 170.153C25.9604 170.153 26.5044 170.331 26.9561 170.686C27.4106 171.038 27.7572 171.55 27.9959 172.22C28.2373 172.888 28.3581 173.693 28.3581 174.636C28.3581 175.585 28.2388 176.395 28.0001 177.065C27.7615 177.733 27.4163 178.243 26.9646 178.595C26.5129 178.945 25.966 179.119 25.324 179.119ZM25.324 178.182C25.9604 178.182 26.4547 177.875 26.807 177.261C27.1592 176.648 27.3354 175.773 27.3354 174.636C27.3354 173.881 27.2544 173.237 27.0925 172.706C26.9334 172.175 26.7033 171.77 26.4021 171.491C26.1038 171.213 25.7445 171.074 25.324 171.074C24.6933 171.074 24.2004 171.385 23.8453 172.007C23.4902 172.626 23.3126 173.503 23.3126 174.636C23.3126 175.392 23.3922 176.034 23.5513 176.562C23.7104 177.091 23.9391 177.493 24.2373 177.768C24.5385 178.044 24.9007 178.182 25.324 178.182ZM32.9097 179.119C32.2677 179.119 31.7208 178.945 31.2691 178.595C30.8174 178.243 30.4722 177.733 30.2336 177.065C29.9949 176.395 29.8756 175.585 29.8756 174.636C29.8756 173.693 29.9949 172.888 30.2336 172.22C30.4751 171.55 30.8216 171.038 31.2733 170.686C31.7279 170.331 32.2733 170.153 32.9097 170.153C33.5461 170.153 34.0901 170.331 34.5418 170.686C34.9964 171.038 35.3429 171.55 35.5816 172.22C35.8231 172.888 35.9438 173.693 35.9438 174.636C35.9438 175.585 35.8245 176.395 35.5858 177.065C35.3472 177.733 35.002 178.243 34.5503 178.595C34.0986 178.945 33.5518 179.119 32.9097 179.119ZM32.9097 178.182C33.5461 178.182 34.0404 177.875 34.3927 177.261C34.7449 176.648 34.9211 175.773 34.9211 174.636C34.9211 173.881 34.8401 173.237 34.6782 172.706C34.5191 172.175 34.289 171.77 33.9878 171.491C33.6895 171.213 33.3302 171.074 32.9097 171.074C32.279 171.074 31.7861 171.385 31.431 172.007C31.0759 172.626 30.8983 173.503 30.8983 174.636C30.8983 175.392 30.9779 176.034 31.137 176.562C31.2961 177.091 31.5248 177.493 31.8231 177.768C32.1242 178.044 32.4864 178.182 32.9097 178.182Z" fill="#92929D"/>
</g>
<g clip-path="url(#clip12_35_288)">
<path d="M17.6989 145.119C17.1136 145.119 16.5966 145.016 16.1477 144.808C15.7017 144.598 15.3537 144.31 15.1037 143.943C14.8537 143.574 14.7301 143.153 14.733 142.682C14.7301 142.312 14.8026 141.972 14.9503 141.659C15.098 141.344 15.2997 141.081 15.5554 140.871C15.8139 140.658 16.1023 140.523 16.4205 140.466V140.415C16.0028 140.307 15.6705 140.072 15.4233 139.712C15.1761 139.348 15.054 138.935 15.0568 138.472C15.054 138.028 15.1662 137.632 15.3935 137.283C15.6207 136.933 15.9332 136.658 16.331 136.456C16.7315 136.254 17.1875 136.153 17.6989 136.153C18.2045 136.153 18.6563 136.254 19.054 136.456C19.4517 136.658 19.7642 136.933 19.9915 137.283C20.2216 137.632 20.3381 138.028 20.3409 138.472C20.3381 138.935 20.2116 139.348 19.9616 139.712C19.7145 140.072 19.3864 140.307 18.9773 140.415V140.466C19.2926 140.523 19.5767 140.658 19.8295 140.871C20.0824 141.081 20.2841 141.344 20.4347 141.659C20.5852 141.972 20.6619 142.312 20.6648 142.682C20.6619 143.153 20.5341 143.574 20.2812 143.943C20.0312 144.31 19.6832 144.598 19.2372 144.808C18.794 145.016 18.2813 145.119 17.6989 145.119ZM17.6989 144.182C18.0938 144.182 18.4347 144.118 18.7216 143.99C19.0085 143.862 19.2301 143.682 19.3864 143.449C19.5426 143.216 19.6222 142.943 19.625 142.631C19.6222 142.301 19.5369 142.01 19.3693 141.757C19.2017 141.504 18.973 141.305 18.6832 141.161C18.3963 141.016 18.0682 140.943 17.6989 140.943C17.3267 140.943 16.9943 141.016 16.7017 141.161C16.4119 141.305 16.1832 141.504 16.0156 141.757C15.8509 142.01 15.7699 142.301 15.7727 142.631C15.7699 142.943 15.8452 143.216 15.9986 143.449C16.1548 143.682 16.3778 143.862 16.6676 143.99C16.9574 144.118 17.3011 144.182 17.6989 144.182ZM17.6989 140.04C18.0114 140.04 18.2884 139.977 18.5298 139.852C18.7741 139.727 18.9659 139.553 19.1051 139.328C19.2443 139.104 19.3153 138.841 19.3182 138.54C19.3153 138.244 19.2457 137.987 19.1094 137.768C18.973 137.547 18.7841 137.376 18.5426 137.257C18.3011 137.135 18.0199 137.074 17.6989 137.074C17.3722 137.074 17.0866 137.135 16.8423 137.257C16.598 137.376 16.4091 137.547 16.2756 137.768C16.142 137.987 16.0767 138.244 16.0795 138.54C16.0767 138.841 16.1435 139.104 16.2798 139.328C16.419 139.553 16.6108 139.727 16.8551 139.852C17.0994 139.977 17.3807 140.04 17.6989 140.04ZM25.2302 145.119C24.5882 145.119 24.0413 144.945 23.5896 144.595C23.1379 144.243 22.7927 143.733 22.5541 143.065C22.3155 142.395 22.1962 141.585 22.1962 140.636C22.1962 139.693 22.3155 138.888 22.5541 138.22C22.7956 137.55 23.1422 137.038 23.5939 136.686C24.0484 136.331 24.5939 136.153 25.2302 136.153C25.8666 136.153 26.4106 136.331 26.8623 136.686C27.3169 137.038 27.6635 137.55 27.9021 138.22C28.1436 138.888 28.2643 139.693 28.2643 140.636C28.2643 141.585 28.145 142.395 27.9064 143.065C27.6677 143.733 27.3226 144.243 26.8709 144.595C26.4192 144.945 25.8723 145.119 25.2302 145.119ZM25.2302 144.182C25.8666 144.182 26.3609 143.875 26.7132 143.261C27.0655 142.648 27.2416 141.773 27.2416 140.636C27.2416 139.881 27.1606 139.237 26.9987 138.706C26.8396 138.175 26.6095 137.77 26.3084 137.491C26.0101 137.213 25.6507 137.074 25.2302 137.074C24.5996 137.074 24.1067 137.385 23.7516 138.007C23.3964 138.626 23.2189 139.503 23.2189 140.636C23.2189 141.392 23.2984 142.034 23.4575 142.562C23.6166 143.091 23.8453 143.493 24.1436 143.768C24.4447 144.044 24.807 144.182 25.2302 144.182ZM32.816 145.119C32.1739 145.119 31.627 144.945 31.1753 144.595C30.7236 144.243 30.3785 143.733 30.1398 143.065C29.9012 142.395 29.7819 141.585 29.7819 140.636C29.7819 139.693 29.9012 138.888 30.1398 138.22C30.3813 137.55 30.7279 137.038 31.1796 136.686C31.6341 136.331 32.1796 136.153 32.816 136.153C33.4523 136.153 33.9964 136.331 34.4481 136.686C34.9026 137.038 35.2492 137.55 35.4878 138.22C35.7293 138.888 35.8501 139.693 35.8501 140.636C35.8501 141.585 35.7307 142.395 35.4921 143.065C35.2535 143.733 34.9083 144.243 34.4566 144.595C34.0049 144.945 33.458 145.119 32.816 145.119ZM32.816 144.182C33.4523 144.182 33.9466 143.875 34.2989 143.261C34.6512 142.648 34.8273 141.773 34.8273 140.636C34.8273 139.881 34.7464 139.237 34.5844 138.706C34.4253 138.175 34.1952 137.77 33.8941 137.491C33.5958 137.213 33.2364 137.074 32.816 137.074C32.1853 137.074 31.6924 137.385 31.3373 138.007C30.9822 138.626 30.8046 139.503 30.8046 140.636C30.8046 141.392 30.8841 142.034 31.0432 142.562C31.2023 143.091 31.431 143.493 31.7293 143.768C32.0304 144.044 32.3927 144.182 32.816 144.182Z" fill="#92929D"/>
</g>
<path fill-rule="evenodd" clip-rule="evenodd" d="M219.283 269L219.283 170H220.449V269H219.283Z" fill="#0062FF"/>
<g filter="url(#filter0_d_35_288)">
<rect x="211.167" y="165" width="16.3333" height="14" rx="7" fill="#0062FF"/>
<rect x="212.167" y="166" width="14.3333" height="12" rx="6" stroke="white" stroke-width="2"/>
</g>
<g clip-path="url(#clip13_35_288)">
<g filter="url(#filter1_d_35_288)">
<path fill-rule="evenodd" clip-rule="evenodd" d="M223.372 158.149C221.141 160.617 217.525 160.617 215.295 158.149L211.332 154.378C210.403 153.493 209.168 153 207.885 153H197.434C189.633 153 186.804 152.304 183.953 150.997C181.101 149.689 178.863 147.771 177.337 145.326C175.812 142.882 175 140.457 175 133.771V117.229C175 110.543 175.812 108.118 177.337 105.674C178.863 103.229 181.101 101.311 183.953 100.003C186.804 98.6962 189.633 98 197.434 98H240.066C247.867 98 250.696 98.6962 253.547 100.003C256.399 101.311 258.637 103.229 260.163 105.674C261.688 108.118 262.5 110.543 262.5 117.229V133.771C262.5 140.457 261.688 142.882 260.163 145.326C258.637 147.771 256.399 149.689 253.547 150.997C250.696 152.304 247.867 153 240.066 153H232.78C230.214 153 227.746 153.987 225.887 155.756L223.372 158.149Z" fill="white"/>
</g>
<path d="M193.186 123.273V110.545H194.001V123.273H193.186ZM195.538 114.617C195.491 114.183 195.296 113.845 194.951 113.603C194.61 113.361 194.165 113.24 193.619 113.24C193.234 113.24 192.904 113.298 192.629 113.414C192.354 113.53 192.144 113.687 191.998 113.886C191.852 114.085 191.777 114.312 191.774 114.567C191.774 114.78 191.822 114.964 191.918 115.119C192.018 115.275 192.152 115.408 192.321 115.517C192.49 115.623 192.677 115.713 192.883 115.786C193.088 115.858 193.295 115.92 193.504 115.969L194.459 116.208C194.843 116.298 195.213 116.419 195.567 116.571C195.925 116.723 196.245 116.916 196.527 117.148C196.812 117.38 197.037 117.66 197.203 117.988C197.369 118.316 197.452 118.701 197.452 119.141C197.452 119.738 197.299 120.263 196.994 120.717C196.689 121.168 196.249 121.521 195.672 121.776C195.098 122.028 194.404 122.154 193.589 122.154C192.797 122.154 192.109 122.031 191.526 121.786C190.946 121.541 190.491 121.183 190.163 120.712C189.839 120.242 189.663 119.668 189.636 118.992H191.451C191.478 119.347 191.587 119.642 191.779 119.877C191.971 120.112 192.222 120.288 192.53 120.404C192.841 120.52 193.189 120.578 193.574 120.578C193.975 120.578 194.326 120.518 194.628 120.399C194.933 120.277 195.171 120.107 195.344 119.892C195.516 119.673 195.604 119.418 195.607 119.126C195.604 118.861 195.526 118.643 195.374 118.47C195.221 118.295 195.007 118.149 194.732 118.033C194.46 117.913 194.142 117.807 193.778 117.714L192.619 117.416C191.781 117.201 191.118 116.874 190.631 116.437C190.147 115.996 189.905 115.411 189.905 114.682C189.905 114.082 190.067 113.557 190.392 113.106C190.72 112.655 191.166 112.305 191.729 112.057C192.293 111.805 192.931 111.679 193.643 111.679C194.366 111.679 194.999 111.805 195.543 112.057C196.089 112.305 196.519 112.652 196.83 113.096C197.142 113.537 197.303 114.044 197.312 114.617H195.538ZM199.097 122V120.668L202.631 117.202C202.969 116.861 203.251 116.558 203.477 116.293C203.702 116.027 203.871 115.771 203.984 115.522C204.096 115.273 204.153 115.008 204.153 114.727C204.153 114.405 204.08 114.13 203.934 113.901C203.788 113.669 203.588 113.49 203.332 113.364C203.077 113.238 202.787 113.175 202.462 113.175C202.128 113.175 201.834 113.245 201.582 113.384C201.331 113.52 201.135 113.714 200.996 113.966C200.86 114.218 200.792 114.518 200.792 114.866H199.037C199.037 114.219 199.184 113.658 199.479 113.18C199.774 112.703 200.18 112.334 200.697 112.072C201.218 111.81 201.814 111.679 202.487 111.679C203.17 111.679 203.77 111.807 204.287 112.062C204.804 112.317 205.205 112.667 205.49 113.111C205.778 113.555 205.923 114.062 205.923 114.632C205.923 115.013 205.85 115.388 205.704 115.756C205.558 116.124 205.301 116.531 204.933 116.979C204.569 117.426 204.057 117.968 203.397 118.604L201.642 120.389V120.459H206.077V122H199.097ZM208.265 122L212.595 113.429V113.359H207.569V111.818H214.504V113.394L210.179 122H208.265ZM219.719 122.139C219.231 122.136 218.756 122.051 218.292 121.886C217.828 121.717 217.41 121.443 217.039 121.065C216.668 120.684 216.373 120.179 216.154 119.549C215.935 118.916 215.828 118.132 215.831 117.197C215.831 116.326 215.924 115.549 216.109 114.866C216.295 114.183 216.562 113.606 216.91 113.136C217.258 112.662 217.677 112.3 218.168 112.052C218.661 111.803 219.213 111.679 219.823 111.679C220.463 111.679 221.03 111.805 221.523 112.057C222.021 112.309 222.422 112.653 222.726 113.091C223.031 113.525 223.22 114.016 223.293 114.562H221.479C221.386 114.171 221.195 113.86 220.907 113.628C220.622 113.393 220.261 113.275 219.823 113.275C219.117 113.275 218.574 113.581 218.192 114.195C217.815 114.808 217.624 115.65 217.621 116.72H217.69C217.853 116.429 218.063 116.178 218.322 115.969C218.58 115.761 218.872 115.6 219.197 115.487C219.525 115.371 219.871 115.313 220.236 115.313C220.832 115.313 221.368 115.456 221.842 115.741C222.319 116.026 222.697 116.419 222.975 116.919C223.253 117.416 223.391 117.986 223.388 118.629C223.391 119.299 223.239 119.9 222.93 120.434C222.622 120.964 222.193 121.382 221.643 121.687C221.092 121.992 220.451 122.143 219.719 122.139ZM219.709 120.648C220.07 120.648 220.393 120.56 220.678 120.384C220.963 120.209 221.189 119.972 221.354 119.673C221.52 119.375 221.601 119.04 221.598 118.669C221.601 118.304 221.522 117.975 221.359 117.68C221.2 117.385 220.98 117.151 220.698 116.979C220.416 116.806 220.095 116.72 219.734 116.72C219.465 116.72 219.215 116.772 218.983 116.874C218.751 116.977 218.549 117.12 218.376 117.302C218.204 117.481 218.068 117.69 217.969 117.928C217.873 118.164 217.823 118.415 217.82 118.684C217.823 119.039 217.906 119.365 218.068 119.663C218.231 119.962 218.454 120.2 218.739 120.379C219.024 120.558 219.347 120.648 219.709 120.648ZM228.822 122.139C228.106 122.139 227.47 122.017 226.913 121.771C226.36 121.526 225.922 121.185 225.601 120.747C225.279 120.31 225.108 119.804 225.089 119.231H226.958C226.974 119.506 227.066 119.746 227.231 119.952C227.397 120.154 227.617 120.311 227.893 120.424C228.168 120.537 228.476 120.593 228.817 120.593C229.182 120.593 229.505 120.53 229.787 120.404C230.068 120.275 230.289 120.096 230.448 119.867C230.607 119.638 230.685 119.375 230.682 119.077C230.685 118.768 230.605 118.497 230.443 118.261C230.281 118.026 230.045 117.842 229.737 117.71C229.432 117.577 229.064 117.511 228.633 117.511H227.733V116.089H228.633C228.988 116.089 229.298 116.027 229.563 115.905C229.831 115.782 230.042 115.61 230.194 115.388C230.347 115.162 230.421 114.902 230.418 114.607C230.421 114.319 230.357 114.069 230.224 113.857C230.095 113.641 229.911 113.474 229.672 113.354C229.437 113.235 229.16 113.175 228.842 113.175C228.531 113.175 228.242 113.232 227.977 113.344C227.712 113.457 227.498 113.618 227.336 113.827C227.173 114.032 227.087 114.277 227.077 114.562H225.302C225.316 113.992 225.48 113.492 225.795 113.061C226.113 112.627 226.537 112.289 227.067 112.047C227.598 111.802 228.192 111.679 228.852 111.679C229.532 111.679 230.121 111.807 230.622 112.062C231.126 112.314 231.515 112.653 231.79 113.081C232.065 113.509 232.203 113.981 232.203 114.498C232.206 115.071 232.037 115.552 231.696 115.94C231.358 116.327 230.914 116.581 230.363 116.7V116.78C231.079 116.879 231.628 117.144 232.009 117.575C232.393 118.003 232.584 118.535 232.581 119.171C232.581 119.741 232.418 120.252 232.094 120.702C231.772 121.15 231.328 121.501 230.761 121.756C230.198 122.012 229.551 122.139 228.822 122.139ZM234.387 122V120.668L237.922 117.202C238.26 116.861 238.542 116.558 238.767 116.293C238.993 116.027 239.162 115.771 239.274 115.522C239.387 115.273 239.443 115.008 239.443 114.727C239.443 114.405 239.37 114.13 239.225 113.901C239.079 113.669 238.878 113.49 238.623 113.364C238.368 113.238 238.078 113.175 237.753 113.175C237.418 113.175 237.125 113.245 236.873 113.384C236.621 113.52 236.426 113.714 236.286 113.966C236.151 114.218 236.083 114.518 236.083 114.866H234.328C234.328 114.219 234.475 113.658 234.77 113.18C235.065 112.703 235.471 112.334 235.988 112.072C236.508 111.81 237.105 111.679 237.778 111.679C238.461 111.679 239.061 111.807 239.578 112.062C240.095 112.317 240.496 112.667 240.781 113.111C241.069 113.555 241.213 114.062 241.213 114.632C241.213 115.013 241.14 115.388 240.994 115.756C240.849 116.124 240.592 116.531 240.224 116.979C239.859 117.426 239.347 117.968 238.688 118.604L236.933 120.389V120.459H241.367V122H234.387Z" fill="#171725"/>
<path d="M197.415 143H196.307L199.511 134.273H200.602L203.807 143H202.699L200.091 135.653H200.023L197.415 143ZM197.824 139.591H202.29V140.528H197.824V139.591ZM207.758 145.591C207.272 145.591 206.854 145.528 206.505 145.403C206.155 145.281 205.864 145.119 205.631 144.918C205.401 144.719 205.218 144.506 205.081 144.278L205.883 143.716C205.973 143.835 206.089 143.972 206.228 144.125C206.367 144.281 206.557 144.416 206.799 144.53C207.043 144.646 207.363 144.705 207.758 144.705C208.286 144.705 208.722 144.577 209.066 144.321C209.41 144.065 209.581 143.665 209.581 143.119V141.79H209.496C209.422 141.909 209.317 142.057 209.181 142.233C209.047 142.406 208.854 142.561 208.601 142.697C208.351 142.831 208.013 142.898 207.587 142.898C207.059 142.898 206.584 142.773 206.164 142.523C205.746 142.273 205.415 141.909 205.171 141.432C204.929 140.955 204.809 140.375 204.809 139.693C204.809 139.023 204.927 138.439 205.162 137.942C205.398 137.442 205.726 137.055 206.147 136.783C206.567 136.507 207.053 136.369 207.604 136.369C208.03 136.369 208.368 136.44 208.618 136.582C208.871 136.722 209.064 136.881 209.198 137.06C209.334 137.236 209.439 137.381 209.513 137.494H209.616V136.455H210.587V143.188C210.587 143.75 210.459 144.207 210.204 144.56C209.951 144.915 209.61 145.175 209.181 145.339C208.755 145.507 208.28 145.591 207.758 145.591ZM207.723 141.994C208.127 141.994 208.468 141.902 208.746 141.717C209.025 141.533 209.236 141.267 209.381 140.92C209.526 140.574 209.598 140.159 209.598 139.676C209.598 139.205 209.527 138.788 209.385 138.428C209.243 138.067 209.033 137.784 208.755 137.58C208.476 137.375 208.133 137.273 207.723 137.273C207.297 137.273 206.942 137.381 206.658 137.597C206.377 137.812 206.165 138.102 206.023 138.466C205.884 138.83 205.814 139.233 205.814 139.676C205.814 140.131 205.885 140.533 206.027 140.882C206.172 141.229 206.385 141.501 206.667 141.7C206.951 141.896 207.303 141.994 207.723 141.994ZM215.173 143.136C214.582 143.136 214.063 142.996 213.617 142.714C213.174 142.433 212.828 142.04 212.578 141.534C212.331 141.028 212.207 140.437 212.207 139.761C212.207 139.08 212.331 138.484 212.578 137.976C212.828 137.467 213.174 137.072 213.617 136.791C214.063 136.51 214.582 136.369 215.173 136.369C215.764 136.369 216.281 136.51 216.724 136.791C217.17 137.072 217.517 137.467 217.764 137.976C218.014 138.484 218.139 139.08 218.139 139.761C218.139 140.437 218.014 141.028 217.764 141.534C217.517 142.04 217.17 142.433 216.724 142.714C216.281 142.996 215.764 143.136 215.173 143.136ZM215.173 142.233C215.622 142.233 215.991 142.118 216.281 141.888C216.571 141.658 216.785 141.355 216.924 140.98C217.063 140.605 217.133 140.199 217.133 139.761C217.133 139.324 217.063 138.916 216.924 138.538C216.785 138.161 216.571 137.855 216.281 137.622C215.991 137.389 215.622 137.273 215.173 137.273C214.724 137.273 214.355 137.389 214.065 137.622C213.775 137.855 213.561 138.161 213.421 138.538C213.282 138.916 213.213 139.324 213.213 139.761C213.213 140.199 213.282 140.605 213.421 140.98C213.561 141.355 213.775 141.658 214.065 141.888C214.355 142.118 214.724 142.233 215.173 142.233ZM224.396 137.92L223.493 138.176C223.436 138.026 223.352 137.879 223.241 137.737C223.133 137.592 222.985 137.473 222.798 137.379C222.61 137.286 222.37 137.239 222.078 137.239C221.677 137.239 221.343 137.331 221.076 137.516C220.812 137.697 220.68 137.929 220.68 138.21C220.68 138.46 220.771 138.658 220.953 138.803C221.135 138.947 221.419 139.068 221.805 139.165L222.777 139.403C223.362 139.545 223.798 139.763 224.085 140.055C224.372 140.345 224.515 140.719 224.515 141.176C224.515 141.551 224.407 141.886 224.191 142.182C223.978 142.477 223.68 142.71 223.297 142.881C222.913 143.051 222.467 143.136 221.958 143.136C221.291 143.136 220.738 142.991 220.301 142.702C219.863 142.412 219.586 141.989 219.47 141.432L220.424 141.193C220.515 141.545 220.687 141.81 220.94 141.986C221.196 142.162 221.53 142.25 221.941 142.25C222.41 142.25 222.782 142.151 223.058 141.952C223.336 141.75 223.476 141.509 223.476 141.227C223.476 141 223.396 140.81 223.237 140.656C223.078 140.5 222.833 140.384 222.504 140.307L221.413 140.051C220.814 139.909 220.373 139.689 220.092 139.391C219.814 139.089 219.674 138.713 219.674 138.261C219.674 137.892 219.778 137.565 219.985 137.281C220.196 136.997 220.481 136.774 220.842 136.612C221.206 136.45 221.618 136.369 222.078 136.369C222.726 136.369 223.234 136.511 223.603 136.795C223.976 137.08 224.24 137.455 224.396 137.92ZM228.961 136.455V137.307H225.569V136.455H228.961ZM226.558 134.886H227.564V141.125C227.564 141.409 227.605 141.622 227.687 141.764C227.773 141.903 227.88 141.997 228.011 142.045C228.145 142.091 228.285 142.114 228.433 142.114C228.544 142.114 228.635 142.108 228.706 142.097C228.777 142.082 228.834 142.071 228.876 142.062L229.081 142.966C229.013 142.991 228.917 143.017 228.795 143.043C228.673 143.071 228.518 143.085 228.331 143.085C228.047 143.085 227.768 143.024 227.496 142.902C227.226 142.78 227.001 142.594 226.822 142.344C226.646 142.094 226.558 141.778 226.558 141.398V134.886ZM233.149 143.136C232.558 143.136 232.039 142.996 231.593 142.714C231.15 142.433 230.804 142.04 230.554 141.534C230.306 141.028 230.183 140.437 230.183 139.761C230.183 139.08 230.306 138.484 230.554 137.976C230.804 137.467 231.15 137.072 231.593 136.791C232.039 136.51 232.558 136.369 233.149 136.369C233.74 136.369 234.257 136.51 234.7 136.791C235.146 137.072 235.492 137.467 235.74 137.976C235.99 138.484 236.115 139.08 236.115 139.761C236.115 140.437 235.99 141.028 235.74 141.534C235.492 142.04 235.146 142.433 234.7 142.714C234.257 142.996 233.74 143.136 233.149 143.136ZM233.149 142.233C233.598 142.233 233.967 142.118 234.257 141.888C234.546 141.658 234.761 141.355 234.9 140.98C235.039 140.605 235.109 140.199 235.109 139.761C235.109 139.324 235.039 138.916 234.9 138.538C234.761 138.161 234.546 137.855 234.257 137.622C233.967 137.389 233.598 137.273 233.149 137.273C232.7 137.273 232.331 137.389 232.041 137.622C231.751 137.855 231.537 138.161 231.397 138.538C231.258 138.916 231.189 139.324 231.189 139.761C231.189 140.199 231.258 140.605 231.397 140.98C231.537 141.355 231.751 141.658 232.041 141.888C232.331 142.118 232.7 142.233 233.149 142.233Z" fill="#696974"/>
</g>
<g clip-path="url(#clip14_35_288)">
<rect x="185.5" y="58" width="10.8718" height="10" rx="5" fill="#3DD598"/>
<path d="M204.464 57.8182L207.487 66.3892H207.606L210.629 57.8182H211.921L208.183 68H206.91L203.171 57.8182H204.464ZM215.939 68.1591C215.203 68.1591 214.568 67.9967 214.035 67.6719C213.504 67.3438 213.095 66.8864 212.807 66.2997C212.522 65.7098 212.379 65.0237 212.379 64.2415C212.379 63.4593 212.522 62.7699 212.807 62.1733C213.095 61.5734 213.496 61.1061 214.01 60.7713C214.527 60.4332 215.13 60.2642 215.82 60.2642C216.217 60.2642 216.61 60.3305 216.998 60.4631C217.386 60.5956 217.739 60.8111 218.057 61.1094C218.375 61.4044 218.629 61.7955 218.817 62.2827C219.006 62.7699 219.101 63.3698 219.101 64.0824V64.5795H213.214V63.5653H217.908C217.908 63.1345 217.821 62.75 217.649 62.4119C217.48 62.0739 217.238 61.8071 216.923 61.6115C216.612 61.416 216.244 61.3182 215.82 61.3182C215.352 61.3182 214.948 61.4342 214.607 61.6662C214.268 61.8949 214.008 62.1932 213.826 62.5611C213.644 62.929 213.553 63.3234 213.553 63.7443V64.4205C213.553 64.9972 213.652 65.486 213.851 65.8871C214.053 66.2848 214.333 66.5881 214.691 66.7969C215.049 67.0024 215.465 67.1051 215.939 67.1051C216.247 67.1051 216.526 67.062 216.774 66.9759C217.026 66.8864 217.243 66.7538 217.425 66.5781C217.608 66.3991 217.749 66.1771 217.848 65.9119L218.982 66.2301C218.862 66.6146 218.662 66.9527 218.38 67.2443C218.098 67.5327 217.75 67.758 217.336 67.9205C216.922 68.0795 216.456 68.1591 215.939 68.1591ZM222.159 63.4062V68H220.986V60.3636H222.119V61.5568H222.219C222.398 61.169 222.669 60.8575 223.034 60.6222C223.399 60.3835 223.869 60.2642 224.446 60.2642C224.963 60.2642 225.415 60.3703 225.803 60.5824C226.191 60.7912 226.493 61.1094 226.708 61.5369C226.923 61.9612 227.031 62.4981 227.031 63.1477V68H225.858V63.2273C225.858 62.6274 225.702 62.16 225.39 61.8253C225.079 61.4872 224.651 61.3182 224.108 61.3182C223.733 61.3182 223.399 61.3994 223.104 61.5618C222.812 61.7242 222.582 61.9612 222.412 62.2727C222.243 62.5843 222.159 62.9621 222.159 63.4062ZM232.159 68.1591C231.522 68.1591 230.96 67.9983 230.473 67.6768C229.986 67.352 229.605 66.8946 229.33 66.3047C229.055 65.7114 228.917 65.0104 228.917 64.2017C228.917 63.3996 229.055 62.7036 229.33 62.1136C229.605 61.5237 229.988 61.0679 230.478 60.7464C230.969 60.425 231.536 60.2642 232.179 60.2642C232.676 60.2642 233.068 60.3471 233.357 60.5128C233.648 60.6752 233.871 60.8608 234.023 61.0696C234.179 61.2751 234.3 61.4441 234.386 61.5767H234.485V57.8182H235.659V68H234.525V66.8267H234.386C234.3 66.9659 234.177 67.1416 234.018 67.3537C233.859 67.5625 233.632 67.7498 233.337 67.9155C233.042 68.0779 232.649 68.1591 232.159 68.1591ZM232.318 67.1051C232.788 67.1051 233.186 66.9825 233.511 66.7372C233.836 66.4886 234.083 66.1456 234.252 65.7081C234.421 65.2673 234.505 64.7585 234.505 64.1818C234.505 63.6117 234.422 63.1129 234.257 62.6854C234.091 62.2545 233.846 61.9197 233.521 61.6811C233.196 61.4392 232.795 61.3182 232.318 61.3182C231.821 61.3182 231.406 61.4458 231.075 61.701C230.747 61.9529 230.5 62.2959 230.334 62.7301C230.172 63.161 230.09 63.6449 230.09 64.1818C230.09 64.7254 230.173 65.2192 230.339 65.6634C230.508 66.1042 230.757 66.4555 231.085 66.7173C231.416 66.9759 231.827 67.1051 232.318 67.1051ZM240.318 68.179C239.834 68.179 239.395 68.0878 239 67.9055C238.606 67.7199 238.292 67.4531 238.06 67.1051C237.828 66.7538 237.712 66.3295 237.712 65.8324C237.712 65.3949 237.799 65.0402 237.971 64.7685C238.143 64.4934 238.374 64.2779 238.662 64.1222C238.95 63.9664 239.269 63.8504 239.617 63.7741C239.968 63.6946 240.321 63.6316 240.676 63.5852C241.14 63.5256 241.516 63.4808 241.804 63.451C242.096 63.4179 242.308 63.3632 242.44 63.2869C242.576 63.2107 242.644 63.0781 242.644 62.8892V62.8494C242.644 62.3589 242.51 61.9777 242.242 61.706C241.976 61.4342 241.574 61.2983 241.033 61.2983C240.473 61.2983 240.034 61.4209 239.716 61.6662C239.398 61.9115 239.174 62.1733 239.045 62.4517L237.931 62.054C238.13 61.59 238.395 61.2287 238.727 60.9702C239.061 60.7083 239.426 60.526 239.82 60.4233C240.218 60.3172 240.609 60.2642 240.994 60.2642C241.239 60.2642 241.521 60.294 241.839 60.3537C242.16 60.41 242.47 60.5277 242.769 60.7067C243.07 60.8857 243.32 61.1558 243.519 61.517C243.718 61.8783 243.818 62.3622 243.818 62.9688V68H242.644V66.9659H242.585C242.505 67.1316 242.372 67.3089 242.187 67.4979C242.001 67.6868 241.754 67.8475 241.446 67.9801C241.138 68.1127 240.762 68.179 240.318 68.179ZM240.497 67.125C240.961 67.125 241.352 67.0339 241.67 66.8516C241.991 66.6693 242.233 66.4339 242.396 66.1456C242.561 65.8572 242.644 65.554 242.644 65.2358V64.1619C242.595 64.2216 242.485 64.2763 242.316 64.326C242.15 64.3724 241.958 64.4138 241.739 64.4503C241.524 64.4834 241.314 64.5133 241.108 64.5398C240.906 64.563 240.742 64.5829 240.616 64.5994C240.311 64.6392 240.026 64.7038 239.761 64.7933C239.499 64.8795 239.287 65.0104 239.124 65.1861C238.965 65.3584 238.886 65.5937 238.886 65.892C238.886 66.2997 239.037 66.608 239.338 66.8168C239.643 67.0223 240.029 67.125 240.497 67.125ZM258.449 61H257.216C257.143 60.6454 257.015 60.3338 256.833 60.0653C256.654 59.7969 256.435 59.5715 256.177 59.3892C255.922 59.2036 255.638 59.0644 255.327 58.9716C255.015 58.8788 254.69 58.8324 254.352 58.8324C253.736 58.8324 253.177 58.9882 252.677 59.2997C252.18 59.6113 251.784 60.0703 251.489 60.6768C251.197 61.2834 251.051 62.0275 251.051 62.9091C251.051 63.7907 251.197 64.5348 251.489 65.1413C251.784 65.7479 252.18 66.2069 252.677 66.5185C253.177 66.83 253.736 66.9858 254.352 66.9858C254.69 66.9858 255.015 66.9394 255.327 66.8466C255.638 66.7538 255.922 66.6162 256.177 66.4339C256.435 66.2483 256.654 66.0213 256.833 65.7528C257.015 65.4811 257.143 65.1695 257.216 64.8182H258.449C258.356 65.3385 258.187 65.8042 257.942 66.2152C257.696 66.6262 257.392 66.9759 257.027 67.2642C256.662 67.5492 256.253 67.7663 255.799 67.9155C255.348 68.0646 254.866 68.1392 254.352 68.1392C253.484 68.1392 252.712 67.9271 252.035 67.5028C251.359 67.0786 250.827 66.4754 250.44 65.6932C250.052 64.911 249.858 63.983 249.858 62.9091C249.858 61.8352 250.052 60.9072 250.44 60.125C250.827 59.3428 251.359 58.7396 252.035 58.3153C252.712 57.8911 253.484 57.679 254.352 57.679C254.866 57.679 255.348 57.7536 255.799 57.9027C256.253 58.0518 256.662 58.2706 257.027 58.5589C257.392 58.844 257.696 59.192 257.942 59.603C258.187 60.0107 258.356 60.4763 258.449 61ZM262.629 68.179C262.145 68.179 261.706 68.0878 261.312 67.9055C260.917 67.7199 260.604 67.4531 260.372 67.1051C260.14 66.7538 260.024 66.3295 260.024 65.8324C260.024 65.3949 260.11 65.0402 260.283 64.7685C260.455 64.4934 260.685 64.2779 260.974 64.1222C261.262 63.9664 261.58 63.8504 261.928 63.7741C262.28 63.6946 262.633 63.6316 262.987 63.5852C263.451 63.5256 263.827 63.4808 264.116 63.451C264.407 63.4179 264.62 63.3632 264.752 63.2869C264.888 63.2107 264.956 63.0781 264.956 62.8892V62.8494C264.956 62.3589 264.822 61.9777 264.553 61.706C264.288 61.4342 263.885 61.2983 263.345 61.2983C262.785 61.2983 262.346 61.4209 262.028 61.6662C261.71 61.9115 261.486 62.1733 261.357 62.4517L260.243 62.054C260.442 61.59 260.707 61.2287 261.038 60.9702C261.373 60.7083 261.738 60.526 262.132 60.4233C262.53 60.3172 262.921 60.2642 263.305 60.2642C263.551 60.2642 263.832 60.294 264.151 60.3537C264.472 60.41 264.782 60.5277 265.08 60.7067C265.382 60.8857 265.632 61.1558 265.831 61.517C266.03 61.8783 266.129 62.3622 266.129 62.9688V68H264.956V66.9659H264.896C264.817 67.1316 264.684 67.3089 264.499 67.4979C264.313 67.6868 264.066 67.8475 263.758 67.9801C263.45 68.1127 263.073 68.179 262.629 68.179ZM262.808 67.125C263.272 67.125 263.663 67.0339 263.982 66.8516C264.303 66.6693 264.545 66.4339 264.707 66.1456C264.873 65.8572 264.956 65.554 264.956 65.2358V64.1619C264.906 64.2216 264.797 64.2763 264.628 64.326C264.462 64.3724 264.27 64.4138 264.051 64.4503C263.836 64.4834 263.625 64.5133 263.42 64.5398C263.218 64.563 263.054 64.5829 262.928 64.5994C262.623 64.6392 262.338 64.7038 262.072 64.7933C261.811 64.8795 261.599 65.0104 261.436 65.1861C261.277 65.3584 261.197 65.5937 261.197 65.892C261.197 66.2997 261.348 66.608 261.65 66.8168C261.955 67.0223 262.341 67.125 262.808 67.125ZM273.78 62.0739L272.726 62.3722C272.66 62.1965 272.562 62.0258 272.433 61.8601C272.307 61.6911 272.134 61.5518 271.916 61.4425C271.697 61.3331 271.417 61.2784 271.075 61.2784C270.608 61.2784 270.219 61.3861 269.907 61.6016C269.599 61.8137 269.445 62.0838 269.445 62.4119C269.445 62.7036 269.551 62.9339 269.763 63.103C269.975 63.272 270.306 63.4129 270.757 63.5256L271.891 63.804C272.573 63.9697 273.082 64.2232 273.417 64.5646C273.752 64.9027 273.919 65.3385 273.919 65.8722C273.919 66.3097 273.793 66.7008 273.541 67.0455C273.293 67.3902 272.945 67.6619 272.497 67.8608C272.05 68.0597 271.529 68.1591 270.936 68.1591C270.157 68.1591 269.513 67.9901 269.002 67.652C268.492 67.3139 268.169 66.8201 268.033 66.1705L269.146 65.892C269.252 66.303 269.453 66.6113 269.748 66.8168C270.046 67.0223 270.436 67.125 270.916 67.125C271.463 67.125 271.897 67.009 272.219 66.777C272.544 66.5417 272.706 66.2599 272.706 65.9318C272.706 65.6667 272.613 65.4446 272.428 65.2656C272.242 65.0833 271.957 64.9474 271.573 64.858L270.3 64.5597C269.6 64.3939 269.087 64.1371 268.759 63.7891C268.434 63.4377 268.271 62.9986 268.271 62.4716C268.271 62.0407 268.392 61.6596 268.634 61.3281C268.88 60.9967 269.213 60.7365 269.634 60.5476C270.058 60.3587 270.538 60.2642 271.075 60.2642C271.831 60.2642 272.424 60.4299 272.855 60.7614C273.289 61.0928 273.598 61.5303 273.78 62.0739ZM278.888 68.1591C278.198 68.1591 277.593 67.995 277.073 67.6669C276.556 67.3388 276.151 66.8797 275.86 66.2898C275.571 65.6998 275.427 65.0104 275.427 64.2216C275.427 63.4261 275.571 62.7318 275.86 62.1385C276.151 61.5452 276.556 61.0845 277.073 60.7564C277.593 60.4283 278.198 60.2642 278.888 60.2642C279.577 60.2642 280.18 60.4283 280.697 60.7564C281.218 61.0845 281.622 61.5452 281.91 62.1385C282.202 62.7318 282.348 63.4261 282.348 64.2216C282.348 65.0104 282.202 65.6998 281.91 66.2898C281.622 66.8797 281.218 67.3388 280.697 67.6669C280.18 67.995 279.577 68.1591 278.888 68.1591ZM278.888 67.1051C279.411 67.1051 279.842 66.9709 280.18 66.7024C280.518 66.4339 280.768 66.081 280.931 65.6435C281.093 65.206 281.174 64.732 281.174 64.2216C281.174 63.7112 281.093 63.2356 280.931 62.7947C280.768 62.3539 280.518 61.9976 280.18 61.7259C279.842 61.4541 279.411 61.3182 278.888 61.3182C278.364 61.3182 277.933 61.4541 277.595 61.7259C277.257 61.9976 277.007 62.3539 276.844 62.7947C276.682 63.2356 276.601 63.7112 276.601 64.2216C276.601 64.732 276.682 65.206 276.844 65.6435C277.007 66.081 277.257 66.4339 277.595 66.7024C277.933 66.9709 278.364 67.1051 278.888 67.1051ZM289.648 62.0739L288.594 62.3722C288.528 62.1965 288.43 62.0258 288.301 61.8601C288.175 61.6911 288.002 61.5518 287.784 61.4425C287.565 61.3331 287.285 61.2784 286.943 61.2784C286.476 61.2784 286.087 61.3861 285.775 61.6016C285.467 61.8137 285.313 62.0838 285.313 62.4119C285.313 62.7036 285.419 62.9339 285.631 63.103C285.843 63.272 286.174 63.4129 286.625 63.5256L287.759 63.804C288.441 63.9697 288.95 64.2232 289.285 64.5646C289.62 64.9027 289.787 65.3385 289.787 65.8722C289.787 66.3097 289.661 66.7008 289.409 67.0455C289.161 67.3902 288.813 67.6619 288.365 67.8608C287.918 68.0597 287.397 68.1591 286.804 68.1591C286.025 68.1591 285.381 67.9901 284.87 67.652C284.36 67.3139 284.037 66.8201 283.901 66.1705L285.014 65.892C285.12 66.303 285.321 66.6113 285.616 66.8168C285.914 67.0223 286.304 67.125 286.784 67.125C287.331 67.125 287.765 67.009 288.087 66.777C288.412 66.5417 288.574 66.2599 288.574 65.9318C288.574 65.6667 288.481 65.4446 288.296 65.2656C288.11 65.0833 287.825 64.9474 287.44 64.858L286.168 64.5597C285.468 64.3939 284.955 64.1371 284.627 63.7891C284.302 63.4377 284.139 62.9986 284.139 62.4716C284.139 62.0407 284.26 61.6596 284.502 61.3281C284.748 60.9967 285.081 60.7365 285.502 60.5476C285.926 60.3587 286.406 60.2642 286.943 60.2642C287.699 60.2642 288.292 60.4299 288.723 60.7614C289.157 61.0928 289.466 61.5303 289.648 62.0739Z" fill="#44444F"/>
</g>
<g clip-path="url(#clip15_35_288)">
<rect x="17.5" y="58" width="10.9565" height="10" rx="5" fill="#0062FF"/>
<path d="M36.9549 57.8182L39.9776 66.3892H40.097L43.1197 57.8182H44.4123L40.6737 68H39.4009L35.6623 57.8182H36.9549ZM48.4299 68.1591C47.6941 68.1591 47.0594 67.9967 46.5258 67.6719C45.9955 67.3438 45.5862 66.8864 45.2978 66.2997C45.0128 65.7098 44.8703 65.0237 44.8703 64.2415C44.8703 63.4593 45.0128 62.7699 45.2978 62.1733C45.5862 61.5734 45.9872 61.1061 46.5009 60.7713C47.018 60.4332 47.6212 60.2642 48.3106 60.2642C48.7083 60.2642 49.1011 60.3305 49.4889 60.4631C49.8767 60.5956 50.2296 60.8111 50.5478 61.1094C50.866 61.4044 51.1196 61.7955 51.3085 62.2827C51.4974 62.7699 51.5919 63.3698 51.5919 64.0824V64.5795H45.7055V63.5653H50.3987C50.3987 63.1345 50.3125 62.75 50.1401 62.4119C49.9711 62.0739 49.7292 61.8071 49.4143 61.6115C49.1027 61.416 48.7348 61.3182 48.3106 61.3182C47.8433 61.3182 47.4389 61.4342 47.0975 61.6662C46.7595 61.8949 46.4993 62.1932 46.317 62.5611C46.1347 62.929 46.0436 63.3234 46.0436 63.7443V64.4205C46.0436 64.9972 46.143 65.486 46.3419 65.8871C46.544 66.2848 46.8241 66.5881 47.1821 66.7969C47.54 67.0024 47.956 67.1051 48.4299 67.1051C48.7382 67.1051 49.0166 67.062 49.2651 66.9759C49.517 66.8864 49.7341 66.7538 49.9164 66.5781C50.0987 66.3991 50.2396 66.1771 50.339 65.9119L51.4725 66.2301C51.3532 66.6146 51.1527 66.9527 50.871 67.2443C50.5892 67.5327 50.2412 67.758 49.8269 67.9205C49.4126 68.0795 48.947 68.1591 48.4299 68.1591ZM54.6499 63.4062V68H53.4767V60.3636H54.6102V61.5568H54.7096C54.8886 61.169 55.1604 60.8575 55.5249 60.6222C55.8895 60.3835 56.3602 60.2642 56.9369 60.2642C57.4539 60.2642 57.9063 60.3703 58.2941 60.5824C58.6819 60.7912 58.9835 61.1094 59.199 61.5369C59.4144 61.9612 59.5221 62.4981 59.5221 63.1477V68H58.3488V63.2273C58.3488 62.6274 58.193 62.16 57.8815 61.8253C57.5699 61.4872 57.1424 61.3182 56.5988 61.3182C56.2243 61.3182 55.8895 61.3994 55.5946 61.5618C55.3029 61.7242 55.0725 61.9612 54.9035 62.2727C54.7345 62.5843 54.6499 62.9621 54.6499 63.4062ZM64.6496 68.1591C64.0133 68.1591 63.4515 67.9983 62.9643 67.6768C62.477 67.352 62.0959 66.8946 61.8208 66.3047C61.5457 65.7114 61.4082 65.0104 61.4082 64.2017C61.4082 63.3996 61.5457 62.7036 61.8208 62.1136C62.0959 61.5237 62.4787 61.0679 62.9692 60.7464C63.4598 60.425 64.0265 60.2642 64.6695 60.2642C65.1667 60.2642 65.5594 60.3471 65.8478 60.5128C66.1394 60.6752 66.3615 60.8608 66.514 61.0696C66.6698 61.2751 66.7907 61.4441 66.8769 61.5767H66.9763V57.8182H68.1496V68H67.0161V66.8267H66.8769C66.7907 66.9659 66.6681 67.1416 66.509 67.3537C66.3499 67.5625 66.1229 67.7498 65.8279 67.9155C65.5329 68.0779 65.1402 68.1591 64.6496 68.1591ZM64.8087 67.1051C65.2794 67.1051 65.6771 66.9825 66.0019 66.7372C66.3267 66.4886 66.5736 66.1456 66.7427 65.7081C66.9117 65.2673 66.9962 64.7585 66.9962 64.1818C66.9962 63.6117 66.9134 63.1129 66.7476 62.6854C66.5819 62.2545 66.3367 61.9197 66.0118 61.6811C65.687 61.4392 65.286 61.3182 64.8087 61.3182C64.3116 61.3182 63.8973 61.4458 63.5658 61.701C63.2377 61.9529 62.9908 62.2959 62.8251 62.7301C62.6626 63.161 62.5814 63.6449 62.5814 64.1818C62.5814 64.7254 62.6643 65.2192 62.83 65.6634C62.9991 66.1042 63.2476 66.4555 63.5758 66.7173C63.9072 66.9759 64.3182 67.1051 64.8087 67.1051ZM72.8086 68.179C72.3247 68.179 71.8855 68.0878 71.4911 67.9055C71.0967 67.7199 70.7835 67.4531 70.5515 67.1051C70.3195 66.7538 70.2035 66.3295 70.2035 65.8324C70.2035 65.3949 70.2896 65.0402 70.462 64.7685C70.6343 64.4934 70.8647 64.2779 71.153 64.1222C71.4414 63.9664 71.7596 63.8504 72.1076 63.7741C72.4589 63.6946 72.8119 63.6316 73.1665 63.5852C73.6305 63.5256 74.0067 63.4808 74.2951 63.451C74.5868 63.4179 74.7989 63.3632 74.9314 63.2869C75.0673 63.2107 75.1353 63.0781 75.1353 62.8892V62.8494C75.1353 62.3589 75.0011 61.9777 74.7326 61.706C74.4674 61.4342 74.0647 61.2983 73.5245 61.2983C72.9644 61.2983 72.5252 61.4209 72.207 61.6662C71.8888 61.9115 71.6651 62.1733 71.5359 62.4517L70.4222 62.054C70.6211 61.59 70.8862 61.2287 71.2177 60.9702C71.5524 60.7083 71.917 60.526 72.3114 60.4233C72.7091 60.3172 73.1002 60.2642 73.4847 60.2642C73.73 60.2642 74.0117 60.294 74.3299 60.3537C74.6514 60.41 74.9613 60.5277 75.2596 60.7067C75.5612 60.8857 75.8114 61.1558 76.0103 61.517C76.2091 61.8783 76.3086 62.3622 76.3086 62.9688V68H75.1353V66.9659H75.0756C74.9961 67.1316 74.8635 67.3089 74.6779 67.4979C74.4923 67.6868 74.2454 67.8475 73.9371 67.9801C73.6289 68.1127 73.2527 68.179 72.8086 68.179ZM72.9876 67.125C73.4516 67.125 73.8427 67.0339 74.1609 66.8516C74.4823 66.6693 74.7243 66.4339 74.8867 66.1456C75.0524 65.8572 75.1353 65.554 75.1353 65.2358V64.1619C75.0856 64.2216 74.9762 64.2763 74.8072 64.326C74.6414 64.3724 74.4492 64.4138 74.2305 64.4503C74.015 64.4834 73.8046 64.5133 73.5991 64.5398C73.3969 64.563 73.2328 64.5829 73.1069 64.5994C72.802 64.6392 72.5169 64.7038 72.2518 64.7933C71.9899 64.8795 71.7778 65.0104 71.6154 65.1861C71.4563 65.3584 71.3768 65.5937 71.3768 65.892C71.3768 66.2997 71.5276 66.608 71.8292 66.8168C72.1341 67.0223 72.5202 67.125 72.9876 67.125ZM83.9592 62.0739L82.9052 62.3722C82.8389 62.1965 82.7411 62.0258 82.6119 61.8601C82.4859 61.6911 82.3136 61.5518 82.0948 61.4425C81.8761 61.3331 81.596 61.2784 81.2546 61.2784C80.7873 61.2784 80.3979 61.3861 80.0863 61.6016C79.7781 61.8137 79.624 62.0838 79.624 62.4119C79.624 62.7036 79.73 62.9339 79.9421 63.103C80.1543 63.272 80.4857 63.4129 80.9365 63.5256L82.07 63.804C82.7527 63.9697 83.2615 64.2232 83.5963 64.5646C83.931 64.9027 84.0984 65.3385 84.0984 65.8722C84.0984 66.3097 83.9724 66.7008 83.7205 67.0455C83.472 67.3902 83.124 67.6619 82.6765 67.8608C82.2291 68.0597 81.7087 68.1591 81.1154 68.1591C80.3365 68.1591 79.6919 67.9901 79.1815 67.652C78.6711 67.3139 78.3479 66.8201 78.212 66.1705L79.3257 65.892C79.4317 66.303 79.6322 66.6113 79.9272 66.8168C80.2255 67.0223 80.615 67.125 81.0955 67.125C81.6424 67.125 82.0766 67.009 82.3981 66.777C82.7229 66.5417 82.8853 66.2599 82.8853 65.9318C82.8853 65.6667 82.7925 65.4446 82.6069 65.2656C82.4213 65.0833 82.1363 64.9474 81.7518 64.858L80.4791 64.5597C79.7797 64.3939 79.266 64.1371 78.9379 63.7891C78.6131 63.4377 78.4507 62.9986 78.4507 62.4716C78.4507 62.0407 78.5716 61.6596 78.8136 61.3281C79.0588 60.9967 79.3919 60.7365 79.8129 60.5476C80.2371 60.3587 80.7177 60.2642 81.2546 60.2642C82.0103 60.2642 82.6036 60.4299 83.0345 60.7614C83.4687 61.0928 83.7769 61.5303 83.9592 62.0739ZM90.1611 57.8182H91.6327L95.093 66.2699H95.2123L98.6725 57.8182H100.144V68H98.9907V60.2642H98.8912L95.7094 68H94.5958L91.414 60.2642H91.3145V68H90.1611V57.8182ZM104.804 68.179C104.32 68.179 103.881 68.0878 103.487 67.9055C103.092 67.7199 102.779 67.4531 102.547 67.1051C102.315 66.7538 102.199 66.3295 102.199 65.8324C102.199 65.3949 102.285 65.0402 102.458 64.7685C102.63 64.4934 102.86 64.2779 103.149 64.1222C103.437 63.9664 103.755 63.8504 104.103 63.7741C104.455 63.6946 104.808 63.6316 105.162 63.5852C105.626 63.5256 106.002 63.4808 106.291 63.451C106.582 63.4179 106.795 63.3632 106.927 63.2869C107.063 63.2107 107.131 63.0781 107.131 62.8892V62.8494C107.131 62.3589 106.997 61.9777 106.728 61.706C106.463 61.4342 106.06 61.2983 105.52 61.2983C104.96 61.2983 104.521 61.4209 104.203 61.6662C103.885 61.9115 103.661 62.1733 103.532 62.4517L102.418 62.054C102.617 61.59 102.882 61.2287 103.213 60.9702C103.548 60.7083 103.913 60.526 104.307 60.4233C104.705 60.3172 105.096 60.2642 105.48 60.2642C105.726 60.2642 106.007 60.294 106.326 60.3537C106.647 60.41 106.957 60.5277 107.255 60.7067C107.557 60.8857 107.807 61.1558 108.006 61.517C108.205 61.8783 108.304 62.3622 108.304 62.9688V68H107.131V66.9659H107.071C106.992 67.1316 106.859 67.3089 106.674 67.4979C106.488 67.6868 106.241 67.8475 105.933 67.9801C105.625 68.1127 105.248 68.179 104.804 68.179ZM104.983 67.125C105.447 67.125 105.838 67.0339 106.157 66.8516C106.478 66.6693 106.72 66.4339 106.882 66.1456C107.048 65.8572 107.131 65.554 107.131 65.2358V64.1619C107.081 64.2216 106.972 64.2763 106.803 64.326C106.637 64.3724 106.445 64.4138 106.226 64.4503C106.011 64.4834 105.8 64.5133 105.595 64.5398C105.393 64.563 105.229 64.5829 105.103 64.5994C104.798 64.6392 104.513 64.7038 104.247 64.7933C103.986 64.8795 103.774 65.0104 103.611 65.1861C103.452 65.3584 103.372 65.5937 103.372 65.892C103.372 66.2997 103.523 66.608 103.825 66.8168C104.13 67.0223 104.516 67.125 104.983 67.125ZM110.546 68V60.3636H111.679V61.517H111.759C111.898 61.1392 112.15 60.8326 112.515 60.5973C112.879 60.362 113.29 60.2443 113.747 60.2443C113.834 60.2443 113.941 60.246 114.071 60.2493C114.2 60.2526 114.298 60.2576 114.364 60.2642V61.4574C114.324 61.4474 114.233 61.4325 114.091 61.4126C113.951 61.3894 113.804 61.3778 113.648 61.3778C113.277 61.3778 112.945 61.4557 112.654 61.6115C112.365 61.764 112.137 61.9761 111.968 62.2479C111.802 62.5163 111.719 62.8229 111.719 63.1676V68H110.546ZM116.949 65.2159L116.929 63.7642H117.167L120.508 60.3636H121.96L118.4 63.9631H118.301L116.949 65.2159ZM115.855 68V57.8182H117.028V68H115.855ZM120.707 68L117.724 64.2216L118.559 63.4062L122.199 68H120.707ZM126.457 68.1591C125.721 68.1591 125.087 67.9967 124.553 67.6719C124.023 67.3438 123.614 66.8864 123.325 66.2997C123.04 65.7098 122.898 65.0237 122.898 64.2415C122.898 63.4593 123.04 62.7699 123.325 62.1733C123.614 61.5734 124.015 61.1061 124.528 60.7713C125.045 60.4332 125.649 60.2642 126.338 60.2642C126.736 60.2642 127.128 60.3305 127.516 60.4631C127.904 60.5956 128.257 60.8111 128.575 61.1094C128.893 61.4044 129.147 61.7955 129.336 62.2827C129.525 62.7699 129.619 63.3698 129.619 64.0824V64.5795H123.733V63.5653H128.426C128.426 63.1345 128.34 62.75 128.167 62.4119C127.998 62.0739 127.757 61.8071 127.442 61.6115C127.13 61.416 126.762 61.3182 126.338 61.3182C125.871 61.3182 125.466 61.4342 125.125 61.6662C124.787 61.8949 124.527 62.1932 124.344 62.5611C124.162 62.929 124.071 63.3234 124.071 63.7443V64.4205C124.071 64.9972 124.17 65.486 124.369 65.8871C124.571 66.2848 124.851 66.5881 125.209 66.7969C125.567 67.0024 125.983 67.1051 126.457 67.1051C126.766 67.1051 127.044 67.062 127.292 66.9759C127.544 66.8864 127.761 66.7538 127.944 66.5781C128.126 66.3991 128.267 66.1771 128.366 65.9119L129.5 66.2301C129.381 66.6146 129.18 66.9527 128.898 67.2443C128.617 67.5327 128.269 67.758 127.854 67.9205C127.44 68.0795 126.974 68.1591 126.457 68.1591ZM134.825 60.3636V61.358H130.868V60.3636H134.825ZM132.021 58.5341H133.194V65.8125C133.194 66.1439 133.242 66.3925 133.339 66.5582C133.438 66.7206 133.564 66.83 133.716 66.8864C133.872 66.9394 134.036 66.9659 134.209 66.9659C134.338 66.9659 134.444 66.9593 134.527 66.946C134.61 66.9295 134.676 66.9162 134.726 66.9062L134.964 67.9602C134.885 67.9901 134.774 68.0199 134.631 68.0497C134.489 68.0829 134.308 68.0994 134.089 68.0994C133.758 68.0994 133.433 68.0282 133.115 67.8857C132.8 67.7431 132.538 67.526 132.329 67.2344C132.124 66.9427 132.021 66.5748 132.021 66.1307V58.5341ZM136.69 68V60.3636H137.863V68H136.69ZM137.287 59.0909C137.058 59.0909 136.861 59.013 136.695 58.8572C136.533 58.7015 136.451 58.5142 136.451 58.2955C136.451 58.0767 136.533 57.8894 136.695 57.7337C136.861 57.5779 137.058 57.5 137.287 57.5C137.515 57.5 137.711 57.5779 137.873 57.7337C138.039 57.8894 138.122 58.0767 138.122 58.2955C138.122 58.5142 138.039 58.7015 137.873 58.8572C137.711 59.013 137.515 59.0909 137.287 59.0909ZM141.285 63.4062V68H140.112V60.3636H141.246V61.5568H141.345C141.524 61.169 141.796 60.8575 142.16 60.6222C142.525 60.3835 142.996 60.2642 143.572 60.2642C144.089 60.2642 144.542 60.3703 144.93 60.5824C145.317 60.7912 145.619 61.1094 145.835 61.5369C146.05 61.9612 146.158 62.4981 146.158 63.1477V68H144.984V63.2273C144.984 62.6274 144.829 62.16 144.517 61.8253C144.205 61.4872 143.778 61.3182 143.234 61.3182C142.86 61.3182 142.525 61.3994 142.23 61.5618C141.938 61.7242 141.708 61.9612 141.539 62.2727C141.37 62.5843 141.285 62.9621 141.285 63.4062ZM151.484 71.0227C150.917 71.0227 150.43 70.9498 150.022 70.804C149.615 70.6615 149.275 70.4725 149.003 70.2372C148.735 70.0052 148.521 69.7566 148.362 69.4915L149.297 68.8352C149.403 68.9744 149.537 69.1335 149.699 69.3125C149.862 69.4948 150.084 69.6522 150.365 69.7848C150.65 69.9207 151.023 69.9886 151.484 69.9886C152.101 69.9886 152.609 69.8395 153.01 69.5412C153.411 69.2429 153.612 68.7756 153.612 68.1392V66.5881H153.512C153.426 66.7273 153.304 66.8996 153.145 67.1051C152.989 67.3073 152.763 67.4879 152.468 67.647C152.177 67.8028 151.782 67.8807 151.285 67.8807C150.669 67.8807 150.115 67.7348 149.625 67.4432C149.137 67.1515 148.751 66.7273 148.466 66.1705C148.185 65.6136 148.044 64.9375 148.044 64.142C148.044 63.3598 148.181 62.6787 148.456 62.0987C148.731 61.5154 149.114 61.0646 149.605 60.7464C150.095 60.425 150.662 60.2642 151.305 60.2642C151.802 60.2642 152.197 60.3471 152.488 60.5128C152.783 60.6752 153.009 60.8608 153.164 61.0696C153.324 61.2751 153.446 61.4441 153.532 61.5767H153.652V60.3636H154.785V68.2188C154.785 68.875 154.636 69.4086 154.338 69.8196C154.043 70.2339 153.645 70.5372 153.145 70.7294C152.647 70.925 152.094 71.0227 151.484 71.0227ZM151.444 66.8267C151.915 66.8267 152.313 66.719 152.637 66.5036C152.962 66.2881 153.209 65.9782 153.378 65.5739C153.547 65.1695 153.632 64.6856 153.632 64.1222C153.632 63.572 153.549 63.0864 153.383 62.6655C153.217 62.2446 152.972 61.9148 152.647 61.6761C152.323 61.4375 151.922 61.3182 151.444 61.3182C150.947 61.3182 150.533 61.4441 150.201 61.696C149.873 61.9479 149.626 62.286 149.461 62.7102C149.298 63.1345 149.217 63.6051 149.217 64.1222C149.217 64.6525 149.3 65.1214 149.466 65.5291C149.635 65.9335 149.883 66.2517 150.211 66.4837C150.543 66.7124 150.954 66.8267 151.444 66.8267Z" fill="#44444F"/>
</g>
<path d="M18.732 32V20.08H23.068C23.868 20.08 24.572 20.2293 25.18 20.528C25.788 20.816 26.2627 21.2427 26.604 21.808C26.956 22.3627 27.132 23.0293 27.132 23.808C27.132 24.6293 26.924 25.3333 26.508 25.92C26.1027 26.5067 25.5533 26.9333 24.86 27.2L27.612 32H25.468L22.54 26.8L23.772 27.52H20.62V32H18.732ZM20.62 25.84H23.1C23.5373 25.84 23.916 25.7547 24.236 25.584C24.556 25.4133 24.8013 25.1787 24.972 24.88C25.1533 24.5707 25.244 24.208 25.244 23.792C25.244 23.376 25.1533 23.0187 24.972 22.72C24.8013 22.4107 24.556 22.176 24.236 22.016C23.916 21.8453 23.5373 21.76 23.1 21.76H20.62V25.84ZM32.7044 32.192C31.8404 32.192 31.0724 31.9947 30.4004 31.6C29.739 31.1947 29.2217 30.6507 28.8484 29.968C28.475 29.2747 28.2884 28.5013 28.2884 27.648C28.2884 26.7733 28.475 26 28.8484 25.328C29.2324 24.656 29.7444 24.128 30.3844 23.744C31.0244 23.3493 31.7497 23.152 32.5604 23.152C33.211 23.152 33.7924 23.264 34.3044 23.488C34.8164 23.712 35.2484 24.0213 35.6004 24.416C35.9524 24.8 36.219 25.2427 36.4004 25.744C36.5924 26.2453 36.6884 26.7787 36.6884 27.344C36.6884 27.4827 36.683 27.6267 36.6724 27.776C36.6617 27.9253 36.6404 28.064 36.6084 28.192H29.7124V26.752H35.5844L34.7204 27.408C34.827 26.8853 34.7897 26.4213 34.6084 26.016C34.4377 25.6 34.171 25.2747 33.8084 25.04C33.4564 24.7947 33.0404 24.672 32.5604 24.672C32.0804 24.672 31.6537 24.7947 31.2804 25.04C30.907 25.2747 30.619 25.616 30.4164 26.064C30.2137 26.5013 30.1337 27.0347 30.1764 27.664C30.123 28.2507 30.203 28.7627 30.4164 29.2C30.6404 29.6373 30.9497 29.9787 31.3444 30.224C31.7497 30.4693 32.2084 30.592 32.7204 30.592C33.243 30.592 33.6857 30.4747 34.0484 30.24C34.4217 30.0053 34.715 29.7013 34.9284 29.328L36.4004 30.048C36.2297 30.4533 35.963 30.8213 35.6004 31.152C35.2484 31.472 34.8217 31.728 34.3204 31.92C33.8297 32.1013 33.291 32.192 32.7044 32.192ZM41.7529 32.192C40.8675 32.192 40.0889 31.9733 39.4169 31.536C38.7555 31.0987 38.2915 30.512 38.0249 29.776L39.4169 29.12C39.6515 29.6107 39.9715 30 40.3769 30.288C40.7929 30.576 41.2515 30.72 41.7529 30.72C42.1795 30.72 42.5262 30.624 42.7929 30.432C43.0595 30.24 43.1929 29.9787 43.1929 29.648C43.1929 29.4347 43.1342 29.264 43.0169 29.136C42.8995 28.9973 42.7502 28.8853 42.5689 28.8C42.3982 28.7147 42.2222 28.6507 42.0409 28.608L40.6809 28.224C39.9342 28.0107 39.3742 27.6907 39.0009 27.264C38.6382 26.8267 38.4569 26.32 38.4569 25.744C38.4569 25.2213 38.5902 24.768 38.8569 24.384C39.1235 23.9893 39.4915 23.6853 39.9609 23.472C40.4302 23.2587 40.9582 23.152 41.5449 23.152C42.3342 23.152 43.0382 23.3493 43.6569 23.744C44.2755 24.128 44.7129 24.6667 44.9689 25.36L43.5769 26.016C43.4062 25.6 43.1342 25.2693 42.7609 25.024C42.3982 24.7787 41.9875 24.656 41.5289 24.656C41.1342 24.656 40.8195 24.752 40.5849 24.944C40.3502 25.1253 40.2329 25.3653 40.2329 25.664C40.2329 25.8667 40.2862 26.0373 40.3929 26.176C40.4995 26.304 40.6382 26.4107 40.8089 26.496C40.9795 26.5707 41.1555 26.6347 41.3369 26.688L42.7449 27.104C43.4595 27.3067 44.0089 27.6267 44.3929 28.064C44.7769 28.4907 44.9689 29.0027 44.9689 29.6C44.9689 30.112 44.8302 30.5653 44.5529 30.96C44.2862 31.344 43.9129 31.648 43.4329 31.872C42.9529 32.0853 42.3929 32.192 41.7529 32.192ZM49.9284 32.192C49.2777 32.192 48.707 32.048 48.2164 31.76C47.7257 31.4613 47.3417 31.0507 47.0644 30.528C46.7977 29.9947 46.6644 29.3813 46.6644 28.688V23.344H48.4724V28.528C48.4724 28.9227 48.5524 29.2693 48.7124 29.568C48.8724 29.8667 49.0964 30.1013 49.3844 30.272C49.6724 30.432 50.003 30.512 50.3764 30.512C50.7604 30.512 51.0964 30.4267 51.3844 30.256C51.6724 30.0853 51.8964 29.8453 52.0564 29.536C52.227 29.2267 52.3124 28.864 52.3124 28.448V23.344H54.1044V32H52.3924V30.304L52.5844 30.528C52.3817 31.0613 52.0457 31.472 51.5764 31.76C51.107 32.048 50.5577 32.192 49.9284 32.192ZM56.3154 32V19.888H58.1234V32H56.3154ZM64.0813 32.096C63.1746 32.096 62.4706 31.84 61.9693 31.328C61.4679 30.816 61.2173 30.096 61.2173 29.168V24.976H59.6973V23.344H59.9373C60.3426 23.344 60.6573 23.2267 60.8813 22.992C61.1053 22.7573 61.2173 22.4373 61.2173 22.032V21.36H63.0253V23.344H64.9933V24.976H63.0253V29.088C63.0253 29.3867 63.0733 29.6427 63.1693 29.856C63.2653 30.0587 63.4199 30.2187 63.6333 30.336C63.8466 30.4427 64.1239 30.496 64.4653 30.496C64.5506 30.496 64.6466 30.4907 64.7533 30.48C64.8599 30.4693 64.9613 30.4587 65.0573 30.448V32C64.9079 32.0213 64.7426 32.0427 64.5613 32.064C64.3799 32.0853 64.2199 32.096 64.0813 32.096ZM69.4355 32.192C68.8488 32.192 68.3315 32.0907 67.8835 31.888C67.4462 31.6747 67.1048 31.3867 66.8595 31.024C66.6142 30.6507 66.4915 30.2133 66.4915 29.712C66.4915 29.2427 66.5928 28.8213 66.7955 28.448C67.0088 28.0747 67.3342 27.76 67.7715 27.504C68.2088 27.248 68.7582 27.0667 69.4195 26.96L72.4275 26.464V27.888L69.7715 28.352C69.2915 28.4373 68.9395 28.592 68.7155 28.816C68.4915 29.0293 68.3795 29.3067 68.3795 29.648C68.3795 29.9787 68.5022 30.2507 68.7475 30.464C69.0035 30.6667 69.3288 30.768 69.7235 30.768C70.2142 30.768 70.6408 30.6613 71.0035 30.448C71.3768 30.2347 71.6648 29.952 71.8675 29.6C72.0702 29.2373 72.1715 28.8373 72.1715 28.4V26.176C72.1715 25.7493 72.0115 25.4027 71.6915 25.136C71.3822 24.8587 70.9662 24.72 70.4435 24.72C69.9635 24.72 69.5422 24.848 69.1795 25.104C68.8275 25.3493 68.5662 25.6693 68.3955 26.064L66.8915 25.312C67.0515 24.8853 67.3128 24.512 67.6755 24.192C68.0382 23.8613 68.4595 23.6053 68.9395 23.424C69.4302 23.2427 69.9475 23.152 70.4915 23.152C71.1742 23.152 71.7768 23.28 72.2995 23.536C72.8328 23.792 73.2435 24.1493 73.5315 24.608C73.8302 25.056 73.9795 25.5787 73.9795 26.176V32H72.2515V30.432L72.6195 30.48C72.4168 30.832 72.1555 31.136 71.8355 31.392C71.5262 31.648 71.1688 31.8453 70.7635 31.984C70.3688 32.1227 69.9262 32.192 69.4355 32.192ZM80.1935 32.192C79.3615 32.192 78.6148 31.9947 77.9535 31.6C77.3028 31.1947 76.7855 30.6507 76.4015 29.968C76.0282 29.2853 75.8415 28.5173 75.8415 27.664C75.8415 26.8107 76.0335 26.0427 76.4175 25.36C76.8015 24.6773 77.3188 24.1387 77.9695 23.744C78.6202 23.3493 79.3562 23.152 80.1775 23.152C80.8708 23.152 81.4842 23.2907 82.0175 23.568C82.5508 23.8453 82.9722 24.2293 83.2815 24.72L83.0095 25.136V19.888H84.8015V32H83.0895V30.24L83.2975 30.576C82.9988 31.0987 82.5722 31.4987 82.0175 31.776C81.4628 32.0533 80.8548 32.192 80.1935 32.192ZM80.3695 30.512C80.8708 30.512 81.3188 30.3893 81.7135 30.144C82.1188 29.8987 82.4335 29.5627 82.6575 29.136C82.8922 28.6987 83.0095 28.208 83.0095 27.664C83.0095 27.12 82.8922 26.6347 82.6575 26.208C82.4335 25.7813 82.1188 25.4453 81.7135 25.2C81.3188 24.9547 80.8708 24.832 80.3695 24.832C79.8682 24.832 79.4148 24.9547 79.0095 25.2C78.6042 25.4453 78.2895 25.7813 78.0655 26.208C77.8415 26.6347 77.7295 27.12 77.7295 27.664C77.7295 28.208 77.8415 28.6987 78.0655 29.136C78.2895 29.5627 78.5988 29.8987 78.9935 30.144C79.3988 30.3893 79.8575 30.512 80.3695 30.512ZM91.1883 32.192C90.3563 32.192 89.5936 31.9947 88.9003 31.6C88.2176 31.2053 87.6736 30.6667 87.2683 29.984C86.8629 29.3013 86.6603 28.528 86.6603 27.664C86.6603 26.7893 86.8629 26.016 87.2683 25.344C87.6736 24.6613 88.2176 24.128 88.9003 23.744C89.5829 23.3493 90.3456 23.152 91.1883 23.152C92.0416 23.152 92.8043 23.3493 93.4763 23.744C94.1589 24.128 94.6976 24.6613 95.0923 25.344C95.4976 26.016 95.7003 26.7893 95.7003 27.664C95.7003 28.5387 95.4976 29.3173 95.0923 30C94.6869 30.6827 94.1429 31.2213 93.4603 31.616C92.7776 32 92.0203 32.192 91.1883 32.192ZM91.1883 30.512C91.7003 30.512 92.1536 30.3893 92.5483 30.144C92.9429 29.8987 93.2523 29.5627 93.4763 29.136C93.7109 28.6987 93.8283 28.208 93.8283 27.664C93.8283 27.12 93.7109 26.6347 93.4763 26.208C93.2523 25.7813 92.9429 25.4453 92.5483 25.2C92.1536 24.9547 91.7003 24.832 91.1883 24.832C90.6869 24.832 90.2336 24.9547 89.8283 25.2C89.4336 25.4453 89.1189 25.7813 88.8843 26.208C88.6603 26.6347 88.5483 27.12 88.5483 27.664C88.5483 28.208 88.6603 28.6987 88.8843 29.136C89.1189 29.5627 89.4336 29.8987 89.8283 30.144C90.2336 30.3893 90.6869 30.512 91.1883 30.512ZM104.462 32.192C103.63 32.192 102.884 31.9947 102.222 31.6C101.572 31.1947 101.054 30.6507 100.67 29.968C100.297 29.2853 100.11 28.5173 100.11 27.664C100.11 26.8107 100.302 26.0427 100.686 25.36C101.07 24.6773 101.588 24.1387 102.238 23.744C102.889 23.3493 103.625 23.152 104.446 23.152C105.14 23.152 105.753 23.2907 106.286 23.568C106.82 23.8453 107.241 24.2293 107.55 24.72L107.278 25.136V19.888H109.07V32H107.358V30.24L107.566 30.576C107.268 31.0987 106.841 31.4987 106.286 31.776C105.732 32.0533 105.124 32.192 104.462 32.192ZM104.638 30.512C105.14 30.512 105.588 30.3893 105.982 30.144C106.388 29.8987 106.702 29.5627 106.926 29.136C107.161 28.6987 107.278 28.208 107.278 27.664C107.278 27.12 107.161 26.6347 106.926 26.208C106.702 25.7813 106.388 25.4453 105.982 25.2C105.588 24.9547 105.14 24.832 104.638 24.832C104.137 24.832 103.684 24.9547 103.278 25.2C102.873 25.4453 102.558 25.7813 102.334 26.208C102.11 26.6347 101.998 27.12 101.998 27.664C101.998 28.208 102.11 28.6987 102.334 29.136C102.558 29.5627 102.868 29.8987 103.262 30.144C103.668 30.3893 104.126 30.512 104.638 30.512ZM115.345 32.192C114.481 32.192 113.713 31.9947 113.041 31.6C112.38 31.1947 111.862 30.6507 111.489 29.968C111.116 29.2747 110.929 28.5013 110.929 27.648C110.929 26.7733 111.116 26 111.489 25.328C111.873 24.656 112.385 24.128 113.025 23.744C113.665 23.3493 114.39 23.152 115.201 23.152C115.852 23.152 116.433 23.264 116.945 23.488C117.457 23.712 117.889 24.0213 118.241 24.416C118.593 24.8 118.86 25.2427 119.041 25.744C119.233 26.2453 119.329 26.7787 119.329 27.344C119.329 27.4827 119.324 27.6267 119.313 27.776C119.302 27.9253 119.281 28.064 119.249 28.192H112.353V26.752H118.225L117.361 27.408C117.468 26.8853 117.43 26.4213 117.249 26.016C117.078 25.6 116.812 25.2747 116.449 25.04C116.097 24.7947 115.681 24.672 115.201 24.672C114.721 24.672 114.294 24.7947 113.921 25.04C113.548 25.2747 113.26 25.616 113.057 26.064C112.854 26.5013 112.774 27.0347 112.817 27.664C112.764 28.2507 112.844 28.7627 113.057 29.2C113.281 29.6373 113.59 29.9787 113.985 30.224C114.39 30.4693 114.849 30.592 115.361 30.592C115.884 30.592 116.326 30.4747 116.689 30.24C117.062 30.0053 117.356 29.7013 117.569 29.328L119.041 30.048C118.87 30.4533 118.604 30.8213 118.241 31.152C117.889 31.472 117.462 31.728 116.961 31.92C116.47 32.1013 115.932 32.192 115.345 32.192ZM127.434 32L123.21 20.08H125.242L128.698 30.256H128.298L131.738 20.08H133.77L129.546 32H127.434ZM138.364 32.192C137.5 32.192 136.732 31.9947 136.06 31.6C135.398 31.1947 134.881 30.6507 134.508 29.968C134.134 29.2747 133.948 28.5013 133.948 27.648C133.948 26.7733 134.134 26 134.508 25.328C134.892 24.656 135.404 24.128 136.044 23.744C136.684 23.3493 137.409 23.152 138.22 23.152C138.87 23.152 139.452 23.264 139.964 23.488C140.476 23.712 140.908 24.0213 141.26 24.416C141.612 24.8 141.878 25.2427 142.06 25.744C142.252 26.2453 142.348 26.7787 142.348 27.344C142.348 27.4827 142.342 27.6267 142.332 27.776C142.321 27.9253 142.3 28.064 142.268 28.192H135.372V26.752H141.244L140.38 27.408C140.486 26.8853 140.449 26.4213 140.268 26.016C140.097 25.6 139.83 25.2747 139.468 25.04C139.116 24.7947 138.7 24.672 138.22 24.672C137.74 24.672 137.313 24.7947 136.94 25.04C136.566 25.2747 136.278 25.616 136.076 26.064C135.873 26.5013 135.793 27.0347 135.836 27.664C135.782 28.2507 135.862 28.7627 136.076 29.2C136.3 29.6373 136.609 29.9787 137.004 30.224C137.409 30.4693 137.868 30.592 138.38 30.592C138.902 30.592 139.345 30.4747 139.708 30.24C140.081 30.0053 140.374 29.7013 140.588 29.328L142.06 30.048C141.889 30.4533 141.622 30.8213 141.26 31.152C140.908 31.472 140.481 31.728 139.98 31.92C139.489 32.1013 138.95 32.192 138.364 32.192ZM144.212 32V23.344H145.94V25.04L145.732 24.816C145.946 24.272 146.287 23.8613 146.756 23.584C147.226 23.296 147.77 23.152 148.388 23.152C149.028 23.152 149.594 23.2907 150.084 23.568C150.575 23.8453 150.959 24.2293 151.236 24.72C151.514 25.2107 151.652 25.776 151.652 26.416V32H149.86V26.896C149.86 26.4587 149.78 26.0907 149.62 25.792C149.46 25.4827 149.231 25.248 148.932 25.088C148.644 24.9173 148.314 24.832 147.94 24.832C147.567 24.832 147.231 24.9173 146.932 25.088C146.644 25.248 146.42 25.4827 146.26 25.792C146.1 26.1013 146.02 26.4693 146.02 26.896V32H144.212ZM157.687 32.192C156.855 32.192 156.109 31.9947 155.447 31.6C154.797 31.1947 154.279 30.6507 153.895 29.968C153.522 29.2853 153.335 28.5173 153.335 27.664C153.335 26.8107 153.527 26.0427 153.911 25.36C154.295 24.6773 154.813 24.1387 155.463 23.744C156.114 23.3493 156.85 23.152 157.671 23.152C158.365 23.152 158.978 23.2907 159.511 23.568C160.045 23.8453 160.466 24.2293 160.775 24.72L160.503 25.136V19.888H162.295V32H160.583V30.24L160.791 30.576C160.493 31.0987 160.066 31.4987 159.511 31.776C158.957 32.0533 158.349 32.192 157.687 32.192ZM157.863 30.512C158.365 30.512 158.813 30.3893 159.207 30.144C159.613 29.8987 159.927 29.5627 160.151 29.136C160.386 28.6987 160.503 28.208 160.503 27.664C160.503 27.12 160.386 26.6347 160.151 26.208C159.927 25.7813 159.613 25.4453 159.207 25.2C158.813 24.9547 158.365 24.832 157.863 24.832C157.362 24.832 156.909 24.9547 156.503 25.2C156.098 25.4453 155.783 25.7813 155.559 26.208C155.335 26.6347 155.223 27.12 155.223 27.664C155.223 28.208 155.335 28.6987 155.559 29.136C155.783 29.5627 156.093 29.8987 156.487 30.144C156.893 30.3893 157.351 30.512 157.863 30.512ZM167.098 32.192C166.511 32.192 165.994 32.0907 165.546 31.888C165.109 31.6747 164.767 31.3867 164.522 31.024C164.277 30.6507 164.154 30.2133 164.154 29.712C164.154 29.2427 164.255 28.8213 164.458 28.448C164.671 28.0747 164.997 27.76 165.434 27.504C165.871 27.248 166.421 27.0667 167.082 26.96L170.09 26.464V27.888L167.434 28.352C166.954 28.4373 166.602 28.592 166.378 28.816C166.154 29.0293 166.042 29.3067 166.042 29.648C166.042 29.9787 166.165 30.2507 166.41 30.464C166.666 30.6667 166.991 30.768 167.386 30.768C167.877 30.768 168.303 30.6613 168.666 30.448C169.039 30.2347 169.327 29.952 169.53 29.6C169.733 29.2373 169.834 28.8373 169.834 28.4V26.176C169.834 25.7493 169.674 25.4027 169.354 25.136C169.045 24.8587 168.629 24.72 168.106 24.72C167.626 24.72 167.205 24.848 166.842 25.104C166.49 25.3493 166.229 25.6693 166.058 26.064L164.554 25.312C164.714 24.8853 164.975 24.512 165.338 24.192C165.701 23.8613 166.122 23.6053 166.602 23.424C167.093 23.2427 167.61 23.152 168.154 23.152C168.837 23.152 169.439 23.28 169.962 23.536C170.495 23.792 170.906 24.1493 171.194 24.608C171.493 25.056 171.642 25.5787 171.642 26.176V32H169.914V30.432L170.282 30.48C170.079 30.832 169.818 31.136 169.498 31.392C169.189 31.648 168.831 31.8453 168.426 31.984C168.031 32.1227 167.589 32.192 167.098 32.192ZM177.056 32.192C176.171 32.192 175.392 31.9733 174.72 31.536C174.059 31.0987 173.595 30.512 173.328 29.776L174.72 29.12C174.955 29.6107 175.275 30 175.68 30.288C176.096 30.576 176.555 30.72 177.056 30.72C177.483 30.72 177.829 30.624 178.096 30.432C178.363 30.24 178.496 29.9787 178.496 29.648C178.496 29.4347 178.437 29.264 178.32 29.136C178.203 28.9973 178.053 28.8853 177.872 28.8C177.701 28.7147 177.525 28.6507 177.344 28.608L175.984 28.224C175.237 28.0107 174.677 27.6907 174.304 27.264C173.941 26.8267 173.76 26.32 173.76 25.744C173.76 25.2213 173.893 24.768 174.16 24.384C174.427 23.9893 174.795 23.6853 175.264 23.472C175.733 23.2587 176.261 23.152 176.848 23.152C177.637 23.152 178.341 23.3493 178.96 23.744C179.579 24.128 180.016 24.6667 180.272 25.36L178.88 26.016C178.709 25.6 178.437 25.2693 178.064 25.024C177.701 24.7787 177.291 24.656 176.832 24.656C176.437 24.656 176.123 24.752 175.888 24.944C175.653 25.1253 175.536 25.3653 175.536 25.664C175.536 25.8667 175.589 26.0373 175.696 26.176C175.803 26.304 175.941 26.4107 176.112 26.496C176.283 26.5707 176.459 26.6347 176.64 26.688L178.048 27.104C178.763 27.3067 179.312 27.6267 179.696 28.064C180.08 28.4907 180.272 29.0027 180.272 29.6C180.272 30.112 180.133 30.5653 179.856 30.96C179.589 31.344 179.216 31.648 178.736 31.872C178.256 32.0853 177.696 32.192 177.056 32.192Z" fill="#171725"/>
</g>
<defs>
<filter id="filter0_d_35_288" x="207.167" y="163" width="24.3333" height="22" filterUnits="userSpaceOnUse" color-interpolation-filters="sRGB">
<feFlood flood-opacity="0" result="BackgroundImageFix"/>
<feColorMatrix in="SourceAlpha" type="matrix" values="0 0 0 0 0 0 0 0 0 0 0 0 0 0 0 0 0 0 127 0" result="hardAlpha"/>
<feOffset dy="2"/>
<feGaussianBlur stdDeviation="2"/>
<feColorMatrix type="matrix" values="0 0 0 0 0.268354 0 0 0 0 0.268354 0 0 0 0 0.31049 0 0 0 0.15 0"/>
<feBlend mode="normal" in2="BackgroundImageFix" result="effect1_dropShadow_35_288"/>
<feBlend mode="normal" in="SourceGraphic" in2="effect1_dropShadow_35_288" result="shape"/>
</filter>
<filter id="filter1_d_35_288" x="160" y="88" width="117.5" height="92" filterUnits="userSpaceOnUse" color-interpolation-filters="sRGB">
<feFlood flood-opacity="0" result="BackgroundImageFix"/>
<feColorMatrix in="SourceAlpha" type="matrix" values="0 0 0 0 0 0 0 0 0 0 0 0 0 0 0 0 0 0 127 0" result="hardAlpha"/>
<feOffset dy="5"/>
<feGaussianBlur stdDeviation="7.5"/>
<feColorMatrix type="matrix" values="0 0 0 0 0.268354 0 0 0 0 0.268354 0 0 0 0 0.31049 0 0 0 0.1 0"/>
<feBlend mode="normal" in2="BackgroundImageFix" result="effect1_dropShadow_35_288"/>
<feBlend mode="normal" in="SourceGraphic" in2="effect1_dropShadow_35_288" result="shape"/>
</filter>
<clipPath id="clip0_35_288">
<rect width="350" height="303" fill="white"/>
</clipPath>
<clipPath id="clip1_35_288">
<rect width="25.6667" height="191" fill="white" transform="translate(310.333 97)"/>
</clipPath>
<clipPath id="clip2_35_288">
<rect width="28" height="191" fill="white" transform="translate(259 97)"/>
</clipPath>
<clipPath id="clip3_35_288">
<rect width="29.1667" height="191" fill="white" transform="translate(206.5 97)"/>
</clipPath>
<clipPath id="clip4_35_288">
<rect width="23.3333" height="191" fill="white" transform="translate(159.833 97)"/>
</clipPath>
<clipPath id="clip5_35_288">
<rect width="28" height="191" fill="white" transform="translate(108.5 97)"/>
</clipPath>
<clipPath id="clip6_35_288">
<rect width="31.5" height="191" fill="white" transform="translate(53.6666 97)"/>
</clipPath>
<clipPath id="clip7_35_288">
<rect width="18.7778" height="24" fill="white" transform="translate(25.5556 95)"/>
</clipPath>
<clipPath id="clip8_35_288">
<rect width="10.1111" height="24" fill="white" transform="translate(34.2222 265)"/>
</clipPath>
<clipPath id="clip9_35_288">
<rect width="30.3333" height="24" fill="white" transform="translate(14 231)"/>
</clipPath>
<clipPath id="clip10_35_288">
<rect width="30.3333" height="24" fill="white" transform="translate(14 197)"/>
</clipPath>
<clipPath id="clip11_35_288">
<rect width="30.3333" height="24" fill="white" transform="translate(14 163)"/>
</clipPath>
<clipPath id="clip12_35_288">
<rect width="30.3333" height="24" fill="white" transform="translate(14 129)"/>
</clipPath>
<clipPath id="clip13_35_288">
<rect width="87.5" height="62" fill="white" transform="translate(175 98)"/>
</clipPath>
<clipPath id="clip14_35_288">
<rect width="123.667" height="24" fill="white" transform="translate(185.5 51)"/>
</clipPath>
<clipPath id="clip15_35_288">
<rect width="157.5" height="24" fill="white" transform="translate(17.5 51)"/>
</clipPath>
</defs>
</svg>
