<svg width="300" height="303" viewBox="0 0 300 303" fill="none" xmlns="http://www.w3.org/2000/svg">
<g clip-path="url(#clip0_35_288)">
<rect x="1" y="1" width="298" height="301" rx="19" fill="white" stroke="#E9E6F7" stroke-width="2"/>
<mask id="mask0_35_288" style="mask-type:luminance" maskUnits="userSpaceOnUse" x="0" y="0" width="300" height="303">
<rect width="300" height="303" rx="20" fill="white"/>
</mask>
<g mask="url(#mask0_35_288)">
<g clip-path="url(#clip1_35_288)">
<path d="M275.098 280.893C275.098 281.813 274.932 282.608 274.6 283.279C274.267 283.949 273.811 284.466 273.232 284.83C272.652 285.194 271.99 285.376 271.246 285.376C270.502 285.376 269.84 285.194 269.26 284.83C268.681 284.466 268.225 283.949 267.892 283.279C267.56 282.608 267.394 281.813 267.394 280.893C267.394 279.972 267.56 279.177 267.892 278.506C268.225 277.836 268.681 277.319 269.26 276.955C269.84 276.591 270.502 276.41 271.246 276.41C271.99 276.41 272.652 276.591 273.232 276.955C273.811 277.319 274.267 277.836 274.6 278.506C274.932 279.177 275.098 279.972 275.098 280.893ZM274.076 280.893C274.076 280.137 273.949 279.499 273.696 278.979C273.446 278.459 273.107 278.066 272.678 277.799C272.252 277.532 271.775 277.398 271.246 277.398C270.718 277.398 270.239 277.532 269.81 277.799C269.384 278.066 269.044 278.459 268.792 278.979C268.542 279.499 268.417 280.137 268.417 280.893C268.417 281.648 268.542 282.286 268.792 282.806C269.044 283.326 269.384 283.719 269.81 283.986C270.239 284.253 270.718 284.387 271.246 284.387C271.775 284.387 272.252 284.253 272.678 283.986C273.107 283.719 273.446 283.326 273.696 282.806C273.949 282.286 274.076 281.648 274.076 280.893ZM280.95 282.58V278.711H281.955V285.256H280.95V284.148H280.882C280.728 284.481 280.49 284.763 280.166 284.996C279.842 285.226 279.433 285.341 278.938 285.341C278.529 285.341 278.166 285.252 277.847 285.073C277.529 284.891 277.279 284.618 277.097 284.255C276.916 283.888 276.825 283.427 276.825 282.87V278.711H277.83V282.802C277.83 283.279 277.964 283.66 278.231 283.944C278.501 284.228 278.845 284.37 279.262 284.37C279.512 284.37 279.767 284.306 280.025 284.178C280.286 284.05 280.505 283.854 280.681 283.59C280.86 283.326 280.95 282.989 280.95 282.58ZM286.73 278.711V279.563H283.338V278.711H286.73ZM284.326 277.143H285.332V283.381C285.332 283.665 285.373 283.878 285.456 284.02C285.541 284.16 285.649 284.253 285.779 284.302C285.913 284.347 286.054 284.37 286.201 284.37C286.312 284.37 286.403 284.364 286.474 284.353C286.545 284.339 286.602 284.327 286.644 284.319L286.849 285.222C286.781 285.248 286.686 285.273 286.564 285.299C286.441 285.327 286.287 285.341 286.099 285.341C285.815 285.341 285.537 285.28 285.264 285.158C284.994 285.036 284.769 284.85 284.591 284.6C284.414 284.35 284.326 284.035 284.326 283.654V277.143Z" fill="#92929D"/>
<path fill-rule="evenodd" clip-rule="evenodd" d="M276 268.433V97H277V268.433H276Z" fill="#F1F1F5"/>
</g>
<g clip-path="url(#clip2_35_288)">
<path d="M230.246 278.711C230.195 278.279 229.987 277.944 229.624 277.705C229.26 277.466 228.814 277.347 228.286 277.347C227.899 277.347 227.561 277.41 227.271 277.535C226.984 277.66 226.76 277.832 226.598 278.05C226.439 278.269 226.359 278.518 226.359 278.796C226.359 279.029 226.415 279.229 226.526 279.397C226.639 279.562 226.784 279.699 226.96 279.81C227.136 279.918 227.321 280.008 227.514 280.079C227.707 280.147 227.885 280.202 228.047 280.245L228.933 280.483C229.161 280.543 229.413 280.626 229.692 280.731C229.973 280.836 230.242 280.979 230.497 281.161C230.756 281.34 230.969 281.57 231.136 281.851C231.304 282.133 231.388 282.478 231.388 282.887C231.388 283.358 231.264 283.785 231.017 284.165C230.773 284.546 230.415 284.849 229.943 285.073C229.474 285.297 228.905 285.41 228.234 285.41C227.609 285.41 227.068 285.309 226.611 285.107C226.156 284.905 225.798 284.624 225.537 284.263C225.278 283.903 225.132 283.483 225.098 283.006H226.189C226.217 283.336 226.328 283.608 226.521 283.824C226.717 284.037 226.965 284.197 227.263 284.302C227.564 284.404 227.888 284.455 228.234 284.455C228.638 284.455 229 284.39 229.321 284.259C229.642 284.126 229.896 283.941 230.084 283.705C230.271 283.466 230.365 283.188 230.365 282.87C230.365 282.58 230.284 282.344 230.122 282.162C229.96 281.981 229.747 281.833 229.483 281.719C229.219 281.606 228.933 281.506 228.626 281.421L227.553 281.114C226.871 280.918 226.331 280.638 225.933 280.275C225.536 279.911 225.337 279.435 225.337 278.847C225.337 278.358 225.469 277.932 225.733 277.569C226 277.202 226.358 276.918 226.807 276.716C227.259 276.512 227.763 276.41 228.32 276.41C228.882 276.41 229.382 276.51 229.82 276.712C230.257 276.911 230.604 277.184 230.859 277.53C231.118 277.877 231.254 278.27 231.269 278.711H230.246ZM235.819 285.393C235.188 285.393 234.644 285.253 234.187 284.975C233.732 284.694 233.382 284.302 233.134 283.799C232.89 283.293 232.768 282.705 232.768 282.035C232.768 281.364 232.89 280.773 233.134 280.262C233.382 279.748 233.725 279.347 234.166 279.06C234.609 278.77 235.126 278.626 235.717 278.626C236.058 278.626 236.394 278.682 236.727 278.796C237.059 278.91 237.362 279.094 237.634 279.35C237.907 279.603 238.124 279.938 238.286 280.356C238.448 280.773 238.529 281.287 238.529 281.898V282.324H233.484V281.455H237.507C237.507 281.086 237.433 280.756 237.285 280.466C237.14 280.177 236.933 279.948 236.663 279.78C236.396 279.613 236.08 279.529 235.717 279.529C235.316 279.529 234.97 279.628 234.677 279.827C234.387 280.023 234.164 280.279 234.008 280.594C233.852 280.91 233.774 281.248 233.774 281.608V282.188C233.774 282.682 233.859 283.101 234.029 283.445C234.203 283.786 234.443 284.046 234.749 284.225C235.056 284.401 235.413 284.489 235.819 284.489C236.083 284.489 236.322 284.452 236.535 284.378C236.751 284.302 236.937 284.188 237.093 284.037C237.249 283.884 237.37 283.694 237.455 283.466L238.427 283.739C238.325 284.069 238.153 284.358 237.911 284.608C237.67 284.856 237.372 285.049 237.017 285.188C236.661 285.324 236.262 285.393 235.819 285.393ZM242.991 278.711V279.563H239.599V278.711H242.991ZM240.588 277.143H241.594V283.381C241.594 283.665 241.635 283.878 241.717 284.02C241.803 284.16 241.91 284.253 242.041 284.302C242.175 284.347 242.315 284.37 242.463 284.37C242.574 284.37 242.665 284.364 242.736 284.353C242.807 284.339 242.864 284.327 242.906 284.319L243.111 285.222C243.043 285.248 242.947 285.273 242.825 285.299C242.703 285.327 242.548 285.341 242.361 285.341C242.077 285.341 241.798 285.28 241.526 285.158C241.256 285.036 241.031 284.85 240.852 284.6C240.676 284.35 240.588 284.035 240.588 283.654V277.143Z" fill="#92929D"/>
<path fill-rule="evenodd" clip-rule="evenodd" d="M233 268.433L233 97H234V268.433H233Z" fill="#F1F1F5"/>
</g>
<g clip-path="url(#clip3_35_288)">
<path d="M179.538 285.256H178.43L181.635 276.529H182.726L185.93 285.256H184.822L182.214 277.91H182.146L179.538 285.256ZM179.947 281.847H184.413V282.785H179.947V281.847ZM189.881 287.847C189.395 287.847 188.977 287.785 188.628 287.66C188.279 287.537 187.987 287.376 187.754 287.174C187.524 286.975 187.341 286.762 187.205 286.535L188.006 285.972C188.097 286.091 188.212 286.228 188.351 286.381C188.49 286.537 188.681 286.672 188.922 286.786C189.166 286.903 189.486 286.961 189.881 286.961C190.409 286.961 190.845 286.833 191.189 286.577C191.533 286.322 191.705 285.921 191.705 285.376V284.046H191.619C191.546 284.165 191.441 284.313 191.304 284.489C191.171 284.662 190.977 284.817 190.725 284.954C190.475 285.087 190.137 285.154 189.71 285.154C189.182 285.154 188.708 285.029 188.287 284.779C187.869 284.529 187.539 284.165 187.294 283.688C187.053 283.211 186.932 282.631 186.932 281.949C186.932 281.279 187.05 280.695 187.286 280.198C187.521 279.698 187.85 279.312 188.27 279.039C188.691 278.763 189.176 278.626 189.727 278.626C190.154 278.626 190.492 278.697 190.742 278.839C190.994 278.978 191.188 279.137 191.321 279.316C191.458 279.492 191.563 279.637 191.637 279.751H191.739V278.711H192.71V285.444C192.71 286.006 192.583 286.464 192.327 286.816C192.074 287.171 191.733 287.431 191.304 287.596C190.878 287.763 190.404 287.847 189.881 287.847ZM189.847 284.251C190.25 284.251 190.591 284.158 190.869 283.974C191.148 283.789 191.36 283.523 191.504 283.177C191.649 282.83 191.722 282.415 191.722 281.932C191.722 281.461 191.651 281.045 191.509 280.684C191.367 280.323 191.156 280.04 190.878 279.836C190.6 279.631 190.256 279.529 189.847 279.529C189.421 279.529 189.066 279.637 188.781 279.853C188.5 280.069 188.289 280.358 188.146 280.722C188.007 281.086 187.938 281.489 187.938 281.932C187.938 282.387 188.009 282.789 188.151 283.138C188.296 283.485 188.509 283.758 188.79 283.957C189.074 284.153 189.426 284.251 189.847 284.251ZM197.296 285.393C196.705 285.393 196.187 285.252 195.741 284.971C195.298 284.689 194.951 284.296 194.701 283.79C194.454 283.285 194.33 282.694 194.33 282.018C194.33 281.336 194.454 280.741 194.701 280.232C194.951 279.724 195.298 279.329 195.741 279.047C196.187 278.766 196.705 278.626 197.296 278.626C197.887 278.626 198.404 278.766 198.847 279.047C199.293 279.329 199.64 279.724 199.887 280.232C200.137 280.741 200.262 281.336 200.262 282.018C200.262 282.694 200.137 283.285 199.887 283.79C199.64 284.296 199.293 284.689 198.847 284.971C198.404 285.252 197.887 285.393 197.296 285.393ZM197.296 284.489C197.745 284.489 198.114 284.374 198.404 284.144C198.694 283.914 198.908 283.611 199.048 283.236C199.187 282.861 199.256 282.455 199.256 282.018C199.256 281.58 199.187 281.172 199.048 280.795C198.908 280.417 198.694 280.111 198.404 279.878C198.114 279.645 197.745 279.529 197.296 279.529C196.847 279.529 196.478 279.645 196.188 279.878C195.898 280.111 195.684 280.417 195.545 280.795C195.405 281.172 195.336 281.58 195.336 282.018C195.336 282.455 195.405 282.861 195.545 283.236C195.684 283.611 195.898 283.914 196.188 284.144C196.478 284.374 196.847 284.489 197.296 284.489Z" fill="#92929D"/>
<path fill-rule="evenodd" clip-rule="evenodd" d="M188 268.433L188 97H189V268.433H188Z" fill="#F1F1F5"/>
</g>
<g clip-path="url(#clip4_35_288)">
<path d="M143.144 276.529H144.201V282.768C144.201 283.324 144.099 283.797 143.894 284.187C143.689 284.576 143.401 284.871 143.029 285.073C142.657 285.275 142.218 285.376 141.712 285.376C141.235 285.376 140.81 285.289 140.438 285.116C140.066 284.939 139.773 284.689 139.56 284.366C139.347 284.042 139.241 283.657 139.241 283.211H140.28C140.28 283.458 140.341 283.674 140.464 283.858C140.589 284.04 140.759 284.182 140.975 284.285C141.191 284.387 141.437 284.438 141.712 284.438C142.016 284.438 142.275 284.374 142.488 284.246C142.701 284.118 142.863 283.931 142.974 283.684C143.087 283.434 143.144 283.128 143.144 282.768V276.529ZM150.393 282.58V278.711H151.399V285.256H150.393V284.148H150.325C150.172 284.481 149.933 284.763 149.609 284.996C149.285 285.226 148.876 285.341 148.382 285.341C147.973 285.341 147.609 285.252 147.291 285.073C146.973 284.891 146.723 284.618 146.541 284.255C146.359 283.888 146.268 283.427 146.268 282.87V278.711H147.274V282.802C147.274 283.279 147.407 283.66 147.674 283.944C147.944 284.228 148.288 284.37 148.706 284.37C148.956 284.37 149.21 284.306 149.468 284.178C149.73 284.05 149.949 283.854 150.125 283.59C150.304 283.326 150.393 282.989 150.393 282.58ZM154.332 276.529V285.256H153.326V276.529H154.332Z" fill="#92929D"/>
<path fill-rule="evenodd" clip-rule="evenodd" d="M146 268.433L146 97H147V268.433H146Z" fill="#F1F1F5"/>
</g>
<g clip-path="url(#clip5_35_288)">
<path d="M99.0581 276.529H100.115V282.768C100.115 283.324 100.013 283.797 99.8081 284.187C99.6036 284.576 99.3152 284.871 98.9431 285.073C98.5709 285.275 98.132 285.376 97.6263 285.376C97.149 285.376 96.7243 285.289 96.3521 285.116C95.98 284.939 95.6874 284.689 95.4743 284.366C95.2612 284.042 95.1547 283.657 95.1547 283.211H96.1945C96.1945 283.458 96.2555 283.674 96.3777 283.858C96.5027 284.04 96.6732 284.182 96.8891 284.285C97.105 284.387 97.3507 284.438 97.6263 284.438C97.9303 284.438 98.1888 284.374 98.4019 284.246C98.6149 284.118 98.7769 283.931 98.8877 283.684C99.0013 283.434 99.0581 283.128 99.0581 282.768V276.529ZM106.307 282.58V278.711H107.313V285.256H106.307V284.148H106.239C106.086 284.481 105.847 284.763 105.523 284.996C105.199 285.226 104.79 285.341 104.296 285.341C103.887 285.341 103.523 285.252 103.205 285.073C102.887 284.891 102.637 284.618 102.455 284.255C102.273 283.888 102.182 283.427 102.182 282.87V278.711H103.188V282.802C103.188 283.279 103.321 283.66 103.588 283.944C103.858 284.228 104.202 284.37 104.62 284.37C104.87 284.37 105.124 284.306 105.382 284.178C105.644 284.05 105.863 283.854 106.039 283.59C106.218 283.326 106.307 282.989 106.307 282.58ZM110.246 281.319V285.256H109.241V278.711H110.212V279.733H110.297C110.451 279.401 110.684 279.134 110.996 278.932C111.309 278.728 111.712 278.626 112.206 278.626C112.65 278.626 113.037 278.716 113.37 278.898C113.702 279.077 113.961 279.35 114.145 279.716C114.33 280.08 114.422 280.54 114.422 281.097V285.256H113.417V281.165C113.417 280.651 113.283 280.251 113.016 279.964C112.749 279.674 112.383 279.529 111.917 279.529C111.596 279.529 111.309 279.599 111.056 279.738C110.806 279.877 110.608 280.08 110.464 280.347C110.319 280.614 110.246 280.938 110.246 281.319Z" fill="#92929D"/>
<path fill-rule="evenodd" clip-rule="evenodd" d="M106 268.433L106 97H107V268.433H106Z" fill="#F1F1F5"/>
</g>
<g clip-path="url(#clip6_35_288)">
<path d="M50.3285 276.529H51.5899L54.5558 283.773H54.6581L57.624 276.529H58.8853V285.256H57.8967V278.626H57.8115L55.0842 285.256H54.1297L51.4024 278.626H51.3172V285.256H50.3285V276.529ZM62.8798 285.41C62.465 285.41 62.0886 285.332 61.7505 285.175C61.4125 285.016 61.144 284.787 60.9451 284.489C60.7463 284.188 60.6468 283.824 60.6468 283.398C60.6468 283.023 60.7207 282.719 60.8684 282.486C61.0162 282.251 61.2136 282.066 61.4608 281.932C61.7079 281.799 61.9806 281.699 62.2789 281.634C62.5801 281.566 62.8826 281.512 63.1866 281.472C63.5843 281.421 63.9068 281.383 64.1539 281.357C64.4039 281.329 64.5858 281.282 64.6994 281.216C64.8159 281.151 64.8741 281.037 64.8741 280.876V280.841C64.8741 280.421 64.7591 280.094 64.5289 279.861C64.3017 279.628 63.9565 279.512 63.4934 279.512C63.0133 279.512 62.6369 279.617 62.3642 279.827C62.0914 280.037 61.8997 280.262 61.7889 280.501L60.8343 280.16C61.0048 279.762 61.2321 279.452 61.5162 279.231C61.8031 279.006 62.1156 278.85 62.4537 278.762C62.7946 278.671 63.1298 278.626 63.4593 278.626C63.6696 278.626 63.911 278.651 64.1838 278.702C64.4593 278.751 64.725 278.851 64.9806 279.005C65.2392 279.158 65.4537 279.39 65.6241 279.699C65.7946 280.009 65.8798 280.424 65.8798 280.944V285.256H64.8741V284.37H64.823C64.7548 284.512 64.6412 284.664 64.4821 284.826C64.323 284.988 64.1113 285.126 63.8471 285.239C63.5829 285.353 63.2605 285.41 62.8798 285.41ZM63.0332 284.506C63.4309 284.506 63.7662 284.428 64.0389 284.272C64.3145 284.116 64.5218 283.914 64.661 283.667C64.8031 283.42 64.8741 283.16 64.8741 282.887V281.966C64.8315 282.018 64.7377 282.064 64.5929 282.107C64.4508 282.147 64.286 282.182 64.0985 282.214C63.9139 282.242 63.7335 282.268 63.5574 282.29C63.3841 282.31 63.2434 282.327 63.1355 282.341C62.8741 282.376 62.6298 282.431 62.4025 282.508C62.1781 282.582 61.9963 282.694 61.8571 282.844C61.7207 282.992 61.6525 283.194 61.6525 283.449C61.6525 283.799 61.7818 284.063 62.0403 284.242C62.3017 284.418 62.6326 284.506 63.0332 284.506ZM67.8011 285.256V278.711H68.8068V285.256H67.8011ZM68.3125 277.62C68.1164 277.62 67.9474 277.553 67.8054 277.42C67.6661 277.286 67.5965 277.126 67.5965 276.938C67.5965 276.751 67.6661 276.59 67.8054 276.457C67.9474 276.323 68.1164 276.256 68.3125 276.256C68.5085 276.256 68.6761 276.323 68.8153 276.457C68.9573 276.59 69.0284 276.751 69.0284 276.938C69.0284 277.126 68.9573 277.286 68.8153 277.42C68.6761 277.553 68.5085 277.62 68.3125 277.62Z" fill="#92929D"/>
<path fill-rule="evenodd" clip-rule="evenodd" d="M60.0114 268.433V97H60.9886V268.433H60.0114Z" fill="#F1F1F5"/>
</g>
<path d="M7.71704 191.888C8.49718 193.271 11.8082 190.179 15.8589 191.933C19.0483 193.314 21.8229 197.749 25.9062 199.09C33.6564 201.633 39.9816 204.248 43.5757 210.323C47.1697 216.399 52.5644 237 58.9931 237C65.4218 237 68.694 226.285 71.1192 219.226C73.4421 212.465 77.9164 196.227 85.1509 194.436C93.1359 192.46 99.7022 180.409 109.23 178.384C114.308 177.304 118.376 179.406 122.915 182.67C127.454 185.935 126.565 187.345 136.773 189.862C145.197 191.939 147.401 199.09 155.655 199.95C163.91 200.81 167.728 173.886 176.443 176.133C185.158 178.381 186.899 172.57 195.092 183.583C203.284 194.596 210.853 185.808 221.136 183.56C231.42 181.313 234.099 188.285 238.979 187.386C243.86 186.487 248.254 203.486 252.437 205.958C256.62 208.43 257.807 199.449 266.696 199.449C275.585 199.449 274.634 190.536 279.515 189.862C284.395 189.188 287.82 190.326 289.389 187.404" stroke="#0062FF" stroke-width="3" stroke-linecap="round" stroke-linejoin="round"/>
<path d="M8.68167 210.902C10.2528 212.708 22.2325 215.335 29.106 208.932C35.9796 202.529 42.0677 205.977 49.1376 207.29C56.2076 208.603 58.5643 193.171 66.4198 191.201C74.2753 189.231 84.0947 178.706 95.878 176.243C107.661 173.781 106.876 188.41 122.39 190.544C137.905 192.678 142.226 177.738 149.296 173.47C156.366 169.201 159.508 149.75 171.291 151.063C183.074 152.377 188.966 165.537 198.785 167.179C208.605 168.82 210.569 179.709 219.799 187.753C229.029 195.798 237.474 196.783 249.061 195.141C260.648 193.499 263.79 176.9 269.289 176.243C274.788 175.587 279.697 183.502 284.411 185.308C289.124 187.114 290.499 195.141 300.515 195.141C310.53 195.141 309.352 198.26 314.851 197.768C320.35 197.275 324.278 192.678 326.045 190.544" stroke="#3DD598" stroke-width="3" stroke-linecap="round" stroke-linejoin="round"/>
</g>
<rect x="2" y="95" width="49" height="194" rx="24.5" fill="white"/>
<g clip-path="url(#clip7_35_288)">
<path d="M25.8763 102.273V111H24.8195V103.381H24.7684L22.6377 104.795V103.722L24.8195 102.273H25.8763ZM29.4265 108.614L29.4095 107.369H29.614L32.4777 104.455H33.722L30.6709 107.54H30.5856L29.4265 108.614ZM28.489 111V102.273H29.4947V111H28.489ZM32.6481 111L30.0913 107.761L30.8072 107.062L33.9265 111H32.6481Z" fill="#92929D"/>
</g>
<g clip-path="url(#clip8_35_288)">
<path d="M33.0833 281.119C32.4413 281.119 31.8944 280.945 31.4427 280.595C30.991 280.243 30.6458 279.733 30.4072 279.065C30.1686 278.395 30.0493 277.585 30.0493 276.636C30.0493 275.693 30.1686 274.888 30.4072 274.22C30.6487 273.55 30.9953 273.038 31.447 272.686C31.9015 272.331 32.447 272.153 33.0833 272.153C33.7197 272.153 34.2637 272.331 34.7154 272.686C35.17 273.038 35.5166 273.55 35.7552 274.22C35.9967 274.888 36.1174 275.693 36.1174 276.636C36.1174 277.585 35.9981 278.395 35.7595 279.065C35.5208 279.733 35.1757 280.243 34.724 280.595C34.2723 280.945 33.7254 281.119 33.0833 281.119ZM33.0833 280.182C33.7197 280.182 34.214 279.875 34.5663 279.261C34.9186 278.648 35.0947 277.773 35.0947 276.636C35.0947 275.881 35.0137 275.237 34.8518 274.706C34.6927 274.175 34.4626 273.77 34.1615 273.491C33.8632 273.213 33.5038 273.074 33.0833 273.074C32.4527 273.074 31.9598 273.385 31.6047 274.007C31.2495 274.626 31.072 275.503 31.072 276.636C31.072 277.392 31.1515 278.034 31.3106 278.562C31.4697 279.091 31.6984 279.493 31.9967 279.768C32.2978 280.044 32.66 280.182 33.0833 280.182Z" fill="#92929D"/>
</g>
<g clip-path="url(#clip9_35_288)">
<path d="M12.9034 247V246.233L15.7841 243.08C16.1222 242.71 16.4006 242.389 16.6193 242.116C16.8381 241.841 17 241.582 17.1051 241.341C17.2131 241.097 17.267 240.841 17.267 240.574C17.267 240.267 17.1932 240.001 17.0455 239.777C16.9006 239.553 16.7017 239.379 16.4489 239.257C16.196 239.135 15.9119 239.074 15.5966 239.074C15.2614 239.074 14.9688 239.143 14.7188 239.283C14.4716 239.419 14.2798 239.611 14.1435 239.858C14.0099 240.105 13.9432 240.395 13.9432 240.727H12.9375C12.9375 240.216 13.0554 239.767 13.2912 239.381C13.527 238.994 13.848 238.693 14.2543 238.477C14.6634 238.261 15.1222 238.153 15.6307 238.153C16.142 238.153 16.5952 238.261 16.9901 238.477C17.3849 238.693 17.6946 238.984 17.919 239.351C18.1435 239.717 18.2557 240.125 18.2557 240.574C18.2557 240.895 18.1974 241.209 18.081 241.516C17.9673 241.82 17.7685 242.159 17.4844 242.534C17.2031 242.906 16.8125 243.361 16.3125 243.898L14.3523 245.994V246.062H18.4091V247H12.9034ZM23.1013 247.119C22.4593 247.119 21.9124 246.945 21.4607 246.595C21.009 246.243 20.6638 245.733 20.4252 245.065C20.1866 244.395 20.0672 243.585 20.0672 242.636C20.0672 241.693 20.1866 240.888 20.4252 240.22C20.6667 239.55 21.0133 239.038 21.465 238.686C21.9195 238.331 22.465 238.153 23.1013 238.153C23.7377 238.153 24.2817 238.331 24.7334 238.686C25.188 239.038 25.5346 239.55 25.7732 240.22C26.0147 240.888 26.1354 241.693 26.1354 242.636C26.1354 243.585 26.0161 244.395 25.7775 245.065C25.5388 245.733 25.1937 246.243 24.742 246.595C24.2903 246.945 23.7434 247.119 23.1013 247.119ZM23.1013 246.182C23.7377 246.182 24.232 245.875 24.5843 245.261C24.9366 244.648 25.1127 243.773 25.1127 242.636C25.1127 241.881 25.0317 241.237 24.8698 240.706C24.7107 240.175 24.4806 239.77 24.1795 239.491C23.8812 239.213 23.5218 239.074 23.1013 239.074C22.4707 239.074 21.9778 239.385 21.6226 240.007C21.2675 240.626 21.09 241.503 21.09 242.636C21.09 243.392 21.1695 244.034 21.3286 244.562C21.4877 245.091 21.7164 245.493 22.0147 245.768C22.3158 246.044 22.678 246.182 23.1013 246.182ZM30.6871 247.119C30.045 247.119 29.4981 246.945 29.0464 246.595C28.5947 246.243 28.2496 245.733 28.0109 245.065C27.7723 244.395 27.653 243.585 27.653 242.636C27.653 241.693 27.7723 240.888 28.0109 240.22C28.2524 239.55 28.599 239.038 29.0507 238.686C29.5052 238.331 30.0507 238.153 30.6871 238.153C31.3234 238.153 31.8675 238.331 32.3192 238.686C32.7737 239.038 33.1203 239.55 33.3589 240.22C33.6004 240.888 33.7211 241.693 33.7211 242.636C33.7211 243.585 33.6018 244.395 33.3632 245.065C33.1246 245.733 32.7794 246.243 32.3277 246.595C31.876 246.945 31.3291 247.119 30.6871 247.119ZM30.6871 246.182C31.3234 246.182 31.8177 245.875 32.17 245.261C32.5223 244.648 32.6984 243.773 32.6984 242.636C32.6984 241.881 32.6175 241.237 32.4555 240.706C32.2964 240.175 32.0663 239.77 31.7652 239.491C31.4669 239.213 31.1075 239.074 30.6871 239.074C30.0564 239.074 29.5635 239.385 29.2084 240.007C28.8532 240.626 28.6757 241.503 28.6757 242.636C28.6757 243.392 28.7552 244.034 28.9143 244.562C29.0734 245.091 29.3021 245.493 29.6004 245.768C29.9015 246.044 30.2638 246.182 30.6871 246.182Z" fill="#92929D"/>
</g>
<g clip-path="url(#clip10_35_288)">
<path d="M12.6989 211.21V210.341L16.5341 204.273H17.1648V205.619H16.7386L13.8409 210.205V210.273H19.0057V211.21H12.6989ZM16.8068 213V210.946V210.541V204.273H17.8125V213H16.8068ZM23.5349 213.119C22.8929 213.119 22.346 212.945 21.8943 212.595C21.4426 212.243 21.0974 211.733 20.8588 211.065C20.6202 210.395 20.5008 209.585 20.5008 208.636C20.5008 207.693 20.6202 206.888 20.8588 206.22C21.1003 205.55 21.4469 205.038 21.8986 204.686C22.3531 204.331 22.8986 204.153 23.5349 204.153C24.1713 204.153 24.7153 204.331 25.167 204.686C25.6216 205.038 25.9682 205.55 26.2068 206.22C26.4483 206.888 26.569 207.693 26.569 208.636C26.569 209.585 26.4497 210.395 26.2111 211.065C25.9724 211.733 25.6273 212.243 25.1756 212.595C24.7239 212.945 24.177 213.119 23.5349 213.119ZM23.5349 212.182C24.1713 212.182 24.6656 211.875 25.0179 211.261C25.3702 210.648 25.5463 209.773 25.5463 208.636C25.5463 207.881 25.4653 207.237 25.3034 206.706C25.1443 206.175 24.9142 205.77 24.6131 205.491C24.3148 205.213 23.9554 205.074 23.5349 205.074C22.9043 205.074 22.4114 205.385 22.0562 206.007C21.7011 206.626 21.5236 207.503 21.5236 208.636C21.5236 209.392 21.6031 210.034 21.7622 210.562C21.9213 211.091 22.15 211.493 22.4483 211.768C22.7494 212.044 23.1116 212.182 23.5349 212.182ZM31.1206 213.119C30.4786 213.119 29.9317 212.945 29.48 212.595C29.0283 212.243 28.6831 211.733 28.4445 211.065C28.2059 210.395 28.0866 209.585 28.0866 208.636C28.0866 207.693 28.2059 206.888 28.4445 206.22C28.686 205.55 29.0326 205.038 29.4843 204.686C29.9388 204.331 30.4843 204.153 31.1206 204.153C31.757 204.153 32.301 204.331 32.7527 204.686C33.2073 205.038 33.5539 205.55 33.7925 206.22C34.034 206.888 34.1547 207.693 34.1547 208.636C34.1547 209.585 34.0354 210.395 33.7968 211.065C33.5581 211.733 33.213 212.243 32.7613 212.595C32.3096 212.945 31.7627 213.119 31.1206 213.119ZM31.1206 212.182C31.757 212.182 32.2513 211.875 32.6036 211.261C32.9559 210.648 33.132 209.773 33.132 208.636C33.132 207.881 33.051 207.237 32.8891 206.706C32.73 206.175 32.4999 205.77 32.1988 205.491C31.9005 205.213 31.5411 205.074 31.1206 205.074C30.49 205.074 29.9971 205.385 29.642 206.007C29.2868 206.626 29.1093 207.503 29.1093 208.636C29.1093 209.392 29.1888 210.034 29.3479 210.562C29.507 211.091 29.7357 211.493 30.034 211.768C30.3351 212.044 30.6974 212.182 31.1206 212.182Z" fill="#92929D"/>
</g>
<g clip-path="url(#clip11_35_288)">
<path d="M15.8011 179.119C15.4432 179.114 15.0852 179.045 14.7273 178.915C14.3693 178.784 14.0426 178.564 13.7472 178.254C13.4517 177.942 13.2145 177.52 13.0355 176.989C12.8565 176.455 12.767 175.784 12.767 174.977C12.767 174.205 12.8395 173.52 12.9844 172.923C13.1293 172.324 13.3395 171.82 13.6151 171.411C13.8906 170.999 14.223 170.686 14.6122 170.473C15.0043 170.26 15.446 170.153 15.9375 170.153C16.4261 170.153 16.8608 170.251 17.2415 170.447C17.625 170.641 17.9375 170.911 18.179 171.257C18.4205 171.604 18.5767 172.003 18.6477 172.455H17.608C17.5114 172.062 17.3239 171.737 17.0455 171.479C16.767 171.22 16.3977 171.091 15.9375 171.091C15.2614 171.091 14.7287 171.385 14.3395 171.973C13.9531 172.561 13.7585 173.386 13.7557 174.449H13.8239C13.983 174.207 14.1719 174.001 14.3906 173.831C14.6122 173.658 14.8565 173.524 15.1236 173.43C15.3906 173.337 15.6733 173.29 15.9716 173.29C16.4716 173.29 16.929 173.415 17.3438 173.665C17.7585 173.912 18.0909 174.254 18.3409 174.692C18.5909 175.126 18.7159 175.625 18.7159 176.188C18.7159 176.727 18.5952 177.222 18.3537 177.67C18.1122 178.116 17.7727 178.472 17.3352 178.736C16.9006 178.997 16.3892 179.125 15.8011 179.119ZM15.8011 178.182C16.1591 178.182 16.4801 178.092 16.7642 177.913C17.0511 177.734 17.277 177.494 17.4418 177.193C17.6094 176.892 17.6932 176.557 17.6932 176.188C17.6932 175.827 17.6122 175.499 17.4503 175.203C17.2912 174.905 17.071 174.668 16.7898 174.491C16.5114 174.315 16.1932 174.227 15.8352 174.227C15.5653 174.227 15.3139 174.281 15.081 174.389C14.848 174.494 14.6435 174.639 14.4673 174.824C14.294 175.009 14.1577 175.22 14.0582 175.459C13.9588 175.695 13.9091 175.943 13.9091 176.205C13.9091 176.551 13.9901 176.875 14.152 177.176C14.3168 177.477 14.5412 177.72 14.8253 177.905C15.1122 178.089 15.4375 178.182 15.8011 178.182ZM23.324 179.119C22.682 179.119 22.1351 178.945 21.6834 178.595C21.2317 178.243 20.8865 177.733 20.6479 177.065C20.4092 176.395 20.2899 175.585 20.2899 174.636C20.2899 173.693 20.4092 172.888 20.6479 172.22C20.8893 171.55 21.2359 171.038 21.6876 170.686C22.1422 170.331 22.6876 170.153 23.324 170.153C23.9604 170.153 24.5044 170.331 24.9561 170.686C25.4106 171.038 25.7572 171.55 25.9959 172.22C26.2373 172.888 26.3581 173.693 26.3581 174.636C26.3581 175.585 26.2388 176.395 26.0001 177.065C25.7615 177.733 25.4163 178.243 24.9646 178.595C24.5129 178.945 23.966 179.119 23.324 179.119ZM23.324 178.182C23.9604 178.182 24.4547 177.875 24.807 177.261C25.1592 176.648 25.3354 175.773 25.3354 174.636C25.3354 173.881 25.2544 173.237 25.0925 172.706C24.9334 172.175 24.7033 171.77 24.4021 171.491C24.1038 171.213 23.7445 171.074 23.324 171.074C22.6933 171.074 22.2004 171.385 21.8453 172.007C21.4902 172.626 21.3126 173.503 21.3126 174.636C21.3126 175.392 21.3922 176.034 21.5513 176.562C21.7104 177.091 21.9391 177.493 22.2373 177.768C22.5385 178.044 22.9007 178.182 23.324 178.182ZM30.9097 179.119C30.2677 179.119 29.7208 178.945 29.2691 178.595C28.8174 178.243 28.4722 177.733 28.2336 177.065C27.9949 176.395 27.8756 175.585 27.8756 174.636C27.8756 173.693 27.9949 172.888 28.2336 172.22C28.4751 171.55 28.8216 171.038 29.2733 170.686C29.7279 170.331 30.2733 170.153 30.9097 170.153C31.5461 170.153 32.0901 170.331 32.5418 170.686C32.9964 171.038 33.3429 171.55 33.5816 172.22C33.8231 172.888 33.9438 173.693 33.9438 174.636C33.9438 175.585 33.8245 176.395 33.5858 177.065C33.3472 177.733 33.002 178.243 32.5503 178.595C32.0986 178.945 31.5518 179.119 30.9097 179.119ZM30.9097 178.182C31.5461 178.182 32.0404 177.875 32.3927 177.261C32.7449 176.648 32.9211 175.773 32.9211 174.636C32.9211 173.881 32.8401 173.237 32.6782 172.706C32.5191 172.175 32.289 171.77 31.9878 171.491C31.6895 171.213 31.3302 171.074 30.9097 171.074C30.279 171.074 29.7861 171.385 29.431 172.007C29.0759 172.626 28.8983 173.503 28.8983 174.636C28.8983 175.392 28.9779 176.034 29.137 176.562C29.2961 177.091 29.5248 177.493 29.8231 177.768C30.1242 178.044 30.4864 178.182 30.9097 178.182Z" fill="#92929D"/>
</g>
<g clip-path="url(#clip12_35_288)">
<path d="M15.6989 145.119C15.1136 145.119 14.5966 145.016 14.1477 144.808C13.7017 144.598 13.3537 144.31 13.1037 143.943C12.8537 143.574 12.7301 143.153 12.733 142.682C12.7301 142.312 12.8026 141.972 12.9503 141.659C13.098 141.344 13.2997 141.081 13.5554 140.871C13.8139 140.658 14.1023 140.523 14.4205 140.466V140.415C14.0028 140.307 13.6705 140.072 13.4233 139.712C13.1761 139.348 13.054 138.935 13.0568 138.472C13.054 138.028 13.1662 137.632 13.3935 137.283C13.6207 136.933 13.9332 136.658 14.331 136.456C14.7315 136.254 15.1875 136.153 15.6989 136.153C16.2045 136.153 16.6563 136.254 17.054 136.456C17.4517 136.658 17.7642 136.933 17.9915 137.283C18.2216 137.632 18.3381 138.028 18.3409 138.472C18.3381 138.935 18.2116 139.348 17.9616 139.712C17.7145 140.072 17.3864 140.307 16.9773 140.415V140.466C17.2926 140.523 17.5767 140.658 17.8295 140.871C18.0824 141.081 18.2841 141.344 18.4347 141.659C18.5852 141.972 18.6619 142.312 18.6648 142.682C18.6619 143.153 18.5341 143.574 18.2812 143.943C18.0312 144.31 17.6832 144.598 17.2372 144.808C16.794 145.016 16.2813 145.119 15.6989 145.119ZM15.6989 144.182C16.0938 144.182 16.4347 144.118 16.7216 143.99C17.0085 143.862 17.2301 143.682 17.3864 143.449C17.5426 143.216 17.6222 142.943 17.625 142.631C17.6222 142.301 17.5369 142.01 17.3693 141.757C17.2017 141.504 16.973 141.305 16.6832 141.161C16.3963 141.016 16.0682 140.943 15.6989 140.943C15.3267 140.943 14.9943 141.016 14.7017 141.161C14.4119 141.305 14.1832 141.504 14.0156 141.757C13.8509 142.01 13.7699 142.301 13.7727 142.631C13.7699 142.943 13.8452 143.216 13.9986 143.449C14.1548 143.682 14.3778 143.862 14.6676 143.99C14.9574 144.118 15.3011 144.182 15.6989 144.182ZM15.6989 140.04C16.0114 140.04 16.2884 139.977 16.5298 139.852C16.7741 139.727 16.9659 139.553 17.1051 139.328C17.2443 139.104 17.3153 138.841 17.3182 138.54C17.3153 138.244 17.2457 137.987 17.1094 137.768C16.973 137.547 16.7841 137.376 16.5426 137.257C16.3011 137.135 16.0199 137.074 15.6989 137.074C15.3722 137.074 15.0866 137.135 14.8423 137.257C14.598 137.376 14.4091 137.547 14.2756 137.768C14.142 137.987 14.0767 138.244 14.0795 138.54C14.0767 138.841 14.1435 139.104 14.2798 139.328C14.419 139.553 14.6108 139.727 14.8551 139.852C15.0994 139.977 15.3807 140.04 15.6989 140.04ZM23.2302 145.119C22.5882 145.119 22.0413 144.945 21.5896 144.595C21.1379 144.243 20.7927 143.733 20.5541 143.065C20.3155 142.395 20.1962 141.585 20.1962 140.636C20.1962 139.693 20.3155 138.888 20.5541 138.22C20.7956 137.55 21.1422 137.038 21.5939 136.686C22.0484 136.331 22.5939 136.153 23.2302 136.153C23.8666 136.153 24.4106 136.331 24.8623 136.686C25.3169 137.038 25.6635 137.55 25.9021 138.22C26.1436 138.888 26.2643 139.693 26.2643 140.636C26.2643 141.585 26.145 142.395 25.9064 143.065C25.6677 143.733 25.3226 144.243 24.8709 144.595C24.4192 144.945 23.8723 145.119 23.2302 145.119ZM23.2302 144.182C23.8666 144.182 24.3609 143.875 24.7132 143.261C25.0655 142.648 25.2416 141.773 25.2416 140.636C25.2416 139.881 25.1606 139.237 24.9987 138.706C24.8396 138.175 24.6095 137.77 24.3084 137.491C24.0101 137.213 23.6507 137.074 23.2302 137.074C22.5996 137.074 22.1067 137.385 21.7516 138.007C21.3964 138.626 21.2189 139.503 21.2189 140.636C21.2189 141.392 21.2984 142.034 21.4575 142.562C21.6166 143.091 21.8453 143.493 22.1436 143.768C22.4447 144.044 22.807 144.182 23.2302 144.182ZM30.816 145.119C30.1739 145.119 29.627 144.945 29.1753 144.595C28.7236 144.243 28.3785 143.733 28.1398 143.065C27.9012 142.395 27.7819 141.585 27.7819 140.636C27.7819 139.693 27.9012 138.888 28.1398 138.22C28.3813 137.55 28.7279 137.038 29.1796 136.686C29.6341 136.331 30.1796 136.153 30.816 136.153C31.4523 136.153 31.9964 136.331 32.4481 136.686C32.9026 137.038 33.2492 137.55 33.4878 138.22C33.7293 138.888 33.8501 139.693 33.8501 140.636C33.8501 141.585 33.7307 142.395 33.4921 143.065C33.2535 143.733 32.9083 144.243 32.4566 144.595C32.0049 144.945 31.458 145.119 30.816 145.119ZM30.816 144.182C31.4523 144.182 31.9466 143.875 32.2989 143.261C32.6512 142.648 32.8273 141.773 32.8273 140.636C32.8273 139.881 32.7464 139.237 32.5844 138.706C32.4253 138.175 32.1952 137.77 31.8941 137.491C31.5958 137.213 31.2364 137.074 30.816 137.074C30.1853 137.074 29.6924 137.385 29.3373 138.007C28.9822 138.626 28.8046 139.503 28.8046 140.636C28.8046 141.392 28.8841 142.034 29.0432 142.562C29.2023 143.091 29.431 143.493 29.7293 143.768C30.0304 144.044 30.3927 144.182 30.816 144.182Z" fill="#92929D"/>
</g>
<path fill-rule="evenodd" clip-rule="evenodd" d="M187.957 269L187.957 170H188.957V269H187.957Z" fill="#0062FF"/>
<g filter="url(#filter0_d_35_288)">
<rect x="181" y="165" width="14" height="14" rx="7" fill="#0062FF"/>
<rect x="182" y="166" width="12" height="12" rx="6" stroke="white" stroke-width="2"/>
</g>
<g clip-path="url(#clip13_35_288)">
<g filter="url(#filter1_d_35_288)">
<path fill-rule="evenodd" clip-rule="evenodd" d="M191.462 158.149C189.55 160.617 186.45 160.617 184.538 158.149L181.39 154.654C180.442 153.601 179.092 153 177.675 153H169.229C162.543 153 160.118 152.304 157.674 150.997C155.229 149.689 153.311 147.771 152.003 145.326C150.696 142.882 150 140.457 150 133.771V117.229C150 110.543 150.696 108.118 152.003 105.674C153.311 103.229 155.229 101.311 157.674 100.003C160.118 98.6962 162.543 98 169.229 98H205.771C212.457 98 214.882 98.6962 217.326 100.003C219.771 101.311 221.689 103.229 222.997 105.674C224.304 108.118 225 110.543 225 117.229V133.771C225 140.457 224.304 142.882 222.997 145.326C221.689 147.771 219.771 149.689 217.326 150.997C214.882 152.304 212.457 153 205.771 153H200.551C197.717 153 195.017 154.202 193.12 156.308L191.462 158.149Z" fill="white"/>
</g>
<path d="M166.186 123.273V110.545H167.001V123.273H166.186ZM168.538 114.617C168.491 114.183 168.296 113.845 167.951 113.603C167.61 113.361 167.165 113.24 166.619 113.24C166.234 113.24 165.904 113.298 165.629 113.414C165.354 113.53 165.144 113.687 164.998 113.886C164.852 114.085 164.777 114.312 164.774 114.567C164.774 114.78 164.822 114.964 164.918 115.119C165.018 115.275 165.152 115.408 165.321 115.517C165.49 115.623 165.677 115.713 165.883 115.786C166.088 115.858 166.295 115.92 166.504 115.969L167.459 116.208C167.843 116.298 168.213 116.419 168.567 116.571C168.925 116.723 169.245 116.916 169.527 117.148C169.812 117.38 170.037 117.66 170.203 117.988C170.369 118.316 170.452 118.701 170.452 119.141C170.452 119.738 170.299 120.263 169.994 120.717C169.689 121.168 169.249 121.521 168.672 121.776C168.098 122.028 167.404 122.154 166.589 122.154C165.797 122.154 165.109 122.031 164.526 121.786C163.946 121.541 163.491 121.183 163.163 120.712C162.839 120.242 162.663 119.668 162.636 118.992H164.451C164.478 119.347 164.587 119.642 164.779 119.877C164.971 120.112 165.222 120.288 165.53 120.404C165.841 120.52 166.189 120.578 166.574 120.578C166.975 120.578 167.326 120.518 167.628 120.399C167.933 120.277 168.171 120.107 168.344 119.892C168.516 119.673 168.604 119.418 168.607 119.126C168.604 118.861 168.526 118.643 168.374 118.47C168.221 118.295 168.007 118.149 167.732 118.033C167.46 117.913 167.142 117.807 166.778 117.714L165.619 117.416C164.781 117.201 164.118 116.874 163.631 116.437C163.147 115.996 162.905 115.411 162.905 114.682C162.905 114.082 163.067 113.557 163.392 113.106C163.72 112.655 164.166 112.305 164.729 112.057C165.293 111.805 165.931 111.679 166.643 111.679C167.366 111.679 167.999 111.805 168.543 112.057C169.089 112.305 169.519 112.652 169.83 113.096C170.142 113.537 170.303 114.044 170.312 114.617H168.538ZM172.097 122V120.668L175.631 117.202C175.969 116.861 176.251 116.558 176.477 116.293C176.702 116.027 176.871 115.771 176.984 115.522C177.096 115.273 177.153 115.008 177.153 114.727C177.153 114.405 177.08 114.13 176.934 113.901C176.788 113.669 176.588 113.49 176.332 113.364C176.077 113.238 175.787 113.175 175.462 113.175C175.128 113.175 174.834 113.245 174.582 113.384C174.331 113.52 174.135 113.714 173.996 113.966C173.86 114.218 173.792 114.518 173.792 114.866H172.037C172.037 114.219 172.184 113.658 172.479 113.18C172.774 112.703 173.18 112.334 173.697 112.072C174.218 111.81 174.814 111.679 175.487 111.679C176.17 111.679 176.77 111.807 177.287 112.062C177.804 112.317 178.205 112.667 178.49 113.111C178.778 113.555 178.923 114.062 178.923 114.632C178.923 115.013 178.85 115.388 178.704 115.756C178.558 116.124 178.301 116.531 177.933 116.979C177.569 117.426 177.057 117.968 176.397 118.604L174.642 120.389V120.459H179.077V122H172.097ZM181.265 122L185.595 113.429V113.359H180.569V111.818H187.504V113.394L183.179 122H181.265ZM192.719 122.139C192.231 122.136 191.756 122.051 191.292 121.886C190.828 121.717 190.41 121.443 190.039 121.065C189.668 120.684 189.373 120.179 189.154 119.549C188.935 118.916 188.828 118.132 188.831 117.197C188.831 116.326 188.924 115.549 189.109 114.866C189.295 114.183 189.562 113.606 189.91 113.136C190.258 112.662 190.677 112.3 191.168 112.052C191.661 111.803 192.213 111.679 192.823 111.679C193.463 111.679 194.03 111.805 194.523 112.057C195.021 112.309 195.422 112.653 195.726 113.091C196.031 113.525 196.22 114.016 196.293 114.562H194.479C194.386 114.171 194.195 113.86 193.907 113.628C193.622 113.393 193.261 113.275 192.823 113.275C192.117 113.275 191.574 113.581 191.192 114.195C190.815 114.808 190.624 115.65 190.621 116.72H190.69C190.853 116.429 191.063 116.178 191.322 115.969C191.58 115.761 191.872 115.6 192.197 115.487C192.525 115.371 192.871 115.313 193.236 115.313C193.832 115.313 194.368 115.456 194.842 115.741C195.319 116.026 195.697 116.419 195.975 116.919C196.253 117.416 196.391 117.986 196.388 118.629C196.391 119.299 196.239 119.9 195.93 120.434C195.622 120.964 195.193 121.382 194.643 121.687C194.092 121.992 193.451 122.143 192.719 122.139ZM192.709 120.648C193.07 120.648 193.393 120.56 193.678 120.384C193.963 120.209 194.189 119.972 194.354 119.673C194.52 119.375 194.601 119.04 194.598 118.669C194.601 118.304 194.522 117.975 194.359 117.68C194.2 117.385 193.98 117.151 193.698 116.979C193.416 116.806 193.095 116.72 192.734 116.72C192.465 116.72 192.215 116.772 191.983 116.874C191.751 116.977 191.549 117.12 191.376 117.302C191.204 117.481 191.068 117.69 190.969 117.928C190.873 118.164 190.823 118.415 190.82 118.684C190.823 119.039 190.906 119.365 191.068 119.663C191.231 119.962 191.454 120.2 191.739 120.379C192.024 120.558 192.347 120.648 192.709 120.648ZM201.822 122.139C201.106 122.139 200.47 122.017 199.913 121.771C199.36 121.526 198.922 121.185 198.601 120.747C198.279 120.31 198.108 119.804 198.089 119.231H199.958C199.974 119.506 200.066 119.746 200.231 119.952C200.397 120.154 200.617 120.311 200.893 120.424C201.168 120.537 201.476 120.593 201.817 120.593C202.182 120.593 202.505 120.53 202.787 120.404C203.068 120.275 203.289 120.096 203.448 119.867C203.607 119.638 203.685 119.375 203.682 119.077C203.685 118.768 203.605 118.497 203.443 118.261C203.281 118.026 203.045 117.842 202.737 117.71C202.432 117.577 202.064 117.511 201.633 117.511H200.733V116.089H201.633C201.988 116.089 202.298 116.027 202.563 115.905C202.831 115.782 203.042 115.61 203.194 115.388C203.347 115.162 203.421 114.902 203.418 114.607C203.421 114.319 203.357 114.069 203.224 113.857C203.095 113.641 202.911 113.474 202.672 113.354C202.437 113.235 202.16 113.175 201.842 113.175C201.531 113.175 201.242 113.232 200.977 113.344C200.712 113.457 200.498 113.618 200.336 113.827C200.173 114.032 200.087 114.277 200.077 114.562H198.302C198.316 113.992 198.48 113.492 198.795 113.061C199.113 112.627 199.537 112.289 200.067 112.047C200.598 111.802 201.192 111.679 201.852 111.679C202.532 111.679 203.121 111.807 203.622 112.062C204.126 112.314 204.515 112.653 204.79 113.081C205.065 113.509 205.203 113.981 205.203 114.498C205.206 115.071 205.037 115.552 204.696 115.94C204.358 116.327 203.914 116.581 203.363 116.7V116.78C204.079 116.879 204.628 117.144 205.009 117.575C205.393 118.003 205.584 118.535 205.581 119.171C205.581 119.741 205.418 120.252 205.094 120.702C204.772 121.15 204.328 121.501 203.761 121.756C203.198 122.012 202.551 122.139 201.822 122.139ZM207.387 122V120.668L210.922 117.202C211.26 116.861 211.542 116.558 211.767 116.293C211.993 116.027 212.162 115.771 212.274 115.522C212.387 115.273 212.443 115.008 212.443 114.727C212.443 114.405 212.37 114.13 212.225 113.901C212.079 113.669 211.878 113.49 211.623 113.364C211.368 113.238 211.078 113.175 210.753 113.175C210.418 113.175 210.125 113.245 209.873 113.384C209.621 113.52 209.426 113.714 209.286 113.966C209.151 114.218 209.083 114.518 209.083 114.866H207.328C207.328 114.219 207.475 113.658 207.77 113.18C208.065 112.703 208.471 112.334 208.988 112.072C209.508 111.81 210.105 111.679 210.778 111.679C211.461 111.679 212.061 111.807 212.578 112.062C213.095 112.317 213.496 112.667 213.781 113.111C214.069 113.555 214.213 114.062 214.213 114.632C214.213 115.013 214.14 115.388 213.994 115.756C213.849 116.124 213.592 116.531 213.224 116.979C212.859 117.426 212.347 117.968 211.688 118.604L209.933 120.389V120.459H214.367V122H207.387Z" fill="#171725"/>
<path d="M169.415 143H168.307L171.511 134.273H172.602L175.807 143H174.699L172.091 135.653H172.023L169.415 143ZM169.824 139.591H174.29V140.528H169.824V139.591ZM179.758 145.591C179.272 145.591 178.854 145.528 178.505 145.403C178.155 145.281 177.864 145.119 177.631 144.918C177.401 144.719 177.218 144.506 177.081 144.278L177.883 143.716C177.973 143.835 178.089 143.972 178.228 144.125C178.367 144.281 178.557 144.416 178.799 144.53C179.043 144.646 179.363 144.705 179.758 144.705C180.286 144.705 180.722 144.577 181.066 144.321C181.41 144.065 181.581 143.665 181.581 143.119V141.79H181.496C181.422 141.909 181.317 142.057 181.181 142.233C181.047 142.406 180.854 142.561 180.601 142.697C180.351 142.831 180.013 142.898 179.587 142.898C179.059 142.898 178.584 142.773 178.164 142.523C177.746 142.273 177.415 141.909 177.171 141.432C176.929 140.955 176.809 140.375 176.809 139.693C176.809 139.023 176.927 138.439 177.162 137.942C177.398 137.442 177.726 137.055 178.147 136.783C178.567 136.507 179.053 136.369 179.604 136.369C180.03 136.369 180.368 136.44 180.618 136.582C180.871 136.722 181.064 136.881 181.198 137.06C181.334 137.236 181.439 137.381 181.513 137.494H181.616V136.455H182.587V143.188C182.587 143.75 182.459 144.207 182.204 144.56C181.951 144.915 181.61 145.175 181.181 145.339C180.755 145.507 180.28 145.591 179.758 145.591ZM179.723 141.994C180.127 141.994 180.468 141.902 180.746 141.717C181.025 141.533 181.236 141.267 181.381 140.92C181.526 140.574 181.598 140.159 181.598 139.676C181.598 139.205 181.527 138.788 181.385 138.428C181.243 138.067 181.033 137.784 180.755 137.58C180.476 137.375 180.133 137.273 179.723 137.273C179.297 137.273 178.942 137.381 178.658 137.597C178.377 137.812 178.165 138.102 178.023 138.466C177.884 138.83 177.814 139.233 177.814 139.676C177.814 140.131 177.885 140.533 178.027 140.882C178.172 141.229 178.385 141.501 178.667 141.7C178.951 141.896 179.303 141.994 179.723 141.994ZM187.173 143.136C186.582 143.136 186.063 142.996 185.617 142.714C185.174 142.433 184.828 142.04 184.578 141.534C184.331 141.028 184.207 140.437 184.207 139.761C184.207 139.08 184.331 138.484 184.578 137.976C184.828 137.467 185.174 137.072 185.617 136.791C186.063 136.51 186.582 136.369 187.173 136.369C187.764 136.369 188.281 136.51 188.724 136.791C189.17 137.072 189.517 137.467 189.764 137.976C190.014 138.484 190.139 139.08 190.139 139.761C190.139 140.437 190.014 141.028 189.764 141.534C189.517 142.04 189.17 142.433 188.724 142.714C188.281 142.996 187.764 143.136 187.173 143.136ZM187.173 142.233C187.622 142.233 187.991 142.118 188.281 141.888C188.571 141.658 188.785 141.355 188.924 140.98C189.063 140.605 189.133 140.199 189.133 139.761C189.133 139.324 189.063 138.916 188.924 138.538C188.785 138.161 188.571 137.855 188.281 137.622C187.991 137.389 187.622 137.273 187.173 137.273C186.724 137.273 186.355 137.389 186.065 137.622C185.775 137.855 185.561 138.161 185.421 138.538C185.282 138.916 185.213 139.324 185.213 139.761C185.213 140.199 185.282 140.605 185.421 140.98C185.561 141.355 185.775 141.658 186.065 141.888C186.355 142.118 186.724 142.233 187.173 142.233ZM196.396 137.92L195.493 138.176C195.436 138.026 195.352 137.879 195.241 137.737C195.133 137.592 194.985 137.473 194.798 137.379C194.61 137.286 194.37 137.239 194.078 137.239C193.677 137.239 193.343 137.331 193.076 137.516C192.812 137.697 192.68 137.929 192.68 138.21C192.68 138.46 192.771 138.658 192.953 138.803C193.135 138.947 193.419 139.068 193.805 139.165L194.777 139.403C195.362 139.545 195.798 139.763 196.085 140.055C196.372 140.345 196.515 140.719 196.515 141.176C196.515 141.551 196.407 141.886 196.191 142.182C195.978 142.477 195.68 142.71 195.297 142.881C194.913 143.051 194.467 143.136 193.958 143.136C193.291 143.136 192.738 142.991 192.301 142.702C191.863 142.412 191.586 141.989 191.47 141.432L192.424 141.193C192.515 141.545 192.687 141.81 192.94 141.986C193.196 142.162 193.53 142.25 193.941 142.25C194.41 142.25 194.782 142.151 195.058 141.952C195.336 141.75 195.476 141.509 195.476 141.227C195.476 141 195.396 140.81 195.237 140.656C195.078 140.5 194.833 140.384 194.504 140.307L193.413 140.051C192.814 139.909 192.373 139.689 192.092 139.391C191.814 139.089 191.674 138.713 191.674 138.261C191.674 137.892 191.778 137.565 191.985 137.281C192.196 136.997 192.481 136.774 192.842 136.612C193.206 136.45 193.618 136.369 194.078 136.369C194.726 136.369 195.234 136.511 195.603 136.795C195.976 137.08 196.24 137.455 196.396 137.92ZM200.961 136.455V137.307H197.569V136.455H200.961ZM198.558 134.886H199.564V141.125C199.564 141.409 199.605 141.622 199.687 141.764C199.773 141.903 199.88 141.997 200.011 142.045C200.145 142.091 200.285 142.114 200.433 142.114C200.544 142.114 200.635 142.108 200.706 142.097C200.777 142.082 200.834 142.071 200.876 142.062L201.081 142.966C201.013 142.991 200.917 143.017 200.795 143.043C200.673 143.071 200.518 143.085 200.331 143.085C200.047 143.085 199.768 143.024 199.496 142.902C199.226 142.78 199.001 142.594 198.822 142.344C198.646 142.094 198.558 141.778 198.558 141.398V134.886ZM205.149 143.136C204.558 143.136 204.039 142.996 203.593 142.714C203.15 142.433 202.804 142.04 202.554 141.534C202.306 141.028 202.183 140.437 202.183 139.761C202.183 139.08 202.306 138.484 202.554 137.976C202.804 137.467 203.15 137.072 203.593 136.791C204.039 136.51 204.558 136.369 205.149 136.369C205.74 136.369 206.257 136.51 206.7 136.791C207.146 137.072 207.492 137.467 207.74 137.976C207.99 138.484 208.115 139.08 208.115 139.761C208.115 140.437 207.99 141.028 207.74 141.534C207.492 142.04 207.146 142.433 206.7 142.714C206.257 142.996 205.74 143.136 205.149 143.136ZM205.149 142.233C205.598 142.233 205.967 142.118 206.257 141.888C206.546 141.658 206.761 141.355 206.9 140.98C207.039 140.605 207.109 140.199 207.109 139.761C207.109 139.324 207.039 138.916 206.9 138.538C206.761 138.161 206.546 137.855 206.257 137.622C205.967 137.389 205.598 137.273 205.149 137.273C204.7 137.273 204.331 137.389 204.041 137.622C203.751 137.855 203.537 138.161 203.397 138.538C203.258 138.916 203.189 139.324 203.189 139.761C203.189 140.199 203.258 140.605 203.397 140.98C203.537 141.355 203.751 141.658 204.041 141.888C204.331 142.118 204.7 142.233 205.149 142.233Z" fill="#696974"/>
</g>
<g clip-path="url(#clip14_35_288)">
<rect x="159" y="58" width="9.31868" height="10" rx="4.65934" fill="#3DD598"/>
<path d="M175.491 57.8182L178.513 66.3892H178.633L181.655 57.8182H182.948L179.209 68H177.937L174.198 57.8182H175.491ZM186.966 68.1591C186.23 68.1591 185.595 67.9967 185.061 67.6719C184.531 67.3438 184.122 66.8864 183.833 66.2997C183.548 65.7098 183.406 65.0237 183.406 64.2415C183.406 63.4593 183.548 62.7699 183.833 62.1733C184.122 61.5734 184.523 61.1061 185.037 60.7713C185.554 60.4332 186.157 60.2642 186.846 60.2642C187.244 60.2642 187.637 60.3305 188.025 60.4631C188.412 60.5956 188.765 60.8111 189.083 61.1094C189.402 61.4044 189.655 61.7955 189.844 62.2827C190.033 62.7699 190.127 63.3698 190.127 64.0824V64.5795H184.241V63.5653H188.934C188.934 63.1345 188.848 62.75 188.676 62.4119C188.507 62.0739 188.265 61.8071 187.95 61.6115C187.638 61.416 187.27 61.3182 186.846 61.3182C186.379 61.3182 185.975 61.4342 185.633 61.6662C185.295 61.8949 185.035 62.1932 184.853 62.5611C184.67 62.929 184.579 63.3234 184.579 63.7443V64.4205C184.579 64.9972 184.679 65.486 184.877 65.8871C185.08 66.2848 185.36 66.5881 185.718 66.7969C186.076 67.0024 186.492 67.1051 186.966 67.1051C187.274 67.1051 187.552 67.062 187.801 66.9759C188.053 66.8864 188.27 66.7538 188.452 66.5781C188.634 66.3991 188.775 66.1771 188.875 65.9119L190.008 66.2301C189.889 66.6146 189.688 66.9527 189.407 67.2443C189.125 67.5327 188.777 67.758 188.363 67.9205C187.948 68.0795 187.483 68.1591 186.966 68.1591ZM193.186 63.4062V68H192.012V60.3636H193.146V61.5568H193.245C193.424 61.169 193.696 60.8575 194.061 60.6222C194.425 60.3835 194.896 60.2642 195.473 60.2642C195.99 60.2642 196.442 60.3703 196.83 60.5824C197.218 60.7912 197.519 61.1094 197.735 61.5369C197.95 61.9612 198.058 62.4981 198.058 63.1477V68H196.884V63.2273C196.884 62.6274 196.729 62.16 196.417 61.8253C196.106 61.4872 195.678 61.3182 195.134 61.3182C194.76 61.3182 194.425 61.3994 194.13 61.5618C193.839 61.7242 193.608 61.9612 193.439 62.2727C193.27 62.5843 193.186 62.9621 193.186 63.4062ZM203.185 68.1591C202.549 68.1591 201.987 67.9983 201.5 67.6768C201.013 67.352 200.632 66.8946 200.356 66.3047C200.081 65.7114 199.944 65.0104 199.944 64.2017C199.944 63.3996 200.081 62.7036 200.356 62.1136C200.632 61.5237 201.014 61.0679 201.505 60.7464C201.995 60.425 202.562 60.2642 203.205 60.2642C203.702 60.2642 204.095 60.3471 204.383 60.5128C204.675 60.6752 204.897 60.8608 205.05 61.0696C205.205 61.2751 205.326 61.4441 205.413 61.5767H205.512V57.8182H206.685V68H205.552V66.8267H205.413C205.326 66.9659 205.204 67.1416 205.045 67.3537C204.886 67.5625 204.659 67.7498 204.364 67.9155C204.069 68.0779 203.676 68.1591 203.185 68.1591ZM203.344 67.1051C203.815 67.1051 204.213 66.9825 204.538 66.7372C204.862 66.4886 205.109 66.1456 205.278 65.7081C205.447 65.2673 205.532 64.7585 205.532 64.1818C205.532 63.6117 205.449 63.1129 205.283 62.6854C205.118 62.2545 204.872 61.9197 204.547 61.6811C204.223 61.4392 203.822 61.3182 203.344 61.3182C202.847 61.3182 202.433 61.4458 202.101 61.701C201.773 61.9529 201.526 62.2959 201.361 62.7301C201.198 63.161 201.117 63.6449 201.117 64.1818C201.117 64.7254 201.2 65.2192 201.366 65.6634C201.535 66.1042 201.783 66.4555 202.111 66.7173C202.443 66.9759 202.854 67.1051 203.344 67.1051ZM211.344 68.179C210.86 68.179 210.421 68.0878 210.027 67.9055C209.632 67.7199 209.319 67.4531 209.087 67.1051C208.855 66.7538 208.739 66.3295 208.739 65.8324C208.739 65.3949 208.825 65.0402 208.998 64.7685C209.17 64.4934 209.4 64.2779 209.689 64.1222C209.977 63.9664 210.295 63.8504 210.643 63.7741C210.995 63.6946 211.348 63.6316 211.702 63.5852C212.166 63.5256 212.542 63.4808 212.831 63.451C213.122 63.4179 213.335 63.3632 213.467 63.2869C213.603 63.2107 213.671 63.0781 213.671 62.8892V62.8494C213.671 62.3589 213.537 61.9777 213.268 61.706C213.003 61.4342 212.6 61.2983 212.06 61.2983C211.5 61.2983 211.061 61.4209 210.743 61.6662C210.424 61.9115 210.201 62.1733 210.071 62.4517L208.958 62.054C209.157 61.59 209.422 61.2287 209.753 60.9702C210.088 60.7083 210.453 60.526 210.847 60.4233C211.245 60.3172 211.636 60.2642 212.02 60.2642C212.266 60.2642 212.547 60.294 212.866 60.3537C213.187 60.41 213.497 60.5277 213.795 60.7067C214.097 60.8857 214.347 61.1558 214.546 61.517C214.745 61.8783 214.844 62.3622 214.844 62.9688V68H213.671V66.9659H213.611C213.532 67.1316 213.399 67.3089 213.214 67.4979C213.028 67.6868 212.781 67.8475 212.473 67.9801C212.165 68.1127 211.788 68.179 211.344 68.179ZM211.523 67.125C211.987 67.125 212.378 67.0339 212.696 66.8516C213.018 66.6693 213.26 66.4339 213.422 66.1456C213.588 65.8572 213.671 65.554 213.671 65.2358V64.1619C213.621 64.2216 213.512 64.2763 213.343 64.326C213.177 64.3724 212.985 64.4138 212.766 64.4503C212.551 64.4834 212.34 64.5133 212.135 64.5398C211.933 64.563 211.768 64.5829 211.643 64.5994C211.338 64.6392 211.053 64.7038 210.787 64.7933C210.526 64.8795 210.313 65.0104 210.151 65.1861C209.992 65.3584 209.912 65.5937 209.912 65.892C209.912 66.2997 210.063 66.608 210.365 66.8168C210.67 67.0223 211.056 67.125 211.523 67.125ZM229.476 61H228.243C228.17 60.6454 228.042 60.3338 227.86 60.0653C227.681 59.7969 227.462 59.5715 227.203 59.3892C226.948 59.2036 226.665 59.0644 226.353 58.9716C226.042 58.8788 225.717 58.8324 225.379 58.8324C224.762 58.8324 224.204 58.9882 223.703 59.2997C223.206 59.6113 222.81 60.0703 222.515 60.6768C222.224 61.2834 222.078 62.0275 222.078 62.9091C222.078 63.7907 222.224 64.5348 222.515 65.1413C222.81 65.7479 223.206 66.2069 223.703 66.5185C224.204 66.83 224.762 66.9858 225.379 66.9858C225.717 66.9858 226.042 66.9394 226.353 66.8466C226.665 66.7538 226.948 66.6162 227.203 66.4339C227.462 66.2483 227.681 66.0213 227.86 65.7528C228.042 65.4811 228.17 65.1695 228.243 64.8182H229.476C229.383 65.3385 229.214 65.8042 228.968 66.2152C228.723 66.6262 228.418 66.9759 228.054 67.2642C227.689 67.5492 227.28 67.7663 226.826 67.9155C226.375 68.0646 225.893 68.1392 225.379 68.1392C224.511 68.1392 223.738 67.9271 223.062 67.5028C222.386 67.0786 221.854 66.4754 221.466 65.6932C221.078 64.911 220.885 63.983 220.885 62.9091C220.885 61.8352 221.078 60.9072 221.466 60.125C221.854 59.3428 222.386 58.7396 223.062 58.3153C223.738 57.8911 224.511 57.679 225.379 57.679C225.893 57.679 226.375 57.7536 226.826 57.9027C227.28 58.0518 227.689 58.2706 228.054 58.5589C228.418 58.844 228.723 59.192 228.968 59.603C229.214 60.0107 229.383 60.4763 229.476 61ZM233.656 68.179C233.172 68.179 232.733 68.0878 232.338 67.9055C231.944 67.7199 231.631 67.4531 231.399 67.1051C231.167 66.7538 231.051 66.3295 231.051 65.8324C231.051 65.3949 231.137 65.0402 231.309 64.7685C231.482 64.4934 231.712 64.2779 232 64.1222C232.289 63.9664 232.607 63.8504 232.955 63.7741C233.306 63.6946 233.659 63.6316 234.014 63.5852C234.478 63.5256 234.854 63.4808 235.142 63.451C235.434 63.4179 235.646 63.3632 235.779 63.2869C235.915 63.2107 235.983 63.0781 235.983 62.8892V62.8494C235.983 62.3589 235.848 61.9777 235.58 61.706C235.315 61.4342 234.912 61.2983 234.372 61.2983C233.812 61.2983 233.373 61.4209 233.054 61.6662C232.736 61.9115 232.512 62.1733 232.383 62.4517L231.27 62.054C231.468 61.59 231.734 61.2287 232.065 60.9702C232.4 60.7083 232.764 60.526 233.159 60.4233C233.557 60.3172 233.948 60.2642 234.332 60.2642C234.577 60.2642 234.859 60.294 235.177 60.3537C235.499 60.41 235.809 60.5277 236.107 60.7067C236.409 60.8857 236.659 61.1558 236.858 61.517C237.057 61.8783 237.156 62.3622 237.156 62.9688V68H235.983V66.9659H235.923C235.843 67.1316 235.711 67.3089 235.525 67.4979C235.34 67.6868 235.093 67.8475 234.784 67.9801C234.476 68.1127 234.1 68.179 233.656 68.179ZM233.835 67.125C234.299 67.125 234.69 67.0339 235.008 66.8516C235.33 66.6693 235.572 66.4339 235.734 66.1456C235.9 65.8572 235.983 65.554 235.983 65.2358V64.1619C235.933 64.2216 235.824 64.2763 235.655 64.326C235.489 64.3724 235.297 64.4138 235.078 64.4503C234.862 64.4834 234.652 64.5133 234.446 64.5398C234.244 64.563 234.08 64.5829 233.954 64.5994C233.649 64.6392 233.364 64.7038 233.099 64.7933C232.837 64.8795 232.625 65.0104 232.463 65.1861C232.304 65.3584 232.224 65.5937 232.224 65.892C232.224 66.2997 232.375 66.608 232.677 66.8168C232.981 67.0223 233.368 67.125 233.835 67.125ZM244.807 62.0739L243.753 62.3722C243.686 62.1965 243.589 62.0258 243.459 61.8601C243.333 61.6911 243.161 61.5518 242.942 61.4425C242.723 61.3331 242.443 61.2784 242.102 61.2784C241.635 61.2784 241.245 61.3861 240.934 61.6016C240.625 61.8137 240.471 62.0838 240.471 62.4119C240.471 62.7036 240.577 62.9339 240.79 63.103C241.002 63.272 241.333 63.4129 241.784 63.5256L242.917 63.804C243.6 63.9697 244.109 64.2232 244.444 64.5646C244.778 64.9027 244.946 65.3385 244.946 65.8722C244.946 66.3097 244.82 66.7008 244.568 67.0455C244.319 67.3902 243.971 67.6619 243.524 67.8608C243.076 68.0597 242.556 68.1591 241.963 68.1591C241.184 68.1591 240.539 67.9901 240.029 67.652C239.518 67.3139 239.195 66.8201 239.059 66.1705L240.173 65.892C240.279 66.303 240.48 66.6113 240.775 66.8168C241.073 67.0223 241.462 67.125 241.943 67.125C242.49 67.125 242.924 67.009 243.245 66.777C243.57 66.5417 243.733 66.2599 243.733 65.9318C243.733 65.6667 243.64 65.4446 243.454 65.2656C243.269 65.0833 242.984 64.9474 242.599 64.858L241.326 64.5597C240.627 64.3939 240.113 64.1371 239.785 63.7891C239.46 63.4377 239.298 62.9986 239.298 62.4716C239.298 62.0407 239.419 61.6596 239.661 61.3281C239.906 60.9967 240.239 60.7365 240.66 60.5476C241.084 60.3587 241.565 60.2642 242.102 60.2642C242.858 60.2642 243.451 60.4299 243.882 60.7614C244.316 61.0928 244.624 61.5303 244.807 62.0739ZM249.914 68.1591C249.225 68.1591 248.62 67.995 248.1 67.6669C247.583 67.3388 247.178 66.8797 246.886 66.2898C246.598 65.6998 246.454 65.0104 246.454 64.2216C246.454 63.4261 246.598 62.7318 246.886 62.1385C247.178 61.5452 247.583 61.0845 248.1 60.7564C248.62 60.4283 249.225 60.2642 249.914 60.2642C250.604 60.2642 251.207 60.4283 251.724 60.7564C252.244 61.0845 252.649 61.5452 252.937 62.1385C253.229 62.7318 253.374 63.4261 253.374 64.2216C253.374 65.0104 253.229 65.6998 252.937 66.2898C252.649 66.8797 252.244 67.3388 251.724 67.6669C251.207 67.995 250.604 68.1591 249.914 68.1591ZM249.914 67.1051C250.438 67.1051 250.869 66.9709 251.207 66.7024C251.545 66.4339 251.795 66.081 251.958 65.6435C252.12 65.206 252.201 64.732 252.201 64.2216C252.201 63.7112 252.12 63.2356 251.958 62.7947C251.795 62.3539 251.545 61.9976 251.207 61.7259C250.869 61.4541 250.438 61.3182 249.914 61.3182C249.391 61.3182 248.96 61.4541 248.622 61.7259C248.283 61.9976 248.033 62.3539 247.871 62.7947C247.708 63.2356 247.627 63.7112 247.627 64.2216C247.627 64.732 247.708 65.206 247.871 65.6435C248.033 66.081 248.283 66.4339 248.622 66.7024C248.96 66.9709 249.391 67.1051 249.914 67.1051ZM260.675 62.0739L259.621 62.3722C259.554 62.1965 259.456 62.0258 259.327 61.8601C259.201 61.6911 259.029 61.5518 258.81 61.4425C258.591 61.3331 258.311 61.2784 257.97 61.2784C257.503 61.2784 257.113 61.3861 256.802 61.6016C256.493 61.8137 256.339 62.0838 256.339 62.4119C256.339 62.7036 256.445 62.9339 256.657 63.103C256.87 63.272 257.201 63.4129 257.652 63.5256L258.785 63.804C259.468 63.9697 259.977 64.2232 260.312 64.5646C260.646 64.9027 260.814 65.3385 260.814 65.8722C260.814 66.3097 260.688 66.7008 260.436 67.0455C260.187 67.3902 259.839 67.6619 259.392 67.8608C258.944 68.0597 258.424 68.1591 257.831 68.1591C257.052 68.1591 256.407 67.9901 255.897 67.652C255.386 67.3139 255.063 66.8201 254.927 66.1705L256.041 65.892C256.147 66.303 256.348 66.6113 256.643 66.8168C256.941 67.0223 257.33 67.125 257.811 67.125C258.358 67.125 258.792 67.009 259.113 66.777C259.438 66.5417 259.601 66.2599 259.601 65.9318C259.601 65.6667 259.508 65.4446 259.322 65.2656C259.137 65.0833 258.852 64.9474 258.467 64.858L257.194 64.5597C256.495 64.3939 255.981 64.1371 255.653 63.7891C255.328 63.4377 255.166 62.9986 255.166 62.4716C255.166 62.0407 255.287 61.6596 255.529 61.3281C255.774 60.9967 256.107 60.7365 256.528 60.5476C256.952 60.3587 257.433 60.2642 257.97 60.2642C258.726 60.2642 259.319 60.4299 259.75 60.7614C260.184 61.0928 260.492 61.5303 260.675 62.0739Z" fill="#44444F"/>
</g>
<g clip-path="url(#clip15_35_288)">
<rect x="15" y="58" width="9.3913" height="10" rx="4.69565" fill="#0062FF"/>
<path d="M31.9114 57.8182L34.9342 66.3892H35.0535L38.0762 57.8182H39.3688L35.6302 68H34.3575L30.6188 57.8182H31.9114ZM43.3864 68.1591C42.6506 68.1591 42.0159 67.9967 41.4823 67.6719C40.952 67.3438 40.5427 66.8864 40.2543 66.2997C39.9693 65.7098 39.8268 65.0237 39.8268 64.2415C39.8268 63.4593 39.9693 62.7699 40.2543 62.1733C40.5427 61.5734 40.9437 61.1061 41.4575 60.7713C41.9745 60.4332 42.5777 60.2642 43.2671 60.2642C43.6648 60.2642 44.0576 60.3305 44.4454 60.4631C44.8332 60.5956 45.1861 60.8111 45.5043 61.1094C45.8225 61.4044 46.0761 61.7955 46.265 62.2827C46.4539 62.7699 46.5484 63.3698 46.5484 64.0824V64.5795H40.662V63.5653H45.3552C45.3552 63.1345 45.269 62.75 45.0967 62.4119C44.9276 62.0739 44.6857 61.8071 44.3708 61.6115C44.0593 61.416 43.6914 61.3182 43.2671 61.3182C42.7998 61.3182 42.3954 61.4342 42.054 61.6662C41.716 61.8949 41.4558 62.1932 41.2735 62.5611C41.0912 62.929 41.0001 63.3234 41.0001 63.7443V64.4205C41.0001 64.9972 41.0995 65.486 41.2984 65.8871C41.5005 66.2848 41.7806 66.5881 42.1386 66.7969C42.4965 67.0024 42.9125 67.1051 43.3864 67.1051C43.6947 67.1051 43.9731 67.062 44.2217 66.9759C44.4736 66.8864 44.6906 66.7538 44.8729 66.5781C45.0552 66.3991 45.1961 66.1771 45.2955 65.9119L46.429 66.2301C46.3097 66.6146 46.1092 66.9527 45.8275 67.2443C45.5458 67.5327 45.1977 67.758 44.7834 67.9205C44.3692 68.0795 43.9035 68.1591 43.3864 68.1591ZM49.6065 63.4062V68H48.4332V60.3636H49.5667V61.5568H49.6661C49.8451 61.169 50.1169 60.8575 50.4815 60.6222C50.846 60.3835 51.3167 60.2642 51.8934 60.2642C52.4104 60.2642 52.8629 60.3703 53.2506 60.5824C53.6384 60.7912 53.94 61.1094 54.1555 61.5369C54.3709 61.9612 54.4786 62.4981 54.4786 63.1477V68H53.3053V63.2273C53.3053 62.6274 53.1495 62.16 52.838 61.8253C52.5264 61.4872 52.0989 61.3182 51.5553 61.3182C51.1808 61.3182 50.846 61.3994 50.5511 61.5618C50.2594 61.7242 50.029 61.9612 49.86 62.2727C49.691 62.5843 49.6065 62.9621 49.6065 63.4062ZM59.6061 68.1591C58.9698 68.1591 58.408 67.9983 57.9208 67.6768C57.4336 67.352 57.0524 66.8946 56.7773 66.3047C56.5022 65.7114 56.3647 65.0104 56.3647 64.2017C56.3647 63.3996 56.5022 62.7036 56.7773 62.1136C57.0524 61.5237 57.4352 61.0679 57.9257 60.7464C58.4163 60.425 58.983 60.2642 59.626 60.2642C60.1232 60.2642 60.5159 60.3471 60.8043 60.5128C61.096 60.6752 61.318 60.8608 61.4705 61.0696C61.6263 61.2751 61.7472 61.4441 61.8334 61.5767H61.9328V57.8182H63.1061V68H61.9726V66.8267H61.8334C61.7472 66.9659 61.6246 67.1416 61.4655 67.3537C61.3064 67.5625 61.0794 67.7498 60.7844 67.9155C60.4894 68.0779 60.0967 68.1591 59.6061 68.1591ZM59.7652 67.1051C60.2359 67.1051 60.6336 66.9825 60.9584 66.7372C61.2832 66.4886 61.5301 66.1456 61.6992 65.7081C61.8682 65.2673 61.9527 64.7585 61.9527 64.1818C61.9527 63.6117 61.8699 63.1129 61.7042 62.6854C61.5384 62.2545 61.2932 61.9197 60.9684 61.6811C60.6435 61.4392 60.2425 61.3182 59.7652 61.3182C59.2681 61.3182 58.8538 61.4458 58.5223 61.701C58.1942 61.9529 57.9473 62.2959 57.7816 62.7301C57.6192 63.161 57.538 63.6449 57.538 64.1818C57.538 64.7254 57.6208 65.2192 57.7865 65.6634C57.9556 66.1042 58.2042 66.4555 58.5323 66.7173C58.8637 66.9759 59.2747 67.1051 59.7652 67.1051ZM67.7651 68.179C67.2812 68.179 66.842 68.0878 66.4476 67.9055C66.0532 67.7199 65.74 67.4531 65.508 67.1051C65.276 66.7538 65.16 66.3295 65.16 65.8324C65.16 65.3949 65.2462 65.0402 65.4185 64.7685C65.5908 64.4934 65.8212 64.2779 66.1096 64.1222C66.3979 63.9664 66.7161 63.8504 67.0641 63.7741C67.4154 63.6946 67.7684 63.6316 68.123 63.5852C68.5871 63.5256 68.9632 63.4808 69.2516 63.451C69.5433 63.4179 69.7554 63.3632 69.888 63.2869C70.0239 63.2107 70.0918 63.0781 70.0918 62.8892V62.8494C70.0918 62.3589 69.9576 61.9777 69.6891 61.706C69.4239 61.4342 69.0212 61.2983 68.481 61.2983C67.9209 61.2983 67.4817 61.4209 67.1635 61.6662C66.8453 61.9115 66.6216 62.1733 66.4924 62.4517L65.3787 62.054C65.5776 61.59 65.8427 61.2287 66.1742 60.9702C66.5089 60.7083 66.8735 60.526 67.2679 60.4233C67.6657 60.3172 68.0568 60.2642 68.4412 60.2642C68.6865 60.2642 68.9682 60.294 69.2864 60.3537C69.6079 60.41 69.9178 60.5277 70.2161 60.7067C70.5177 60.8857 70.7679 61.1558 70.9668 61.517C71.1657 61.8783 71.2651 62.3622 71.2651 62.9688V68H70.0918V66.9659H70.0321C69.9526 67.1316 69.82 67.3089 69.6344 67.4979C69.4488 67.6868 69.2019 67.8475 68.8936 67.9801C68.5854 68.1127 68.2092 68.179 67.7651 68.179ZM67.9441 67.125C68.4081 67.125 68.7992 67.0339 69.1174 66.8516C69.4389 66.6693 69.6808 66.4339 69.8432 66.1456C70.0089 65.8572 70.0918 65.554 70.0918 65.2358V64.1619C70.0421 64.2216 69.9327 64.2763 69.7637 64.326C69.598 64.3724 69.4057 64.4138 69.187 64.4503C68.9715 64.4834 68.7611 64.5133 68.5556 64.5398C68.3534 64.563 68.1893 64.5829 68.0634 64.5994C67.7585 64.6392 67.4734 64.7038 67.2083 64.7933C66.9464 64.8795 66.7343 65.0104 66.5719 65.1861C66.4128 65.3584 66.3333 65.5937 66.3333 65.892C66.3333 66.2997 66.4841 66.608 66.7857 66.8168C67.0906 67.0223 67.4767 67.125 67.9441 67.125ZM78.9157 62.0739L77.8617 62.3722C77.7954 62.1965 77.6977 62.0258 77.5684 61.8601C77.4424 61.6911 77.2701 61.5518 77.0513 61.4425C76.8326 61.3331 76.5525 61.2784 76.2111 61.2784C75.7438 61.2784 75.3544 61.3861 75.0428 61.6016C74.7346 61.8137 74.5805 62.0838 74.5805 62.4119C74.5805 62.7036 74.6865 62.9339 74.8986 63.103C75.1108 63.272 75.4422 63.4129 75.893 63.5256L77.0265 63.804C77.7093 63.9697 78.218 64.2232 78.5528 64.5646C78.8875 64.9027 79.0549 65.3385 79.0549 65.8722C79.0549 66.3097 78.929 66.7008 78.6771 67.0455C78.4285 67.3902 78.0805 67.6619 77.633 67.8608C77.1856 68.0597 76.6652 68.1591 76.0719 68.1591C75.2931 68.1591 74.6484 67.9901 74.138 67.652C73.6276 67.3139 73.3044 66.8201 73.1685 66.1705L74.2822 65.892C74.3882 66.303 74.5888 66.6113 74.8837 66.8168C75.182 67.0223 75.5715 67.125 76.0521 67.125C76.5989 67.125 77.0331 67.009 77.3546 66.777C77.6794 66.5417 77.8418 66.2599 77.8418 65.9318C77.8418 65.6667 77.749 65.4446 77.5634 65.2656C77.3778 65.0833 77.0928 64.9474 76.7083 64.858L75.4356 64.5597C74.7362 64.3939 74.2225 64.1371 73.8944 63.7891C73.5696 63.4377 73.4072 62.9986 73.4072 62.4716C73.4072 62.0407 73.5281 61.6596 73.7701 61.3281C74.0154 60.9967 74.3485 60.7365 74.7694 60.5476C75.1936 60.3587 75.6742 60.2642 76.2111 60.2642C76.9668 60.2642 77.5601 60.4299 77.991 60.7614C78.4252 61.0928 78.7334 61.5303 78.9157 62.0739ZM85.1176 57.8182H86.5892L90.0495 66.2699H90.1688L93.629 57.8182H95.1006V68H93.9472V60.2642H93.8478L90.6659 68H89.5523L86.3705 60.2642H86.2711V68H85.1176V57.8182ZM99.7608 68.179C99.2769 68.179 98.8377 68.0878 98.4433 67.9055C98.0489 67.7199 97.7357 67.4531 97.5037 67.1051C97.2717 66.7538 97.1557 66.3295 97.1557 65.8324C97.1557 65.3949 97.2419 65.0402 97.4142 64.7685C97.5866 64.4934 97.8169 64.2779 98.1053 64.1222C98.3936 63.9664 98.7118 63.8504 99.0598 63.7741C99.4111 63.6946 99.7641 63.6316 100.119 63.5852C100.583 63.5256 100.959 63.4808 101.247 63.451C101.539 63.4179 101.751 63.3632 101.884 63.2869C102.02 63.2107 102.088 63.0781 102.088 62.8892V62.8494C102.088 62.3589 101.953 61.9777 101.685 61.706C101.42 61.4342 101.017 61.2983 100.477 61.2983C99.9166 61.2983 99.4774 61.4209 99.1592 61.6662C98.8411 61.9115 98.6173 62.1733 98.4881 62.4517L97.3744 62.054C97.5733 61.59 97.8384 61.2287 98.1699 60.9702C98.5046 60.7083 98.8692 60.526 99.2636 60.4233C99.6614 60.3172 100.052 60.2642 100.437 60.2642C100.682 60.2642 100.964 60.294 101.282 60.3537C101.604 60.41 101.913 60.5277 102.212 60.7067C102.513 60.8857 102.764 61.1558 102.963 61.517C103.161 61.8783 103.261 62.3622 103.261 62.9688V68H102.088V66.9659H102.028C101.948 67.1316 101.816 67.3089 101.63 67.4979C101.445 67.6868 101.198 67.8475 100.889 67.9801C100.581 68.1127 100.205 68.179 99.7608 68.179ZM99.9398 67.125C100.404 67.125 100.795 67.0339 101.113 66.8516C101.435 66.6693 101.677 66.4339 101.839 66.1456C102.005 65.8572 102.088 65.554 102.088 65.2358V64.1619C102.038 64.2216 101.928 64.2763 101.759 64.326C101.594 64.3724 101.401 64.4138 101.183 64.4503C100.967 64.4834 100.757 64.5133 100.551 64.5398C100.349 64.563 100.185 64.5829 100.059 64.5994C99.7542 64.6392 99.4691 64.7038 99.204 64.7933C98.9421 64.8795 98.73 65.0104 98.5676 65.1861C98.4085 65.3584 98.329 65.5937 98.329 65.892C98.329 66.2997 98.4798 66.608 98.7814 66.8168C99.0863 67.0223 99.4724 67.125 99.9398 67.125ZM105.502 68V60.3636H106.636V61.517H106.715C106.855 61.1392 107.106 60.8326 107.471 60.5973C107.836 60.362 108.247 60.2443 108.704 60.2443C108.79 60.2443 108.898 60.246 109.027 60.2493C109.156 60.2526 109.254 60.2576 109.32 60.2642V61.4574C109.281 61.4474 109.19 61.4325 109.047 61.4126C108.908 61.3894 108.76 61.3778 108.605 61.3778C108.233 61.3778 107.902 61.4557 107.61 61.6115C107.322 61.764 107.093 61.9761 106.924 62.2479C106.758 62.5163 106.676 62.8229 106.676 63.1676V68H105.502ZM111.905 65.2159L111.885 63.7642H112.124L115.465 60.3636H116.916L113.357 63.9631H113.257L111.905 65.2159ZM110.811 68V57.8182H111.985V68H110.811ZM115.664 68L112.681 64.2216L113.516 63.4062L117.155 68H115.664ZM121.414 68.1591C120.678 68.1591 120.043 67.9967 119.51 67.6719C118.979 67.3438 118.57 66.8864 118.282 66.2997C117.997 65.7098 117.854 65.0237 117.854 64.2415C117.854 63.4593 117.997 62.7699 118.282 62.1733C118.57 61.5734 118.971 61.1061 119.485 60.7713C120.002 60.4332 120.605 60.2642 121.294 60.2642C121.692 60.2642 122.085 60.3305 122.473 60.4631C122.861 60.5956 123.213 60.8111 123.532 61.1094C123.85 61.4044 124.103 61.7955 124.292 62.2827C124.481 62.7699 124.576 63.3698 124.576 64.0824V64.5795H118.689V63.5653H123.383C123.383 63.1345 123.296 62.75 123.124 62.4119C122.955 62.0739 122.713 61.8071 122.398 61.6115C122.087 61.416 121.719 61.3182 121.294 61.3182C120.827 61.3182 120.423 61.4342 120.081 61.6662C119.743 61.8949 119.483 62.1932 119.301 62.5611C119.119 62.929 119.027 63.3234 119.027 63.7443V64.4205C119.027 64.9972 119.127 65.486 119.326 65.8871C119.528 66.2848 119.808 66.5881 120.166 66.7969C120.524 67.0024 120.94 67.1051 121.414 67.1051C121.722 67.1051 122 67.062 122.249 66.9759C122.501 66.8864 122.718 66.7538 122.9 66.5781C123.083 66.3991 123.223 66.1771 123.323 65.9119L124.456 66.2301C124.337 66.6146 124.137 66.9527 123.855 67.2443C123.573 67.5327 123.225 67.758 122.811 67.9205C122.396 68.0795 121.931 68.1591 121.414 68.1591ZM129.782 60.3636V61.358H125.824V60.3636H129.782ZM126.978 58.5341H128.151V65.8125C128.151 66.1439 128.199 66.3925 128.295 66.5582C128.394 66.7206 128.52 66.83 128.673 66.8864C128.829 66.9394 128.993 66.9659 129.165 66.9659C129.294 66.9659 129.4 66.9593 129.483 66.946C129.566 66.9295 129.632 66.9162 129.682 66.9062L129.921 67.9602C129.841 67.9901 129.73 68.0199 129.588 68.0497C129.445 68.0829 129.264 68.0994 129.046 68.0994C128.714 68.0994 128.389 68.0282 128.071 67.8857C127.756 67.7431 127.495 67.526 127.286 67.2344C127.08 66.9427 126.978 66.5748 126.978 66.1307V58.5341ZM131.646 68V60.3636H132.82V68H131.646ZM132.243 59.0909C132.014 59.0909 131.817 59.013 131.651 58.8572C131.489 58.7015 131.408 58.5142 131.408 58.2955C131.408 58.0767 131.489 57.8894 131.651 57.7337C131.817 57.5779 132.014 57.5 132.243 57.5C132.472 57.5 132.667 57.5779 132.83 57.7337C132.995 57.8894 133.078 58.0767 133.078 58.2955C133.078 58.5142 132.995 58.7015 132.83 58.8572C132.667 59.013 132.472 59.0909 132.243 59.0909ZM136.242 63.4062V68H135.069V60.3636H136.202V61.5568H136.302C136.481 61.169 136.752 60.8575 137.117 60.6222C137.482 60.3835 137.952 60.2642 138.529 60.2642C139.046 60.2642 139.498 60.3703 139.886 60.5824C140.274 60.7912 140.576 61.1094 140.791 61.5369C141.006 61.9612 141.114 62.4981 141.114 63.1477V68H139.941V63.2273C139.941 62.6274 139.785 62.16 139.474 61.8253C139.162 61.4872 138.734 61.3182 138.191 61.3182C137.816 61.3182 137.482 61.3994 137.187 61.5618C136.895 61.7242 136.665 61.9612 136.496 62.2727C136.327 62.5843 136.242 62.9621 136.242 63.4062ZM146.441 71.0227C145.874 71.0227 145.387 70.9498 144.979 70.804C144.571 70.6615 144.232 70.4725 143.96 70.2372C143.691 70.0052 143.477 69.7566 143.318 69.4915L144.253 68.8352C144.359 68.9744 144.493 69.1335 144.656 69.3125C144.818 69.4948 145.04 69.6522 145.322 69.7848C145.607 69.9207 145.98 69.9886 146.441 69.9886C147.057 69.9886 147.566 69.8395 147.967 69.5412C148.368 69.2429 148.568 68.7756 148.568 68.1392V66.5881H148.469C148.383 66.7273 148.26 66.8996 148.101 67.1051C147.945 67.3073 147.72 67.4879 147.425 67.647C147.133 67.8028 146.739 67.8807 146.242 67.8807C145.625 67.8807 145.072 67.7348 144.581 67.4432C144.094 67.1515 143.708 66.7273 143.423 66.1705C143.141 65.6136 143 64.9375 143 64.142C143 63.3598 143.138 62.6787 143.413 62.0987C143.688 61.5154 144.071 61.0646 144.561 60.7464C145.052 60.425 145.619 60.2642 146.262 60.2642C146.759 60.2642 147.153 60.3471 147.445 60.5128C147.74 60.6752 147.965 60.8608 148.121 61.0696C148.28 61.2751 148.403 61.4441 148.489 61.5767H148.608V60.3636H149.742V68.2188C149.742 68.875 149.593 69.4086 149.294 69.8196C148.999 70.2339 148.602 70.5372 148.101 70.7294C147.604 70.925 147.05 71.0227 146.441 71.0227ZM146.401 66.8267C146.871 66.8267 147.269 66.719 147.594 66.5036C147.919 66.2881 148.166 65.9782 148.335 65.5739C148.504 65.1695 148.588 64.6856 148.588 64.1222C148.588 63.572 148.505 63.0864 148.34 62.6655C148.174 62.2446 147.929 61.9148 147.604 61.6761C147.279 61.4375 146.878 61.3182 146.401 61.3182C145.904 61.3182 145.489 61.4441 145.158 61.696C144.83 61.9479 144.583 62.286 144.417 62.7102C144.255 63.1345 144.174 63.6051 144.174 64.1222C144.174 64.6525 144.256 65.1214 144.422 65.5291C144.591 65.9335 144.84 66.2517 145.168 66.4837C145.499 66.7124 145.91 66.8267 146.401 66.8267Z" fill="#44444F"/>
</g>
<path d="M16.232 32V20.08H20.568C21.368 20.08 22.072 20.2293 22.68 20.528C23.288 20.816 23.7627 21.2427 24.104 21.808C24.456 22.3627 24.632 23.0293 24.632 23.808C24.632 24.6293 24.424 25.3333 24.008 25.92C23.6027 26.5067 23.0533 26.9333 22.36 27.2L25.112 32H22.968L20.04 26.8L21.272 27.52H18.12V32H16.232ZM18.12 25.84H20.6C21.0373 25.84 21.416 25.7547 21.736 25.584C22.056 25.4133 22.3013 25.1787 22.472 24.88C22.6533 24.5707 22.744 24.208 22.744 23.792C22.744 23.376 22.6533 23.0187 22.472 22.72C22.3013 22.4107 22.056 22.176 21.736 22.016C21.416 21.8453 21.0373 21.76 20.6 21.76H18.12V25.84ZM30.2044 32.192C29.3404 32.192 28.5724 31.9947 27.9004 31.6C27.239 31.1947 26.7217 30.6507 26.3484 29.968C25.975 29.2747 25.7884 28.5013 25.7884 27.648C25.7884 26.7733 25.975 26 26.3484 25.328C26.7324 24.656 27.2444 24.128 27.8844 23.744C28.5244 23.3493 29.2497 23.152 30.0604 23.152C30.711 23.152 31.2924 23.264 31.8044 23.488C32.3164 23.712 32.7484 24.0213 33.1004 24.416C33.4524 24.8 33.719 25.2427 33.9004 25.744C34.0924 26.2453 34.1884 26.7787 34.1884 27.344C34.1884 27.4827 34.183 27.6267 34.1724 27.776C34.1617 27.9253 34.1404 28.064 34.1084 28.192H27.2124V26.752H33.0844L32.2204 27.408C32.327 26.8853 32.2897 26.4213 32.1084 26.016C31.9377 25.6 31.671 25.2747 31.3084 25.04C30.9564 24.7947 30.5404 24.672 30.0604 24.672C29.5804 24.672 29.1537 24.7947 28.7804 25.04C28.407 25.2747 28.119 25.616 27.9164 26.064C27.7137 26.5013 27.6337 27.0347 27.6764 27.664C27.623 28.2507 27.703 28.7627 27.9164 29.2C28.1404 29.6373 28.4497 29.9787 28.8444 30.224C29.2497 30.4693 29.7084 30.592 30.2204 30.592C30.743 30.592 31.1857 30.4747 31.5484 30.24C31.9217 30.0053 32.215 29.7013 32.4284 29.328L33.9004 30.048C33.7297 30.4533 33.463 30.8213 33.1004 31.152C32.7484 31.472 32.3217 31.728 31.8204 31.92C31.3297 32.1013 30.791 32.192 30.2044 32.192ZM39.2529 32.192C38.3675 32.192 37.5889 31.9733 36.9169 31.536C36.2555 31.0987 35.7915 30.512 35.5249 29.776L36.9169 29.12C37.1515 29.6107 37.4715 30 37.8769 30.288C38.2929 30.576 38.7515 30.72 39.2529 30.72C39.6795 30.72 40.0262 30.624 40.2929 30.432C40.5595 30.24 40.6929 29.9787 40.6929 29.648C40.6929 29.4347 40.6342 29.264 40.5169 29.136C40.3995 28.9973 40.2502 28.8853 40.0689 28.8C39.8982 28.7147 39.7222 28.6507 39.5409 28.608L38.1809 28.224C37.4342 28.0107 36.8742 27.6907 36.5009 27.264C36.1382 26.8267 35.9569 26.32 35.9569 25.744C35.9569 25.2213 36.0902 24.768 36.3569 24.384C36.6235 23.9893 36.9915 23.6853 37.4609 23.472C37.9302 23.2587 38.4582 23.152 39.0449 23.152C39.8342 23.152 40.5382 23.3493 41.1569 23.744C41.7755 24.128 42.2129 24.6667 42.4689 25.36L41.0769 26.016C40.9062 25.6 40.6342 25.2693 40.2609 25.024C39.8982 24.7787 39.4875 24.656 39.0289 24.656C38.6342 24.656 38.3195 24.752 38.0849 24.944C37.8502 25.1253 37.7329 25.3653 37.7329 25.664C37.7329 25.8667 37.7862 26.0373 37.8929 26.176C37.9995 26.304 38.1382 26.4107 38.3089 26.496C38.4795 26.5707 38.6555 26.6347 38.8369 26.688L40.2449 27.104C40.9595 27.3067 41.5089 27.6267 41.8929 28.064C42.2769 28.4907 42.4689 29.0027 42.4689 29.6C42.4689 30.112 42.3302 30.5653 42.0529 30.96C41.7862 31.344 41.4129 31.648 40.9329 31.872C40.4529 32.0853 39.8929 32.192 39.2529 32.192ZM47.4284 32.192C46.7777 32.192 46.207 32.048 45.7164 31.76C45.2257 31.4613 44.8417 31.0507 44.5644 30.528C44.2977 29.9947 44.1644 29.3813 44.1644 28.688V23.344H45.9724V28.528C45.9724 28.9227 46.0524 29.2693 46.2124 29.568C46.3724 29.8667 46.5964 30.1013 46.8844 30.272C47.1724 30.432 47.503 30.512 47.8764 30.512C48.2604 30.512 48.5964 30.4267 48.8844 30.256C49.1724 30.0853 49.3964 29.8453 49.5564 29.536C49.727 29.2267 49.8124 28.864 49.8124 28.448V23.344H51.6044V32H49.8924V30.304L50.0844 30.528C49.8817 31.0613 49.5457 31.472 49.0764 31.76C48.607 32.048 48.0577 32.192 47.4284 32.192ZM53.8154 32V19.888H55.6234V32H53.8154ZM61.5813 32.096C60.6746 32.096 59.9706 31.84 59.4693 31.328C58.9679 30.816 58.7173 30.096 58.7173 29.168V24.976H57.1973V23.344H57.4373C57.8426 23.344 58.1573 23.2267 58.3813 22.992C58.6053 22.7573 58.7173 22.4373 58.7173 22.032V21.36H60.5253V23.344H62.4933V24.976H60.5253V29.088C60.5253 29.3867 60.5733 29.6427 60.6693 29.856C60.7653 30.0587 60.9199 30.2187 61.1333 30.336C61.3466 30.4427 61.6239 30.496 61.9653 30.496C62.0506 30.496 62.1466 30.4907 62.2533 30.48C62.3599 30.4693 62.4613 30.4587 62.5573 30.448V32C62.4079 32.0213 62.2426 32.0427 62.0613 32.064C61.8799 32.0853 61.7199 32.096 61.5813 32.096ZM66.9355 32.192C66.3488 32.192 65.8315 32.0907 65.3835 31.888C64.9462 31.6747 64.6048 31.3867 64.3595 31.024C64.1142 30.6507 63.9915 30.2133 63.9915 29.712C63.9915 29.2427 64.0928 28.8213 64.2955 28.448C64.5088 28.0747 64.8342 27.76 65.2715 27.504C65.7088 27.248 66.2582 27.0667 66.9195 26.96L69.9275 26.464V27.888L67.2715 28.352C66.7915 28.4373 66.4395 28.592 66.2155 28.816C65.9915 29.0293 65.8795 29.3067 65.8795 29.648C65.8795 29.9787 66.0022 30.2507 66.2475 30.464C66.5035 30.6667 66.8288 30.768 67.2235 30.768C67.7142 30.768 68.1408 30.6613 68.5035 30.448C68.8768 30.2347 69.1648 29.952 69.3675 29.6C69.5702 29.2373 69.6715 28.8373 69.6715 28.4V26.176C69.6715 25.7493 69.5115 25.4027 69.1915 25.136C68.8822 24.8587 68.4662 24.72 67.9435 24.72C67.4635 24.72 67.0422 24.848 66.6795 25.104C66.3275 25.3493 66.0662 25.6693 65.8955 26.064L64.3915 25.312C64.5515 24.8853 64.8128 24.512 65.1755 24.192C65.5382 23.8613 65.9595 23.6053 66.4395 23.424C66.9302 23.2427 67.4475 23.152 67.9915 23.152C68.6742 23.152 69.2768 23.28 69.7995 23.536C70.3328 23.792 70.7435 24.1493 71.0315 24.608C71.3302 25.056 71.4795 25.5787 71.4795 26.176V32H69.7515V30.432L70.1195 30.48C69.9168 30.832 69.6555 31.136 69.3355 31.392C69.0262 31.648 68.6688 31.8453 68.2635 31.984C67.8688 32.1227 67.4262 32.192 66.9355 32.192ZM77.6935 32.192C76.8615 32.192 76.1148 31.9947 75.4535 31.6C74.8028 31.1947 74.2855 30.6507 73.9015 29.968C73.5282 29.2853 73.3415 28.5173 73.3415 27.664C73.3415 26.8107 73.5335 26.0427 73.9175 25.36C74.3015 24.6773 74.8188 24.1387 75.4695 23.744C76.1202 23.3493 76.8562 23.152 77.6775 23.152C78.3708 23.152 78.9842 23.2907 79.5175 23.568C80.0508 23.8453 80.4722 24.2293 80.7815 24.72L80.5095 25.136V19.888H82.3015V32H80.5895V30.24L80.7975 30.576C80.4988 31.0987 80.0722 31.4987 79.5175 31.776C78.9628 32.0533 78.3548 32.192 77.6935 32.192ZM77.8695 30.512C78.3708 30.512 78.8188 30.3893 79.2135 30.144C79.6188 29.8987 79.9335 29.5627 80.1575 29.136C80.3922 28.6987 80.5095 28.208 80.5095 27.664C80.5095 27.12 80.3922 26.6347 80.1575 26.208C79.9335 25.7813 79.6188 25.4453 79.2135 25.2C78.8188 24.9547 78.3708 24.832 77.8695 24.832C77.3682 24.832 76.9148 24.9547 76.5095 25.2C76.1042 25.4453 75.7895 25.7813 75.5655 26.208C75.3415 26.6347 75.2295 27.12 75.2295 27.664C75.2295 28.208 75.3415 28.6987 75.5655 29.136C75.7895 29.5627 76.0988 29.8987 76.4935 30.144C76.8988 30.3893 77.3575 30.512 77.8695 30.512ZM88.6883 32.192C87.8563 32.192 87.0936 31.9947 86.4003 31.6C85.7176 31.2053 85.1736 30.6667 84.7683 29.984C84.3629 29.3013 84.1603 28.528 84.1603 27.664C84.1603 26.7893 84.3629 26.016 84.7683 25.344C85.1736 24.6613 85.7176 24.128 86.4003 23.744C87.0829 23.3493 87.8456 23.152 88.6883 23.152C89.5416 23.152 90.3043 23.3493 90.9763 23.744C91.6589 24.128 92.1976 24.6613 92.5923 25.344C92.9976 26.016 93.2003 26.7893 93.2003 27.664C93.2003 28.5387 92.9976 29.3173 92.5923 30C92.1869 30.6827 91.6429 31.2213 90.9603 31.616C90.2776 32 89.5203 32.192 88.6883 32.192ZM88.6883 30.512C89.2003 30.512 89.6536 30.3893 90.0483 30.144C90.4429 29.8987 90.7523 29.5627 90.9763 29.136C91.2109 28.6987 91.3283 28.208 91.3283 27.664C91.3283 27.12 91.2109 26.6347 90.9763 26.208C90.7523 25.7813 90.4429 25.4453 90.0483 25.2C89.6536 24.9547 89.2003 24.832 88.6883 24.832C88.1869 24.832 87.7336 24.9547 87.3283 25.2C86.9336 25.4453 86.6189 25.7813 86.3843 26.208C86.1603 26.6347 86.0483 27.12 86.0483 27.664C86.0483 28.208 86.1603 28.6987 86.3843 29.136C86.6189 29.5627 86.9336 29.8987 87.3283 30.144C87.7336 30.3893 88.1869 30.512 88.6883 30.512ZM101.962 32.192C101.13 32.192 100.384 31.9947 99.7223 31.6C99.0716 31.1947 98.5543 30.6507 98.1703 29.968C97.7969 29.2853 97.6103 28.5173 97.6103 27.664C97.6103 26.8107 97.8023 26.0427 98.1863 25.36C98.5703 24.6773 99.0876 24.1387 99.7383 23.744C100.389 23.3493 101.125 23.152 101.946 23.152C102.64 23.152 103.253 23.2907 103.786 23.568C104.32 23.8453 104.741 24.2293 105.05 24.72L104.778 25.136V19.888H106.57V32H104.858V30.24L105.066 30.576C104.768 31.0987 104.341 31.4987 103.786 31.776C103.232 32.0533 102.624 32.192 101.962 32.192ZM102.138 30.512C102.64 30.512 103.088 30.3893 103.482 30.144C103.888 29.8987 104.202 29.5627 104.426 29.136C104.661 28.6987 104.778 28.208 104.778 27.664C104.778 27.12 104.661 26.6347 104.426 26.208C104.202 25.7813 103.888 25.4453 103.482 25.2C103.088 24.9547 102.64 24.832 102.138 24.832C101.637 24.832 101.184 24.9547 100.778 25.2C100.373 25.4453 100.058 25.7813 99.8343 26.208C99.6103 26.6347 99.4983 27.12 99.4983 27.664C99.4983 28.208 99.6103 28.6987 99.8343 29.136C100.058 29.5627 100.368 29.8987 100.762 30.144C101.168 30.3893 101.626 30.512 102.138 30.512ZM112.845 32.192C111.981 32.192 111.213 31.9947 110.541 31.6C109.88 31.1947 109.362 30.6507 108.989 29.968C108.616 29.2747 108.429 28.5013 108.429 27.648C108.429 26.7733 108.616 26 108.989 25.328C109.373 24.656 109.885 24.128 110.525 23.744C111.165 23.3493 111.89 23.152 112.701 23.152C113.352 23.152 113.933 23.264 114.445 23.488C114.957 23.712 115.389 24.0213 115.741 24.416C116.093 24.8 116.36 25.2427 116.541 25.744C116.733 26.2453 116.829 26.7787 116.829 27.344C116.829 27.4827 116.824 27.6267 116.813 27.776C116.802 27.9253 116.781 28.064 116.749 28.192H109.853V26.752H115.725L114.861 27.408C114.968 26.8853 114.93 26.4213 114.749 26.016C114.578 25.6 114.312 25.2747 113.949 25.04C113.597 24.7947 113.181 24.672 112.701 24.672C112.221 24.672 111.794 24.7947 111.421 25.04C111.048 25.2747 110.76 25.616 110.557 26.064C110.354 26.5013 110.274 27.0347 110.317 27.664C110.264 28.2507 110.344 28.7627 110.557 29.2C110.781 29.6373 111.09 29.9787 111.485 30.224C111.89 30.4693 112.349 30.592 112.861 30.592C113.384 30.592 113.826 30.4747 114.189 30.24C114.562 30.0053 114.856 29.7013 115.069 29.328L116.541 30.048C116.37 30.4533 116.104 30.8213 115.741 31.152C115.389 31.472 114.962 31.728 114.461 31.92C113.97 32.1013 113.432 32.192 112.845 32.192ZM124.934 32L120.71 20.08H122.742L126.198 30.256H125.798L129.238 20.08H131.27L127.046 32H124.934ZM135.864 32.192C135 32.192 134.232 31.9947 133.56 31.6C132.898 31.1947 132.381 30.6507 132.008 29.968C131.634 29.2747 131.448 28.5013 131.448 27.648C131.448 26.7733 131.634 26 132.008 25.328C132.392 24.656 132.904 24.128 133.544 23.744C134.184 23.3493 134.909 23.152 135.72 23.152C136.37 23.152 136.952 23.264 137.464 23.488C137.976 23.712 138.408 24.0213 138.76 24.416C139.112 24.8 139.378 25.2427 139.56 25.744C139.752 26.2453 139.848 26.7787 139.848 27.344C139.848 27.4827 139.842 27.6267 139.832 27.776C139.821 27.9253 139.8 28.064 139.768 28.192H132.872V26.752H138.744L137.88 27.408C137.986 26.8853 137.949 26.4213 137.768 26.016C137.597 25.6 137.33 25.2747 136.968 25.04C136.616 24.7947 136.2 24.672 135.72 24.672C135.24 24.672 134.813 24.7947 134.44 25.04C134.066 25.2747 133.778 25.616 133.576 26.064C133.373 26.5013 133.293 27.0347 133.336 27.664C133.282 28.2507 133.362 28.7627 133.576 29.2C133.8 29.6373 134.109 29.9787 134.504 30.224C134.909 30.4693 135.368 30.592 135.88 30.592C136.402 30.592 136.845 30.4747 137.208 30.24C137.581 30.0053 137.874 29.7013 138.088 29.328L139.56 30.048C139.389 30.4533 139.122 30.8213 138.76 31.152C138.408 31.472 137.981 31.728 137.48 31.92C136.989 32.1013 136.45 32.192 135.864 32.192ZM141.712 32V23.344H143.44V25.04L143.232 24.816C143.446 24.272 143.787 23.8613 144.256 23.584C144.726 23.296 145.27 23.152 145.888 23.152C146.528 23.152 147.094 23.2907 147.584 23.568C148.075 23.8453 148.459 24.2293 148.736 24.72C149.014 25.2107 149.152 25.776 149.152 26.416V32H147.36V26.896C147.36 26.4587 147.28 26.0907 147.12 25.792C146.96 25.4827 146.731 25.248 146.432 25.088C146.144 24.9173 145.814 24.832 145.44 24.832C145.067 24.832 144.731 24.9173 144.432 25.088C144.144 25.248 143.92 25.4827 143.76 25.792C143.6 26.1013 143.52 26.4693 143.52 26.896V32H141.712ZM155.187 32.192C154.355 32.192 153.609 31.9947 152.947 31.6C152.297 31.1947 151.779 30.6507 151.395 29.968C151.022 29.2853 150.835 28.5173 150.835 27.664C150.835 26.8107 151.027 26.0427 151.411 25.36C151.795 24.6773 152.313 24.1387 152.963 23.744C153.614 23.3493 154.35 23.152 155.171 23.152C155.865 23.152 156.478 23.2907 157.011 23.568C157.545 23.8453 157.966 24.2293 158.275 24.72L158.003 25.136V19.888H159.795V32H158.083V30.24L158.291 30.576C157.993 31.0987 157.566 31.4987 157.011 31.776C156.457 32.0533 155.849 32.192 155.187 32.192ZM155.363 30.512C155.865 30.512 156.313 30.3893 156.707 30.144C157.113 29.8987 157.427 29.5627 157.651 29.136C157.886 28.6987 158.003 28.208 158.003 27.664C158.003 27.12 157.886 26.6347 157.651 26.208C157.427 25.7813 157.113 25.4453 156.707 25.2C156.313 24.9547 155.865 24.832 155.363 24.832C154.862 24.832 154.409 24.9547 154.003 25.2C153.598 25.4453 153.283 25.7813 153.059 26.208C152.835 26.6347 152.723 27.12 152.723 27.664C152.723 28.208 152.835 28.6987 153.059 29.136C153.283 29.5627 153.593 29.8987 153.987 30.144C154.393 30.3893 154.851 30.512 155.363 30.512ZM164.598 32.192C164.011 32.192 163.494 32.0907 163.046 31.888C162.609 31.6747 162.267 31.3867 162.022 31.024C161.777 30.6507 161.654 30.2133 161.654 29.712C161.654 29.2427 161.755 28.8213 161.958 28.448C162.171 28.0747 162.497 27.76 162.934 27.504C163.371 27.248 163.921 27.0667 164.582 26.96L167.59 26.464V27.888L164.934 28.352C164.454 28.4373 164.102 28.592 163.878 28.816C163.654 29.0293 163.542 29.3067 163.542 29.648C163.542 29.9787 163.665 30.2507 163.91 30.464C164.166 30.6667 164.491 30.768 164.886 30.768C165.377 30.768 165.803 30.6613 166.166 30.448C166.539 30.2347 166.827 29.952 167.03 29.6C167.233 29.2373 167.334 28.8373 167.334 28.4V26.176C167.334 25.7493 167.174 25.4027 166.854 25.136C166.545 24.8587 166.129 24.72 165.606 24.72C165.126 24.72 164.705 24.848 164.342 25.104C163.99 25.3493 163.729 25.6693 163.558 26.064L162.054 25.312C162.214 24.8853 162.475 24.512 162.838 24.192C163.201 23.8613 163.622 23.6053 164.102 23.424C164.593 23.2427 165.11 23.152 165.654 23.152C166.337 23.152 166.939 23.28 167.462 23.536C167.995 23.792 168.406 24.1493 168.694 24.608C168.993 25.056 169.142 25.5787 169.142 26.176V32H167.414V30.432L167.782 30.48C167.579 30.832 167.318 31.136 166.998 31.392C166.689 31.648 166.331 31.8453 165.926 31.984C165.531 32.1227 165.089 32.192 164.598 32.192ZM174.556 32.192C173.671 32.192 172.892 31.9733 172.22 31.536C171.559 31.0987 171.095 30.512 170.828 29.776L172.22 29.12C172.455 29.6107 172.775 30 173.18 30.288C173.596 30.576 174.055 30.72 174.556 30.72C174.983 30.72 175.329 30.624 175.596 30.432C175.863 30.24 175.996 29.9787 175.996 29.648C175.996 29.4347 175.937 29.264 175.82 29.136C175.703 28.9973 175.553 28.8853 175.372 28.8C175.201 28.7147 175.025 28.6507 174.844 28.608L173.484 28.224C172.737 28.0107 172.177 27.6907 171.804 27.264C171.441 26.8267 171.26 26.32 171.26 25.744C171.26 25.2213 171.393 24.768 171.66 24.384C171.927 23.9893 172.295 23.6853 172.764 23.472C173.233 23.2587 173.761 23.152 174.348 23.152C175.137 23.152 175.841 23.3493 176.46 23.744C177.079 24.128 177.516 24.6667 177.772 25.36L176.38 26.016C176.209 25.6 175.937 25.2693 175.564 25.024C175.201 24.7787 174.791 24.656 174.332 24.656C173.937 24.656 173.623 24.752 173.388 24.944C173.153 25.1253 173.036 25.3653 173.036 25.664C173.036 25.8667 173.089 26.0373 173.196 26.176C173.303 26.304 173.441 26.4107 173.612 26.496C173.783 26.5707 173.959 26.6347 174.14 26.688L175.548 27.104C176.263 27.3067 176.812 27.6267 177.196 28.064C177.58 28.4907 177.772 29.0027 177.772 29.6C177.772 30.112 177.633 30.5653 177.356 30.96C177.089 31.344 176.716 31.648 176.236 31.872C175.756 32.0853 175.196 32.192 174.556 32.192Z" fill="#171725"/>
</g>
<defs>
<filter id="filter0_d_35_288" x="177" y="163" width="22" height="22" filterUnits="userSpaceOnUse" color-interpolation-filters="sRGB">
<feFlood flood-opacity="0" result="BackgroundImageFix"/>
<feColorMatrix in="SourceAlpha" type="matrix" values="0 0 0 0 0 0 0 0 0 0 0 0 0 0 0 0 0 0 127 0" result="hardAlpha"/>
<feOffset dy="2"/>
<feGaussianBlur stdDeviation="2"/>
<feColorMatrix type="matrix" values="0 0 0 0 0.268354 0 0 0 0 0.268354 0 0 0 0 0.31049 0 0 0 0.15 0"/>
<feBlend mode="normal" in2="BackgroundImageFix" result="effect1_dropShadow_35_288"/>
<feBlend mode="normal" in="SourceGraphic" in2="effect1_dropShadow_35_288" result="shape"/>
</filter>
<filter id="filter1_d_35_288" x="135" y="88" width="105" height="92" filterUnits="userSpaceOnUse" color-interpolation-filters="sRGB">
<feFlood flood-opacity="0" result="BackgroundImageFix"/>
<feColorMatrix in="SourceAlpha" type="matrix" values="0 0 0 0 0 0 0 0 0 0 0 0 0 0 0 0 0 0 127 0" result="hardAlpha"/>
<feOffset dy="5"/>
<feGaussianBlur stdDeviation="7.5"/>
<feColorMatrix type="matrix" values="0 0 0 0 0.268354 0 0 0 0 0.268354 0 0 0 0 0.31049 0 0 0 0.1 0"/>
<feBlend mode="normal" in2="BackgroundImageFix" result="effect1_dropShadow_35_288"/>
<feBlend mode="normal" in="SourceGraphic" in2="effect1_dropShadow_35_288" result="shape"/>
</filter>
<clipPath id="clip0_35_288">
<rect width="300" height="303" fill="white"/>
</clipPath>
<clipPath id="clip1_35_288">
<rect width="22" height="191" fill="white" transform="translate(266 97)"/>
</clipPath>
<clipPath id="clip2_35_288">
<rect width="24" height="191" fill="white" transform="translate(222 97)"/>
</clipPath>
<clipPath id="clip3_35_288">
<rect width="25" height="191" fill="white" transform="translate(177 97)"/>
</clipPath>
<clipPath id="clip4_35_288">
<rect width="20" height="191" fill="white" transform="translate(137 97)"/>
</clipPath>
<clipPath id="clip5_35_288">
<rect width="24" height="191" fill="white" transform="translate(93 97)"/>
</clipPath>
<clipPath id="clip6_35_288">
<rect width="27" height="191" fill="white" transform="translate(46 97)"/>
</clipPath>
<clipPath id="clip7_35_288">
<rect width="16.0952" height="24" fill="white" transform="translate(21.9048 95)"/>
</clipPath>
<clipPath id="clip8_35_288">
<rect width="8.66667" height="24" fill="white" transform="translate(29.3333 265)"/>
</clipPath>
<clipPath id="clip9_35_288">
<rect width="26" height="24" fill="white" transform="translate(12 231)"/>
</clipPath>
<clipPath id="clip10_35_288">
<rect width="26" height="24" fill="white" transform="translate(12 197)"/>
</clipPath>
<clipPath id="clip11_35_288">
<rect width="26" height="24" fill="white" transform="translate(12 163)"/>
</clipPath>
<clipPath id="clip12_35_288">
<rect width="26" height="24" fill="white" transform="translate(12 129)"/>
</clipPath>
<clipPath id="clip13_35_288">
<rect width="75" height="62" fill="white" transform="translate(150 98)"/>
</clipPath>
<clipPath id="clip14_35_288">
<rect width="106" height="24" fill="white" transform="translate(159 51)"/>
</clipPath>
<clipPath id="clip15_35_288">
<rect width="135" height="24" fill="white" transform="translate(15 51)"/>
</clipPath>
</defs>
</svg>
